<?xml version="1.0" encoding="UTF-8" standalone="no"?>
<!DOCTYPE svg PUBLIC "-//W3C//DTD SVG 20010904//EN"
"http://www.w3.org/TR/2001/REC-SVG-20010904/DTD/svg10.dtd">
<svg
   sodipodi:docname="blockdevice.svg"
   height="60.0000000"
   sodipodi:version="0.32"
   width="60.0000000"
   _SVGFile__filename="scalable/filesystems/blockdevice.svg"
   version="1.0"
   y="0"
   x="0"
   inkscape:version="0.39"
   id="svg1"
   sodipodi:docbase="/home/danny/work/flat/newscale/filesystems"
   xmlns="http://www.w3.org/2000/svg"
   xmlns:cc="http://web.resource.org/cc/"
   xmlns:inkscape="http://www.inkscape.org/namespaces/inkscape"
   xmlns:sodipodi="http://sodipodi.sourceforge.net/DTD/sodipodi-0.dtd"
   xmlns:rdf="http://www.w3.org/1999/02/22-rdf-syntax-ns#"
   xmlns:dc="http://purl.org/dc/elements/1.1/"
   xmlns:xlink="http://www.w3.org/1999/xlink">
  <sodipodi:namedview
     bordercolor="#666666"
     inkscape:pageshadow="2"
     inkscape:window-y="0"
     pagecolor="#ffffff"
     inkscape:window-height="685"
     inkscape:zoom="6.9465338"
     inkscape:window-x="0"
     borderopacity="1.0"
     inkscape:cx="37.697540"
     inkscape:cy="20.509237"
     inkscape:window-width="1016"
     inkscape:pageopacity="0.0"
     id="base" />
  <defs
     id="defs3">
    <linearGradient
       id="linearGradient772">
      <stop
         style="stop-color:#000;stop-opacity:1;"
         id="stop773"
         offset="0" />
      <stop
         style="stop-color:#fff;stop-opacity:1;"
         id="stop774"
         offset="1" />
    </linearGradient>
    <linearGradient
       xlink:href="#linearGradient772"
       id="linearGradient775" />
  </defs>
  <path
     style="font-size:12;fill:#4c4c4c;fill-rule:evenodd;stroke:#333333;stroke-width:3.47781;stroke-linecap:round;stroke-linejoin:round;stroke-dasharray:none;"
     d="M 23.691738 56.795718 L 34.729551 46.123396 L 34.729551 28.433656 L 23.764836 38.813587 L 23.691738 56.795718 z "
     sodipodi:nodetypes="ccccc"
     transform="matrix(0.898555,0.000000,0.000000,0.898555,-0.685720,1.278275)"
     sodipodi:stroke-cmyk="(0 0 0 0.8)"
     id="path653" />
  <path
     style="font-size:12;fill: #7f7f7f;fill-rule:evenodd;stroke:#333333;stroke-width:3.47781;stroke-linecap:round;stroke-linejoin:round;stroke-dasharray:none;"
     d="M 5.3441165 38.228801 L 15.724046 28.141265 L 34.729551 28.141265 L 23.618641 39.03288 L 5.3441165 38.228801 z "
     fill-opacity="1.0"
     sodipodi:nodetypes="ccccc"
     transform="matrix(0.898555,0.000000,0.000000,0.898555,-0.685720,1.278275)"
     sodipodi:stroke-cmyk="(0 0 0 0.8)"
     id="path654" />
  <path
     transform="matrix(0.898555,0.000000,0.000000,0.898555,-0.685720,1.278275)"
     style="font-size:12.000000;fill:#b3b3b3;fill-rule:evenodd;stroke:#333333;stroke-width:3.4778099;stroke-linejoin:round;stroke-linecap:round;"
     d="M 6.7339673,37.511471 C 5.8337778,37.511471 5.1090765,38.236172 5.1090765,39.136362 L 5.1090765,55.321328 C 5.1090765,56.221517 5.8337778,56.946218 6.7339673,56.946218 L 22.918933,56.946218 C 23.819123,56.946218 24.543824,56.221517 24.543824,55.321328 L 24.543824,39.136362 C 24.543824,38.236172 23.819123,37.511471 22.918933,37.511471 L 6.7339673,37.511471 z "
     id="rect648" />
  <path
     style="font-size:12;fill:#4c4c4c;fill-rule:evenodd;stroke:#333333;stroke-width:3.47781;stroke-linecap:round;stroke-linejoin:round;stroke-dasharray:none;"
     d="M 23.691738 56.795718 L 34.729551 46.123396 L 34.729551 28.433656 L 23.764836 38.813587 L 23.691738 56.795718 z "
     sodipodi:nodetypes="ccccc"
     transform="matrix(0.898555,0.000000,0.000000,0.898555,25.29660,1.278275)"
     sodipodi:stroke-cmyk="(0 0 0 0.8)"
     id="path664" />
  <path
     style="font-size:12;fill: #7f7f7f;fill-rule:evenodd;stroke:#333333;stroke-width:3.47781;stroke-linecap:round;stroke-linejoin:round;stroke-dasharray:none;"
     d="M 5.3441165 38.228801 L 15.724046 28.141265 L 34.729551 28.141265 L 23.618641 39.03288 L 5.3441165 38.228801 z "
     fill-opacity="1.0"
     sodipodi:nodetypes="ccccc"
     transform="matrix(0.898555,0.000000,0.000000,0.898555,25.29660,1.278275)"
     sodipodi:stroke-cmyk="(0 0 0 0.8)"
     id="path665" />
  <path
     transform="matrix(0.898555,0.000000,0.000000,0.898555,25.29660,1.278275)"
     style="font-size:12.000000;fill:#b3b3b3;fill-rule:evenodd;stroke:#333333;stroke-width:3.4778099;stroke-linejoin:round;stroke-linecap:round;"
     d="M 6.7339673,37.511471 C 5.8337778,37.511471 5.1090765,38.236172 5.1090765,39.136362 L 5.1090765,55.321328 C 5.1090765,56.221517 5.8337778,56.946218 6.7339673,56.946218 L 22.918933,56.946218 C 23.819123,56.946218 24.543824,56.221517 24.543824,55.321328 L 24.543824,39.136362 C 24.543824,38.236172 23.819123,37.511471 22.918933,37.511471 L 6.7339673,37.511471 z "
     id="rect666" />
  <path
     style="font-size:12;fill:#4c4c4c;fill-rule:evenodd;stroke:#333333;stroke-width:3.47781;stroke-linecap:round;stroke-linejoin:round;stroke-dasharray:none;"
     d="M 23.691738 56.795718 L 34.729551 46.123396 L 34.729551 28.433656 L 23.764836 38.813587 L 23.691738 56.795718 z "
     sodipodi:nodetypes="ccccc"
     transform="matrix(0.898555,0.000000,0.000000,0.898555,12.07327,-16.18438)"
     sodipodi:stroke-cmyk="(0 0 0 0.8)"
     id="path660" />
  <path
     style="font-size:12;fill: #7f7f7f;fill-rule:evenodd;stroke:#333333;stroke-width:3.47781;stroke-linecap:round;stroke-linejoin:round;stroke-dasharray:none;"
     d="M 5.3441165 38.228801 L 15.724046 28.141265 L 34.729551 28.141265 L 23.618641 39.03288 L 5.3441165 38.228801 z "
     fill-opacity="1.0"
     sodipodi:nodetypes="ccccc"
     transform="matrix(0.898555,0.000000,0.000000,0.898555,12.07327,-16.18438)"
     sodipodi:stroke-cmyk="(0 0 0 0.8)"
     id="path661" />
  <path
     transform="matrix(0.898555,0.000000,0.000000,0.898555,12.07327,-16.18438)"
     style="font-size:12.000000;fill:#b3b3b3;fill-rule:evenodd;stroke:#333333;stroke-width:3.4778099;stroke-linejoin:round;stroke-linecap:round;"
     d="M 6.7339673,37.511471 C 5.8337778,37.511471 5.1090765,38.236172 5.1090765,39.136362 L 5.1090765,55.321328 C 5.1090765,56.221517 5.8337778,56.946218 6.7339673,56.946218 L 22.918933,56.946218 C 23.819123,56.946218 24.543824,56.221517 24.543824,55.321328 L 24.543824,39.136362 C 24.543824,38.236172 23.819123,37.511471 22.918933,37.511471 L 6.7339673,37.511471 z "
     id="rect662" />
  <metadata
     id="metadata17">
    <rdf:RDF
       id="RDF18">
      <cc:Work
         rdf:about=""
         id="Work19">
        <dc:title
           id="title20">Part of the Flat Icon Collection (Thu Aug 26 14:40:13 2004)</dc:title>
        <dc:description
           id="description22" />
        <dc:subject
           id="subject23">
          <rdf:Bag
             id="Bag24">
            <rdf:li
               id="li25" />
          </rdf:Bag>
        </dc:subject>
        <dc:publisher
           id="publisher26">
          <cc:Agent
             rdf:about=""
             id="Agent27">
            <dc:title
               id="title28" />
          </cc:Agent>
        </dc:publisher>
        <dc:creator
           id="creator29">
          <cc:Agent
             rdf:about=""
             id="Agent30">
            <dc:title
               id="title31">Danny Allen</dc:title>
          </cc:Agent>
        </dc:creator>
        <dc:rights
           id="rights33">
          <cc:Agent
             rdf:about=""
             id="Agent34">
            <dc:title
               id="title35">Danny Allen</dc:title>
          </cc:Agent>
        </dc:rights>
        <dc:date
           id="date37" />
        <dc:format
           id="format38">image/svg+xml</dc:format>
        <dc:type
           rdf:resource="http://purl.org/dc/dcmitype/StillImage"
           id="type40" />
        <cc:license
           rdf:resource="http://creativecommons.org/licenses/LGPL/2.1/"
           id="license41">
          <dc:date
             id="date42" />
        </cc:license>
        <dc:language
           id="language43">en</dc:language>
      </cc:Work>
    </rdf:RDF>
  </metadata>
</svg>
