<?xml version="1.0" encoding="UTF-8" standalone="no"?>
<!DOCTYPE svg PUBLIC "-//W3C//DTD SVG 20010904//EN"
"http://www.w3.org/TR/2001/REC-SVG-20010904/DTD/svg10.dtd">
<svg
   sodipodi:docname="camera_unmount.svg"
   height="60.0000000"
   sodipodi:version="0.32"
   width="60.0000000"
   _SVGFile__filename="scalable/devices/camera_unmount.svg"
   version="1.0"
   y="0"
   x="0"
   inkscape:version="0.39"
   id="svg1"
   sodipodi:docbase="/home/danny/work/flat/newscale/devices"
   xmlns="http://www.w3.org/2000/svg"
   xmlns:cc="http://web.resource.org/cc/"
   xmlns:inkscape="http://www.inkscape.org/namespaces/inkscape"
   xmlns:sodipodi="http://sodipodi.sourceforge.net/DTD/sodipodi-0.dtd"
   xmlns:rdf="http://www.w3.org/1999/02/22-rdf-syntax-ns#"
   xmlns:dc="http://purl.org/dc/elements/1.1/"
   xmlns:xlink="http://www.w3.org/1999/xlink">
  <sodipodi:namedview
     bordercolor="#666666"
     inkscape:pageshadow="2"
     inkscape:window-y="0"
     pagecolor="#ffffff"
     inkscape:window-height="699"
     inkscape:zoom="9.8238822"
     inkscape:window-x="0"
     borderopacity="1.0"
     inkscape:cx="35.235941"
     inkscape:cy="18.478087"
     inkscape:window-width="1024"
     inkscape:pageopacity="0.0"
     id="base"
     showguides="true"
     inkscape:guide-bbox="true" />
  <defs
     id="defs3">
    <linearGradient
       id="linearGradient772">
      <stop
         style="stop-color:#000;stop-opacity:1;"
         id="stop773"
         offset="0" />
      <stop
         style="stop-color:#fff;stop-opacity:1;"
         id="stop774"
         offset="1" />
    </linearGradient>
    <linearGradient
       xlink:href="#linearGradient772"
       id="linearGradient775" />
  </defs>
  <metadata
     id="metadata17">
    <rdf:RDF
       id="RDF18">
      <cc:Work
         rdf:about=""
         id="Work19">
        <dc:format
           id="format20">image/svg+xml</dc:format>
        <dc:type
           id="type22"
           rdf:resource="http://purl.org/dc/dcmitype/StillImage" />
      </cc:Work>
    </rdf:RDF>
  </metadata>
  <path
     style="font-size:12.000000;fill:#b3b3b3;fill-opacity:1.0000000;fill-rule:evenodd;stroke:#333333;stroke-width:3.1250000;"
     d="M 51.659821,15.592913 L 51.659821,24.499779 L 41.989510,24.499779 L 41.989510,15.592913"
     id="rect815"
     sodipodi:nodetypes="cccc"
     transform="translate(3.753000e-2,9.422975e-2)" />
  <path
     transform="translate(0.800974,9.422975e-2)"
     style="font-size:12.000000;fill:#7f7f7f;fill-rule:evenodd;stroke:#333333;stroke-width:3.1250000;stroke-linecap:round;stroke-linejoin:round;"
     d="M 37.627464,5.9226012 C 36.519464,5.9226012 35.627464,6.8146012 35.627464,7.9226012 L 35.627464,14.865322 C 35.627464,15.973322 36.519464,16.865322 37.627464,16.865322 L 54.494978,16.865322 C 55.602978,16.865322 56.494978,15.973322 56.494978,14.865322 L 56.494978,7.9226012 C 56.494978,6.8146012 55.602978,5.9226012 54.494978,5.9226012 L 37.627464,5.9226012 z "
     id="rect816" />
  <path
     transform="translate(0.800974,9.422975e-2)"
     style="font-size:12.000000;fill:#cccccc;fill-rule:evenodd;stroke:#333333;stroke-width:1.2499970;stroke-linecap:round;stroke-linejoin:round;"
     d="M 39.826416,8.6544266 L 39.826416,14.133497 L 52.296023,14.133497 L 52.296023,8.6544266 L 39.826416,8.6544266 z "
     id="rect817" />
  <path
     transform="matrix(1.725490,0.000000,0.000000,1.725490,-8.425241,-14.62634)"
     style="font-size:12.000000;fill:#b3b3b3;fill-opacity:1.0000000;fill-rule:evenodd;stroke:#333333;stroke-width:1.8110800;stroke-linecap:round;stroke-linejoin:round;"
     d="M 9.0341065,21.255135 C 9.0341065,19.464091 10.487707,18.010491 12.278750,18.010491 C 14.069794,18.010491 15.523394,19.464091 15.523394,21.255135"
     id="path818"
     sodipodi:nodetypes="ccc" />
  <path
     style="font-size:12.000000;fill:#7f7f7f;fill-rule:evenodd;stroke:#333333;stroke-width:3.1250000;stroke-linecap:round;stroke-linejoin:round;"
     d="M 5.3437500 22.562500 C 4.2357498 22.562500 3.3437500 23.454500 3.3437500 24.562500 L 3.3437500 52.250000 C 3.3437501 53.357999 4.2357500 54.250000 5.3437500 54.250000 L 13.375000 54.250000 L 13.375000 54.156250 L 36.750000 54.156250 L 32.843750 35.187500 L 21.843750 22.562500 L 5.3437500 22.562500 z M 35.062500 22.562500 L 38.187500 31.875000 L 54.625000 54.156250 L 55.250000 54.156250 C 56.358000 54.156250 57.250000 53.264250 57.250000 52.156250 L 57.250000 24.500000 C 57.249611 24.489486 57.250550 24.479221 57.250000 24.468750 C 57.250000 24.357068 57.142433 24.294101 57.125000 24.187500 C 57.061538 23.799437 56.939413 23.434404 56.687500 23.156250 C 56.327693 22.806541 55.824962 22.562500 55.281250 22.562500 L 35.062500 22.562500 z "
     id="path947" />
  <path
     style="font-size:12.000000;fill:#4c4c4c;fill-opacity:1.0000000;fill-rule:evenodd;stroke:#333333;stroke-width:1.8750000;stroke-linejoin:round;stroke-miterlimit:4.0000000;stroke-dasharray:none;"
     d="M 26.312500 27.687500 C 21.948619 29.325781 18.812500 33.472312 18.812500 38.406250 C 18.812500 44.762700 23.956050 49.906250 30.312500 49.906250 C 32.241920 49.906250 33.995793 49.308590 35.593750 48.468750 L 32.843750 35.187500 L 26.312500 27.687500 z M 37.406250 29.531250 L 38.187500 31.875000 L 41.406250 36.250000 C 40.872114 33.527118 39.493810 31.200306 37.406250 29.531250 z "
     id="path948" />
  <path
     style="font-size:12.000000;fill:#333333;fill-opacity:1.0000000;fill-rule:evenodd;stroke:#333333;stroke-width:1.2500000;stroke-linejoin:round;stroke-miterlimit:4.0000000;stroke-dasharray:none;"
     d="M 30.312500 32.906250 C 27.287481 32.906250 24.843750 35.381230 24.843750 38.406250 C 24.843750 41.431269 27.287482 43.875002 30.312500 43.875000 C 31.880820 43.875000 33.282018 43.213352 34.281250 42.156250 L 32.843750 35.187500 L 30.968750 33.031250 C 30.746534 33.003786 30.542107 32.906250 30.312500 32.906250 z "
     id="path949" />
  <path
     style="font-size:12.000000;fill:#333333;fill-opacity:1.0000000;fill-rule:evenodd;stroke:#333333;stroke-width:1.8750000;stroke-linecap:round;stroke-linejoin:round;stroke-opacity:1.0000000;"
     d="M 6.9982514,26.026669 L 6.9982514,30.607342 L 16.668562,30.607342 L 16.668562,26.026669 L 6.9982514,26.026669 z "
     id="rect814"
     transform="translate(3.753000e-2,9.422975e-2)" />
</svg>
