<?xml version="1.0" encoding="UTF-8" standalone="no"?>
<!DOCTYPE svg PUBLIC "-//W3C//DTD SVG 20010904//EN"
"http://www.w3.org/TR/2001/REC-SVG-20010904/DTD/svg10.dtd">
<svg
   sodipodi:docname="cdwriter_unmount.svg"
   height="60.0000000"
   sodipodi:version="0.32"
   width="60.0000000"
   _SVGFile__filename="scalable/devices/cdwriter_unmount.svg"
   version="1.0"
   y="0"
   x="0"
   inkscape:version="0.39"
   id="svg1"
   sodipodi:docbase="/home/danny/work/flat/newscale/devices"
   xmlns="http://www.w3.org/2000/svg"
   xmlns:cc="http://web.resource.org/cc/"
   xmlns:inkscape="http://www.inkscape.org/namespaces/inkscape"
   xmlns:sodipodi="http://sodipodi.sourceforge.net/DTD/sodipodi-0.dtd"
   xmlns:rdf="http://www.w3.org/1999/02/22-rdf-syntax-ns#"
   xmlns:dc="http://purl.org/dc/elements/1.1/"
   xmlns:xlink="http://www.w3.org/1999/xlink">
  <sodipodi:namedview
     bordercolor="#666666"
     inkscape:pageshadow="2"
     inkscape:window-y="0"
     pagecolor="#ffffff"
     inkscape:window-height="685"
     inkscape:zoom="10.483985"
     inkscape:window-x="0"
     borderopacity="1.0"
     inkscape:cx="43.181542"
     inkscape:cy="20.505638"
     inkscape:window-width="1016"
     inkscape:pageopacity="0.0"
     id="base" />
  <defs
     id="defs3" />
  <metadata
     id="metadata14">
    <rdf:RDF
       id="RDF15">
      <cc:Work
         rdf:about=""
         id="Work16">
        <dc:title
           id="title17">Part of the Flat Icon Collection (Thu Aug 26 14:39:51 2004)</dc:title>
        <dc:description
           id="description19" />
        <dc:subject
           id="subject20">
          <rdf:Bag
             id="Bag21">
            <rdf:li
               id="li22" />
          </rdf:Bag>
        </dc:subject>
        <dc:publisher
           id="publisher23">
          <cc:Agent
             rdf:about=""
             id="Agent24">
            <dc:title
               id="title25" />
          </cc:Agent>
        </dc:publisher>
        <dc:creator
           id="creator26">
          <cc:Agent
             rdf:about=""
             id="Agent27">
            <dc:title
               id="title28">Danny Allen</dc:title>
          </cc:Agent>
        </dc:creator>
        <dc:rights
           id="rights30">
          <cc:Agent
             rdf:about=""
             id="Agent31">
            <dc:title
               id="title32">Danny Allen</dc:title>
          </cc:Agent>
        </dc:rights>
        <dc:date
           id="date34" />
        <dc:format
           id="format35">image/svg+xml</dc:format>
        <dc:type
           rdf:resource="http://purl.org/dc/dcmitype/StillImage"
           id="type37" />
        <cc:license
           rdf:resource="http://creativecommons.org/licenses/LGPL/2.1/"
           id="license38">
          <dc:date
             id="date39" />
        </cc:license>
        <dc:language
           id="language40">en</dc:language>
      </cc:Work>
    </rdf:RDF>
  </metadata>
  <path
     style="font-size:12.000000;fill:#b3b3b3;fill-opacity:1.0000000;fill-rule:evenodd;stroke:none;stroke-width:3.1250000;stroke-linecap:round;stroke-linejoin:round;stroke-miterlimit:4.0000000;stroke-opacity:1.0000000;"
     d="M 30.156250,2.7500000 C 30.017181,2.7500000 29.888579,2.7791785 29.750000,2.7812500 C 28.179000,2.8047336 26.652631,2.9719477 25.156250,3.2500000 C 24.448895,3.3824277 23.780102,3.6262645 23.093750,3.8125000 C 22.271325,4.0337242 21.446179,4.2683979 20.656250,4.5625000 C 19.792341,4.8878853 18.943979,5.2475624 18.125000,5.6562500 C 17.677996,5.8769067 17.245324,6.0997990 16.812500,6.3437500 C 15.862874,6.8850018 14.936149,7.4452138 14.062500,8.0937500 C 9.6659180,11.357467 6.2704278,15.924155 4.4375000,21.218750 L 18.187500,22.218750 L 45.187500,31.750000 L 57.187500,26.843750 C 56.986738,25.174815 56.640793,23.562924 56.156250,22.000000 C 56.153274,21.990482 56.159236,21.978264 56.156250,21.968750 C 56.153369,21.959495 56.159140,21.946751 56.156250,21.937500 C 55.678184,20.407223 55.037081,18.932782 54.312500,17.531250 C 54.297478,17.502514 54.296371,17.466176 54.281250,17.437500 C 54.259655,17.396093 54.240549,17.353782 54.218750,17.312500 C 53.513175,15.976307 52.689124,14.724324 51.781250,13.531250 C 51.744669,13.483619 51.724386,13.422383 51.687500,13.375000 C 51.615600,13.281804 51.510567,13.217231 51.437500,13.125000 C 50.522822,11.970423 49.523621,10.866402 48.437500,9.8750000 C 48.426646,9.8651776 48.417120,9.8535552 48.406250,9.8437500 C 48.378443,9.8184499 48.340412,9.8064360 48.312500,9.7812500 C 47.167508,8.7480783 45.964972,7.7968070 44.656250,6.9687500 C 44.636472,6.9563080 44.613562,6.9498927 44.593750,6.9375000 C 44.436717,6.8387011 44.252930,6.7831465 44.093750,6.6875000 C 42.911657,5.9772142 41.696924,5.3075503 40.406250,4.7812500 C 39.696545,4.4937531 38.925292,4.3219179 38.187500,4.0937500 C 37.314598,3.8227207 36.471207,3.4954366 35.562500,3.3125000 C 34.402857,3.0790460 33.177912,3.0184005 31.968750,2.9375000 C 31.472822,2.9043104 31.002788,2.7876185 30.500000,2.7812500 C 30.382510,2.7797618 30.274091,2.7500000 30.156250,2.7500000 z M 20.156250,29.593750 L 3.1250000,33.187500 C 3.6938937,38.187631 5.5981409,42.779122 8.4687500,46.593750 C 8.5674250,46.723087 8.6803380,46.841237 8.7812500,46.968750 C 10.095075,48.650913 11.616115,50.137224 13.281250,51.468750 C 13.495501,51.638306 13.686878,51.836790 13.906250,52.000000 C 15.747663,53.383231 17.774523,54.554029 19.937500,55.437500 C 19.950792,55.442929 19.955447,55.463341 19.968750,55.468750 C 23.119617,56.735952 26.553788,57.468750 30.156250,57.468750 C 33.748270,57.468750 37.169093,56.728984 40.312500,55.468750 L 40.187500,55.468750 C 44.052897,53.918180 47.482237,51.523208 50.250000,48.500000 C 51.598728,47.026794 52.778207,45.399376 53.781250,43.656250 C 53.807057,43.611460 53.849440,43.576200 53.875000,43.531250 C 53.907152,43.474621 53.905742,43.400632 53.937500,43.343750 C 54.889951,41.637817 55.678145,39.815136 56.250000,37.906250 C 56.263241,37.862033 56.299477,37.825561 56.312500,37.781250 L 42.468750,39.656250 L 20.156250,29.593750 z "
     id="path587" />
  <path
     style="font-size:12.000000;fill:none;fill-opacity:1.0000000;fill-rule:evenodd;stroke:#7f7f7f;stroke-width:1.8749962;stroke-linecap:round;stroke-linejoin:round;stroke-dasharray:1.8749961 3.7500025;stroke-dashoffset:0.0000000;stroke-opacity:1.0000000;"
     d="M 28.781250 10.531250 C 27.481612 10.623913 26.178178 10.853609 24.875000 11.218750 C 19.163429 12.819090 14.809141 16.831080 12.468750 21.812500 L 18.187500 22.218750 L 45.187500 31.750000 L 49.687500 29.906250 C 49.671566 28.215110 49.509204 26.518305 49.031250 24.812500 C 46.475264 15.690253 37.878717 9.8826077 28.781250 10.531250 z M 20.156250 29.593750 L 10.625000 31.593750 C 10.722927 32.851878 10.927941 34.114050 11.281250 35.375000 C 14.202377 45.800426 25.012075 51.921124 35.437500 49.000000 C 40.935903 47.459388 45.192986 43.690078 47.593750 38.968750 L 42.468750 39.656250 L 20.156250 29.593750 z "
     id="path740"
     sodipodi:stroke-cmyk="(0.0000000 0.0000000 0.0000000 0.50196081)" />
  <path
     style="font-size:12.000000;fill:#7f7f7f;fill-rule:evenodd;stroke:#4c4c4c;stroke-width:3.1250000;stroke-linecap:round;stroke-linejoin:round;stroke-opacity:1.0000000;"
     d="M 30.218750 19.562500 C 26.899076 19.562500 24.061523 21.196161 22.125000 23.593750 L 40.781250 30.187500 C 40.781376 30.166272 40.781250 30.146257 40.781250 30.125000 C 40.781250 24.295329 36.048421 19.562501 30.218750 19.562500 z M 20.156250 29.593750 L 19.750000 29.687500 C 19.743293 29.841864 19.656250 29.968994 19.656250 30.125000 C 19.656250 35.954671 24.389080 40.687499 30.218750 40.687500 C 33.164856 40.687500 35.833808 39.479049 37.750000 37.531250 L 20.156250 29.593750 z "
     id="path588" />
  <path
     style="font-size:12.000000;fill:#cccccc;fill-rule:evenodd;stroke:#4c4c4c;stroke-width:1.8750000;stroke-linecap:round;stroke-linejoin:round;stroke-opacity:1.0000000;"
     d="M 30.218750 24.468750 C 29.099375 24.468750 28.128841 24.876254 27.250000 25.437500 L 35.531250 28.343750 C 34.773380 26.109024 32.708514 24.468750 30.218750 24.468750 z M 24.875000 31.718750 C 25.570817 34.058135 27.654363 35.781250 30.218750 35.781250 C 31.081715 35.781250 31.892813 35.564503 32.625000 35.218750 L 24.875000 31.718750 z "
     id="path589" />
  <path
     style="font-size:12.000000;fill:none;fill-opacity:1.0000000;fill-rule:evenodd;stroke:#4c4c4c;stroke-width:3.1250000;stroke-linecap:round;stroke-linejoin:round;stroke-miterlimit:4.0000000;stroke-opacity:1.0000000;"
     d="M 30.156250,2.7500000 C 30.017181,2.7500000 29.888579,2.7791785 29.750000,2.7812500 C 28.179000,2.8047336 26.652631,2.9719477 25.156250,3.2500000 C 24.448895,3.3824277 23.780102,3.6262645 23.093750,3.8125000 C 22.271325,4.0337242 21.446179,4.2683979 20.656250,4.5625000 C 19.792341,4.8878853 18.943979,5.2475624 18.125000,5.6562500 C 17.677996,5.8769067 17.245324,6.0997990 16.812500,6.3437500 C 15.862874,6.8850018 14.936149,7.4452138 14.062500,8.0937500 C 9.6659180,11.357467 6.2704278,15.924155 4.4375000,21.218750 L 18.187500,22.218750 L 45.187500,31.750000 L 57.187500,26.843750 C 56.986738,25.174815 56.640793,23.562924 56.156250,22.000000 C 56.153274,21.990482 56.159236,21.978264 56.156250,21.968750 C 56.153369,21.959495 56.159140,21.946751 56.156250,21.937500 C 55.678184,20.407223 55.037081,18.932782 54.312500,17.531250 C 54.297478,17.502514 54.296371,17.466176 54.281250,17.437500 C 54.259655,17.396093 54.240549,17.353782 54.218750,17.312500 C 53.513175,15.976307 52.689124,14.724324 51.781250,13.531250 C 51.744669,13.483619 51.724386,13.422383 51.687500,13.375000 C 51.615600,13.281804 51.510567,13.217231 51.437500,13.125000 C 50.522822,11.970423 49.523621,10.866402 48.437500,9.8750000 C 48.426646,9.8651776 48.417120,9.8535552 48.406250,9.8437500 C 48.378443,9.8184499 48.340412,9.8064360 48.312500,9.7812500 C 47.167508,8.7480783 45.964972,7.7968070 44.656250,6.9687500 C 44.636472,6.9563080 44.613562,6.9498927 44.593750,6.9375000 C 44.436717,6.8387011 44.252930,6.7831465 44.093750,6.6875000 C 42.911657,5.9772142 41.696924,5.3075503 40.406250,4.7812500 C 39.696545,4.4937531 38.925292,4.3219179 38.187500,4.0937500 C 37.314598,3.8227207 36.471207,3.4954366 35.562500,3.3125000 C 34.402857,3.0790460 33.177912,3.0184005 31.968750,2.9375000 C 31.472822,2.9043104 31.002788,2.7876185 30.500000,2.7812500 C 30.382510,2.7797618 30.274091,2.7500000 30.156250,2.7500000 z M 20.156250,29.593750 L 3.1250000,33.187500 C 3.6938937,38.187631 5.5981409,42.779122 8.4687500,46.593750 C 8.5674250,46.723087 8.6803380,46.841237 8.7812500,46.968750 C 10.095075,48.650913 11.616115,50.137224 13.281250,51.468750 C 13.495501,51.638306 13.686878,51.836790 13.906250,52.000000 C 15.747663,53.383231 17.774523,54.554029 19.937500,55.437500 C 19.950792,55.442929 19.955447,55.463341 19.968750,55.468750 C 23.119617,56.735952 26.553788,57.468750 30.156250,57.468750 C 33.748270,57.468750 37.169093,56.728984 40.312500,55.468750 L 40.187500,55.468750 C 44.052897,53.918180 47.482237,51.523208 50.250000,48.500000 C 51.598728,47.026794 52.778207,45.399376 53.781250,43.656250 C 53.807057,43.611460 53.849440,43.576200 53.875000,43.531250 C 53.907152,43.474621 53.905742,43.400632 53.937500,43.343750 C 54.889951,41.637817 55.678145,39.815136 56.250000,37.906250 C 56.263241,37.862033 56.299477,37.825561 56.312500,37.781250 L 42.468750,39.656250 L 20.156250,29.593750 z "
     id="path1560" />
  <g
     id="g1573">
    <path
       style="font-size:12.000000;fill:#4c4c4c;fill-opacity:1.0000000;fill-rule:evenodd;stroke:#333333;stroke-width:1.6605648;stroke-linecap:round;stroke-linejoin:round;stroke-miterlimit:4.0000000;"
       d="M 64.489325,23.609091 C 66.078952,16.023656 66.078952,16.023656 66.078952,16.023656 L 67.718687,23.593716 L 64.489325,23.609091 z "
       fill-opacity="1.0"
       sodipodi:nodetypes="cccc"
       transform="matrix(-1.139301,-0.984154,0.984154,-1.139301,84.35487,133.1097)"
       sodipodi:stroke-cmyk="(0 0 0 0.8)"
       id="path987" />
    <rect
       style="font-size:12.000000;fill:#b3b3b3;fill-rule:evenodd;stroke:#333333;stroke-width:1.6605648;stroke-linecap:round;stroke-linejoin:round;stroke-miterlimit:4.0000000;"
       sodipodi:fill-cmyk="(0 0 0 0.3)"
       transform="matrix(-1.139301,-0.984154,0.984154,-1.139301,84.35487,133.1097)"
       height="22.903370"
       width="3.1810234"
       sodipodi:stroke-cmyk="(0 0 0 0.8)"
       y="23.616812"
       x="64.511154"
       id="rect988" />
    <path
       transform="matrix(-0.749586,-0.647510,0.647510,-0.749586,60.98188,100.8992)"
       style="font-size:12.000000;fill:#333333;fill-rule:evenodd;stroke:#333333;stroke-width:2.5239029;stroke-linecap:round;stroke-linejoin:round;stroke-miterlimit:4.0000000;"
       d="M 61.966338,18.726221 C 61.966338,19.068626 61.688444,19.346521 61.346039,19.346521 C 61.003633,19.346521 60.725739,19.068626 60.725739,18.726221 C 60.725739,18.383816 61.003633,18.105922 61.346039,18.105922 C 61.688444,18.105922 61.966338,18.383816 61.966338,18.726221 z "
       id="path989" />
    <path
       transform="matrix(-1.139301,-0.984154,0.984154,-1.139301,84.35487,133.1097)"
       style="font-size:12.000000;fill:#cccccc;fill-rule:evenodd;stroke:#333333;stroke-width:1.6605648;stroke-linecap:round;stroke-linejoin:round;stroke-miterlimit:4.0000000;"
       d="M 65.320297,46.448841 C 64.766297,46.448841 64.320297,46.888649 64.320297,47.434958 C 64.320297,47.981267 64.766297,48.421076 65.320297,48.421076 L 66.946664,48.421076 C 67.500664,48.421076 67.946664,47.981267 67.946664,47.434958 C 67.946664,46.888649 67.500664,46.448841 66.946664,46.448841 L 65.320297,46.448841 z "
       id="path990" />
  </g>
</svg>
