<?xml version="1.0" encoding="UTF-8" standalone="no"?>
<!DOCTYPE svg PUBLIC "-//W3C//DTD SVG 20010904//EN"
"http://www.w3.org/TR/2001/REC-SVG-20010904/DTD/svg10.dtd">
<svg
   sodipodi:docname="linux_hdd_unmount.svg"
   height="60.0000000"
   sodipodi:version="0.32"
   width="60.0000000"
   _SVGFile__filename="scalable/devices/linux_hdd_unmount.svg"
   version="1.0"
   y="0"
   x="0"
   inkscape:version="0.39"
   id="svg1"
   sodipodi:docbase="/home/danny/work/flat/newscale/devices"
   xmlns="http://www.w3.org/2000/svg"
   xmlns:cc="http://web.resource.org/cc/"
   xmlns:inkscape="http://www.inkscape.org/namespaces/inkscape"
   xmlns:sodipodi="http://sodipodi.sourceforge.net/DTD/sodipodi-0.dtd"
   xmlns:rdf="http://www.w3.org/1999/02/22-rdf-syntax-ns#"
   xmlns:dc="http://purl.org/dc/elements/1.1/"
   xmlns:xlink="http://www.w3.org/1999/xlink">
  <sodipodi:namedview
     bordercolor="#666666"
     inkscape:pageshadow="2"
     inkscape:window-y="0"
     pagecolor="#ffffff"
     inkscape:window-height="685"
     inkscape:zoom="9.8238822"
     inkscape:window-x="0"
     borderopacity="1.0"
     inkscape:cx="35.541899"
     inkscape:cy="20.389419"
     inkscape:window-width="1016"
     inkscape:pageopacity="0.0"
     id="base" />
  <defs
     id="defs3">
    <linearGradient
       id="linearGradient772">
      <stop
         style="stop-color:#000;stop-opacity:1;"
         id="stop773"
         offset="0" />
      <stop
         style="stop-color:#fff;stop-opacity:1;"
         id="stop774"
         offset="1" />
    </linearGradient>
    <linearGradient
       xlink:href="#linearGradient772"
       id="linearGradient775" />
  </defs>
  <metadata
     id="metadata14">
    <rdf:RDF
       id="RDF15">
      <cc:Work
         rdf:about=""
         id="Work16">
        <dc:title
           id="title17">Part of the Flat Icon Collection (Thu Aug 26 14:39:51 2004)</dc:title>
        <dc:description
           id="description19" />
        <dc:subject
           id="subject20">
          <rdf:Bag
             id="Bag21">
            <rdf:li
               id="li22" />
          </rdf:Bag>
        </dc:subject>
        <dc:publisher
           id="publisher23">
          <cc:Agent
             rdf:about=""
             id="Agent24">
            <dc:title
               id="title25" />
          </cc:Agent>
        </dc:publisher>
        <dc:creator
           id="creator26">
          <cc:Agent
             rdf:about=""
             id="Agent27">
            <dc:title
               id="title28">Danny Allen</dc:title>
          </cc:Agent>
        </dc:creator>
        <dc:rights
           id="rights30">
          <cc:Agent
             rdf:about=""
             id="Agent31">
            <dc:title
               id="title32">Danny Allen</dc:title>
          </cc:Agent>
        </dc:rights>
        <dc:date
           id="date34" />
        <dc:format
           id="format35">image/svg+xml</dc:format>
        <dc:type
           rdf:resource="http://purl.org/dc/dcmitype/StillImage"
           id="type37" />
        <cc:license
           rdf:resource="http://creativecommons.org/licenses/LGPL/2.1/"
           id="license38">
          <dc:date
             id="date39" />
        </cc:license>
        <dc:language
           id="language40">en</dc:language>
      </cc:Work>
    </rdf:RDF>
  </metadata>
  <path
     style="font-size:12.000000;fill:#7f7f7f;fill-opacity:1.0000000;fill-rule:evenodd;stroke:none;stroke-width:3.1250000;"
     d="M 16.437500 3.1250000 C 15.410402 3.1250000 14.562500 3.9416517 14.562500 4.9687500 L 14.562500 23.062500 L 29.406250 28.312500 L 51.718750 22.000000 L 51.718750 4.9687500 C 51.718750 3.9416515 50.902098 3.1250000 49.875000 3.1250000 L 16.437500 3.1250000 z M 26.593750 36.218750 L 14.562500 38.562500 L 14.562500 49.031250 C 14.562500 50.058347 15.410401 50.875000 16.437500 50.875000 L 49.875000 50.875000 C 50.902099 50.875002 51.718750 50.058348 51.718750 49.031250 L 51.718750 43.500000 L 26.593750 36.218750 z "
     id="rect783" />
  <path
     style="font-size:12.000000;fill:#b3b3b3;fill-opacity:1.0000000;fill-rule:evenodd;stroke:none;stroke-width:3.1250000;stroke-linecap:round;stroke-linejoin:round;stroke-miterlimit:4.0000000;stroke-opacity:1.0000000;"
     d="M 11.625000,7.8125000 C 10.597902,7.8124999 9.7500000,8.6291517 9.7500000,9.6562500 L 9.7500000,21.375000 L 29.406250,28.312500 L 46.906250,23.375000 L 46.906250,9.6562500 C 46.906251,8.6291520 46.089598,7.8125000 45.062500,7.8125000 L 11.625000,7.8125000 z M 26.593750,36.218750 L 9.7500000,39.531250 L 9.7500000,53.718750 C 9.7500004,54.745850 10.597902,55.562500 11.625000,55.562500 L 45.062500,55.562500 C 46.089597,55.562500 46.906250,54.745848 46.906250,53.718750 L 46.906250,42.125000 L 26.593750,36.218750 z "
     id="rect782" />
  <path
     style="fill:#cccccc;fill-opacity:1.0000000;fill-rule:evenodd;stroke:#4c4c4c;stroke-width:1.2500000;stroke-linecap:round;stroke-linejoin:round;"
     d="M 28.656250 12.718750 C 27.268006 12.805514 22.319121 12.044051 21.625000 24.625000 C 21.385392 24.780301 21.147929 25.120760 20.906250 25.312500 L 29.406250 28.312500 L 36.812500 26.218750 C 36.284754 25.653968 35.776682 24.958558 35.250000 24.531250 C 34.902939 12.037065 30.131257 12.805514 28.656250 12.718750 z M 26.593750 36.218750 L 17.437500 38.000000 C 16.680406 39.428438 16.069477 40.821946 16.250000 41.875000 C 16.095366 45.740851 20.548745 48.259672 22.718750 49.031250 C 23.902820 48.301377 25.937424 47.781250 28.343750 47.781250 C 30.996174 47.781252 33.223789 48.393346 34.312500 49.250000 C 35.631647 49.227709 40.531251 49.555104 40.531250 42.218750 C 40.633845 41.654479 40.354030 40.897105 40.062500 40.125000 L 26.593750 36.218750 z "
     id="path873" />
  <path
     style="fill:#4d4d4d;fill-opacity:1.0000000;fill-rule:evenodd;stroke:#4d4d4d;stroke-width:1.2500000;stroke-linecap:round;stroke-linejoin:round;stroke-opacity:1.0000000;"
     d="M 32.124605,37.230766 L 34.293734,38.619008 C 34.293734,38.619008 35.334915,38.011648 36.636393,38.098418 C 37.590809,38.098418 37.764340,40.354307 38.545227,40.614605 C 39.326112,40.874903 40.887885,39.486661 41.582006,40.701369 C 42.970248,43.911679 40.280529,49.985238 35.681976,49.811709 C 30.736363,49.724945 29.695180,39.139598 32.124605,37.230766 z "
     sodipodi:nodetypes="ccccccc"
     transform="translate(0.125930,0.834470)"
     sodipodi:stroke-cmyk="(0.0000000 0.0000000 0.0000000 0.69803923)"
     id="path845" />
  <path
     style="fill:#4d4d4d;fill-opacity:1.0000000;fill-rule:evenodd;stroke:#4d4d4d;stroke-width:1.2500000;stroke-linecap:round;stroke-linejoin:round;stroke-opacity:1.0000000;"
     d="M 24.242639,37.230766 L 22.073510,38.110044 C 22.073510,38.110044 21.032329,38.011648 19.730851,38.098418 C 18.776434,38.098418 18.602904,40.354307 17.822018,40.614605 C 17.041132,40.874903 15.479360,39.486661 14.785238,40.701369 C 13.396996,43.911679 16.086715,49.985238 20.685268,49.811709 C 25.630881,49.724945 26.672063,39.139598 24.242639,37.230766 z "
     sodipodi:nodetypes="ccccccc"
     transform="translate(0.125930,0.834470)"
     sodipodi:stroke-cmyk="(0.0000000 0.0000000 0.0000000 0.69803923)"
     id="path984" />
  <path
     style="font-size:12.000000;fill:none;fill-opacity:1.0000000;fill-rule:evenodd;stroke:#333333;stroke-width:3.1250000;stroke-linecap:round;stroke-linejoin:round;stroke-miterlimit:4.0000000;stroke-opacity:1.0000000;"
     d="M 11.625000,7.8125000 C 10.597902,7.8124999 9.7500000,8.6291517 9.7500000,9.6562500 L 9.7500000,21.375000 L 29.406250,28.312500 L 46.906250,23.375000 L 46.906250,9.6562500 C 46.906251,8.6291520 46.089598,7.8125000 45.062500,7.8125000 L 11.625000,7.8125000 z M 26.593750,36.218750 L 9.7500000,39.531250 L 9.7500000,53.718750 C 9.7500004,54.745850 10.597902,55.562500 11.625000,55.562500 L 45.062500,55.562500 C 46.089597,55.562500 46.906250,54.745848 46.906250,53.718750 L 46.906250,42.125000 L 26.593750,36.218750 z "
     id="path1625" />
</svg>
