<?xml version="1.0" encoding="UTF-8" standalone="no"?>
<!DOCTYPE svg PUBLIC "-//W3C//DTD SVG 20010904//EN"
"http://www.w3.org/TR/2001/REC-SVG-20010904/DTD/svg10.dtd">
<svg
   sodipodi:docname="print_class.svg"
   height="60.0000000"
   sodipodi:version="0.32"
   width="60.0000000"
   _SVGFile__filename="scalable/devices/print_class.svg"
   version="1.0"
   y="0"
   x="0"
   inkscape:version="0.39"
   id="svg1"
   sodipodi:docbase="/home/danny/work/flat/newscale/devices"
   xmlns="http://www.w3.org/2000/svg"
   xmlns:cc="http://web.resource.org/cc/"
   xmlns:inkscape="http://www.inkscape.org/namespaces/inkscape"
   xmlns:sodipodi="http://sodipodi.sourceforge.net/DTD/sodipodi-0.dtd"
   xmlns:rdf="http://www.w3.org/1999/02/22-rdf-syntax-ns#"
   xmlns:dc="http://purl.org/dc/elements/1.1/"
   xmlns:xlink="http://www.w3.org/1999/xlink">
  <sodipodi:namedview
     bordercolor="#666666"
     inkscape:pageshadow="2"
     inkscape:window-y="0"
     pagecolor="#ffffff"
     inkscape:window-height="685"
     inkscape:zoom="6.9465337"
     inkscape:window-x="0"
     borderopacity="1.0"
     inkscape:cx="37.697540"
     inkscape:cy="17.844237"
     inkscape:window-width="1016"
     inkscape:pageopacity="0.0"
     id="base" />
  <defs
     id="defs3">
    <linearGradient
       id="linearGradient772">
      <stop
         style="stop-color:#000;stop-opacity:1;"
         id="stop773"
         offset="0" />
      <stop
         style="stop-color:#fff;stop-opacity:1;"
         id="stop774"
         offset="1" />
    </linearGradient>
    <linearGradient
       xlink:href="#linearGradient772"
       id="linearGradient775" />
  </defs>
  <path
     transform="matrix(0.873742,0.234118,-0.234118,0.873742,8.473940,-4.052730)"
     style="font-size:12.000000;fill:none;fill-opacity:0.75000000;fill-rule:evenodd;stroke:#4c4c4c;stroke-width:5.5275240;stroke-linecap:round;stroke-linejoin:round;stroke-dasharray:5.5275239 5.5275239 ;stroke-dashoffset:0.0000000;stroke-opacity:1.0000000;"
     d="M 51.824408,28.779392 C 51.824408,40.748671 42.110211,50.462868 30.140932,50.462868 C 18.171654,50.462868 8.4574566,40.748671 8.4574566,28.779392 C 8.4574566,16.810114 18.171654,7.0959167 30.140932,7.0959167 C 42.110211,7.0959167 51.824408,16.810114 51.824408,28.779392 z "
     id="path1130" />
  <metadata
     id="metadata15">
    <rdf:RDF
       id="RDF16">
      <cc:Work
         rdf:about=""
         id="Work17">
        <dc:title
           id="title18">Part of the Flat Icon Collection (Thu Aug 26 14:39:51 2004)</dc:title>
        <dc:description
           id="description20" />
        <dc:subject
           id="subject21">
          <rdf:Bag
             id="Bag22">
            <rdf:li
               id="li23" />
          </rdf:Bag>
        </dc:subject>
        <dc:publisher
           id="publisher24">
          <cc:Agent
             rdf:about=""
             id="Agent25">
            <dc:title
               id="title26" />
          </cc:Agent>
        </dc:publisher>
        <dc:creator
           id="creator27">
          <cc:Agent
             rdf:about=""
             id="Agent28">
            <dc:title
               id="title29">Danny Allen</dc:title>
          </cc:Agent>
        </dc:creator>
        <dc:rights
           id="rights31">
          <cc:Agent
             rdf:about=""
             id="Agent32">
            <dc:title
               id="title33">Danny Allen</dc:title>
          </cc:Agent>
        </dc:rights>
        <dc:date
           id="date35" />
        <dc:format
           id="format36">image/svg+xml</dc:format>
        <dc:type
           rdf:resource="http://purl.org/dc/dcmitype/StillImage"
           id="type38" />
        <cc:license
           rdf:resource="http://creativecommons.org/licenses/LGPL/2.1/"
           id="license39">
          <dc:date
             id="date40" />
        </cc:license>
        <dc:language
           id="language41">en</dc:language>
      </cc:Work>
    </rdf:RDF>
  </metadata>
  <g
     id="g1611"
     transform="translate(49.69443,-0.108741)">
    <path
       transform="matrix(0.593269,0.000000,-0.201276,0.558083,-25.18895,25.76706)"
       style="font-size:12.000000;fill:#cccccc;fill-rule:evenodd;stroke:#333333;stroke-width:3.2585623;stroke-linecap:round;stroke-linejoin:round;stroke-miterlimit:4.0000000;"
       d="M 28.184910,7.3616338 C 27.076910,7.3616338 26.184910,8.2536342 26.184910,9.3616347 L 26.184910,28.699180 C 26.184910,29.807181 27.076910,30.699181 28.184910,30.699181 L 49.737223,30.699181 C 50.845223,30.699181 51.737223,29.807181 51.737223,28.699180 L 51.737223,9.3616347 C 51.737223,8.2536342 50.845223,7.3616338 49.737223,7.3616338 L 28.184910,7.3616338 z "
       id="path1603" />
    <rect
       style="font-size:12.000000;fill:#7f7f7f;fill-rule:evenodd;stroke:none;stroke-width:3.1250000;stroke-linejoin:round;"
       sodipodi:fill-cmyk="(0 0 0 0.5)"
       rx="3.3711519"
       height="26.272097"
       width="50.744732"
       y="27.078951"
       x="4.5295200"
       id="rect1604"
       ry="3.3711519"
       transform="matrix(0.593269,0.000000,0.000000,0.593269,-25.18895,25.76706)" />
    <path
       style="font-size:12.000000;fill:#b3b3b3;fill-rule:evenodd;stroke:#333333;stroke-width:3.1604550;stroke-linecap:round;stroke-linejoin:round;stroke-miterlimit:4.0000000;"
       d="M 49.515985,53.245634 L 49.515985,44.968124 L 10.287786,44.968124 L 10.287786,53.245634"
       id="path1605"
       transform="matrix(0.593269,0.000000,0.000000,0.593269,-25.18895,25.76706)" />
    <path
       style="font-size:12.000000;fill:none;fill-rule:evenodd;stroke:#333333;stroke-width:3.1604550;stroke-linecap:round;stroke-linejoin:round;stroke-miterlimit:4.0000000;"
       d="M 6.5295200,27.078951 C 5.4215200,27.078951 4.5295200,27.970951 4.5295200,29.078951 L 4.5295200,51.351048 C 4.5295200,52.459048 5.4215200,53.351048 6.5295200,53.351048 L 53.274252,53.351048 C 54.382252,53.351048 55.274252,52.459048 55.274252,51.351048 L 55.274252,29.078951 C 55.274252,27.970951 54.382252,27.078951 53.274252,27.078951 L 6.5295200,27.078951 z "
       id="rect1560"
       transform="matrix(0.593269,0.000000,0.000000,0.593269,-25.18895,25.76706)" />
  </g>
  <g
     id="g1616"
     transform="translate(25.46444,-27.10062)">
    <path
       transform="matrix(0.593269,0.000000,-0.201276,0.558083,-25.18895,25.76706)"
       style="font-size:12.000000;fill:#cccccc;fill-rule:evenodd;stroke:#333333;stroke-width:3.2585623;stroke-linecap:round;stroke-linejoin:round;stroke-miterlimit:4.0000000;"
       d="M 28.184910,7.3616338 C 27.076910,7.3616338 26.184910,8.2536342 26.184910,9.3616347 L 26.184910,28.699180 C 26.184910,29.807181 27.076910,30.699181 28.184910,30.699181 L 49.737223,30.699181 C 50.845223,30.699181 51.737223,29.807181 51.737223,28.699180 L 51.737223,9.3616347 C 51.737223,8.2536342 50.845223,7.3616338 49.737223,7.3616338 L 28.184910,7.3616338 z "
       id="path1617" />
    <rect
       style="font-size:12.000000;fill:#7f7f7f;fill-rule:evenodd;stroke:none;stroke-width:3.1250000;stroke-linejoin:round;"
       sodipodi:fill-cmyk="(0 0 0 0.5)"
       rx="3.3711519"
       height="26.272097"
       width="50.744732"
       y="27.078951"
       x="4.5295200"
       id="rect1618"
       ry="3.3711519"
       transform="matrix(0.593269,0.000000,0.000000,0.593269,-25.18895,25.76706)" />
    <path
       style="font-size:12.000000;fill:#b3b3b3;fill-rule:evenodd;stroke:#333333;stroke-width:3.1604550;stroke-linecap:round;stroke-linejoin:round;stroke-miterlimit:4.0000000;"
       d="M 49.515985,53.245634 L 49.515985,44.968124 L 10.287786,44.968124 L 10.287786,53.245634"
       id="path1619"
       transform="matrix(0.593269,0.000000,0.000000,0.593269,-25.18895,25.76706)" />
    <path
       style="font-size:12.000000;fill:none;fill-rule:evenodd;stroke:#333333;stroke-width:3.1604550;stroke-linecap:round;stroke-linejoin:round;stroke-miterlimit:4.0000000;"
       d="M 6.5295200,27.078951 C 5.4215200,27.078951 4.5295200,27.970951 4.5295200,29.078951 L 4.5295200,51.351048 C 4.5295200,52.459048 5.4215200,53.351048 6.5295200,53.351048 L 53.274252,53.351048 C 54.382252,53.351048 55.274252,52.459048 55.274252,51.351048 L 55.274252,29.078951 C 55.274252,27.970951 54.382252,27.078951 53.274252,27.078951 L 6.5295200,27.078951 z "
       id="path1620"
       transform="matrix(0.593269,0.000000,0.000000,0.593269,-25.18895,25.76706)" />
  </g>
</svg>
