<?xml version="1.0" encoding="UTF-8" standalone="no"?>
<!DOCTYPE svg PUBLIC "-//W3C//DTD SVG 20010904//EN"
"http://www.w3.org/TR/2001/REC-SVG-20010904/DTD/svg10.dtd">
<svg
   sodipodi:docname="usb_mount.svg"
   height="60.0000000"
   sodipodi:version="0.32"
   width="60.0000000"
   _SVGFile__filename="scalable/devices/usb_mount.svg"
   version="1.0"
   y="0"
   x="0"
   inkscape:version="0.39"
   id="svg1"
   sodipodi:docbase="/home/danny/work/flat/newscale/devices"
   xmlns="http://www.w3.org/2000/svg"
   xmlns:cc="http://web.resource.org/cc/"
   xmlns:inkscape="http://www.inkscape.org/namespaces/inkscape"
   xmlns:sodipodi="http://sodipodi.sourceforge.net/DTD/sodipodi-0.dtd"
   xmlns:rdf="http://www.w3.org/1999/02/22-rdf-syntax-ns#"
   xmlns:dc="http://purl.org/dc/elements/1.1/"
   xmlns:xlink="http://www.w3.org/1999/xlink">
  <sodipodi:namedview
     bordercolor="#666666"
     inkscape:pageshadow="2"
     inkscape:window-y="0"
     pagecolor="#ffffff"
     inkscape:window-height="685"
     inkscape:zoom="6.9465337"
     inkscape:window-x="0"
     borderopacity="1.0"
     inkscape:cx="45.681636"
     inkscape:cy="20.342353"
     inkscape:window-width="1016"
     inkscape:pageopacity="0.0"
     id="base" />
  <defs
     id="defs3">
    <linearGradient
       id="linearGradient772">
      <stop
         style="stop-color:#000;stop-opacity:1;"
         id="stop773"
         offset="0" />
      <stop
         style="stop-color:#fff;stop-opacity:1;"
         id="stop774"
         offset="1" />
    </linearGradient>
    <linearGradient
       xlink:href="#linearGradient772"
       id="linearGradient775" />
  </defs>
  <metadata
     id="metadata17">
    <rdf:RDF
       id="RDF18">
      <cc:Work
         rdf:about=""
         id="Work19">
        <dc:title
           id="title20">Part of the Flat Icon Collection (Thu Aug 26 14:39:51 2004)</dc:title>
        <dc:description
           id="description22" />
        <dc:subject
           id="subject23">
          <rdf:Bag
             id="Bag24">
            <rdf:li
               id="li25" />
          </rdf:Bag>
        </dc:subject>
        <dc:publisher
           id="publisher26">
          <cc:Agent
             rdf:about=""
             id="Agent27">
            <dc:title
               id="title28" />
          </cc:Agent>
        </dc:publisher>
        <dc:creator
           id="creator29">
          <cc:Agent
             rdf:about=""
             id="Agent30">
            <dc:title
               id="title31">Danny Allen</dc:title>
          </cc:Agent>
        </dc:creator>
        <dc:rights
           id="rights33">
          <cc:Agent
             rdf:about=""
             id="Agent34">
            <dc:title
               id="title35">Danny Allen</dc:title>
          </cc:Agent>
        </dc:rights>
        <dc:date
           id="date37" />
        <dc:format
           id="format38">image/svg+xml</dc:format>
        <dc:type
           rdf:resource="http://purl.org/dc/dcmitype/StillImage"
           id="type40" />
        <cc:license
           rdf:resource="http://creativecommons.org/licenses/LGPL/2.1/"
           id="license41">
          <dc:date
             id="date42" />
        </cc:license>
        <dc:language
           id="language43">en</dc:language>
      </cc:Work>
    </rdf:RDF>
  </metadata>
  <path
     style="font-size:12.000000;fill:#7f7f7f;fill-opacity:1.0000000;fill-rule:evenodd;stroke:none;stroke-width:3.1250000;"
     d="M 16.426892,3.1185584 C 15.399793,3.1185584 14.572924,3.9454281 14.572924,4.9725264 L 14.572924,49.034469 C 14.572924,50.061567 15.399793,50.888437 16.426892,50.888437 L 49.873302,50.888437 C 50.900400,50.888437 51.727270,50.061567 51.727270,49.034469 L 51.727270,4.9725264 C 51.727270,3.9454281 50.900400,3.1185584 49.873302,3.1185584 L 16.426892,3.1185584 z "
     id="path957" />
  <rect
     style="font-size:12.000000;fill:#b3b3b3;fill-opacity:1.0000000;fill-rule:evenodd;stroke:#333333;stroke-width:3.1250021;stroke-linecap:round;stroke-linejoin:round;stroke-opacity:1.0000000;"
     rx="1.8539680"
     height="47.769878"
     width="37.154346"
     sodipodi:stroke-cmyk="(0 0 0 0.8)"
     y="7.8070335"
     x="9.7572098"
     id="rect958"
     ry="1.8539680" />
  <path
     style="font-size:12.000000;fill:none;fill-opacity:0.75000000;fill-rule:evenodd;stroke:#4c4c4c;stroke-width:2.1862099;stroke-opacity:1.0000000;"
     transform="matrix(0.833333,0.000000,0.000000,0.882675,5.802144,6.765624)"
     d="M 27.356802,9.7398291 L 27.356802,48.421075"
     id="path767" />
  <path
     style="font-size:12.000000;fill:none;fill-opacity:0.75000000;fill-rule:evenodd;stroke:#4c4c4c;stroke-width:2.2500000;stroke-opacity:1.0000000;"
     d="M 27.229561,37.439475 C 12.978576,35.530860 14.250985,19.880226 14.250985,19.880226"
     sodipodi:nodetypes="cc"
     transform="matrix(0.833333,0.000000,0.000000,0.833333,5.802144,10.74533)"
     id="path768" />
  <path
     style="font-size:12.000000;fill:none;fill-opacity:0.75000000;fill-rule:evenodd;stroke:#4c4c4c;stroke-width:2.2500000;stroke-opacity:1.0000000;"
     d="M 27.611284,31.536908 C 41.353305,28.992089 39.953655,12.705249 39.953655,12.705249"
     sodipodi:nodetypes="cc"
     transform="matrix(0.833333,0.000000,0.000000,0.833333,5.802144,10.53326)"
     id="path769" />
  <path
     transform="matrix(0.833333,0.000000,0.000000,0.833333,18.42020,0.884163)"
     style="font-size:12.000000;fill:#4c4c4c;fill-opacity:1.0000000;fill-rule:evenodd;stroke:#4c4c4c;stroke-width:2.2500000;stroke-linecap:round;stroke-linejoin:round;stroke-opacity:1.0000000;"
     d="M 8.9068657,17.628767 L 15.650636,17.628767 L 12.342371,13.684298 L 8.9068657,17.628767 z "
     id="path770" />
  <path
     transform="matrix(0.833333,0.000000,0.000000,0.833333,18.31416,43.08572)"
     style="font-size:12.000000;fill:#4c4c4c;fill-opacity:1.0000000;fill-rule:evenodd;stroke:#4c4c4c;stroke-width:2.2500009;stroke-opacity:1.0000000;stroke-miterlimit:4.0000000;stroke-dasharray:none;stroke-linejoin:round;stroke-linecap:round;"
     d="M 14.759949,7.3222513 C 14.759949,8.5865173 13.733878,9.6125882 12.469612,9.6125882 C 11.205346,9.6125882 10.179275,8.5865173 10.179275,7.3222513 C 10.179275,6.0579854 11.205346,5.0319145 12.469612,5.0319145 C 13.733878,5.0319145 14.759949,6.0579854 14.759949,7.3222513 z "
     id="path771" />
  <path
     transform="matrix(0.833333,0.000000,0.000000,0.833333,7.392654,21.56081)"
     style="font-size:12.000000;fill:#4c4c4c;fill-opacity:1.0000000;fill-rule:evenodd;stroke:#4c4c4c;stroke-width:2.2500000;stroke-opacity:1.0000000;stroke-linejoin:round;stroke-linecap:round;"
     d="M 14.759949,7.3222513 C 14.759949,8.5865173 13.733878,9.6125882 12.469612,9.6125882 C 11.205346,9.6125882 10.179275,8.5865173 10.179275,7.3222513 C 10.179275,6.0579854 11.205346,5.0319145 12.469612,5.0319145 C 13.733878,5.0319145 14.759949,6.0579854 14.759949,7.3222513 z "
     id="path772" />
  <path
     transform="matrix(0.833333,0.000000,0.000000,0.833333,5.908178,9.154821)"
     style="font-size:12.000000;fill:#4c4c4c;fill-opacity:1.0000000;fill-rule:evenodd;stroke:#4c4c4c;stroke-width:2.2500000;stroke-linecap:round;stroke-linejoin:round;stroke-opacity:1.0000000;"
     d="M 38.536076,12.920853 C 37.982076,12.920853 37.536076,13.366853 37.536076,13.920853 L 37.536076,16.247045 C 37.536076,16.801045 37.982076,17.247045 38.536076,17.247045 L 40.862267,17.247045 C 41.416267,17.247045 41.862267,16.801045 41.862267,16.247045 L 41.862267,13.920853 C 41.862267,13.366853 41.416267,12.920853 40.862267,12.920853 L 38.536076,12.920853 z "
     id="rect773" />
</svg>
