<?xml version="1.0" encoding="UTF-8" standalone="no"?>
<!DOCTYPE svg PUBLIC "-//W3C//DTD SVG 20010904//EN"
"http://www.w3.org/TR/2001/REC-SVG-20010904/DTD/svg10.dtd">
<svg
   sodipodi:docname="usb_unmount.svg"
   height="60.0000000"
   sodipodi:version="0.32"
   width="60.0000000"
   _SVGFile__filename="scalable/devices/usb_unmount.svg"
   version="1.0"
   y="0"
   x="0"
   inkscape:version="0.39"
   id="svg1"
   sodipodi:docbase="/home/danny/work/flat/newscale/devices"
   xmlns="http://www.w3.org/2000/svg"
   xmlns:cc="http://web.resource.org/cc/"
   xmlns:inkscape="http://www.inkscape.org/namespaces/inkscape"
   xmlns:sodipodi="http://sodipodi.sourceforge.net/DTD/sodipodi-0.dtd"
   xmlns:rdf="http://www.w3.org/1999/02/22-rdf-syntax-ns#"
   xmlns:dc="http://purl.org/dc/elements/1.1/"
   xmlns:xlink="http://www.w3.org/1999/xlink">
  <sodipodi:namedview
     bordercolor="#666666"
     inkscape:pageshadow="2"
     inkscape:window-y="0"
     pagecolor="#ffffff"
     inkscape:window-height="685"
     inkscape:zoom="9.8238822"
     inkscape:window-x="0"
     borderopacity="1.0"
     inkscape:cx="14.292991"
     inkscape:cy="20.342353"
     inkscape:window-width="1016"
     inkscape:pageopacity="0.0"
     id="base" />
  <defs
     id="defs3">
    <linearGradient
       id="linearGradient772">
      <stop
         style="stop-color:#000;stop-opacity:1;"
         id="stop773"
         offset="0" />
      <stop
         style="stop-color:#fff;stop-opacity:1;"
         id="stop774"
         offset="1" />
    </linearGradient>
    <linearGradient
       xlink:href="#linearGradient772"
       id="linearGradient775" />
  </defs>
  <metadata
     id="metadata19">
    <rdf:RDF
       id="RDF20">
      <cc:Work
         rdf:about=""
         id="Work21">
        <dc:title
           id="title22">Part of the Flat Icon Collection (Thu Aug 26 14:39:51 2004)</dc:title>
        <dc:description
           id="description24" />
        <dc:subject
           id="subject25">
          <rdf:Bag
             id="Bag26">
            <rdf:li
               id="li27" />
          </rdf:Bag>
        </dc:subject>
        <dc:publisher
           id="publisher28">
          <cc:Agent
             rdf:about=""
             id="Agent29">
            <dc:title
               id="title30" />
          </cc:Agent>
        </dc:publisher>
        <dc:creator
           id="creator31">
          <cc:Agent
             rdf:about=""
             id="Agent32">
            <dc:title
               id="title33">Danny Allen</dc:title>
          </cc:Agent>
        </dc:creator>
        <dc:rights
           id="rights35">
          <cc:Agent
             rdf:about=""
             id="Agent36">
            <dc:title
               id="title37">Danny Allen</dc:title>
          </cc:Agent>
        </dc:rights>
        <dc:date
           id="date39" />
        <dc:format
           id="format40">image/svg+xml</dc:format>
        <dc:type
           rdf:resource="http://purl.org/dc/dcmitype/StillImage"
           id="type42" />
        <cc:license
           rdf:resource="http://creativecommons.org/licenses/LGPL/2.1/"
           id="license43">
          <dc:date
             id="date44" />
        </cc:license>
        <dc:language
           id="language45">en</dc:language>
      </cc:Work>
    </rdf:RDF>
  </metadata>
  <path
     style="font-size:12.000000;fill:#7f7f7f;fill-opacity:1.0000000;fill-rule:evenodd;stroke:none;stroke-width:3.1250000;"
     d="M 16.437500 3.1250000 C 15.410402 3.1250000 14.562500 3.9416517 14.562500 4.9687500 L 14.562500 27.468750 L 21.125000 27.937500 L 39.062500 33.656250 L 51.718750 28.500000 L 51.718750 4.9687500 C 51.718752 3.9416515 50.902098 3.1250000 49.875000 3.1250000 L 16.437500 3.1250000 z M 22.406250 33.656250 L 14.562500 34.500000 L 14.562500 49.031250 C 14.562500 50.058347 15.410401 50.875000 16.437500 50.875000 L 49.875000 50.875000 C 50.902098 50.875002 51.718750 50.058348 51.718750 49.031250 L 51.718750 36.625000 L 36.250000 41.156250 L 22.406250 33.656250 z "
     id="path957" />
  <path
     style="font-size:12.000000;fill:#b3b3b3;fill-opacity:1.0000000;fill-rule:evenodd;stroke:none;stroke-width:3.1250021;stroke-linecap:round;stroke-linejoin:round;stroke-opacity:1.0000000;"
     d="M 11.625000 7.8125000 C 10.597902 7.8125000 9.7500000 8.6291517 9.7500000 9.6562500 L 9.7500000 27.125000 L 21.125000 27.937500 L 39.062500 33.656250 L 46.906250 30.468750 L 46.906250 9.6562500 C 46.906250 8.6291521 46.089598 7.8125000 45.062500 7.8125000 L 11.625000 7.8125000 z M 22.406250 33.656250 L 9.7500000 35.031250 L 9.7500000 53.718750 C 9.7500000 54.745850 10.597902 55.562500 11.625000 55.562500 L 45.062500 55.562500 C 46.089600 55.562500 46.906250 54.745848 46.906250 53.718750 L 46.906250 38.031250 L 36.250000 41.156250 L 22.406250 33.656250 z "
     id="rect958" />
  <path
     transform="matrix(0.833333,0.000000,0.000000,0.833333,18.42020,0.884163)"
     style="font-size:12.000000;fill:#4c4c4c;fill-opacity:1.0000000;fill-rule:evenodd;stroke:#4c4c4c;stroke-width:2.2500000;stroke-linecap:round;stroke-linejoin:round;stroke-opacity:1.0000000;"
     d="M 8.9068657,17.628767 L 15.650636,17.628767 L 12.342371,13.684298 L 8.9068657,17.628767 z "
     id="path994" />
  <path
     transform="matrix(0.833333,0.000000,0.000000,0.833333,18.31416,43.08572)"
     style="font-size:12.000000;fill:#4c4c4c;fill-opacity:1.0000000;fill-rule:evenodd;stroke:#4c4c4c;stroke-width:2.2500010;stroke-linecap:round;stroke-linejoin:round;stroke-miterlimit:4.0000000;stroke-opacity:1.0000000;"
     d="M 14.759949,7.3222513 C 14.759949,8.5865173 13.733878,9.6125882 12.469612,9.6125882 C 11.205346,9.6125882 10.179275,8.5865173 10.179275,7.3222513 C 10.179275,6.0579854 11.205346,5.0319145 12.469612,5.0319145 C 13.733878,5.0319145 14.759949,6.0579854 14.759949,7.3222513 z "
     id="path995" />
  <path
     style="font-size:12.000000;fill:#4c4c4c;fill-opacity:1.0000000;fill-rule:evenodd;stroke:#4c4c4c;stroke-width:1.8750000;stroke-linecap:round;stroke-linejoin:round;stroke-opacity:1.0000000;stroke-miterlimit:4.0000000;stroke-dasharray:none;"
     d="M 17.781250 25.750000 C 16.763331 25.750000 15.961411 26.558281 15.906250 27.562500 L 19.625000 27.843750 C 19.632623 27.774499 19.687500 27.727521 19.687500 27.656250 C 19.687500 26.602696 18.834805 25.750000 17.781250 25.750000 z "
     id="path772" />
  <path
     transform="matrix(0.833333,0.000000,0.000000,0.833333,5.908178,9.154821)"
     style="font-size:12.000000;fill:#4c4c4c;fill-opacity:1.0000000;fill-rule:evenodd;stroke:#4c4c4c;stroke-width:2.2500000;stroke-linecap:round;stroke-linejoin:round;stroke-opacity:1.0000000;"
     d="M 38.536076,12.920853 C 37.982076,12.920853 37.536076,13.366853 37.536076,13.920853 L 37.536076,16.247045 C 37.536076,16.801045 37.982076,17.247045 38.536076,17.247045 L 40.862267,17.247045 C 41.416267,17.247045 41.862267,16.801045 41.862267,16.247045 L 41.862267,13.920853 C 41.862267,13.366853 41.416267,12.920853 40.862267,12.920853 L 38.536076,12.920853 z "
     id="path997" />
  <path
     style="font-size:12.000000;fill:none;fill-opacity:0.75000000;fill-rule:evenodd;stroke:#4c4c4c;stroke-width:2.1862099;stroke-opacity:1.0000000;"
     transform="matrix(0.833333,0.000000,0.000000,0.882675,5.802144,6.765624)"
     d="M 27.356802,34.245972 L 27.356802,48.421075"
     id="path1651"
     sodipodi:nodetypes="cc" />
  <path
     style="font-size:12.000000;fill:none;fill-opacity:0.75000000;fill-rule:evenodd;stroke:#4c4c4c;stroke-width:1.8750013;stroke-opacity:1.0000000;"
     d="M 28.599470,15.212314 L 28.599470,30.014660"
     id="path1652"
     sodipodi:nodetypes="cc" />
  <path
     style="font-size:12.000000;fill:none;fill-opacity:0.75000000;fill-rule:evenodd;stroke:#4c4c4c;stroke-width:2.2500000;stroke-opacity:1.0000000;"
     d="M 35.856500,26.345476 C 40.742548,21.968386 39.953655,12.705249 39.953655,12.705249"
     sodipodi:nodetypes="cc"
     transform="matrix(0.833333,0.000000,0.000000,0.833333,5.802144,10.53326)"
     id="path1653" />
  <path
     style="font-size:12.000000;fill:none;fill-opacity:0.75000000;fill-rule:evenodd;stroke:#4c4c4c;stroke-width:2.2500000;stroke-opacity:1.0000000;"
     d="M 27.229561,37.439475 C 17.253873,36.141617 15.777877,27.820064 15.777877,27.820064"
     sodipodi:nodetypes="cc"
     transform="matrix(0.833333,0.000000,0.000000,0.833333,5.802144,10.74533)"
     id="path1654" />
  <path
     style="font-size:12.000000;fill:none;fill-opacity:1.0000000;fill-rule:evenodd;stroke:#333333;stroke-width:3.1250021;stroke-linecap:round;stroke-linejoin:round;stroke-opacity:1.0000000;"
     d="M 11.625000 7.8125000 C 10.597902 7.8125000 9.7500000 8.6291517 9.7500000 9.6562500 L 9.7500000 27.125000 L 21.125000 27.937500 L 39.062500 33.656250 L 46.906250 30.468750 L 46.906250 9.6562500 C 46.906250 8.6291521 46.089598 7.8125000 45.062500 7.8125000 L 11.625000 7.8125000 z M 22.406250 33.656250 L 9.7500000 35.031250 L 9.7500000 53.718750 C 9.7500000 54.745850 10.597902 55.562500 11.625000 55.562500 L 45.062500 55.562500 C 46.089600 55.562500 46.906250 54.745848 46.906250 53.718750 L 46.906250 38.031250 L 36.250000 41.156250 L 22.406250 33.656250 z "
     id="path1650" />
</svg>
