<?xml version="1.0" encoding="UTF-8" standalone="no"?>
<!DOCTYPE svg PUBLIC "-//W3C//DTD SVG 20010904//EN"
"http://www.w3.org/TR/2001/REC-SVG-20010904/DTD/svg10.dtd">
<svg
   sodipodi:docname="009_presentation_document.svg"
   height="60.0000000"
   sodipodi:version="0.32"
   width="60.0000000"
   _SVGFile__filename="scalable/apps/008_presentation_document.svg"
   version="1.0"
   y="0"
   x="0"
   inkscape:version="0.39"
   id="svg1"
   sodipodi:docbase="/home/danny/work/flat/newscale/apps"
   xmlns="http://www.w3.org/2000/svg"
   xmlns:cc="http://web.resource.org/cc/"
   xmlns:inkscape="http://www.inkscape.org/namespaces/inkscape"
   xmlns:sodipodi="http://sodipodi.sourceforge.net/DTD/sodipodi-0.dtd"
   xmlns:rdf="http://www.w3.org/1999/02/22-rdf-syntax-ns#"
   xmlns:dc="http://purl.org/dc/elements/1.1/"
   xmlns:xlink="http://www.w3.org/1999/xlink">
  <sodipodi:namedview
     bordercolor="#666666"
     inkscape:pageshadow="2"
     inkscape:window-y="0"
     snaptoguides="true"
     pagecolor="#ffffff"
     inkscape:window-height="685"
     inkscape:zoom="9.8238822"
     inkscape:window-x="0"
     borderopacity="1.0"
     inkscape:cx="33.655402"
     inkscape:cy="30.356159"
     inkscape:window-width="1016"
     inkscape:pageopacity="0.0"
     id="base"
     showguides="true" />
  <defs
     id="defs3">
    <linearGradient
       id="linearGradient900">
      <stop
         style="stop-color:#000;stop-opacity:1;"
         id="stop901"
         offset="0" />
      <stop
         style="stop-color:#fff;stop-opacity:1;"
         id="stop902"
         offset="1" />
    </linearGradient>
    <linearGradient
       xlink:href="#linearGradient900"
       id="linearGradient903" />
    <linearGradient
       xlink:href="#linearGradient900"
       id="linearGradient904" />
    <linearGradient
       xlink:href="#linearGradient900"
       id="linearGradient905" />
    <linearGradient
       xlink:href="#linearGradient900"
       id="linearGradient906" />
    <linearGradient
       xlink:href="#linearGradient900"
       id="linearGradient907" />
  </defs>
  <path
     style="font-size:12.000000;fill:#b3b3b3;fill-opacity:1.0000000;fill-rule:evenodd;stroke:#333333;stroke-width:3.1250000;stroke-linejoin:round;stroke-opacity:1.0000000;"
     d="M 6.6785922,5.1165123 C 5.5705922,5.1165123 4.6785922,6.0085123 4.6785922,7.1165123 L 4.6785922,53.501354 C 4.6785922,54.609354 5.5705922,55.501354 6.6785922,55.501354 L 53.423324,55.501354 C 54.531324,55.501354 55.423324,54.609354 55.423324,53.501354 L 55.423324,7.1165123 C 55.423324,6.0085123 54.531324,5.1165123 53.423324,5.1165123 L 6.6785922,5.1165123 z "
     id="rect812" />
  <path
     style="font-size:12.000000;fill:#7f7f7f;fill-rule:evenodd;stroke:#333333;stroke-width:2.3473532;stroke-linecap:round;stroke-linejoin:round;"
     transform="matrix(0.798772,0.000000,0.000000,0.798772,18.03194,-16.43113)"
     d="M 9.9062500,49.226304 C 6.8977640,50.827594 4.9440650,53.865134 3.6562500,57.132554 L 26.437500,57.132554 C 25.255631,53.944455 23.446892,50.939029 20.687500,49.226304 C 17.585032,49.091417 13.683172,49.226304 9.9062500,49.226304 z "
     id="path692" />
  <path
     transform="matrix(0.620637,0.000000,0.000000,0.620637,17.93356,3.451635)"
     style="font-size:12.000000;fill:#cccccc;fill-opacity:1.0000000;fill-rule:evenodd;stroke:#333333;stroke-width:3.0210896;stroke-linecap:round;stroke-linejoin:round;"
     d="M 31.850417,22.301342 C 31.850417,29.105455 26.328239,34.627633 19.524126,34.627633 C 12.720013,34.627633 7.1978350,29.105455 7.1978350,22.301342 C 7.1978350,15.497229 12.720013,9.9750509 19.524126,9.9750509 C 26.328239,9.9750509 31.850417,15.497229 31.850417,22.301342 z "
     id="path716" />
  <path
     style="font-size:12.000000;fill:#b3b3b3;fill-opacity:1.0000000;fill-rule:evenodd;stroke:#333333;stroke-width:3.3077314;stroke-linecap:round;stroke-linejoin:round;stroke-opacity:1.0000000;"
     transform="matrix(0.755805,0.000000,0.000000,0.755805,7.837377,6.849774)"
     d="M 8.4062500,34.000000 L 8.4062500,57.968750 L 50.375000,57.968750 L 50.375000,34.000000"
     sodipodi:stroke-cmyk="(0 0 0 0.8)"
     id="path699"
     sodipodi:nodetypes="cccc" />
  <path
     style="fill:none;fill-opacity:0.75000000;fill-rule:evenodd;stroke:#333333;stroke-width:1.6538657;stroke-linecap:round;stroke-linejoin:round;stroke-opacity:1.0000000;"
     d="M 18.831659,34.806294 L 6.1075651,17.247044 L 13.233058,13.684298"
     sodipodi:nodetypes="ccc"
     transform="matrix(0.755805,0.000000,0.000000,0.755805,7.260361,6.849774)"
     sodipodi:stroke-cmyk="(0 0 0 0.8)"
     id="path700" />
  <path
     transform="matrix(0.755805,0.000000,0.000000,0.755805,7.260361,6.849774)"
     style="font-size:12.000000;fill:#333333;fill-opacity:1.0000000;fill-rule:evenodd;stroke:#333333;stroke-width:1.6538657;stroke-opacity:1.0000000;"
     d="M 15.777877,13.684299 C 15.777877,15.369986 14.409782,16.738081 12.724094,16.738081 C 11.038406,16.738081 9.6703119,15.369986 9.6703119,13.684299 C 9.6703119,11.998611 11.038406,10.630516 12.724094,10.630516 C 14.409782,10.630516 15.777877,11.998611 15.777877,13.684299 z "
     id="path701" />
  <path
     style="font-size:12.000000;fill:#4c4c4c;fill-opacity:1.0000000;fill-rule:evenodd;stroke:#333333;stroke-width:2.5000000;stroke-linejoin:round;stroke-opacity:1.0000000;"
     d="M 14.026272,28.258558 C 12.770124,28.258558 11.758857,28.994025 11.758857,29.907586 L 11.758857,31.225655 C 11.758857,32.139217 12.770124,32.874683 14.026272,32.874683 L 46.420465,32.874683 C 47.676613,32.874683 48.687881,32.139217 48.687881,31.225655 L 48.687881,29.907586 C 48.687881,28.994025 47.676613,28.258558 46.420465,28.258558 L 14.026272,28.258558 z "
     id="rect682"
     transform="translate(-0.172411,-0.102825)" />
  <g
     id="g1576"
     transform="translate(0.173635,-0.102825)">
    <path
       style="fill:#333333;fill-opacity:1.0000000;fill-rule:evenodd;stroke:#333333;stroke-width:1.3772665;stroke-linecap:round;stroke-linejoin:round;stroke-miterlimit:4.0000000;"
       d="M -32.570201,41.285630 C -23.033071,41.285630 -14.755560,44.884548 -12.236319,47.403790 C -10.076968,44.704602 -2.5192417,42.725197 8.8173473,42.725197 C -2.3392962,39.126280 -4.7381130,38.503235 -12.475786,41.562315 C -20.033512,37.783452 -23.392962,38.586442 -32.570201,41.285630 z "
       sodipodi:nodetypes="ccccc"
       sodipodi:stroke-cmyk="(0.0000000 0.0000000 0.0000000 0.80000001)"
       id="path943"
       transform="matrix(0.384077,-0.241696,0.241696,0.384077,22.23370,26.81158)" />
    <path
       style="fill:#333333;fill-opacity:1.0000000;fill-rule:evenodd;stroke:#333333;stroke-width:2.3861246;stroke-linecap:round;stroke-linejoin:round;stroke-miterlimit:4.0000000;"
       d="M 6.2396652,37.041241 C 15.919089,30.950086 26.618650,29.316036 30.784463,30.263881 C 31.252119,26.145291 37.658405,19.309400 49.164135,12.068970 C 35.542486,15.541860 32.709953,16.441591 26.810601,24.488194 C 16.726638,25.479903 13.829917,28.440481 6.2396652,37.041241 z "
       sodipodi:nodetypes="ccccc"
       sodipodi:stroke-cmyk="(0.0000000 0.0000000 0.0000000 0.80000001)"
       id="path944"
       transform="matrix(0.261931,0.000000,0.000000,0.261931,27.17423,30.63800)" />
  </g>
  <metadata
     id="metadata22">
    <rdf:RDF
       id="RDF23">
      <cc:Work
         rdf:about=""
         id="Work24">
        <dc:title
           id="title25">Part of the Flat Icon Collection (Thu Aug 26 14:31:40 2004)</dc:title>
        <dc:description
           id="description27" />
        <dc:subject
           id="subject28">
          <rdf:Bag
             id="Bag29">
            <rdf:li
               id="li30" />
          </rdf:Bag>
        </dc:subject>
        <dc:publisher
           id="publisher31">
          <cc:Agent
             rdf:about=""
             id="Agent32">
            <dc:title
               id="title33" />
          </cc:Agent>
        </dc:publisher>
        <dc:creator
           id="creator34">
          <cc:Agent
             rdf:about=""
             id="Agent35">
            <dc:title
               id="title36">Danny Allen</dc:title>
          </cc:Agent>
        </dc:creator>
        <dc:rights
           id="rights38">
          <cc:Agent
             rdf:about=""
             id="Agent39">
            <dc:title
               id="title40">Danny Allen</dc:title>
          </cc:Agent>
        </dc:rights>
        <dc:date
           id="date42" />
        <dc:format
           id="format43">image/svg+xml</dc:format>
        <dc:type
           rdf:resource="http://purl.org/dc/dcmitype/StillImage"
           id="type45" />
        <cc:license
           rdf:resource="http://creativecommons.org/licenses/LGPL/2.1/"
           id="license46">
          <dc:date
             id="date47" />
        </cc:license>
        <dc:language
           id="language48">en</dc:language>
      </cc:Work>
    </rdf:RDF>
  </metadata>
</svg>
