<?xml version="1.0" encoding="UTF-8" standalone="no"?>
<!DOCTYPE svg PUBLIC "-//W3C//DTD SVG 20010904//EN"
"http://www.w3.org/TR/2001/REC-SVG-20010904/DTD/svg10.dtd">
<svg
   sodipodi:docname="015_math_document.svg"
   height="60.0000000"
   sodipodi:version="0.32"
   width="60.0000000"
   _SVGFile__filename="scalable/apps/015_math_document.svg"
   version="1.0"
   y="0"
   x="0"
   inkscape:version="0.39"
   id="svg1"
   sodipodi:docbase="/home/danny/work/flat/newscale/apps"
   xmlns="http://www.w3.org/2000/svg"
   xmlns:cc="http://web.resource.org/cc/"
   xmlns:inkscape="http://www.inkscape.org/namespaces/inkscape"
   xmlns:sodipodi="http://sodipodi.sourceforge.net/DTD/sodipodi-0.dtd"
   xmlns:rdf="http://www.w3.org/1999/02/22-rdf-syntax-ns#"
   xmlns:dc="http://purl.org/dc/elements/1.1/"
   xmlns:xlink="http://www.w3.org/1999/xlink">
  <sodipodi:namedview
     bordercolor="#666666"
     inkscape:pageshadow="2"
     inkscape:window-y="0"
     snaptoguides="true"
     pagecolor="#ffffff"
     inkscape:window-height="685"
     inkscape:zoom="6.9465337"
     inkscape:window-x="0"
     borderopacity="1.0"
     inkscape:cx="37.697545"
     inkscape:cy="32.066634"
     inkscape:window-width="1016"
     inkscape:pageopacity="0.0"
     id="base"
     showguides="true" />
  <defs
     id="defs3">
    <linearGradient
       id="linearGradient900">
      <stop
         style="stop-color:#000;stop-opacity:1;"
         id="stop901"
         offset="0" />
      <stop
         style="stop-color:#fff;stop-opacity:1;"
         id="stop902"
         offset="1" />
    </linearGradient>
    <linearGradient
       xlink:href="#linearGradient900"
       id="linearGradient903" />
    <linearGradient
       xlink:href="#linearGradient900"
       id="linearGradient904" />
    <linearGradient
       xlink:href="#linearGradient900"
       id="linearGradient905" />
    <linearGradient
       xlink:href="#linearGradient900"
       id="linearGradient906" />
    <linearGradient
       xlink:href="#linearGradient900"
       id="linearGradient907" />
  </defs>
  <path
     style="font-size:12.000000;fill:#b3b3b3;fill-opacity:1.0000000;fill-rule:evenodd;stroke:#333333;stroke-width:3.1250000;stroke-linejoin:round;stroke-opacity:1.0000000;"
     d="M 6.6785922,5.1165123 C 5.5705922,5.1165123 4.6785922,6.0085123 4.6785922,7.1165123 L 4.6785922,53.501354 C 4.6785922,54.609354 5.5705922,55.501354 6.6785922,55.501354 L 53.423324,55.501354 C 54.531324,55.501354 55.423324,54.609354 55.423324,53.501354 L 55.423324,7.1165123 C 55.423324,6.0085123 54.531324,5.1165123 53.423324,5.1165123 L 6.6785922,5.1165123 z "
     id="rect812" />
  <path
     style="fill:#333333;fill-rule:evenodd;stroke:#333333;stroke-width:0.68891071;stroke-linecap:round;stroke-linejoin:round;stroke-dasharray:none;fill-opacity:1.0000000;"
     d="M 22.844511,39.677144 C 25.762873,37.840646 28.988810,37.347973 30.244810,37.633748 C 30.385808,36.391985 32.317312,34.330949 35.786308,32.147941 C 31.679357,33.195030 30.825344,33.466301 29.046682,35.892369 C 26.006348,36.191375 25.132983,37.083996 22.844511,39.677144 z "
     sodipodi:nodetypes="ccccc"
     transform="matrix(1.360844,0.000000,0.000000,1.360844,-25.76524,-29.54548)"
     sodipodi:stroke-cmyk="(0.0000000 0.0000000 0.0000000 0.80000001)"
     id="path943" />
  <path
     style="fill:#333333;fill-rule:evenodd;stroke:#333333;stroke-width:0.68891071;stroke-linecap:round;stroke-linejoin:round;stroke-dasharray:none;fill-opacity:1.0000000;"
     d="M 30.099216,31.550410 C 32.119157,30.279284 34.351984,29.938284 35.221323,30.136084 C 35.318915,29.276600 36.655805,27.850059 39.056866,26.339097 C 36.214246,27.063833 35.623142,27.251593 34.392042,28.930790 C 32.287680,29.137744 31.683180,29.755569 30.099216,31.550410 z "
     sodipodi:nodetypes="ccccc"
     transform="matrix(1.360844,0.000000,0.000000,1.360844,-25.76524,-29.54548)"
     sodipodi:stroke-cmyk="(0.0000000 0.0000000 0.0000000 0.80000001)"
     id="path944" />
  <path
     id="path841"
     style="font-size:12.000000;font-weight:900;fill:#333333;stroke-width:1.0000000pt;font-family:VAG Rounded Black SSi;"
     transform="matrix(3.806639,0.000000,0.000000,3.806639,-20.00950,14.58130)"
     d="M 12.099935,7.7692461 L 13.693685,6.0524492 L 12.726888,5.0094805 C 12.492513,4.7594805 12.334310,4.5895586 12.252278,4.4997149 C 12.174153,4.4059649 12.113606,4.3141680 12.070638,4.2243242 C 12.027669,4.1305742 12.006185,4.0251055 12.006185,3.9079180 C 12.006185,3.6266680 12.097981,3.3942461 12.281575,3.2106524 C 12.465169,3.0270586 12.672200,2.9352617 12.902669,2.9352617 C 13.125325,2.9352617 13.301106,2.9665117 13.430013,3.0290117 C 13.558919,3.0915117 13.691731,3.2126055 13.828450,3.3922930 L 14.824544,4.6403399 L 15.820638,3.3922930 C 15.965169,3.2126055 16.099935,3.0915117 16.224935,3.0290117 C 16.349935,2.9665117 16.523763,2.9352617 16.746419,2.9352617 C 16.976888,2.9352617 17.183919,3.0251055 17.367513,3.2047930 C 17.551106,3.3844805 17.642903,3.6188555 17.642903,3.9079180 C 17.642903,4.0251055 17.621419,4.1305742 17.578450,4.2243242 C 17.535481,4.3141680 17.472981,4.4059649 17.390950,4.4997149 C 17.312825,4.5895586 17.156575,4.7594805 16.922200,5.0094805 L 15.955403,6.0524492 L 17.549153,7.7692461 C 17.650716,7.8786211 17.736653,7.9977617 17.806966,8.1266680 C 17.881185,8.2516680 17.918294,8.4001055 17.918294,8.5719805 C 17.918294,8.8571367 17.826497,9.0876055 17.642903,9.2633867 C 17.459310,9.4352617 17.232747,9.5211992 16.963216,9.5211992 C 16.787435,9.5211992 16.642903,9.4840899 16.529622,9.4098711 C 16.420247,9.3356524 16.287435,9.2126055 16.131185,9.0407305 L 14.824544,7.4938555 L 13.517903,9.0407305 C 13.381185,9.1969805 13.252278,9.3161211 13.131185,9.3981524 C 13.010091,9.4801836 12.861653,9.5211992 12.685872,9.5211992 C 12.416341,9.5211992 12.189778,9.4352617 12.006185,9.2633867 C 11.822591,9.0876055 11.730794,8.8571367 11.730794,8.5719805 C 11.730794,8.4040117 11.762044,8.2614336 11.824544,8.1442461 C 11.890950,8.0270586 11.982747,7.9020586 12.099935,7.7692461 z " />
  <path
     style="fill:none;fill-opacity:0.75000000;fill-rule:evenodd;stroke:#333333;stroke-width:4.0874358;stroke-linecap:round;stroke-linejoin:round;stroke-dasharray:none;"
     transform="matrix(0.764538,0.000000,0.000000,0.764538,-20.00950,14.58130)"
     d="M 38.242925,25.828642 L 41.839144,24.347845 L 46.706654,42.513638 L 55.489460,9.7357608 L 92.397772,9.7357608"
     sodipodi:stroke-cmyk="(0.0000000 0.0000000 0.0000000 0.80000001)"
     id="path1017" />
  <metadata
     id="metadata17">
    <rdf:RDF
       id="RDF18">
      <cc:Work
         rdf:about=""
         id="Work19">
        <dc:title
           id="title20">Part of the Flat Icon Collection (Thu Aug 26 14:31:40 2004)</dc:title>
        <dc:description
           id="description22" />
        <dc:subject
           id="subject23">
          <rdf:Bag
             id="Bag24">
            <rdf:li
               id="li25" />
          </rdf:Bag>
        </dc:subject>
        <dc:publisher
           id="publisher26">
          <cc:Agent
             rdf:about=""
             id="Agent27">
            <dc:title
               id="title28" />
          </cc:Agent>
        </dc:publisher>
        <dc:creator
           id="creator29">
          <cc:Agent
             rdf:about=""
             id="Agent30">
            <dc:title
               id="title31">Danny Allen</dc:title>
          </cc:Agent>
        </dc:creator>
        <dc:rights
           id="rights33">
          <cc:Agent
             rdf:about=""
             id="Agent34">
            <dc:title
               id="title35">Danny Allen</dc:title>
          </cc:Agent>
        </dc:rights>
        <dc:date
           id="date37" />
        <dc:format
           id="format38">image/svg+xml</dc:format>
        <dc:type
           rdf:resource="http://purl.org/dc/dcmitype/StillImage"
           id="type40" />
        <cc:license
           rdf:resource="http://creativecommons.org/licenses/LGPL/2.1/"
           id="license41">
          <dc:date
             id="date42" />
        </cc:license>
        <dc:language
           id="language43">en</dc:language>
      </cc:Work>
    </rdf:RDF>
  </metadata>
</svg>
