<?xml version="1.0" encoding="UTF-8" standalone="no"?>
<!DOCTYPE svg PUBLIC "-//W3C//DTD SVG 20010904//EN"
"http://www.w3.org/TR/2001/REC-SVG-20010904/DTD/svg10.dtd">
<svg
   sodipodi:docname="amor.svg"
   height="60.0000000"
   sodipodi:version="0.32"
   width="60.0000000"
   _SVGFile__filename="scalable/apps/amor.svg"
   version="1.0"
   y="0"
   x="0"
   inkscape:version="0.39"
   id="svg1"
   sodipodi:docbase="/home/danny/work/flat/newscale/apps"
   xmlns="http://www.w3.org/2000/svg"
   xmlns:cc="http://web.resource.org/cc/"
   xmlns:inkscape="http://www.inkscape.org/namespaces/inkscape"
   xmlns:sodipodi="http://sodipodi.sourceforge.net/DTD/sodipodi-0.dtd"
   xmlns:rdf="http://www.w3.org/1999/02/22-rdf-syntax-ns#"
   xmlns:dc="http://purl.org/dc/elements/1.1/"
   xmlns:xlink="http://www.w3.org/1999/xlink">
  <sodipodi:namedview
     bordercolor="#666666"
     inkscape:pageshadow="2"
     inkscape:window-y="0"
     pagecolor="#ffffff"
     inkscape:window-height="685"
     inkscape:zoom="6.9465338"
     inkscape:window-x="0"
     borderopacity="1.0"
     inkscape:cx="29.830187"
     inkscape:cy="18.853661"
     inkscape:window-width="1016"
     inkscape:pageopacity="0.0"
     id="base" />
  <defs
     id="defs3">
    <linearGradient
       id="linearGradient900">
      <stop
         style="stop-color:#000;stop-opacity:1;"
         id="stop901"
         offset="0" />
      <stop
         style="stop-color:#fff;stop-opacity:1;"
         id="stop902"
         offset="1" />
    </linearGradient>
    <linearGradient
       xlink:href="#linearGradient900"
       id="linearGradient903" />
    <linearGradient
       xlink:href="#linearGradient900"
       id="linearGradient904" />
    <linearGradient
       xlink:href="#linearGradient900"
       id="linearGradient905" />
    <linearGradient
       xlink:href="#linearGradient900"
       id="linearGradient906" />
    <linearGradient
       xlink:href="#linearGradient900"
       id="linearGradient907" />
  </defs>
  <path
     sodipodi:rx="14.845533"
     sodipodi:ry="14.845533"
     style="fill:#ffffff;fill-opacity:1.0000000;fill-rule:evenodd;stroke:none;stroke-width:1.0000000pt;"
     sodipodi:type="arc"
     d="M 40.127928 21.401613 A 14.845533 14.845533 0 1 0 10.436861,21.401613 A 14.845533 14.845533 0 1 0 40.127928 21.401613 z"
     transform="translate(-2.159350,-1.079675)"
     sodipodi:cy="21.401613"
     sodipodi:cx="25.282394"
     id="path844" />
  <path
     sodipodi:nodetypes="ccccccccc"
     style="font-size:12.000000;fill: #cccccc;fill-rule:evenodd;stroke-width:3.1250036;stroke-linecap:round;stroke-linejoin:round;"
     fill-opacity="1.0"
     d="M 8.1882572,31.184343 C 6.1377742,31.184343 4.4870252,32.835093 4.4870252,34.885575 L 4.4870252,53.661559 C 4.4870252,55.712041 6.1377742,57.362791 8.1882572,57.362791 L 52.192433,57.362791 C 54.242916,57.362791 55.893665,55.712041 55.893665,53.661559 L 55.893665,34.885575 C 55.893665,32.835093 54.242916,31.184343 52.192433,31.184343 L 8.1882572,31.184343 z "
     id="path843" />
  <path
     sodipodi:nodetypes="ccccc"
     style="font-size:12.000000;fill:#7f7f7f;fill-rule:evenodd;stroke-width:3.1250000;stroke-linecap:round;stroke-linejoin:round;"
     d="M 4.3074503,32.044876 C 4.4873962,36.363577 4.4619247,39.626775 4.3697656,45.744934 L 51.512286,45.744934 C 53.939368,45.744934 55.893301,43.529058 55.893301,40.776603 L 55.893301,32.044876"
     id="path840" />
  <path
     sodipodi:nodetypes="cccc"
     style="font-size:12.000000;fill:none;fill-opacity:0.75000000;fill-rule:evenodd;stroke:#333333;stroke-width:3.1250000;stroke-linecap:round;stroke-linejoin:round;stroke-dasharray:none;stroke-opacity:1.0000000;"
     d="M 50.306752,36.399153 L 44.643501,42.062404 M 44.511798,36.267449 L 50.306752,42.062404"
     sodipodi:stroke-cmyk="(0.0000000 0.0000000 0.0000000 0.80000001)"
     id="path923" />
  <path
     sodipodi:nodetypes="ccc"
     style="font-size:12.000000;fill:none;fill-rule:evenodd;stroke:#333333;stroke-width:3.1250000;stroke-linecap:round;stroke-linejoin:round;"
     d="M 4.5500756,47.256923 L 51.512650,47.076977 C 53.939732,47.076977 55.893665,45.123043 55.893665,42.695961"
     id="path842" />
  <path
     sodipodi:nodetypes="cccc"
     style="font-size:12.000000;fill:none;fill-rule:evenodd;stroke:#333333;stroke-width:3.1250000;stroke-linecap:round;stroke-linejoin:round;"
     d="M 55.893665,56.720639 L 55.893665,34.885575 C 55.893665,32.835093 54.242916,31.184343 52.192433,31.184343 L 4.5893400,31.184343"
     id="path841" />
  <path
     style="font-size:12;fill:#b3b3b3;fill-rule:evenodd;stroke:#333333;stroke-width:3.0486863;fill-opacity:1;stroke-dasharray:none;"
     transform="matrix(1.667012e-20,0.615019,-0.615019,1.667012e-20,41.56020,1.935621)"
     d="M 30.156250 2.750000 C 15.055298 2.750000 2.812500 14.992798 2.812500 30.093750 C 2.812500 45.194702 15.055298 57.468749 30.156250 57.468750 C 45.257202 57.468750 57.500001 45.194702 57.500000 30.093750 C 57.500000 14.992798 45.257202 2.750000 30.156250 2.750000 z M 40.718750 12.000000 C 41.350093 11.995952 41.913661 12.226795 42.406250 12.687500 C 42.898757 13.135321 43.344464 13.830352 43.750000 14.781250 C 44.639370 16.837165 45.350496 19.144891 45.843750 21.718750 C 46.349807 24.279641 46.608062 26.889911 46.625000 29.531250 C 46.640450 31.940667 46.441156 34.332376 46.031250 36.718750 C 45.621260 39.092239 45.016681 41.374320 44.218750 43.531250 C 43.737483 44.835734 43.230580 45.755158 42.718750 46.312500 C 42.219803 46.869758 41.651633 47.151871 40.968750 47.156250 C 40.195674 47.161206 39.565885 46.935267 39.125000 46.500000 C 38.697084 46.077536 38.504957 45.491825 38.500000 44.718750 C 38.499008 44.564135 38.942858 42.830336 39.875000 39.500000 C 40.807143 36.169665 41.271069 32.848068 41.250000 29.562500 C 41.228765 26.251162 40.724693 22.961473 39.750000 19.656250 C 38.775225 16.338142 38.282076 14.597596 38.281250 14.468750 C 38.276210 13.682790 38.483785 13.084168 38.906250 12.656250 C 39.341599 12.228250 39.945675 12.004957 40.718750 12.000000 z M 21.687500 13.406250 C 24.813046 13.406250 27.343750 15.968204 27.343750 19.093750 C 27.343749 22.219297 24.813046 24.750000 21.687500 24.750000 C 18.561953 24.750000 16.031250 22.219296 16.031250 19.093750 C 16.031249 15.968204 18.561954 13.406250 21.687500 13.406250 z M 21.687500 35.812500 C 24.813046 35.812501 27.343750 38.374454 27.343750 41.500000 C 27.343749 44.625546 24.813046 47.156250 21.687500 47.156250 C 18.561953 47.156251 16.031250 44.625546 16.031250 41.500000 C 16.031249 38.374453 18.561954 35.812500 21.687500 35.812500 z "
     id="path592" />
  <metadata
     id="metadata19">
    <rdf:RDF
       id="RDF20">
      <cc:Work
         rdf:about=""
         id="Work21">
        <dc:title
           id="title22">Part of the Flat Icon Collection (Thu Aug 26 14:31:40 2004)</dc:title>
        <dc:description
           id="description24" />
        <dc:subject
           id="subject25">
          <rdf:Bag
             id="Bag26">
            <rdf:li
               id="li27" />
          </rdf:Bag>
        </dc:subject>
        <dc:publisher
           id="publisher28">
          <cc:Agent
             rdf:about=""
             id="Agent29">
            <dc:title
               id="title30" />
          </cc:Agent>
        </dc:publisher>
        <dc:creator
           id="creator31">
          <cc:Agent
             rdf:about=""
             id="Agent32">
            <dc:title
               id="title33">Danny Allen</dc:title>
          </cc:Agent>
        </dc:creator>
        <dc:rights
           id="rights35">
          <cc:Agent
             rdf:about=""
             id="Agent36">
            <dc:title
               id="title37">Danny Allen</dc:title>
          </cc:Agent>
        </dc:rights>
        <dc:date
           id="date39" />
        <dc:format
           id="format40">image/svg+xml</dc:format>
        <dc:type
           rdf:resource="http://purl.org/dc/dcmitype/StillImage"
           id="type42" />
        <cc:license
           rdf:resource="http://creativecommons.org/licenses/LGPL/2.1/"
           id="license43">
          <dc:date
             id="date44" />
        </cc:license>
        <dc:language
           id="language45">en</dc:language>
      </cc:Work>
    </rdf:RDF>
  </metadata>
</svg>
