<?xml version="1.0" encoding="UTF-8" standalone="no"?>
<!DOCTYPE svg PUBLIC "-//W3C//DTD SVG 20010904//EN"
"http://www.w3.org/TR/2001/REC-SVG-20010904/DTD/svg10.dtd">
<svg
   sodipodi:docname="applixware.svg"
   height="60.0000000"
   sodipodi:version="0.32"
   width="60.0000000"
   _SVGFile__filename="scalable/apps/applixware.svg"
   version="1.0"
   y="0"
   x="0"
   inkscape:version="0.39"
   id="svg1"
   sodipodi:docbase="/home/danny/work/flat/newscale/apps"
   xmlns="http://www.w3.org/2000/svg"
   xmlns:cc="http://web.resource.org/cc/"
   xmlns:inkscape="http://www.inkscape.org/namespaces/inkscape"
   xmlns:sodipodi="http://sodipodi.sourceforge.net/DTD/sodipodi-0.dtd"
   xmlns:rdf="http://www.w3.org/1999/02/22-rdf-syntax-ns#"
   xmlns:dc="http://purl.org/dc/elements/1.1/"
   xmlns:xlink="http://www.w3.org/1999/xlink">
  <sodipodi:namedview
     bordercolor="#666666"
     inkscape:pageshadow="2"
     inkscape:window-y="0"
     pagecolor="#ffffff"
     inkscape:window-height="685"
     inkscape:zoom="9.8238823"
     inkscape:window-x="0"
     borderopacity="1.0"
     inkscape:cx="32.599621"
     inkscape:cy="26.242617"
     inkscape:window-width="1016"
     inkscape:pageopacity="0.0"
     id="base" />
  <defs
     id="defs3">
    <linearGradient
       id="linearGradient900">
      <stop
         style="stop-color:#000;stop-opacity:1;"
         id="stop901"
         offset="0" />
      <stop
         style="stop-color:#fff;stop-opacity:1;"
         id="stop902"
         offset="1" />
    </linearGradient>
    <linearGradient
       xlink:href="#linearGradient900"
       id="linearGradient903" />
    <linearGradient
       xlink:href="#linearGradient900"
       id="linearGradient904" />
    <linearGradient
       xlink:href="#linearGradient900"
       id="linearGradient905" />
    <linearGradient
       xlink:href="#linearGradient900"
       id="linearGradient906" />
    <linearGradient
       xlink:href="#linearGradient900"
       id="linearGradient907" />
  </defs>
  <path
     id="path836"
     style="font-size:12.000000;font-weight:900;fill:#333333;stroke-width:0.51074767;font-family:VAG Rounded Black SSi;"
     d="M 8.5902787,45.022021 L 20.062431,13.832110 C 21.090146,11.083572 21.938602,9.0520466 22.607810,7.7375277 C 23.277019,6.3991100 24.197184,5.2757936 25.368298,4.3675846 C 26.539418,3.4354707 28.069038,2.9694138 29.957159,2.9694138 C 31.893089,2.9694138 33.458557,3.4354707 34.653570,4.3675846 C 35.872488,5.2996985 36.828500,6.4708124 37.521608,7.8809326 C 38.238620,9.2671479 39.075133,11.250876 40.031146,13.832110 L 51.467443,45.022021 C 52.184456,46.910148 52.650513,48.368066 52.865614,49.395781 C 53.104614,50.399591 53.224120,51.415357 53.224120,52.443072 C 53.224120,53.924888 52.698310,55.119907 51.646696,56.028116 C 50.618981,56.912426 49.244715,57.354585 47.523893,57.354585 C 46.328880,57.354585 45.325064,57.115585 44.512456,56.637578 C 43.699842,56.159572 43.042583,55.490363 42.540677,54.629952 C 42.062671,53.769540 41.632462,52.717926 41.250057,51.475110 L 39.816038,46.778692 L 20.277532,46.778692 L 18.807665,51.475110 C 18.186253,53.411034 17.433393,54.880901 16.549083,55.884717 C 15.688671,56.864629 14.362203,57.354585 12.569678,57.354585 C 10.872760,57.354585 9.4865383,56.912426 8.4110256,56.028116 C 7.3594117,55.119907 6.8336017,53.924888 6.8336017,52.443072 C 6.8336017,51.558756 6.9292029,50.638597 7.1204055,49.682585 C 7.3355129,48.702673 7.8254686,47.149148 8.5902787,45.022021 z M 36.266842,35.629199 L 30.315665,16.305793 L 30.172266,16.305793 L 23.790880,35.629199 L 36.266842,35.629199 z " />
  <metadata
     id="metadata13">
    <rdf:RDF
       id="RDF14">
      <cc:Work
         rdf:about=""
         id="Work15">
        <dc:title
           id="title16">Part of the Flat Icon Collection (Thu Aug 26 14:31:40 2004)</dc:title>
        <dc:description
           id="description18" />
        <dc:subject
           id="subject19">
          <rdf:Bag
             id="Bag20">
            <rdf:li
               id="li21" />
          </rdf:Bag>
        </dc:subject>
        <dc:publisher
           id="publisher22">
          <cc:Agent
             rdf:about=""
             id="Agent23">
            <dc:title
               id="title24" />
          </cc:Agent>
        </dc:publisher>
        <dc:creator
           id="creator25">
          <cc:Agent
             rdf:about=""
             id="Agent26">
            <dc:title
               id="title27">Danny Allen</dc:title>
          </cc:Agent>
        </dc:creator>
        <dc:rights
           id="rights29">
          <cc:Agent
             rdf:about=""
             id="Agent30">
            <dc:title
               id="title31">Danny Allen</dc:title>
          </cc:Agent>
        </dc:rights>
        <dc:date
           id="date33" />
        <dc:format
           id="format34">image/svg+xml</dc:format>
        <dc:type
           rdf:resource="http://purl.org/dc/dcmitype/StillImage"
           id="type36" />
        <cc:license
           rdf:resource="http://creativecommons.org/licenses/LGPL/2.1/"
           id="license37">
          <dc:date
             id="date38" />
        </cc:license>
        <dc:language
           id="language39">en</dc:language>
      </cc:Work>
    </rdf:RDF>
  </metadata>
</svg>
