<?xml version="1.0" encoding="UTF-8" standalone="no"?>
<!DOCTYPE svg PUBLIC "-//W3C//DTD SVG 20010904//EN"
"http://www.w3.org/TR/2001/REC-SVG-20010904/DTD/svg10.dtd">
<svg
   sodipodi:docname="kbugbuster.svg"
   sodipodi:version="0.32"
   height="60.0000000"
   width="60.0000000"
   _SVGFile__filename="scalable/apps/kbugbuster.svg"
   version="1.0"
   y="0"
   x="0"
   inkscape:version="0.39"
   id="svg1"
   sodipodi:docbase="/home/danny/work/flat/newscale/apps"
   xmlns="http://www.w3.org/2000/svg"
   xmlns:cc="http://web.resource.org/cc/"
   xmlns:inkscape="http://www.inkscape.org/namespaces/inkscape"
   xmlns:sodipodi="http://sodipodi.sourceforge.net/DTD/sodipodi-0.dtd"
   xmlns:rdf="http://www.w3.org/1999/02/22-rdf-syntax-ns#"
   xmlns:dc="http://purl.org/dc/elements/1.1/"
   xmlns:xlink="http://www.w3.org/1999/xlink">
  <sodipodi:namedview
     bordercolor="#666666"
     inkscape:pageshadow="2"
     inkscape:window-y="0"
     pagecolor="#ffffff"
     inkscape:window-height="685"
     inkscape:zoom="6.9465337"
     inkscape:window-x="0"
     borderopacity="1.0"
     inkscape:cx="46.083085"
     inkscape:cy="22.927871"
     inkscape:window-width="1016"
     inkscape:pageopacity="0.0"
     id="base" />
  <defs
     id="defs3">
    <linearGradient
       id="linearGradient1160">
      <stop
         style="stop-color:#000;stop-opacity:1;"
         id="stop1161"
         offset="0" />
      <stop
         style="stop-color:#fff;stop-opacity:1;"
         id="stop1162"
         offset="1" />
    </linearGradient>
    <linearGradient
       xlink:href="#linearGradient1160"
       id="linearGradient1163" />
  </defs>
  <metadata
     id="metadata19">
    <rdf:RDF
       id="RDF20">
      <cc:Work
         rdf:about=""
         id="Work21">
        <dc:format
           id="format22">image/svg+xml</dc:format>
        <dc:type
           id="type24"
           rdf:resource="http://purl.org/dc/dcmitype/StillImage" />
      </cc:Work>
    </rdf:RDF>
  </metadata>
  <g
     id="g1581"
     transform="translate(-50.00000,0.000000)">
    <path
       transform="matrix(1.109015,0.000000,0.000000,1.109015,47.56695,-3.176120)"
       style="font-size:12.000000;fill:#4d4d4d;fill-opacity:1.0000000;fill-rule:evenodd;stroke:#333333;stroke-width:2.8178201;stroke-linecap:round;stroke-linejoin:round;stroke-opacity:1.0000000;"
       d="M 16.250000,6.6875000 C 15.142000,6.6875000 14.250000,7.5795000 14.250000,8.6875000 L 14.250000,51.375000 C 14.250000,52.483000 15.142000,53.375000 16.250000,53.375000 L 42.656250,53.375000 C 43.764252,53.375000 44.656250,52.483000 44.656250,51.375000 L 44.656250,8.6875000 C 44.656252,7.5795000 43.764250,6.6875000 42.656250,6.6875000 L 35.593750,6.6875000 C 35.489999,9.8627000 32.919031,12.406250 29.718750,12.406250 C 26.518469,12.406250 23.916250,9.8627000 23.812500,6.6875000 L 16.250000,6.6875000 z "
       id="path945" />
    <path
       transform="matrix(1.109015,0.000000,0.000000,1.109015,49.00103,-4.575455)"
       style="font-size:12.000000;fill:#7f7f7f;fill-opacity:1.0000000;fill-rule:evenodd;stroke:#333333;stroke-width:1.6906900;stroke-linecap:round;stroke-linejoin:round;stroke-opacity:1.0000000;"
       d="M 9.8889384,15.083948 C 8.7809384,15.083948 7.8889384,15.975948 7.8889384,17.083948 L 7.8889384,21.736332 C 7.8889384,22.844332 8.7809384,23.736332 9.8889384,23.736332 L 14.541322,23.736332 C 15.649322,23.736332 16.541322,22.844332 16.541322,21.736332 L 16.541322,17.083948 C 16.541322,15.975948 15.649322,15.083948 14.541322,15.083948 L 9.8889384,15.083948 z "
       id="path946" />
    <path
       transform="matrix(1.109015,0.000000,0.000000,1.109015,47.87213,-4.575455)"
       style="font-size:12.000000;fill:#7f7f7f;fill-opacity:1.0000000;fill-rule:evenodd;stroke:#333333;stroke-width:1.6906900;stroke-linecap:round;stroke-linejoin:round;stroke-opacity:1.0000000;"
       d="M 10.906866,26.966839 C 9.7988661,26.966839 8.9068661,27.858839 8.9068661,28.966839 L 8.9068661,33.619223 C 8.9068661,34.727223 9.7988661,35.619223 10.906866,35.619223 L 15.559250,35.619223 C 16.667250,35.619223 17.559250,34.727223 17.559250,33.619223 L 17.559250,28.966839 C 17.559250,27.858839 16.667250,26.966839 15.559250,26.966839 L 10.906866,26.966839 z "
       id="path947" />
    <path
       transform="matrix(1.109015,0.000000,0.000000,1.109015,47.87213,-7.397697)"
       style="font-size:12.000000;fill:#7f7f7f;fill-opacity:1.0000000;fill-rule:evenodd;stroke:#333333;stroke-width:1.6906900;stroke-linecap:round;stroke-linejoin:round;stroke-opacity:1.0000000;"
       d="M 10.906866,41.394550 C 9.7988661,41.394550 8.9068661,42.286550 8.9068661,43.394550 L 8.9068661,48.046934 C 8.9068661,49.154934 9.7988661,50.046934 10.906866,50.046934 L 15.559250,50.046934 C 16.667250,50.046934 17.559250,49.154934 17.559250,48.046934 L 17.559250,43.394550 C 17.559250,42.286550 16.667250,41.394550 15.559250,41.394550 L 10.906866,41.394550 z "
       id="path948" />
    <path
       transform="matrix(1.109015,0.000000,0.000000,1.109015,47.87213,-4.575455)"
       style="font-size:12.000000;fill:#7f7f7f;fill-opacity:1.0000000;fill-rule:evenodd;stroke:#333333;stroke-width:1.6906900;stroke-linecap:round;stroke-linejoin:round;stroke-opacity:1.0000000;"
       d="M 42.796631,15.083948 C 41.688631,15.083948 40.796631,15.975948 40.796631,17.083948 L 40.796631,21.736332 C 40.796631,22.844332 41.688631,23.736332 42.796631,23.736332 L 47.449015,23.736332 C 48.557015,23.736332 49.449015,22.844332 49.449015,21.736332 L 49.449015,17.083948 C 49.449015,15.975948 48.557015,15.083948 47.449015,15.083948 L 42.796631,15.083948 z "
       id="path949" />
    <path
       transform="matrix(1.109015,0.000000,0.000000,1.109015,47.87213,-4.575455)"
       style="font-size:12.000000;fill:#7f7f7f;fill-opacity:1.0000000;fill-rule:evenodd;stroke:#333333;stroke-width:1.6906900;stroke-linecap:round;stroke-linejoin:round;stroke-opacity:1.0000000;"
       d="M 42.796631,26.966839 C 41.688631,26.966839 40.796631,27.858839 40.796631,28.966839 L 40.796631,33.619223 C 40.796631,34.727223 41.688631,35.619223 42.796631,35.619223 L 47.449015,35.619223 C 48.557015,35.619223 49.449015,34.727223 49.449015,33.619223 L 49.449015,28.966839 C 49.449015,27.858839 48.557015,26.966839 47.449015,26.966839 L 42.796631,26.966839 z "
       id="path950" />
    <path
       transform="matrix(1.109015,0.000000,0.000000,1.109015,47.87213,-4.575455)"
       style="font-size:12.000000;fill:#7f7f7f;fill-opacity:1.0000000;fill-rule:evenodd;stroke:#333333;stroke-width:1.6906900;stroke-linecap:round;stroke-linejoin:round;stroke-opacity:1.0000000;"
       d="M 42.796631,38.849731 C 41.688631,38.849731 40.796631,39.741731 40.796631,40.849731 L 40.796631,45.502115 C 40.796631,46.610115 41.688631,47.502115 42.796631,47.502115 L 47.449015,47.502115 C 48.557015,47.502115 49.449015,46.610115 49.449015,45.502115 L 49.449015,40.849731 C 49.449015,39.741731 48.557015,38.849731 47.449015,38.849731 L 42.796631,38.849731 z "
       id="path951" />
  </g>
  <g
     id="g1589"
     transform="translate(0.497246,0.000000)">
    <path
       style="font-size:24.000000;fill:#7f7f7f;stroke-width:1.0000000pt;font-family:VAG Rounded Black SSi;"
       d="M 29.015355,43.138472 L 29.015355,33.676634 C 29.015355,33.327957 29.128940,33.037393 29.356108,32.804941 C 29.583277,32.572489 29.876483,32.456263 30.235726,32.456263 C 30.594970,32.456263 30.885534,32.564565 31.107420,32.781167 C 31.334588,32.997770 31.448173,33.296259 31.448173,33.676634 L 31.448173,37.210956 L 35.442114,32.915884 C 35.722113,32.609470 36.036451,32.456263 36.385128,32.456263 C 36.707391,32.456263 36.987389,32.567206 37.225124,32.789092 C 37.468141,33.005695 37.589650,33.290976 37.589650,33.644937 C 37.589650,33.845690 37.526254,34.043802 37.399462,34.239273 C 37.272671,34.429461 37.069275,34.664554 36.789277,34.944552 L 33.722500,37.995480 L 37.470783,41.949799 C 37.687385,42.155835 37.853800,42.356589 37.970025,42.552060 C 38.091534,42.742247 38.152289,42.953567 38.152289,43.186019 C 38.152289,43.555828 38.030780,43.838468 37.787762,44.033939 C 37.544745,44.224127 37.243614,44.319220 36.884371,44.319220 C 36.673051,44.319220 36.480222,44.261108 36.305883,44.144882 C 36.136827,44.028656 35.920225,43.833185 35.656075,43.558470 L 31.448173,38.962267 L 31.448173,43.138472 C 31.448173,43.471300 31.334588,43.751299 31.107420,43.978467 C 30.880251,44.205636 30.589687,44.319220 30.235726,44.319220 C 29.881766,44.319220 29.588560,44.210919 29.356108,43.994316 C 29.128940,43.777714 29.015355,43.492432 29.015355,43.138472 z "
       id="path829" />
    <path
       sodipodi:nodetypes="ccccccccccccccccccccccc"
       style="font-size:12.000000;fill:#7f7f7f;fill-rule:evenodd;stroke:#7f7f7f;stroke-width:0.12750688;stroke-linecap:round;stroke-linejoin:round;stroke-opacity:1.0000000;"
       d="M 23.053010,47.748008 L 24.611833,49.381057 L 27.135628,47.673770 L 29.139826,48.564540 L 29.807890,51.490240 L 31.960539,51.470468 L 32.554379,48.468551 L 34.558575,47.673770 L 37.082371,49.306833 L 38.270045,47.673770 L 35.405844,44.970771 C 28.064625,51.704142 21.720681,41.326367 28.026385,36.984733 L 28.026377,35.425909 L 27.284088,35.797056 L 24.982974,34.334200 L 23.393403,35.639580 L 24.834516,38.098166 L 24.017993,40.102361 L 21.205948,40.569487 L 21.197271,42.700394 L 24.092226,43.442690 L 24.890191,45.391224 L 23.053010,47.748008 z "
       sodipodi:stroke-cmyk="(0.0000000 0.0000000 0.0000000 0.50000000)"
       id="path705" />
  </g>
  <g
     id="g1597"
     transform="translate(0.358442,0.000000)">
    <path
       style="fill:none;fill-opacity:0.75000000;fill-rule:evenodd;stroke:#cccccc;stroke-width:2.5000000;stroke-linecap:butt;stroke-linejoin:round;stroke-opacity:1.0000000;"
       d="M 22.139924,15.083948 L 22.139924,20.809791 L 27.993010,20.809791"
       sodipodi:nodetypes="ccc"
       sodipodi:stroke-cmyk="(0.0000000 0.0000000 0.0000000 0.20000000)"
       id="path836" />
    <path
       style="fill:none;fill-opacity:0.75000000;fill-rule:evenodd;stroke:#cccccc;stroke-width:2.5000000;stroke-linecap:butt;stroke-linejoin:round;stroke-opacity:1.0000000;"
       d="M 37.605000,15.338430 L 37.605000,20.809791 L 31.751920,20.809791"
       sodipodi:nodetypes="ccc"
       sodipodi:stroke-cmyk="(0.0000000 0.0000000 0.0000000 0.20000000)"
       id="path837" />
  </g>
</svg>
