<?xml version="1.0" encoding="UTF-8" standalone="no"?>
<!DOCTYPE svg PUBLIC "-//W3C//DTD SVG 20010904//EN"
"http://www.w3.org/TR/2001/REC-SVG-20010904/DTD/svg10.dtd">
<svg
   sodipodi:docname="dlgedit.svg"
   height="60.0000000"
   sodipodi:version="0.32"
   width="60.0000000"
   _SVGFile__filename="scalable/apps/dlgedit.svg"
   version="1.0"
   y="0"
   x="0"
   inkscape:version="0.39"
   id="svg1"
   sodipodi:docbase="/home/danny/work/flat/newscale/apps"
   xmlns="http://www.w3.org/2000/svg"
   xmlns:cc="http://web.resource.org/cc/"
   xmlns:inkscape="http://www.inkscape.org/namespaces/inkscape"
   xmlns:sodipodi="http://sodipodi.sourceforge.net/DTD/sodipodi-0.dtd"
   xmlns:rdf="http://www.w3.org/1999/02/22-rdf-syntax-ns#"
   xmlns:dc="http://purl.org/dc/elements/1.1/"
   xmlns:xlink="http://www.w3.org/1999/xlink">
  <sodipodi:namedview
     bordercolor="#666666"
     inkscape:pageshadow="2"
     inkscape:window-y="0"
     snaptoguides="true"
     pagecolor="#ffffff"
     inkscape:window-height="685"
     inkscape:zoom="4.9119413"
     inkscape:window-x="0"
     borderopacity="1.0"
     inkscape:cx="37.390743"
     inkscape:cy="37.172880"
     inkscape:window-width="1016"
     inkscape:pageopacity="0.0"
     id="base"
     showguides="true" />
  <defs
     id="defs3">
    <linearGradient
       id="linearGradient1160">
      <stop
         style="stop-color:#000;stop-opacity:1;"
         id="stop1161"
         offset="0" />
      <stop
         style="stop-color:#fff;stop-opacity:1;"
         id="stop1162"
         offset="1" />
    </linearGradient>
    <linearGradient
       xlink:href="#linearGradient1160"
       id="linearGradient1163" />
  </defs>
  <g
     id="g1563"
     transform="translate(-7.290000e-2,-0.412235)">
    <rect
       style="font-size:12.000000;fill:#cccccc;fill-opacity:1.0000000;fill-rule:evenodd;stroke:none;stroke-width:2.7315099;stroke-linecap:round;stroke-linejoin:round;"
       rx="2.3673460"
       transform="matrix(1.000000,0.000000,0.000000,1.308862,0.000000,-8.484674)"
       height="39.617451"
       width="52.184277"
       y="9.9924889"
       x="3.9588070"
       id="rect987"
       ry="2.3673460" />
    <path
       style="font-size:12.000000;fill:#7f7f7f;fill-rule:evenodd;stroke:none;stroke-width:3.1250000;stroke-linecap:round;stroke-linejoin:round;stroke-miterlimit:4.0000000;"
       d="M 6.2799752,4.4817147 C 4.9940482,4.4817147 3.9588082,5.5169555 3.9588082,6.8028824 L 3.9588082,10.882279 C 3.9588082,12.168206 4.9940482,13.203447 6.2799752,13.203447 L 53.821915,13.203447 C 55.107842,13.203447 56.143083,12.168206 56.143083,10.882279 L 56.143083,6.8028824 C 56.143083,5.5169555 55.107842,4.4817147 53.821915,4.4817147 L 6.2799752,4.4817147 z "
       id="path988"
       sodipodi:nodetypes="ccccccccc" />
    <path
       style="font-size:12.000000;fill:none;fill-opacity:0.75000000;fill-rule:evenodd;stroke:#333333;stroke-width:1.8750000;stroke-linecap:round;stroke-linejoin:round;stroke-opacity:1.0000000;"
       d="M 53.028658,7.6135273 L 50.322628,10.319557 M 50.259697,7.5505963 L 53.028658,10.319557"
       sodipodi:nodetypes="cccc"
       sodipodi:stroke-cmyk="(0.0000000 0.0000000 0.0000000 0.80000001)"
       id="path989" />
    <path
       transform="matrix(1.000000,0.000000,0.000000,1.308862,0.000000,-8.484674)"
       style="font-size:12.000000;fill:none;fill-opacity:1.0000000;fill-rule:evenodd;stroke:#333333;stroke-width:2.7315099;stroke-linecap:round;stroke-linejoin:round;"
       d="M 6.3261530,9.9924889 C 5.0146433,9.9924889 3.9588070,11.048325 3.9588070,12.359835 L 3.9588070,47.242594 C 3.9588070,48.554103 5.0146433,49.609940 6.3261530,49.609940 L 53.775738,49.609940 C 55.087247,49.609940 56.143084,48.554103 56.143084,47.242594 L 56.143084,12.359835 C 56.143084,11.048325 55.087247,9.9924889 53.775738,9.9924889 L 6.3261530,9.9924889 z "
       id="rect1561" />
    <path
       style="font-size:12.000000;fill:none;fill-rule:evenodd;stroke:#333333;stroke-width:3.1250000;stroke-linecap:round;stroke-linejoin:round;stroke-miterlimit:4.0000000;stroke-opacity:1.0000000;"
       d="M 3.9588081,10.882279 C 3.9588081,12.168206 4.9940481,13.203447 6.2799751,13.203447 L 53.826204,13.203447 C 55.112131,13.203447 56.147372,12.168206 56.147372,10.882279"
       id="rect1558"
       sodipodi:nodetypes="cccc"
       sodipodi:stroke-cmyk="(0.0000000 0.0000000 0.0000000 0.80000001)" />
  </g>
  <g
     id="g1617"
     transform="translate(-7.075545e-2,-0.508964)">
    <rect
       style="fill:#b3b3b3;fill-opacity:1.0000000;fill-rule:evenodd;stroke:none;stroke-width:1.0000000pt;stroke-opacity:1.0000000;"
       rx="2.9688456"
       transform="matrix(0.553823,0.000000,0.000000,0.701334,9.310436,14.57151)"
       height="37.663319"
       width="75.326637"
       y="10.884997"
       x="0.0000000"
       id="rect986"
       ry="2.9688456" />
    <path
       id="path838"
       style="font-size:12.000000;font-weight:900;fill:#333333;stroke-width:1.0000000pt;font-family:VAG Rounded Black SSi;"
       d="M 37.225611,32.203121 L 37.225611,39.291541 C 37.225611,40.149717 37.098578,40.883683 36.844513,41.493439 C 36.590448,42.103196 36.237579,42.600035 35.785907,42.983956 C 35.334236,43.373523 34.811991,43.655817 34.219172,43.830840 C 33.631999,44.011509 32.996835,44.101843 32.313682,44.101843 C 31.777322,44.101843 31.192973,44.031270 30.560632,43.890123 C 29.933938,43.748974 29.394755,43.525961 28.943083,43.221084 C 28.497057,42.916205 28.274044,42.532284 28.274044,42.069321 C 28.274044,41.775735 28.392609,41.501909 28.629736,41.247844 C 28.866864,40.999425 29.123752,40.875214 29.400400,40.875214 C 29.598007,40.875214 29.885948,40.965549 30.264222,41.146217 C 30.648143,41.326886 30.964313,41.462388 31.212732,41.552722 C 31.466798,41.643056 31.816843,41.688223 32.262869,41.688223 C 33.070232,41.688223 33.646113,41.482148 33.990512,41.069998 C 34.340558,40.663494 34.515581,40.059383 34.515581,39.257665 L 34.481705,39.257665 C 34.001805,39.963403 33.183150,40.316271 32.025741,40.316271 C 31.190148,40.316271 30.475944,40.098905 29.883125,39.664170 C 29.290305,39.223791 28.844281,38.642263 28.545047,37.919589 C 28.251461,37.191268 28.104668,36.400843 28.104668,35.548313 C 28.104668,34.656262 28.288159,33.831961 28.655142,33.075411 C 29.027772,32.313216 29.533079,31.714751 30.171065,31.280017 C 30.809052,30.839637 31.511966,30.619447 32.279807,30.619447 C 32.793583,30.619447 33.231140,30.698490 33.592477,30.856575 C 33.959460,31.014660 34.298214,31.282840 34.608739,31.661115 C 34.710364,31.429633 34.868449,31.229204 35.082994,31.059827 C 35.297537,30.884804 35.560072,30.797293 35.870596,30.797293 C 36.265808,30.797293 36.590448,30.932794 36.844513,31.203797 C 37.098578,31.469154 37.225611,31.802262 37.225611,32.203121 z M 34.515581,35.548313 C 34.515581,34.887744 34.351849,34.340092 34.024388,33.905358 C 33.696926,33.464978 33.242431,33.244788 32.660905,33.244788 C 32.085023,33.244788 31.630529,33.464978 31.297421,33.905358 C 30.969960,34.345738 30.806228,34.893389 30.806228,35.548313 C 30.806228,35.988693 30.879625,36.392375 31.026418,36.759358 C 31.173212,37.120695 31.382110,37.402989 31.653113,37.606241 C 31.929761,37.809493 32.265692,37.911120 32.660905,37.911120 C 33.050472,37.911120 33.383580,37.809493 33.660228,37.606241 C 33.942522,37.402989 34.154244,37.126341 34.295391,36.776296 C 34.442184,36.420604 34.515581,36.011277 34.515581,35.548313 z M 24.564692,38.893505 L 24.564692,28.146545 C 24.564692,27.740041 24.691725,27.401287 24.945790,27.130284 C 25.199855,26.859281 25.521670,26.723780 25.911238,26.723780 C 26.306450,26.723780 26.631090,26.859281 26.885155,27.130284 C 27.139220,27.401287 27.266253,27.740041 27.266253,28.146545 L 27.266253,38.893505 C 27.266253,39.294364 27.139220,39.633118 26.885155,39.909766 C 26.636735,40.180769 26.312096,40.316271 25.911238,40.316271 C 25.516025,40.316271 25.191386,40.180769 24.937322,39.909766 C 24.688902,39.633118 24.564692,39.294364 24.564692,38.893505 z M 23.412929,28.146545 L 23.412929,38.893505 C 23.412929,39.300010 23.285896,39.638763 23.031831,39.909766 C 22.777766,40.180769 22.453128,40.316271 22.057915,40.316271 C 21.747390,40.316271 21.484857,40.231583 21.270312,40.062206 C 21.061414,39.892830 20.903329,39.689577 20.796057,39.452449 C 20.491179,39.825079 20.152426,40.090435 19.779796,40.248520 C 19.412813,40.412252 18.975257,40.494116 18.467126,40.494116 C 17.693638,40.494116 16.987902,40.276750 16.349915,39.842015 C 15.717575,39.401636 15.215090,38.803171 14.842462,38.046622 C 14.475478,37.284426 14.291987,36.451656 14.291987,35.548313 C 14.291987,34.656262 14.475478,33.831961 14.842462,33.075411 C 15.215090,32.313216 15.720397,31.714751 16.358385,31.280017 C 16.996370,30.839637 17.699284,30.619447 18.467126,30.619447 C 18.997840,30.619447 19.429751,30.687198 19.762858,30.822699 C 20.101612,30.958201 20.414959,31.147338 20.702900,31.390112 L 20.702900,28.146545 C 20.702900,27.745687 20.829933,27.409756 21.083998,27.138753 C 21.343708,26.862104 21.668348,26.723780 22.057915,26.723780 C 22.447481,26.723780 22.769298,26.859281 23.023363,27.130284 C 23.283073,27.401287 23.412929,27.740041 23.412929,28.146545 z M 18.848224,33.244788 C 18.272342,33.244788 17.817847,33.464978 17.484741,33.905358 C 17.157278,34.345738 16.993548,34.893389 16.993548,35.548313 C 16.993548,35.966110 17.066944,36.355676 17.213738,36.717013 C 17.360530,37.072705 17.572251,37.354999 17.848901,37.563897 C 18.131195,37.772796 18.464303,37.877244 18.848224,37.877244 C 19.429751,37.877244 19.884246,37.657055 20.211707,37.216675 C 20.539169,36.770649 20.702900,36.214529 20.702900,35.548313 C 20.702900,34.887744 20.539169,34.340092 20.211707,33.905358 C 19.884246,33.464978 19.429751,33.244788 18.848224,33.244788 z " />
    <path
       sodipodi:nodetypes="cccccc"
       style="fill:none;fill-opacity:0.75000000;fill-rule:evenodd;stroke:#333333;stroke-width:2.5000000;stroke-linecap:round;stroke-linejoin:round;"
       d="M 41.759414,26.852470 L 46.770951,26.852470 M 44.384505,26.852470 L 44.384505,43.843583 M 41.759414,44.302801 L 46.890273,44.302801"
       sodipodi:stroke-cmyk="(0.0000000 0.0000000 0.0000000 0.80000001)"
       id="path862"
       transform="translate(7.801488e-2,0.000000)" />
    <path
       style="fill:none;fill-opacity:0.75000000;fill-rule:evenodd;stroke:#333333;stroke-width:3.3781364;stroke-linecap:round;stroke-linejoin:round;stroke-opacity:1.0000000;"
       d="M 57.767387,12.920852 L 2.5448188,12.920852 L 2.5448188,49.057279 L 58.021869,49.057279"
       sodipodi:nodetypes="cccc"
       transform="matrix(0.740053,0.000000,0.000000,0.740053,7.639666,12.47930)"
       sodipodi:stroke-cmyk="(0.0000000 0.0000000 0.0000000 0.80000001)"
       id="path987" />
  </g>
  <metadata
     id="metadata18">
    <rdf:RDF
       id="RDF19">
      <cc:Work
         rdf:about=""
         id="Work20">
        <dc:title
           id="title21">Part of the Flat Icon Collection (Thu Aug 26 14:31:40 2004)</dc:title>
        <dc:description
           id="description23" />
        <dc:subject
           id="subject24">
          <rdf:Bag
             id="Bag25">
            <rdf:li
               id="li26" />
          </rdf:Bag>
        </dc:subject>
        <dc:publisher
           id="publisher27">
          <cc:Agent
             rdf:about=""
             id="Agent28">
            <dc:title
               id="title29" />
          </cc:Agent>
        </dc:publisher>
        <dc:creator
           id="creator30">
          <cc:Agent
             rdf:about=""
             id="Agent31">
            <dc:title
               id="title32">Danny Allen</dc:title>
          </cc:Agent>
        </dc:creator>
        <dc:rights
           id="rights34">
          <cc:Agent
             rdf:about=""
             id="Agent35">
            <dc:title
               id="title36">Danny Allen</dc:title>
          </cc:Agent>
        </dc:rights>
        <dc:date
           id="date38" />
        <dc:format
           id="format39">image/svg+xml</dc:format>
        <dc:type
           rdf:resource="http://purl.org/dc/dcmitype/StillImage"
           id="type41" />
        <cc:license
           rdf:resource="http://creativecommons.org/licenses/LGPL/2.1/"
           id="license42">
          <dc:date
             id="date43" />
        </cc:license>
        <dc:language
           id="language44">en</dc:language>
      </cc:Work>
    </rdf:RDF>
  </metadata>
</svg>
