<?xml version="1.0" encoding="UTF-8" standalone="no"?>
<!DOCTYPE svg PUBLIC "-//W3C//DTD SVG 20010904//EN"
"http://www.w3.org/TR/2001/REC-SVG-20010904/DTD/svg10.dtd">
<svg
   sodipodi:docname="filetypes.svg"
   height="60.0000000"
   sodipodi:version="0.32"
   width="60.0000000"
   _SVGFile__filename="scalable/apps/filetypes.svg"
   version="1.0"
   y="0"
   x="0"
   inkscape:version="0.39"
   id="svg1"
   sodipodi:docbase="/home/danny/work/flat/newscale/apps"
   xmlns="http://www.w3.org/2000/svg"
   xmlns:cc="http://web.resource.org/cc/"
   xmlns:inkscape="http://www.inkscape.org/namespaces/inkscape"
   xmlns:sodipodi="http://sodipodi.sourceforge.net/DTD/sodipodi-0.dtd"
   xmlns:rdf="http://www.w3.org/1999/02/22-rdf-syntax-ns#"
   xmlns:dc="http://purl.org/dc/elements/1.1/"
   xmlns:xlink="http://www.w3.org/1999/xlink">
  <sodipodi:namedview
     bordercolor="#666666"
     inkscape:pageshadow="2"
     inkscape:window-y="0"
     pagecolor="#ffffff"
     inkscape:window-height="669"
     inkscape:zoom="6.9465337"
     inkscape:window-x="0"
     borderopacity="1.0"
     inkscape:cx="32.764774"
     inkscape:cy="31.304188"
     inkscape:window-width="1016"
     inkscape:pageopacity="0.0"
     id="base" />
  <defs
     id="defs3">
    <linearGradient
       id="linearGradient900">
      <stop
         style="stop-color:#000;stop-opacity:1;"
         id="stop901"
         offset="0" />
      <stop
         style="stop-color:#fff;stop-opacity:1;"
         id="stop902"
         offset="1" />
    </linearGradient>
    <linearGradient
       xlink:href="#linearGradient900"
       id="linearGradient903" />
    <linearGradient
       xlink:href="#linearGradient900"
       id="linearGradient904" />
    <linearGradient
       xlink:href="#linearGradient900"
       id="linearGradient905" />
    <linearGradient
       xlink:href="#linearGradient900"
       id="linearGradient906" />
    <linearGradient
       xlink:href="#linearGradient900"
       id="linearGradient907" />
  </defs>
  <g
     id="g1593"
     transform="translate(-0.462036,-0.240709)">
    <path
       transform="matrix(0.776695,0.000000,0.000000,0.776695,-0.563780,-0.736099)"
       style="font-size:12.000000;fill:#b3b3b3;fill-rule:evenodd;stroke:#4c4c4c;stroke-width:3.2187667;stroke-linejoin:round;stroke-opacity:1.0000000;"
       d="M 6.6785922,5.1165123 C 5.5705922,5.1165123 4.6785922,6.0085123 4.6785922,7.1165123 L 4.6785922,53.501354 C 4.6785922,54.609354 5.5705922,55.501354 6.6785922,55.501354 L 53.423324,55.501354 C 54.531324,55.501354 55.423324,54.609354 55.423324,53.501354 L 55.423324,7.1165123 C 55.423324,6.0085123 54.531324,5.1165123 53.423324,5.1165123 L 6.6785922,5.1165123 z "
       id="rect812" />
    <path
       style="fill:none;fill-opacity:0.75000000;fill-rule:evenodd;stroke:#4c4c4c;stroke-width:2.5000000;stroke-linecap:round;stroke-linejoin:round;stroke-opacity:1.0000000;"
       d="M 7.5424770,11.126702 L 37.451770,11.126702"
       sodipodi:stroke-cmyk="(0.0000000 0.0000000 0.0000000 0.69999999)"
       id="path842"
       transform="translate(0.301992,-3.647967e-2)" />
    <path
       style="fill:none;fill-opacity:0.75000000;fill-rule:evenodd;stroke:#4c4c4c;stroke-width:2.5000000;stroke-linecap:round;stroke-linejoin:round;stroke-opacity:1.0000000;"
       d="M 7.5424770,18.936352 L 37.451770,18.936352"
       sodipodi:stroke-cmyk="(0.0000000 0.0000000 0.0000000 0.69999999)"
       id="path846"
       transform="translate(0.301992,-3.647967e-2)" />
    <path
       style="fill:none;fill-opacity:0.75000000;fill-rule:evenodd;stroke:#4c4c4c;stroke-width:2.5000000;stroke-linecap:round;stroke-linejoin:round;stroke-opacity:1.0000000;"
       d="M 7.5424770,26.746003 L 37.451770,26.746003"
       sodipodi:stroke-cmyk="(0.0000000 0.0000000 0.0000000 0.69999999)"
       id="path847"
       transform="translate(0.301992,-3.647967e-2)" />
    <path
       style="fill:none;fill-opacity:0.75000000;fill-rule:evenodd;stroke:#4c4c4c;stroke-width:2.5000000;stroke-linecap:round;stroke-linejoin:round;stroke-opacity:1.0000000;"
       d="M 7.4975441,34.555653 L 24.079460,34.555653"
       sodipodi:stroke-cmyk="(0.0000000 0.0000000 0.0000000 0.69999999)"
       id="path848"
       transform="translate(0.301992,-3.647967e-2)" />
    <g
       id="g1581"
       transform="translate(0.359892,0.572234)">
      <path
         transform="matrix(0.773279,0.000000,0.000000,0.773279,-11.69984,17.43241)"
         style="font-size:12.000000;fill:#b3b3b3;fill-rule:evenodd;stroke:#333333;stroke-width:3.2329857;stroke-linejoin:round;"
         d="M 40.868305,1.1577036 C 39.760305,1.1577036 38.868305,2.0497036 38.868305,3.1577036 L 38.868305,49.542546 C 38.868305,50.650546 39.760305,51.542546 40.868305,51.542546 L 87.613037,51.542546 C 88.721037,51.542546 89.613037,50.650546 89.613037,49.542546 L 89.613037,3.1577036 C 89.613037,2.0497036 88.721037,1.1577036 87.613037,1.1577036 L 40.868305,1.1577036 z "
         id="rect932" />
      <path
         sodipodi:nodetypes="cc"
         style="fill:none;fill-opacity:0.75000000;fill-rule:evenodd;stroke:#333333;stroke-width:2.5000000;stroke-linecap:round;stroke-linejoin:round;stroke-dasharray:2.5000000 2.5000000 ;stroke-dashoffset:0.0000000;"
         d="M 41.904622,18.524325 C 44.895567,19.397848 47.825364,27.271790 47.650659,28.320018"
         sodipodi:stroke-cmyk="(0.0000000 0.0000000 0.0000000 0.80000001)"
         id="path852" />
      <path
         sodipodi:nodetypes="cc"
         style="fill:none;fill-opacity:0.75000000;fill-rule:evenodd;stroke:#333333;stroke-width:2.5000000;stroke-linecap:round;stroke-linejoin:round;stroke-dasharray:2.5000000 2.5000000 ;stroke-dashoffset:0.0000000;"
         d="M 30.468450,19.228384 C 26.424035,22.460422 24.502282,34.522037 25.113749,35.220856"
         sodipodi:stroke-cmyk="(0.0000000 0.0000000 0.0000000 0.80000001)"
         id="path853" />
      <rect
         style="fill:#cccccc;fill-opacity:1.0000000;fill-rule:evenodd;stroke:none;stroke-width:2.5000002;stroke-opacity:1.0000000;"
         rx="1.2357615"
         transform="matrix(0.995797,-9.158677e-2,9.158677e-2,0.995797,0.000000,0.000000)"
         height="22.637465"
         width="31.354195"
         y="33.129436"
         x="18.426847"
         id="rect856"
         ry="1.2357615" />
      <path
         style="font-size:12.000000;fill:#7f7f7f;fill-rule:evenodd;stroke:#333333;stroke-width:1.2500000;stroke-linecap:round;stroke-linejoin:round;"
         d="M 34.429369,46.159026 C 32.055976,47.738647 30.929345,50.524787 30.196544,53.365757 L 48.030441,51.610412 C 46.847428,49.024943 45.339447,46.526313 42.899405,45.325342 C 40.455252,45.459073 37.392186,45.867404 34.429369,46.159026 z "
         id="path849" />
      <path
         transform="matrix(0.609511,-5.999268e-2,5.999268e-2,0.609511,24.42787,27.87333)"
         style="font-size:12.000000;fill:#cccccc;fill-opacity:1.0000000;fill-rule:evenodd;stroke:#333333;stroke-width:2.0409617;stroke-linecap:round;stroke-linejoin:round;"
         d="M 31.850417,22.301342 C 31.850417,29.105455 26.328239,34.627633 19.524126,34.627633 C 12.720013,34.627633 7.1978350,29.105455 7.1978350,22.301342 C 7.1978350,15.497229 12.720013,9.9750509 19.524126,9.9750509 C 26.328239,9.9750509 31.850417,15.497229 31.850417,22.301342 z "
         id="path716" />
      <path
         transform="matrix(0.995797,-9.158677e-2,9.158677e-2,0.995797,0.000000,0.000000)"
         style="fill:none;fill-rule:evenodd;stroke:#333333;stroke-width:1.8750002;stroke-linejoin:round;"
         d="M 19.662609,33.129436 C 18.977997,33.129436 18.426847,33.680586 18.426847,34.365198 L 18.426847,54.531139 C 18.426847,55.215751 18.977997,55.766901 19.662609,55.766901 L 48.545281,55.766901 C 49.229892,55.766901 49.781042,55.215751 49.781042,54.531139 L 49.781042,34.365198 C 49.781042,33.680586 49.229892,33.129436 48.545281,33.129436 L 19.662609,33.129436 z "
         id="rect859" />
    </g>
  </g>
  <metadata
     id="metadata24">
    <rdf:RDF
       id="RDF25">
      <cc:Work
         rdf:about=""
         id="Work26">
        <dc:title
           id="title27">Part of the Flat Icon Collection (Thu Aug 26 14:31:40 2004)</dc:title>
        <dc:description
           id="description29" />
        <dc:subject
           id="subject30">
          <rdf:Bag
             id="Bag31">
            <rdf:li
               id="li32" />
          </rdf:Bag>
        </dc:subject>
        <dc:publisher
           id="publisher33">
          <cc:Agent
             rdf:about=""
             id="Agent34">
            <dc:title
               id="title35" />
          </cc:Agent>
        </dc:publisher>
        <dc:creator
           id="creator36">
          <cc:Agent
             rdf:about=""
             id="Agent37">
            <dc:title
               id="title38">Danny Allen</dc:title>
          </cc:Agent>
        </dc:creator>
        <dc:rights
           id="rights40">
          <cc:Agent
             rdf:about=""
             id="Agent41">
            <dc:title
               id="title42">Danny Allen</dc:title>
          </cc:Agent>
        </dc:rights>
        <dc:date
           id="date44" />
        <dc:format
           id="format45">image/svg+xml</dc:format>
        <dc:type
           rdf:resource="http://purl.org/dc/dcmitype/StillImage"
           id="type47" />
        <cc:license
           rdf:resource="http://creativecommons.org/licenses/LGPL/2.1/"
           id="license48">
          <dc:date
             id="date49" />
        </cc:license>
        <dc:language
           id="language50">en</dc:language>
      </cc:Work>
    </rdf:RDF>
  </metadata>
</svg>
