<?xml version="1.0" encoding="UTF-8" standalone="no"?>
<!DOCTYPE svg PUBLIC "-//W3C//DTD SVG 20010904//EN"
"http://www.w3.org/TR/2001/REC-SVG-20010904/DTD/svg10.dtd">
<svg
   sodipodi:docname="flashkard.svg"
   height="60.0000000"
   sodipodi:version="0.32"
   width="60.0000000"
   _SVGFile__filename="scalable/apps/flashkard.svg"
   version="1.0"
   y="0"
   x="0"
   inkscape:version="0.39"
   id="svg1"
   sodipodi:docbase="/home/danny/work/flat/newscale/apps"
   xmlns="http://www.w3.org/2000/svg"
   xmlns:cc="http://web.resource.org/cc/"
   xmlns:inkscape="http://www.inkscape.org/namespaces/inkscape"
   xmlns:sodipodi="http://sodipodi.sourceforge.net/DTD/sodipodi-0.dtd"
   xmlns:rdf="http://www.w3.org/1999/02/22-rdf-syntax-ns#"
   xmlns:dc="http://purl.org/dc/elements/1.1/"
   xmlns:xlink="http://www.w3.org/1999/xlink">
  <sodipodi:namedview
     bordercolor="#666666"
     inkscape:pageshadow="2"
     inkscape:window-y="0"
     pagecolor="#ffffff"
     inkscape:window-height="685"
     inkscape:zoom="6.9465336"
     inkscape:window-x="0"
     borderopacity="1.0"
     inkscape:cx="46.481715"
     inkscape:cy="15.336818"
     inkscape:window-width="1016"
     inkscape:pageopacity="0.0"
     id="base" />
  <defs
     id="defs3">
    <linearGradient
       id="linearGradient772">
      <stop
         style="stop-color:#000;stop-opacity:1;"
         id="stop773"
         offset="0" />
      <stop
         style="stop-color:#fff;stop-opacity:1;"
         id="stop774"
         offset="1" />
    </linearGradient>
    <linearGradient
       xlink:href="#linearGradient772"
       id="linearGradient775" />
  </defs>
  <g
     id="g1567"
     transform="translate(0.308404,-3.382648e-3)">
    <rect
       style="fill:#7f7f7f;fill-opacity:1.0000000;fill-rule:evenodd;stroke:none;stroke-width:3.1250000;stroke-opacity:1.0000000;"
       rx="1.7566539"
       height="26.092150"
       width="41.567493"
       y="6.0162416"
       x="4.1387548"
       id="rect848"
       ry="1.7566539" />
    <path
       style="fill:#cccccc;fill-opacity:1.0000000;fill-rule:evenodd;stroke:#cccccc;stroke-width:1.8750000;stroke-linecap:round;stroke-linejoin:round;stroke-opacity:1.0000000;"
       d="M 24.437500,6.9062500 L 26.156250,15.125000 L 12.468750,14.593750 L 37.375000,38.187500 L 24.437500,17.968750 L 36.468750,19.750000 L 28.125000,6.9062500 L 24.437500,6.9062500 z "
       sodipodi:stroke-cmyk="(0.0000000 0.0000000 0.0000000 0.20000000)"
       id="path836" />
    <path
       style="fill:none;fill-opacity:1.0000000;fill-rule:evenodd;stroke:#4c4c4c;stroke-width:3.1250000;stroke-linejoin:round;stroke-opacity:1.0000000;"
       d="M 5.8954090,6.0162416 C 4.9222230,6.0162416 4.1387550,6.7997092 4.1387550,7.7728955 L 4.1387550,30.351737 C 4.1387550,31.324924 4.9222230,32.108391 5.8954090,32.108391 L 43.949594,32.108391 C 44.922781,32.108391 45.706248,31.324924 45.706248,30.351737 L 45.706248,7.7728955 C 45.706248,6.7997092 44.922781,6.0162416 43.949594,6.0162416 L 5.8954090,6.0162416 z "
       id="rect867" />
    <path
       style="fill:#b3b3b3;fill-opacity:1.0000000;fill-rule:evenodd;stroke:#333333;stroke-width:3.1250000;stroke-linejoin:round;stroke-opacity:1.0000000;"
       d="M 15.895409,28.516239 C 14.922222,28.516239 14.138755,29.299707 14.138755,30.272893 L 14.138755,52.851735 C 14.138755,53.824921 14.922222,54.608389 15.895409,54.608389 L 53.949594,54.608389 C 54.922781,54.608389 55.706248,53.824921 55.706248,52.851735 L 55.706248,30.272893 C 55.706248,29.299707 54.922781,28.516239 53.949594,28.516239 L 15.895409,28.516239 z "
       id="rect849" />
    <g
       id="g1564"
       transform="translate(7.584550e-2,0.000000)">
      <path
         style="font-size:24.000000;fill:#333333;stroke-width:1.0000000pt;font-family:VAG Rounded Black SSi;"
         d="M 34.135287,43.109891 L 34.135287,33.739390 C 34.135287,33.394079 34.247775,33.106319 34.472751,32.876110 C 34.697726,32.645903 34.988103,32.530799 35.343877,32.530799 C 35.699653,32.530799 35.987413,32.638055 36.207157,32.852567 C 36.432132,33.067078 36.544621,33.362686 36.544621,33.739390 L 36.544621,37.239593 L 40.500008,32.985982 C 40.777304,32.682527 41.088607,32.530799 41.433918,32.530799 C 41.753071,32.530799 42.030366,32.640671 42.265806,32.860415 C 42.506477,33.074926 42.626814,33.357454 42.626814,33.707998 C 42.626814,33.906813 42.564029,34.103014 42.438461,34.296597 C 42.312894,34.484949 42.111462,34.717773 41.834166,34.995068 L 38.796994,38.016545 L 42.509093,41.932692 C 42.723606,42.136740 42.888414,42.335556 43.003517,42.529140 C 43.123853,42.717491 43.184021,42.926772 43.184021,43.156979 C 43.184021,43.523218 43.063685,43.803130 42.823013,43.996714 C 42.582341,44.185066 42.284118,44.279241 41.928342,44.279241 C 41.719063,44.279241 41.528095,44.221690 41.355439,44.106586 C 41.188016,43.991483 40.973503,43.797898 40.711903,43.525835 L 36.544621,38.973999 L 36.544621,43.109891 C 36.544621,43.439506 36.432132,43.716803 36.207157,43.941778 C 35.982181,44.166754 35.694421,44.279241 35.343877,44.279241 C 34.993334,44.279241 34.702958,44.171986 34.472751,43.957475 C 34.247775,43.742962 34.135287,43.460434 34.135287,43.109891 z "
         id="path829" />
      <path
         sodipodi:nodetypes="ccccccccccccccccccccccc"
         style="font-size:12.000000;fill:#333333;fill-rule:evenodd;stroke:none;stroke-width:0.12627605;stroke-linecap:round;stroke-linejoin:round;"
         d="M 28.230497,47.674931 L 29.774273,49.292217 L 32.273704,47.601411 L 34.258557,48.483580 L 34.920171,51.381039 L 37.052042,51.361458 L 37.640149,48.388519 L 39.624998,47.601411 L 42.124432,49.218709 L 43.300641,47.601411 L 40.464088,44.924502 C 33.193735,51.592876 26.911030,41.315279 33.155863,37.015555 L 33.155855,35.471778 L 32.420733,35.839343 L 30.141830,34.390609 L 28.567605,35.683387 L 29.994805,38.118240 L 29.186166,40.103089 L 26.401265,40.565705 L 26.392671,42.676042 L 29.259682,43.411173 L 30.049944,45.340897 L 28.230497,47.674931 z "
         id="path705" />
    </g>
  </g>
  <metadata
     id="metadata14">
    <rdf:RDF
       id="RDF15">
      <cc:Work
         rdf:about=""
         id="Work16">
        <dc:title
           id="title17">Part of the Flat Icon Collection (Thu Aug 26 14:31:40 2004)</dc:title>
        <dc:description
           id="description19" />
        <dc:subject
           id="subject20">
          <rdf:Bag
             id="Bag21">
            <rdf:li
               id="li22" />
          </rdf:Bag>
        </dc:subject>
        <dc:publisher
           id="publisher23">
          <cc:Agent
             rdf:about=""
             id="Agent24">
            <dc:title
               id="title25" />
          </cc:Agent>
        </dc:publisher>
        <dc:creator
           id="creator26">
          <cc:Agent
             rdf:about=""
             id="Agent27">
            <dc:title
               id="title28">Danny Allen</dc:title>
          </cc:Agent>
        </dc:creator>
        <dc:rights
           id="rights30">
          <cc:Agent
             rdf:about=""
             id="Agent31">
            <dc:title
               id="title32">Danny Allen</dc:title>
          </cc:Agent>
        </dc:rights>
        <dc:date
           id="date34" />
        <dc:format
           id="format35">image/svg+xml</dc:format>
        <dc:type
           rdf:resource="http://purl.org/dc/dcmitype/StillImage"
           id="type37" />
        <cc:license
           rdf:resource="http://creativecommons.org/licenses/LGPL/2.1/"
           id="license38">
          <dc:date
             id="date39" />
        </cc:license>
        <dc:language
           id="language40">en</dc:language>
      </cc:Work>
    </rdf:RDF>
  </metadata>
</svg>
