<?xml version="1.0" encoding="UTF-8" standalone="no"?>
<!DOCTYPE svg PUBLIC "-//W3C//DTD SVG 20010904//EN"
"http://www.w3.org/TR/2001/REC-SVG-20010904/DTD/svg10.dtd">
<svg
   sodipodi:docname="gnumeric.svg"
   height="60.0000000"
   sodipodi:version="0.32"
   width="60.0000000"
   _SVGFile__filename="scalable/apps/gnumeric.svg"
   version="1.0"
   y="0"
   x="0"
   inkscape:version="0.39"
   id="svg1"
   sodipodi:docbase="/home/danny/work/flat/newscale/apps"
   xmlns="http://www.w3.org/2000/svg"
   xmlns:cc="http://web.resource.org/cc/"
   xmlns:inkscape="http://www.inkscape.org/namespaces/inkscape"
   xmlns:sodipodi="http://sodipodi.sourceforge.net/DTD/sodipodi-0.dtd"
   xmlns:rdf="http://www.w3.org/1999/02/22-rdf-syntax-ns#"
   xmlns:dc="http://purl.org/dc/elements/1.1/"
   xmlns:xlink="http://www.w3.org/1999/xlink">
  <sodipodi:namedview
     bordercolor="#666666"
     inkscape:pageshadow="2"
     inkscape:window-y="0"
     snaptoguides="true"
     pagecolor="#ffffff"
     inkscape:window-height="685"
     inkscape:zoom="6.9465337"
     inkscape:window-x="0"
     borderopacity="1.0"
     inkscape:cx="37.697540"
     inkscape:cy="29.939947"
     inkscape:window-width="1016"
     inkscape:pageopacity="0.0"
     id="base"
     showguides="true" />
  <defs
     id="defs3">
    <linearGradient
       id="linearGradient900">
      <stop
         style="stop-color:#000;stop-opacity:1;"
         id="stop901"
         offset="0" />
      <stop
         style="stop-color:#fff;stop-opacity:1;"
         id="stop902"
         offset="1" />
    </linearGradient>
    <linearGradient
       xlink:href="#linearGradient900"
       id="linearGradient903" />
    <linearGradient
       xlink:href="#linearGradient900"
       id="linearGradient904" />
    <linearGradient
       xlink:href="#linearGradient900"
       id="linearGradient905" />
    <linearGradient
       xlink:href="#linearGradient900"
       id="linearGradient906" />
    <linearGradient
       xlink:href="#linearGradient900"
       id="linearGradient907" />
  </defs>
  <path
     style="font-size:12.000000;fill:#b3b3b3;fill-opacity:1.0000000;fill-rule:evenodd;stroke:#333333;stroke-width:2.5000000;stroke-linejoin:round;"
     d="M 4.6123908,2.6844294 C 3.4013812,2.6844294 2.4264529,3.6593577 2.4264529,4.8703673 L 2.4264529,55.567560 C 2.4264529,56.778570 3.4013812,57.753498 4.6123908,57.753498 L 55.702933,57.753498 C 56.913942,57.753498 57.888870,56.778570 57.888870,55.567560 L 57.888870,4.8703673 C 57.888870,3.6593577 56.913942,2.6844294 55.702933,2.6844294 L 4.6123908,2.6844294 z "
     id="rect945" />
  <path
     transform="matrix(1.030619,0.000000,0.000000,1.030619,13.80137,-5.885683)"
     style="fill:#cccccc;fill-rule:evenodd;stroke:#7f7f7f;stroke-width:2.4257267;stroke-linecap:round;stroke-linejoin:round;"
     d="M -5.1493001,12.415376 C -6.1433085,12.415376 -6.9435391,13.215606 -6.9435391,14.209615 L -6.9435391,44.326470 C -6.9435391,45.320479 -6.1433085,46.120709 -5.1493001,46.120709 L 36.786308,46.120709 C 37.780316,46.120709 38.580547,45.320479 38.580547,44.326470 L 38.580547,14.209615 C 38.580547,13.215606 37.780316,12.415376 36.786308,12.415376 L -5.1493001,12.415376 z "
     id="rect863" />
  <g
     id="g1558"
     transform="translate(0.000000,-8.615041e-2)">
    <path
       style="fill:none;fill-opacity:0.75000000;fill-rule:evenodd;stroke:#7f7f7f;stroke-width:1.8192950;"
       transform="matrix(1.030619,0.000000,0.000000,1.030619,13.80137,-5.885683)"
       d="M -6.5058126,29.351633 L 38.580545,29.351633"
       sodipodi:stroke-cmyk="(0.0000000 0.0000000 0.0000000 0.50000000)"
       id="path865" />
    <path
       style="fill:none;fill-opacity:0.75000000;fill-rule:evenodd;stroke:#7f7f7f;stroke-width:1.8192950;"
       transform="matrix(1.030619,0.000000,0.000000,1.030619,13.80137,-5.885683)"
       d="M -6.5058126,37.970990 L 38.580545,37.970990"
       sodipodi:stroke-cmyk="(0.0000000 0.0000000 0.0000000 0.50000000)"
       id="path866" />
    <path
       style="fill:none;fill-opacity:0.75000000;fill-rule:evenodd;stroke:#7f7f7f;stroke-width:1.8192950;"
       transform="matrix(1.030619,0.000000,0.000000,1.030619,13.80137,-5.885683)"
       d="M -6.5058126,20.732277 L 38.580545,20.732277"
       sodipodi:stroke-cmyk="(0.0000000 0.0000000 0.0000000 0.50000000)"
       id="path867" />
  </g>
  <g
     id="g1562"
     transform="translate(0.139417,0.000000)">
    <path
       style="fill:none;fill-opacity:0.75000000;fill-rule:evenodd;stroke:#7f7f7f;stroke-width:1.8192950;"
       transform="matrix(1.030619,0.000000,0.000000,1.030619,13.80137,-5.885683)"
       d="M 7.0638721,12.853108 L 7.0638721,45.464113"
       sodipodi:stroke-cmyk="(0.0000000 0.0000000 0.0000000 0.50000000)"
       id="path868" />
    <path
       style="fill:none;fill-opacity:0.75000000;fill-rule:evenodd;stroke:#7f7f7f;stroke-width:1.8192950;"
       transform="matrix(1.030619,0.000000,0.000000,1.030619,13.80137,-5.885683)"
       d="M 24.302585,12.853108 L 24.302585,45.464113"
       sodipodi:stroke-cmyk="(0.0000000 0.0000000 0.0000000 0.50000000)"
       id="path869" />
  </g>
  <path
     sodipodi:nodetypes="ccc"
     style="fill:none;fill-opacity:0.75000000;fill-rule:evenodd;stroke:#333333;stroke-width:2.5000000;stroke-linecap:round;stroke-linejoin:round;"
     d="M 29.956209,29.687399 L 29.956209,54.085266 L 54.213856,54.085266"
     sodipodi:stroke-cmyk="(0.0000000 0.0000000 0.0000000 0.80000001)"
     id="path917" />
  <path
     style="fill:#7f7f7f;fill-rule:evenodd;stroke:#333333;stroke-width:1.8749999;stroke-linecap:round;stroke-linejoin:round;"
     d="M 30.620025,32.351532 C 30.485313,32.351532 30.376863,32.459982 30.376863,32.594693 L 30.376863,53.561666 C 30.376863,53.696377 30.485313,53.804827 30.620025,53.804827 L 36.303277,53.804827 C 36.437988,53.804827 36.546438,53.696377 36.546438,53.561666 L 36.546438,32.594693 C 36.546438,32.459982 36.437988,32.351532 36.303277,32.351532 L 30.620025,32.351532 z "
     id="rect918" />
  <path
     style="fill:#7f7f7f;fill-rule:evenodd;stroke:#333333;stroke-width:1.8749999;stroke-linecap:round;stroke-linejoin:round;"
     d="M 38.946416,42.213642 C 38.811705,42.213642 38.703255,42.322092 38.703255,42.456803 L 38.703255,53.795217 C 38.703255,53.929928 38.811705,54.038378 38.946416,54.038378 L 44.629668,54.038378 C 44.764380,54.038378 44.872829,53.929928 44.872829,53.795217 L 44.872829,42.456803 C 44.872829,42.322092 44.764380,42.213642 44.629668,42.213642 L 38.946416,42.213642 z "
     id="rect919" />
  <path
     style="fill:#4c4c4c;fill-rule:evenodd;stroke:#333333;stroke-width:1.8749999;stroke-linecap:round;stroke-linejoin:round;"
     d="M 47.229474,37.175083 C 47.094763,37.175083 46.986313,37.283533 46.986313,37.418244 L 46.986313,53.645724 C 46.986313,53.780436 47.094763,53.888885 47.229474,53.888885 L 52.912726,53.888885 C 53.047438,53.888885 53.155888,53.780436 53.155888,53.645724 L 53.155888,37.418244 C 53.155888,37.283533 53.047438,37.175083 52.912726,37.175083 L 47.229474,37.175083 z "
     id="rect920" />
  <metadata
     id="metadata27">
    <rdf:RDF
       id="RDF28">
      <cc:Work
         rdf:about=""
         id="Work29">
        <dc:format
           id="format30">image/svg+xml</dc:format>
        <dc:type
           id="type32"
           rdf:resource="http://purl.org/dc/dcmitype/StillImage" />
      </cc:Work>
    </rdf:RDF>
  </metadata>
  <path
     id="text930"
     style="font-size:12.000000;font-style:normal;font-variant:normal;font-weight:bold;font-stretch:normal;fill:#333333;fill-opacity:1.0000000;stroke:none;stroke-width:1.0000000pt;stroke-linecap:butt;stroke-linejoin:miter;stroke-opacity:1.0000000;font-family:VAG Rounded Black SSi;text-anchor:start;writing-mode:lr;"
     transform="scale(0.865029,0.865029)"
     d="M 25.467516,54.244984 L 25.467516,58.434437 C 25.467514,58.989127 25.635482,59.424674 25.971422,59.741077 C 26.307357,60.053579 26.723372,60.209829 27.219469,60.209827 C 27.719464,60.209829 28.137433,60.053579 28.473375,59.741077 C 28.813213,59.424674 28.983135,58.989127 28.983141,58.434437 L 28.983141,54.244984 C 28.983135,53.909054 29.072979,53.651242 29.252672,53.471546 C 29.432353,53.291867 29.666728,53.202024 29.955797,53.202015 C 30.248759,53.202024 30.483134,53.289914 30.658922,53.465687 C 30.838602,53.641476 30.928446,53.901242 30.928453,54.244984 L 30.928453,58.434437 C 30.928446,59.172721 30.772196,59.819205 30.459703,60.373890 C 30.147196,60.928578 29.707744,61.354359 29.141344,61.651234 C 28.574932,61.948109 27.934308,62.096546 27.219469,62.096546 C 26.500716,62.096546 25.862044,61.950062 25.303453,61.657093 C 24.744858,61.360219 24.309312,60.934438 23.996813,60.379749 C 23.684312,59.821158 23.528062,59.172721 23.528063,58.434437 L 23.528063,54.244984 C 23.528062,53.901242 23.615953,53.641476 23.791735,53.465687 C 23.967515,53.289914 24.203843,53.202024 24.500719,53.202015 C 24.789780,53.202024 25.022202,53.289914 25.197985,53.465687 C 25.377670,53.641476 25.467514,53.901242 25.467516,54.244984 M 15.125719,60.930531 L 15.125719,54.244984 C 15.125719,53.909054 15.215562,53.651242 15.395250,53.471546 C 15.574937,53.291867 15.809312,53.202024 16.098375,53.202015 C 16.340561,53.202024 16.535873,53.264524 16.684313,53.389515 C 16.836654,53.514523 17.088607,53.803586 17.440172,54.256702 L 20.668688,58.340687 L 20.692125,58.340687 L 20.692125,54.244984 C 20.692119,53.909054 20.781963,53.651242 20.961657,53.471546 C 21.141338,53.291867 21.375712,53.202024 21.664782,53.202015 C 21.957743,53.202024 22.192118,53.289914 22.367907,53.465687 C 22.547586,53.641476 22.637430,53.901242 22.637438,54.244984 L 22.637438,60.930531 C 22.637430,61.270375 22.547586,61.530140 22.367907,61.709827 C 22.192118,61.885609 21.957743,61.973499 21.664782,61.973499 C 21.492900,61.973499 21.346416,61.944202 21.225328,61.885609 C 21.108134,61.823109 20.988994,61.725453 20.867907,61.592640 C 20.746807,61.459828 20.565166,61.235219 20.322985,60.918812 L 17.094469,56.840687 L 17.071032,56.840687 L 17.071032,60.930531 C 17.071029,61.270375 16.981185,61.530140 16.801500,61.709827 C 16.625717,61.885609 16.391342,61.973499 16.098375,61.973499 C 15.813218,61.973499 15.578843,61.883656 15.395250,61.703968 C 15.215562,61.520375 15.125719,61.262562 15.125719,60.930531 M 11.194078,56.793812 L 13.291735,56.793812 C 13.979227,56.793817 14.322976,57.192254 14.322985,57.989124 C 14.322976,58.563346 14.231180,59.102408 14.047594,59.606312 C 13.867899,60.110220 13.608133,60.547719 13.268297,60.918812 C 12.932353,61.286000 12.522197,61.575062 12.037828,61.785999 C 11.557354,61.993030 11.024152,62.096546 10.438219,62.096546 C 9.5671217,62.096546 8.8132162,61.897327 8.1765003,61.498890 C 7.5436863,61.096547 7.0612649,60.553579 6.7292347,59.869984 C 6.4011093,59.182486 6.2370469,58.420768 6.2370472,57.584827 C 6.2370469,56.936395 6.3405625,56.336786 6.5475941,55.785999 C 6.7546246,55.235225 7.0475930,54.758663 7.4265003,54.356312 C 7.8093110,53.950070 8.2585293,53.637570 8.7741566,53.418812 C 9.2897783,53.196164 9.8444652,53.084836 10.438219,53.084827 C 10.981183,53.084836 11.508526,53.161008 12.020250,53.313343 C 12.535869,53.461789 12.951884,53.678586 13.268297,53.963734 C 13.588602,54.248898 13.748758,54.582882 13.748766,54.965687 C 13.748758,55.215693 13.668680,55.416865 13.508532,55.569202 C 13.348368,55.721552 13.137431,55.797724 12.875719,55.797718 C 12.692119,55.797724 12.436259,55.692256 12.108141,55.481312 C 11.783916,55.270381 11.531964,55.119990 11.352282,55.030140 C 11.172589,54.940303 10.895245,54.895381 10.520250,54.895374 C 10.192121,54.895381 9.8913402,54.963741 9.6179066,55.100452 C 9.3444657,55.237178 9.1100909,55.430537 8.9147816,55.680531 C 8.7194663,55.930537 8.5710290,56.217646 8.4694691,56.541859 C 8.3718104,56.862176 8.3229824,57.209832 8.3229847,57.584827 C 8.3229824,58.057488 8.4011073,58.498893 8.5573597,58.909046 C 8.7136070,59.319205 8.9557942,59.651236 9.2839222,59.905140 C 9.6120436,60.159048 10.012434,60.286001 10.485094,60.285999 C 10.817120,60.286001 11.115948,60.215688 11.381578,60.075062 C 11.651104,59.934439 11.865948,59.737173 12.026110,59.483265 C 12.186260,59.229361 12.280010,58.936393 12.307360,58.604359 L 11.194078,58.604359 C 10.893292,58.604362 10.655011,58.522331 10.479235,58.358265 C 10.307355,58.194206 10.221418,57.975456 10.221422,57.702015 C 10.221418,57.409051 10.305402,57.184442 10.473375,57.028187 C 10.645246,56.871942 10.885480,56.793817 11.194078,56.793812" />
</svg>
