<?xml version="1.0" encoding="UTF-8" standalone="no"?>
<!DOCTYPE svg PUBLIC "-//W3C//DTD SVG 20010904//EN"
"http://www.w3.org/TR/2001/REC-SVG-20010904/DTD/svg10.dtd">
<svg
   sodipodi:docname="gvim.svg"
   height="60.0000000"
   sodipodi:version="0.32"
   width="60.0000000"
   _SVGFile__filename="scalable/apps/gvim.svg"
   version="1.0"
   y="0"
   x="0"
   inkscape:version="0.39"
   id="svg1"
   sodipodi:docbase="/home/danny/work/flat/newscale/apps"
   xmlns="http://www.w3.org/2000/svg"
   xmlns:cc="http://web.resource.org/cc/"
   xmlns:inkscape="http://www.inkscape.org/namespaces/inkscape"
   xmlns:sodipodi="http://sodipodi.sourceforge.net/DTD/sodipodi-0.dtd"
   xmlns:rdf="http://www.w3.org/1999/02/22-rdf-syntax-ns#"
   xmlns:dc="http://purl.org/dc/elements/1.1/"
   xmlns:xlink="http://www.w3.org/1999/xlink">
  <sodipodi:namedview
     bordercolor="#666666"
     inkscape:pageshadow="2"
     inkscape:window-y="0"
     pagecolor="#ffffff"
     inkscape:window-height="685"
     inkscape:zoom="4.9119411"
     inkscape:window-x="0"
     borderopacity="1.0"
     inkscape:cx="22.559197"
     inkscape:cy="35.151018"
     inkscape:window-width="1016"
     inkscape:pageopacity="0.0"
     id="base" />
  <defs
     id="defs3">
    <linearGradient
       id="linearGradient900">
      <stop
         style="stop-color:#000;stop-opacity:1;"
         id="stop901"
         offset="0" />
      <stop
         style="stop-color:#fff;stop-opacity:1;"
         id="stop902"
         offset="1" />
    </linearGradient>
    <linearGradient
       xlink:href="#linearGradient900"
       id="linearGradient903" />
    <linearGradient
       xlink:href="#linearGradient900"
       id="linearGradient904" />
    <linearGradient
       xlink:href="#linearGradient900"
       id="linearGradient905" />
    <linearGradient
       xlink:href="#linearGradient900"
       id="linearGradient906" />
    <linearGradient
       xlink:href="#linearGradient900"
       id="linearGradient907" />
  </defs>
  <path
     transform="matrix(0.592488,0.592488,-0.592488,0.592488,30.52661,-4.060461)"
     style="fill:#7f7f7f;fill-opacity:1.0000000;fill-rule:evenodd;stroke:#4c4c4c;stroke-width:3.7295418;stroke-linejoin:round;stroke-opacity:1.0000000;"
     d="M 7.8530831,6.5588055 C 6.7450831,6.5588055 5.8530831,7.4508055 5.8530831,8.5588055 L 5.8530831,50.111063 C 5.8530831,51.219063 6.7450831,52.111063 7.8530831,52.111063 L 49.405341,52.111063 C 50.513341,52.111063 51.405341,51.219063 51.405341,50.111063 L 51.405341,8.5588055 C 51.405341,7.4508055 50.513341,6.5588055 49.405341,6.5588055 L 7.8530831,6.5588055 z "
     id="rect869" />
  <path
     id="path841"
     style="font-size:12.000000;font-weight:900;fill:#b3b3b3;stroke:#333333;stroke-width:0.35521148;font-family:VAG Rounded Black SSi;stroke-linejoin:round;stroke-dasharray:none;"
     transform="matrix(5.340805,0.000000,-2.166373,5.217012,81.38208,-1.077878)"
     d="M -8.7561741,6.7863979 L -7.1038303,2.3860073 C -6.9788303,2.0813198 -6.8499241,1.8567104 -6.7171116,1.7121792 C -6.5803928,1.5676479 -6.3479710,1.4953823 -6.0198460,1.4953823 C -5.8440647,1.4953823 -5.6839085,1.5403042 -5.5393772,1.6301479 C -5.3909397,1.7160854 -5.2757053,1.8332729 -5.1936741,1.9817104 C -5.1116428,2.1262417 -5.0706272,2.2844448 -5.0706272,2.4563198 C -5.0706272,2.5852261 -5.1389866,2.8215542 -5.2757053,3.1653042 L -7.7014866,9.2238979 C -7.8342991,9.5676479 -7.9690647,9.8274136 -8.1057835,10.003195 C -8.2425022,10.178976 -8.4671116,10.266867 -8.7796116,10.266867 C -9.0022678,10.266867 -9.1800022,10.219992 -9.3128147,10.126242 C -9.4456272,10.028585 -9.5452366,9.9192104 -9.6116428,9.7981167 C -9.6780491,9.6770229 -9.7620335,9.4856167 -9.8635960,9.2238979 L -12.236643,3.1653042 C -12.373362,2.8254604 -12.441721,2.5891323 -12.441721,2.4563198 C -12.441721,2.2844448 -12.400705,2.1262417 -12.318674,1.9817104 C -12.236643,1.8332729 -12.123362,1.7160854 -11.978830,1.6301479 C -11.830393,1.5403042 -11.668283,1.4953823 -11.492502,1.4953823 C -11.160471,1.4953823 -10.926096,1.5696011 -10.789377,1.7180386 C -10.652658,1.8664761 -10.527658,2.0891323 -10.414377,2.3860073 L -8.7561741,6.7863979 z " />
  <path
     id="path840"
     style="font-size:12.000000;font-weight:900;fill:#b3b3b3;stroke:#333333;stroke-width:0.53741527;font-family:VAG Rounded Black SSi;"
     transform="matrix(2.325948,0.000000,-0.581853,2.325948,161.1065,-56.75402)"
     d="M -44.488503,46.616325 L -44.488503,41.987419 C -44.488503,41.710075 -44.402565,41.479607 -44.230690,41.296013 C -44.054909,41.108513 -43.830299,41.014763 -43.556862,41.014763 C -43.330299,41.014763 -43.134987,41.075310 -42.970924,41.196404 C -42.802956,41.313591 -42.685768,41.452263 -42.619362,41.612419 C -42.467018,41.378044 -42.246315,41.200310 -41.957253,41.079216 C -41.668190,40.954216 -41.351784,40.891716 -41.008034,40.891716 C -40.691628,40.891716 -40.375221,40.954216 -40.058815,41.079216 C -39.742409,41.200310 -39.478737,41.395622 -39.267799,41.665154 C -38.947487,41.422966 -38.656471,41.233513 -38.394753,41.096794 C -38.129128,40.960075 -37.816628,40.891716 -37.457253,40.891716 C -37.015846,40.891716 -36.619362,40.971794 -36.267799,41.131950 C -35.912331,41.292107 -35.634987,41.538200 -35.435768,41.870232 C -35.232643,42.198357 -35.131081,42.612419 -35.131081,43.112419 L -35.131081,46.616325 C -35.131081,46.893669 -35.218971,47.128044 -35.394753,47.319450 C -35.566628,47.506950 -35.791237,47.600700 -36.068581,47.600700 C -36.342018,47.600700 -36.566628,47.506950 -36.742409,47.319450 C -36.914284,47.128044 -37.000221,46.893669 -37.000221,46.616325 L -37.000221,43.628044 C -37.000221,43.307732 -37.084206,43.038200 -37.252174,42.819450 C -37.416237,42.600700 -37.644753,42.491325 -37.937721,42.491325 C -38.230690,42.491325 -38.461159,42.600700 -38.629128,42.819450 C -38.793190,43.038200 -38.875221,43.307732 -38.875221,43.628044 L -38.875221,46.616325 C -38.875221,46.893669 -38.963112,47.128044 -39.138893,47.319450 C -39.310768,47.506950 -39.535378,47.600700 -39.812721,47.600700 C -40.086159,47.600700 -40.310768,47.506950 -40.486549,47.319450 C -40.658424,47.128044 -40.744362,46.893669 -40.744362,46.616325 L -40.744362,43.628044 C -40.744362,43.307732 -40.828346,43.038200 -40.996315,42.819450 C -41.160378,42.600700 -41.388893,42.491325 -41.681862,42.491325 C -41.974831,42.491325 -42.205299,42.600700 -42.373268,42.819450 C -42.537331,43.038200 -42.619362,43.307732 -42.619362,43.628044 L -42.619362,46.616325 C -42.619362,46.893669 -42.707253,47.128044 -42.883034,47.319450 C -43.054909,47.506950 -43.279518,47.600700 -43.556862,47.600700 C -43.830299,47.600700 -44.054909,47.506950 -44.230690,47.319450 C -44.402565,47.128044 -44.488503,46.893669 -44.488503,46.616325 z M -47.189674,46.616325 L -47.189674,41.987419 C -47.189674,41.710075 -47.103737,41.479607 -46.931862,41.296013 C -46.756081,41.108513 -46.531471,41.014763 -46.258034,41.014763 C -45.980690,41.014763 -45.756081,41.108513 -45.584206,41.296013 C -45.408424,41.479607 -45.320534,41.710075 -45.320534,41.987419 L -45.320534,46.616325 C -45.320534,46.893669 -45.408424,47.128044 -45.584206,47.319450 C -45.756081,47.506950 -45.980690,47.600700 -46.258034,47.600700 C -46.531471,47.600700 -46.756081,47.506950 -46.931862,47.319450 C -47.103737,47.128044 -47.189674,46.893669 -47.189674,46.616325 z M -47.371315,39.321404 C -47.371315,39.016716 -47.261940,38.753044 -47.043190,38.530388 C -46.824440,38.307732 -46.562721,38.196404 -46.258034,38.196404 C -45.949440,38.196404 -45.685768,38.305779 -45.467018,38.524529 C -45.248268,38.743279 -45.138893,39.008904 -45.138893,39.321404 C -45.138893,39.645622 -45.248268,39.915154 -45.467018,40.129997 C -45.685768,40.344841 -45.949440,40.452263 -46.258034,40.452263 C -46.562721,40.452263 -46.824440,40.342888 -47.043190,40.124138 C -47.261940,39.905388 -47.371315,39.637810 -47.371315,39.321404 z " />
  <metadata
     id="metadata15">
    <rdf:RDF
       id="RDF16">
      <cc:Work
         rdf:about=""
         id="Work17">
        <dc:title
           id="title18">Part of the Flat Icon Collection (Thu Aug 26 14:31:40 2004)</dc:title>
        <dc:description
           id="description20" />
        <dc:subject
           id="subject21">
          <rdf:Bag
             id="Bag22">
            <rdf:li
               id="li23" />
          </rdf:Bag>
        </dc:subject>
        <dc:publisher
           id="publisher24">
          <cc:Agent
             rdf:about=""
             id="Agent25">
            <dc:title
               id="title26" />
          </cc:Agent>
        </dc:publisher>
        <dc:creator
           id="creator27">
          <cc:Agent
             rdf:about=""
             id="Agent28">
            <dc:title
               id="title29">Danny Allen</dc:title>
          </cc:Agent>
        </dc:creator>
        <dc:rights
           id="rights31">
          <cc:Agent
             rdf:about=""
             id="Agent32">
            <dc:title
               id="title33">Danny Allen</dc:title>
          </cc:Agent>
        </dc:rights>
        <dc:date
           id="date35" />
        <dc:format
           id="format36">image/svg+xml</dc:format>
        <dc:type
           rdf:resource="http://purl.org/dc/dcmitype/StillImage"
           id="type38" />
        <cc:license
           rdf:resource="http://creativecommons.org/licenses/LGPL/2.1/"
           id="license39">
          <dc:date
             id="date40" />
        </cc:license>
        <dc:language
           id="language41">en</dc:language>
      </cc:Work>
    </rdf:RDF>
  </metadata>
</svg>
