<?xml version="1.0" encoding="UTF-8" standalone="no"?>
<!DOCTYPE svg PUBLIC "-//W3C//DTD SVG 20010904//EN"
"http://www.w3.org/TR/2001/REC-SVG-20010904/DTD/svg10.dtd">
<svg
   sodipodi:docname="help_index.svg"
   height="60.0000000"
   sodipodi:version="0.32"
   width="60.0000000"
   _SVGFile__filename="scalable/apps/help_index.svg"
   version="1.0"
   y="0"
   x="0"
   inkscape:version="0.39"
   id="svg1"
   sodipodi:docbase="/home/danny/work/flat/newscale/apps"
   xmlns="http://www.w3.org/2000/svg"
   xmlns:cc="http://web.resource.org/cc/"
   xmlns:inkscape="http://www.inkscape.org/namespaces/inkscape"
   xmlns:sodipodi="http://sodipodi.sourceforge.net/DTD/sodipodi-0.dtd"
   xmlns:rdf="http://www.w3.org/1999/02/22-rdf-syntax-ns#"
   xmlns:dc="http://purl.org/dc/elements/1.1/"
   xmlns:xlink="http://www.w3.org/1999/xlink">
  <sodipodi:namedview
     bordercolor="#666666"
     inkscape:pageshadow="2"
     inkscape:window-y="0"
     snaptoguides="true"
     pagecolor="#ffffff"
     inkscape:window-height="699"
     inkscape:zoom="4.9119411"
     inkscape:window-x="0"
     borderopacity="1.0"
     inkscape:cx="33.102016"
     inkscape:cy="49.995885"
     inkscape:window-width="1024"
     inkscape:pageopacity="0.0"
     id="base"
     showguides="true" />
  <defs
     id="defs3">
    <linearGradient
       id="linearGradient895">
      <stop
         style="stop-color:#000;stop-opacity:1;"
         id="stop896"
         offset="0" />
      <stop
         style="stop-color:#fff;stop-opacity:1;"
         id="stop897"
         offset="1" />
    </linearGradient>
    <linearGradient
       xlink:href="#linearGradient895"
       id="linearGradient898" />
    <linearGradient
       xlink:href="#linearGradient895"
       id="linearGradient899" />
    <linearGradient
       xlink:href="#linearGradient895"
       id="linearGradient900" />
    <linearGradient
       xlink:href="#linearGradient895"
       id="linearGradient901" />
    <linearGradient
       xlink:href="#linearGradient895"
       id="linearGradient902" />
  </defs>
  <path
     sodipodi:nodetypes="cc"
     style="fill:none;fill-opacity:0.75000000;fill-rule:evenodd;stroke:#4c4c4c;stroke-width:3.1250000;stroke-linecap:round;stroke-linejoin:round;stroke-dasharray:3.1250000 3.1250000;stroke-dashoffset:0.0000000;stroke-opacity:1.0000000;"
     d="M 32.573680,16.738081 C 57.512904,13.175334 57.512905,2.2326133 57.512905,2.2326133"
     sodipodi:stroke-cmyk="(0.0000000 0.0000000 0.0000000 0.69999999)"
     id="path1160" />
  <path
     style="fill:#b3b3b3;fill-rule:evenodd;stroke:#4c4c4c;stroke-width:2.5000000;stroke-opacity:1.0000000;"
     d="M 32.626665,9.7073139 C 19.552575,6.6533119 6.4707290,14.803952 3.4167270,27.878041 C 0.36272500,40.952131 8.4863100,54.027655 21.560399,57.081659 C 34.634489,60.135661 47.737070,52.018396 50.791072,38.944307 C 53.845074,25.870217 45.700754,12.761316 32.626665,9.7073139 z M 30.673794,18.067492 C 39.145804,20.046486 44.436943,28.525746 42.457949,36.997756 C 40.478956,45.469766 31.978960,50.727529 23.506949,48.748536 C 15.034939,46.769542 9.7708570,38.296602 11.749850,29.824592 C 13.728844,21.352582 22.201784,16.088499 30.673794,18.067492 z "
     sodipodi:stroke-cmyk="(0.0000000 0.0000000 0.0000000 0.69999999)"
     id="path1150" />
  <path
     style="fill:#4c4c4c;fill-rule:evenodd;stroke:#4c4c4c;stroke-width:2.5000000;stroke-linecap:round;stroke-linejoin:round;stroke-opacity:1.0000000;"
     d="M 32.628155,9.7076622 C 27.868388,8.5958189 23.123514,9.0130979 18.845937,10.568307 L 21.821156,18.595989 C 24.572184,17.614778 27.619818,17.354108 30.675285,18.067841 C 34.142916,18.877851 37.019627,20.813313 39.141071,23.355079 L 46.416943,18.834713 C 43.106076,14.435659 38.399636,11.055833 32.628155,9.7076622 z "
     sodipodi:stroke-cmyk="(0.0000000 0.0000000 0.0000000 0.69999999)"
     id="path1157" />
  <path
     style="fill:#4c4c4c;fill-rule:evenodd;stroke:none;stroke-width:2.5000000;stroke-linecap:round;stroke-linejoin:round;stroke-opacity:1.0000000;"
     d="M 3.2578010,38.932653 C 4.3854830,43.688698 6.8751450,47.749435 10.174885,50.884415 L 16.033036,44.641191 C 13.927875,42.616531 12.335342,40.005041 11.611442,36.951963 C 10.789892,33.487044 11.239210,30.049076 12.568037,27.016694 L 5.2771490,22.520567 C 2.8164550,27.445866 1.8904240,33.165686 3.2578010,38.932653 z "
     id="path1158" />
  <path
     style="fill:#4c4c4c;fill-rule:evenodd;stroke:none;stroke-width:2.5000000;stroke-linecap:round;stroke-linejoin:round;stroke-opacity:1.0000000;"
     d="M 46.013192,48.919906 C 42.895225,52.684194 38.864252,55.221755 34.517153,56.570486 L 32.031057,48.378115 C 34.815314,47.495588 37.399963,45.859860 39.401500,43.443427 C 41.673031,40.701033 42.793272,37.419792 42.945339,34.112532 L 51.473563,33.311637 C 51.497646,38.817355 49.793900,44.355500 46.013192,48.919906 z "
     id="path1159" />
  <path
     sodipodi:rx="22.267164"
     sodipodi:ry="22.267164"
     style="fill:#ffffff;fill-rule:evenodd;stroke:#000000;stroke-width:1.0000000pt;"
     sodipodi:type="arc"
     d="M -17.559248 16.610840 A 22.267164 22.267164 0 1 0 -62.093576,16.610840 A 22.267164 22.267164 0 1 0 -17.559248 16.610840 z"
     transform="matrix(0.877718,0.000000,0.000000,0.877718,59.37955,10.93807)"
     sodipodi:cy="16.610840"
     sodipodi:cx="-39.826412"
     id="path922" />
  <path
     style="fill:#b3b3b3;fill-rule:evenodd;stroke:#4c4c4c;stroke-width:3.0000000;stroke-linecap:round;stroke-linejoin:round;stroke-opacity:1.0000000;"
     transform="translate(70.86614,-1.250000e-6)"
     d="M -42.093751,6.2098922 C -51.220960,5.9619262 -59.742327,10.109614 -65.375001,16.991142 C -66.462636,19.502740 -67.093751,22.270374 -67.093751,25.178642 C -67.093751,30.761714 -64.857763,35.812939 -61.250001,39.522392 C -61.856366,36.827093 -61.951793,33.955465 -61.281251,31.084892 C -58.906457,20.918480 -48.728913,14.616351 -38.562501,16.991142 C -32.882995,18.317830 -28.503885,22.125860 -26.062501,26.959892 C -26.010420,26.363629 -25.875001,25.788369 -25.875001,25.178642 C -25.875002,17.132636 -30.545158,10.232746 -37.281251,6.8348922 C -38.887556,6.5213272 -40.505895,6.2530302 -42.093751,6.2098922 z "
     sodipodi:stroke-cmyk="(0.0000000 0.0000000 0.0000000 0.69999999)"
     id="path908" />
  <path
     style="fill:#4c4c4c;fill-rule:evenodd;stroke:none;stroke-width:3.0000000;stroke-linecap:round;stroke-linejoin:round;stroke-opacity:1.0000000;"
     transform="translate(70.86614,-1.250000e-6)"
     d="M -44.718751,6.2723918 C -47.497815,6.4640808 -50.214704,7.0580168 -52.781251,7.9911418 L -49.187501,17.616142 C -45.886266,16.438689 -42.229061,16.134662 -38.562501,16.991142 C -34.401343,17.963154 -30.951984,20.284772 -28.406251,23.334892 L -26.187501,21.959892 C -27.245022,15.277441 -31.490331,9.6946928 -37.343751,6.7723918 C -39.821593,6.2971117 -42.305551,6.1059387 -44.718751,6.2723918 z "
     id="path910" />
  <g
     style=""
     id="g905"
     transform="translate(70.86614,-1.250000e-6)">
    <path
       style="font-size:12.000000;fill:#b3b3b3;fill-rule:evenodd;stroke:#333333;stroke-width:3.1250000;stroke-linecap:round;stroke-linejoin:round;"
       d="M 34.832617,38.228271 C 47.907481,57.415611 52.812255,58.284572 55.623106,55.802463 C 58.254010,52.960461 58.513398,48.657264 37.639678,36.241000 L 34.832617,38.228271 z "
       sodipodi:nodetypes="cccc"
       transform="translate(-70.86614,0.000000)"
       sodipodi:stroke-cmyk="(0 0 0 0.8)"
       id="path885" />
    <path
       style="font-size:12.000000;fill:#7f7f7f;fill-rule:evenodd;stroke:#333333;stroke-width:3.1250000;"
       transform="translate(-70.86614,0.000000)"
       d="M 24.375000 4.5625000 C 13.001701 4.5625000 3.7812499 13.814201 3.7812500 25.187500 C 3.7812500 36.560799 13.001701 45.781249 24.375000 45.781250 C 35.748299 45.781250 45.000001 36.560798 45.000000 25.187500 C 45.000000 13.814201 35.748298 4.5625002 24.375000 4.5625000 z M 24.250000 9.0937500 C 33.203231 9.0937496 40.468750 16.359269 40.468750 25.312500 C 40.468751 34.265731 33.203231 41.531250 24.250000 41.531250 C 15.296768 41.531252 8.0312500 34.265731 8.0312500 25.312500 C 8.0312503 16.359269 15.296769 9.0937500 24.250000 9.0937500 z "
       id="path886" />
  </g>
  <metadata
     id="metadata23">
    <rdf:RDF
       id="RDF24">
      <cc:Work
         rdf:about=""
         id="Work25">
        <dc:title
           id="title26">Part of the Flat Icon Collection (Thu Aug 26 14:31:40 2004)</dc:title>
        <dc:description
           id="description28" />
        <dc:subject
           id="subject29">
          <rdf:Bag
             id="Bag30">
            <rdf:li
               id="li31" />
          </rdf:Bag>
        </dc:subject>
        <dc:publisher
           id="publisher32">
          <cc:Agent
             rdf:about=""
             id="Agent33">
            <dc:title
               id="title34" />
          </cc:Agent>
        </dc:publisher>
        <dc:creator
           id="creator35">
          <cc:Agent
             rdf:about=""
             id="Agent36">
            <dc:title
               id="title37">Danny Allen</dc:title>
          </cc:Agent>
        </dc:creator>
        <dc:rights
           id="rights39">
          <cc:Agent
             rdf:about=""
             id="Agent40">
            <dc:title
               id="title41">Danny Allen</dc:title>
          </cc:Agent>
        </dc:rights>
        <dc:date
           id="date43" />
        <dc:format
           id="format44">image/svg+xml</dc:format>
        <dc:type
           rdf:resource="http://purl.org/dc/dcmitype/StillImage"
           id="type46" />
        <cc:license
           rdf:resource="http://creativecommons.org/licenses/LGPL/2.1/"
           id="license47">
          <dc:date
             id="date48" />
        </cc:license>
        <dc:language
           id="language49">en</dc:language>
      </cc:Work>
    </rdf:RDF>
  </metadata>
</svg>
