<?xml version="1.0" encoding="UTF-8" standalone="no"?>
<!DOCTYPE svg PUBLIC "-//W3C//DTD SVG 20010904//EN"
"http://www.w3.org/TR/2001/REC-SVG-20010904/DTD/svg10.dtd">
<svg
   sodipodi:docname="help.svg"
   height="60.0000000"
   sodipodi:version="0.32"
   width="60.0000000"
   _SVGFile__filename="scalable/apps/help.svg"
   version="1.0"
   y="0"
   x="0"
   inkscape:version="0.39"
   id="svg1"
   sodipodi:docbase="/home/danny/work/flat/newscale/apps"
   xmlns="http://www.w3.org/2000/svg"
   xmlns:cc="http://web.resource.org/cc/"
   xmlns:inkscape="http://www.inkscape.org/namespaces/inkscape"
   xmlns:sodipodi="http://sodipodi.sourceforge.net/DTD/sodipodi-0.dtd"
   xmlns:rdf="http://www.w3.org/1999/02/22-rdf-syntax-ns#"
   xmlns:dc="http://purl.org/dc/elements/1.1/"
   xmlns:xlink="http://www.w3.org/1999/xlink">
  <sodipodi:namedview
     bordercolor="#666666"
     inkscape:pageshadow="2"
     inkscape:window-y="0"
     snaptoguides="true"
     pagecolor="#ffffff"
     inkscape:window-height="699"
     inkscape:zoom="4.9119411"
     inkscape:window-x="0"
     borderopacity="1.0"
     inkscape:cx="33.102016"
     inkscape:cy="44.103014"
     inkscape:window-width="1024"
     inkscape:pageopacity="0.0"
     id="base"
     showguides="true" />
  <defs
     id="defs3">
    <linearGradient
       id="linearGradient895">
      <stop
         style="stop-color:#000;stop-opacity:1;"
         id="stop896"
         offset="0" />
      <stop
         style="stop-color:#fff;stop-opacity:1;"
         id="stop897"
         offset="1" />
    </linearGradient>
    <linearGradient
       xlink:href="#linearGradient895"
       id="linearGradient898" />
    <linearGradient
       xlink:href="#linearGradient895"
       id="linearGradient899" />
    <linearGradient
       xlink:href="#linearGradient895"
       id="linearGradient900" />
    <linearGradient
       xlink:href="#linearGradient895"
       id="linearGradient901" />
    <linearGradient
       xlink:href="#linearGradient895"
       id="linearGradient902" />
  </defs>
  <path
     sodipodi:nodetypes="cc"
     style="fill:none;fill-opacity:0.75000000;fill-rule:evenodd;stroke:#4c4c4c;stroke-width:3.1250000;stroke-linecap:round;stroke-linejoin:round;stroke-dasharray:3.1250000 3.1250000;stroke-dashoffset:0.0000000;stroke-opacity:1.0000000;"
     d="M 32.573680,16.738081 C 57.512904,13.175334 57.512905,2.2326133 57.512905,2.2326133"
     sodipodi:stroke-cmyk="(0.0000000 0.0000000 0.0000000 0.69999999)"
     id="path1160" />
  <path
     style="fill:#b3b3b3;fill-rule:evenodd;stroke:#4c4c4c;stroke-width:2.5000000;stroke-opacity:1.0000000;"
     d="M 32.626665,9.7073139 C 19.552575,6.6533119 6.4707290,14.803952 3.4167270,27.878041 C 0.36272500,40.952131 8.4863100,54.027655 21.560399,57.081659 C 34.634489,60.135661 47.737070,52.018396 50.791072,38.944307 C 53.845074,25.870217 45.700754,12.761316 32.626665,9.7073139 z M 30.673794,18.067492 C 39.145804,20.046486 44.436943,28.525746 42.457949,36.997756 C 40.478956,45.469766 31.978960,50.727529 23.506949,48.748536 C 15.034939,46.769542 9.7708570,38.296602 11.749850,29.824592 C 13.728844,21.352582 22.201784,16.088499 30.673794,18.067492 z "
     sodipodi:stroke-cmyk="(0.0000000 0.0000000 0.0000000 0.69999999)"
     id="path1150" />
  <path
     style="fill:#4c4c4c;fill-rule:evenodd;stroke:none;stroke-width:2.5000000;stroke-linecap:round;stroke-linejoin:round;stroke-opacity:1.0000000;"
     d="M 32.628155,9.7076622 C 27.868388,8.5958189 23.123514,9.0130979 18.845937,10.568307 L 21.821156,18.595989 C 24.572184,17.614778 27.619818,17.354108 30.675285,18.067841 C 34.142916,18.877851 37.019627,20.813313 39.141071,23.355079 L 46.416943,18.834713 C 43.106076,14.435659 38.399636,11.055833 32.628155,9.7076622 z "
     id="path1157" />
  <path
     style="fill:#4c4c4c;fill-rule:evenodd;stroke:none;stroke-width:2.5000000;stroke-linecap:round;stroke-linejoin:round;stroke-opacity:1.0000000;"
     d="M 3.2578010,38.932653 C 4.3854830,43.688698 6.8751450,47.749435 10.174885,50.884415 L 16.033036,44.641191 C 13.927875,42.616531 12.335342,40.005041 11.611442,36.951963 C 10.789892,33.487044 11.239210,30.049076 12.568037,27.016694 L 5.2771490,22.520567 C 2.8164550,27.445866 1.8904240,33.165686 3.2578010,38.932653 z "
     id="path1158" />
  <path
     style="fill:#4c4c4c;fill-rule:evenodd;stroke:none;stroke-width:2.5000000;stroke-linecap:round;stroke-linejoin:round;stroke-opacity:1.0000000;"
     d="M 46.013192,48.919906 C 42.895225,52.684194 38.864252,55.221755 34.517153,56.570486 L 32.031057,48.378115 C 34.815314,47.495588 37.399963,45.859860 39.401500,43.443427 C 41.673031,40.701033 42.793272,37.419792 42.945339,34.112532 L 51.473563,33.311637 C 51.497646,38.817355 49.793900,44.355500 46.013192,48.919906 z "
     id="path1159" />
  <path
     id="path841"
     style="font-size:12.000000;font-weight:900;fill:#333333;stroke-width:1.0000000pt;font-family:VAG Rounded Black SSi;"
     d="M 24.360411,35.706770 L 24.360411,33.293000 C 24.360411,32.795616 24.462813,32.415266 24.667618,32.151945 C 24.872423,31.888624 25.121114,31.708200 25.413693,31.610675 C 25.706270,31.513148 26.145137,31.410747 26.730293,31.303468 C 28.251700,31.020643 29.012404,30.255063 29.012404,29.006729 C 29.012404,28.499594 28.807600,28.046099 28.397989,27.646240 C 27.998133,27.236632 27.471491,27.031828 26.818068,27.031828 C 26.213406,27.031828 25.735529,27.148859 25.384435,27.382922 C 25.043093,27.616984 24.701752,27.958324 24.360411,28.406945 C 24.028822,28.845811 23.706986,29.182277 23.394903,29.416340 C 23.092572,29.640648 22.678086,29.752803 22.151446,29.752803 C 21.556537,29.752803 21.044525,29.528495 20.615410,29.079874 C 20.196048,28.621501 19.986367,28.085109 19.986367,27.470695 C 19.986367,26.397907 20.337461,25.456781 21.039649,24.647315 C 21.741836,23.837849 22.619571,23.218558 23.672852,22.789444 C 24.726134,22.360329 25.774539,22.145772 26.818068,22.145772 C 27.842091,22.145772 28.797845,22.296937 29.685333,22.599268 C 30.572821,22.901599 31.357905,23.345342 32.040589,23.930499 C 32.723270,24.515655 33.254788,25.227594 33.635138,26.066319 C 34.025242,26.895290 34.220294,27.821788 34.220294,28.845811 C 34.220294,30.679301 33.757048,32.103183 32.830549,33.117454 C 31.913803,34.121970 30.650842,34.790024 29.041663,35.121613 L 29.041663,35.706770 C 29.041663,36.174895 28.939259,36.589381 28.734455,36.950227 C 28.539403,37.301321 28.261454,37.579270 27.900606,37.784074 C 27.549512,37.979126 27.149656,38.076653 26.701037,38.076653 C 26.252416,38.076653 25.847684,37.979126 25.486838,37.784074 C 25.135744,37.579270 24.857794,37.301321 24.652989,36.950227 C 24.457937,36.589381 24.360411,36.174895 24.360411,35.706770 z M 24.097091,42.011830 C 24.097091,41.543705 24.214122,41.109712 24.448184,40.709856 C 24.691999,40.300247 25.013835,39.973534 25.413693,39.729719 C 25.813549,39.485905 26.242664,39.363997 26.701037,39.363997 C 27.159408,39.363997 27.588522,39.485905 27.988381,39.729719 C 28.388237,39.973534 28.705197,40.300247 28.939259,40.709856 C 29.183074,41.109712 29.304981,41.543705 29.304981,42.011830 C 29.304981,42.489707 29.183074,42.933450 28.939259,43.343060 C 28.705197,43.742917 28.383361,44.059876 27.973751,44.293938 C 27.573894,44.528001 27.149656,44.645032 26.701037,44.645032 C 26.252416,44.645032 25.823301,44.528001 25.413693,44.293938 C 25.013835,44.059876 24.691999,43.742917 24.448184,43.343060 C 24.214122,42.933450 24.097091,42.489707 24.097091,42.011830 z " />
  <metadata
     id="metadata18">
    <rdf:RDF
       id="RDF19">
      <cc:Work
         rdf:about=""
         id="Work20">
        <dc:title
           id="title21">Part of the Flat Icon Collection (Thu Aug 26 14:31:40 2004)</dc:title>
        <dc:description
           id="description23" />
        <dc:subject
           id="subject24">
          <rdf:Bag
             id="Bag25">
            <rdf:li
               id="li26" />
          </rdf:Bag>
        </dc:subject>
        <dc:publisher
           id="publisher27">
          <cc:Agent
             rdf:about=""
             id="Agent28">
            <dc:title
               id="title29" />
          </cc:Agent>
        </dc:publisher>
        <dc:creator
           id="creator30">
          <cc:Agent
             rdf:about=""
             id="Agent31">
            <dc:title
               id="title32">Danny Allen</dc:title>
          </cc:Agent>
        </dc:creator>
        <dc:rights
           id="rights34">
          <cc:Agent
             rdf:about=""
             id="Agent35">
            <dc:title
               id="title36">Danny Allen</dc:title>
          </cc:Agent>
        </dc:rights>
        <dc:date
           id="date38" />
        <dc:format
           id="format39">image/svg+xml</dc:format>
        <dc:type
           rdf:resource="http://purl.org/dc/dcmitype/StillImage"
           id="type41" />
        <cc:license
           rdf:resource="http://creativecommons.org/licenses/LGPL/2.1/"
           id="license42">
          <dc:date
             id="date43" />
        </cc:license>
        <dc:language
           id="language44">en</dc:language>
      </cc:Work>
    </rdf:RDF>
  </metadata>
</svg>
