<?xml version="1.0" encoding="UTF-8" standalone="no"?>
<!DOCTYPE svg PUBLIC "-//W3C//DTD SVG 20010904//EN"
"http://www.w3.org/TR/2001/REC-SVG-20010904/DTD/svg10.dtd">
<svg
   sodipodi:docname="hw_unknown.svg"
   height="60.0000000"
   sodipodi:version="0.32"
   width="60.0000000"
   _SVGFile__filename="scalable/apps/hw_unknown.svg"
   version="1.0"
   y="0"
   x="0"
   inkscape:version="0.39"
   id="svg1"
   sodipodi:docbase="/home/danny/work/flat/newscale/apps"
   xmlns="http://www.w3.org/2000/svg"
   xmlns:cc="http://web.resource.org/cc/"
   xmlns:inkscape="http://www.inkscape.org/namespaces/inkscape"
   xmlns:sodipodi="http://sodipodi.sourceforge.net/DTD/sodipodi-0.dtd"
   xmlns:rdf="http://www.w3.org/1999/02/22-rdf-syntax-ns#"
   xmlns:dc="http://purl.org/dc/elements/1.1/"
   xmlns:xlink="http://www.w3.org/1999/xlink">
  <sodipodi:namedview
     bordercolor="#666666"
     inkscape:pageshadow="2"
     inkscape:window-y="0"
     pagecolor="#ffffff"
     inkscape:window-height="699"
     inkscape:zoom="6.9465335"
     inkscape:window-x="0"
     borderopacity="1.0"
     inkscape:cx="37.203896"
     inkscape:cy="31.599852"
     inkscape:window-width="1024"
     inkscape:pageopacity="0.0"
     id="base" />
  <defs
     id="defs3">
    <linearGradient
       id="linearGradient777">
      <stop
         style="stop-color:#000;stop-opacity:1;"
         id="stop778"
         offset="0" />
      <stop
         style="stop-color:#fff;stop-opacity:1;"
         id="stop779"
         offset="1" />
    </linearGradient>
    <linearGradient
       xlink:href="#linearGradient777"
       id="linearGradient780" />
    <linearGradient
       xlink:href="#linearGradient777"
       id="linearGradient781" />
    <linearGradient
       xlink:href="#linearGradient777"
       id="linearGradient782" />
    <linearGradient
       xlink:href="#linearGradient777"
       id="linearGradient783" />
    <linearGradient
       xlink:href="#linearGradient777"
       id="linearGradient784" />
  </defs>
  <path
     style="font-size:12.000000;fill:#7f7f7f;fill-rule:evenodd;stroke:#4c4c4c;stroke-width:1.8750000;stroke-linecap:round;stroke-linejoin:round;stroke-opacity:1.0000000;"
     d="M 13.677030,51.714085 L 13.677030,57.660806 L 39.356055,57.660806 L 39.356055,51.714085 L 13.677030,51.714085 z "
     id="rect759" />
  <path
     style="font-size:12.000000;fill:#b3b3b3;fill-rule:evenodd;stroke:#4c4c4c;stroke-width:3.1250000;stroke-linejoin:round;stroke-opacity:1.0000000;"
     d="M 10.018080,21.710176 C 8.7506547,21.710176 7.7303085,22.730523 7.7303085,23.997948 L 7.7303085,49.156011 C 7.7303085,50.423437 8.7506547,51.443783 10.018080,51.443783 L 54.638139,51.443783 C 55.905565,51.443783 56.925911,50.423437 56.925911,49.156011 L 56.925911,23.997948 C 56.925911,22.730523 55.905565,21.710176 54.638139,21.710176 L 10.018080,21.710176 z "
     id="rect757" />
  <path
     style="font-size:12.000000;fill:#7f7f7f;fill-rule:evenodd;stroke:#4c4c4c;stroke-width:3.1250000;stroke-linejoin:round;stroke-opacity:1.0000000;"
     d="M 5.5297806,16.844681 C 4.3528854,16.844681 3.4054210,17.792145 3.4054210,18.969040 L 3.4054210,54.725551 C 3.4054210,55.902446 4.3528854,56.849911 5.5297806,56.849911 L 8.0386989,56.849911 C 9.2155941,56.849911 10.163059,55.902446 10.163059,54.725551 L 10.163059,18.969040 C 10.163059,17.792145 9.2155941,16.844681 8.0386989,16.844681 L 5.5297806,16.844681 z "
     id="rect758" />
  <g
     id="g1622"
     transform="translate(0.135153,0.000000)">
    <path
       style="fill:none;fill-opacity:0.75000000;fill-rule:evenodd;stroke:#4c4c4c;stroke-width:1.9915872;stroke-opacity:1.0000000;"
       d="M 18.812834,51.443782 L 18.812834,57.660808"
       sodipodi:stroke-cmyk="(0.0000000 0.0000000 0.0000000 0.69999999)"
       id="path773" />
    <path
       style="fill:none;fill-opacity:0.75000000;fill-rule:evenodd;stroke:#4c4c4c;stroke-width:1.9915872;stroke-opacity:1.0000000;"
       d="M 23.858537,51.984393 L 23.858537,57.390504"
       sodipodi:stroke-cmyk="(0.0000000 0.0000000 0.0000000 0.69999999)"
       id="path774" />
    <path
       style="fill:none;fill-opacity:0.75000000;fill-rule:evenodd;stroke:#4c4c4c;stroke-width:1.9915872;stroke-opacity:1.0000000;"
       d="M 28.904241,51.984393 L 28.904241,57.390504"
       sodipodi:stroke-cmyk="(0.0000000 0.0000000 0.0000000 0.69999999)"
       id="path775" />
    <path
       style="fill:none;fill-opacity:0.75000000;fill-rule:evenodd;stroke:#4c4c4c;stroke-width:1.9915872;stroke-opacity:1.0000000;"
       d="M 33.949944,51.984393 L 33.949944,56.849893"
       sodipodi:stroke-cmyk="(0.0000000 0.0000000 0.0000000 0.69999999)"
       id="path776" />
  </g>
  <path
     sodipodi:rx="17.304768"
     sodipodi:ry="17.304768"
     style="fill:#ffffff;fill-opacity:1.0000000;fill-rule:evenodd;stroke:none;stroke-width:1.0000000pt;"
     sodipodi:type="arc"
     d="M 58.785313 24.627018 A 17.304768 17.304768 0 1 0 24.175777,24.627018 A 17.304768 17.304768 0 1 0 58.785313 24.627018 z"
     transform="translate(-7.634456,-2.544819)"
     sodipodi:cy="24.627018"
     sodipodi:cx="41.480545"
     id="path857" />
  <path
     style="fill:#b3b3b3;fill-rule:evenodd;stroke:#333333;stroke-width:2.5000000;stroke-dasharray:none;stroke-opacity:1.0000000;"
     d="M 33.841511,3.0793104 C 23.468074,3.0793104 15.045191,11.502192 15.045192,21.875629 C 15.045192,32.249066 23.468073,40.671947 33.841511,40.671947 C 44.214948,40.671947 52.637839,32.249066 52.637832,21.875629 C 52.637832,11.502192 44.214948,3.0793104 33.841511,3.0793104 z M 33.497807,8.2993161 C 34.695112,8.2993161 35.832740,8.4828641 36.870405,8.8363545 C 37.908067,9.1898439 38.821834,9.6988483 39.620036,10.383023 C 40.418239,11.067195 41.044216,11.894228 41.488928,12.874877 C 41.945043,13.844124 42.154855,14.942762 42.154855,16.140066 C 42.154856,18.283811 41.627016,19.937876 40.543742,21.123776 C 39.471870,22.298275 38.000029,23.077561 36.118551,23.465261 L 36.118551,24.152668 C 36.118552,24.700007 35.992826,25.191504 35.753366,25.613411 C 35.525308,26.023915 35.187122,26.340619 34.765216,26.580078 C 34.354711,26.808137 33.893452,26.923783 33.368918,26.923783 C 32.844385,26.923784 32.373046,26.808136 31.951139,26.580078 C 31.540634,26.340620 31.223932,26.023915 30.984471,25.613411 C 30.756412,25.191503 30.640767,24.700007 30.640767,24.152668 L 30.640767,21.338591 C 30.640767,20.757043 30.745010,20.293135 30.984471,19.985256 C 31.223932,19.677377 31.523126,19.476321 31.865213,19.362293 C 32.207299,19.248263 32.727708,19.122538 33.411881,18.997107 C 35.190734,18.666422 36.075588,17.771489 36.075588,16.311919 C 36.075587,15.718967 35.824138,15.189806 35.345216,14.722286 C 34.877697,14.243365 34.261802,14.013397 33.497807,14.013397 C 32.790829,14.013397 32.232753,14.147876 31.822250,14.421546 C 31.423148,14.695215 31.039868,15.099977 30.640767,15.624511 C 30.253069,16.137640 29.867139,16.532324 29.502247,16.805993 C 29.148757,17.068260 28.657261,17.192661 28.041504,17.192661 C 27.345928,17.192659 26.760266,16.922377 26.258540,16.397845 C 25.768216,15.861908 25.528168,15.247336 25.528168,14.528953 C 25.528168,13.274635 25.931606,12.167241 26.752613,11.220801 C 27.573624,10.274360 28.592956,9.5528965 29.824470,9.0511691 C 31.055981,8.5494412 32.277698,8.2993161 33.497807,8.2993161 z M 33.325954,29.974158 C 33.861891,29.974157 34.362143,30.118715 34.829661,30.403788 C 35.297179,30.688860 35.651549,31.063385 35.925217,31.542307 C 36.210291,32.009826 36.354848,32.520155 36.354848,33.067494 C 36.354848,33.626235 36.210290,34.156724 35.925217,34.635645 C 35.651549,35.103165 35.287101,35.457532 34.808179,35.731201 C 34.340661,36.004871 33.850488,36.139350 33.325954,36.139350 C 32.801422,36.139348 32.301171,36.004870 31.822250,35.731201 C 31.354733,35.457532 30.968802,35.103165 30.683730,34.635645 C 30.410061,34.156724 30.275581,33.626235 30.275581,33.067494 C 30.275581,32.520155 30.410061,32.009826 30.683730,31.542307 C 30.968802,31.063385 31.354732,30.688860 31.822250,30.403788 C 32.289769,30.118714 32.790019,29.974158 33.325954,29.974158 z "
     sodipodi:stroke-cmyk="(0.0000000 0.0000000 0.0000000 0.80000001)"
     id="path839" />
  <metadata
     id="metadata970">
    <rdf:RDF
       id="RDF971">
      <cc:Work
         rdf:about=""
         id="Work972">
        <dc:title
           id="title973">Part of the Flat Icon Collection (Thu Aug 26 14:31:40 2004)</dc:title>
        <dc:description
           id="description975" />
        <dc:subject
           id="subject976">
          <rdf:Bag
             id="Bag977">
            <rdf:li
               id="li978" />
          </rdf:Bag>
        </dc:subject>
        <dc:publisher
           id="publisher979">
          <cc:Agent
             rdf:about=""
             id="Agent980">
            <dc:title
               id="title981" />
          </cc:Agent>
        </dc:publisher>
        <dc:creator
           id="creator982">
          <cc:Agent
             rdf:about=""
             id="Agent983">
            <dc:title
               id="title984">Danny Allen</dc:title>
          </cc:Agent>
        </dc:creator>
        <dc:rights
           id="rights986">
          <cc:Agent
             rdf:about=""
             id="Agent987">
            <dc:title
               id="title988">Danny Allen</dc:title>
          </cc:Agent>
        </dc:rights>
        <dc:date
           id="date990" />
        <dc:format
           id="format991">image/svg+xml</dc:format>
        <dc:type
           rdf:resource="http://purl.org/dc/dcmitype/StillImage"
           id="type993" />
        <cc:license
           rdf:resource="http://creativecommons.org/licenses/LGPL/2.1/"
           id="license994">
          <dc:date
             id="date995" />
        </cc:license>
        <dc:language
           id="language996">en</dc:language>
      </cc:Work>
    </rdf:RDF>
  </metadata>
</svg>
