<?xml version="1.0" encoding="UTF-8" standalone="no"?>
<!DOCTYPE svg PUBLIC "-//W3C//DTD SVG 20010904//EN"
"http://www.w3.org/TR/2001/REC-SVG-20010904/DTD/svg10.dtd">
<svg
   sodipodi:docname="icons.svg"
   height="60.0000000"
   sodipodi:version="0.32"
   width="60.0000000"
   _SVGFile__filename="scalable/apps/icons.svg"
   version="1.0"
   y="0"
   x="0"
   inkscape:version="0.39"
   id="svg1"
   sodipodi:docbase="/home/danny/work/flat/newscale/apps"
   xmlns="http://www.w3.org/2000/svg"
   xmlns:cc="http://web.resource.org/cc/"
   xmlns:inkscape="http://www.inkscape.org/namespaces/inkscape"
   xmlns:sodipodi="http://sodipodi.sourceforge.net/DTD/sodipodi-0.dtd"
   xmlns:rdf="http://www.w3.org/1999/02/22-rdf-syntax-ns#"
   xmlns:dc="http://purl.org/dc/elements/1.1/"
   xmlns:xlink="http://www.w3.org/1999/xlink">
  <sodipodi:namedview
     bordercolor="#666666"
     inkscape:pageshadow="2"
     inkscape:window-y="0"
     pagecolor="#ffffff"
     inkscape:window-height="699"
     inkscape:zoom="4.9119411"
     inkscape:window-x="0"
     borderopacity="1.0"
     inkscape:cx="35.407301"
     inkscape:cy="22.876417"
     inkscape:window-width="1024"
     inkscape:pageopacity="0.0"
     id="base" />
  <defs
     id="defs3">
    <linearGradient
       id="linearGradient777">
      <stop
         style="stop-color:#000;stop-opacity:1;"
         id="stop778"
         offset="0" />
      <stop
         style="stop-color:#fff;stop-opacity:1;"
         id="stop779"
         offset="1" />
    </linearGradient>
    <linearGradient
       xlink:href="#linearGradient777"
       id="linearGradient780" />
    <linearGradient
       xlink:href="#linearGradient777"
       id="linearGradient781" />
    <linearGradient
       xlink:href="#linearGradient777"
       id="linearGradient782" />
    <linearGradient
       xlink:href="#linearGradient777"
       id="linearGradient783" />
    <linearGradient
       xlink:href="#linearGradient777"
       id="linearGradient784" />
  </defs>
  <g
     id="g948"
     transform="translate(-0.127247,-0.466172)">
    <path
       transform="matrix(1.045752,0.000000,0.000000,1.045752,4.868421,-2.058163)"
       style="font-size:12.000000;fill:#b3b3b3;fill-opacity:1.0000000;fill-rule:evenodd;stroke:#333333;stroke-width:2.3906243;stroke-linecap:round;stroke-linejoin:round;stroke-dasharray:2.3906242 2.3906242 ;stroke-dashoffset:0.0000000;stroke-opacity:1.0000000;"
       d="M 6.8351555,6.0498419 C 5.7271555,6.0498419 4.8351555,6.9418419 4.8351555,8.0498419 L 4.8351555,42.985568 C 4.8351555,44.093568 5.7271555,44.985568 6.8351555,44.985568 L 41.770882,44.985568 C 42.878882,44.985568 43.770882,44.093568 43.770882,42.985568 L 43.770882,8.0498419 C 43.770882,6.9418419 42.878882,6.0498419 41.770882,6.0498419 L 6.8351555,6.0498419 z "
       id="rect787" />
    <g
       id="g943"
       transform="translate(0.801260,-0.300342)">
      <path
         id="path847"
         style="font-size:24.000000;fill:#333333;stroke-width:1.0000000pt;font-family:VAG Rounded Black SSi;"
         transform="matrix(1.242888,0.000000,0.000000,1.242888,36.64152,19.77760)"
         d="M -6.8225527,5.8193731 L -6.8225527,-8.1728144 C -6.8225527,-8.6884394 -6.6545839,-9.1181269 -6.3186464,-9.4618769 C -5.9827089,-9.8056269 -5.5491152,-9.9775019 -5.0178652,-9.9775019 C -4.4866152,-9.9775019 -4.0569277,-9.8173456 -3.7288027,-9.4970331 C -3.3928652,-9.1767206 -3.2248964,-8.7353144 -3.2248964,-8.1728144 L -3.2248964,-2.9462519 L 2.6813536,-9.2978144 C 3.0954161,-9.7509394 3.5602598,-9.9775019 4.0758848,-9.9775019 C 4.5524473,-9.9775019 4.9665098,-9.8134394 5.3180723,-9.4853144 C 5.6774473,-9.1650019 5.8571348,-8.7431269 5.8571348,-8.2196894 C 5.8571348,-7.9228144 5.7633848,-7.6298456 5.5758848,-7.3407831 C 5.3883848,-7.0595331 5.0876036,-6.7118769 4.6735411,-6.2978144 L 0.13838482,-1.7860956 L 5.6813536,4.0615606 C 6.0016661,4.3662481 6.2477598,4.6631231 6.4196348,4.9521856 C 6.5993223,5.2334356 6.6891661,5.5459356 6.6891661,5.8896856 C 6.6891661,6.4365606 6.5094786,6.8545294 6.1501036,7.1435919 C 5.7907286,7.4248419 5.3454161,7.5654669 4.8141661,7.5654669 C 4.5016661,7.5654669 4.2165098,7.4795294 3.9586973,7.3076544 C 3.7086973,7.1357794 3.3883848,6.8467169 2.9977598,6.4404669 L -3.2248964,-0.35640812 L -3.2248964,5.8193731 C -3.2248964,6.3115606 -3.3928652,6.7256231 -3.7288027,7.0615606 C -4.0647402,7.3974981 -4.4944277,7.5654669 -5.0178652,7.5654669 C -5.5413027,7.5654669 -5.9748964,7.4053106 -6.3186464,7.0849981 C -6.6545839,6.7646856 -6.8225527,6.3428106 -6.8225527,5.8193731 z " />
      <path
         style="font-size:12.000000;fill:#333333;fill-rule:evenodd;stroke:#333333;stroke-width:1.2929699;stroke-linecap:round;stroke-linejoin:round;"
         d="M 37.139197,181.14740 L 52.946277,197.70716 L 78.538546,180.39460 L 98.861908,189.42735 L 105.63634,219.09510 L 127.46505,218.89461 L 133.48682,188.45399 L 153.81015,180.39460 L 179.40244,196.95450 L 191.44592,180.39460 L 162.40179,152.98512 C 87.958944,221.26415 23.628859,116.02943 87.571178,72.003552 L 87.571095,56.196470 L 80.043997,59.960043 L 56.709788,45.126111 L 40.590920,58.363176 L 55.204367,83.294200 L 46.924507,103.61753 L 18.409265,108.35437 L 18.321270,129.96261 L 47.677259,137.48978 L 55.768940,157.24868 L 37.139197,181.14740 z "
         sodipodi:nodetypes="ccccccccccccccccccccccc"
         transform="matrix(0.181254,0.000000,0.000000,0.181254,10.47152,2.649017)"
         sodipodi:stroke-cmyk="(0 0 0 0.8)"
         id="path705" />
    </g>
    <path
       id="path842"
       style="font-size:12.000000;fill:#333333;stroke-width:1.0000000pt;font-family:VAG Rounded Black SSi;"
       d="M 53.468898,52.129011 C 53.468898,52.328229 53.400539,52.505964 53.263820,52.662214 C 53.131007,52.818464 52.964992,52.896589 52.765773,52.896589 C 52.675929,52.896589 52.504054,52.839948 52.250148,52.726667 C 52.000148,52.613386 51.806789,52.529401 51.670070,52.474714 C 51.533351,52.420026 51.381007,52.392683 51.213039,52.392683 C 51.048976,52.392683 50.910304,52.433698 50.797023,52.515729 C 50.683742,52.593854 50.627101,52.712995 50.627101,52.873151 C 50.627101,53.045026 50.798976,53.207136 51.142726,53.359479 C 51.486476,53.507917 51.849757,53.662214 52.232570,53.822370 C 52.615382,53.978620 52.943507,54.191511 53.216945,54.461042 C 53.490382,54.730573 53.627101,55.091901 53.627101,55.545026 C 53.627101,55.931745 53.523586,56.283308 53.316554,56.599714 C 53.113429,56.912214 52.824367,57.158308 52.449367,57.337995 C 52.074367,57.513776 51.646632,57.601667 51.166164,57.601667 C 50.826320,57.601667 50.468898,57.543073 50.093898,57.425886 C 49.718898,57.308698 49.400539,57.146589 49.138820,56.939558 C 48.881007,56.728620 48.752101,56.500104 48.752101,56.254011 C 48.752101,56.156354 48.781398,56.046979 48.839992,55.925886 C 48.902492,55.804792 48.992336,55.699323 49.109523,55.609479 C 49.226711,55.519636 49.355617,55.474714 49.496242,55.474714 C 49.652492,55.474714 49.789211,55.500104 49.906398,55.550886 C 50.023586,55.597761 50.172023,55.671979 50.351711,55.773542 C 50.531398,55.875104 50.689601,55.951276 50.826320,56.002058 C 50.966945,56.048933 51.121242,56.072370 51.289211,56.072370 C 51.543117,56.072370 51.718898,56.033308 51.816554,55.955183 C 51.918117,55.873151 51.968898,55.744245 51.968898,55.568464 C 51.968898,55.400495 51.798976,55.244245 51.459132,55.099714 C 51.119289,54.955183 50.752101,54.800886 50.357570,54.636823 C 49.966945,54.468854 49.636867,54.250104 49.367336,53.980573 C 49.101711,53.707136 48.968898,53.345808 48.968898,52.896589 C 48.968898,52.498151 49.068507,52.146589 49.267726,51.841901 C 49.466945,51.533308 49.744289,51.295026 50.099757,51.127058 C 50.455226,50.955183 50.859523,50.869245 51.312648,50.869245 C 51.629054,50.869245 51.951320,50.916120 52.279445,51.009870 C 52.611476,51.103620 52.892726,51.248151 53.123195,51.443464 C 53.353664,51.634870 53.468898,51.863386 53.468898,52.129011 z M 42.453273,56.552839 L 42.453273,51.900495 C 42.453273,51.607526 42.531398,51.375104 42.687648,51.203229 C 42.847804,51.027448 43.056789,50.939558 43.314601,50.939558 C 43.537257,50.939558 43.716945,50.994245 43.853664,51.103620 C 43.994289,51.212995 44.080226,51.369245 44.111476,51.572370 C 44.283351,51.334089 44.502101,51.158308 44.767726,51.045026 C 45.037257,50.927839 45.373195,50.869245 45.775539,50.869245 C 46.228664,50.869245 46.634914,50.962995 46.994289,51.150495 C 47.353664,51.334089 47.634914,51.603620 47.838039,51.959089 C 48.041164,52.310651 48.142726,52.726667 48.142726,53.207136 L 48.142726,56.552839 C 48.142726,56.740339 48.105617,56.910261 48.031398,57.062604 C 47.957179,57.211042 47.853664,57.326276 47.720851,57.408308 C 47.588039,57.486433 47.439601,57.525495 47.275539,57.525495 C 47.017726,57.525495 46.808742,57.437604 46.648586,57.261823 C 46.492336,57.082136 46.414211,56.845808 46.414211,56.552839 L 46.414211,53.517683 C 46.414211,53.123151 46.308742,52.824323 46.097804,52.621198 C 45.890773,52.418073 45.619289,52.316511 45.283351,52.316511 C 44.939601,52.316511 44.670070,52.429792 44.474757,52.656354 C 44.279445,52.882917 44.181789,53.170026 44.181789,53.517683 L 44.181789,56.552839 C 44.181789,56.740339 44.144679,56.910261 44.070461,57.062604 C 43.996242,57.211042 43.892726,57.326276 43.759914,57.408308 C 43.627101,57.486433 43.478664,57.525495 43.314601,57.525495 C 43.056789,57.525495 42.847804,57.437604 42.687648,57.261823 C 42.531398,57.082136 42.453273,56.845808 42.453273,56.552839 z M 38.621242,50.869245 C 39.066554,50.869245 39.482570,50.962995 39.869289,51.150495 C 40.259914,51.334089 40.589992,51.582136 40.859523,51.894636 C 41.132961,52.207136 41.343898,52.564558 41.492336,52.966901 C 41.644679,53.365339 41.720851,53.789167 41.720851,54.238386 C 41.720851,54.691511 41.646632,55.123151 41.498195,55.533308 C 41.349757,55.939558 41.140773,56.296979 40.871242,56.605573 C 40.601711,56.910261 40.269679,57.152448 39.875148,57.332136 C 39.484523,57.511823 39.066554,57.601667 38.621242,57.601667 C 38.019679,57.601667 37.482570,57.451276 37.009914,57.150495 C 36.541164,56.845808 36.175929,56.437604 35.914211,55.925886 C 35.656398,55.410261 35.527492,54.847761 35.527492,54.238386 C 35.527492,53.804792 35.601711,53.384870 35.750148,52.978620 C 35.898586,52.572370 36.109523,52.211042 36.382961,51.894636 C 36.660304,51.578229 36.992336,51.328229 37.379054,51.144636 C 37.765773,50.961042 38.179836,50.869245 38.621242,50.869245 z M 38.621242,52.462995 C 38.328273,52.462995 38.078273,52.548933 37.871242,52.720808 C 37.664211,52.892683 37.509914,53.117292 37.408351,53.394636 C 37.306789,53.668073 37.256007,53.949323 37.256007,54.238386 C 37.256007,54.535261 37.306789,54.818464 37.408351,55.087995 C 37.513820,55.357526 37.668117,55.578229 37.871242,55.750104 C 38.078273,55.918073 38.328273,56.002058 38.621242,56.002058 C 38.922023,56.002058 39.173976,55.918073 39.377101,55.750104 C 39.580226,55.578229 39.732570,55.357526 39.834132,55.087995 C 39.939601,54.818464 39.992336,54.535261 39.992336,54.238386 C 39.992336,53.953229 39.941554,53.673933 39.839992,53.400495 C 39.738429,53.123151 39.584132,52.898542 39.377101,52.726667 C 39.173976,52.550886 38.922023,52.462995 38.621242,52.462995 z M 35.181789,51.959089 C 35.181789,52.162214 35.117336,52.353620 34.988429,52.533308 C 34.863429,52.709089 34.707179,52.796979 34.519679,52.796979 C 34.382961,52.796979 34.172023,52.742292 33.886867,52.632917 C 33.601711,52.519636 33.357570,52.462995 33.154445,52.462995 C 32.916164,52.462995 32.705226,52.513776 32.521632,52.615339 C 32.338039,52.712995 32.183742,52.847761 32.058742,53.019636 C 31.937648,53.191511 31.847804,53.380964 31.789211,53.587995 C 31.730617,53.791120 31.701320,54.007917 31.701320,54.238386 C 31.701320,54.445417 31.732570,54.656354 31.795070,54.871198 C 31.861476,55.086042 31.957179,55.279401 32.082179,55.451276 C 32.207179,55.623151 32.361476,55.757917 32.545070,55.855573 C 32.732570,55.953229 32.935695,56.002058 33.154445,56.002058 C 33.275539,56.002058 33.398586,55.982526 33.523586,55.943464 C 33.652492,55.900495 33.824367,55.837995 34.039211,55.755964 C 34.254054,55.673933 34.386867,55.632917 34.437648,55.632917 C 34.640773,55.632917 34.814601,55.709089 34.959132,55.861433 C 35.107570,56.009870 35.181789,56.189558 35.181789,56.400495 C 35.181789,56.670026 35.058742,56.896589 34.812648,57.080183 C 34.570461,57.259870 34.279445,57.390729 33.939601,57.472761 C 33.599757,57.558698 33.308742,57.601667 33.066554,57.601667 C 32.464992,57.601667 31.927882,57.451276 31.455226,57.150495 C 30.986476,56.845808 30.621242,56.437604 30.359523,55.925886 C 30.101711,55.410261 29.972804,54.847761 29.972804,54.238386 C 29.972804,53.804792 30.047023,53.384870 30.195461,52.978620 C 30.343898,52.572370 30.554836,52.211042 30.828273,51.894636 C 31.105617,51.578229 31.437648,51.328229 31.824367,51.144636 C 32.211086,50.961042 32.625148,50.869245 33.066554,50.869245 C 33.332179,50.869245 33.631007,50.906354 33.963039,50.980573 C 34.298976,51.050886 34.586086,51.168073 34.824367,51.332136 C 35.062648,51.492292 35.181789,51.701276 35.181789,51.959089 z M 27.535304,56.552839 L 27.535304,51.900495 C 27.535304,51.607526 27.613429,51.375104 27.769679,51.203229 C 27.929836,51.027448 28.138820,50.939558 28.396632,50.939558 C 28.560695,50.939558 28.709132,50.980573 28.841945,51.062604 C 28.974757,51.140729 29.078273,51.254011 29.152492,51.402448 C 29.226711,51.546979 29.263820,51.712995 29.263820,51.900495 L 29.263820,56.552839 C 29.263820,56.740339 29.226711,56.910261 29.152492,57.062604 C 29.078273,57.211042 28.974757,57.326276 28.841945,57.408308 C 28.709132,57.486433 28.560695,57.525495 28.396632,57.525495 C 28.138820,57.525495 27.929836,57.437604 27.769679,57.261823 C 27.613429,57.082136 27.535304,56.845808 27.535304,56.552839 z M 28.396632,48.308698 C 28.556789,48.308698 28.713039,48.353620 28.865382,48.443464 C 29.021632,48.533308 29.144679,48.654401 29.234523,48.806745 C 29.324367,48.955183 29.369289,49.109479 29.369289,49.269636 C 29.369289,49.546979 29.273586,49.785261 29.082179,49.984479 C 28.894679,50.179792 28.666164,50.277448 28.396632,50.277448 C 28.138820,50.277448 27.912257,50.175886 27.716945,49.972761 C 27.521632,49.769636 27.423976,49.535261 27.423976,49.269636 C 27.423976,49.027448 27.523586,48.806745 27.722804,48.607526 C 27.922023,48.408308 28.146632,48.308698 28.396632,48.308698 z M 24.523586,56.652448 C 24.523586,56.398542 24.613429,56.179792 24.793117,55.996198 C 24.976711,55.808698 25.197414,55.714948 25.455226,55.714948 C 25.713039,55.714948 25.933742,55.806745 26.117336,55.990339 C 26.300929,56.173933 26.392726,56.394636 26.392726,56.652448 C 26.392726,56.910261 26.300929,57.132917 26.117336,57.320417 C 25.933742,57.507917 25.713039,57.601667 25.455226,57.601667 C 25.197414,57.601667 24.976711,57.507917 24.793117,57.320417 C 24.613429,57.132917 24.523586,56.910261 24.523586,56.652448 z M 21.213039,56.552839 L 21.213039,52.533308 L 20.826320,52.533308 C 20.591945,52.533308 20.408351,52.466901 20.275539,52.334089 C 20.138820,52.197370 20.070461,52.007917 20.070461,51.765729 C 20.070461,51.550886 20.142726,51.371198 20.287257,51.226667 C 20.431789,51.082136 20.611476,51.009870 20.826320,51.009870 L 21.213039,51.009870 L 21.213039,49.966901 C 21.213039,49.673933 21.291164,49.439558 21.447414,49.263776 C 21.607570,49.084089 21.816554,48.994245 22.074367,48.994245 C 22.242336,48.994245 22.392726,49.035261 22.525539,49.117292 C 22.658351,49.199323 22.759914,49.314558 22.830226,49.462995 C 22.904445,49.607526 22.941554,49.775495 22.941554,49.966901 L 22.941554,51.009870 L 23.433742,51.009870 C 23.672023,51.009870 23.869289,51.072370 24.025539,51.197370 C 24.181789,51.318464 24.259914,51.507917 24.259914,51.765729 C 24.259914,52.027448 24.181789,52.220808 24.025539,52.345808 C 23.873195,52.470808 23.675929,52.533308 23.433742,52.533308 L 22.941554,52.533308 L 22.941554,56.552839 C 22.941554,56.740339 22.904445,56.910261 22.830226,57.062604 C 22.756007,57.211042 22.652492,57.326276 22.519679,57.408308 C 22.386867,57.486433 22.238429,57.525495 22.074367,57.525495 C 21.816554,57.525495 21.607570,57.437604 21.447414,57.261823 C 21.291164,57.082136 21.213039,56.845808 21.213039,56.552839 z M 19.806789,52.076276 L 19.806789,56.388776 C 19.806789,56.724714 19.759914,56.998151 19.666164,57.209089 C 19.572414,57.420026 19.341945,57.525495 18.974757,57.525495 C 18.740382,57.525495 18.558742,57.464948 18.429836,57.343854 C 18.304836,57.218854 18.211086,57.031354 18.148586,56.781354 C 17.922023,57.054792 17.673976,57.259870 17.404445,57.396589 C 17.134914,57.533308 16.834132,57.601667 16.502101,57.601667 C 15.966945,57.601667 15.480617,57.459089 15.043117,57.173933 C 14.609523,56.884870 14.267726,56.484479 14.017726,55.972761 C 13.771632,55.457136 13.648586,54.879011 13.648586,54.238386 C 13.648586,53.617292 13.775539,53.048933 14.029445,52.533308 C 14.287257,52.013776 14.634914,51.607526 15.072414,51.314558 C 15.513820,51.017683 15.990382,50.869245 16.502101,50.869245 C 16.826320,50.869245 17.134914,50.935651 17.427882,51.068464 C 17.720851,51.201276 17.961086,51.398542 18.148586,51.660261 C 18.172023,51.449323 18.261867,51.277448 18.418117,51.144636 C 18.578273,51.007917 18.763820,50.939558 18.974757,50.939558 C 19.341945,50.939558 19.572414,51.045026 19.666164,51.255964 C 19.759914,51.462995 19.806789,51.736433 19.806789,52.076276 z M 15.377101,54.238386 C 15.377101,54.535261 15.427882,54.818464 15.529445,55.087995 C 15.634914,55.357526 15.789211,55.578229 15.992336,55.750104 C 16.199367,55.918073 16.449367,56.002058 16.742336,56.002058 C 17.027492,56.002058 17.269679,55.918073 17.468898,55.750104 C 17.672023,55.578229 17.824367,55.357526 17.925929,55.087995 C 18.027492,54.818464 18.078273,54.535261 18.078273,54.238386 C 18.078273,53.777448 17.961086,53.367292 17.726711,53.007917 C 17.496242,52.644636 17.168117,52.462995 16.742336,52.462995 C 16.449367,52.462995 16.199367,52.548933 15.992336,52.720808 C 15.785304,52.892683 15.631007,53.117292 15.529445,53.394636 C 15.427882,53.668073 15.377101,53.949323 15.377101,54.238386 z M 11.211086,56.552839 L 11.211086,49.093854 C 11.211086,48.804792 11.291164,48.570417 11.451320,48.390729 C 11.611477,48.211042 11.818508,48.121198 12.072414,48.121198 C 12.240383,48.121198 12.388820,48.162214 12.517727,48.244245 C 12.650539,48.326276 12.754055,48.443464 12.828273,48.595808 C 12.902492,48.744245 12.939602,48.910261 12.939602,49.093854 L 12.939602,56.552839 C 12.939602,56.740339 12.902492,56.910261 12.828273,57.062604 C 12.754055,57.211042 12.650539,57.326276 12.517727,57.408308 C 12.384914,57.486433 12.236477,57.525495 12.072414,57.525495 C 11.814602,57.525495 11.605617,57.437604 11.445461,57.261823 C 11.289211,57.082136 11.211086,56.845808 11.211086,56.552839 z M 8.0821797,56.552839 L 8.0821797,52.533308 L 7.6954609,52.533308 C 7.4610859,52.533308 7.2774922,52.466901 7.1446797,52.334089 C 7.0079609,52.197370 6.9396016,52.007917 6.9396016,51.765729 C 6.9396016,51.550886 7.0118672,51.371198 7.1563984,51.226667 C 7.3009297,51.082136 7.4806172,51.009870 7.6954609,51.009870 L 8.0821797,51.009870 L 8.0821797,50.113386 C 8.0821797,49.484479 8.2481953,48.996198 8.5802266,48.648542 C 8.9161641,48.296979 9.3536641,48.121198 9.8927266,48.121198 C 10.693508,48.121198 11.093898,48.384870 11.093898,48.912214 C 11.093898,49.408308 10.857570,49.656354 10.384914,49.656354 C 10.193508,49.656354 10.048977,49.693464 9.9513203,49.767683 C 9.8536641,49.837995 9.8048359,50.011823 9.8048359,50.289167 L 9.8048359,51.009870 L 10.349758,51.009870 C 10.931789,51.009870 11.222805,51.261823 11.222805,51.765729 C 11.222805,52.277448 10.931789,52.533308 10.349758,52.533308 L 9.8048359,52.533308 L 9.8048359,56.552839 C 9.8048359,56.740339 9.7677266,56.910261 9.6935078,57.062604 C 9.6231953,57.211042 9.5216328,57.326276 9.3888203,57.408308 C 9.2560078,57.486433 9.1075703,57.525495 8.9435078,57.525495 C 8.6856953,57.525495 8.4767109,57.437604 8.3165547,57.261823 C 8.1603047,57.082136 8.0821797,56.845808 8.0821797,56.552839 z " />
  </g>
  <metadata
     id="metadata16">
    <rdf:RDF
       id="RDF17">
      <cc:Work
         rdf:about=""
         id="Work18">
        <dc:title
           id="title19">Part of the Flat Icon Collection (Thu Aug 26 14:31:40 2004)</dc:title>
        <dc:description
           id="description21" />
        <dc:subject
           id="subject22">
          <rdf:Bag
             id="Bag23">
            <rdf:li
               id="li24" />
          </rdf:Bag>
        </dc:subject>
        <dc:publisher
           id="publisher25">
          <cc:Agent
             rdf:about=""
             id="Agent26">
            <dc:title
               id="title27" />
          </cc:Agent>
        </dc:publisher>
        <dc:creator
           id="creator28">
          <cc:Agent
             rdf:about=""
             id="Agent29">
            <dc:title
               id="title30">Danny Allen</dc:title>
          </cc:Agent>
        </dc:creator>
        <dc:rights
           id="rights32">
          <cc:Agent
             rdf:about=""
             id="Agent33">
            <dc:title
               id="title34">Danny Allen</dc:title>
          </cc:Agent>
        </dc:rights>
        <dc:date
           id="date36" />
        <dc:format
           id="format37">image/svg+xml</dc:format>
        <dc:type
           rdf:resource="http://purl.org/dc/dcmitype/StillImage"
           id="type39" />
        <cc:license
           rdf:resource="http://creativecommons.org/licenses/LGPL/2.1/"
           id="license40">
          <dc:date
             id="date41" />
        </cc:license>
        <dc:language
           id="language42">en</dc:language>
      </cc:Work>
    </rdf:RDF>
  </metadata>
</svg>
