<?xml version="1.0" encoding="UTF-8" standalone="no"?>
<!DOCTYPE svg PUBLIC "-//W3C//DTD SVG 20010904//EN"
"http://www.w3.org/TR/2001/REC-SVG-20010904/DTD/svg10.dtd">
<svg
   sodipodi:docname="gabber.svg"
   height="60.0000000"
   sodipodi:version="0.32"
   width="60.0000000"
   _SVGFile__filename="scalable/apps/gabber.svg"
   version="1.0"
   y="0"
   x="0"
   inkscape:version="0.39"
   id="svg1"
   sodipodi:docbase="/home/danny/work/flat/newscale/apps"
   xmlns="http://www.w3.org/2000/svg"
   xmlns:cc="http://web.resource.org/cc/"
   xmlns:inkscape="http://www.inkscape.org/namespaces/inkscape"
   xmlns:sodipodi="http://sodipodi.sourceforge.net/DTD/sodipodi-0.dtd"
   xmlns:rdf="http://www.w3.org/1999/02/22-rdf-syntax-ns#"
   xmlns:dc="http://purl.org/dc/elements/1.1/"
   xmlns:xlink="http://www.w3.org/1999/xlink">
  <sodipodi:namedview
     bordercolor="#666666"
     inkscape:pageshadow="2"
     inkscape:window-y="0"
     pagecolor="#ffffff"
     inkscape:window-height="685"
     inkscape:zoom="6.9465337"
     inkscape:window-x="0"
     borderopacity="1.0"
     inkscape:cx="38.224495"
     inkscape:cy="15.907096"
     inkscape:window-width="1016"
     inkscape:pageopacity="0.0"
     id="base" />
  <defs
     id="defs3">
    <linearGradient
       id="linearGradient900">
      <stop
         style="stop-color:#000;stop-opacity:1;"
         id="stop901"
         offset="0" />
      <stop
         style="stop-color:#fff;stop-opacity:1;"
         id="stop902"
         offset="1" />
    </linearGradient>
    <linearGradient
       xlink:href="#linearGradient900"
       id="linearGradient903" />
    <linearGradient
       xlink:href="#linearGradient900"
       id="linearGradient904" />
    <linearGradient
       xlink:href="#linearGradient900"
       id="linearGradient905" />
    <linearGradient
       xlink:href="#linearGradient900"
       id="linearGradient906" />
    <linearGradient
       xlink:href="#linearGradient900"
       id="linearGradient907" />
  </defs>
  <path
     id="path866"
     style="fill:#b3b3b3;fill-rule:evenodd;stroke:#333333;stroke-opacity:1.0000000;stroke-width:3.5267193;stroke-linejoin:round;stroke-linecap:round;fill-opacity:1.0000000;stroke-dasharray:none;"
     transform="matrix(0.936381,0.000000,0.000000,0.838505,1.366982,-6.449296)"
     d="M 30.781250 11.906250 C 22.674678 11.972948 15.978479 19.006628 14.509173 26.674176 C 13.455202 33.302353 14.711191 40.058227 16.274062 46.503574 C 17.378473 50.419574 18.519690 54.410635 20.529179 57.967492 C 22.795349 61.411477 27.099925 63.249887 31.155045 62.566846 C 34.198702 62.563592 37.868969 62.710607 39.984129 60.095258 C 43.499689 53.782942 44.961519 46.610124 46.563706 39.634082 C 47.940538 33.092980 48.200100 25.686389 44.285012 19.920451 C 41.363606 15.373018 36.362682 11.774338 30.781250 11.906250 z " />
  <g
     id="g1570"
     transform="translate(0.307876,0.000000)">
    <path
       style="fill:#4c4c4c;fill-opacity:1.0000000;fill-rule:evenodd;stroke:#333333;stroke-width:1.8750000;stroke-linejoin:round;stroke-opacity:1.0000000;"
       d="M 35.627462,52.111060 C 35.627462,55.271725 33.062285,57.836902 29.901620,57.836902 C 26.740955,57.836902 24.175777,55.271725 24.175777,52.111060"
       id="path859"
       sodipodi:nodetypes="ccc" />
    <path
       transform="translate(0.000000,-8.270661)"
       style="fill:#7f7f7f;fill-opacity:1.0000000;fill-rule:evenodd;stroke:#333333;stroke-width:3.1250000;stroke-linejoin:round;stroke-opacity:1.0000000;"
       d="M 22.050285,47.021423 C 19.280285,47.021423 17.050285,49.251423 17.050285,52.021423 L 17.050285,55.763445 C 17.050285,58.533445 19.280285,60.763445 22.050285,60.763445 L 37.752954,60.763445 C 40.522954,60.763445 42.752954,58.533445 42.752954,55.763445 L 42.752954,52.021423 C 42.752954,49.251423 40.522954,47.021423 37.752954,47.021423 L 22.050285,47.021423 z "
       id="rect858" />
    <path
       sodipodi:nodetypes="cccccc"
       style="fill:none;fill-opacity:0.75000000;fill-rule:evenodd;stroke:#333333;stroke-width:1.8750000;stroke-linecap:round;stroke-linejoin:round;stroke-opacity:1.0000000;"
       d="M 18.449937,40.913859 L 42.371233,43.840401 M 17.304768,44.476605 L 42.116751,47.784869 M 18.068214,48.421075 L 40.208138,51.474857"
       sodipodi:stroke-cmyk="(0.0000000 0.0000000 0.0000000 0.80000001)"
       id="path860" />
  </g>
  <path
     sodipodi:rx="10.370136"
     sodipodi:ry="10.370136"
     style="fill:#cccccc;fill-opacity:1.0000000;fill-rule:evenodd;stroke:none;stroke-width:1.0000000pt;"
     sodipodi:type="arc"
     d="M 42.116751 23.545471 A 10.370136 10.370136 0 1 0 21.376478,23.545471 A 10.370136 10.370136 0 1 0 42.116751 23.545471 z"
     transform="translate(-1.781373,-1.145168)"
     sodipodi:cy="23.545471"
     sodipodi:cx="31.746614"
     id="path864" />
  <path
     style="fill:none;fill-rule:evenodd;stroke:#333333;stroke-opacity:1.0000000;stroke-width:1pt;stroke-linejoin:round;stroke-linecap:round;fill-opacity:0.75;"
     transform="translate(0.000000,0.508964)"
     d="M 25.957152,37.860076 L 23.539574,23.736332 M 34.736777,37.987317 L 36.518150,24.754260"
     sodipodi:stroke-cmyk="(0.0000000 0.0000000 0.0000000 0.80000001)"
     id="path862" />
  <path
     style="fill:#333333;fill-rule:nonzero;stroke:none;fill-opacity:1.0000000;stroke-opacity:1;stroke-width:1pt;stroke-linejoin:miter;stroke-linecap:butt;"
     transform="translate(0.000000,0.508964)"
     id="path863"
     d="M 22.647004,26.196652 C 22.124230,25.896916 21.754765,25.421954 21.464324,24.902879 C 20.848719,23.684743 20.791613,22.579538 21.435834,21.349760 C 22.508689,19.604454 24.132034,18.161928 26.176381,17.740554 C 28.099271,17.564663 29.367511,18.485873 29.383274,20.423272 C 29.325763,21.747165 29.017810,23.124539 27.939319,23.988775 C 26.543384,24.862786 24.623557,24.449062 24.343587,22.690549 C 24.261970,21.237402 25.326888,20.470569 26.624753,20.126606 C 28.048680,19.841517 29.651347,19.948493 30.682428,21.085733 C 31.239065,21.824852 31.391579,22.722771 31.206918,23.622628 C 30.752758,25.164239 28.495411,25.182769 28.078378,23.599330 C 27.854994,22.118016 28.895088,21.217443 30.141209,20.659296 C 31.643893,20.080519 33.740401,19.630566 34.956961,20.999422 C 35.528201,21.869234 35.527878,23.040328 35.088425,23.970520 C 34.085138,25.587548 32.079967,24.505480 32.042174,22.905664 C 32.109898,21.650621 32.893567,20.866269 34.062534,20.499454 C 35.408371,20.202338 36.737419,20.511281 37.596833,21.629334 C 38.103100,22.375117 38.311051,23.191437 38.300850,24.087243 C 38.290448,24.345501 38.267868,24.601123 38.236825,24.857680 L 35.949508,24.752106 C 35.979585,24.526076 36.002849,24.300791 36.014892,24.073048 C 36.030921,23.400283 35.904084,22.771740 35.518308,22.210740 C 35.442858,22.112435 35.163793,21.762548 35.060080,21.760046 C 34.541087,21.791907 34.337303,22.471609 34.310658,22.885299 C 34.316973,23.126497 34.378205,23.299060 34.451800,23.519805 C 34.514568,23.708074 34.091075,23.329137 33.893213,23.313781 C 33.553932,23.287449 32.664126,23.795505 32.900082,23.550291 C 33.237117,23.028911 33.238373,22.162546 32.921945,21.631834 C 32.659219,21.263751 31.869058,21.610928 31.471609,21.757356 C 30.772770,22.057746 30.193736,22.536909 30.334616,23.374478 C 30.394782,23.579443 28.771369,23.878205 28.935574,23.435550 C 29.082811,22.868640 29.008297,22.218206 28.660491,21.738908 C 28.354079,21.374499 27.967620,21.325140 27.512101,21.401420 C 26.905474,21.535746 26.575678,21.924270 26.600450,22.562120 C 26.613179,22.646216 26.820970,23.077356 26.808674,23.114223 C 26.739929,23.320338 25.952052,23.193782 26.156881,23.121297 C 26.989391,22.613640 27.145901,21.313191 27.169628,20.439255 C 27.159571,20.142103 26.982929,19.096832 26.813070,19.056562 C 25.432863,19.138411 24.149798,20.649427 23.505782,21.733197 C 23.040932,22.681939 23.128852,23.533574 23.620908,24.449875 C 23.747395,24.660405 24.212259,25.113320 24.168517,25.088669 L 22.647004,26.196652 z " />
  <path
     style="fill:none;fill-rule:evenodd;stroke:#7f7f7f;stroke-opacity:1.0000000;stroke-width:1.8750000;stroke-linejoin:round;stroke-linecap:round;fill-opacity:0.75;stroke-dasharray:1.8750000,1.8750000;stroke-dashoffset:0.0000000;"
     d="M 12.342371,11.139479 L 2.9265416,4.5229502 M 10.942721,17.501526 L 4.8351557,16.229117 M 11.069962,23.481850 L 2.6720598,27.553560 M 44.916052,4.9046730 L 48.224316,1.9781314 M 49.878449,16.483598 L 57.258423,14.066021 M 48.478798,10.248792 L 55.731532,6.1770824"
     sodipodi:nodetypes="cccccccccccc"
     transform="translate(0.000000,0.890687)"
     sodipodi:stroke-cmyk="(0.0000000 0.0000000 0.0000000 0.50000000)"
     id="path871" />
  <metadata
     id="metadata20">
    <rdf:RDF
       id="RDF21">
      <cc:Work
         rdf:about=""
         id="Work22">
        <dc:title
           id="title23">Part of the Flat Icon Collection (Thu Aug 26 14:31:40 2004)</dc:title>
        <dc:description
           id="description25" />
        <dc:subject
           id="subject26">
          <rdf:Bag
             id="Bag27">
            <rdf:li
               id="li28" />
          </rdf:Bag>
        </dc:subject>
        <dc:publisher
           id="publisher29">
          <cc:Agent
             rdf:about=""
             id="Agent30">
            <dc:title
               id="title31" />
          </cc:Agent>
        </dc:publisher>
        <dc:creator
           id="creator32">
          <cc:Agent
             rdf:about=""
             id="Agent33">
            <dc:title
               id="title34">Danny Allen</dc:title>
          </cc:Agent>
        </dc:creator>
        <dc:rights
           id="rights36">
          <cc:Agent
             rdf:about=""
             id="Agent37">
            <dc:title
               id="title38">Danny Allen</dc:title>
          </cc:Agent>
        </dc:rights>
        <dc:date
           id="date40" />
        <dc:format
           id="format41">image/svg+xml</dc:format>
        <dc:type
           rdf:resource="http://purl.org/dc/dcmitype/StillImage"
           id="type43" />
        <cc:license
           rdf:resource="http://creativecommons.org/licenses/LGPL/2.1/"
           id="license44">
          <dc:date
             id="date45" />
        </cc:license>
        <dc:language
           id="language46">en</dc:language>
      </cc:Work>
    </rdf:RDF>
  </metadata>
</svg>
