<?xml version="1.0" encoding="UTF-8" standalone="no"?>
<!DOCTYPE svg PUBLIC "-//W3C//DTD SVG 20010904//EN"
"http://www.w3.org/TR/2001/REC-SVG-20010904/DTD/svg10.dtd">
<svg
   sodipodi:docname="kbruch.svg"
   height="60.0000000"
   sodipodi:version="0.32"
   width="60.0000000"
   _SVGFile__filename="scalable/apps/kbruch.svg"
   version="1.0"
   y="0"
   x="0"
   inkscape:version="0.39"
   id="svg1"
   sodipodi:docbase="/home/danny/work/flat/newscale/apps"
   xmlns="http://www.w3.org/2000/svg"
   xmlns:cc="http://web.resource.org/cc/"
   xmlns:inkscape="http://www.inkscape.org/namespaces/inkscape"
   xmlns:sodipodi="http://sodipodi.sourceforge.net/DTD/sodipodi-0.dtd"
   xmlns:rdf="http://www.w3.org/1999/02/22-rdf-syntax-ns#"
   xmlns:dc="http://purl.org/dc/elements/1.1/"
   xmlns:xlink="http://www.w3.org/1999/xlink">
  <sodipodi:namedview
     bordercolor="#666666"
     inkscape:pageshadow="2"
     inkscape:window-y="0"
     pagecolor="#ffffff"
     inkscape:window-height="685"
     inkscape:zoom="6.9465337"
     inkscape:window-x="0"
     borderopacity="1.0"
     inkscape:cx="40.106500"
     inkscape:cy="20.649302"
     inkscape:window-width="1016"
     inkscape:pageopacity="0.0"
     id="base" />
  <defs
     id="defs3">
    <linearGradient
       id="linearGradient900">
      <stop
         style="stop-color:#000;stop-opacity:1;"
         id="stop901"
         offset="0" />
      <stop
         style="stop-color:#fff;stop-opacity:1;"
         id="stop902"
         offset="1" />
    </linearGradient>
    <linearGradient
       xlink:href="#linearGradient900"
       id="linearGradient903" />
    <linearGradient
       xlink:href="#linearGradient900"
       id="linearGradient904" />
    <linearGradient
       xlink:href="#linearGradient900"
       id="linearGradient905" />
    <linearGradient
       xlink:href="#linearGradient900"
       id="linearGradient906" />
    <linearGradient
       xlink:href="#linearGradient900"
       id="linearGradient907" />
  </defs>
  <g
     id="g953"
     transform="translate(1.675824e-6,-0.274364)">
    <path
       sodipodi:nodetypes="cc"
       style="fill:none;fill-opacity:0.75000000;fill-rule:evenodd;stroke:#333333;stroke-width:2.8125000;stroke-linecap:round;stroke-linejoin:round;"
       d="M 4.8533697,30.969382 L 18.137325,30.969382"
       sodipodi:stroke-cmyk="(0.0000000 0.0000000 0.0000000 0.80000001)"
       id="path836"
       transform="translate(-0.105201,-0.298910)" />
    <path
       id="path859"
       style="font-size:12.000000;font-weight:900;fill:#333333;stroke-width:1.0000000pt;font-family:VAG Rounded Black SSi;"
       transform="matrix(2.212700,0.000000,0.000000,2.212700,-0.105201,-0.298910)"
       d="M 2.1005602,9.7296686 C 2.1005602,9.4991999 2.1962633,9.2921686 2.3876696,9.1085749 C 2.5829821,8.9249811 2.7880602,8.8331842 3.0029039,8.8331842 C 3.2333727,8.8331842 3.4091539,8.8878717 3.5302477,8.9972467 C 3.6552477,9.1027155 3.7939196,9.2706842 3.9462633,9.5011530 C 4.1025133,9.7277155 4.2665758,9.9015436 4.4384508,10.022637 C 4.6103258,10.139825 4.8427477,10.198419 5.1357164,10.198419 C 5.4130602,10.198419 5.6435289,10.098809 5.8271227,9.8995905 C 6.0146227,9.6964655 6.1083727,9.4523249 6.1083727,9.1671686 C 6.1083727,8.8234186 5.9950914,8.5812311 5.7685289,8.4406061 C 5.5458727,8.2999811 5.2548571,8.2257624 4.8954821,8.2179499 C 4.6728258,8.2101374 4.4794664,8.1300592 4.3154039,7.9777155 C 4.1513414,7.8214655 4.0693102,7.5949030 4.0693102,7.2980280 C 4.0693102,7.0402155 4.1396227,6.8507624 4.2802477,6.7296686 C 4.4247789,6.6046686 4.6943102,6.4933405 5.0888414,6.3956842 C 5.5771227,6.2941217 5.8212633,6.0304499 5.8212633,5.6046686 C 5.8212633,5.3937311 5.7509508,5.2335749 5.6103258,5.1241999 C 5.4697008,5.0109186 5.2958727,4.9542780 5.0888414,4.9542780 C 4.8739977,4.9542780 4.6923571,4.9991999 4.5439196,5.0890436 C 4.3993883,5.1788874 4.2450914,5.3097467 4.0810289,5.4816217 C 3.9169664,5.6534967 3.7724352,5.7804499 3.6474352,5.8624811 C 3.5263414,5.9445124 3.3661852,5.9855280 3.1669664,5.9855280 C 2.9364977,5.9855280 2.7470446,5.8937311 2.5986071,5.7101374 C 2.4501696,5.5226374 2.3759508,5.3156061 2.3759508,5.0890436 C 2.3759508,4.7023249 2.5146227,4.3566217 2.7919664,4.0519342 C 3.0732164,3.7433405 3.4247789,3.5031061 3.8466539,3.3312311 C 4.2724352,3.1593561 4.6786852,3.0734186 5.0654039,3.0734186 C 5.5497789,3.0734186 5.9911852,3.1671686 6.3896227,3.3546686 C 6.7880602,3.5421686 7.1044664,3.8156061 7.3388414,4.1749811 C 7.5732164,4.5304499 7.6904039,4.9503717 7.6904039,5.4347467 C 7.6904039,5.7589655 7.6122789,6.0714655 7.4560289,6.3722467 C 7.2997789,6.6730280 7.0595446,6.9445124 6.7353258,7.1866999 C 7.1845446,7.3663874 7.5282946,7.6495905 7.7665758,8.0363092 C 8.0048571,8.4230280 8.1239977,8.8722467 8.1239977,9.3839655 C 8.1239977,9.8878717 7.9911852,10.348809 7.7255602,10.766778 C 7.4638414,11.180840 7.1044664,11.505059 6.6474352,11.739434 C 6.1943102,11.969903 5.6864977,12.085137 5.1239977,12.085137 C 4.7060289,12.085137 4.3114977,12.020684 3.9404039,11.891778 C 3.5732164,11.762872 3.2509508,11.585137 2.9736071,11.358575 C 2.6962633,11.128106 2.4814196,10.870294 2.3290758,10.585137 C 2.1767321,10.296075 2.1005602,10.010919 2.1005602,9.7296686 z " />
    <path
       id="path862"
       style="font-size:12.000000;font-weight:900;fill:#333333;stroke-width:1.0000000pt;font-family:VAG Rounded Black SSi;"
       d="M 11.200256,34.544776 C 12.021375,34.544776 12.807921,34.661462 13.559893,34.894831 C 14.311866,35.119560 14.964439,35.456651 15.517614,35.906106 C 16.079433,36.346916 16.520244,36.908736 16.840048,37.591560 C 17.168496,38.274385 17.332720,39.043644 17.332720,39.899337 C 17.332720,40.737742 17.142566,41.494037 16.762258,42.168220 C 16.390593,42.833758 15.997321,43.335072 15.582439,43.672163 C 16.429489,44.190765 17.064775,44.856303 17.488300,45.668780 C 17.920468,46.472612 18.136552,47.341269 18.136552,48.274752 C 18.136552,49.441606 17.846999,50.500418 17.267894,51.451187 C 16.688789,52.393312 15.876314,53.136642 14.830467,53.681174 C 13.784621,54.217062 12.574550,54.485006 11.200256,54.485006 C 9.8346054,54.485006 8.6245351,54.212740 7.5700453,53.668208 C 6.5241987,53.123678 5.7117229,52.380348 5.1326179,51.438222 C 4.5621562,50.496097 4.2769252,49.441606 4.2769252,48.274752 C 4.2769252,47.349914 4.4930093,46.481254 4.9251773,45.668780 C 5.3573453,44.856303 5.9883104,44.190765 6.8180729,43.672163 C 6.3859049,43.309143 5.9839888,42.794863 5.6123244,42.129325 C 5.2493033,41.455142 5.0677927,40.711814 5.0677927,39.899337 C 5.0677927,38.758414 5.3400585,37.786036 5.8845901,36.982204 C 6.4377651,36.169727 7.1767724,35.560372 8.1016119,35.154133 C 9.0350947,34.747895 10.067976,34.544776 11.200256,34.544776 z M 8.7368987,47.820976 C 8.7368987,48.503802 8.9789127,49.091550 9.4629409,49.584221 C 9.9556124,50.068249 10.534717,50.310263 11.200256,50.310263 C 11.874438,50.310263 12.453543,50.068249 12.937571,49.584221 C 13.430243,49.091550 13.676579,48.503802 13.676579,47.820976 C 13.676579,47.112221 13.434565,46.520151 12.950536,46.044766 C 12.475152,45.560738 11.891725,45.318724 11.200256,45.318724 C 10.517431,45.318724 9.9340041,45.560738 9.4499760,46.044766 C 8.9745911,46.520151 8.7368987,47.112221 8.7368987,47.820976 z M 9.3721856,40.249393 C 9.3721856,40.733421 9.5536963,41.165590 9.9167174,41.545898 C 10.288382,41.917561 10.716228,42.103394 11.200256,42.103394 C 11.692928,42.103394 12.120774,41.921884 12.483795,41.558862 C 12.855460,41.187197 13.041292,40.750709 13.041292,40.249393 C 13.041292,39.912301 12.954858,39.605464 12.781991,39.328876 C 12.617767,39.043644 12.393040,38.818918 12.107809,38.654693 C 11.831221,38.481826 11.528704,38.395394 11.200256,38.395394 C 10.707585,38.395394 10.279738,38.581225 9.9167174,38.952890 C 9.5536963,39.324553 9.3721856,39.756722 9.3721856,40.249393 z " />
    <path
       id="path860"
       style="font-size:12.000000;font-weight:900;fill:#333333;stroke-width:1.0000000pt;font-family:VAG Rounded Black SSi;"
       d="M 41.655726,19.933424 C 41.655726,18.844361 41.828593,17.768262 42.174327,16.705129 C 42.528704,15.633352 42.973838,14.648009 43.509727,13.749100 C 44.054257,12.841547 44.685224,11.929673 45.402621,11.013477 C 46.543544,9.5959660 47.377631,8.5976579 47.904875,8.0185530 C 48.440762,7.4308045 48.885895,7.0332100 49.240273,6.8257694 C 49.603295,6.6096853 49.961993,6.5016433 50.316373,6.5016433 C 50.765827,6.5016433 51.146135,6.6183287 51.457296,6.8516993 C 51.777100,7.0850701 52.010471,7.3616576 52.157408,7.6814618 C 52.312987,7.9926228 52.390779,8.2864970 52.390779,8.5630845 C 52.390779,8.9779657 52.256807,9.3539519 51.988862,9.6910431 C 51.729560,10.028134 51.185030,10.646134 50.355268,11.545044 C 49.534148,12.435309 48.877253,13.256429 48.384582,14.008401 L 48.436441,14.060261 C 48.825391,13.904681 49.382890,13.826890 50.108932,13.826890 C 51.120205,13.826890 52.027757,14.116443 52.831589,14.695548 C 53.644066,15.266010 54.275030,16.017982 54.724485,16.951465 C 55.182582,17.876304 55.411632,18.835717 55.411632,19.829703 C 55.411632,21.057061 55.117757,22.176376 54.530009,23.187648 C 53.950905,24.198921 53.134107,24.994110 52.079618,25.573215 C 51.025127,26.152321 49.845309,26.441873 48.540161,26.441873 C 47.174511,26.441873 45.964441,26.169607 44.909950,25.625077 C 43.864104,25.080544 43.060272,24.311286 42.498452,23.317299 C 41.936634,22.323312 41.655726,21.195354 41.655726,19.933424 z M 46.128663,19.829703 C 46.128663,20.253228 46.236707,20.655144 46.452791,21.035452 C 46.668874,21.407117 46.962749,21.705313 47.334412,21.930040 C 47.714720,22.154766 48.116637,22.267132 48.540161,22.267132 C 48.963685,22.267132 49.361281,22.154766 49.732946,21.930040 C 50.113254,21.705313 50.411448,21.407117 50.627534,21.035452 C 50.843617,20.655144 50.951659,20.253228 50.951659,19.829703 C 50.951659,19.155521 50.718288,18.580738 50.251547,18.105353 C 49.784805,17.621325 49.214344,17.379311 48.540161,17.379311 C 47.874623,17.379311 47.304160,17.621325 46.828777,18.105353 C 46.362034,18.580738 46.128663,19.155521 46.128663,19.829703 z " />
    <path
       id="path861"
       style="font-size:12.000000;font-weight:900;fill:#333333;stroke-width:1.0000000pt;font-family:VAG Rounded Black SSi;"
       d="M 49.538469,52.125369 L 49.538469,50.297298 L 42.446593,50.297298 C 41.720551,50.297298 41.180340,50.124431 40.825963,49.778697 C 40.480229,49.424320 40.307362,49.031045 40.307362,48.598879 C 40.307362,47.985199 40.579628,47.276443 41.124160,46.472611 L 47.438132,36.593251 C 47.809797,36.022790 48.233322,35.629518 48.708707,35.413432 C 49.184092,35.188706 49.780483,35.076343 50.497883,35.076343 C 51.154778,35.076343 51.720917,35.214637 52.196303,35.491224 C 52.671688,35.759167 53.039029,36.139475 53.298331,36.632148 C 53.557631,37.116176 53.687282,37.686636 53.687282,38.343532 L 53.687282,46.446680 L 54.581870,46.446680 C 55.281981,46.446680 55.817871,46.606583 56.189534,46.926387 C 56.569841,47.237548 56.759996,47.721576 56.759996,48.378471 C 56.759996,49.018081 56.569841,49.497788 56.189534,49.817592 C 55.817871,50.137395 55.281981,50.297298 54.581870,50.297298 L 53.687282,50.297298 L 53.687282,52.073508 C 53.687282,52.860054 53.501450,53.460767 53.129785,53.875648 C 52.766763,54.281886 52.261128,54.485006 51.612876,54.485006 C 50.973268,54.485006 50.467631,54.281886 50.095966,53.875648 C 49.724301,53.460767 49.538469,52.877340 49.538469,52.125369 z M 49.538469,46.446680 L 49.538469,39.614106 L 49.486610,39.614106 L 45.558203,46.446680 L 49.538469,46.446680 z " />
    <path
       sodipodi:nodetypes="cc"
       style="fill:none;fill-opacity:0.75000000;fill-rule:evenodd;stroke:#333333;stroke-width:2.8125000;stroke-linecap:round;stroke-linejoin:round;"
       d="M 42.040100,30.670472 L 55.324054,30.670472"
       sodipodi:stroke-cmyk="(0.0000000 0.0000000 0.0000000 0.80000001)"
       id="path849" />
    <path
       style="font-size:12.000000;fill:#333333;fill-rule:evenodd;stroke:#333333;stroke-width:0.96604538;stroke-linecap:round;stroke-linejoin:round;"
       d="M 37.661445,30.183237 C 37.075133,29.716778 34.906673,29.342326 31.419798,29.229229 C 30.967737,20.759148 28.826913,20.787739 28.638966,29.219080 C 20.069721,29.774807 20.131980,31.936817 28.689711,31.999912 C 29.122098,40.531141 31.018099,40.427854 31.379202,31.908570 C 36.313092,31.594283 38.480764,30.835071 37.661445,30.183237 z "
       sodipodi:stroke-cmyk="(0.0000000 0.0000000 0.0000000 0.80000001)"
       id="path1130" />
  </g>
  <metadata
     id="metadata20">
    <rdf:RDF
       id="RDF21">
      <cc:Work
         rdf:about=""
         id="Work22">
        <dc:title
           id="title23">Part of the Flat Icon Collection (Thu Aug 26 14:31:40 2004)</dc:title>
        <dc:description
           id="description25" />
        <dc:subject
           id="subject26">
          <rdf:Bag
             id="Bag27">
            <rdf:li
               id="li28" />
          </rdf:Bag>
        </dc:subject>
        <dc:publisher
           id="publisher29">
          <cc:Agent
             rdf:about=""
             id="Agent30">
            <dc:title
               id="title31" />
          </cc:Agent>
        </dc:publisher>
        <dc:creator
           id="creator32">
          <cc:Agent
             rdf:about=""
             id="Agent33">
            <dc:title
               id="title34">Danny Allen</dc:title>
          </cc:Agent>
        </dc:creator>
        <dc:rights
           id="rights36">
          <cc:Agent
             rdf:about=""
             id="Agent37">
            <dc:title
               id="title38">Danny Allen</dc:title>
          </cc:Agent>
        </dc:rights>
        <dc:date
           id="date40" />
        <dc:format
           id="format41">image/svg+xml</dc:format>
        <dc:type
           rdf:resource="http://purl.org/dc/dcmitype/StillImage"
           id="type43" />
        <cc:license
           rdf:resource="http://creativecommons.org/licenses/LGPL/2.1/"
           id="license44">
          <dc:date
             id="date45" />
        </cc:license>
        <dc:language
           id="language46">en</dc:language>
      </cc:Work>
    </rdf:RDF>
  </metadata>
</svg>
