<?xml version="1.0" encoding="UTF-8" standalone="no"?>
<!DOCTYPE svg PUBLIC "-//W3C//DTD SVG 20010904//EN"
"http://www.w3.org/TR/2001/REC-SVG-20010904/DTD/svg10.dtd">
<svg
   sodipodi:docname="calc.svg"
   height="60.0000000"
   sodipodi:version="0.32"
   width="60.0000000"
   _SVGFile__filename="scalable/apps/calc.svg"
   version="1.0"
   y="0"
   x="0"
   inkscape:version="0.39"
   id="svg1"
   sodipodi:docbase="/home/danny/work/flat/newscale/apps"
   xmlns="http://www.w3.org/2000/svg"
   xmlns:cc="http://web.resource.org/cc/"
   xmlns:inkscape="http://www.inkscape.org/namespaces/inkscape"
   xmlns:sodipodi="http://sodipodi.sourceforge.net/DTD/sodipodi-0.dtd"
   xmlns:rdf="http://www.w3.org/1999/02/22-rdf-syntax-ns#"
   xmlns:dc="http://purl.org/dc/elements/1.1/"
   xmlns:xlink="http://www.w3.org/1999/xlink">
  <sodipodi:namedview
     bordercolor="#666666"
     inkscape:pageshadow="2"
     inkscape:window-y="0"
     pagecolor="#ffffff"
     inkscape:window-height="699"
     inkscape:zoom="6.9465337"
     inkscape:window-x="0"
     borderopacity="1.0"
     inkscape:cx="31.984200"
     inkscape:cy="20.561921"
     inkscape:window-width="1024"
     inkscape:pageopacity="0.0"
     id="base" />
  <defs
     id="defs3" />
  <g
     id="g1562"
     transform="translate(-4.279189e-2,-0.332209)">
    <path
       style="font-size:12.000000;fill:#4c4c4c;fill-opacity:1.0000000;fill-rule:evenodd;stroke:#333333;stroke-width:3.1250000;stroke-linejoin:round;stroke-miterlimit:4.0000000;stroke-opacity:1.0000000;"
       d="M 6.8437500,5.2812500 C 5.7357500,5.2812500 4.8437500,6.1732500 4.8437500,7.2812500 L 4.8437500,53.281250 C 4.8437500,54.389250 5.7357500,55.281250 6.8437500,55.281250 L 53.343750,55.281250 C 54.451750,55.281250 55.343750,54.389250 55.343750,53.281250 L 55.343750,7.2812500 C 55.343750,6.1732500 54.451750,5.2812500 53.343750,5.2812500 L 6.8437500,5.2812500 z M 14.062500,10.625000 L 46.125000,10.625000 C 48.341000,10.625000 50.124998,12.377264 50.125000,14.562500 C 50.125000,16.747736 48.340998,18.531251 46.125000,18.531250 L 14.062500,18.531250 C 11.846500,18.531250 10.062500,16.747736 10.062500,14.562500 C 10.062500,12.377264 11.846500,10.625000 14.062500,10.625000 z "
       id="rect583" />
    <g
       id="g1552"
       transform="translate(-1.374100e-2,0.000000)">
      <path
         style="font-size:12.000000;fill:#cccccc;fill-opacity:1.0000000;fill-rule:evenodd;stroke:#cccccc;stroke-width:1.8750000;stroke-linecap:round;stroke-linejoin:round;stroke-opacity:1.0000000;"
         d="M 10.611869,23.793591 L 10.611869,29.404916 L 20.688973,29.404916 L 20.688973,23.793591 L 10.611869,23.793591 z "
         id="rect585" />
      <path
         style="font-size:12.000000;fill:#cccccc;fill-opacity:1.0000000;fill-rule:evenodd;stroke:#cccccc;stroke-width:1.8750000;stroke-linecap:round;stroke-linejoin:round;stroke-opacity:1.0000000;"
         d="M 25.068939,23.793591 L 25.068939,29.404916 L 35.146044,29.404916 L 35.146044,23.793591 L 25.068939,23.793591 z "
         id="rect586" />
      <path
         style="font-size:12.000000;fill:#cccccc;fill-opacity:1.0000000;fill-rule:evenodd;stroke:#cccccc;stroke-width:1.8750000;stroke-linecap:round;stroke-linejoin:round;stroke-opacity:1.0000000;"
         d="M 39.526009,23.793591 L 39.526009,29.404916 L 49.603113,29.404916 L 49.603113,23.793591 L 39.526009,23.793591 z "
         id="rect587" />
      <path
         style="font-size:12.000000;fill:#cccccc;fill-opacity:1.0000000;fill-rule:evenodd;stroke:#cccccc;stroke-width:1.8750000;stroke-linecap:round;stroke-linejoin:round;stroke-opacity:1.0000000;"
         d="M 10.611869,34.036495 L 10.611869,39.647820 L 20.688973,39.647820 L 20.688973,34.036495 L 10.611869,34.036495 z "
         id="rect588" />
      <path
         style="font-size:12.000000;fill:#cccccc;fill-opacity:1.0000000;fill-rule:evenodd;stroke:#cccccc;stroke-width:1.8750000;stroke-linecap:round;stroke-linejoin:round;stroke-opacity:1.0000000;"
         d="M 25.068939,34.036495 L 25.068939,39.647820 L 35.146044,39.647820 L 35.146044,34.036495 L 25.068939,34.036495 z "
         id="rect589" />
      <path
         style="font-size:12.000000;fill:#cccccc;fill-opacity:1.0000000;fill-rule:evenodd;stroke:#cccccc;stroke-width:1.8750000;stroke-linecap:round;stroke-linejoin:round;stroke-opacity:1.0000000;"
         d="M 39.526009,34.036495 L 39.526009,39.647820 L 49.603113,39.647820 L 49.603113,34.036495 L 39.526009,34.036495 z "
         id="rect590" />
      <path
         style="font-size:12.000000;fill:#cccccc;fill-opacity:1.0000000;fill-rule:evenodd;stroke:#cccccc;stroke-width:1.8750000;stroke-linecap:round;stroke-linejoin:round;stroke-opacity:1.0000000;"
         d="M 10.611869,44.279396 L 10.611869,49.890721 L 20.688973,49.890721 L 20.688973,44.279396 L 10.611869,44.279396 z "
         id="rect591" />
      <path
         style="font-size:12.000000;fill:#cccccc;fill-opacity:1.0000000;fill-rule:evenodd;stroke:#cccccc;stroke-width:1.8750000;stroke-linecap:round;stroke-linejoin:round;stroke-opacity:1.0000000;"
         d="M 25.068939,44.279396 L 25.068939,49.890721 L 35.146044,49.890721 L 35.146044,44.279396 L 25.068939,44.279396 z "
         id="rect592" />
      <path
         style="font-size:12.000000;fill:#cccccc;fill-opacity:1.0000000;fill-rule:evenodd;stroke:#cccccc;stroke-width:1.8750000;stroke-linecap:round;stroke-linejoin:round;stroke-opacity:1.0000000;"
         d="M 39.526009,44.279396 L 39.526009,49.890721 L 49.603113,49.890721 L 49.603113,44.279396 L 39.526009,44.279396 z "
         id="rect593" />
    </g>
  </g>
  <metadata
     id="metadata15">
    <rdf:RDF
       id="RDF16">
      <cc:Work
         rdf:about=""
         id="Work17">
        <dc:format
           id="format18">image/svg+xml</dc:format>
        <dc:type
           id="type20"
           rdf:resource="http://purl.org/dc/dcmitype/StillImage" />
      </cc:Work>
    </rdf:RDF>
  </metadata>
</svg>
