<?xml version="1.0" encoding="UTF-8" standalone="no"?>
<!DOCTYPE svg PUBLIC "-//W3C//DTD SVG 20010904//EN"
"http://www.w3.org/TR/2001/REC-SVG-20010904/DTD/svg10.dtd">
<svg
   sodipodi:docname="kcmpartitions.svg"
   height="60.0000000"
   sodipodi:version="0.32"
   width="60.0000000"
   _SVGFile__filename="scalable/apps/kcmpartitions.svg"
   version="1.0"
   y="0"
   x="0"
   inkscape:version="0.39"
   id="svg1"
   sodipodi:docbase="/home/danny/work/flat/newscale/apps"
   xmlns="http://www.w3.org/2000/svg"
   xmlns:cc="http://web.resource.org/cc/"
   xmlns:inkscape="http://www.inkscape.org/namespaces/inkscape"
   xmlns:sodipodi="http://sodipodi.sourceforge.net/DTD/sodipodi-0.dtd"
   xmlns:rdf="http://www.w3.org/1999/02/22-rdf-syntax-ns#"
   xmlns:dc="http://purl.org/dc/elements/1.1/"
   xmlns:xlink="http://www.w3.org/1999/xlink">
  <sodipodi:namedview
     bordercolor="#666666"
     inkscape:pageshadow="2"
     inkscape:window-y="0"
     pagecolor="#ffffff"
     inkscape:window-height="685"
     inkscape:zoom="4.9119411"
     inkscape:window-x="0"
     borderopacity="1.0"
     inkscape:cx="31.930853"
     inkscape:cy="23.705975"
     inkscape:window-width="1016"
     inkscape:pageopacity="0.0"
     id="base" />
  <defs
     id="defs3" />
  <metadata
     id="metadata9">
    <rdf:RDF
       id="RDF10">
      <cc:Work
         rdf:about=""
         id="Work11">
        <dc:title
           id="title12">Part of the Flat Icon Collection (Thu Aug 26 14:31:40 2004)</dc:title>
        <dc:description
           id="description14" />
        <dc:subject
           id="subject15">
          <rdf:Bag
             id="Bag16">
            <rdf:li
               id="li17" />
          </rdf:Bag>
        </dc:subject>
        <dc:publisher
           id="publisher18">
          <cc:Agent
             rdf:about=""
             id="Agent19">
            <dc:title
               id="title20" />
          </cc:Agent>
        </dc:publisher>
        <dc:creator
           id="creator21">
          <cc:Agent
             rdf:about=""
             id="Agent22">
            <dc:title
               id="title23">Danny Allen</dc:title>
          </cc:Agent>
        </dc:creator>
        <dc:rights
           id="rights25">
          <cc:Agent
             rdf:about=""
             id="Agent26">
            <dc:title
               id="title27">Danny Allen</dc:title>
          </cc:Agent>
        </dc:rights>
        <dc:date
           id="date29" />
        <dc:format
           id="format30">image/svg+xml</dc:format>
        <dc:type
           rdf:resource="http://purl.org/dc/dcmitype/StillImage"
           id="type32" />
        <cc:license
           rdf:resource="http://creativecommons.org/licenses/LGPL/2.1/"
           id="license33">
          <dc:date
             id="date34" />
        </cc:license>
        <dc:language
           id="language35">en</dc:language>
      </cc:Work>
    </rdf:RDF>
  </metadata>
  <path
     style="font-size:12.000000;fill:#7f7f7f;fill-opacity:1.0000000;fill-rule:evenodd;stroke:none;stroke-width:3.1250000;"
     d="M 16.437500 3.1250000 C 15.410402 3.1250000 14.562500 3.9416517 14.562500 4.9687500 L 14.562500 28.437500 L 25.031250 28.437500 L 25.031250 3.1250000 L 16.437500 3.1250000 z M 33.937500 3.1250000 L 33.937500 28.437500 L 51.718750 28.437500 L 51.718750 4.9687500 C 51.718752 3.9416515 50.902098 3.1250000 49.875000 3.1250000 L 33.937500 3.1250000 z M 14.562500 37.343750 L 14.562500 49.031250 C 14.562500 50.058347 15.410401 50.875000 16.437500 50.875000 L 25.031250 50.875000 L 25.031250 37.343750 L 14.562500 37.343750 z M 33.937500 37.343750 L 33.937500 50.875000 L 49.875000 50.875000 C 50.902098 50.875002 51.718750 50.058348 51.718750 49.031250 L 51.718750 37.343750 L 33.937500 37.343750 z "
     id="rect783" />
  <path
     style="font-size:12.000000;fill:#b3b3b3;fill-opacity:1.0000000;fill-rule:evenodd;stroke:#333333;stroke-width:3.1250021;stroke-linecap:round;stroke-linejoin:round;stroke-opacity:1.0000000;"
     d="M 11.625000 7.8125000 C 10.597902 7.8125000 9.7500000 8.6291517 9.7500000 9.6562500 L 9.7500000 28.437500 L 25.031250 28.437500 L 25.031250 7.8125000 L 11.625000 7.8125000 z M 33.937500 7.8125000 L 33.937500 28.437500 L 46.906250 28.437500 L 46.906250 9.6562500 C 46.906250 8.6291521 46.089598 7.8125000 45.062500 7.8125000 L 33.937500 7.8125000 z M 9.7500000 37.343750 L 9.7500000 53.718750 C 9.7500000 54.745850 10.597902 55.562500 11.625000 55.562500 L 25.031250 55.562500 L 25.031250 37.343750 L 9.7500000 37.343750 z M 33.937500 37.343750 L 33.937500 55.562500 L 45.062500 55.562500 C 46.089600 55.562500 46.906250 54.745848 46.906250 53.718750 L 46.906250 37.343750 L 33.937500 37.343750 z "
     id="rect782" />
  <path
     style="font-size:12.000000;fill:#cccccc;fill-opacity:1.0000000;fill-rule:evenodd;stroke:#333333;stroke-width:1.8750000;stroke-linecap:round;stroke-linejoin:round;stroke-miterlimit:4.0000000;"
     d="M 21.531250 12.093750 L 21.531250 23.781250 C 19.435786 24.900872 17.671012 26.521558 16.312500 28.437500 L 25.031250 28.437500 L 25.031250 12.093750 L 21.531250 12.093750 z M 33.937500 12.093750 L 33.937500 28.437500 L 40.937500 28.437500 L 40.937500 12.093750 L 33.937500 12.093750 z M 13.718750 37.343750 C 14.058319 43.971393 18.757237 49.426886 25.031250 50.875000 L 25.031250 37.343750 L 13.718750 37.343750 z M 33.937500 37.343750 L 33.937500 50.156250 C 39.046620 48.045970 42.639702 43.137965 42.937500 37.343750 L 33.937500 37.343750 z "
     id="path621" />
  <path
     style="font-size:12.000000;fill:#b3b3b3;fill-opacity:1.0000000;fill-rule:evenodd;stroke:#333333;stroke-width:1.2500000;stroke-linecap:round;stroke-linejoin:round;stroke-miterlimit:4.0000000;"
     d="M 25.031250 26.156250 C 23.502754 26.651451 22.101622 27.383628 20.937500 28.437500 L 25.031250 28.437500 L 25.031250 26.156250 z M 33.937500 27.093750 L 33.937500 28.437500 L 35.906250 28.437500 C 35.314243 27.901881 34.633624 27.494900 33.937500 27.093750 z M 17.312500 37.343750 C 17.597998 42.039786 20.726233 45.855872 25.031250 47.250000 L 25.031250 37.343750 L 17.312500 37.343750 z M 33.937500 37.343750 L 33.937500 46.312500 C 37.121483 44.477689 39.327117 41.221227 39.562500 37.343750 L 33.937500 37.343750 z "
     id="path619" />
  <path
     style="font-size:12.000000;fill:#4c4c4c;fill-opacity:1.0000000;fill-rule:evenodd;stroke:#4c4c4c;stroke-width:1.2500000;stroke-linecap:round;stroke-linejoin:round;stroke-miterlimit:4.0000000;stroke-opacity:1.0000000;"
     d="M 13.230895,49.550040 L 13.230895,52.153687 L 15.105521,52.153687 L 15.105521,49.550040 L 13.230895,49.550040 z "
     id="path953" />
</svg>
