<?xml version="1.0" encoding="UTF-8" standalone="no"?>
<!DOCTYPE svg PUBLIC "-//W3C//DTD SVG 20010904//EN"
"http://www.w3.org/TR/2001/REC-SVG-20010904/DTD/svg10.dtd">
<svg
   sodipodi:docname="ksim_cpu.svg"
   height="60.0000000"
   sodipodi:version="0.32"
   width="60.0000000"
   _SVGFile__filename="scalable/devices/ksim_cpu.svg"
   version="1.0"
   y="0"
   x="0"
   inkscape:version="0.39"
   id="svg1"
   sodipodi:docbase="/home/danny/work/flat/newscale/devices"
   xmlns="http://www.w3.org/2000/svg"
   xmlns:cc="http://web.resource.org/cc/"
   xmlns:inkscape="http://www.inkscape.org/namespaces/inkscape"
   xmlns:sodipodi="http://sodipodi.sourceforge.net/DTD/sodipodi-0.dtd"
   xmlns:rdf="http://www.w3.org/1999/02/22-rdf-syntax-ns#"
   xmlns:dc="http://purl.org/dc/elements/1.1/"
   xmlns:xlink="http://www.w3.org/1999/xlink">
  <sodipodi:namedview
     bordercolor="#666666"
     inkscape:pageshadow="2"
     inkscape:window-y="0"
     snaptoguides="true"
     pagecolor="#ffffff"
     inkscape:window-height="685"
     inkscape:zoom="9.8238822"
     inkscape:window-x="0"
     borderopacity="1.0"
     inkscape:cx="31.822835"
     inkscape:cy="22.733700"
     inkscape:window-width="1016"
     inkscape:pageopacity="0.0"
     id="base"
     showguides="true">
    <sodipodi:guide
       position="-32.102342"
       orientation="vertical"
       id="guide851" />
  </sodipodi:namedview>
  <defs
     id="defs3">
    <linearGradient
       id="linearGradient772">
      <stop
         style="stop-color:#000;stop-opacity:1;"
         id="stop773"
         offset="0" />
      <stop
         style="stop-color:#fff;stop-opacity:1;"
         id="stop774"
         offset="1" />
    </linearGradient>
    <linearGradient
       xlink:href="#linearGradient772"
       id="linearGradient775" />
  </defs>
  <metadata
     id="metadata24">
    <rdf:RDF
       id="RDF25">
      <cc:Work
         rdf:about=""
         id="Work26">
        <dc:title
           id="title27">Part of the Flat Icon Collection (Thu Aug 26 14:39:51 2004)</dc:title>
        <dc:description
           id="description29" />
        <dc:subject
           id="subject30">
          <rdf:Bag
             id="Bag31">
            <rdf:li
               id="li32" />
          </rdf:Bag>
        </dc:subject>
        <dc:publisher
           id="publisher33">
          <cc:Agent
             rdf:about=""
             id="Agent34">
            <dc:title
               id="title35" />
          </cc:Agent>
        </dc:publisher>
        <dc:creator
           id="creator36">
          <cc:Agent
             rdf:about=""
             id="Agent37">
            <dc:title
               id="title38">Danny Allen</dc:title>
          </cc:Agent>
        </dc:creator>
        <dc:rights
           id="rights40">
          <cc:Agent
             rdf:about=""
             id="Agent41">
            <dc:title
               id="title42">Danny Allen</dc:title>
          </cc:Agent>
        </dc:rights>
        <dc:date
           id="date44" />
        <dc:format
           id="format45">image/svg+xml</dc:format>
        <dc:type
           rdf:resource="http://purl.org/dc/dcmitype/StillImage"
           id="type47" />
        <cc:license
           rdf:resource="http://creativecommons.org/licenses/LGPL/2.1/"
           id="license48">
          <dc:date
             id="date49" />
        </cc:license>
        <dc:language
           id="language50">en</dc:language>
      </cc:Work>
    </rdf:RDF>
  </metadata>
  <g
     id="g1637"
     transform="translate(0.513753,-5.696123e-2)">
    <path
       transform="matrix(1.135338,0.000000,0.000000,1.135338,-4.271347,-1.842489)"
       style="font-size:12.000000;fill:#b3b3b3;fill-opacity:1.0000000;fill-rule:evenodd;stroke:#333333;stroke-width:2.7524800;stroke-opacity:1.0000000;"
       d="M 14.416265,11.054726 C 13.308265,11.054726 12.416265,11.946726 12.416265,13.054726 L 12.416265,43.964222 C 12.416265,45.072222 13.308265,45.964222 14.416265,45.964222 L 45.325761,45.964222 C 46.433761,45.964222 47.325761,45.072222 47.325761,43.964222 L 47.325761,13.054726 C 47.325761,11.946726 46.433761,11.054726 45.325761,11.054726 L 14.416265,11.054726 z "
       id="rect1037" />
    <path
       transform="matrix(0.000000,1.524597,-1.524597,0.000000,71.12902,-7.103635)"
       style="font-size:12.000000;fill:#7f7f7f;fill-opacity:1.0000000;fill-rule:evenodd;stroke:#333333;stroke-width:1.2298300;stroke-opacity:1.0000000;"
       d="M 8.6579967,15.553372 C 7.5499967,15.553372 6.6579967,16.445372 6.6579967,17.553372 L 6.6579967,19.851478 C 6.6579967,20.959478 7.5499967,21.851478 8.6579967,21.851478 L 10.956102,21.851478 C 12.064102,21.851478 12.956102,20.959478 12.956102,19.851478 L 12.956102,17.553372 C 12.956102,16.445372 12.064102,15.553372 10.956102,15.553372 L 8.6579967,15.553372 z "
       id="rect1044" />
    <path
       transform="matrix(0.000000,1.135338,-1.135338,0.000000,64.25753,-4.307648)"
       style="font-size:12.000000;fill:#7f7f7f;fill-rule:evenodd;stroke:#333333;stroke-width:1.6514900;stroke-opacity:1.0000000;"
       d="M 9.1637642,26.260151 C 7.6758787,26.260151 6.4780502,27.457979 6.4780502,28.945865 L 6.4780502,32.031892 C 6.4780502,33.519777 7.6758787,34.717606 9.1637642,34.717606 L 12.249791,34.717606 C 13.737676,34.717606 14.935505,33.519777 14.935505,32.031892 L 14.935505,28.945865 C 14.935505,27.457979 13.737676,26.260151 12.249791,26.260151 L 9.1637642,26.260151 z "
       id="rect1045" />
    <path
       transform="matrix(0.000000,1.524597,-1.524597,0.000000,45.18300,-7.103635)"
       style="font-size:12.000000;fill:#7f7f7f;fill-opacity:1.0000000;fill-rule:evenodd;stroke:#333333;stroke-width:1.2298300;stroke-opacity:1.0000000;"
       d="M 8.6579967,15.553372 C 7.5499967,15.553372 6.6579967,16.445372 6.6579967,17.553372 L 6.6579967,19.851478 C 6.6579967,20.959478 7.5499967,21.851478 8.6579967,21.851478 L 10.956102,21.851478 C 12.064102,21.851478 12.956102,20.959478 12.956102,19.851478 L 12.956102,17.553372 C 12.956102,16.445372 12.064102,15.553372 10.956102,15.553372 L 8.6579967,15.553372 z "
       id="rect1046" />
    <path
       transform="matrix(0.000000,1.524597,-1.524597,0.000000,71.12902,37.63796)"
       style="font-size:12.000000;fill:#7f7f7f;fill-opacity:1.0000000;fill-rule:evenodd;stroke:#333333;stroke-width:1.2298300;stroke-opacity:1.0000000;"
       d="M 8.6579967,15.553372 C 7.5499967,15.553372 6.6579967,16.445372 6.6579967,17.553372 L 6.6579967,19.851478 C 6.6579967,20.959478 7.5499967,21.851478 8.6579967,21.851478 L 10.956102,21.851478 C 12.064102,21.851478 12.956102,20.959478 12.956102,19.851478 L 12.956102,17.553372 C 12.956102,16.445372 12.064102,15.553372 10.956102,15.553372 L 8.6579967,15.553372 z "
       id="rect1047" />
    <path
       transform="matrix(0.000000,1.135338,-1.135338,0.000000,64.25753,40.43394)"
       style="font-size:12.000000;fill:#7f7f7f;fill-rule:evenodd;stroke:#333333;stroke-width:1.6514900;stroke-opacity:1.0000000;"
       d="M 9.1637642,26.260151 C 7.6758787,26.260151 6.4780502,27.457979 6.4780502,28.945865 L 6.4780502,32.031892 C 6.4780502,33.519777 7.6758787,34.717606 9.1637642,34.717606 L 12.249791,34.717606 C 13.737676,34.717606 14.935505,33.519777 14.935505,32.031892 L 14.935505,28.945865 C 14.935505,27.457979 13.737676,26.260151 12.249791,26.260151 L 9.1637642,26.260151 z "
       id="rect1048" />
    <path
       transform="matrix(0.000000,1.524597,-1.524597,0.000000,45.18300,37.63796)"
       style="font-size:12.000000;fill:#7f7f7f;fill-opacity:1.0000000;fill-rule:evenodd;stroke:#333333;stroke-width:1.2298300;stroke-opacity:1.0000000;"
       d="M 8.6579967,15.553372 C 7.5499967,15.553372 6.6579967,16.445372 6.6579967,17.553372 L 6.6579967,19.851478 C 6.6579967,20.959478 7.5499967,21.851478 8.6579967,21.851478 L 10.956102,21.851478 C 12.064102,21.851478 12.956102,20.959478 12.956102,19.851478 L 12.956102,17.553372 C 12.956102,16.445372 12.064102,15.553372 10.956102,15.553372 L 8.6579967,15.553372 z "
       id="rect1049" />
    <g
       id="g1609"
       transform="translate(0.129363,5.967294e-2)">
      <path
         id="path852"
         style="font-size:24.000000;fill:#7f7f7f;fill-opacity:1.0000000;stroke-width:1.0000000pt;font-family:VAG Rounded Black SSi;"
         transform="matrix(1.005203,0.000000,0.000000,1.005203,35.30325,26.34813)"
         d="M -6.8225527,5.8193731 L -6.8225527,-8.1728144 C -6.8225527,-8.6884394 -6.6545839,-9.1181269 -6.3186464,-9.4618769 C -5.9827089,-9.8056269 -5.5491152,-9.9775019 -5.0178652,-9.9775019 C -4.4866152,-9.9775019 -4.0569277,-9.8173456 -3.7288027,-9.4970331 C -3.3928652,-9.1767206 -3.2248964,-8.7353144 -3.2248964,-8.1728144 L -3.2248964,-2.9462519 L 2.6813536,-9.2978144 C 3.0954161,-9.7509394 3.5602598,-9.9775019 4.0758848,-9.9775019 C 4.5524473,-9.9775019 4.9665098,-9.8134394 5.3180723,-9.4853144 C 5.6774473,-9.1650019 5.8571348,-8.7431269 5.8571348,-8.2196894 C 5.8571348,-7.9228144 5.7633848,-7.6298456 5.5758848,-7.3407831 C 5.3883848,-7.0595331 5.0876036,-6.7118769 4.6735411,-6.2978144 L 0.13838482,-1.7860956 L 5.6813536,4.0615606 C 6.0016661,4.3662481 6.2477598,4.6631231 6.4196348,4.9521856 C 6.5993223,5.2334356 6.6891661,5.5459356 6.6891661,5.8896856 C 6.6891661,6.4365606 6.5094786,6.8545294 6.1501036,7.1435919 C 5.7907286,7.4248419 5.3454161,7.5654669 4.8141661,7.5654669 C 4.5016661,7.5654669 4.2165098,7.4795294 3.9586973,7.3076544 C 3.7086973,7.1357794 3.3883848,6.8467169 2.9977598,6.4404669 L -3.2248964,-0.35640812 L -3.2248964,5.8193731 C -3.2248964,6.3115606 -3.3928652,6.7256231 -3.7288027,7.0615606 C -4.0647402,7.3974981 -4.4944277,7.5654669 -5.0178652,7.5654669 C -5.5413027,7.5654669 -5.9748964,7.4053106 -6.3186464,7.0849981 C -6.6545839,6.7646856 -6.8225527,6.3428106 -6.8225527,5.8193731 z " />
      <path
         id="path705"
         style="font-size:12.000000;fill:#7f7f7f;fill-opacity:1.0000000;fill-rule:evenodd;stroke-width:1.2929699;stroke-linecap:round;stroke-linejoin:round;"
         sodipodi:nodetypes="ccccccccccccccccccccccc"
         d="M 37.139197,181.14740 L 52.946277,197.70716 L 78.538546,180.39460 L 98.861908,189.42735 L 105.63634,219.09510 L 127.46505,218.89461 L 133.48682,188.45399 L 153.81015,180.39460 L 179.40244,196.95450 L 191.44592,180.39460 L 162.40179,152.98512 C 87.958944,221.26415 23.628859,116.02943 87.571178,72.003552 L 87.571095,56.196470 L 80.043997,59.960043 L 56.709788,45.126111 L 40.590920,58.363176 L 55.204367,83.294200 L 46.924507,103.61753 L 18.409265,108.35437 L 18.321270,129.96261 L 47.677259,137.48978 L 55.768940,157.24868 L 37.139197,181.14740 z "
         transform="matrix(0.146592,0.000000,0.000000,0.146592,14.13789,12.49515)" />
    </g>
    <path
       transform="matrix(1.524597,0.000000,0.000000,1.524597,-7.680246,-11.26771)"
       style="font-size:12.000000;fill:#7f7f7f;fill-opacity:1.0000000;fill-rule:evenodd;stroke:#333333;stroke-width:1.2298300;stroke-opacity:1.0000000;"
       d="M 8.6579967,15.553372 C 7.5499967,15.553372 6.6579967,16.445372 6.6579967,17.553372 L 6.6579967,19.851478 C 6.6579967,20.959478 7.5499967,21.851478 8.6579967,21.851478 L 10.956102,21.851478 C 12.064102,21.851478 12.956102,20.959478 12.956102,19.851478 L 12.956102,17.553372 C 12.956102,16.445372 12.064102,15.553372 10.956102,15.553372 L 8.6579967,15.553372 z "
       id="rect1602" />
    <path
       transform="matrix(1.135338,0.000000,0.000000,1.135338,-4.884259,-4.396220)"
       style="font-size:12.000000;fill:#7f7f7f;fill-rule:evenodd;stroke:#333333;stroke-width:1.6514900;stroke-opacity:1.0000000;"
       d="M 9.1637642,26.260151 C 7.6758787,26.260151 6.4780502,27.457979 6.4780502,28.945865 L 6.4780502,32.031892 C 6.4780502,33.519777 7.6758787,34.717606 9.1637642,34.717606 L 12.249791,34.717606 C 13.737676,34.717606 14.935505,33.519777 14.935505,32.031892 L 14.935505,28.945865 C 14.935505,27.457979 13.737676,26.260151 12.249791,26.260151 L 9.1637642,26.260151 z "
       id="rect1603" />
    <path
       transform="matrix(1.524597,0.000000,0.000000,1.524597,-7.680246,14.67831)"
       style="font-size:12.000000;fill:#7f7f7f;fill-opacity:1.0000000;fill-rule:evenodd;stroke:#333333;stroke-width:1.2298300;stroke-opacity:1.0000000;"
       d="M 8.6579967,15.553372 C 7.5499967,15.553372 6.6579967,16.445372 6.6579967,17.553372 L 6.6579967,19.851478 C 6.6579967,20.959478 7.5499967,21.851478 8.6579967,21.851478 L 10.956102,21.851478 C 12.064102,21.851478 12.956102,20.959478 12.956102,19.851478 L 12.956102,17.553372 C 12.956102,16.445372 12.064102,15.553372 10.956102,15.553372 L 8.6579967,15.553372 z "
       id="rect1604" />
    <path
       transform="matrix(1.524597,0.000000,0.000000,1.524597,37.06135,-11.26771)"
       style="font-size:12.000000;fill:#7f7f7f;fill-opacity:1.0000000;fill-rule:evenodd;stroke:#333333;stroke-width:1.2298300;stroke-opacity:1.0000000;"
       d="M 8.6579967,15.553372 C 7.5499967,15.553372 6.6579967,16.445372 6.6579967,17.553372 L 6.6579967,19.851478 C 6.6579967,20.959478 7.5499967,21.851478 8.6579967,21.851478 L 10.956102,21.851478 C 12.064102,21.851478 12.956102,20.959478 12.956102,19.851478 L 12.956102,17.553372 C 12.956102,16.445372 12.064102,15.553372 10.956102,15.553372 L 8.6579967,15.553372 z "
       id="rect1606" />
    <path
       transform="matrix(1.135338,0.000000,0.000000,1.135338,39.85733,-4.396220)"
       style="font-size:12.000000;fill:#7f7f7f;fill-rule:evenodd;stroke:#333333;stroke-width:1.6514900;stroke-opacity:1.0000000;"
       d="M 9.1637642,26.260151 C 7.6758787,26.260151 6.4780502,27.457979 6.4780502,28.945865 L 6.4780502,32.031892 C 6.4780502,33.519777 7.6758787,34.717606 9.1637642,34.717606 L 12.249791,34.717606 C 13.737676,34.717606 14.935505,33.519777 14.935505,32.031892 L 14.935505,28.945865 C 14.935505,27.457979 13.737676,26.260151 12.249791,26.260151 L 9.1637642,26.260151 z "
       id="rect1607" />
    <path
       transform="matrix(1.524597,0.000000,0.000000,1.524597,37.06135,14.67831)"
       style="font-size:12.000000;fill:#7f7f7f;fill-opacity:1.0000000;fill-rule:evenodd;stroke:#333333;stroke-width:1.2298300;stroke-opacity:1.0000000;"
       d="M 8.6579967,15.553372 C 7.5499967,15.553372 6.6579967,16.445372 6.6579967,17.553372 L 6.6579967,19.851478 C 6.6579967,20.959478 7.5499967,21.851478 8.6579967,21.851478 L 10.956102,21.851478 C 12.064102,21.851478 12.956102,20.959478 12.956102,19.851478 L 12.956102,17.553372 C 12.956102,16.445372 12.064102,15.553372 10.956102,15.553372 L 8.6579967,15.553372 z "
       id="rect1608" />
  </g>
</svg>
