<?xml version="1.0" encoding="UTF-8" standalone="no"?>
<!DOCTYPE svg PUBLIC "-//W3C//DTD SVG 20010904//EN"
"http://www.w3.org/TR/2001/REC-SVG-20010904/DTD/svg10.dtd">
<svg
   sodipodi:docname="kcron.svg"
   sodipodi:version="0.32"
   height="60.0000000"
   width="60.0000000"
   _SVGFile__filename="scalable/apps/kcron.svg"
   version="1.0"
   y="0"
   x="0"
   inkscape:version="0.39"
   id="svg1"
   sodipodi:docbase="/home/danny/work/flat/newscale/apps"
   xmlns="http://www.w3.org/2000/svg"
   xmlns:cc="http://web.resource.org/cc/"
   xmlns:inkscape="http://www.inkscape.org/namespaces/inkscape"
   xmlns:sodipodi="http://sodipodi.sourceforge.net/DTD/sodipodi-0.dtd"
   xmlns:rdf="http://www.w3.org/1999/02/22-rdf-syntax-ns#"
   xmlns:dc="http://purl.org/dc/elements/1.1/"
   xmlns:xlink="http://www.w3.org/1999/xlink">
  <sodipodi:namedview
     bordercolor="#666666"
     inkscape:pageshadow="2"
     inkscape:window-y="0"
     snaptoguides="true"
     pagecolor="#ffffff"
     inkscape:window-height="685"
     inkscape:zoom="6.9465337"
     inkscape:window-x="0"
     borderopacity="1.0"
     inkscape:cx="37.697540"
     inkscape:cy="12.794485"
     inkscape:window-width="1016"
     inkscape:pageopacity="0.0"
     id="base"
     showguides="true" />
  <defs
     id="defs3">
    <linearGradient
       id="linearGradient900">
      <stop
         style="stop-color:#000;stop-opacity:1;"
         id="stop901"
         offset="0" />
      <stop
         style="stop-color:#fff;stop-opacity:1;"
         id="stop902"
         offset="1" />
    </linearGradient>
    <linearGradient
       xlink:href="#linearGradient900"
       id="linearGradient903" />
    <linearGradient
       xlink:href="#linearGradient900"
       id="linearGradient904" />
    <linearGradient
       xlink:href="#linearGradient900"
       id="linearGradient905" />
    <linearGradient
       xlink:href="#linearGradient900"
       id="linearGradient906" />
    <linearGradient
       xlink:href="#linearGradient900"
       id="linearGradient907" />
  </defs>
  <path
     transform="matrix(1.052734,0.000000,0.000000,0.861564,-1.603891,-1.112546)"
     style="font-size:12.000000;fill:#b3b3b3;fill-opacity:1.0000000;fill-rule:evenodd;stroke:#4c4c4c;stroke-width:3.2813075;stroke-linecap:round;stroke-linejoin:round;stroke-opacity:1.0000000;"
     d="M 6.6785922,5.1165123 C 5.5705922,5.1165123 4.6785922,6.0085123 4.6785922,7.1165123 L 4.6785922,53.501354 C 4.6785922,54.609354 5.5705922,55.501354 6.6785922,55.501354 L 53.423324,55.501354 C 54.531324,55.501354 55.423324,54.609354 55.423324,53.501354 L 55.423324,7.1165123 C 55.423324,6.0085123 54.531324,5.1165123 53.423324,5.1165123 L 6.6785922,5.1165123 z "
     id="rect812" />
  <path
     transform="matrix(0.998696,0.000000,0.000000,0.998696,0.304240,-0.416668)"
     style="fill:#cccccc;fill-opacity:1.0000000;fill-rule:evenodd;stroke:#4c4c4c;stroke-width:1.8774482;stroke-opacity:1.0000000;stroke-linejoin:round;"
     d="M 8.7119440,8.1755915 C 8.2718873,8.1755915 7.9176178,8.5298610 7.9176178,8.9699177 L 7.9176178,41.930872 C 7.9176178,42.370928 8.2718873,42.725198 8.7119440,42.725198 L 27.277228,42.725198 C 27.717285,42.725198 28.071554,42.370928 28.071554,41.930872 L 28.071554,8.9699177 C 28.071554,8.5298610 27.717285,8.1755915 27.277228,8.1755915 L 8.7119440,8.1755915 z "
     id="rect842" />
  <path
     transform="matrix(0.998696,0.000000,0.000000,0.998696,-0.953739,-0.416668)"
     style="fill:#cccccc;fill-opacity:1.0000000;fill-rule:evenodd;stroke:#4c4c4c;stroke-width:1.8774482;stroke-opacity:1.0000000;stroke-linejoin:round;"
     d="M 33.515094,8.1755915 C 33.075037,8.1755915 32.720768,8.5298610 32.720768,8.9699177 L 32.720768,41.930872 C 32.720768,42.370928 33.075037,42.725198 33.515094,42.725198 L 52.080378,42.725198 C 52.520435,42.725198 52.874704,42.370928 52.874704,41.930872 L 52.874704,8.9699177 C 52.874704,8.5298610 52.520435,8.1755915 52.080378,8.1755915 L 33.515094,8.1755915 z "
     id="rect843" />
  <path
     style="fill:#4c4c4c;fill-rule:evenodd;stroke:#4c4c4c;stroke-width:1.8750000;stroke-linejoin:round;"
     d="M 26.802856,11.020275 C 26.649822,11.020275 26.526621,11.143476 26.526621,11.296510 L 26.526621,17.752777 C 26.526621,17.905811 26.649822,18.029012 26.802856,18.029012 L 33.259123,18.029012 C 33.412157,18.029012 33.535358,17.905811 33.535358,17.752777 L 33.535358,11.296510 C 33.535358,11.143476 33.412157,11.020275 33.259123,11.020275 L 26.802856,11.020275 z "
     id="rect844"
     transform="translate(1.545552e-2,0.129520)" />
  <path
     transform="matrix(0.998696,0.000000,0.000000,0.998696,0.124528,-0.250170)"
     style="fill:#4c4c4c;fill-opacity:1.0000000;fill-rule:evenodd;stroke:#4c4c4c;stroke-width:1.8774482;stroke-opacity:1.0000000;stroke-linejoin:round;"
     d="M 26.728637,32.134621 C 26.575403,32.134621 26.452042,32.257982 26.452042,32.411216 L 26.452042,38.875913 C 26.452042,39.029147 26.575403,39.152509 26.728637,39.152509 L 33.193334,39.152509 C 33.346568,39.152509 33.469930,39.029147 33.469930,38.875913 L 33.469930,32.411216 C 33.469930,32.257982 33.346568,32.134621 33.193334,32.134621 L 26.728637,32.134621 z "
     id="rect845" />
  <path
     sodipodi:nodetypes="ccccccccccccccccccccccc"
     style="font-size:12.000000;fill:#4c4c4c;fill-opacity:1.0000000;fill-rule:evenodd;stroke:#4c4c4c;stroke-width:0.11120129;stroke-linecap:round;stroke-linejoin:round;"
     d="M 35.946406,29.254905 L 37.305887,30.679119 L 39.506939,29.190160 L 41.254840,29.967018 L 41.837472,32.518579 L 43.714840,32.501336 L 44.232740,29.883305 L 45.980639,29.190160 L 48.181692,30.614387 L 49.217486,29.190160 L 46.719559,26.832821 C 40.317136,32.705128 34.784456,23.654463 40.283786,19.868038 L 40.283779,18.508556 L 39.636414,18.832241 L 37.629566,17.556455 L 36.243270,18.694903 L 37.500093,20.839085 L 36.787988,22.586983 L 34.335547,22.994373 L 34.327979,24.852780 L 36.852728,25.500151 L 37.548649,27.199506 L 35.946406,29.254905 z "
     sodipodi:stroke-cmyk="(0.0000000 0.0000000 0.0000000 0.69999999)"
     id="path705"
     transform="translate(1.545552e-2,-3.697775e-2)" />
  <path
     id="path850"
     style="font-size:12.000000;font-weight:900;fill:#4c4c4c;fill-opacity:1.0000000;stroke-width:1.0000000pt;font-family:VAG Rounded Black SSi;"
     sodipodi:nodetypes="cccccccccccccccccccccccccccccccccccccccccccccccccccccccccccccccccccccccccccccccccccccccccccccccccccccccccccccccccccccccccccccccccccccccccccccccccccccccccccccccccc"
     d="M 32.131077,18.359579 L 32.131077,12.517782 L 31.515842,12.517782 C 31.238499,12.517782 31.019749,12.427938 30.859592,12.248251 C 30.699436,12.064657 30.619358,11.853720 30.619358,11.615438 C 30.619358,11.369345 30.697483,11.156454 30.853733,10.976767 C 31.009983,10.793173 31.230686,10.701376 31.515842,10.701376 L 33.103733,10.701376 C 33.381077,10.701376 33.611546,10.771688 33.795139,10.912313 C 33.982639,11.052938 34.076389,11.310751 34.076389,11.685751 L 34.076389,18.359579 C 34.076389,18.699423 33.986546,18.959188 33.806858,19.138876 C 33.631077,19.314657 33.396702,19.402548 33.103733,19.402548 C 32.810764,19.402548 32.574436,19.314657 32.394749,19.138876 C 32.218967,18.959188 32.131077,18.699423 32.131077,18.359579 z M 28.134983,18.359579 L 28.134983,12.517782 L 27.519749,12.517782 C 27.242405,12.517782 27.023655,12.427938 26.863499,12.248251 C 26.703342,12.064657 26.623264,11.853720 26.623264,11.615438 C 26.623264,11.369345 26.701389,11.156454 26.857639,10.976767 C 27.013889,10.793173 27.234592,10.701376 27.519749,10.701376 L 29.107639,10.701376 C 29.384983,10.701376 29.615452,10.771688 29.799046,10.912313 C 29.986546,11.052938 30.080296,11.310751 30.080296,11.685751 L 30.080296,18.359579 C 30.080296,18.699423 29.990452,18.959188 29.810764,19.138876 C 29.634983,19.314657 29.400608,19.402548 29.107639,19.402548 C 28.814671,19.402548 28.578342,19.314657 28.398655,19.138876 C 28.222874,18.959188 28.134983,18.699423 28.134983,18.359579 z M 24.138889,18.359579 L 24.138889,12.517782 L 23.523655,12.517782 C 23.246311,12.517782 23.027561,12.427938 22.867405,12.248251 C 22.707249,12.064657 22.627171,11.853720 22.627171,11.615438 C 22.627171,11.369345 22.705296,11.156454 22.861546,10.976767 C 23.017796,10.793173 23.238499,10.701376 23.523655,10.701376 L 25.111546,10.701376 C 25.388889,10.701376 25.619358,10.771688 25.802952,10.912313 C 25.990452,11.052938 26.084202,11.310751 26.084202,11.685751 L 26.084202,18.359579 C 26.084202,18.699423 25.994358,18.959188 25.814671,19.138876 C 25.638889,19.314657 25.404514,19.402548 25.111546,19.402548 C 24.818577,19.402548 24.582249,19.314657 24.402561,19.138876 C 24.226780,18.959188 24.138889,18.699423 24.138889,18.359579 z M 15.320530,15.013876 C 15.320530,14.427938 15.392796,13.867392 15.537327,13.332235 C 15.685764,12.797079 15.908421,12.318563 16.205296,11.896688 C 16.502171,11.470907 16.877171,11.134970 17.330296,10.888876 C 17.783421,10.638876 18.304905,10.513876 18.894749,10.513876 C 19.488499,10.513876 20.011936,10.638876 20.465061,10.888876 C 20.918186,11.134970 21.293186,11.470907 21.590061,11.896688 C 21.886936,12.318563 22.107639,12.799032 22.252171,13.338095 C 22.396702,13.877157 22.468967,14.435751 22.468967,15.013876 C 22.468967,15.592001 22.396702,16.150595 22.252171,16.689657 C 22.111546,17.228720 21.890842,17.713095 21.590061,18.142782 C 21.293186,18.568563 20.918186,18.906454 20.465061,19.156454 C 20.011936,19.402548 19.488499,19.525595 18.894749,19.525595 C 18.304905,19.525595 17.783421,19.402548 17.330296,19.156454 C 16.877171,18.906454 16.500217,18.568563 16.199436,18.142782 C 15.902561,17.713095 15.681858,17.230673 15.537327,16.695517 C 15.392796,16.160360 15.320530,15.599813 15.320530,15.013876 z M 17.336155,15.013876 C 17.336155,15.412313 17.384983,15.814657 17.482639,16.220907 C 17.580296,16.627157 17.746311,16.965048 17.980686,17.234579 C 18.215061,17.504110 18.519749,17.638876 18.894749,17.638876 C 19.441624,17.638876 19.838108,17.369345 20.084202,16.830282 C 20.330296,16.287313 20.453342,15.681845 20.453342,15.013876 C 20.453342,14.349813 20.330296,13.748251 20.084202,13.209188 C 19.838108,12.666220 19.441624,12.394735 18.894749,12.394735 C 18.605686,12.394735 18.359592,12.476767 18.156467,12.640829 C 17.953342,12.804892 17.791233,13.017782 17.670139,13.279501 C 17.552952,13.541220 17.467014,13.826376 17.412327,14.134970 C 17.361546,14.439657 17.336155,14.732626 17.336155,15.013876 z M 35.693577,30.359579 L 35.693577,24.517782 L 35.078342,24.517782 C 34.800999,24.517782 34.582249,24.427938 34.422092,24.248251 C 34.261936,24.064657 34.181858,23.853720 34.181858,23.615438 C 34.181858,23.369345 34.259983,23.156454 34.416233,22.976767 C 34.572483,22.793173 34.793186,22.701376 35.078342,22.701376 L 36.666233,22.701376 C 36.943577,22.701376 37.174046,22.771688 37.357639,22.912313 C 37.545139,23.052938 37.638889,23.310751 37.638889,23.685751 L 37.638889,30.359579 C 37.638889,30.699423 37.549046,30.959188 37.369358,31.138876 C 37.193577,31.314657 36.959202,31.402548 36.666233,31.402548 C 36.373264,31.402548 36.136936,31.314657 35.957249,31.138876 C 35.781467,30.959188 35.693577,30.699423 35.693577,30.359579 z M 26.875217,27.013876 C 26.875217,26.427938 26.947483,25.867392 27.092014,25.332235 C 27.240452,24.797079 27.463108,24.318563 27.759983,23.896688 C 28.056858,23.470907 28.431858,23.134970 28.884983,22.888876 C 29.338108,22.638876 29.859592,22.513876 30.449436,22.513876 C 31.043186,22.513876 31.566624,22.638876 32.019749,22.888876 C 32.472874,23.134970 32.847874,23.470907 33.144749,23.896688 C 33.441624,24.318563 33.662327,24.799032 33.806858,25.338095 C 33.951389,25.877157 34.023655,26.435751 34.023655,27.013876 C 34.023655,27.592001 33.951389,28.150595 33.806858,28.689657 C 33.666233,29.228720 33.445530,29.713095 33.144749,30.142782 C 32.847874,30.568563 32.472874,30.906454 32.019749,31.156454 C 31.566624,31.402548 31.043186,31.525595 30.449436,31.525595 C 29.859592,31.525595 29.338108,31.402548 28.884983,31.156454 C 28.431858,30.906454 28.054905,30.568563 27.754124,30.142782 C 27.457249,29.713095 27.236546,29.230673 27.092014,28.695517 C 26.947483,28.160360 26.875217,27.599813 26.875217,27.013876 z M 28.890842,27.013876 C 28.890842,27.412313 28.939671,27.814657 29.037327,28.220907 C 29.134983,28.627157 29.300999,28.965048 29.535374,29.234579 C 29.769749,29.504110 30.074436,29.638876 30.449436,29.638876 C 30.996311,29.638876 31.392796,29.369345 31.638889,28.830282 C 31.884983,28.287313 32.008030,27.681845 32.008030,27.013876 C 32.008030,26.349813 31.884983,25.748251 31.638889,25.209188 C 31.392796,24.666220 30.996311,24.394735 30.449436,24.394735 C 30.160374,24.394735 29.914280,24.476767 29.711155,24.640829 C 29.508030,24.804892 29.345921,25.017782 29.224827,25.279501 C 29.107639,25.541220 29.021702,25.826376 28.967014,26.134970 C 28.916233,26.439657 28.890842,26.732626 28.890842,27.013876 z M 24.138889,30.359579 L 24.138889,24.517782 L 23.523655,24.517782 C 23.246311,24.517782 23.027561,24.427938 22.867405,24.248251 C 22.707249,24.064657 22.627171,23.853720 22.627171,23.615438 C 22.627171,23.369345 22.705296,23.156454 22.861546,22.976767 C 23.017796,22.793173 23.238499,22.701376 23.523655,22.701376 L 25.111546,22.701376 C 25.388889,22.701376 25.619358,22.771688 25.802952,22.912313 C 25.990452,23.052938 26.084202,23.310751 26.084202,23.685751 L 26.084202,30.359579 C 26.084202,30.699423 25.994358,30.959188 25.814671,31.138876 C 25.638889,31.314657 25.404514,31.402548 25.111546,31.402548 C 24.818577,31.402548 24.582249,31.314657 24.402561,31.138876 C 24.226780,30.959188 24.138889,30.699423 24.138889,30.359579 z M 15.320530,27.013876 C 15.320530,26.427938 15.392796,25.867392 15.537327,25.332235 C 15.685764,24.797079 15.908421,24.318563 16.205296,23.896688 C 16.502171,23.470907 16.877171,23.134970 17.330296,22.888876 C 17.783421,22.638876 18.304905,22.513876 18.894749,22.513876 C 19.488499,22.513876 20.011936,22.638876 20.465061,22.888876 C 20.918186,23.134970 21.293186,23.470907 21.590061,23.896688 C 21.886936,24.318563 22.107639,24.799032 22.252171,25.338095 C 22.396702,25.877157 22.468967,26.435751 22.468967,27.013876 C 22.468967,27.592001 22.396702,28.150595 22.252171,28.689657 C 22.111546,29.228720 21.890842,29.713095 21.590061,30.142782 C 21.293186,30.568563 20.918186,30.906454 20.465061,31.156454 C 20.011936,31.402548 19.488499,31.525595 18.894749,31.525595 C 18.304905,31.525595 17.783421,31.402548 17.330296,31.156454 C 16.877171,30.906454 16.500217,30.568563 16.199436,30.142782 C 15.902561,29.713095 15.681858,29.230673 15.537327,28.695517 C 15.392796,28.160360 15.320530,27.599813 15.320530,27.013876 z M 17.336155,27.013876 C 17.336155,27.412313 17.384983,27.814657 17.482639,28.220907 C 17.580296,28.627157 17.746311,28.965048 17.980686,29.234579 C 18.215061,29.504110 18.519749,29.638876 18.894749,29.638876 C 19.441624,29.638876 19.838108,29.369345 20.084202,28.830282 C 20.330296,28.287313 20.453342,27.681845 20.453342,27.013876 C 20.453342,26.349813 20.330296,25.748251 20.084202,25.209188 C 19.838108,24.666220 19.441624,24.394735 18.894749,24.394735 C 18.605686,24.394735 18.359592,24.476767 18.156467,24.640829 C 17.953342,24.804892 17.791233,25.017782 17.670139,25.279501 C 17.552952,25.541220 17.467014,25.826376 17.412327,26.134970 C 17.361546,26.439657 17.336155,26.732626 17.336155,27.013876 z "
     transform="matrix(0.637009,0.000000,0.000000,0.637009,0.750883,4.109582)" />
  <g
     id="g937"
     transform="translate(25.00000,0.000000)">
    <path
       style="font-size:12.000000;fill:#b3b3b3;fill-opacity:1.0000000;fill-rule:evenodd;stroke:#333333;stroke-width:2.5000000;stroke-opacity:1.0000000;"
       d="M 9.5310427,42.905089 C 9.5310427,51.139258 2.8482389,57.822062 -5.3859294,57.822062 C -13.620098,57.822062 -20.302901,51.139258 -20.302901,42.905089 C -20.302901,34.670921 -13.620098,27.988118 -5.3859294,27.988118 C 2.8482389,27.988118 9.5310427,34.670921 9.5310427,42.905089 z "
       id="path741" />
    <path
       sodipodi:nodetypes="cc"
       style="fill:none;fill-opacity:0.75000000;fill-rule:evenodd;stroke:#4c4c4c;stroke-width:3.1250000;stroke-linecap:round;stroke-linejoin:round;"
       d="M -5.3625590,42.749220 L -5.3625590,32.203522"
       sodipodi:stroke-cmyk="(0.0000000 0.0000000 0.0000000 0.69999999)"
       id="path743" />
    <path
       style="fill:none;fill-opacity:0.75000000;fill-rule:evenodd;stroke:#4c4c4c;stroke-width:3.1250000;stroke-linecap:round;stroke-linejoin:round;"
       d="M -4.8141350,42.957116 L 2.5593110,47.214176"
       sodipodi:stroke-cmyk="(0.0000000 0.0000000 0.0000000 0.69999999)"
       id="path744" />
    <path
       style="font-size:12.000000;fill:#333333;fill-opacity:1.0000000;fill-rule:evenodd;stroke:#333333;stroke-width:2.5000000;stroke-linecap:round;stroke-linejoin:round;stroke-opacity:1.0000000;"
       d="M -4.0345574,42.853179 C -4.0345574,43.599134 -4.6399700,44.204546 -5.3859243,44.204546 C -6.1318792,44.204546 -6.7372912,43.599134 -6.7372912,42.853179 C -6.7372912,42.107225 -6.1318792,41.501813 -5.3859243,41.501813 C -4.6399700,41.501813 -4.0345574,42.107225 -4.0345574,42.853179 z "
       id="path742" />
  </g>
  <metadata
     id="metadata23">
    <rdf:RDF
       id="RDF24">
      <cc:Work
         rdf:about=""
         id="Work25">
        <dc:format
           id="format26">image/svg+xml</dc:format>
        <dc:type
           id="type28"
           rdf:resource="http://purl.org/dc/dcmitype/StillImage" />
      </cc:Work>
    </rdf:RDF>
  </metadata>
</svg>
