<?xml version="1.0" encoding="UTF-8" standalone="no"?>
<!DOCTYPE svg PUBLIC "-//W3C//DTD SVG 20010904//EN"
"http://www.w3.org/TR/2001/REC-SVG-20010904/DTD/svg10.dtd">
<svg
   sodipodi:docname="kdevassistant.svg"
   height="60.0000000"
   sodipodi:version="0.32"
   width="60.0000000"
   _SVGFile__filename="scalable/actions/contents.svg"
   version="1.0"
   y="0"
   x="0"
   inkscape:version="0.39"
   id="svg1"
   sodipodi:docbase="/home/danny/work/flat/newscale/apps"
   xmlns="http://www.w3.org/2000/svg"
   xmlns:cc="http://web.resource.org/cc/"
   xmlns:inkscape="http://www.inkscape.org/namespaces/inkscape"
   xmlns:sodipodi="http://sodipodi.sourceforge.net/DTD/sodipodi-0.dtd"
   xmlns:rdf="http://www.w3.org/1999/02/22-rdf-syntax-ns#"
   xmlns:dc="http://purl.org/dc/elements/1.1/"
   xmlns:xlink="http://www.w3.org/1999/xlink">
  <sodipodi:namedview
     bordercolor="#666666"
     inkscape:pageshadow="2"
     inkscape:window-y="0"
     pagecolor="#ffffff"
     inkscape:window-height="685"
     inkscape:zoom="6.9465337"
     inkscape:window-x="0"
     borderopacity="1.0"
     inkscape:cx="39.429003"
     inkscape:cy="17.898401"
     inkscape:window-width="1016"
     inkscape:pageopacity="0.0"
     id="base" />
  <defs
     id="defs3" />
  <g
     id="g1556"
     transform="translate(6.392251e-2,-0.462931)"
     style="stroke:#4c4c4c;stroke-opacity:1.0000000;"
     sodipodi:stroke-cmyk="(0.0000000 0.0000000 0.0000000 0.50196081)">
    <path
       style="font-size:12.000000;fill:#b3b3b3;fill-opacity:1.0000000;fill-rule:evenodd;stroke:#7f7f7f;stroke-width:3.1250045;stroke-linejoin:round;"
       d="M 31.876512,14.764095 C 30.754592,15.290427 29.851386,16.713456 29.851386,17.954743 L 29.851386,54.527210 C 29.851386,55.768497 30.754592,56.344074 31.876512,55.817742 L 50.759686,46.958979 C 51.881606,46.432647 52.784812,45.009618 52.784812,43.768331 L 52.784812,7.1958641 C 52.784812,5.9545772 51.881606,5.3790000 50.759686,5.9053321 L 31.876512,14.764095 z "
       id="rect602" />
    <path
       transform="matrix(-1.007237,-0.472531,0.000000,1.112569,-5.606549,-3.190972)"
       style="font-size:12.000000;fill:#b3b3b3;fill-opacity:1.0000000;fill-rule:evenodd;stroke:#7f7f7f;stroke-width:2.9520299;stroke-linejoin:round;"
       d="M -33.321479,1.9863534 C -34.435340,1.9863534 -35.332058,2.8830717 -35.332058,3.9969325 L -35.332058,36.875631 C -35.332058,37.989492 -34.435340,38.886210 -33.321479,38.886210 L -14.573943,38.886210 C -13.460082,38.886210 -12.563364,37.989492 -12.563364,36.875631 L -12.563364,3.9969325 C -12.563364,2.8830717 -13.460082,1.9863534 -14.573943,1.9863534 L -33.321479,1.9863534 z "
       id="rect603" />
  </g>
  <metadata
     id="metadata6">
    <rdf:RDF
       id="RDF7">
      <cc:Work
         rdf:about=""
         id="Work8">
        <dc:title
           id="title9">Part of the Flat Icon Collection (Thu Aug 26 14:38:01 2004)</dc:title>
        <dc:description
           id="description11" />
        <dc:subject
           id="subject12">
          <rdf:Bag
             id="Bag13">
            <rdf:li
               id="li14" />
          </rdf:Bag>
        </dc:subject>
        <dc:publisher
           id="publisher15">
          <cc:Agent
             rdf:about=""
             id="Agent16">
            <dc:title
               id="title17" />
          </cc:Agent>
        </dc:publisher>
        <dc:creator
           id="creator18">
          <cc:Agent
             rdf:about=""
             id="Agent19">
            <dc:title
               id="title20">Danny Allen</dc:title>
          </cc:Agent>
        </dc:creator>
        <dc:rights
           id="rights22">
          <cc:Agent
             rdf:about=""
             id="Agent23">
            <dc:title
               id="title24">Danny Allen</dc:title>
          </cc:Agent>
        </dc:rights>
        <dc:date
           id="date26" />
        <dc:format
           id="format27">image/svg+xml</dc:format>
        <dc:type
           rdf:resource="http://purl.org/dc/dcmitype/StillImage"
           id="type29" />
        <cc:license
           rdf:resource="http://creativecommons.org/licenses/LGPL/2.1/"
           id="license30">
          <dc:date
             id="date31" />
        </cc:license>
        <dc:language
           id="language32">en</dc:language>
      </cc:Work>
    </rdf:RDF>
  </metadata>
  <g
     id="g1565"
     transform="matrix(0.654320,0.000000,0.000000,0.654320,10.23327,14.64109)">
    <path
       transform="matrix(0.297746,0.000000,0.000000,0.297746,-185.7671,-10.05825)"
       style="font-size:12.000000;fill:#4c4c4c;fill-opacity:1.0000000;fill-rule:evenodd;stroke:#333333;stroke-width:10.495523;stroke-linejoin:round;"
       d="M 799.18982,123.26389 C 799.18982,156.48611 772.22686,183.44907 739.00464,183.44907 C 705.78242,183.44907 678.81945,156.48611 678.81945,123.26389 C 678.81945,90.041664 705.78242,63.078701 739.00464,63.078701 C 772.22686,63.078701 799.18982,90.041664 799.18982,123.26389 z "
       id="path640" />
    <path
       sodipodi:rx="6.8073902"
       sodipodi:ry="6.8073902"
       style="fill:#b3b3b3;fill-opacity:1.0000000;fill-rule:evenodd;stroke:none;stroke-width:1.0000000pt;"
       sodipodi:type="arc"
       d="M 31.174030 40.595757 A 6.8073902 6.8073902 0 1 0 17.559250,40.595757 A 6.8073902 6.8073902 0 1 0 31.174030 40.595757 z"
       transform="matrix(1.785774,0.000000,0.000000,1.785774,-13.24224,-41.97120)"
       sodipodi:cy="40.595757"
       sodipodi:cx="24.366640"
       id="path856" />
    <path
       style="fill:#4c4c4c;fill-opacity:1.0000000;fill-rule:evenodd;stroke:#4c4c4c;stroke-width:3.1250000;stroke-linecap:round;stroke-linejoin:round;stroke-miterlimit:4.0000000;stroke-opacity:1.0000000;"
       d="M 36.273875,39.719747 L 38.057817,22.654240 L 20.715796,25.421123 L 36.273875,39.719747 z "
       sodipodi:nodetypes="cccc"
       sodipodi:stroke-cmyk="(0.0000000 0.0000000 0.0000000 0.69999999)"
       id="path869" />
    <path
       sodipodi:nodetypes="ccccccccccccccccccccccc"
       style="font-size:12.000000;fill:#333333;fill-rule:evenodd;stroke:#333333;stroke-width:0.25370151;stroke-linejoin:round;stroke-miterlimit:4.0000000;stroke-opacity:1.0000000;"
       transform="matrix(0.985410,0.000000,0.000000,0.985410,-13.95603,11.67228)"
       d="M 22.814086,34.828318 L 27.941540,40.199923 L 36.243083,34.584127 L 42.835514,37.514143 L 45.032984,47.137679 L 52.113716,47.072644 L 54.067039,37.198407 L 60.659460,34.584127 L 68.961010,39.955777 L 72.867638,34.584127 L 63.446390,25.693122 C 39.298843,47.841269 18.431643,13.705546 39.173061,-0.57543633 L 39.173034,-5.7028902 L 36.731417,-4.4820736 L 29.162336,-9.2938600 L 23.933746,-5.0000606 L 28.674012,3.0869902 L 25.988216,9.6794110 L 16.738527,11.215933 L 16.709984,18.225149 L 26.232391,20.666790 L 28.857147,27.076123 L 22.814086,34.828318 z "
       id="path705" />
  </g>
</svg>
