<?xml version="1.0" encoding="UTF-8" standalone="no"?>
<!DOCTYPE svg PUBLIC "-//W3C//DTD SVG 20010904//EN"
"http://www.w3.org/TR/2001/REC-SVG-20010904/DTD/svg10.dtd">
<svg
   sodipodi:docname="kfocus.svg"
   height="60.0000000"
   sodipodi:version="0.32"
   width="60.0000000"
   _SVGFile__filename="scalable/apps/window-capplet.svg"
   version="1.0"
   y="0"
   x="0"
   inkscape:version="0.39"
   id="svg1"
   sodipodi:docbase="/home/danny/work/flat/newscale/apps"
   xmlns="http://www.w3.org/2000/svg"
   xmlns:cc="http://web.resource.org/cc/"
   xmlns:inkscape="http://www.inkscape.org/namespaces/inkscape"
   xmlns:sodipodi="http://sodipodi.sourceforge.net/DTD/sodipodi-0.dtd"
   xmlns:rdf="http://www.w3.org/1999/02/22-rdf-syntax-ns#"
   xmlns:dc="http://purl.org/dc/elements/1.1/"
   xmlns:xlink="http://www.w3.org/1999/xlink">
  <sodipodi:namedview
     bordercolor="#666666"
     inkscape:pageshadow="2"
     inkscape:window-y="0"
     pagecolor="#ffffff"
     inkscape:window-height="699"
     inkscape:zoom="4.9119411"
     inkscape:window-x="0"
     borderopacity="1.0"
     inkscape:cx="35.740942"
     inkscape:cy="28.573543"
     inkscape:window-width="1024"
     inkscape:pageopacity="0.0"
     id="base" />
  <defs
     id="defs3" />
  <metadata
     id="metadata10">
    <rdf:RDF
       id="RDF11">
      <cc:Work
         rdf:about=""
         id="Work12">
        <dc:title
           id="title13">Part of the Flat Icon Collection (Thu Aug 26 14:31:40 2004)</dc:title>
        <dc:description
           id="description15" />
        <dc:subject
           id="subject16">
          <rdf:Bag
             id="Bag17">
            <rdf:li
               id="li18" />
          </rdf:Bag>
        </dc:subject>
        <dc:publisher
           id="publisher19">
          <cc:Agent
             rdf:about=""
             id="Agent20">
            <dc:title
               id="title21" />
          </cc:Agent>
        </dc:publisher>
        <dc:creator
           id="creator22">
          <cc:Agent
             rdf:about=""
             id="Agent23">
            <dc:title
               id="title24">Danny Allen</dc:title>
          </cc:Agent>
        </dc:creator>
        <dc:rights
           id="rights26">
          <cc:Agent
             rdf:about=""
             id="Agent27">
            <dc:title
               id="title28">Danny Allen</dc:title>
          </cc:Agent>
        </dc:rights>
        <dc:date
           id="date30" />
        <dc:format
           id="format31">image/svg+xml</dc:format>
        <dc:type
           rdf:resource="http://purl.org/dc/dcmitype/StillImage"
           id="type33" />
        <cc:license
           rdf:resource="http://creativecommons.org/licenses/LGPL/2.1/"
           id="license34">
          <dc:date
             id="date35" />
        </cc:license>
        <dc:language
           id="language36">en</dc:language>
      </cc:Work>
    </rdf:RDF>
  </metadata>
  <g
     id="g1641">
    <path
       transform="matrix(0.806770,0.000000,0.000000,1.055951,0.463040,-6.164843)"
       style="font-size:12.000000;fill:#cccccc;fill-opacity:1.0000000;fill-rule:evenodd;stroke:none;stroke-width:2.7315099;stroke-linecap:round;stroke-linejoin:round;"
       d="M 6.3261530,9.9924889 C 5.0146433,9.9924889 3.9588070,11.048325 3.9588070,12.359835 L 3.9588070,42.427383 C 3.9588070,43.738892 5.0146433,44.794729 6.3261530,44.794729 L 53.775738,44.794729 C 55.087247,44.794729 56.143084,43.738892 56.143084,42.427383 L 56.143084,12.359835 C 56.143084,11.048325 55.087247,9.9924889 53.775738,9.9924889 L 6.3261530,9.9924889 z "
       id="path1636"
       sodipodi:nodetypes="ccccccccc" />
    <path
       style="font-size:12.000000;fill:#7f7f7f;fill-rule:evenodd;stroke:none;stroke-width:3.1250000;stroke-linecap:round;stroke-linejoin:round;stroke-miterlimit:4.0000000;"
       d="M 6.2799752,4.4817147 C 4.9940482,4.4817147 3.9588082,5.5169555 3.9588082,6.8028824 L 3.9588082,10.882279 C 3.9588082,12.168206 4.9940482,13.203447 6.2799752,13.203447 L 53.821915,13.203447 C 55.107842,13.203447 56.143083,12.168206 56.143083,10.882279 L 56.143083,6.8028824 C 56.143083,5.5169555 55.107842,4.4817147 53.821915,4.4817147 L 6.2799752,4.4817147 z "
       id="path1637"
       sodipodi:nodetypes="ccccccccc"
       transform="matrix(0.806770,0.000000,0.000000,0.806770,0.463040,0.680337)" />
    <path
       style="font-size:12.000000;fill:none;fill-opacity:0.75000000;fill-rule:evenodd;stroke:#4c4c4c;stroke-width:2.3240826;stroke-linecap:round;stroke-linejoin:round;stroke-miterlimit:4.0000000;stroke-opacity:1.0000000;"
       d="M 53.028658,7.6135273 L 50.322628,10.319557 M 50.259697,7.5505963 L 53.028658,10.319557"
       sodipodi:nodetypes="cccc"
       id="path1638"
       transform="matrix(0.806770,0.000000,0.000000,0.806770,0.463040,0.680337)"
       sodipodi:stroke-cmyk="(0.0000000 0.0000000 0.0000000 0.70196080)" />
    <path
       style="font-size:12.000000;fill:none;fill-opacity:1.0000000;fill-rule:evenodd;stroke:#4c4c4c;stroke-width:3.0987766;stroke-linecap:round;stroke-linejoin:round;stroke-miterlimit:4.0000000;stroke-opacity:1.0000000;"
       d="M 81.253253,9.9924880 C 79.941743,9.9924880 78.885907,11.374432 78.885907,13.091017 L 78.885907,52.445288 C 78.885907,54.161873 79.941743,55.543818 81.253253,55.543818 L 128.70284,55.543818 C 130.01435,55.543818 131.07019,54.161873 131.07019,52.445288 L 131.07019,13.091017 C 131.07019,11.374432 130.01435,9.9924880 128.70284,9.9924880 L 81.253253,9.9924880 z "
       id="path1639"
       sodipodi:nodetypes="ccccccccc"
       transform="matrix(0.806770,0.000000,0.000000,0.806770,-59.98590,-3.674908)"
       sodipodi:stroke-cmyk="(0.0000000 0.0000000 0.0000000 0.70196080)" />
    <path
       style="font-size:12.000000;fill:none;fill-rule:evenodd;stroke:#4c4c4c;stroke-width:3.0987766;stroke-linecap:round;stroke-linejoin:round;stroke-miterlimit:4.0000000;stroke-opacity:1.0000000;"
       d="M 3.9588081,10.882279 C 3.9588081,12.168206 4.9940481,13.203447 6.2799751,13.203447 L 53.826204,13.203447 C 55.112131,13.203447 56.147372,12.168206 56.147372,10.882279"
       id="path1640"
       sodipodi:nodetypes="cccc"
       transform="matrix(0.806770,0.000000,0.000000,0.806770,0.463040,0.680337)"
       sodipodi:stroke-cmyk="(0.0000000 0.0000000 0.0000000 0.70196080)" />
  </g>
  <g
     id="g1630"
     transform="translate(10.56328,15.06100)">
    <path
       transform="matrix(0.806770,0.000000,0.000000,1.055951,0.463040,-6.164843)"
       style="font-size:12.000000;fill:#cccccc;fill-opacity:1.0000000;fill-rule:evenodd;stroke:none;stroke-width:2.7315099;stroke-linecap:round;stroke-linejoin:round;"
       d="M 6.3261530,9.9924889 C 5.0146433,9.9924889 3.9588070,11.048325 3.9588070,12.359835 L 3.9588070,42.427383 C 3.9588070,43.738892 5.0146433,44.794729 6.3261530,44.794729 L 53.775738,44.794729 C 55.087247,44.794729 56.143084,43.738892 56.143084,42.427383 L 56.143084,12.359835 C 56.143084,11.048325 55.087247,9.9924889 53.775738,9.9924889 L 6.3261530,9.9924889 z "
       id="rect921"
       sodipodi:nodetypes="ccccccccc" />
    <path
       style="font-size:12.000000;fill:#7f7f7f;fill-rule:evenodd;stroke:none;stroke-width:3.1250000;stroke-linecap:round;stroke-linejoin:round;stroke-miterlimit:4.0000000;"
       d="M 6.2799752,4.4817147 C 4.9940482,4.4817147 3.9588082,5.5169555 3.9588082,6.8028824 L 3.9588082,10.882279 C 3.9588082,12.168206 4.9940482,13.203447 6.2799752,13.203447 L 53.821915,13.203447 C 55.107842,13.203447 56.143083,12.168206 56.143083,10.882279 L 56.143083,6.8028824 C 56.143083,5.5169555 55.107842,4.4817147 53.821915,4.4817147 L 6.2799752,4.4817147 z "
       id="rect922"
       sodipodi:nodetypes="ccccccccc"
       transform="matrix(0.806770,0.000000,0.000000,0.806770,0.463040,0.680337)" />
    <path
       style="font-size:12.000000;fill:none;fill-opacity:0.75000000;fill-rule:evenodd;stroke:#333333;stroke-width:2.3240826;stroke-linecap:round;stroke-linejoin:round;stroke-miterlimit:4.0000000;stroke-opacity:1.0000000;"
       d="M 53.028658,7.6135273 L 50.322628,10.319557 M 50.259697,7.5505963 L 53.028658,10.319557"
       sodipodi:nodetypes="cccc"
       id="path923"
       transform="matrix(0.806770,0.000000,0.000000,0.806770,0.463040,0.680337)"
       sodipodi:stroke-cmyk="(0.0000000 0.0000000 0.0000000 0.80000001)" />
    <path
       style="font-size:12.000000;fill:none;fill-opacity:1.0000000;fill-rule:evenodd;stroke:#333333;stroke-width:3.0987766;stroke-linecap:round;stroke-linejoin:round;stroke-miterlimit:4.0000000;"
       d="M 81.253253,9.9924880 C 79.941743,9.9924880 78.885907,11.374432 78.885907,13.091017 L 78.885907,52.445288 C 78.885907,54.161873 79.941743,55.543818 81.253253,55.543818 L 128.70284,55.543818 C 130.01435,55.543818 131.07019,54.161873 131.07019,52.445288 L 131.07019,13.091017 C 131.07019,11.374432 130.01435,9.9924880 128.70284,9.9924880 L 81.253253,9.9924880 z "
       id="rect1561"
       sodipodi:nodetypes="ccccccccc"
       transform="matrix(0.806770,0.000000,0.000000,0.806770,-59.98590,-3.674908)" />
    <path
       style="font-size:12.000000;fill:none;fill-rule:evenodd;stroke:#333333;stroke-width:3.0987766;stroke-linecap:round;stroke-linejoin:round;stroke-miterlimit:4.0000000;stroke-opacity:1.0000000;"
       d="M 3.9588081,10.882279 C 3.9588081,12.168206 4.9940481,13.203447 6.2799751,13.203447 L 53.826204,13.203447 C 55.112131,13.203447 56.147372,12.168206 56.147372,10.882279"
       id="rect1558"
       sodipodi:nodetypes="cccc"
       transform="matrix(0.806770,0.000000,0.000000,0.806770,0.463040,0.680337)"
       sodipodi:stroke-cmyk="(0.0000000 0.0000000 0.0000000 0.80000001)" />
  </g>
</svg>
