<?xml version="1.0" encoding="UTF-8" standalone="no"?>
<!DOCTYPE svg PUBLIC "-//W3C//DTD SVG 20010904//EN"
"http://www.w3.org/TR/2001/REC-SVG-20010904/DTD/svg10.dtd">
<svg
   sodipodi:docname="font_type1.svg"
   height="60.0000000"
   sodipodi:version="0.32"
   width="60.0000000"
   _SVGFile__filename="scalable/mimetypes/font_type1.svg"
   version="1.0"
   y="0"
   x="0"
   inkscape:version="0.39"
   id="svg1"
   sodipodi:docbase="/home/danny/work/flat/newscale/mimetypes"
   xmlns="http://www.w3.org/2000/svg"
   xmlns:cc="http://web.resource.org/cc/"
   xmlns:inkscape="http://www.inkscape.org/namespaces/inkscape"
   xmlns:sodipodi="http://sodipodi.sourceforge.net/DTD/sodipodi-0.dtd"
   xmlns:rdf="http://www.w3.org/1999/02/22-rdf-syntax-ns#"
   xmlns:dc="http://purl.org/dc/elements/1.1/"
   xmlns:xlink="http://www.w3.org/1999/xlink">
  <sodipodi:namedview
     bordercolor="#666666"
     inkscape:pageshadow="2"
     inkscape:window-y="0"
     pagecolor="#ffffff"
     inkscape:window-height="685"
     inkscape:zoom="6.9465337"
     inkscape:window-x="0"
     borderopacity="1.0"
     inkscape:cx="37.697540"
     inkscape:cy="31.806367"
     inkscape:window-width="1016"
     inkscape:pageopacity="0.0"
     id="base" />
  <defs
     id="defs3">
    <linearGradient
       id="linearGradient900">
      <stop
         style="stop-color:#000;stop-opacity:1;"
         id="stop901"
         offset="0" />
      <stop
         style="stop-color:#fff;stop-opacity:1;"
         id="stop902"
         offset="1" />
    </linearGradient>
    <linearGradient
       xlink:href="#linearGradient900"
       id="linearGradient903" />
    <linearGradient
       xlink:href="#linearGradient900"
       id="linearGradient904" />
    <linearGradient
       xlink:href="#linearGradient900"
       id="linearGradient905" />
    <linearGradient
       xlink:href="#linearGradient900"
       id="linearGradient906" />
    <linearGradient
       xlink:href="#linearGradient900"
       id="linearGradient907" />
  </defs>
  <path
     style="font-size:12.000000;fill:#b3b3b3;fill-opacity:1.0000000;fill-rule:evenodd;stroke:#333333;stroke-width:3.1250000;stroke-linecap:round;stroke-linejoin:round;stroke-opacity:1.0000000;"
     d="M 6.6785922,5.1165123 C 5.5705922,5.1165123 4.6785922,6.0085123 4.6785922,7.1165123 L 4.6785922,53.501354 C 4.6785922,54.609354 5.5705922,55.501354 6.6785922,55.501354 L 53.423324,55.501354 C 54.531324,55.501354 55.423324,54.609354 55.423324,53.501354 L 55.423324,7.1165123 C 55.423324,6.0085123 54.531324,5.1165123 53.423324,5.1165123 L 6.6785922,5.1165123 z "
     id="rect812" />
  <path
     id="path837"
     style="font-size:12.000000;font-weight:900;fill:#333333;stroke-width:1.0000000pt;font-family:VAG Rounded Black SSi;"
     d="M 45.738817,37.868179 L 45.738817,30.030307 L 45.290592,30.030307 C 44.652578,30.030307 44.155898,29.880898 43.800548,29.582082 C 43.437124,29.283266 43.255410,28.831003 43.255410,28.225295 C 43.255410,27.611510 43.437124,27.159247 43.800548,26.868507 C 44.155898,26.577767 44.652578,26.432397 45.290592,26.432397 L 45.738817,26.432397 L 45.738817,23.876305 C 45.738817,23.294825 45.916490,22.810258 46.271839,22.422604 C 46.627188,22.034951 47.091566,21.841124 47.664969,21.841124 C 48.246450,21.841124 48.714865,22.034951 49.070215,22.422604 C 49.425564,22.810258 49.603237,23.294825 49.603237,23.876305 L 49.603237,26.432397 L 50.669285,26.432397 C 51.323452,26.432397 51.824170,26.577767 52.171444,26.868507 C 52.526793,27.159247 52.704466,27.611510 52.704466,28.225295 C 52.704466,28.831003 52.526793,29.283266 52.171444,29.582082 C 51.824170,29.880898 51.323452,30.030307 50.669285,30.030307 L 49.603237,30.030307 L 49.603237,37.868179 C 49.603237,38.441582 49.421526,38.926149 49.058101,39.321880 C 48.702752,39.709534 48.238374,39.903361 47.664969,39.903361 C 47.099642,39.903361 46.635266,39.709534 46.271839,39.321880 C 45.916490,38.926149 45.738817,38.441582 45.738817,37.868179 z M 30.947408,37.868179 L 30.947408,28.297979 C 30.947408,27.724575 31.125081,27.248084 31.480430,26.868507 C 31.843857,26.480853 32.308233,26.287026 32.873562,26.287026 C 33.341976,26.287026 33.745783,26.412206 34.084979,26.662566 C 34.432253,26.904849 34.674535,27.191552 34.811831,27.522672 C 35.441767,26.529310 36.552232,26.032629 38.143229,26.032629 C 39.055829,26.032629 39.875554,26.198189 40.602406,26.529310 C 41.337333,26.860431 41.910736,27.369226 42.322618,28.055696 C 42.742577,28.734090 42.952557,29.590158 42.952557,30.623901 L 42.952557,37.868179 C 42.952557,38.449660 42.770843,38.934227 42.407418,39.321880 C 42.043992,39.709534 41.579616,39.903361 41.014289,39.903361 C 40.448959,39.903361 39.984583,39.705496 39.621157,39.309765 C 39.257732,38.914035 39.076020,38.433506 39.076020,37.868179 L 39.076020,31.689949 C 39.076020,30.987327 38.886231,30.421998 38.506653,29.993964 C 38.135151,29.557854 37.614242,29.339799 36.943925,29.339799 C 36.281683,29.339799 35.760774,29.557854 35.381196,29.993964 C 35.001617,30.430074 34.811831,30.995403 34.811831,31.689949 L 34.811831,37.868179 C 34.811831,38.441582 34.630117,38.926149 34.266692,39.321880 C 33.911343,39.709534 33.446965,39.903361 32.873562,39.903361 C 32.308233,39.903361 31.843857,39.709534 31.480430,39.321880 C 31.125081,38.926149 30.947408,38.441582 30.947408,37.868179 z M 23.145877,26.032629 C 24.115012,26.032629 24.999348,26.214341 25.798884,26.577767 C 26.606495,26.933116 27.297003,27.433835 27.870408,28.079924 C 28.451888,28.726014 28.896073,29.473055 29.202966,30.321047 C 29.517935,31.160963 29.675420,32.081640 29.675420,33.083079 C 29.675420,34.383334 29.400831,35.578600 28.851655,36.668876 C 28.310555,37.751075 27.543325,38.603104 26.549962,39.224967 C 25.556599,39.846827 24.421905,40.157759 23.145877,40.157759 C 22.184821,40.157759 21.304523,39.980083 20.504989,39.624734 C 19.713528,39.269385 19.023021,38.764627 18.433465,38.110462 C 17.843907,37.448221 17.395682,36.689065 17.088791,35.832998 C 16.781897,34.968852 16.628452,34.052214 16.628452,33.083079 C 16.628452,31.798976 16.903039,30.615825 17.452215,29.533626 C 18.001391,28.443350 18.768623,27.587281 19.753908,26.965420 C 20.747271,26.343559 21.877928,26.032629 23.145877,26.032629 z M 23.145877,29.788023 C 22.322115,29.788023 21.671987,30.102992 21.195496,30.732929 C 20.727082,31.362866 20.492873,32.146249 20.492873,33.083079 C 20.492873,33.680712 20.597864,34.237963 20.807842,34.754835 C 21.017822,35.263631 21.320676,35.667437 21.716405,35.966253 C 22.120212,36.265069 22.596701,36.414478 23.145877,36.414478 C 23.977718,36.414478 24.627845,36.099509 25.096261,35.469571 C 25.564675,34.831559 25.798884,34.036061 25.798884,33.083079 C 25.798884,32.138173 25.564675,31.354790 25.096261,30.732929 C 24.627845,30.102992 23.977718,29.788023 23.145877,29.788023 z M 9.8808563,37.868179 L 9.8808563,30.030307 L 9.4326315,30.030307 C 8.7946177,30.030307 8.2979373,29.880898 7.9425881,29.582082 C 7.5791634,29.283266 7.3974500,28.831003 7.3974500,28.225295 C 7.3974500,27.611510 7.5791634,27.159247 7.9425881,26.868507 C 8.2979373,26.577767 8.7946177,26.432397 9.4326315,26.432397 L 9.8808563,26.432397 L 9.8808563,24.675841 C 9.8808563,24.102437 9.9777697,23.553261 10.171596,23.028313 C 10.365423,22.503365 10.640010,22.051103 10.995359,21.671525 C 11.358786,21.283872 11.782782,20.985055 12.267349,20.775076 C 12.751916,20.565097 13.293014,20.460108 13.890648,20.460108 C 14.633651,20.460108 15.247436,20.593364 15.732003,20.859876 C 16.224646,21.118311 16.470968,21.586726 16.470968,22.265120 C 16.470968,23.476538 15.861221,24.082246 14.641727,24.082246 C 14.326757,24.082246 14.096588,24.171084 13.951219,24.348758 C 13.813926,24.526433 13.745277,24.857554 13.745277,25.342121 L 13.745277,26.432397 L 14.811325,26.432397 C 15.465492,26.432397 15.966210,26.577767 16.313483,26.868507 C 16.668832,27.159247 16.846506,27.611510 16.846506,28.225295 C 16.846506,28.831003 16.668832,29.283266 16.313483,29.582082 C 15.966210,29.880898 15.465492,30.030307 14.811325,30.030307 L 13.745277,30.030307 L 13.745277,37.868179 C 13.745277,38.441582 13.563566,38.926149 13.200141,39.321880 C 12.844792,39.709534 12.380414,39.903361 11.807009,39.903361 C 11.241682,39.903361 10.777306,39.709534 10.413879,39.321880 C 10.058530,38.926149 9.8808563,38.441582 9.8808563,37.868179 z " />
  <metadata
     id="metadata14">
    <rdf:RDF
       id="RDF15">
      <cc:Work
         rdf:about=""
         id="Work16">
        <dc:title
           id="title17">Part of the Flat Icon Collection (Thu Aug 26 14:40:35 2004)</dc:title>
        <dc:description
           id="description19" />
        <dc:subject
           id="subject20">
          <rdf:Bag
             id="Bag21">
            <rdf:li
               id="li22" />
          </rdf:Bag>
        </dc:subject>
        <dc:publisher
           id="publisher23">
          <cc:Agent
             rdf:about=""
             id="Agent24">
            <dc:title
               id="title25" />
          </cc:Agent>
        </dc:publisher>
        <dc:creator
           id="creator26">
          <cc:Agent
             rdf:about=""
             id="Agent27">
            <dc:title
               id="title28">Danny Allen</dc:title>
          </cc:Agent>
        </dc:creator>
        <dc:rights
           id="rights30">
          <cc:Agent
             rdf:about=""
             id="Agent31">
            <dc:title
               id="title32">Danny Allen</dc:title>
          </cc:Agent>
        </dc:rights>
        <dc:date
           id="date34" />
        <dc:format
           id="format35">image/svg+xml</dc:format>
        <dc:type
           rdf:resource="http://purl.org/dc/dcmitype/StillImage"
           id="type37" />
        <cc:license
           rdf:resource="http://creativecommons.org/licenses/LGPL/2.1/"
           id="license38">
          <dc:date
             id="date39" />
        </cc:license>
        <dc:language
           id="language40">en</dc:language>
      </cc:Work>
    </rdf:RDF>
  </metadata>
</svg>
