<?xml version="1.0" encoding="UTF-8" standalone="no"?>
<!DOCTYPE svg PUBLIC "-//W3C//DTD SVG 20010904//EN"
"http://www.w3.org/TR/2001/REC-SVG-20010904/DTD/svg10.dtd">
<svg
   sodipodi:docname="khexedit.svg"
   height="60.0000000"
   sodipodi:version="0.32"
   width="60.0000000"
   _SVGFile__filename="scalable/apps/khexedit.svg"
   version="1.0"
   y="0"
   x="0"
   inkscape:version="0.39"
   id="svg1"
   sodipodi:docbase="/home/danny/work/flat/newscale/apps"
   xmlns="http://www.w3.org/2000/svg"
   xmlns:cc="http://web.resource.org/cc/"
   xmlns:inkscape="http://www.inkscape.org/namespaces/inkscape"
   xmlns:sodipodi="http://sodipodi.sourceforge.net/DTD/sodipodi-0.dtd"
   xmlns:rdf="http://www.w3.org/1999/02/22-rdf-syntax-ns#"
   xmlns:dc="http://purl.org/dc/elements/1.1/"
   xmlns:xlink="http://www.w3.org/1999/xlink">
  <sodipodi:namedview
     bordercolor="#666666"
     inkscape:pageshadow="2"
     inkscape:window-y="0"
     pagecolor="#ffffff"
     inkscape:window-height="699"
     inkscape:zoom="4.9119411"
     inkscape:window-x="0"
     borderopacity="1.0"
     inkscape:cx="32.740467"
     inkscape:cy="24.388012"
     inkscape:window-width="1024"
     inkscape:pageopacity="0.0"
     id="base" />
  <defs
     id="defs3" />
  <path
     style="font-size:12.000000;fill:#b3b3b3;fill-rule:evenodd;stroke:#4c4c4c;stroke-width:3.1250000;stroke-linejoin:round;stroke-opacity:1.0000000;"
     d="M 3.1238443,28.311236 C 2.6534359,28.623385 2.8843023,29.386898 3.6414820,30.023147 L 35.339729,56.658813 C 36.096908,57.295062 37.085183,57.555980 37.555591,57.243830 L 57.401360,44.074748 C 57.871768,43.762599 57.640902,42.999086 56.883722,42.362837 L 25.185476,15.727171 C 24.428296,15.090922 23.440021,14.830004 22.969613,15.142154 L 3.1238443,28.311236 z "
     id="rect812" />
  <path
     id="path845"
     style="font-size:12.000000;font-weight:900;fill:#4c4c4c;fill-opacity:1.0000000;stroke:none;stroke-width:1.0000000pt;stroke-opacity:1.0000000;font-family:VAG Rounded Black SSi;"
     d="M 25.162180,28.265591 L 19.163930,23.225329 C 18.893597,22.998171 18.732875,22.782754 18.681763,22.579079 C 18.629324,22.371006 18.676172,22.218484 18.822309,22.121511 L 20.484351,21.018629 C 20.656662,20.904289 20.863440,20.877952 21.104684,20.939621 C 21.348110,20.999842 21.596213,21.136157 21.848993,21.348565 C 22.101772,21.560972 22.252148,21.759495 22.300121,21.944133 C 22.348094,22.128771 22.287016,22.277536 22.116886,22.390430 L 20.997952,23.132921 L 22.388240,24.301165 L 23.366489,23.652028 C 23.536619,23.539134 23.741642,23.511323 23.981557,23.568594 C 24.221471,23.625865 24.467819,23.760704 24.720598,23.973112 C 24.976889,24.188470 25.129021,24.388469 25.176994,24.573106 C 25.224966,24.757744 25.163888,24.906510 24.993757,25.019403 L 24.015509,25.668540 L 26.248396,27.544810 C 26.553838,27.801470 26.737142,28.030941 26.798306,28.233224 C 26.858141,28.431110 26.806266,28.584328 26.642679,28.692880 C 26.483455,28.798536 26.271836,28.817525 26.007824,28.749846 C 25.742482,28.677768 25.460601,28.516351 25.162180,28.265591 z M 22.188173,30.239055 L 16.189924,25.198793 C 15.919590,24.971635 15.758868,24.756218 15.707757,24.552543 C 15.655317,24.344470 15.702165,24.191948 15.848303,24.094975 L 17.510344,22.992093 C 17.682655,22.877752 17.889433,22.851416 18.130678,22.913085 C 18.374103,22.973306 18.622207,23.109621 18.874986,23.322028 C 19.127766,23.534436 19.278142,23.732959 19.326115,23.917597 C 19.374087,24.102235 19.313009,24.251000 19.142879,24.363894 L 18.023945,25.106385 L 19.414233,26.274629 L 20.392482,25.625491 C 20.562612,25.512598 20.767636,25.484787 21.007550,25.542058 C 21.247465,25.599329 21.493812,25.734168 21.746592,25.946576 C 22.002882,26.161934 22.155014,26.361933 22.202987,26.546570 C 22.250960,26.731208 22.189881,26.879974 22.019751,26.992867 L 21.041502,27.642004 L 23.274389,29.518274 C 23.579831,29.774934 23.763136,30.004405 23.824300,30.206688 C 23.884135,30.404573 23.832259,30.557792 23.668673,30.666344 C 23.509448,30.772000 23.297830,30.790989 23.033818,30.723310 C 22.768475,30.651232 22.486595,30.489815 22.188173,30.239055 z M 19.481158,30.886997 L 20.619722,30.131479 C 20.776765,30.027270 20.984261,30.016297 21.242208,30.098561 C 21.496644,30.177875 21.729187,30.306035 21.939836,30.483041 C 22.161019,30.668898 22.309401,30.860825 22.384982,31.058821 C 22.457053,31.253868 22.414567,31.403496 22.257524,31.507705 L 20.065461,32.962294 C 19.886607,33.080976 19.667406,33.118195 19.407861,33.073950 C 19.148316,33.029705 18.904442,32.911705 18.676237,32.719947 C 18.486653,32.560641 18.328164,32.356942 18.200772,32.108849 C 18.073380,31.860756 17.970697,31.612106 17.892725,31.362898 C 17.814752,31.113690 17.738109,30.868879 17.662796,30.628467 C 17.589396,30.429022 17.491262,30.169433 17.368395,29.849700 C 17.242018,29.527016 17.112847,29.216746 16.980882,28.918889 C 16.848918,28.621032 16.695993,28.331803 16.522109,28.051204 C 16.346894,27.766207 16.169762,27.548481 15.990709,27.398025 C 15.499193,26.985010 15.114932,26.870409 14.837925,27.054223 C 14.676519,27.161327 14.631135,27.297039 14.701771,27.461359 C 14.768895,27.622727 14.912781,27.838757 15.133426,28.109447 C 15.354072,28.380137 15.501229,28.593995 15.574898,28.751023 C 15.645056,28.905100 15.603794,29.032796 15.451113,29.134111 C 15.291888,29.239767 15.079366,29.251436 14.813546,29.169117 C 14.546396,29.082400 14.302230,28.946113 14.081048,28.760257 C 13.751030,28.482946 13.475407,28.190661 13.254178,27.883399 C 13.029439,27.573187 12.874945,27.274441 12.790698,26.987158 C 12.706451,26.699876 12.699045,26.432881 12.768481,26.186173 C 12.837917,25.939465 12.986055,25.740849 13.212895,25.590324 C 13.492083,25.405063 13.842736,25.317575 14.264853,25.327859 C 14.686970,25.338144 15.146452,25.450348 15.643299,25.664474 C 16.138817,25.874202 16.616534,26.172298 17.076452,26.558762 C 17.441578,26.865573 17.747096,27.196100 17.993005,27.550341 C 18.241096,27.903136 18.439288,28.246802 18.587582,28.581342 C 18.734546,28.911484 18.899140,29.330243 19.081364,29.837620 C 19.262258,30.340600 19.395523,30.690392 19.481158,30.886997 z M 11.463128,32.833740 C 10.936504,32.391224 10.473052,31.941107 10.072771,31.483390 C 9.6746711,31.024225 9.3689210,30.580338 9.1555194,30.151728 C 8.9386063,29.720166 8.8460666,29.327512 8.8778983,28.973762 C 8.9062194,28.617062 9.0850571,28.329437 9.4144118,28.110887 C 9.7459476,27.890890 10.150569,27.791348 10.628276,27.812262 C 11.102473,27.830226 11.613795,27.944990 12.162244,28.156553 C 12.707181,28.365167 13.262247,28.646254 13.827445,28.999818 C 14.392641,29.353380 14.935041,29.748470 15.454644,30.185086 C 15.974246,30.621703 16.435944,31.070344 16.839735,31.531011 C 17.245708,31.990231 17.557815,32.437820 17.776057,32.873778 C 17.992970,33.305339 18.087265,33.699469 18.058944,34.056168 C 18.027112,34.409918 17.845428,34.696792 17.513893,34.916790 C 17.184538,35.135340 16.782762,35.235633 16.308566,35.217668 C 15.830859,35.196754 15.316691,35.081239 14.766061,34.871123 C 14.214103,34.656610 13.657280,34.374047 13.095594,34.023434 C 12.533908,33.672821 11.989752,33.276257 11.463128,32.833740 z M 12.588604,32.086906 C 12.946709,32.387818 13.335588,32.673587 13.755244,32.944214 C 14.174899,33.214842 14.571285,33.408514 14.944401,33.525230 C 15.317518,33.641947 15.608771,33.630832 15.818162,33.491887 C 16.123524,33.289257 16.102664,32.938794 15.755583,32.440495 C 15.404991,31.939247 14.929519,31.436389 14.329167,30.931920 C 13.732327,30.430402 13.122952,30.021676 12.501046,29.705744 C 11.875627,29.386862 11.410238,29.328736 11.104876,29.531365 C 10.943471,29.638469 10.879785,29.791604 10.913819,29.990771 C 10.947854,30.189938 11.048676,30.410784 11.216286,30.653309 C 11.386077,30.894387 11.594382,31.141587 11.841201,31.394909 C 12.086690,31.643832 12.335825,31.874499 12.588604,32.086906 z M 37.014965,34.220286 C 36.572600,33.848572 36.179125,33.452337 35.834539,33.031579 C 35.488624,32.606424 35.200720,32.195573 34.970826,31.799026 C 34.739601,31.398082 34.528433,30.981188 34.337321,30.548347 C 34.049458,29.873479 33.854439,29.393071 33.752264,29.107125 C 33.648759,28.816782 33.599591,28.606539 33.604759,28.476395 C 33.608596,28.341853 33.655229,28.244911 33.744656,28.185570 C 33.858077,28.110307 34.001444,28.086451 34.174757,28.113999 C 34.350253,28.140100 34.521491,28.195425 34.688470,28.279974 C 34.854121,28.360126 34.993120,28.447403 35.105467,28.541807 C 35.273987,28.683412 35.392900,28.834176 35.462205,28.994097 C 35.533693,29.152573 35.647305,29.454688 35.803040,29.900446 C 35.957445,30.341806 36.125206,30.732065 36.306322,31.071223 L 36.340474,31.080240 C 36.375431,30.962007 36.484518,30.842101 36.667736,30.720524 C 36.922931,30.551184 37.269564,30.498040 37.707638,30.561094 C 38.144382,30.619751 38.609047,30.770753 39.101637,31.014103 C 39.592897,31.253055 40.040400,31.542162 40.444145,31.881425 C 40.942682,32.300340 41.323176,32.731590 41.585624,33.175173 C 41.850253,33.617307 41.967130,34.025492 41.936255,34.399727 C 41.905379,34.773961 41.725264,35.070353 41.395909,35.288903 C 41.051287,35.517585 40.635334,35.627285 40.148050,35.618005 C 39.662949,35.607278 39.147637,35.479322 38.602117,35.234138 C 38.056596,34.988953 37.527545,34.651002 37.014965,34.220286 z M 38.101583,33.435881 C 38.273613,33.580436 38.464132,33.699524 38.673137,33.793145 C 38.878631,33.883816 39.073915,33.936385 39.258985,33.950851 C 39.446238,33.963871 39.593302,33.934920 39.700179,33.864000 C 39.807055,33.793080 39.861748,33.688150 39.864256,33.549211 C 39.868946,33.408825 39.823072,33.257113 39.726636,33.094074 C 39.626688,32.928086 39.490699,32.772814 39.318669,32.628259 C 39.044824,32.398150 38.752463,32.241046 38.441585,32.156947 C 38.127196,32.069898 37.884936,32.082820 37.714806,32.195714 C 37.546857,32.307160 37.501204,32.485288 37.577847,32.730098 C 37.653160,32.970512 37.827738,33.205772 38.101583,33.435881 z M 36.099925,36.078791 L 37.238488,35.323273 C 37.395531,35.219064 37.603027,35.208091 37.860974,35.290355 C 38.115411,35.369669 38.347953,35.497829 38.558603,35.674835 C 38.779785,35.860693 38.928167,36.052619 39.003748,36.250615 C 39.075819,36.445662 39.033333,36.595290 38.876290,36.699500 L 36.684228,38.154088 C 36.505373,38.272771 36.286173,38.309989 36.026627,38.265745 C 35.767082,38.221500 35.523208,38.103499 35.295004,37.911741 C 35.105420,37.752436 34.946930,37.548736 34.819539,37.300643 C 34.692146,37.052551 34.589464,36.803900 34.511491,36.554692 C 34.433518,36.305484 34.356876,36.060673 34.281563,35.820261 C 34.208163,35.620817 34.110028,35.361228 33.987162,35.041494 C 33.860784,34.718811 33.731613,34.408540 33.599649,34.110683 C 33.467685,33.812826 33.314759,33.523598 33.140875,33.242999 C 32.965661,32.958002 32.788528,32.740275 32.609475,32.589819 C 32.117959,32.176804 31.733698,32.062204 31.456692,32.246017 C 31.295286,32.353121 31.249901,32.488833 31.320537,32.653153 C 31.387662,32.814522 31.531548,33.030551 31.752193,33.301241 C 31.972839,33.571931 32.119995,33.785789 32.193664,33.942817 C 32.263822,34.096895 32.222560,34.224590 32.069879,34.325905 C 31.910655,34.431562 31.698133,34.443230 31.432313,34.360911 C 31.165162,34.274194 30.920996,34.137908 30.699815,33.952051 C 30.369796,33.674741 30.094174,33.382455 29.872945,33.075193 C 29.648205,32.764982 29.493712,32.466235 29.409465,32.178952 C 29.325217,31.891670 29.317812,31.624675 29.387247,31.377967 C 29.456683,31.131260 29.604822,30.932643 29.831662,30.782119 C 30.110850,30.596858 30.461502,30.509369 30.883619,30.519654 C 31.305737,30.529938 31.765218,30.642142 32.262065,30.856268 C 32.757583,31.065996 33.235301,31.364092 33.695219,31.750556 C 34.060345,32.057367 34.365863,32.387894 34.611772,32.742135 C 34.859863,33.094930 35.058054,33.438597 35.206348,33.773136 C 35.353313,34.103278 35.517906,34.522038 35.700130,35.029415 C 35.881024,35.532394 36.014289,35.882186 36.099925,36.078791 z M 27.252110,35.099412 L 28.721391,36.334032 L 29.215423,36.006207 C 29.372466,35.901998 29.433172,35.769320 29.397539,35.608172 C 29.358395,35.444074 29.219455,35.261721 28.980719,35.061114 C 28.745493,34.863456 28.521062,34.740472 28.307426,34.692162 C 28.092461,34.639455 27.905367,34.665930 27.746142,34.771587 L 27.252110,35.099412 z M 31.474266,40.280759 L 25.486548,35.249347 C 25.216215,35.022188 25.055493,34.806772 25.004382,34.603096 C 24.951942,34.395024 24.998790,34.242501 25.144928,34.145528 L 26.424176,33.296657 C 26.624842,33.163500 26.858302,33.082501 27.124555,33.053658 C 27.389476,33.020417 27.669264,33.040670 27.963918,33.114416 C 28.258572,33.188162 28.564580,33.312451 28.881942,33.487283 C 29.197975,33.657718 29.503447,33.866840 29.798357,34.114649 C 30.145929,34.406710 30.384128,34.692151 30.512955,34.970970 C 30.641782,35.249790 30.704247,35.504008 30.700351,35.733625 C 31.078216,35.614879 31.528180,35.643644 32.050244,35.819916 C 32.572309,35.996189 33.079099,36.290833 33.570615,36.703848 C 34.002447,37.066712 34.335013,37.434728 34.568314,37.807896 C 34.801614,38.181064 34.901018,38.540125 34.866527,38.885079 C 34.828525,39.227084 34.621945,39.522559 34.246786,39.771503 L 32.902103,40.663795 C 32.755966,40.760768 32.549374,40.779060 32.282329,40.718673 C 32.013954,40.653888 31.744600,40.507917 31.474266,40.280759 z M 30.285466,37.648306 L 31.881137,38.989131 L 32.564929,38.535386 C 32.761233,38.405124 32.854417,38.245615 32.844480,38.056856 C 32.834542,37.868098 32.692652,37.658665 32.418807,37.428556 C 32.141451,37.195497 31.875235,37.068563 31.620157,37.047753 C 31.367260,37.025495 31.150294,37.074432 30.969258,37.194562 L 30.285466,37.648306 z M 26.282098,42.427300 L 22.747422,37.882679 C 22.437467,37.481180 22.216478,37.179040 22.084454,36.976258 C 21.948920,36.770526 21.867885,36.576148 21.841351,36.393124 C 21.811305,36.207149 21.882438,36.056991 22.054749,35.942650 C 22.231423,35.825415 22.442750,35.788141 22.688730,35.830828 C 22.936892,35.872067 23.196169,35.958728 23.466561,36.090812 C 23.735623,36.218497 24.103363,36.412699 24.569778,36.673417 L 30.195092,39.830752 C 30.537882,40.020390 30.794575,40.172123 30.965171,40.285952 C 31.134437,40.395382 31.294554,40.513526 31.445519,40.640381 C 31.663190,40.823287 31.790747,41.002634 31.828187,41.178422 C 31.864298,41.349812 31.803832,41.487612 31.646788,41.591821 C 31.537731,41.664189 31.411014,41.695477 31.266639,41.685685 C 31.122262,41.675892 30.963978,41.633091 30.791783,41.557282 C 30.621770,41.480025 30.428033,41.376272 30.210572,41.246024 L 29.389824,40.753168 L 27.606728,41.936378 L 28.162466,42.605088 C 28.390133,42.881677 28.537342,43.108700 28.604094,43.286157 C 28.669516,43.459216 28.620435,43.600021 28.456848,43.708573 C 28.301985,43.811335 28.110528,43.840704 27.882475,43.796681 C 27.653093,43.748261 27.429566,43.632596 27.211895,43.449690 C 27.081994,43.340535 26.955552,43.221167 26.832568,43.091584 C 26.708255,42.957604 26.524764,42.736175 26.282098,42.427300 z M 27.428122,39.591874 L 24.046509,37.567102 L 24.033422,37.575786 L 26.289558,40.347392 L 27.428122,39.591874 z M 49.839421,44.297861 L 49.096881,43.673912 L 47.307242,44.861464 C 47.124025,44.983042 46.917487,45.014499 46.687626,44.955836 C 46.456436,44.892776 46.253070,44.787493 46.077529,44.639988 C 45.828260,44.430530 45.609079,44.143029 45.419984,43.777485 L 43.000443,39.348220 C 42.862517,39.091277 42.809652,38.886127 42.841844,38.732769 C 42.870526,38.576463 42.975385,38.438244 43.156421,38.318114 C 43.322189,38.208115 43.521228,38.160516 43.753538,38.175315 C 43.982337,38.187163 44.229513,38.255455 44.495065,38.380192 C 44.757107,38.501977 45.021538,38.674974 45.288361,38.899182 L 48.579763,41.664910 L 48.805512,41.515109 C 48.982186,41.397874 49.182367,41.362715 49.406058,41.409632 C 49.628418,41.452153 49.873010,41.585517 50.139833,41.809726 C 50.399635,42.028034 50.546501,42.223607 50.580430,42.396444 C 50.616541,42.567834 50.546259,42.712147 50.369586,42.829383 L 50.143836,42.979184 L 50.865311,43.585431 C 51.184797,43.853891 51.381904,44.090041 51.456634,44.293883 C 51.530035,44.493327 51.484942,44.647325 51.321355,44.755876 C 51.159949,44.862980 50.949847,44.878322 50.691048,44.801903 C 50.428739,44.722534 50.144864,44.554520 49.839421,44.297861 z M 47.532808,42.359639 L 44.757498,40.027577 L 44.744411,40.036261 L 46.528385,43.026144 L 47.532808,42.359639 z M 39.218224,43.481525 L 43.705063,47.251766 L 44.280888,46.869665 C 44.490279,46.730719 44.617988,46.564138 44.664014,46.369923 C 44.708711,46.171310 44.680503,45.952438 44.579390,45.713306 C 44.478275,45.474174 44.314124,45.221434 44.086935,44.955086 C 43.859746,44.688738 43.570610,44.408060 43.219527,44.113049 C 42.552471,43.552528 41.919821,43.175087 41.321580,42.980726 C 40.719828,42.783414 40.225919,42.812849 39.839854,43.069030 L 39.218224,43.481525 z M 43.371920,48.605345 L 37.384202,43.573933 C 37.113869,43.346775 36.953147,43.131358 36.902035,42.927683 C 36.849596,42.719610 36.896444,42.567088 37.042581,42.470115 L 38.341460,41.608217 C 38.797322,41.305721 39.370499,41.192007 40.060990,41.267076 C 40.750152,41.337747 41.476224,41.560799 42.239206,41.936232 C 42.998678,42.308715 43.713697,42.776692 44.384265,43.340163 C 45.002171,43.859382 45.499746,44.366053 45.876990,44.860175 C 46.252905,45.349900 46.506442,45.807316 46.637602,46.232422 C 46.768761,46.657528 46.786214,47.031371 46.689963,47.353951 C 46.590201,47.673581 46.393092,47.931092 46.098635,48.126484 L 44.799757,48.988382 C 44.653619,49.085355 44.447028,49.103647 44.179983,49.043260 C 43.911608,48.978475 43.642254,48.832503 43.371920,48.605345 z M 36.282488,48.803381 C 35.703202,48.316614 35.219909,47.826865 34.832610,47.334134 C 34.443982,46.837006 34.174221,46.369238 34.023326,45.930828 C 33.868920,45.489468 33.839552,45.089213 33.935221,44.730062 C 34.029560,44.366512 34.252312,44.068226 34.603478,43.835203 C 34.993905,43.576127 35.429197,43.435114 35.909354,43.412164 C 36.391691,43.387768 36.845265,43.554051 37.270076,43.911014 C 37.491258,44.096871 37.643151,44.291748 37.725754,44.495645 C 37.807027,44.695144 37.780049,44.839762 37.644817,44.929498 C 37.577201,44.974366 37.421411,45.009105 37.177449,45.033717 C 36.935667,45.056881 36.762324,45.076871 36.657419,45.093685 C 36.552514,45.110499 36.440080,45.158708 36.320116,45.238313 C 36.043109,45.422126 35.920742,45.666998 35.953015,45.972931 C 35.983958,46.274465 36.136615,46.606110 36.410984,46.967864 C 36.687534,47.328173 37.032948,47.682383 37.447225,48.030496 C 38.096728,48.576266 38.741905,48.969153 39.382755,49.209159 C 40.020094,49.446213 40.517618,49.446058 40.875328,49.208692 C 41.065088,49.082773 41.191677,48.964453 41.255094,48.853734 C 41.318511,48.743015 41.370491,48.616126 41.411036,48.473067 C 41.451580,48.330007 41.505659,48.236043 41.573275,48.191175 C 41.704145,48.104334 41.854721,48.078334 42.025002,48.113175 C 42.191773,48.145065 42.350349,48.206152 42.500732,48.296435 C 42.651114,48.386718 42.777213,48.474636 42.879027,48.560189 C 43.177447,48.810948 43.346439,49.071036 43.386002,49.340451 C 43.425565,49.609867 43.372540,49.858884 43.226927,50.087503 C 43.084825,50.319073 42.903625,50.507949 42.683329,50.654131 C 42.196931,50.976891 41.596915,51.105774 40.883283,51.040781 C 40.168319,50.971391 39.410941,50.740074 38.611148,50.346829 C 37.810025,49.949187 37.033806,49.434705 36.282488,48.803381 z M 35.831747,52.587143 L 32.606049,47.869172 L 31.156671,48.830937 C 31.001809,48.933698 30.798916,48.946898 30.547989,48.870534 C 30.293553,48.791220 30.059255,48.661586 29.845095,48.481629 C 29.623912,48.295772 29.476195,48.106044 29.401944,47.912445 C 29.324181,47.715896 29.364911,47.564793 29.524136,47.459136 L 31.722741,46.000206 C 31.892872,45.887312 32.116964,45.870605 32.395020,45.950086 C 32.669565,46.026615 32.913918,46.154859 33.128079,46.334815 C 33.236914,46.426269 33.344525,46.539654 33.450911,46.674971 C 33.555968,46.805891 33.663922,46.950727 33.774776,47.109478 L 37.593389,52.606122 C 37.800095,52.891341 37.932223,53.120452 37.989773,53.293456 C 38.045993,53.462062 37.990128,53.602089 37.822179,53.713535 C 37.662955,53.819191 37.448916,53.834506 37.180063,53.759479 C 36.913391,53.683005 36.683508,53.563639 36.490412,53.401383 C 36.364022,53.295179 36.257741,53.186192 36.171568,53.074420 C 36.087577,52.961201 35.974303,52.798776 35.831747,52.587143 z " />
  <g
     id="g886"
     transform="matrix(0.784706,0.000000,0.000000,0.784706,13.05144,-0.658798)">
    <path
       style="font-size:12.000000;fill:#4c4c4c;fill-opacity:1.0000000;fill-rule:evenodd;stroke:#333333;stroke-width:3.0247672;stroke-linecap:round;stroke-linejoin:round;stroke-miterlimit:4.0000000;"
       d="M 48.097401,30.862805 C 35.200512,40.246282 35.200512,40.246282 35.200512,40.246282 L 43.147167,26.428593 L 48.097401,30.862805 z "
       fill-opacity="1.0"
       sodipodi:nodetypes="cccc"
       transform="matrix(0.789955,0.000000,0.000000,0.789955,-7.510137,11.84079)"
       sodipodi:stroke-cmyk="(0 0 0 0.8)"
       id="path599" />
    <rect
       style="font-size:12.000000;fill:#b3b3b3;fill-rule:evenodd;stroke:#333333;stroke-width:3.0247653;stroke-linecap:round;stroke-linejoin:round;stroke-miterlimit:4.0000000;"
       sodipodi:fill-cmyk="(0 0 0 0.3)"
       transform="matrix(-0.585893,-0.529867,0.529867,-0.585893,-7.510137,11.84079)"
       height="47.133202"
       width="6.5462775"
       sodipodi:stroke-cmyk="(0 0 0 0.8)"
       y="9.3872366"
       x="-56.329277"
       id="rect598" />
    <path
       transform="matrix(-0.793285,-0.717427,0.717427,-0.793285,58.05658,99.66090)"
       style="font-size:12.000000;fill:#333333;fill-rule:evenodd;stroke:#333333;stroke-width:2.2339878;stroke-linejoin:round;stroke-miterlimit:4.0000000;"
       d="M 61.966338,18.726221 C 61.966338,19.068626 61.688444,19.346521 61.346039,19.346521 C 61.003633,19.346521 60.725739,19.068626 60.725739,18.726221 C 60.725739,18.383816 61.003633,18.105922 61.346039,18.105922 C 61.688444,18.105922 61.966338,18.383816 61.966338,18.726221 z "
       id="path600" />
    <path
       transform="matrix(-0.585893,-0.529867,0.529867,-0.585893,-7.510137,11.84079)"
       style="font-size:12.000000;fill:#cccccc;fill-rule:evenodd;stroke:#333333;stroke-width:3.0247653;stroke-linejoin:round;stroke-miterlimit:4.0000000;"
       d="M -54.664130,56.373623 C -55.804216,56.373623 -56.722046,57.278711 -56.722046,58.402969 C -56.722046,59.527227 -55.804216,60.432315 -54.664130,60.432315 L -51.317205,60.432315 C -50.177120,60.432315 -49.259289,59.527227 -49.259289,58.402969 C -49.259289,57.278711 -50.177120,56.373623 -51.317205,56.373623 L -54.664130,56.373623 z "
       id="rect601" />
  </g>
  <path
     id="path844"
     style="font-size:24.000000;fill:#333333;stroke-width:1.0000000pt;font-family:VAG Rounded Black SSi;"
     d="M 8.3562265,10.645984 L 8.3562265,2.2171319 C 8.3562265,1.9065210 8.4574099,1.6476785 8.6597779,1.4406045 C 8.8621454,1.2335306 9.1233411,1.1299936 9.4433645,1.1299936 C 9.7633879,1.1299936 10.022231,1.2264712 10.219892,1.4194265 C 10.422260,1.6123818 10.523444,1.8782836 10.523444,2.2171319 L 10.523444,5.3655975 L 14.081351,1.5394353 C 14.330781,1.2664742 14.610801,1.1299936 14.921412,1.1299936 C 15.208492,1.1299936 15.457922,1.2288243 15.669703,1.4264859 C 15.886189,1.6194412 15.994432,1.8735774 15.994432,2.1888946 C 15.994432,2.3677312 15.937957,2.5442146 15.825008,2.7183450 C 15.712058,2.8877692 15.530869,3.0971963 15.281438,3.3466263 L 12.549474,6.0644721 L 15.888542,9.5870826 C 16.081497,9.7706257 16.229743,9.9494624 16.333280,10.123592 C 16.441524,10.293017 16.495645,10.481266 16.495645,10.688340 C 16.495645,11.017775 16.387402,11.269559 16.170916,11.443689 C 15.954429,11.613113 15.686174,11.697825 15.366150,11.697825 C 15.177901,11.697825 15.006124,11.646057 14.850819,11.542520 C 14.700220,11.438983 14.507264,11.264852 14.271953,11.020128 L 10.523444,6.9257116 L 10.523444,10.645984 C 10.523444,10.942476 10.422260,11.191906 10.219892,11.394274 C 10.017524,11.596642 9.7586820,11.697825 9.4433645,11.697825 C 9.1280476,11.697825 8.8668519,11.601348 8.6597779,11.408393 C 8.4574099,11.215437 8.3562265,10.961301 8.3562265,10.645984 z " />
  <path
     style="font-size:12.000000;fill:#333333;fill-rule:evenodd;stroke:#333333;stroke-width:0.11358638;stroke-linecap:round;stroke-linejoin:round;"
     d="M 3.0448048,14.752270 L 4.4334443,16.207032 L 6.6817047,14.686137 L 8.4670958,15.479658 L 9.0622243,18.085946 L 10.979859,18.068333 L 11.508867,15.394149 L 13.294255,14.686137 L 15.542517,16.140912 L 16.600528,14.686137 L 14.049024,12.278236 C 7.5092793,18.276495 1.8579323,9.0317088 7.4752142,5.1640703 L 7.4752069,3.7754307 L 6.8139575,4.1060576 L 4.7640656,2.8029085 L 3.3480360,3.9657741 L 4.6318155,6.1559448 L 3.9044366,7.9413332 L 1.3993953,8.3574609 L 1.3916650,10.255727 L 3.9705653,10.916983 L 4.6814130,12.652787 L 3.0448048,14.752270 z "
     sodipodi:nodetypes="ccccccccccccccccccccccc"
     sodipodi:stroke-cmyk="(0 0 0 0.8)"
     id="path705" />
  <metadata
     id="metadata13">
    <rdf:RDF
       id="RDF14">
      <cc:Work
         rdf:about=""
         id="Work15">
        <dc:title
           id="title16">Part of the Flat Icon Collection (Thu Aug 26 14:31:40 2004)</dc:title>
        <dc:description
           id="description18" />
        <dc:subject
           id="subject19">
          <rdf:Bag
             id="Bag20">
            <rdf:li
               id="li21" />
          </rdf:Bag>
        </dc:subject>
        <dc:publisher
           id="publisher22">
          <cc:Agent
             rdf:about=""
             id="Agent23">
            <dc:title
               id="title24" />
          </cc:Agent>
        </dc:publisher>
        <dc:creator
           id="creator25">
          <cc:Agent
             rdf:about=""
             id="Agent26">
            <dc:title
               id="title27">Danny Allen</dc:title>
          </cc:Agent>
        </dc:creator>
        <dc:rights
           id="rights29">
          <cc:Agent
             rdf:about=""
             id="Agent30">
            <dc:title
               id="title31">Danny Allen</dc:title>
          </cc:Agent>
        </dc:rights>
        <dc:date
           id="date33" />
        <dc:format
           id="format34">image/svg+xml</dc:format>
        <dc:type
           rdf:resource="http://purl.org/dc/dcmitype/StillImage"
           id="type36" />
        <cc:license
           rdf:resource="http://creativecommons.org/licenses/LGPL/2.1/"
           id="license37">
          <dc:date
             id="date38" />
        </cc:license>
        <dc:language
           id="language39">en</dc:language>
      </cc:Work>
    </rdf:RDF>
  </metadata>
</svg>
