<?xml version="1.0" encoding="UTF-8" standalone="no"?>
<!DOCTYPE svg PUBLIC "-//W3C//DTD SVG 20010904//EN"
"http://www.w3.org/TR/2001/REC-SVG-20010904/DTD/svg10.dtd">
<svg
   sodipodi:docname="klaptopdaemon.svg"
   height="60.0000000"
   sodipodi:version="0.32"
   width="60.0000000"
   _SVGFile__filename="scalable/apps/klaptopdaemon.svg"
   version="1.0"
   y="0"
   x="0"
   inkscape:version="0.39"
   id="svg1"
   sodipodi:docbase="/home/danny/work/flat/newscale/apps"
   xmlns="http://www.w3.org/2000/svg"
   xmlns:cc="http://web.resource.org/cc/"
   xmlns:inkscape="http://www.inkscape.org/namespaces/inkscape"
   xmlns:sodipodi="http://sodipodi.sourceforge.net/DTD/sodipodi-0.dtd"
   xmlns:rdf="http://www.w3.org/1999/02/22-rdf-syntax-ns#"
   xmlns:dc="http://purl.org/dc/elements/1.1/"
   xmlns:xlink="http://www.w3.org/1999/xlink">
  <sodipodi:namedview
     bordercolor="#666666"
     inkscape:pageshadow="2"
     inkscape:window-y="0"
     pagecolor="#ffffff"
     inkscape:window-height="699"
     inkscape:zoom="4.9119411"
     inkscape:window-x="0"
     borderopacity="1.0"
     inkscape:cx="32.486619"
     inkscape:cy="18.038609"
     inkscape:window-width="1024"
     inkscape:pageopacity="0.0"
     id="base" />
  <defs
     id="defs3" />
  <path
     id="path831"
     style="font-size:12.000000;fill:#4c4c4c;fill-opacity:1.0000000;stroke-width:1.0000000pt;font-family:VAG Rounded Black SSi;"
     d="M 35.682360,26.681901 C 36.333865,26.681901 36.845757,26.442572 37.218045,25.963916 C 37.603627,25.485262 37.796420,24.906886 37.796420,24.228795 C 37.796420,23.537404 37.603627,22.959029 37.218045,22.493669 C 36.845757,22.015014 36.333865,21.775688 35.682360,21.775688 C 35.017563,21.775688 34.492372,22.015014 34.106790,22.493669 C 33.734502,22.959029 33.548357,23.537404 33.548357,24.228795 C 33.548357,24.906886 33.734502,25.485262 34.106790,25.963916 C 34.492372,26.442572 35.017563,26.681901 35.682360,26.681901 z M 34.206509,44.352245 L 47.728511,18.624541 C 48.007726,18.106000 48.266997,17.760304 48.506323,17.587456 C 48.758947,17.414610 49.124587,17.328185 49.603242,17.328185 C 50.002123,17.328185 50.387705,17.427905 50.759992,17.627346 C 51.132280,17.826782 51.431437,18.099349 51.657471,18.445046 C 51.896797,18.790739 52.016460,19.176326 52.016460,19.601797 C 52.016460,20.013969 51.910092,20.439440 51.697356,20.878210 L 37.975915,46.805351 C 37.590332,47.350486 37.297823,47.709478 37.098382,47.882324 C 36.912237,48.068469 36.586486,48.161542 36.121129,48.161542 C 35.589291,48.161542 35.070747,47.928861 34.565499,47.463504 C 34.060254,47.011439 33.807629,46.492896 33.807629,45.907873 C 33.807629,45.442516 33.940590,44.923973 34.206509,44.352245 z M 35.682360,30.890075 C 33.900702,30.890075 32.404905,30.231926 31.194971,28.915624 C 29.985037,27.599322 29.380072,26.037046 29.380072,24.228795 C 29.380072,23.058749 29.652639,21.961831 30.197772,20.938041 C 30.742907,19.914252 31.494132,19.096548 32.451441,18.484936 C 33.408752,17.873318 34.485725,17.567511 35.682360,17.567511 C 36.852405,17.567511 37.916083,17.873318 38.873393,18.484936 C 39.830702,19.083253 40.581925,19.900954 41.127062,20.938041 C 41.685491,21.961831 41.964705,23.058749 41.964705,24.228795 C 41.964705,25.412135 41.685491,26.522349 41.127062,27.559433 C 40.581925,28.583225 39.824055,29.394279 38.853450,29.992596 C 37.896141,30.590914 36.839110,30.890075 35.682360,30.890075 z M 50.061955,47.922213 C 48.280293,47.922213 46.784496,47.270711 45.574562,45.967704 C 44.364631,44.651406 43.759663,43.095775 43.759663,41.300821 C 43.759663,39.492569 44.364631,37.923643 45.574562,36.594045 C 46.784496,35.264449 48.280293,34.599651 50.061955,34.599651 C 51.232000,34.599651 52.295677,34.905456 53.252988,35.517073 C 54.210297,36.115391 54.961519,36.939742 55.506653,37.990122 C 56.065086,39.027209 56.344300,40.130775 56.344300,41.300821 C 56.344300,42.470866 56.065086,43.567782 55.506653,44.591574 C 54.961519,45.615363 54.203649,46.426417 53.233041,47.024734 C 52.275732,47.623056 51.218702,47.922213 50.061955,47.922213 z M 50.061955,43.714039 C 50.713456,43.714039 51.225352,43.481360 51.597639,43.016001 C 51.983222,42.550640 52.176011,41.978913 52.176011,41.300821 C 52.176011,40.609431 51.983222,40.024408 51.597639,39.545753 C 51.225352,39.053800 50.713456,38.807826 50.061955,38.807826 C 49.397154,38.807826 48.871963,39.053800 48.486380,39.545753 C 48.114093,40.024408 47.927952,40.609431 47.927952,41.300821 C 47.927952,41.978913 48.114093,42.550640 48.486380,43.016001 C 48.871963,43.481360 49.397154,43.714039 50.061955,43.714039 z " />
  <metadata
     id="metadata7">
    <rdf:RDF
       id="RDF8">
      <cc:Work
         rdf:about=""
         id="Work9">
        <dc:title
           id="title10">Part of the Flat Icon Collection (Thu Aug 26 14:31:40 2004)</dc:title>
        <dc:description
           id="description12" />
        <dc:subject
           id="subject13">
          <rdf:Bag
             id="Bag14">
            <rdf:li
               id="li15" />
          </rdf:Bag>
        </dc:subject>
        <dc:publisher
           id="publisher16">
          <cc:Agent
             rdf:about=""
             id="Agent17">
            <dc:title
               id="title18" />
          </cc:Agent>
        </dc:publisher>
        <dc:creator
           id="creator19">
          <cc:Agent
             rdf:about=""
             id="Agent20">
            <dc:title
               id="title21">Danny Allen</dc:title>
          </cc:Agent>
        </dc:creator>
        <dc:rights
           id="rights23">
          <cc:Agent
             rdf:about=""
             id="Agent24">
            <dc:title
               id="title25">Danny Allen</dc:title>
          </cc:Agent>
        </dc:rights>
        <dc:date
           id="date27" />
        <dc:format
           id="format28">image/svg+xml</dc:format>
        <dc:type
           rdf:resource="http://purl.org/dc/dcmitype/StillImage"
           id="type30" />
        <cc:license
           rdf:resource="http://creativecommons.org/licenses/LGPL/2.1/"
           id="license31">
          <dc:date
             id="date32" />
        </cc:license>
        <dc:language
           id="language33">en</dc:language>
      </cc:Work>
    </rdf:RDF>
  </metadata>
  <path
     style="font-size:12.000000;fill:#333333;fill-opacity:1.0000000;fill-rule:evenodd;stroke:#333333;stroke-width:3.1250000;stroke-linejoin:round;stroke-opacity:1.0000000;"
     d="M 19.707150,9.8017660 C 19.707150,12.334684 17.651448,14.390385 15.118531,14.390385 C 12.585613,14.390385 10.529912,12.334684 10.529912,9.8017660 C 10.529912,7.2688484 12.585613,5.2131470 15.118531,5.2131470 C 17.651448,5.2131470 19.707150,7.2688484 19.707150,9.8017660 z "
     id="path982" />
  <path
     style="font-size:12.000000;fill:#7f7f7f;fill-opacity:1.0000000;fill-rule:evenodd;stroke:#333333;stroke-width:3.1250000;stroke-linejoin:round;stroke-opacity:1.0000000;"
     d="M 9.2112080,10.251631 C 7.5492080,10.251631 6.2112080,11.589631 6.2112080,13.251631 L 6.2112080,52.238096 C 6.2112080,53.900096 7.5492080,55.238096 9.2112080,55.238096 L 21.025848,55.238096 C 22.687848,55.238096 24.025848,53.900096 24.025848,52.238096 L 24.025848,13.251631 C 24.025848,11.589631 22.687848,10.251631 21.025848,10.251631 L 9.2112080,10.251631 z "
     id="path983" />
</svg>
