<?xml version="1.0" encoding="UTF-8" standalone="no"?>
<!DOCTYPE svg PUBLIC "-//W3C//DTD SVG 20010904//EN"
"http://www.w3.org/TR/2001/REC-SVG-20010904/DTD/svg10.dtd">
<!-- Created with Inkscape (http://www.inkscape.org/) -->
<svg
   version="1.0"
   x="0"
   y="0"
   width="60.0000000"
   height="60.0000000"
   id="svg1"
   sodipodi:version="0.32"
   inkscape:version="0.39"
   sodipodi:docname="kmameleon.svg"
   sodipodi:docbase="/home/danny/work/flat/scalable/apps"
   inkscape:export-filename="/home/danny/work/kde/kmameleon/icon/kmameleon22.png"
   inkscape:export-xdpi="33.000000"
   inkscape:export-ydpi="33.000000"
   xmlns="http://www.w3.org/2000/svg"
   xmlns:cc="http://web.resource.org/cc/"
   xmlns:inkscape="http://www.inkscape.org/namespaces/inkscape"
   xmlns:sodipodi="http://sodipodi.sourceforge.net/DTD/sodipodi-0.dtd"
   xmlns:rdf="http://www.w3.org/1999/02/22-rdf-syntax-ns#"
   xmlns:dc="http://purl.org/dc/elements/1.1/"
   xmlns:xlink="http://www.w3.org/1999/xlink">
  <sodipodi:namedview
     id="base"
     pagecolor="#ffffff"
     bordercolor="#666666"
     borderopacity="1.0"
     inkscape:pageopacity="0.0"
     inkscape:pageshadow="2"
     inkscape:zoom="6.4157007"
     inkscape:cx="31.938407"
     inkscape:cy="23.137171"
     inkscape:window-width="1024"
     inkscape:window-height="699"
     inkscape:window-x="0"
     inkscape:window-y="0" />
  <defs
     id="defs3" />
  <metadata
     id="metadata9">
    <rdf:RDF
       id="RDF10">
      <cc:Work
         rdf:about=""
         id="Work11">
        <dc:format
           id="format12">image/svg+xml</dc:format>
        <dc:type
           id="type14"
           rdf:resource="http://purl.org/dc/dcmitype/StillImage" />
      </cc:Work>
    </rdf:RDF>
  </metadata>
  <path
     style="font-size:12.000000;fill:#cccccc;fill-opacity:1.0000000;fill-rule:evenodd;stroke:none;stroke-width:1.2500000;stroke-linecap:round;stroke-linejoin:round;stroke-miterlimit:4.0000000;stroke-opacity:1.0000000;"
     d="M 30.079254,1.6006761 C 14.415167,1.6006762 1.7256761,14.324872 1.7256761,29.988958 C 1.7256761,45.653046 14.415165,58.342537 30.079254,58.342536 C 45.743341,58.342534 58.467537,45.653046 58.467536,29.988958 C 58.467536,14.324871 45.743340,1.6006761 30.079254,1.6006761 z "
     id="path842"
     transform="matrix(0.959622,0.000000,0.000000,0.959632,1.220571,1.428604)" />
  <path
     style="fill:#333333;fill-opacity:1.0000000;fill-rule:evenodd;stroke:#333333;stroke-width:0.29822677;stroke-linecap:round;stroke-linejoin:round;stroke-miterlimit:4.0000000;stroke-opacity:1.0000000;"
     d="M 33.062500,7.0937500 C 31.170807,6.9781065 28.975919,7.1674137 27.937500,7.5312500 C 26.521286,8.0274558 26.635448,7.9729408 24.906250,8.0000000 C 23.512281,8.2787966 24.210954,10.273085 21.312500,14.031250 C 17.067868,19.534883 18.938414,27.022350 18.687500,25.656250 C 16.987880,26.429319 14.596742,25.321705 13.031250,23.343750 C 11.465763,21.523508 15.888490,18.447066 14.687500,16.781250 C 13.880779,15.667424 12.930235,16.711387 11.281250,19.937500 C 10.578521,20.640237 11.006623,15.703910 9.5625000,15.593750 C 7.8029594,15.247025 8.5424417,18.412703 9.7500000,20.875000 C 9.9292179,22.054358 6.7515060,18.073351 5.4375000,18.781250 C 5.3185859,19.037014 5.1736412,19.271273 5.0625000,19.531250 C 5.3127418,20.290465 6.7186652,21.389304 8.6562500,22.343750 C 9.5820129,22.983482 5.1223208,21.627440 4.9062500,22.562500 C 4.2170501,23.812981 8.4269997,24.784840 10.187500,25.125000 C 14.313645,26.017149 10.425927,33.230721 18.687500,33.625000 C 21.034971,33.546144 18.856926,35.636456 24.375000,38.406250 C 25.043509,38.849807 25.439336,38.388210 20.750000,40.343750 C 16.060661,42.141578 19.266103,42.655684 28.187500,47.562500 C 30.879372,49.157388 25.529994,48.228565 23.968750,49.343750 C 21.398244,50.983867 26.153343,49.909551 26.437500,50.687500 C 26.721657,51.465448 24.079575,52.524876 24.531250,53.281250 C 25.907728,54.793995 26.626881,52.659297 28.968750,50.875000 C 31.783743,49.327270 25.884941,54.539032 29.156250,54.906250 C 30.456194,55.431181 29.813755,50.924016 31.375000,50.812500 C 33.488227,50.779837 30.088306,54.214723 32.125000,54.906250 C 33.215436,55.440069 33.296000,53.942421 33.656250,49.781250 C 33.779938,45.304656 28.161163,47.501187 28.718750,43.375000 C 28.960919,41.693335 31.690012,41.411776 34.812500,42.750000 C 40.252543,45.194011 41.345471,50.731310 40.156250,55.437500 C 42.799955,54.384551 45.183460,52.875116 47.343750,51.093750 C 48.000100,46.890040 47.671003,42.103657 46.281250,36.718750 C 46.052586,35.832742 46.540241,36.111524 46.906250,35.531250 C 47.272255,34.950975 45.900319,31.246775 46.781250,28.812500 C 49.043297,26.172399 49.881386,37.173290 52.593750,36.343750 C 54.438711,36.145054 52.383616,34.571734 51.812500,31.375000 C 51.641487,30.190035 55.555079,32.183086 57.281250,30.718750 C 57.284536,30.544662 57.343750,30.393627 57.343750,30.218750 C 57.343751,30.033705 57.284929,29.871679 57.281250,29.687500 C 56.138185,29.216249 52.948898,29.529801 52.218750,28.843750 C 51.292986,28.767216 57.385574,26.304651 56.500000,24.968750 C 55.456717,23.317426 52.775744,26.457637 52.625000,26.218750 C 51.685708,25.822150 54.664146,24.264161 53.562500,22.718750 C 51.987726,21.409907 52.100654,23.412414 49.906250,26.625000 C 49.919780,27.156497 45.822126,20.506878 45.125000,20.937500 C 43.639330,21.525833 42.135267,23.547363 41.000000,29.812500 C 40.275137,30.509490 37.987044,28.314783 35.281250,26.125000 C 34.667904,25.511649 35.534379,25.615107 36.468750,25.843750 C 37.276429,26.080315 39.095004,21.764670 40.656250,17.750000 C 41.604150,16.077222 46.511654,17.259788 47.125000,15.531250 C 47.515312,14.025749 44.646427,14.810046 43.531250,14.531250 C 42.527592,14.363970 47.180131,12.422779 46.343750,10.750000 C 44.894025,9.1887398 42.620086,13.852324 42.062500,13.406250 C 41.393393,13.238972 44.436246,9.6200927 42.875000,9.0625000 C 40.923444,8.6721851 40.845578,13.082723 40.343750,13.250000 C 39.841922,13.250001 40.998743,10.388482 39.437500,10.500000 C 38.099292,10.723037 38.634197,13.021462 38.968750,14.750000 C 39.414816,16.143983 36.753657,20.544730 35.750000,20.656250 C 34.411789,21.213844 33.195442,20.776342 31.968750,20.218750 C 29.427626,19.157682 35.976487,16.766308 36.468750,8.5937500 C 36.566327,7.6319017 34.954191,7.2093940 33.062500,7.0937500 z "
     id="path936"
     sodipodi:nodetypes="ccccccccccccccccccccccccccccccccccccccccccccccccccccccccccccc"
     sodipodi:stroke-cmyk="(0.0000000 0.0000000 0.0000000 0.80000001)" />
  <path
     style="font-size:12.000000;fill:none;fill-opacity:1.0000000;fill-rule:evenodd;stroke:#333333;stroke-width:1.8750000;stroke-linecap:round;stroke-linejoin:round;stroke-miterlimit:4.0000000;stroke-opacity:1.0000000;"
     d="M 30.079254,1.6006761 C 14.415167,1.6006762 1.7256761,14.324872 1.7256761,29.988958 C 1.7256761,45.653046 14.415165,58.342537 30.079254,58.342536 C 45.743341,58.342534 58.467537,45.653046 58.467536,29.988958 C 58.467536,14.324871 45.743340,1.6006761 30.079254,1.6006761 z "
     id="path2165"
     sodipodi:stroke-cmyk="(0.0000000 0.0000000 0.0000000 0.80000001)"
     transform="matrix(0.959622,0.000000,0.000000,0.959632,1.220571,1.428604)" />
</svg>
