<?xml version="1.0" encoding="UTF-8" standalone="no"?>
<!DOCTYPE svg PUBLIC "-//W3C//DTD SVG 20010904//EN"
"http://www.w3.org/TR/2001/REC-SVG-20010904/DTD/svg10.dtd">
<svg
   sodipodi:docname="kmenuedit.svg"
   height="60.0000000"
   sodipodi:version="0.32"
   width="60.0000000"
   _SVGFile__filename="scalable/apps/kmenuedit.svg"
   version="1.0"
   y="0"
   x="0"
   inkscape:version="0.39"
   id="svg1"
   sodipodi:docbase="/home/danny/work/flat/newscale/apps"
   xmlns="http://www.w3.org/2000/svg"
   xmlns:cc="http://web.resource.org/cc/"
   xmlns:inkscape="http://www.inkscape.org/namespaces/inkscape"
   xmlns:sodipodi="http://sodipodi.sourceforge.net/DTD/sodipodi-0.dtd"
   xmlns:rdf="http://www.w3.org/1999/02/22-rdf-syntax-ns#"
   xmlns:dc="http://purl.org/dc/elements/1.1/"
   xmlns:xlink="http://www.w3.org/1999/xlink">
  <sodipodi:namedview
     bordercolor="#666666"
     inkscape:pageshadow="2"
     inkscape:window-y="0"
     pagecolor="#ffffff"
     inkscape:window-height="685"
     inkscape:zoom="9.8238822"
     inkscape:window-x="0"
     borderopacity="1.0"
     inkscape:cx="17.019436"
     inkscape:cy="25.682372"
     inkscape:window-width="1016"
     inkscape:pageopacity="0.0"
     id="base" />
  <defs
     id="defs3">
    <linearGradient
       id="linearGradient1160">
      <stop
         style="stop-color:#000;stop-opacity:1;"
         id="stop1161"
         offset="0" />
      <stop
         style="stop-color:#fff;stop-opacity:1;"
         id="stop1162"
         offset="1" />
    </linearGradient>
    <linearGradient
       xlink:href="#linearGradient1160"
       id="linearGradient1163" />
  </defs>
  <rect
     style="fill:#b3b3b3;fill-opacity:1.0000000;fill-rule:evenodd;stroke:none;stroke-width:1.0000000pt;"
     transform="matrix(0.990694,0.000000,0.000000,1.000000,0.771839,-0.254482)"
     height="36.390907"
     width="53.441196"
     y="1.9781317"
     x="1.5268912"
     id="rect838" />
  <rect
     style="font-size:12;fill:#b3b3b3;fill-opacity:1;fill-rule:evenodd;stroke:none;stroke-width:1pt;"
     transform="matrix(1.013033,0.000000,0.000000,0.714468,-0.259430,25.59057)"
     height="27.4840431"
     width="55.2225685"
     y="18.0104904"
     x="2.79930067"
     id="rect887" />
  <path
     style="fill:none;fill-rule:evenodd;stroke:#333333;stroke-opacity:1;stroke-width:3.3664940;stroke-linejoin:round;stroke-linecap:round;fill-opacity:0.75;stroke-dasharray:none;"
     d="M 117.90414,14.956708 L 3.0537825,14.956708 M 3.0537825,45.494533 L 117.63111,45.494533"
     sodipodi:nodetypes="cccc"
     transform="matrix(0.482416,0.000000,0.000000,0.643021,1.015849,28.84102)"
     sodipodi:stroke-cmyk="(0 0 0 0.8)"
     id="path888" />
  <path
     style="fill:none;fill-rule:evenodd;stroke:#333333;stroke-opacity:1;stroke-width:2.9159234;stroke-linejoin:miter;stroke-linecap:butt;fill-opacity:0.75;stroke-dasharray:none;"
     transform="matrix(0.643021,0.000000,0.000000,0.643021,4.049088,28.84102)"
     d="M 12.21513 15.21119 L 12.21513 46.003497 "
     sodipodi:stroke-cmyk="(0 0 0 0.8)"
     id="path889" />
  <path
     id="path848"
     style="font-size:24.000000;fill:#333333;stroke-width:1.0000000pt;font-family:VAG Rounded Black SSi;"
     transform="matrix(0.546407,0.000000,0.000000,0.546407,24.27207,46.15091)"
     d="M -6.8225527,5.8193731 L -6.8225527,-8.1728144 C -6.8225527,-8.6884394 -6.6545839,-9.1181269 -6.3186464,-9.4618769 C -5.9827089,-9.8056269 -5.5491152,-9.9775019 -5.0178652,-9.9775019 C -4.4866152,-9.9775019 -4.0569277,-9.8173456 -3.7288027,-9.4970331 C -3.3928652,-9.1767206 -3.2248964,-8.7353144 -3.2248964,-8.1728144 L -3.2248964,-2.9462519 L 2.6813536,-9.2978144 C 3.0954161,-9.7509394 3.5602598,-9.9775019 4.0758848,-9.9775019 C 4.5524473,-9.9775019 4.9665098,-9.8134394 5.3180723,-9.4853144 C 5.6774473,-9.1650019 5.8571348,-8.7431269 5.8571348,-8.2196894 C 5.8571348,-7.9228144 5.7633848,-7.6298456 5.5758848,-7.3407831 C 5.3883848,-7.0595331 5.0876036,-6.7118769 4.6735411,-6.2978144 L 0.13838482,-1.7860956 L 5.6813536,4.0615606 C 6.0016661,4.3662481 6.2477598,4.6631231 6.4196348,4.9521856 C 6.5993223,5.2334356 6.6891661,5.5459356 6.6891661,5.8896856 C 6.6891661,6.4365606 6.5094786,6.8545294 6.1501036,7.1435919 C 5.7907286,7.4248419 5.3454161,7.5654669 4.8141661,7.5654669 C 4.5016661,7.5654669 4.2165098,7.4795294 3.9586973,7.3076544 C 3.7086973,7.1357794 3.3883848,6.8467169 2.9977598,6.4404669 L -3.2248964,-0.35640812 L -3.2248964,5.8193731 C -3.2248964,6.3115606 -3.3928652,6.7256231 -3.7288027,7.0615606 C -4.0647402,7.3974981 -4.4944277,7.5654669 -5.0178652,7.5654669 C -5.5413027,7.5654669 -5.9748964,7.4053106 -6.3186464,7.0849981 C -6.6545839,6.7646856 -6.8225527,6.3428106 -6.8225527,5.8193731 z " />
  <path
     style="font-size:12.000000;fill:#333333;fill-rule:evenodd;stroke:#333333;stroke-width:1.2929699;stroke-linecap:round;stroke-linejoin:round;"
     d="M 37.139197,181.14740 L 52.946277,197.70716 L 78.538546,180.39460 L 98.861908,189.42735 L 105.63634,219.09510 L 127.46505,218.89461 L 133.48682,188.45399 L 153.81015,180.39460 L 179.40244,196.95450 L 191.44592,180.39460 L 162.40179,152.98512 C 87.958944,221.26415 23.628859,116.02943 87.571178,72.003552 L 87.571095,56.196470 L 80.043997,59.960043 L 56.709788,45.126111 L 40.590920,58.363176 L 55.204367,83.294200 L 46.924507,103.61753 L 18.409265,108.35437 L 18.321270,129.96261 L 47.677259,137.48978 L 55.768940,157.24868 L 37.139197,181.14740 z "
     sodipodi:nodetypes="ccccccccccccccccccccccc"
     transform="matrix(7.968402e-2,0.000000,0.000000,7.968402e-2,12.76704,38.62073)"
     sodipodi:stroke-cmyk="(0 0 0 0.8)"
     id="path705" />
  <path
     style="fill:#333333;fill-opacity:1.0000000;fill-rule:evenodd;stroke:#333333;stroke-width:1.2500000;stroke-linecap:round;stroke-linejoin:round;stroke-opacity:1.0000000;"
     d="M 9.3088625,44.226708 L 9.2270439,52.817661 L 4.9724769,48.563094 L 9.3088625,44.226708 z "
     sodipodi:nodetypes="cccc"
     sodipodi:stroke-cmyk="(0 0 0 0.8)"
     id="path594" />
  <path
     style="fill:none;fill-opacity:0.75000000;fill-rule:evenodd;stroke:#333333;stroke-width:1.8750000;stroke-linecap:round;stroke-linejoin:round;stroke-opacity:1.0000000;"
     d="M 2.4811990,2.2962336 L 2.4811990,58.027765"
     sodipodi:nodetypes="cc"
     sodipodi:stroke-cmyk="(0.0000000 0.0000000 0.0000000 0.80000001)"
     id="path839" />
  <path
     transform="matrix(1.258433,0.000000,0.000000,1.258433,-2.311853,-10.88938)"
     style="fill:#7f7f7f;fill-opacity:1.0000000;fill-rule:evenodd;stroke:#333333;stroke-width:0.99329883;stroke-linecap:round;stroke-linejoin:round;stroke-dasharray:0.99329881 0.99329881 ;stroke-dashoffset:0.0000000;stroke-opacity:1.0000000;"
     d="M 8.6165290,26.408392 C 7.5085290,26.408392 6.6165290,27.300392 6.6165290,28.408392 L 6.6165290,34.587668 C 6.6165290,35.695668 7.5085290,36.587668 8.6165290,36.587668 L 14.795805,36.587668 C 15.903805,36.587668 16.795805,35.695668 16.795805,34.587668 L 16.795805,28.408392 C 16.795805,27.300392 15.903805,26.408392 14.795805,26.408392 L 8.6165290,26.408392 z "
     id="rect840" />
  <path
     transform="matrix(1.258433,0.000000,0.000000,1.258433,-0.710612,-9.608391)"
     style="fill:#7f7f7f;fill-opacity:1.0000000;fill-rule:evenodd;stroke:#333333;stroke-width:0.99329883;stroke-linecap:round;stroke-linejoin:round;stroke-dasharray:0.99329881 0.99329881 ;stroke-dashoffset:0.0000000;stroke-opacity:1.0000000;"
     d="M 7.3441200,11.217234 C 6.2361200,11.217234 5.3441200,12.109234 5.3441200,13.217234 L 5.3441200,19.396510 C 5.3441200,20.504510 6.2361200,21.396510 7.3441200,21.396510 L 13.523396,21.396510 C 14.631396,21.396510 15.523396,20.504510 15.523396,19.396510 L 15.523396,13.217234 C 15.523396,12.109234 14.631396,11.217234 13.523396,11.217234 L 7.3441200,11.217234 z "
     id="rect841" />
  <path
     style="fill:none;fill-opacity:0.75000000;fill-rule:evenodd;stroke:#333333;stroke-width:3.1250000;stroke-linecap:round;stroke-linejoin:round;stroke-opacity:1.0000000;"
     d="M 24.684743,10.912715 L 49.878449,10.912715"
     sodipodi:stroke-cmyk="(0.0000000 0.0000000 0.0000000 0.80000001)"
     id="path843" />
  <path
     style="fill:none;fill-opacity:0.75000000;fill-rule:evenodd;stroke:#333333;stroke-width:3.1250000;stroke-linecap:round;stroke-linejoin:round;stroke-opacity:1.0000000;"
     d="M 24.684743,28.748780 L 49.878449,28.748780"
     sodipodi:stroke-cmyk="(0.0000000 0.0000000 0.0000000 0.80000001)"
     id="path844" />
  <metadata
     id="metadata20">
    <rdf:RDF
       id="RDF21">
      <cc:Work
         rdf:about=""
         id="Work22">
        <dc:title
           id="title23">Part of the Flat Icon Collection (Thu Aug 26 14:31:40 2004)</dc:title>
        <dc:description
           id="description25" />
        <dc:subject
           id="subject26">
          <rdf:Bag
             id="Bag27">
            <rdf:li
               id="li28" />
          </rdf:Bag>
        </dc:subject>
        <dc:publisher
           id="publisher29">
          <cc:Agent
             rdf:about=""
             id="Agent30">
            <dc:title
               id="title31" />
          </cc:Agent>
        </dc:publisher>
        <dc:creator
           id="creator32">
          <cc:Agent
             rdf:about=""
             id="Agent33">
            <dc:title
               id="title34">Danny Allen</dc:title>
          </cc:Agent>
        </dc:creator>
        <dc:rights
           id="rights36">
          <cc:Agent
             rdf:about=""
             id="Agent37">
            <dc:title
               id="title38">Danny Allen</dc:title>
          </cc:Agent>
        </dc:rights>
        <dc:date
           id="date40" />
        <dc:format
           id="format41">image/svg+xml</dc:format>
        <dc:type
           rdf:resource="http://purl.org/dc/dcmitype/StillImage"
           id="type43" />
        <cc:license
           rdf:resource="http://creativecommons.org/licenses/LGPL/2.1/"
           id="license44">
          <dc:date
             id="date45" />
        </cc:license>
        <dc:language
           id="language46">en</dc:language>
      </cc:Work>
    </rdf:RDF>
  </metadata>
</svg>
