<?xml version="1.0" encoding="UTF-8" standalone="no"?>
<!DOCTYPE svg PUBLIC "-//W3C//DTD SVG 20010904//EN"
"http://www.w3.org/TR/2001/REC-SVG-20010904/DTD/svg10.dtd">
<svg
   sodipodi:docname="kmid.svg"
   height="60.0000000"
   sodipodi:version="0.32"
   width="60.0000000"
   _SVGFile__filename="scalable/apps/kmid.svg"
   version="1.0"
   y="0"
   x="0"
   inkscape:version="0.39"
   id="svg1"
   sodipodi:docbase="/home/danny/work/flat/newscale/apps"
   xmlns="http://www.w3.org/2000/svg"
   xmlns:cc="http://web.resource.org/cc/"
   xmlns:inkscape="http://www.inkscape.org/namespaces/inkscape"
   xmlns:sodipodi="http://sodipodi.sourceforge.net/DTD/sodipodi-0.dtd"
   xmlns:rdf="http://www.w3.org/1999/02/22-rdf-syntax-ns#"
   xmlns:dc="http://purl.org/dc/elements/1.1/"
   xmlns:xlink="http://www.w3.org/1999/xlink">
  <sodipodi:namedview
     bordercolor="#666666"
     inkscape:pageshadow="2"
     inkscape:window-y="0"
     snaptoguides="true"
     pagecolor="#ffffff"
     inkscape:window-height="685"
     inkscape:zoom="4.9119411"
     inkscape:window-x="0"
     borderopacity="1.0"
     inkscape:cx="33.984483"
     inkscape:cy="14.671303"
     inkscape:window-width="1016"
     inkscape:pageopacity="0.0"
     id="base"
     showguides="true" />
  <defs
     id="defs3" />
  <g
     id="g986"
     transform="translate(1.118721,0.000000)">
    <path
       id="path836"
       style="font-size:24.000000;fill:#333333;stroke-width:1.0000000pt;font-family:VAG Rounded Black SSi;"
       transform="matrix(0.729515,0.000000,0.000000,0.729515,0.688910,0.000000)"
       d="M 37.776390,18.582109 L 37.776390,4.5899220 C 37.776390,4.0742970 37.944359,3.6446095 38.280296,3.3008595 C 38.616234,2.9571095 39.049828,2.7852345 39.581078,2.7852345 C 40.112328,2.7852345 40.542015,2.9453907 40.870140,3.2657032 C 41.206078,3.5860157 41.374046,4.0274220 41.374046,4.5899220 L 41.374046,9.8164845 L 47.280296,3.4649220 C 47.694359,3.0117970 48.159203,2.7852345 48.674828,2.7852345 C 49.151390,2.7852345 49.565453,2.9492970 49.917015,3.2774220 C 50.276390,3.5977345 50.456078,4.0196095 50.456078,4.5430470 C 50.456078,4.8399220 50.362328,5.1328907 50.174828,5.4219532 C 49.987328,5.7032032 49.686546,6.0508595 49.272484,6.4649220 L 44.737328,10.976641 L 50.280296,16.824297 C 50.600609,17.128984 50.846703,17.425859 51.018578,17.714922 C 51.198265,17.996172 51.288109,18.308672 51.288109,18.652422 C 51.288109,19.199297 51.108421,19.617266 50.749046,19.906328 C 50.389671,20.187578 49.944359,20.328203 49.413109,20.328203 C 49.100609,20.328203 48.815453,20.242266 48.557640,20.070391 C 48.307640,19.898516 47.987328,19.609453 47.596703,19.203203 L 41.374046,12.406328 L 41.374046,18.582109 C 41.374046,19.074297 41.206078,19.488359 40.870140,19.824297 C 40.534203,20.160234 40.104515,20.328203 39.581078,20.328203 C 39.057640,20.328203 38.624046,20.168047 38.280296,19.847734 C 37.944359,19.527422 37.776390,19.105547 37.776390,18.582109 z " />
    <path
       style="font-size:12.000000;fill:#333333;fill-rule:evenodd;stroke:#333333;stroke-width:0.13755518;stroke-linecap:round;stroke-linejoin:round;"
       d="M 21.126176,18.528696 L 22.807844,20.290439 L 25.530528,18.448608 L 27.692670,19.409575 L 28.413381,22.565838 L 30.735672,22.544508 L 31.376310,19.306022 L 33.538448,18.448608 L 36.261134,20.210366 L 37.542404,18.448608 L 34.452486,15.532596 C 26.532736,22.796597 19.688852,11.600992 26.491483,6.9172112 L 26.491474,5.2355434 L 25.690689,5.6359386 L 23.208233,4.0578013 L 21.493395,5.4660527 L 23.048075,8.1183895 L 22.167206,10.280527 L 19.133555,10.784465 L 19.124194,13.083301 L 22.247289,13.884094 L 23.108139,15.986183 L 21.126176,18.528696 z "
       sodipodi:nodetypes="ccccccccccccccccccccccc"
       transform="translate(0.688910,0.000000)"
       sodipodi:stroke-cmyk="(0 0 0 0.8)"
       id="path705" />
  </g>
  <metadata
     id="metadata13">
    <rdf:RDF
       id="RDF14">
      <cc:Work
         rdf:about=""
         id="Work15">
        <dc:title
           id="title16">Part of the Flat Icon Collection (Thu Aug 26 14:31:40 2004)</dc:title>
        <dc:description
           id="description18" />
        <dc:subject
           id="subject19">
          <rdf:Bag
             id="Bag20">
            <rdf:li
               id="li21" />
          </rdf:Bag>
        </dc:subject>
        <dc:publisher
           id="publisher22">
          <cc:Agent
             rdf:about=""
             id="Agent23">
            <dc:title
               id="title24" />
          </cc:Agent>
        </dc:publisher>
        <dc:creator
           id="creator25">
          <cc:Agent
             rdf:about=""
             id="Agent26">
            <dc:title
               id="title27">Danny Allen</dc:title>
          </cc:Agent>
        </dc:creator>
        <dc:rights
           id="rights29">
          <cc:Agent
             rdf:about=""
             id="Agent30">
            <dc:title
               id="title31">Danny Allen</dc:title>
          </cc:Agent>
        </dc:rights>
        <dc:date
           id="date33" />
        <dc:format
           id="format34">image/svg+xml</dc:format>
        <dc:type
           rdf:resource="http://purl.org/dc/dcmitype/StillImage"
           id="type36" />
        <cc:license
           rdf:resource="http://creativecommons.org/licenses/LGPL/2.1/"
           id="license37">
          <dc:date
             id="date38" />
        </cc:license>
        <dc:language
           id="language39">en</dc:language>
      </cc:Work>
    </rdf:RDF>
  </metadata>
  <g
     id="g1566"
     transform="translate(-0.114443,10.79331)">
    <path
       style="fill:#cccccc;fill-opacity:1.0000000;fill-rule:evenodd;stroke:#333333;stroke-width:3.1250000;stroke-linecap:round;stroke-linejoin:round;"
       d="M 5.7227141,15.033818 C 4.7774456,15.033818 4.0164533,15.794811 4.0164533,16.740079 L 4.0164533,43.877498 C 4.0164533,44.822766 4.7774456,45.583758 5.7227141,45.583758 L 12.749367,45.583758 C 13.694636,45.583758 14.455628,44.822766 14.455628,43.877498 L 14.455628,16.740079 C 14.455628,15.794811 13.694636,15.033818 12.749367,15.033818 L 5.7227141,15.033818 z "
       id="path979" />
    <path
       style="fill:#cccccc;fill-opacity:1.0000000;fill-rule:evenodd;stroke:#333333;stroke-width:3.1250000;stroke-linecap:round;stroke-linejoin:round;"
       d="M 16.326596,15.033818 C 15.381328,15.033818 14.620336,15.794811 14.620336,16.740079 L 14.620336,43.877498 C 14.620336,44.822766 15.381328,45.583758 16.326596,45.583758 L 23.353249,45.583758 C 24.298518,45.583758 25.059510,44.822766 25.059510,43.877498 L 25.059510,16.740079 C 25.059510,15.794811 24.298518,15.033818 23.353249,15.033818 L 16.326596,15.033818 z "
       id="path980" />
    <path
       style="fill:#cccccc;fill-opacity:1.0000000;fill-rule:evenodd;stroke:#333333;stroke-width:3.1250000;stroke-linecap:round;stroke-linejoin:round;"
       d="M 26.883038,15.033818 C 25.937769,15.033818 25.176777,15.794811 25.176777,16.740079 L 25.176777,43.877498 C 25.176777,44.822766 25.937769,45.583758 26.883038,45.583758 L 33.909691,45.583758 C 34.854959,45.583758 35.615952,44.822766 35.615952,43.877498 L 35.615952,16.740079 C 35.615952,15.794811 34.854959,15.033818 33.909691,15.033818 L 26.883038,15.033818 z "
       id="path981" />
    <path
       style="fill:#cccccc;fill-opacity:1.0000000;fill-rule:evenodd;stroke:#333333;stroke-width:3.1250000;stroke-linecap:round;stroke-linejoin:round;"
       d="M 37.322209,15.033818 C 36.376940,15.033818 35.615948,15.794811 35.615948,16.740079 L 35.615948,43.877498 C 35.615948,44.822766 36.376940,45.583758 37.322209,45.583758 L 44.348862,45.583758 C 45.294130,45.583758 46.055122,44.822766 46.055122,43.877498 L 46.055122,16.740079 C 46.055122,15.794811 45.294130,15.033818 44.348862,15.033818 L 37.322209,15.033818 z "
       id="path982" />
    <path
       style="fill:#cccccc;fill-opacity:1.0000000;fill-rule:evenodd;stroke:#333333;stroke-width:3.1250000;stroke-linecap:round;stroke-linejoin:round;"
       d="M 47.761379,15.033818 C 46.816111,15.033818 46.055119,15.794811 46.055119,16.740079 L 46.055119,43.877498 C 46.055119,44.822766 46.816111,45.583758 47.761379,45.583758 L 54.788032,45.583758 C 55.733301,45.583758 56.494293,44.822766 56.494293,43.877498 L 56.494293,16.740079 C 56.494293,15.794811 55.733301,15.033818 54.788032,15.033818 L 47.761379,15.033818 z "
       id="path983" />
    <path
       style="fill:#333333;fill-opacity:1.0000000;fill-rule:evenodd;stroke:#333333;stroke-width:3.1250000;stroke-linecap:round;stroke-linejoin:round;"
       d="M 11.615252,15.033818 C 10.852565,15.033818 10.238560,15.647823 10.238560,16.410511 L 10.238560,32.935969 C 10.238560,33.698656 10.852565,34.312661 11.615252,34.312661 L 17.284691,34.312661 C 18.047379,34.312661 18.661384,33.698656 18.661384,32.935969 L 18.661384,16.410511 C 18.661384,15.647823 18.047379,15.033818 17.284691,15.033818 L 11.615252,15.033818 z "
       id="path984" />
    <path
       style="fill:#333333;fill-opacity:1.0000000;fill-rule:evenodd;stroke:#333333;stroke-width:3.1250000;stroke-linecap:round;stroke-linejoin:round;"
       d="M 32.837794,15.033818 C 32.075106,15.033818 31.461102,15.647823 31.461102,16.410511 L 31.461102,32.935969 C 31.461102,33.698656 32.075106,34.312661 32.837794,34.312661 L 38.507233,34.312661 C 39.269921,34.312661 39.883925,33.698656 39.883925,32.935969 L 39.883925,16.410511 C 39.883925,15.647823 39.269921,15.033818 38.507233,15.033818 L 32.837794,15.033818 z "
       id="path985" />
  </g>
</svg>
