<?xml version="1.0" encoding="UTF-8" standalone="no"?>
<!DOCTYPE svg PUBLIC "-//W3C//DTD SVG 20010904//EN"
"http://www.w3.org/TR/2001/REC-SVG-20010904/DTD/svg10.dtd">
<svg
   sodipodi:docname="kmldonkey.svg"
   sodipodi:version="0.32"
   height="48pt"
   width="48pt"
   _SVGFile__filename="scalable/apps/kmldonkey.svg"
   inkscape:version="0.39"
   id="svg1"
   sodipodi:docbase="/home/danny/work/flat/newscale/apps"
   xmlns="http://www.w3.org/2000/svg"
   xmlns:cc="http://web.resource.org/cc/"
   xmlns:inkscape="http://www.inkscape.org/namespaces/inkscape"
   xmlns:sodipodi="http://sodipodi.sourceforge.net/DTD/sodipodi-0.dtd"
   xmlns:rdf="http://www.w3.org/1999/02/22-rdf-syntax-ns#"
   xmlns:dc="http://purl.org/dc/elements/1.1/"
   xmlns:xlink="http://www.w3.org/1999/xlink">
  <defs
     id="defs3" />
  <sodipodi:namedview
     bordercolor="#666666"
     inkscape:pageshadow="2"
     inkscape:window-y="0"
     pagecolor="#ffffff"
     inkscape:window-height="699"
     inkscape:zoom="8.0000000"
     inkscape:window-x="0"
     showgrid="false"
     borderopacity="1.0"
     inkscape:cx="39.602877"
     inkscape:cy="30.357140"
     snaptogrid="false"
     inkscape:window-width="1024"
     inkscape:pageopacity="0.0"
     id="base" />
  <path
     sodipodi:nodetypes="ccccccccccccccccccccc"
     style="font-size:12;fill:#7f7f7f;fill-rule:evenodd;stroke:none;stroke-width:1.29297;stroke-linecap:round;stroke-linejoin:round;fill-opacity:1.0000000;"
     d="M 8.2532615,45.999347 L 13.379757,51.369948 L 21.679747,45.755201 L 28.270945,48.684671 L 30.468003,58.306407 L 37.547411,58.241385 L 39.500370,48.368993 L 46.091558,45.755201 L 54.391555,51.125849 L 58.297453,45.755201 L 48.877967,36.865860 C 24.734937,59.009864 4.6528881,23.943026 25.390427,9.6647140 L 14.600324,1.8854210 L 9.3727116,6.1784175 L 14.112091,14.263956 L 11.426798,20.855144 L 2.1788385,22.391379 L 2.1503003,29.399284 L 11.670928,31.840468 L 14.295192,38.248601 L 8.2532615,45.999347 z "
     id="path705" />
  <path
     sodipodi:rx="16.250000"
     sodipodi:ry="16.250000"
     style="fill:none;fill-opacity:0.75000000;fill-rule:evenodd;stroke:#7f7f7f;stroke-width:3.1250000;stroke-dasharray:none;stroke-opacity:1.0000000;"
     sodipodi:type="arc"
     d="M 51.406250 31.406250 A 16.250000 16.250000 0 1 0 18.906250,31.406250 A 16.250000 16.250000 0 1 0 51.406250 31.406250 z"
     transform="matrix(1.118221,0.000000,0.000000,1.118221,-5.319449,-8.260104)"
     sodipodi:cy="31.406250"
     sodipodi:cx="35.156250"
     sodipodi:stroke-cmyk="(0.0000000 0.0000000 0.0000000 0.50000000)"
     id="path838" />
  <path
     style="fill:#333333;fill-opacity:1.0000000;fill-rule:evenodd;stroke:none;stroke-width:4.8922143;stroke-opacity:1.0000000;"
     d="M 19.500000 10.656250 L 16.343750 14.406250 C 19.460106 17.026823 23.009825 23.563751 25.687500 29.968750 C 28.365175 36.373749 30.312892 42.515202 31.375000 45.218750 L 32.062500 46.937500 L 35.593750 46.937500 L 36.031250 44.843750 C 36.447075 42.903230 38.609213 36.546507 41.281250 30.125000 C 43.953287 23.703493 47.280927 16.896908 49.750000 13.656250 L 45.843750 10.687500 C 42.721721 14.785164 39.494344 21.623474 36.750000 28.218750 C 35.466033 31.304413 34.361902 34.229954 33.437500 36.812500 C 32.405078 33.887612 31.770701 31.849517 30.187500 28.062500 C 27.405115 21.407034 24.071409 14.500389 19.500000 10.656250 z "
     id="path840" />
  <path
     style="fill:#333333;fill-opacity:1.0000000;fill-rule:evenodd;stroke:none;stroke-width:4.8922143;stroke-opacity:1.0000000;"
     d="M 33.468750,15.812500 L 32.531250,16.218750 L 23.281250,20.062500 L 25.156250,24.562500 L 33.468750,21.125000 L 41.250000,24.406250 L 43.156250,19.875000 L 34.406250,16.218750 L 33.468750,15.812500 z "
     id="path841" />
  <path
     style="fill:none;fill-opacity:0.75000000;fill-rule:evenodd;stroke:#333333;stroke-width:4.8922143;"
     d="M 19.491065,13.230694 L 14.249407,13.230694"
     sodipodi:stroke-cmyk="(0.0000000 0.0000000 0.0000000 0.80000001)"
     id="path842" />
  <path
     style="fill:none;fill-opacity:0.75000000;fill-rule:evenodd;stroke:#333333;stroke-width:4.8922143;"
     d="M 51.115735,13.230694 L 45.874077,13.230694"
     sodipodi:stroke-cmyk="(0.0000000 0.0000000 0.0000000 0.80000001)"
     id="path843" />
  <metadata
     id="metadata16">
    <rdf:RDF
       id="RDF17">
      <cc:Work
         rdf:about=""
         id="Work18">
        <dc:title
           id="title19">Part of the Flat Icon Collection (Thu Aug 26 14:31:40 2004)</dc:title>
        <dc:description
           id="description21" />
        <dc:subject
           id="subject22">
          <rdf:Bag
             id="Bag23">
            <rdf:li
               id="li24" />
          </rdf:Bag>
        </dc:subject>
        <dc:publisher
           id="publisher25">
          <cc:Agent
             rdf:about=""
             id="Agent26">
            <dc:title
               id="title27" />
          </cc:Agent>
        </dc:publisher>
        <dc:creator
           id="creator28">
          <cc:Agent
             rdf:about=""
             id="Agent29">
            <dc:title
               id="title30">Danny Allen</dc:title>
          </cc:Agent>
        </dc:creator>
        <dc:rights
           id="rights32">
          <cc:Agent
             rdf:about=""
             id="Agent33">
            <dc:title
               id="title34">Danny Allen</dc:title>
          </cc:Agent>
        </dc:rights>
        <dc:date
           id="date36" />
        <dc:format
           id="format37">image/svg+xml</dc:format>
        <dc:type
           rdf:resource="http://purl.org/dc/dcmitype/StillImage"
           id="type39" />
        <cc:license
           rdf:resource="http://creativecommons.org/licenses/LGPL/2.1/"
           id="license40">
          <dc:date
             id="date41" />
        </cc:license>
        <dc:language
           id="language42">en</dc:language>
      </cc:Work>
    </rdf:RDF>
  </metadata>
</svg>
