<?xml version="1.0" encoding="UTF-8" standalone="no"?>
<!DOCTYPE svg PUBLIC "-//W3C//DTD SVG 20010904//EN"
"http://www.w3.org/TR/2001/REC-SVG-20010904/DTD/svg10.dtd">
<svg
   sodipodi:docname="kmoon.svg"
   height="60.0000000"
   sodipodi:version="0.32"
   width="60.0000000"
   _SVGFile__filename="scalable/apps/kmoon.svg"
   version="1.0"
   y="0"
   x="0"
   inkscape:version="0.39"
   id="svg1"
   sodipodi:docbase="/home/danny/work/flat/newscale/apps"
   xmlns="http://www.w3.org/2000/svg"
   xmlns:cc="http://web.resource.org/cc/"
   xmlns:inkscape="http://www.inkscape.org/namespaces/inkscape"
   xmlns:sodipodi="http://sodipodi.sourceforge.net/DTD/sodipodi-0.dtd"
   xmlns:rdf="http://www.w3.org/1999/02/22-rdf-syntax-ns#"
   xmlns:dc="http://purl.org/dc/elements/1.1/"
   xmlns:xlink="http://www.w3.org/1999/xlink">
  <sodipodi:namedview
     bordercolor="#666666"
     inkscape:pageshadow="2"
     inkscape:window-y="0"
     pagecolor="#ffffff"
     inkscape:window-height="685"
     inkscape:zoom="6.9465337"
     inkscape:window-x="0"
     borderopacity="1.0"
     inkscape:cx="36.673786"
     inkscape:cy="19.379906"
     inkscape:window-width="1016"
     inkscape:pageopacity="0.0"
     id="base" />
  <defs
     id="defs3">
    <linearGradient
       id="linearGradient1160">
      <stop
         style="stop-color:#000;stop-opacity:1;"
         id="stop1161"
         offset="0" />
      <stop
         style="stop-color:#fff;stop-opacity:1;"
         id="stop1162"
         offset="1" />
    </linearGradient>
    <linearGradient
       xlink:href="#linearGradient1160"
       id="linearGradient1163" />
  </defs>
  <g
     id="g1566"
     transform="translate(0.303346,-0.330570)">
    <path
       style="font-size:12.000000;fill:#7f7f7f;fill-opacity:1.0000000;fill-rule:evenodd;stroke:#333333;stroke-width:2.9505799;stroke-linecap:round;stroke-linejoin:round;stroke-opacity:1.0000000;"
       d="M 30.156250,3.0000000 C 15.055300,3.0000000 2.8125000,15.242801 2.8125000,30.343750 C 2.8125000,45.444700 15.055299,57.718748 30.156250,57.718750 C 38.586359,57.718750 46.042941,53.814172 51.062500,47.812500 C 38.894015,45.038543 29.781250,34.192340 29.781250,21.187500 C 29.781250,14.521274 32.251649,8.4977940 36.218750,3.7500000 C 34.258441,3.3033770 32.251199,3.0000000 30.156250,3.0000000 z "
       transform="matrix(0.886126,-0.463444,0.463444,0.886126,-10.49343,16.95908)"
       id="path714"
       sodipodi:stroke-cmyk="(0 0 0 0.8)"
       sodipodi:fill-cmyk="(0 0 0 0.5)" />
    <path
       transform="matrix(0.886126,-0.463444,0.463444,0.886126,-10.49343,16.95908)"
       style="font-size:12.000000;fill:#b3b3b3;fill-opacity:1.0000000;fill-rule:evenodd;stroke:none;stroke-width:1.8750000;stroke-linecap:round;stroke-linejoin:round;stroke-opacity:1.0000000;"
       d="M 23.666814,28.444246 C 23.666814,31.956096 20.816617,34.806293 17.304768,34.806293 C 13.792918,34.806293 10.942721,31.956096 10.942721,28.444246 C 10.942721,24.932397 13.792918,22.082200 17.304768,22.082200 C 20.816617,22.082200 23.666814,24.932397 23.666814,28.444246 z "
       id="path705" />
    <path
       transform="matrix(0.886126,-0.463444,0.463444,0.886126,-11.51136,18.99494)"
       style="font-size:12.000000;fill:#b3b3b3;fill-opacity:1.0000000;fill-rule:evenodd;stroke:none;stroke-width:1.8750000;stroke-linecap:round;stroke-linejoin:round;stroke-opacity:1.0000000;"
       d="M 29.519898,8.5946608 C 29.519898,9.7184527 28.607835,10.630516 27.484043,10.630516 C 26.360251,10.630516 25.448188,9.7184527 25.448188,8.5946608 C 25.448188,7.4708688 26.360251,6.5588057 27.484043,6.5588057 C 28.607835,6.5588057 29.519898,7.4708688 29.519898,8.5946608 z "
       id="path706" />
    <path
       transform="matrix(0.886126,-0.463444,0.463444,0.886126,-10.49343,16.95908)"
       style="font-size:12.000000;fill:#b3b3b3;fill-opacity:1.0000000;fill-rule:evenodd;stroke:none;stroke-width:1.8750000;stroke-linecap:round;stroke-linejoin:round;stroke-opacity:1.0000000;"
       d="M 27.484043,47.148666 C 27.484043,49.326013 25.716921,51.093136 23.539574,51.093136 C 21.362227,51.093136 19.595104,49.326013 19.595104,47.148666 C 19.595104,44.971319 21.362227,43.204197 23.539574,43.204197 C 25.716921,43.204197 27.484043,44.971319 27.484043,47.148666 z "
       id="path709" />
    <path
       transform="matrix(0.886126,-0.463444,0.463444,0.886126,-10.49343,16.95908)"
       style="font-size:12.000000;fill:#b3b3b3;fill-opacity:1.0000000;fill-rule:evenodd;stroke:none;stroke-width:1.8750000;stroke-linecap:round;stroke-linejoin:round;stroke-opacity:1.0000000;"
       d="M 41.226064,48.548317 C 41.226064,49.531635 40.428009,50.329690 39.444691,50.329690 C 38.461373,50.329690 37.663318,49.531635 37.663318,48.548317 C 37.663318,47.564999 38.461373,46.766944 39.444691,46.766944 C 40.428009,46.766944 41.226064,47.564999 41.226064,48.548317 z "
       id="path710" />
    <path
       transform="matrix(0.886126,-0.463444,0.463444,0.886126,-11.51136,19.75838)"
       style="font-size:12.000000;fill:#b3b3b3;fill-opacity:1.0000000;fill-rule:evenodd;stroke:none;stroke-width:1.8750000;stroke-linecap:round;stroke-linejoin:round;stroke-opacity:1.0000000;"
       d="M 20.104068,13.684299 C 20.104068,14.527142 19.420021,15.211190 18.577177,15.211190 C 17.734333,15.211190 17.050286,14.527142 17.050286,13.684299 C 17.050286,12.841455 17.734333,12.157407 18.577177,12.157407 C 19.420021,12.157407 20.104068,12.841455 20.104068,13.684299 z "
       id="path712" />
  </g>
  <metadata
     id="metadata14">
    <rdf:RDF
       id="RDF15">
      <cc:Work
         rdf:about=""
         id="Work16">
        <dc:title
           id="title17">Part of the Flat Icon Collection (Thu Aug 26 14:31:40 2004)</dc:title>
        <dc:description
           id="description19" />
        <dc:subject
           id="subject20">
          <rdf:Bag
             id="Bag21">
            <rdf:li
               id="li22" />
          </rdf:Bag>
        </dc:subject>
        <dc:publisher
           id="publisher23">
          <cc:Agent
             rdf:about=""
             id="Agent24">
            <dc:title
               id="title25" />
          </cc:Agent>
        </dc:publisher>
        <dc:creator
           id="creator26">
          <cc:Agent
             rdf:about=""
             id="Agent27">
            <dc:title
               id="title28">Danny Allen</dc:title>
          </cc:Agent>
        </dc:creator>
        <dc:rights
           id="rights30">
          <cc:Agent
             rdf:about=""
             id="Agent31">
            <dc:title
               id="title32">Danny Allen</dc:title>
          </cc:Agent>
        </dc:rights>
        <dc:date
           id="date34" />
        <dc:format
           id="format35">image/svg+xml</dc:format>
        <dc:type
           rdf:resource="http://purl.org/dc/dcmitype/StillImage"
           id="type37" />
        <cc:license
           rdf:resource="http://creativecommons.org/licenses/LGPL/2.1/"
           id="license38">
          <dc:date
             id="date39" />
        </cc:license>
        <dc:language
           id="language40">en</dc:language>
      </cc:Work>
    </rdf:RDF>
  </metadata>
</svg>
