<?xml version="1.0" encoding="UTF-8" standalone="no"?>
<!DOCTYPE svg PUBLIC "-//W3C//DTD SVG 20010904//EN"
"http://www.w3.org/TR/2001/REC-SVG-20010904/DTD/svg10.dtd">
<svg
   sodipodi:docname="kodo.svg"
   height="60.0000000"
   sodipodi:version="0.32"
   width="60.0000000"
   _SVGFile__filename="scalable/apps/kodo.svg"
   version="1.0"
   y="0"
   x="0"
   inkscape:version="0.39"
   id="svg1"
   sodipodi:docbase="/home/danny/work/flat/newscale/apps"
   xmlns="http://www.w3.org/2000/svg"
   xmlns:cc="http://web.resource.org/cc/"
   xmlns:inkscape="http://www.inkscape.org/namespaces/inkscape"
   xmlns:sodipodi="http://sodipodi.sourceforge.net/DTD/sodipodi-0.dtd"
   xmlns:rdf="http://www.w3.org/1999/02/22-rdf-syntax-ns#"
   xmlns:xml="http://www.w3.org/XML/1998/namespace"
   xmlns:dc="http://purl.org/dc/elements/1.1/"
   xmlns:xlink="http://www.w3.org/1999/xlink">
  <sodipodi:namedview
     bordercolor="#666666"
     inkscape:pageshadow="2"
     inkscape:window-y="0"
     pagecolor="#ffffff"
     inkscape:window-height="685"
     inkscape:zoom="6.9465338"
     inkscape:window-x="0"
     borderopacity="1.0"
     inkscape:cx="35.905227"
     inkscape:cy="23.061582"
     inkscape:window-width="1016"
     inkscape:pageopacity="0.0"
     id="base" />
  <defs
     id="defs3">
    <linearGradient
       id="linearGradient1160">
      <stop
         style="stop-color:#000;stop-opacity:1;"
         id="stop1161"
         offset="0" />
      <stop
         style="stop-color:#fff;stop-opacity:1;"
         id="stop1162"
         offset="1" />
    </linearGradient>
    <linearGradient
       xlink:href="#linearGradient1160"
       id="linearGradient1163" />
  </defs>
  <metadata
     id="metadata30">
    <rdf:RDF
       id="RDF31">
      <cc:Work
         rdf:about=""
         id="Work32">
        <dc:title
           id="title33">Part of the Flat Icon Collection (Thu Aug 26 14:31:40 2004)</dc:title>
        <dc:description
           id="description35" />
        <dc:subject
           id="subject36">
          <rdf:Bag
             id="Bag37">
            <rdf:li
               id="li38" />
          </rdf:Bag>
        </dc:subject>
        <dc:publisher
           id="publisher39">
          <cc:Agent
             rdf:about=""
             id="Agent40">
            <dc:title
               id="title41" />
          </cc:Agent>
        </dc:publisher>
        <dc:creator
           id="creator42">
          <cc:Agent
             rdf:about=""
             id="Agent43">
            <dc:title
               id="title44">Danny Allen</dc:title>
          </cc:Agent>
        </dc:creator>
        <dc:rights
           id="rights46">
          <cc:Agent
             rdf:about=""
             id="Agent47">
            <dc:title
               id="title48">Danny Allen</dc:title>
          </cc:Agent>
        </dc:rights>
        <dc:date
           id="date50" />
        <dc:format
           id="format51">image/svg+xml</dc:format>
        <dc:type
           rdf:resource="http://purl.org/dc/dcmitype/StillImage"
           id="type53" />
        <cc:license
           rdf:resource="http://creativecommons.org/licenses/LGPL/2.1/"
           id="license54">
          <dc:date
             id="date55" />
        </cc:license>
        <dc:language
           id="language56">en</dc:language>
      </cc:Work>
    </rdf:RDF>
  </metadata>
  <g
     id="g1586"
     transform="translate(8.193991e-3,-0.497252)">
    <path
       transform="matrix(0.954545,0.000000,0.000000,0.954545,1.529540,-1.615966)"
       style="font-size:12.000000;fill:#4c4c4c;fill-opacity:1.0000000;fill-rule:evenodd;stroke:#333333;stroke-width:3.2738111;stroke-linejoin:round;stroke-miterlimit:4.0000000;stroke-opacity:1.0000000;"
       d="M 3.9794044,15.913264 C 2.8714044,15.913264 1.9794044,16.805264 1.9794044,17.913264 L 1.9794044,49.542544 C 1.9794044,50.650544 2.8714044,51.542544 3.9794044,51.542544 L 55.762623,51.542544 C 56.870623,51.542544 57.762623,50.650544 57.762623,49.542544 L 57.762623,17.913264 C 57.762623,16.805264 56.870623,15.913264 55.762623,15.913264 L 3.9794044,15.913264 z "
       id="rect752" />
    <path
       style="fill:none;fill-opacity:0.75000000;fill-rule:evenodd;stroke:#333333;stroke-width:1.8750000;stroke-linecap:round;stroke-linejoin:round;stroke-opacity:1.0000000;"
       d="M 3.5907255,30.578836 L 56.494809,30.578836"
       sodipodi:stroke-cmyk="(0 0 0 0.8)"
       id="path753" />
    <path
       style="fill:none;fill-opacity:0.75000000;fill-rule:evenodd;stroke:#333333;stroke-width:1.8750000;stroke-linecap:butt;stroke-linejoin:miter;stroke-opacity:1.0000000;"
       d="M 21.486368,14.473697 L 21.486368,47.223844"
       sodipodi:stroke-cmyk="(0 0 0 0.8)"
       id="path754" />
    <path
       style="fill:none;fill-opacity:0.75000000;fill-rule:evenodd;stroke:#333333;stroke-width:1.8750000;stroke-linecap:butt;stroke-linejoin:miter;stroke-opacity:1.0000000;"
       d="M 38.879232,13.933860 L 38.879232,48.303519"
       sodipodi:stroke-cmyk="(0 0 0 0.8)"
       id="path755" />
    <path
       style="font-size:12.000000;font-style:normal;font-weight:normal;fill:#b3b3b3;fill-opacity:1.0000000;stroke:none;stroke-width:1.0000000pt;stroke-linecap:butt;stroke-linejoin:miter;stroke-opacity:1.0000000;font-family:VAG Rounded Black SSi;text-anchor:start;writing-mode:lr;"
       d="M 11.982045,26.232081 L 15.022503,26.232081 C 15.411673,26.232083 15.722475,26.323973 15.954910,26.507749 C 16.192733,26.686125 16.311648,26.959090 16.311657,27.326646 C 16.311648,27.694205 16.198138,27.972574 15.971126,28.161759 C 15.749502,28.345537 15.465726,28.437426 15.119797,28.437426 L 9.5740028,28.437426 C 9.1848226,28.437426 8.8713181,28.342834 8.6334880,28.153650 C 8.3956558,27.964467 8.2767403,27.688799 8.2767410,27.326646 C 8.2767403,27.078006 8.4037637,26.794230 8.6578116,26.475318 C 9.0145572,26.053710 9.4496800,25.551022 9.9631814,24.967251 C 10.476678,24.383487 10.841533,23.964580 11.057746,23.710529 C 11.279358,23.451081 11.552323,23.118658 11.876643,22.713259 C 12.200953,22.307870 12.506350,21.891665 12.792834,21.464644 C 13.182007,20.907910 13.376596,20.386303 13.376602,19.899822 C 13.376596,19.548489 13.260383,19.245795 13.027963,18.991739 C 12.795531,18.737701 12.511756,18.610678 12.176634,18.610668 C 11.760425,18.610678 11.455029,18.726890 11.260443,18.959307 C 11.065851,19.191743 10.900990,19.532273 10.765862,19.980900 C 10.630728,20.429545 10.490191,20.767373 10.344252,20.994386 C 10.198308,21.216010 9.9469632,21.326817 9.5902187,21.326810 C 9.2172542,21.326817 8.9199653,21.207901 8.6983511,20.970063 C 8.4821398,20.732240 8.3740348,20.443058 8.3740356,20.102519 C 8.3740348,19.416061 8.5551108,18.780943 8.9172640,18.197166 C 9.2794145,17.613409 9.7631847,17.151260 10.368576,16.810717 C 10.973961,16.470198 11.611781,16.299932 12.282037,16.299920 C 12.957689,16.299932 13.576590,16.443171 14.138743,16.729638 C 14.700883,17.016128 15.144113,17.424225 15.468437,17.953930 C 15.798149,18.483654 15.963009,19.094448 15.963017,19.786311 C 15.963009,20.321440 15.835986,20.872776 15.581947,21.440321 C 15.327891,22.002473 14.998171,22.553810 14.592785,23.094329 C 14.187383,23.629455 13.687398,24.237545 13.092826,24.918604 C 12.503648,25.599669 12.133388,26.037494 11.982045,26.232081"
       id="text756" />
    <path
       style="font-size:12.000000;font-style:normal;font-weight:normal;fill:#b3b3b3;fill-opacity:1.0000000;stroke:none;stroke-width:1.0000000pt;stroke-linecap:butt;stroke-linejoin:miter;stroke-opacity:1.0000000;font-family:VAG Rounded Black SSi;text-anchor:start;writing-mode:lr;"
       d="M 46.740207,18.606614 L 46.488862,20.382241 C 47.018572,20.274144 47.434777,20.220092 47.737477,20.220084 C 48.391507,20.220092 48.980680,20.379547 49.504997,20.698449 C 50.029298,21.017366 50.437395,21.449787 50.729287,21.995711 C 51.026568,22.536242 51.175213,23.133522 51.175221,23.787554 C 51.175213,24.479431 51.080620,25.111845 50.891445,25.684800 C 50.707657,26.257759 50.429288,26.749637 50.056332,27.160435 C 49.683363,27.571234 49.221214,27.887442 48.669884,28.109058 C 48.118541,28.330673 47.486128,28.441481 46.772638,28.441481 C 46.323998,28.441481 45.810498,28.352294 45.232140,28.173921 C 44.659180,27.990143 44.164599,27.727988 43.748396,27.387455 C 43.332191,27.041520 43.124088,26.644234 43.124088,26.195596 C 43.124088,25.990198 43.175438,25.798313 43.278140,25.619937 C 43.380838,25.441565 43.518672,25.303731 43.691642,25.206435 C 43.864608,25.103737 44.051089,25.052388 44.251086,25.052384 C 44.418647,25.052388 44.699720,25.176708 45.094306,25.425347 C 45.494292,25.668586 45.802391,25.846960 46.018604,25.960467 C 46.240217,26.073980 46.507776,26.130735 46.821285,26.130733 C 47.372616,26.130735 47.802334,25.909120 48.110439,25.465887 C 48.423938,25.022658 48.580690,24.509159 48.580697,23.925387 C 48.580690,23.595671 48.518531,23.303788 48.394215,23.049736 C 48.275295,22.790290 48.096920,22.590295 47.859094,22.449752 C 47.626664,22.303817 47.337483,22.230845 46.991551,22.230840 C 46.764526,22.230845 46.578044,22.255169 46.432106,22.303810 C 46.291566,22.352464 46.129409,22.425434 45.945634,22.522723 C 45.761852,22.620024 45.613207,22.690292 45.499699,22.733528 C 45.386187,22.771371 45.229434,22.790290 45.029443,22.790284 C 44.742962,22.790290 44.507833,22.701103 44.324056,22.522723 C 44.140276,22.344355 44.048387,22.168685 44.048388,21.995711 C 44.048387,21.920043 44.053791,21.836262 44.064604,21.744366 C 44.075412,21.652484 44.086224,21.547081 44.097035,21.428159 L 44.518646,17.893120 C 44.567291,17.541789 44.624046,17.266121 44.688911,17.066116 C 44.759177,16.866133 44.840256,16.712083 44.932148,16.603967 C 45.029440,16.490468 45.145653,16.412091 45.280787,16.368838 C 45.421321,16.320202 45.596992,16.295878 45.807800,16.295866 L 49.813096,16.295866 C 50.180645,16.295878 50.472530,16.395876 50.688747,16.595858 C 50.910355,16.795865 51.021163,17.052614 51.021171,17.366108 C 51.021163,17.868807 50.894139,18.201230 50.640100,18.363378 C 50.391451,18.525546 50.131998,18.606623 49.861743,18.606614 L 46.740207,18.606614"
       id="text759" />
    <path
       transform="scale(1.383746,1.383746)"
       style="font-size:12.000000;font-style:normal;font-weight:normal;fill:#b3b3b3;fill-opacity:1.0000000;stroke:none;stroke-width:1.0000000pt;stroke-linecap:butt;stroke-linejoin:miter;stroke-opacity:1.0000000;font-family:VAG Rounded Black SSi;text-anchor:start;writing-mode:lr;"
       d="M 6.7501621,31.087017 L 9.7501621,25.338970 L 6.6739902,25.338970 C 6.3732082,25.338977 6.1505522,25.258899 6.0060215,25.098736 C 5.8614900,24.938587 5.7892244,24.743275 5.7892246,24.512798 C 5.7892244,24.274525 5.8595369,24.075307 6.0001621,23.915142 C 6.1407866,23.751088 6.3653957,23.669057 6.6739902,23.669048 L 11.021646,23.669048 C 11.209141,23.669057 11.367344,23.717885 11.496256,23.815533 C 11.629062,23.913197 11.726719,24.030385 11.789225,24.167095 C 11.851718,24.303822 11.882968,24.430775 11.882975,24.547955 C 11.882968,24.657337 11.857578,24.774525 11.806803,24.899517 C 11.759922,25.020618 11.693515,25.167102 11.607584,25.338970 L 8.6310215,31.450298 C 8.5060186,31.712018 8.4025031,31.903424 8.3204746,32.024517 C 8.2423470,32.141705 8.1485971,32.229595 8.0392246,32.288189 C 7.9298473,32.342876 7.7911756,32.370220 7.6232090,32.370220 C 7.3185198,32.370220 7.0763325,32.278423 6.8966465,32.094830 C 6.7169579,31.911236 6.6271142,31.715924 6.6271152,31.508892 C 6.6271142,31.387799 6.6681298,31.247174 6.7501621,31.087017"
       id="text765" />
    <path
       style="font-size:12.000000;font-style:normal;font-weight:normal;fill:#b3b3b3;fill-opacity:1.0000000;stroke:none;stroke-width:1.0000000pt;stroke-linecap:butt;stroke-linejoin:miter;stroke-opacity:1.0000000;font-family:VAG Rounded Black SSi;text-anchor:start;writing-mode:lr;"
       d="M 47.418104,32.601955 C 48.039704,32.601967 48.609958,32.712775 49.128868,32.934379 C 49.653172,33.156005 50.093700,33.453295 50.450455,33.826246 C 50.807193,34.193815 51.085564,34.631639 51.285566,35.139724 C 51.485552,35.642422 51.585550,36.180244 51.585558,36.753193 C 51.585550,37.531558 51.361231,38.412614 50.912604,39.396365 C 50.469365,40.380125 49.920732,41.320639 49.266703,42.217908 C 48.612660,43.109777 47.980245,43.844892 47.369457,44.423254 C 47.250537,44.536764 47.072163,44.669192 46.834336,44.820540 C 46.715417,44.901619 46.550556,44.942158 46.339755,44.942158 C 46.096516,44.942158 45.837064,44.812432 45.561398,44.552980 C 45.291133,44.288123 45.156002,44.007049 45.156005,43.709760 C 45.156002,43.607061 45.183028,43.507064 45.237082,43.409768 C 45.291133,43.307069 45.380320,43.180046 45.504644,43.028698 C 45.655988,42.839515 45.920845,42.534118 46.299217,42.112506 C 46.682985,41.685494 46.985679,41.344963 47.207300,41.090912 C 47.428910,40.836869 47.626202,40.585525 47.799175,40.336879 L 47.766743,40.304448 C 47.474854,40.439583 47.126217,40.507149 46.720826,40.507145 C 46.077597,40.507149 45.491127,40.336883 44.961415,39.996347 C 44.431698,39.650416 44.012791,39.188267 43.704693,38.609899 C 43.401997,38.026138 43.250650,37.407237 43.250651,36.753193 C 43.250650,36.201865 43.350648,35.680258 43.550642,35.188371 C 43.750636,34.691097 44.039817,34.247866 44.418187,33.858677 C 44.801958,33.464104 45.247891,33.156005 45.755987,32.934379 C 46.269484,32.712775 46.823522,32.601967 47.418104,32.601955 M 47.418104,38.496389 C 47.882951,38.496394 48.261319,38.331535 48.553209,38.001807 C 48.845087,37.672094 48.991028,37.255889 48.991035,36.753193 C 48.991028,36.272133 48.847789,35.861334 48.561316,35.520794 C 48.280237,35.180272 47.899168,35.010007 47.418104,35.009998 C 46.953249,35.010007 46.572177,35.180272 46.274892,35.520794 C 45.983005,35.855929 45.837064,36.266728 45.837066,36.753193 C 45.837064,37.228863 45.974897,37.639662 46.250568,37.985591 C 46.531638,38.326130 46.920816,38.496394 47.418104,38.496389"
       id="text768" />
    <path
       style="font-size:12.000000;font-style:normal;font-weight:normal;fill:#b3b3b3;fill-opacity:1.0000000;stroke:none;stroke-width:1.0000000pt;stroke-linecap:butt;stroke-linejoin:miter;stroke-opacity:1.0000000;font-family:VAG Rounded Black SSi;text-anchor:start;writing-mode:lr;"
       d="M 27.682800,38.756528 C 27.682797,38.083651 27.923132,37.503943 28.403802,37.017397 C 28.894919,36.520505 29.485302,36.272058 30.174962,36.272056 C 30.864613,36.272058 31.455000,36.515330 31.946124,37.001867 C 32.437235,37.488413 32.682794,38.073300 32.682800,38.756528 C 32.682794,39.439760 32.437235,40.029821 31.946124,40.526713 C 31.455000,41.023609 30.864613,41.272056 30.174962,41.272056 C 29.485302,41.272056 28.894919,41.023609 28.403802,40.526713 C 27.923132,40.029821 27.682797,39.439760 27.682800,38.756528"
       id="text771" />
    <path
       style="font-size:12.000000;font-style:normal;font-weight:normal;fill:#b3b3b3;fill-opacity:1.0000000;stroke:none;stroke-width:1.0000000pt;stroke-linecap:butt;stroke-linejoin:miter;stroke-opacity:1.0000000;font-family:VAG Rounded Black SSi;text-anchor:start;writing-mode:lr;"
       d="M 27.682800,22.353145 C 27.682797,21.680268 27.923132,21.100560 28.403802,20.614014 C 28.894919,20.117122 29.485302,19.868675 30.174962,19.868673 C 30.864613,19.868675 31.455000,20.111947 31.946124,20.598484 C 32.437235,21.085030 32.682794,21.669917 32.682800,22.353145 C 32.682794,23.036377 32.437235,23.626438 31.946124,24.123330 C 31.455000,24.620226 30.864613,24.868673 30.174962,24.868673 C 29.485302,24.868673 28.894919,24.620226 28.403802,24.123330 C 27.923132,23.626438 27.682797,23.036377 27.682800,22.353145"
       id="path1584" />
  </g>
</svg>
