<?xml version="1.0" encoding="UTF-8" standalone="no"?>
<!DOCTYPE svg PUBLIC "-//W3C//DTD SVG 20010904//EN"
"http://www.w3.org/TR/2001/REC-SVG-20010904/DTD/svg10.dtd">
<!-- Created with Inkscape (http://www.inkscape.org/) -->
<svg
   version="1.0"
   x="0"
   y="0"
   width="60.0000000"
   height="60.0000000"
   id="svg1"
   sodipodi:version="0.32"
   inkscape:version="0.39"
   sodipodi:docname="kompose.svg"
   sodipodi:docbase="/home/danny/work/flat/newscale/apps"
   xmlns="http://www.w3.org/2000/svg"
   xmlns:cc="http://web.resource.org/cc/"
   xmlns:inkscape="http://www.inkscape.org/namespaces/inkscape"
   xmlns:sodipodi="http://sodipodi.sourceforge.net/DTD/sodipodi-0.dtd"
   xmlns:rdf="http://www.w3.org/1999/02/22-rdf-syntax-ns#"
   xmlns:dc="http://purl.org/dc/elements/1.1/"
   xmlns:xlink="http://www.w3.org/1999/xlink">
  <sodipodi:namedview
     id="base"
     pagecolor="#ffffff"
     bordercolor="#666666"
     borderopacity="1.0"
     inkscape:pageopacity="0.0"
     inkscape:pageshadow="2"
     inkscape:zoom="9.8238822"
     inkscape:cx="24.046507"
     inkscape:cy="24.549356"
     inkscape:window-width="1016"
     inkscape:window-height="685"
     inkscape:window-x="0"
     inkscape:window-y="0"
     showguides="true"
     snaptoguides="true" />
  <defs
     id="defs3">
    <linearGradient
       id="linearGradient900">
      <stop
         style="stop-color:#000;stop-opacity:1;"
         offset="0"
         id="stop901" />
      <stop
         style="stop-color:#fff;stop-opacity:1;"
         offset="1"
         id="stop902" />
    </linearGradient>
    <linearGradient
       xlink:href="#linearGradient900"
       id="linearGradient903" />
    <linearGradient
       xlink:href="#linearGradient900"
       id="linearGradient904" />
    <linearGradient
       xlink:href="#linearGradient900"
       id="linearGradient905" />
    <linearGradient
       xlink:href="#linearGradient900"
       id="linearGradient906" />
    <linearGradient
       xlink:href="#linearGradient900"
       id="linearGradient907" />
  </defs>
  <metadata
     id="metadata16">
    <rdf:RDF
       id="RDF17">
      <cc:Work
         rdf:about=""
         id="Work18">
        <dc:format
           id="format19">image/svg+xml</dc:format>
        <dc:type
           id="type21"
           rdf:resource="http://purl.org/dc/dcmitype/StillImage" />
      </cc:Work>
    </rdf:RDF>
  </metadata>
  <g
     id="g927"
     transform="translate(-6.517883e-2,-5.696360e-2)">
    <path
       style="font-size:12.000000;fill:#333333;fill-opacity:1.0000000;fill-rule:evenodd;stroke:#333333;stroke-width:2.5000000;stroke-linejoin:round;"
       d="M 4.6123905,2.6844294 C 3.4013809,2.6844294 2.4264526,3.6593577 2.4264526,4.8703673 L 2.4264526,55.567560 C 2.4264526,56.778570 3.4013809,57.753498 4.6123905,57.753498 L 55.702932,57.753498 C 56.913942,57.753498 57.888870,56.778570 57.888870,55.567560 L 57.888870,4.8703673 C 57.888870,3.6593577 56.913942,2.6844294 55.702932,2.6844294 L 4.6123905,2.6844294 z "
       id="rect945" />
    <path
       transform="translate(-0.384509,-0.267467)"
       style="fill:#7f7f7f;fill-opacity:1.0000000;fill-rule:evenodd;stroke:#cccccc;stroke-width:1.8750000;stroke-linecap:round;stroke-linejoin:round;stroke-miterlimit:4.0000000;stroke-dasharray:1.8750000 1.8750000 ;stroke-dashoffset:0.0000000;stroke-opacity:1.0000000;"
       d="M 13.625794,37.664085 C 12.414785,37.664085 11.439857,38.639014 11.439857,39.850023 L 11.439857,53.295330 C 11.439857,54.506340 12.414785,55.481268 13.625794,55.481268 L 30.931493,55.481268 C 32.142502,55.481268 33.117431,54.506340 33.117431,53.295330 L 33.117431,39.850023 C 33.117431,38.639014 32.142502,37.664085 30.931493,37.664085 L 13.625794,37.664085 z "
       id="rect2165" />
    <path
       transform="matrix(-1.417594e-17,1.000000,-1.000000,-1.417594e-17,-0.384509,-0.267467)"
       style="fill:#7f7f7f;fill-opacity:1.0000000;fill-rule:evenodd;stroke:#cccccc;stroke-width:1.2500000;stroke-linecap:round;stroke-linejoin:round;stroke-miterlimit:4.0000000;stroke-dasharray:1.2500000 1.2500000 ;stroke-dashoffset:0.0000000;stroke-opacity:1.0000000;"
       d="M 20.795870,-56.001354 C 19.584860,-56.001354 18.609932,-55.026426 18.609932,-53.815416 L 18.609932,-40.240265 C 18.609932,-39.029255 19.584860,-38.054327 20.795870,-38.054327 L 38.259546,-38.054327 C 39.470556,-38.054327 40.445484,-39.029255 40.445484,-40.240265 L 40.445484,-53.815416 C 40.445484,-55.026426 39.470556,-56.001354 38.259546,-56.001354 L 20.795870,-56.001354 z "
       id="rect2166" />
    <path
       transform="matrix(0.982187,0.000000,0.000000,0.982187,0.485866,0.174803)"
       style="fill:#7f7f7f;fill-opacity:1.0000000;fill-rule:evenodd;stroke:#cccccc;stroke-width:2.5453401;stroke-linecap:round;stroke-linejoin:round;stroke-miterlimit:4.0000000;stroke-dasharray:2.5453401 2.5453401 ;stroke-dashoffset:0.0000000;stroke-opacity:1.0000000;"
       d="M 7.1509280,5.4590654 C 5.9179561,5.4590654 4.9253469,6.4516746 4.9253469,7.6846466 L 4.9253469,29.305759 C 4.9253469,30.538731 5.9179561,31.531341 7.1509280,31.531341 L 28.773136,31.531341 C 30.006108,31.531341 30.998717,30.538731 30.998717,29.305759 L 30.998717,7.6846466 C 30.998717,6.4516746 30.006108,5.4590654 28.773136,5.4590654 L 7.1509280,5.4590654 z "
       id="rect1541" />
    <g
       id="g2202"
       transform="matrix(0.855357,0.000000,0.000000,0.855357,3.233504,2.247301)">
      <path
         id="path829"
         style="font-size:24.000000;fill:#333333;stroke-width:1.0000000pt;font-family:VAG Rounded Black SSi;"
         d="M 16.660047,19.989989 L 16.660047,10.070105 C 16.660047,9.7045483 16.779130,9.3999172 17.017295,9.1562128 C 17.255462,8.9125085 17.562861,8.7906563 17.939496,8.7906563 C 18.316131,8.7906563 18.620760,8.9041997 18.853388,9.1312880 C 19.091554,9.3583762 19.210637,9.6713160 19.210637,10.070105 L 19.210637,13.775522 L 23.397924,9.2725259 C 23.691478,8.9512799 24.021033,8.7906563 24.386590,8.7906563 C 24.724453,8.7906563 25.018007,8.9069693 25.267249,9.1395967 C 25.522032,9.3666849 25.649423,9.6657769 25.649423,10.036873 C 25.649423,10.247345 25.582957,10.455047 25.450028,10.659981 C 25.317099,10.859375 25.103857,11.105849 24.810303,11.399403 L 21.595065,14.598025 L 25.524802,18.743772 C 25.751890,18.959784 25.926360,19.170256 26.048212,19.375189 C 26.175603,19.574584 26.239298,19.796133 26.239298,20.039837 C 26.239298,20.427549 26.111907,20.723873 25.857126,20.928805 C 25.602343,21.128201 25.286635,21.227897 24.910001,21.227897 C 24.688451,21.227897 24.486288,21.166972 24.303509,21.045118 C 24.126269,20.923266 23.899181,20.718333 23.622244,20.430318 L 19.210637,15.611615 L 19.210637,19.989989 C 19.210637,20.338929 19.091554,20.632483 18.853388,20.870648 C 18.615223,21.108815 18.310591,21.227897 17.939496,21.227897 C 17.568400,21.227897 17.261001,21.114353 17.017295,20.887264 C 16.779130,20.660176 16.660047,20.361084 16.660047,19.989989 z " />
      <path
         style="font-size:12.000000;fill:#333333;fill-rule:evenodd;stroke:#333333;stroke-width:0.13367949;stroke-linecap:round;stroke-linejoin:round;"
         d="M 10.409065,24.822673 L 12.043350,26.534778 L 14.689322,24.744842 L 16.790543,25.678732 L 17.490948,28.746065 L 19.730217,28.747325 L 20.370395,25.578097 L 22.471614,24.744842 L 25.117587,26.456961 L 26.362755,24.744842 L 23.359899,21.910990 C 15.663292,28.970322 9.0122379,18.090160 15.623200,13.538348 L 15.623192,11.904061 L 14.844970,12.293175 L 12.432457,10.759503 L 10.765936,12.128076 L 12.276813,14.705681 L 11.420763,16.806900 L 8.4725867,17.296639 L 8.4634900,19.530704 L 11.498589,20.308934 L 12.335184,22.351796 L 10.409065,24.822673 z "
         sodipodi:nodetypes="ccccccccccccccccccccccc"
         sodipodi:stroke-cmyk="(0 0 0 0.8)"
         id="path705" />
    </g>
  </g>
</svg>
