<?xml version="1.0" encoding="UTF-8" standalone="no"?>
<!DOCTYPE svg PUBLIC "-//W3C//DTD SVG 20010904//EN"
"http://www.w3.org/TR/2001/REC-SVG-20010904/DTD/svg10.dtd">
<svg
   sodipodi:docname="news_subscribe.svg"
   height="60.0000000"
   sodipodi:version="0.32"
   width="60.0000000"
   _SVGFile__filename="scalable/actions/news_subscribe.svg"
   version="1.0"
   y="0"
   x="0"
   inkscape:version="0.39"
   id="svg1"
   sodipodi:docbase="/home/danny/work/flat/newscale"
   xmlns="http://www.w3.org/2000/svg"
   xmlns:cc="http://web.resource.org/cc/"
   xmlns:inkscape="http://www.inkscape.org/namespaces/inkscape"
   xmlns:sodipodi="http://sodipodi.sourceforge.net/DTD/sodipodi-0.dtd"
   xmlns:rdf="http://www.w3.org/1999/02/22-rdf-syntax-ns#"
   xmlns:dc="http://purl.org/dc/elements/1.1/"
   xmlns:xlink="http://www.w3.org/1999/xlink">
  <sodipodi:namedview
     bordercolor="#666666"
     inkscape:pageshadow="2"
     inkscape:window-y="0"
     snaptoguides="true"
     pagecolor="#ffffff"
     inkscape:window-height="699"
     inkscape:zoom="6.9465336"
     inkscape:window-x="0"
     borderopacity="1.0"
     inkscape:cx="39.521971"
     inkscape:cy="21.349154"
     inkscape:window-width="1024"
     inkscape:pageopacity="0.0"
     id="base"
     showguides="true" />
  <defs
     id="defs3" />
  <metadata
     id="metadata13">
    <rdf:RDF
       id="RDF14">
      <cc:Work
         rdf:about=""
         id="Work15">
        <dc:title
           id="title16">Part of the Flat Icon Collection (Thu Aug 26 14:38:01 2004)</dc:title>
        <dc:description
           id="description18" />
        <dc:subject
           id="subject19">
          <rdf:Bag
             id="Bag20">
            <rdf:li
               id="li21" />
          </rdf:Bag>
        </dc:subject>
        <dc:publisher
           id="publisher22">
          <cc:Agent
             rdf:about=""
             id="Agent23">
            <dc:title
               id="title24" />
          </cc:Agent>
        </dc:publisher>
        <dc:creator
           id="creator25">
          <cc:Agent
             rdf:about=""
             id="Agent26">
            <dc:title
               id="title27">Danny Allen</dc:title>
          </cc:Agent>
        </dc:creator>
        <dc:rights
           id="rights29">
          <cc:Agent
             rdf:about=""
             id="Agent30">
            <dc:title
               id="title31">Danny Allen</dc:title>
          </cc:Agent>
        </dc:rights>
        <dc:date
           id="date33" />
        <dc:format
           id="format34">image/svg+xml</dc:format>
        <dc:type
           rdf:resource="http://purl.org/dc/dcmitype/StillImage"
           id="type36" />
        <cc:license
           rdf:resource="http://creativecommons.org/licenses/LGPL/2.1/"
           id="license37">
          <dc:date
             id="date38" />
        </cc:license>
        <dc:language
           id="language39">en</dc:language>
      </cc:Work>
    </rdf:RDF>
  </metadata>
  <g
     id="g1618"
     transform="translate(0.179946,8.997348e-2)">
    <path
       style="fill:#b3b3b3;fill-opacity:1.0000000;fill-rule:evenodd;stroke:none;stroke-width:3.1250000;stroke-linecap:butt;stroke-linejoin:round;stroke-miterlimit:4.0000000;stroke-opacity:1.0000000;"
       d="M 3.0758786,3.0257484 L 3.0758786,57.232224 L 57.026040,57.232224 L 57.026040,3.0257484 L 3.0758786,3.0257484 z "
       id="rect939"
       sodipodi:nodetypes="ccccc" />
    <g
       id="g1608">
      <path
         style="fill:#b3b3b3;fill-opacity:1.0000000;fill-rule:evenodd;stroke:#4c4c4c;stroke-width:2.2335043;stroke-linecap:round;stroke-linejoin:round;stroke-miterlimit:4.0000000;stroke-opacity:1.0000000;"
         d="M 51.173272,13.068907 C 52.130095,19.493291 53.929631,45.282363 50.239027,45.282363 C 46.548423,45.282363 37.526946,46.512564 37.526946,46.512564 L 42.857819,13.707195 L 51.173272,13.068907 z "
         sodipodi:nodetypes="ccccc"
         sodipodi:stroke-cmyk="(0.0000000 0.0000000 0.0000000 0.69999999)"
         id="path836"
         transform="matrix(0.839488,0.000000,0.000000,0.839488,4.693570,-1.943534)" />
      <path
         style="fill:#cccccc;fill-opacity:1.0000000;fill-rule:evenodd;stroke:#4c4c4c;stroke-width:2.2335043;stroke-linecap:round;stroke-linejoin:round;stroke-miterlimit:4.0000000;stroke-opacity:1.0000000;"
         d="M 50.922472,12.750372 C 36.980191,28.332922 53.792942,49.793101 39.030526,48.699589 C 24.268110,47.606077 22.491152,52.526881 10.599206,47.606077 C 10.599206,27.512788 1.8511085,12.887061 15.930079,11.793549 C 30.009050,10.700036 50.922472,12.750372 50.922472,12.750372 z "
         sodipodi:nodetypes="ccccc"
         sodipodi:stroke-cmyk="(0.0000000 0.0000000 0.0000000 0.69999999)"
         id="path835"
         transform="matrix(0.839488,0.000000,0.000000,0.839488,4.693570,-1.943534)" />
      <path
         style="fill:none;fill-opacity:0.75000000;fill-rule:evenodd;stroke:#4c4c4c;stroke-width:3.7225070;stroke-linecap:round;stroke-linejoin:round;stroke-miterlimit:4.0000000;stroke-opacity:1.0000000;"
         d="M 14.302967,18.112493 L 40.643105,18.112493"
         sodipodi:nodetypes="cc"
         sodipodi:stroke-cmyk="(0.0000000 0.0000000 0.0000000 0.69999999)"
         id="path837"
         transform="matrix(0.839488,0.000000,0.000000,0.839488,4.693570,-1.943534)" />
      <path
         style="fill:none;fill-opacity:0.75000000;fill-rule:evenodd;stroke:#4c4c4c;stroke-width:2.2335043;stroke-linecap:round;stroke-linejoin:round;stroke-miterlimit:4.0000000;stroke-opacity:1.0000000;"
         d="M 13.267117,23.100413 L 40.643102,23.100413 M 14.835483,27.243804 L 40.199168,27.243804 M 14.983462,31.239219 L 25.618794,31.239219 M 14.154987,35.382612 L 25.597014,35.382612 M 14.154987,39.526005 L 25.744993,39.378026 M 14.450943,43.373440 L 25.597014,43.373440"
         sodipodi:nodetypes="cccccccccccc"
         sodipodi:stroke-cmyk="(0.0000000 0.0000000 0.0000000 0.69999999)"
         id="path838"
         transform="matrix(0.839488,0.000000,0.000000,0.839488,4.693570,-1.943534)" />
      <path
         id="path839"
         style="font-size:24.000000;fill:#4c4c4c;fill-opacity:1.0000000;stroke-width:1.0000000pt;font-family:VAG Rounded Black SSi;"
         d="M 34.469896,39.004876 L 34.469896,30.971639 C 34.469896,30.675607 34.566331,30.428914 34.759200,30.231559 C 34.952070,30.034204 35.201005,29.935527 35.506008,29.935527 C 35.811011,29.935527 36.057705,30.027476 36.246089,30.211375 C 36.438958,30.395274 36.535393,30.648695 36.535393,30.971639 L 36.535393,33.972329 L 39.926307,30.325751 C 40.164030,30.065602 40.430907,29.935527 40.726939,29.935527 C 41.000545,29.935527 41.238267,30.029719 41.440108,30.218103 C 41.646433,30.402002 41.749596,30.644210 41.749596,30.944727 C 41.749596,31.115170 41.695772,31.283370 41.588124,31.449328 C 41.480476,31.610800 41.307790,31.810397 41.070068,32.048120 L 38.466330,34.638402 L 41.648676,37.995676 C 41.832575,38.170604 41.973863,38.341046 42.072540,38.507004 C 42.175703,38.668476 42.227284,38.847890 42.227284,39.045244 C 42.227284,39.359218 42.124121,39.599183 41.917796,39.765141 C 41.711471,39.926613 41.455807,40.007349 41.150804,40.007349 C 40.971390,40.007349 40.807675,39.958010 40.659659,39.859332 C 40.516129,39.760655 40.332230,39.594698 40.107963,39.361460 L 36.535393,35.459218 L 36.535393,39.004876 C 36.535393,39.287452 36.438958,39.525175 36.246089,39.718045 C 36.053219,39.910914 35.806526,40.007349 35.506008,40.007349 C 35.205491,40.007349 34.956555,39.915399 34.759200,39.731500 C 34.566331,39.547602 34.469896,39.305394 34.469896,39.004876 z "
         transform="matrix(0.839488,0.000000,0.000000,0.839488,4.693570,-1.943534)" />
      <path
         style="font-size:12.000000;fill:#4c4c4c;fill-opacity:1.0000000;fill-rule:evenodd;stroke:#4c4c4c;stroke-width:0.10825539;stroke-linecap:round;stroke-linejoin:round;stroke-opacity:1.0000000;"
         d="M 29.407797,42.918464 L 30.731263,44.304949 L 32.874006,42.855435 L 34.575603,43.611712 L 35.142800,46.095679 L 36.970434,46.078893 L 37.474613,43.530217 L 39.176207,42.855435 L 41.318952,44.241932 L 42.327306,42.855435 L 39.895552,40.560545 C 33.662739,46.277285 28.276629,37.466387 33.630273,33.780270 L 33.630266,32.456804 L 33.000051,32.771913 L 31.046368,31.529925 L 29.696797,32.638214 L 30.920325,34.725592 L 30.227084,36.427187 L 27.839612,36.823784 L 27.832245,38.632959 L 30.290109,39.263180 L 30.967594,40.917516 L 29.407797,42.918464 z "
         sodipodi:nodetypes="ccccccccccccccccccccccc"
         sodipodi:stroke-cmyk="(0.0000000 0.0000000 0.0000000 0.69999999)"
         id="path705"
         transform="matrix(0.839488,0.000000,0.000000,0.839488,4.693570,-1.943534)" />
      <path
         style="fill:none;fill-opacity:0.75000000;fill-rule:evenodd;stroke:#4c4c4c;stroke-width:1.4890028;stroke-linecap:round;stroke-linejoin:round;stroke-miterlimit:4.0000000;stroke-opacity:1.0000000;"
         d="M 48.054649,18.137572 C 46.380465,30.693947 48.996376,44.505960 48.996376,44.505960"
         sodipodi:stroke-cmyk="(0.0000000 0.0000000 0.0000000 0.69999999)"
         id="path850"
         transform="matrix(0.839488,0.000000,0.000000,0.839488,4.693570,-1.943534)" />
      <path
         style="fill:none;fill-opacity:0.75000000;fill-rule:evenodd;stroke:#4c4c4c;stroke-width:1.4890028;stroke-linecap:round;stroke-linejoin:round;stroke-miterlimit:4.0000000;stroke-opacity:1.0000000;"
         d="M 50.042741,13.891166 C 48.787103,28.330998 50.879833,43.041050 50.879833,43.041050"
         sodipodi:nodetypes="cc"
         sodipodi:stroke-cmyk="(0.0000000 0.0000000 0.0000000 0.69999999)"
         id="path851"
         transform="matrix(0.839488,0.000000,0.000000,0.839488,4.693570,-1.943534)" />
    </g>
    <path
       style="fill:none;fill-opacity:1.0000000;fill-rule:evenodd;stroke:#333333;stroke-width:3.1250000;stroke-linecap:round;stroke-linejoin:round;stroke-miterlimit:4.0000000;stroke-opacity:1.0000000;"
       d="M 3.0758786,3.0257484 L 3.0758786,57.232224"
       id="path1595"
       sodipodi:nodetypes="cc"
       sodipodi:stroke-cmyk="(0.0000000 0.0000000 0.0000000 0.80000001)" />
    <path
       style="fill:none;fill-opacity:1.0000000;fill-rule:evenodd;stroke:#4c4c4c;stroke-width:3.1250000;stroke-linecap:round;stroke-linejoin:round;stroke-miterlimit:4.0000000;stroke-dasharray:3.1250000 3.1250000 ;stroke-dashoffset:0.0000000;stroke-opacity:1.0000000;"
       d="M 57.026040,57.232224 L 57.026040,3.0257484"
       id="path1596"
       sodipodi:nodetypes="cc"
       sodipodi:stroke-cmyk="(0.0000000 0.0000000 0.0000000 0.70196080)" />
    <path
       transform="scale(1.632125,1.632125)"
       style="font-size:12.000000;font-style:normal;font-variant:normal;font-weight:bold;font-stretch:normal;fill:#4c4c4c;fill-opacity:1.0000000;stroke:none;stroke-width:1.0000000pt;stroke-linecap:butt;stroke-linejoin:miter;stroke-opacity:1.0000000;font-family:VAG Rounded Black SSi;text-anchor:start;writing-mode:lr;"
       d="M 27.037168,32.376389 C 27.037167,32.110765 27.111386,31.892015 27.259824,31.720139 C 27.412167,31.548265 27.595761,31.462328 27.810605,31.462326 C 27.939510,31.462328 28.062557,31.485766 28.179746,31.532639 C 28.296932,31.575609 28.453182,31.645922 28.648496,31.743576 C 28.847713,31.837328 29.011775,31.905687 29.140683,31.948654 C 29.269587,31.991624 29.425837,32.013109 29.609433,32.013107 C 29.789118,32.013109 29.921930,31.977953 30.007871,31.907639 C 30.093805,31.833421 30.136774,31.741625 30.136777,31.632248 C 30.136774,31.534594 30.109430,31.454516 30.054746,31.392014 C 30.000055,31.329516 29.927790,31.278735 29.837949,31.239670 C 29.748102,31.196703 29.621149,31.143969 29.457089,31.081467 C 29.293025,31.018969 29.035212,30.917407 28.683652,30.776779 C 28.316463,30.620532 28.033260,30.474048 27.834043,30.337326 C 27.634823,30.196704 27.480526,30.018970 27.371152,29.804123 C 27.261777,29.585377 27.207089,29.313893 27.207089,28.989670 C 27.207089,28.622487 27.304745,28.274831 27.500058,27.946701 C 27.699276,27.618582 27.982479,27.354910 28.349668,27.155685 C 28.720760,26.952567 29.144587,26.851005 29.621152,26.850998 C 29.824274,26.851005 30.050836,26.876395 30.300839,26.927170 C 30.550836,26.974051 30.787164,27.054129 31.009824,27.167404 C 31.236382,27.276785 31.419976,27.417410 31.560605,27.589279 C 31.705132,27.761160 31.777397,27.964285 31.777402,28.198654 C 31.777397,28.351003 31.742241,28.489675 31.671933,28.614670 C 31.605522,28.735768 31.511772,28.829518 31.390683,28.895920 C 31.273491,28.958424 31.142632,28.989674 30.998105,28.989670 C 30.919976,28.989674 30.834039,28.972096 30.740293,28.936935 C 30.650445,28.901784 30.521539,28.845143 30.353574,28.767014 C 30.189508,28.688893 30.039118,28.628347 29.902402,28.585373 C 29.765680,28.542409 29.630915,28.520925 29.498105,28.520920 C 29.361384,28.520925 29.244196,28.554128 29.146543,28.620529 C 29.052790,28.686940 29.005915,28.786550 29.005918,28.919357 C 29.005915,29.071705 29.158259,29.212330 29.462949,29.341232 C 29.767633,29.466236 30.121149,29.610767 30.523496,29.774826 C 30.929742,29.938892 31.265679,30.159595 31.531308,30.436935 C 31.800835,30.714282 31.935600,31.087328 31.935605,31.556076 C 31.935600,31.985765 31.828178,32.362718 31.613339,32.686935 C 31.398491,33.007248 31.105523,33.253342 30.734433,33.425217 C 30.367242,33.597092 29.966852,33.683029 29.533261,33.683029 C 28.896541,33.683029 28.320369,33.563888 27.804746,33.325607 C 27.293027,33.083420 27.037167,32.767014 27.037168,32.376389 M 19.349668,32.628342 L 18.043027,28.931076 C 17.929746,28.618581 17.855527,28.399831 17.820371,28.274826 C 17.785214,28.149831 17.763730,28.017019 17.755918,27.876389 C 17.755918,27.618582 17.837949,27.403738 18.002011,27.231857 C 18.166073,27.059989 18.400448,26.974051 18.705136,26.974045 C 18.927791,26.974051 19.115291,27.032645 19.267636,27.149826 C 19.423885,27.263114 19.531306,27.425223 19.589902,27.636154 L 20.503964,30.706467 L 20.527402,30.706467 L 21.365293,28.052170 C 21.482476,27.692801 21.605523,27.423270 21.734433,27.243576 C 21.863335,27.063895 22.076226,26.974051 22.373105,26.974045 C 22.673881,26.974051 22.890678,27.067801 23.023496,27.255295 C 23.156303,27.438895 23.275443,27.704519 23.380918,28.052170 L 24.224668,30.706467 L 24.248105,30.706467 L 25.156308,27.636154 C 25.285207,27.194754 25.582082,26.974051 26.046933,26.974045 C 26.351612,26.974051 26.585987,27.059989 26.750058,27.231857 C 26.914112,27.403738 26.996143,27.618582 26.996152,27.876389 C 26.988330,28.017019 26.962940,28.161550 26.919980,28.309982 C 26.877002,28.454519 26.806690,28.661550 26.709043,28.931076 L 25.396543,32.628342 C 25.287160,32.948655 25.142629,33.184983 24.962949,33.337326 C 24.787161,33.485764 24.544973,33.559982 24.236386,33.559982 C 24.025443,33.559982 23.847708,33.522873 23.703183,33.448654 C 23.562552,33.374436 23.447318,33.265061 23.357480,33.120529 C 23.271537,32.972092 23.191459,32.786546 23.117246,32.563889 L 22.384824,30.331467 L 22.361386,30.331467 L 21.628964,32.563889 C 21.511773,32.919358 21.373101,33.175217 21.212949,33.331467 C 21.056696,33.483810 20.824274,33.559982 20.515683,33.559982 C 20.203181,33.559982 19.959040,33.487717 19.783261,33.343185 C 19.611385,33.194748 19.466853,32.956467 19.349668,32.628342 M 16.712949,30.888107 L 13.332089,30.888107 C 13.332087,31.142016 13.449275,31.382250 13.683652,31.608810 C 13.918024,31.831468 14.300836,31.942796 14.832089,31.942795 C 15.105523,31.942796 15.332085,31.907640 15.511777,31.837326 C 15.691460,31.767015 15.912163,31.667406 16.173886,31.538498 C 16.439506,31.405688 16.630912,31.339281 16.748105,31.339279 C 16.966849,31.339281 17.152396,31.415453 17.304746,31.567795 C 17.457083,31.720140 17.533255,31.917406 17.533261,32.159592 C 17.533255,32.448655 17.388724,32.712327 17.099668,32.950607 C 16.814506,33.184983 16.445365,33.364670 15.992246,33.489670 C 15.539116,33.618576 15.072320,33.683029 14.591855,33.683029 C 14.095758,33.683029 13.646540,33.597092 13.244199,33.425217 C 12.845760,33.253342 12.500057,33.011155 12.207089,32.698654 C 11.918026,32.382249 11.697323,32.015062 11.544980,31.597092 C 11.392636,31.175219 11.316464,30.729907 11.316464,30.261154 C 11.316464,29.819752 11.396542,29.390065 11.556699,28.972092 C 11.716854,28.554128 11.943417,28.186941 12.236386,27.870529 C 12.529354,27.554129 12.878963,27.306082 13.285214,27.126389 C 13.691462,26.942801 14.127008,26.851005 14.591855,26.850998 C 15.189507,26.851005 15.718804,27.001395 16.179746,27.302170 C 16.640678,27.602957 16.996146,27.997488 17.246152,28.485764 C 17.500052,28.974049 17.627005,29.497486 17.627011,30.056076 C 17.627005,30.376392 17.554739,30.595141 17.410214,30.712326 C 17.265677,30.829516 17.033255,30.888110 16.712949,30.888107 M 13.332089,29.587326 L 15.752011,29.587326 C 15.752007,29.438893 15.699272,29.274830 15.593808,29.095139 C 15.488335,28.911549 15.343804,28.759206 15.160214,28.638107 C 14.980523,28.513112 14.775445,28.450612 14.544980,28.450607 C 14.314508,28.450612 14.105524,28.513112 13.918027,28.638107 C 13.734431,28.763112 13.589899,28.915456 13.484433,29.095139 C 13.382868,29.270924 13.332087,29.434986 13.332089,29.587326 M 4.8887300,32.575607 L 4.8887300,27.946701 C 4.8887296,27.669363 4.9746670,27.438895 5.1465425,27.255295 C 5.3223229,27.067801 5.5469321,26.974051 5.8203707,26.974045 C 6.0469316,26.974051 6.2422439,27.034598 6.4063082,27.155685 C 6.5742748,27.272879 6.6914622,27.411551 6.7578707,27.571701 C 7.0625556,27.091239 7.5996644,26.851005 8.3691988,26.850998 C 8.8106007,26.851005 9.2070847,26.931083 9.5586519,27.091232 C 9.9141152,27.251395 10.191459,27.497488 10.390683,27.829514 C 10.593802,28.157644 10.695364,28.571706 10.695371,29.071701 L 10.695371,32.575607 C 10.695364,32.856858 10.607474,33.091233 10.431699,33.278732 C 10.255912,33.466232 10.031303,33.559982 9.7578707,33.559982 C 9.4844281,33.559982 9.2598190,33.464279 9.0840425,33.272873 C 8.9082568,33.081467 8.8203663,32.849045 8.8203707,32.575607 L 8.8203707,29.587326 C 8.8203663,29.247487 8.7285695,28.974049 8.5449800,28.767014 C 8.3652886,28.556081 8.1133358,28.450612 7.7891207,28.450607 C 7.4688052,28.450612 7.2168523,28.556081 7.0332613,28.767014 C 6.8496652,28.977956 6.7578684,29.251393 6.7578707,29.587326 L 6.7578707,32.575607 C 6.7578684,32.852952 6.6699778,33.087326 6.4941988,33.278732 C 6.3223219,33.466232 6.0977128,33.559982 5.8203707,33.559982 C 5.5469321,33.559982 5.3223229,33.466232 5.1465425,33.278732 C 4.9746670,33.087326 4.8887296,32.852952 4.8887300,32.575607"
       id="text1597" />
  </g>
</svg>
