<?xml version="1.0" encoding="UTF-8" standalone="no"?>
<!DOCTYPE svg PUBLIC "-//W3C//DTD SVG 20010904//EN"
"http://www.w3.org/TR/2001/REC-SVG-20010904/DTD/svg10.dtd">
<svg
   sodipodi:docname="kaboodle.svg"
   height="60.0000000"
   sodipodi:version="0.32"
   width="60.0000000"
   _SVGFile__filename="scalable/apps/kaboodle.svg"
   version="1.0"
   y="0"
   x="0"
   inkscape:version="0.39"
   id="svg1"
   sodipodi:docbase="/home/danny/work/flat/newscale/apps"
   xmlns="http://www.w3.org/2000/svg"
   xmlns:cc="http://web.resource.org/cc/"
   xmlns:inkscape="http://www.inkscape.org/namespaces/inkscape"
   xmlns:sodipodi="http://sodipodi.sourceforge.net/DTD/sodipodi-0.dtd"
   xmlns:rdf="http://www.w3.org/1999/02/22-rdf-syntax-ns#"
   xmlns:dc="http://purl.org/dc/elements/1.1/"
   xmlns:xlink="http://www.w3.org/1999/xlink">
  <sodipodi:namedview
     bordercolor="#666666"
     inkscape:pageshadow="2"
     inkscape:window-y="0"
     pagecolor="#ffffff"
     inkscape:window-height="699"
     inkscape:zoom="8.5398241"
     inkscape:window-x="0"
     borderopacity="1.0"
     inkscape:cx="26.428117"
     inkscape:cy="33.531762"
     inkscape:window-width="1024"
     inkscape:pageopacity="0.0"
     id="base" />
  <defs
     id="defs3" />
  <g
     id="g1572"
     transform="translate(0.183100,-0.404465)">
    <path
       sodipodi:nodetypes="ccc"
       style="fill:none;fill-opacity:0.75000000;fill-rule:evenodd;stroke:#4c4c4c;stroke-width:3.1250000;stroke-linecap:round;stroke-linejoin:round;stroke-dasharray:3.1250000 3.1250000 ;stroke-dashoffset:0.0000000;"
       d="M 32.339181,39.942853 C 32.876485,25.077451 49.711999,17.555202 50.965708,15.226885 C 57.413351,9.1374440 24.495825,8.2419378 24.495825,8.2419378"
       sodipodi:stroke-cmyk="(0.0000000 0.0000000 0.0000000 0.69999999)"
       id="path859" />
    <path
       style="fill:#cccccc;fill-opacity:1.0000000;fill-rule:evenodd;stroke:#333333;stroke-width:2.5000000;stroke-linejoin:round;"
       d="M 4.1874262,3.2876811 C 3.6438596,3.2876811 3.2062590,3.7252817 3.2062590,4.2688483 L 3.2062590,35.499221 C 3.2062590,36.042788 3.6438596,36.480388 4.1874262,36.480388 L 27.119623,36.480388 C 27.663190,36.480388 28.100790,36.042788 28.100790,35.499221 L 28.100790,4.2688483 C 28.100790,3.7252817 27.663190,3.2876811 27.119623,3.2876811 L 4.1874262,3.2876811 z "
       id="rect860" />
    <path
       transform="matrix(0.646524,0.000000,0.000000,0.646524,1.867315,3.596006)"
       style="fill:#7f7f7f;fill-opacity:1.0000000;fill-rule:evenodd;stroke:#333333;stroke-width:2.9001243;stroke-linejoin:round;stroke-opacity:1.0000000;"
       d="M 29.151230,37.776688 C 29.151230,42.097548 25.644445,45.604332 21.323586,45.604332 C 17.002726,45.604332 13.495941,42.097548 13.495941,37.776688 C 13.495941,33.455828 17.002726,29.949043 21.323586,29.949043 C 25.644445,29.949043 29.151230,33.455828 29.151230,37.776688 z "
       id="path863" />
    <g
       id="g1565"
       transform="translate(-6.005049e-3,0.000000)">
      <path
         style="fill:#b3b3b3;fill-opacity:1.0000000;fill-rule:evenodd;stroke:none;stroke-width:1.5698241;"
         d="M 7.0550428,6.4001637 C 6.6471350,6.4001637 6.3187470,6.7285516 6.3187470,7.1364594 L 6.3187470,19.373728 C 6.3187470,19.781636 6.6471350,20.110023 7.0550428,20.110023 L 24.264018,20.110023 C 24.671925,20.110023 25.000313,19.781636 25.000313,19.373728 L 25.000313,7.1364594 C 25.000313,6.7285516 24.671925,6.4001637 24.264018,6.4001637 L 7.0550428,6.4001637 z "
         id="rect861" />
      <rect
         style="fill:#4c4c4c;fill-opacity:1.0000000;fill-rule:evenodd;stroke:none;stroke-width:1.8750000;stroke-opacity:1.0000000;"
         rx="0.69948095"
         height="4.0075116"
         width="17.747488"
         y="10.103236"
         x="6.7857862"
         id="rect862"
         ry="0.69948095" />
      <rect
         style="fill:none;fill-opacity:0.75000000;fill-rule:evenodd;stroke:#333333;stroke-width:1.8750000;stroke-linejoin:round;"
         rx="0.69948095"
         height="13.024367"
         width="17.747488"
         sodipodi:stroke-cmyk="(0.0000000 0.0000000 0.0000000 0.80000001)"
         y="6.7429104"
         x="6.7857857"
         id="rect864"
         ry="0.69948095" />
    </g>
    <path
       transform="matrix(1.230092,0.000000,0.000000,1.230092,9.946922,-15.08335)"
       style="fill:#4c4c4c;fill-opacity:1.0000000;fill-rule:evenodd;stroke:none;stroke-width:1.6189214;stroke-opacity:1.0000000;"
       d="M 24.175778,49.184521 C 24.175778,51.151157 22.579667,52.747267 20.613031,52.747267 C 18.646395,52.747267 17.050285,51.151157 17.050285,49.184521 C 17.050285,47.217885 18.646395,45.621774 20.613031,45.621774 C 22.579667,45.621774 24.175778,47.217885 24.175778,49.184521 z "
       id="path865" />
    <path
       sodipodi:nodetypes="ccccccccccccccccccccccc"
       style="font-size:12.000000;fill:#333333;fill-rule:evenodd;stroke:#333333;stroke-width:0.097815745;stroke-linecap:round;stroke-linejoin:round;"
       d="M 29.598096,49.887035 L 30.793933,51.139814 L 32.730040,49.830084 L 34.267541,50.513430 L 34.780041,52.757854 L 36.431427,52.742687 L 36.886985,50.439793 L 38.424486,49.830084 L 40.360593,51.082872 L 41.271707,49.830084 L 39.074460,47.756502 C 33.442711,52.921947 28.576013,44.960730 33.413375,41.630084 L 33.413370,40.434248 L 32.843929,40.718969 L 31.078650,39.596754 L 29.859226,40.598164 L 30.964762,42.484246 L 30.338374,44.021745 L 28.181139,44.380096 L 28.174483,46.014804 L 30.395322,46.584248 L 31.007474,48.079050 L 29.598096,49.887035 z "
       sodipodi:stroke-cmyk="(0 0 0 0.8)"
       id="path866" />
    <path
       transform="matrix(1.230092,0.000000,0.000000,1.230092,26.97978,-8.975007)"
       style="fill:#4c4c4c;fill-opacity:1.0000000;fill-rule:evenodd;stroke:none;stroke-width:1.6189214;stroke-opacity:1.0000000;"
       d="M 24.175778,49.184521 C 24.175778,51.151157 22.579667,52.747267 20.613031,52.747267 C 18.646395,52.747267 17.050285,51.151157 17.050285,49.184521 C 17.050285,47.217885 18.646395,45.621774 20.613031,45.621774 C 22.579667,45.621774 24.175778,47.217885 24.175778,49.184521 z "
       id="path867" />
    <path
       sodipodi:nodetypes="ccccccccccccccccccccccc"
       style="font-size:12.000000;fill:#333333;fill-rule:evenodd;stroke:#333333;stroke-width:0.097815707;stroke-linecap:round;stroke-linejoin:round;"
       d="M 46.383337,56.035352 L 47.579175,57.288131 L 49.515279,55.978400 L 51.052781,56.661746 L 51.565281,58.906169 L 53.216665,58.891002 L 53.672224,56.588109 L 55.209724,55.978400 L 57.145830,57.231189 L 58.056943,55.978400 L 55.859698,53.904820 C 50.227951,59.070264 45.361252,51.109050 50.198614,47.778406 L 50.198609,46.582568 L 49.629170,46.867290 L 47.863891,45.745075 L 46.644468,46.746486 L 47.750002,48.632566 L 47.123615,50.170065 L 44.966382,50.528417 L 44.959723,52.163123 L 47.180561,52.732567 L 47.792713,54.227367 L 46.383337,56.035352 z "
       sodipodi:stroke-cmyk="(0 0 0 0.8)"
       id="path868" />
    <path
       sodipodi:nodetypes="ccc"
       style="fill:none;fill-opacity:0.75000000;fill-rule:evenodd;stroke:#333333;stroke-width:3.1250000;stroke-linecap:square;stroke-linejoin:round;"
       d="M 32.351415,39.625897 C 32.482230,38.841006 36.192074,29.933952 47.703822,32.811888 C 61.805211,36.255818 55.019322,43.272568 49.984261,46.238621"
       sodipodi:stroke-cmyk="(0.0000000 0.0000000 0.0000000 0.80000001)"
       id="path869" />
  </g>
  <metadata
     id="metadata15">
    <rdf:RDF
       id="RDF16">
      <cc:Work
         rdf:about=""
         id="Work17">
        <dc:title
           id="title18">Part of the Flat Icon Collection (Thu Aug 26 14:31:40 2004)</dc:title>
        <dc:description
           id="description20" />
        <dc:subject
           id="subject21">
          <rdf:Bag
             id="Bag22">
            <rdf:li
               id="li23" />
          </rdf:Bag>
        </dc:subject>
        <dc:publisher
           id="publisher24">
          <cc:Agent
             rdf:about=""
             id="Agent25">
            <dc:title
               id="title26" />
          </cc:Agent>
        </dc:publisher>
        <dc:creator
           id="creator27">
          <cc:Agent
             rdf:about=""
             id="Agent28">
            <dc:title
               id="title29">Danny Allen</dc:title>
          </cc:Agent>
        </dc:creator>
        <dc:rights
           id="rights31">
          <cc:Agent
             rdf:about=""
             id="Agent32">
            <dc:title
               id="title33">Danny Allen</dc:title>
          </cc:Agent>
        </dc:rights>
        <dc:date
           id="date35" />
        <dc:format
           id="format36">image/svg+xml</dc:format>
        <dc:type
           rdf:resource="http://purl.org/dc/dcmitype/StillImage"
           id="type38" />
        <cc:license
           rdf:resource="http://creativecommons.org/licenses/LGPL/2.1/"
           id="license39">
          <dc:date
             id="date40" />
        </cc:license>
        <dc:language
           id="language41">en</dc:language>
      </cc:Work>
    </rdf:RDF>
  </metadata>
</svg>
