<?xml version="1.0" encoding="UTF-8" standalone="no"?>
<!DOCTYPE svg PUBLIC "-//W3C//DTD SVG 20010904//EN"
"http://www.w3.org/TR/2001/REC-SVG-20010904/DTD/svg10.dtd">
<svg
   sodipodi:docname="konsolekalendar.svg"
   sodipodi:version="0.32"
   height="60.0000000"
   width="60.0000000"
   _SVGFile__filename="scalable/apps/konsolekalendar.svg"
   version="1.0"
   y="0"
   x="0"
   inkscape:version="0.39"
   id="svg1"
   sodipodi:docbase="/home/danny/work/flat/newscale/apps"
   xmlns="http://www.w3.org/2000/svg"
   xmlns:cc="http://web.resource.org/cc/"
   xmlns:inkscape="http://www.inkscape.org/namespaces/inkscape"
   xmlns:sodipodi="http://sodipodi.sourceforge.net/DTD/sodipodi-0.dtd"
   xmlns:rdf="http://www.w3.org/1999/02/22-rdf-syntax-ns#"
   xmlns:dc="http://purl.org/dc/elements/1.1/"
   xmlns:xlink="http://www.w3.org/1999/xlink">
  <sodipodi:namedview
     bordercolor="#666666"
     inkscape:pageshadow="2"
     inkscape:window-y="0"
     snaptoguides="true"
     pagecolor="#ffffff"
     inkscape:window-height="699"
     inkscape:zoom="9.8238822"
     inkscape:window-x="0"
     borderopacity="1.0"
     inkscape:cx="34.246085"
     inkscape:cy="17.481799"
     inkscape:window-width="1024"
     inkscape:pageopacity="0.0"
     id="base"
     showguides="true" />
  <defs
     id="defs3" />
  <path
     style="font-size:12.000000;fill:#cccccc;fill-opacity:1.0000000;fill-rule:evenodd;stroke:#4c4c4c;stroke-width:3.1250000;stroke-linecap:round;stroke-linejoin:round;stroke-opacity:1.0000000;"
     d="M 3.2158510,57.455181 L 57.003940,57.455181 C 57.003940,57.455181 50.200200,38.463717 33.896890,39.275317 C 31.842920,39.275317 29.917340,39.112996 27.093140,39.275317 C 12.715418,38.301396 4.1167220,53.397175 3.2181150,57.455180"
     sodipodi:nodetypes="ccccc"
     id="path928"
     sodipodi:fill-cmyk="(0.0000000 0.0000000 0.0000000 0.19999999)"
     sodipodi:stroke-cmyk="(0.0000000 0.0000000 0.0000000 0.70196080)" />
  <path
     style="font-size:12.000000;fill:#7f7f7f;fill-opacity:1.0000000;fill-rule:evenodd;stroke:#4c4c4c;stroke-width:3.1250000;stroke-linecap:round;stroke-linejoin:round;stroke-opacity:1.0000000;"
     d="M 5.4529200,2.8688183 C 4.3449190,2.8688183 3.4529200,3.7608183 3.4529200,4.8688183 L 3.4529200,38.150412 C 3.4529200,39.258412 4.3449190,40.150412 5.4529200,40.150412 L 54.766870,40.150412 C 55.874870,40.150412 56.766870,39.258412 56.766870,38.150412 L 56.766870,4.8688183 C 56.766870,3.7608183 55.874870,2.8688183 54.766870,2.8688183 L 5.4529200,2.8688183 z "
     id="path929"
     sodipodi:stroke-cmyk="(0.0000000 0.0000000 0.0000000 0.70196080)" />
  <path
     style="font-size:12.000000;fill:#000000;fill-opacity:1.0000000;fill-rule:evenodd;stroke:#4c4c4c;stroke-width:1.8750024;stroke-linecap:round;stroke-linejoin:round;stroke-opacity:1.0000000;"
     d="M 8.5553610,6.4368750 L 8.5553610,36.582356 L 51.664430,36.582356 L 51.664430,6.4368750 L 8.5553610,6.4368750 z "
     id="path930"
     sodipodi:stroke-cmyk="(0.0000000 0.0000000 0.0000000 0.70196080)" />
  <rect
     style="font-size:12.000000;fill:#7f7f7f;fill-opacity:1.0000000;fill-rule:evenodd;stroke:none;stroke-width:3.1250000;"
     rx="1.3921120"
     height="27.967798"
     width="28.933304"
     y="18.712645"
     x="19.204002"
     id="rect803"
     ry="1.3921120"
     transform="translate(0.196813,0.000000)" />
  <rect
     style="font-size:12.000000;fill:#b3b3b3;fill-opacity:1.0000000;fill-rule:evenodd;stroke:none;stroke-width:3.1250000;"
     rx="1.3921120"
     height="27.967798"
     width="28.933304"
     y="20.417557"
     x="17.793964"
     id="rect802"
     ry="1.3921120"
     transform="translate(0.196813,0.000000)" />
  <path
     transform="matrix(0.696056,0.000000,0.000000,0.696056,20.90384,26.61186)"
     style="font-size:12.000000;fill:#b3b3b3;fill-rule:evenodd;stroke:#333333;stroke-width:2.6937487;stroke-linejoin:round;"
     d="M -5.5577245,-5.1028824 C -6.6657245,-5.1028824 -7.5577245,-4.2108824 -7.5577245,-3.1028824 L -7.5577245,33.077503 C -7.5577245,34.185503 -6.6657245,35.077503 -5.5577245,35.077503 L 32.009769,35.077503 C 33.117769,35.077503 34.009769,34.185503 34.009769,33.077503 L 34.009769,-3.1028824 C 34.009769,-4.2108824 33.117769,-5.1028824 32.009769,-5.1028824 L -5.5577245,-5.1028824 z "
     id="rect788" />
  <path
     style="font-size:12.000000;fill:#4c4c4c;fill-opacity:1.0000000;fill-rule:evenodd;stroke:#333333;stroke-width:1.8750000;stroke-linecap:round;stroke-linejoin:round;"
     d="M 13.163067,18.587387 C 12.381050,18.587387 11.751485,19.216953 11.751485,19.998969 L 11.751485,22.812163 C 11.751485,23.594179 12.381050,24.223745 13.163067,24.223745 L 46.663099,24.223745 C 47.445116,24.223745 48.074681,23.594179 48.074681,22.812163 L 48.074681,19.998969 C 48.074681,19.216953 47.445116,18.587387 46.663099,18.587387 L 13.163067,18.587387 z "
     id="rect804"
     transform="translate(0.196813,0.000000)" />
  <path
     style="font-size:12.000000;fill:#333333;stroke-width:1.0000000pt;font-family:VAG Rounded Black SSi;"
     d="M 34.588985,28.639955 C 35.507003,28.639955 36.349185,28.803602 37.115530,29.130894 C 37.889858,29.458188 38.540453,29.897240 39.067315,30.448051 C 39.594179,30.990878 40.005291,31.637483 40.300654,32.387863 C 40.596014,33.130260 40.743697,33.924544 40.743697,34.770717 C 40.743697,35.920234 40.412410,37.221426 39.749843,38.674288 C 39.095255,40.127152 38.285005,41.516152 37.319090,42.841291 C 36.353176,44.158447 35.419192,45.244103 34.517140,46.098259 C 34.341520,46.265896 34.078089,46.461474 33.726847,46.684991 C 33.551227,46.804733 33.307751,46.864603 32.996424,46.864603 C 32.637200,46.864603 32.254026,46.673017 31.846906,46.289844 C 31.447768,45.898689 31.248199,45.483585 31.248199,45.044534 C 31.248199,44.892862 31.288112,44.745180 31.367941,44.601490 C 31.447768,44.449818 31.579484,44.262223 31.763087,44.038705 C 31.986604,43.759309 32.377759,43.308283 32.936553,42.685627 C 33.503330,42.054989 33.950364,41.552075 34.277658,41.176886 C 34.604952,40.801695 34.896321,40.430496 35.151771,40.063289 L 35.103873,40.015393 C 34.672804,40.214961 34.157917,40.314747 33.559209,40.314747 C 32.609260,40.314747 31.743131,40.063289 30.960820,39.560375 C 30.178509,39.049478 29.559844,38.366953 29.104826,37.512796 C 28.657792,36.650657 28.434275,35.736632 28.434275,34.770717 C 28.434275,33.956475 28.581955,33.186139 28.877318,32.459706 C 29.172681,31.725293 29.599759,31.070706 30.158552,30.495947 C 30.725328,29.913205 31.383905,29.458188 32.134286,29.130894 C 32.892648,28.803602 33.710882,28.639955 34.588985,28.639955 z M 34.588985,37.345158 C 35.275503,37.345158 35.834297,37.101684 36.265365,36.614736 C 36.696435,36.127787 36.911969,35.513115 36.911969,34.770717 C 36.911969,34.060251 36.700426,33.453560 36.277340,32.950647 C 35.862237,32.447734 35.299451,32.196275 34.588985,32.196275 C 33.902467,32.196275 33.339683,32.447734 32.900632,32.950647 C 32.469561,33.445578 32.254026,34.052269 32.254026,34.770717 C 32.254026,35.473201 32.457587,36.079890 32.864708,36.590788 C 33.279812,37.093701 33.854571,37.345158 34.588985,37.345158 z M 22.195745,44.769129 L 22.195745,32.339966 L 20.746873,32.339966 C 20.196062,32.339966 19.780959,32.176319 19.501563,31.849027 C 19.222166,31.521733 19.082467,31.122594 19.082467,30.651611 C 19.082467,30.188611 19.230148,29.785481 19.525510,29.442222 C 19.828857,29.098965 20.235976,28.927334 20.746873,28.927334 L 24.231350,28.927334 C 24.574608,28.927334 24.869971,29.007162 25.117437,29.166817 C 25.364902,29.318490 25.552497,29.526041 25.680221,29.789473 C 25.807945,30.044920 25.871808,30.348267 25.871808,30.699508 L 25.871808,44.769129 C 25.871808,45.391784 25.704170,45.870749 25.368894,46.206026 C 25.033618,46.541302 24.590574,46.708939 24.039764,46.708939 C 23.496935,46.708939 23.053892,46.537310 22.710634,46.194051 C 22.367375,45.850792 22.195745,45.375818 22.195745,44.769129 z "
     id="path834"
     transform="translate(0.196813,0.000000)" />
  <metadata
     id="metadata12">
    <rdf:RDF
       id="RDF13">
      <cc:Work
         rdf:about=""
         id="Work14">
        <dc:format
           id="format15">image/svg+xml</dc:format>
        <dc:type
           id="type17"
           rdf:resource="http://purl.org/dc/dcmitype/StillImage" />
      </cc:Work>
    </rdf:RDF>
  </metadata>
</svg>
