<?xml version="1.0" encoding="UTF-8" standalone="no"?>
<!DOCTYPE svg PUBLIC "-//W3C//DTD SVG 20010904//EN"
"http://www.w3.org/TR/2001/REC-SVG-20010904/DTD/svg10.dtd">
<svg
   sodipodi:docname="ksirtet.svg"
   sodipodi:version="0.32"
   height="60.0000000"
   width="60.0000000"
   _SVGFile__filename="scalable/apps/ksirtet.svg"
   version="1.0"
   y="0"
   x="0"
   inkscape:version="0.39"
   id="svg1"
   sodipodi:docbase="/home/danny/work/flat/newscale/apps"
   xmlns="http://www.w3.org/2000/svg"
   xmlns:cc="http://web.resource.org/cc/"
   xmlns:inkscape="http://www.inkscape.org/namespaces/inkscape"
   xmlns:sodipodi="http://sodipodi.sourceforge.net/DTD/sodipodi-0.dtd"
   xmlns:rdf="http://www.w3.org/1999/02/22-rdf-syntax-ns#"
   xmlns:dc="http://purl.org/dc/elements/1.1/"
   xmlns:xlink="http://www.w3.org/1999/xlink">
  <sodipodi:namedview
     bordercolor="#666666"
     inkscape:pageshadow="2"
     inkscape:window-y="0"
     snaptoguides="true"
     pagecolor="#ffffff"
     inkscape:window-height="699"
     inkscape:zoom="6.9465337"
     inkscape:window-x="0"
     borderopacity="1.0"
     inkscape:cx="39.698979"
     inkscape:cy="19.346807"
     inkscape:window-width="1024"
     inkscape:pageopacity="0.0"
     id="base"
     showguides="true" />
  <defs
     id="defs3" />
  <rect
     style="fill:#b3b3b3;fill-opacity:1.0000000;fill-rule:evenodd;stroke:none;stroke-width:3.1250000;stroke-dasharray:none;stroke-opacity:1.0000000;"
     rx="1.6133510"
     transform="translate(5.938213,-0.359892)"
     height="54.703541"
     width="43.007061"
     y="2.9571614"
     x="2.5192420"
     id="rect931" />
  <path
     style="fill:none;fill-rule:evenodd;stroke:#333333;stroke-opacity:1.0000000;stroke-width:3.1250000;stroke-linejoin:round;stroke-linecap:round;fill-opacity:0.75;stroke-dasharray:none;"
     d="M 8.4574556,3.3170532 L 8.4574556,57.660704 L 51.284571,57.660704 L 51.284571,3.3170532"
     sodipodi:nodetypes="cccc"
     transform="translate(0.000000,-0.359892)"
     sodipodi:stroke-cmyk="(0.0000000 0.0000000 0.0000000 0.80000001)"
     id="path932" />
  <g
     id="g945"
     transform="translate(2.730955e-2,0.000000)">
    <g
       id="g932">
      <path
         transform="matrix(1.014766,0.000000,0.000000,1.014766,1.646110e-2,-1.172728)"
         style="fill:#4c4c4c;fill-opacity:1.0000000;fill-rule:evenodd;stroke:#333333;stroke-width:1.8477166;stroke-opacity:1.0000000;"
         d="M 12.696481,45.604332 C 12.142481,45.604332 11.696481,46.050332 11.696481,46.604332 L 11.696481,53.421679 C 11.696481,53.975679 12.142481,54.421679 12.696481,54.421679 L 19.513828,54.421679 C 20.067828,54.421679 20.513828,53.975679 20.513828,53.421679 L 20.513828,46.604332 C 20.513828,46.050332 20.067828,45.604332 19.513828,45.604332 L 12.696481,45.604332 z "
         id="rect933" />
      <path
         transform="matrix(1.014766,0.000000,0.000000,1.014766,-1.992172,-0.807522)"
         style="fill:#4c4c4c;fill-opacity:1.0000000;fill-rule:evenodd;stroke:#333333;stroke-width:1.8477166;stroke-opacity:1.0000000;"
         d="M 23.506348,45.244438 C 22.952348,45.244438 22.506348,45.690438 22.506348,46.244438 L 22.506348,53.061786 C 22.506348,53.615786 22.952348,54.061786 23.506348,54.061786 L 30.323695,54.061786 C 30.877695,54.061786 31.323695,53.615786 31.323695,53.061786 L 31.323695,46.244438 C 31.323695,45.690438 30.877695,45.244438 30.323695,45.244438 L 23.506348,45.244438 z "
         id="rect934" />
      <path
         transform="matrix(1.014766,0.000000,0.000000,1.014766,-3.818203,-0.807522)"
         style="fill:#4c4c4c;fill-opacity:1.0000000;fill-rule:evenodd;stroke:#333333;stroke-width:1.8477166;stroke-opacity:1.0000000;"
         d="M 34.136269,45.244438 C 33.582269,45.244438 33.136269,45.690438 33.136269,46.244438 L 33.136269,53.061786 C 33.136269,53.615786 33.582269,54.061786 34.136269,54.061786 L 40.953616,54.061786 C 41.507616,54.061786 41.953616,53.615786 41.953616,53.061786 L 41.953616,46.244438 C 41.953616,45.690438 41.507616,45.244438 40.953616,45.244438 L 34.136269,45.244438 z "
         id="rect935" />
      <path
         transform="matrix(0.000000,-1.000000,1.000000,0.000000,-6.070844,76.53168)"
         style="fill:#7f7f7f;fill-opacity:1.0000000;fill-rule:evenodd;stroke:#333333;stroke-width:1.8750000;stroke-opacity:1.0000000;"
         d="M 23.530338,45.105000 C 22.968157,45.105000 22.515572,45.557585 22.515572,46.119766 L 22.515572,53.037778 C 22.515572,53.599958 22.968157,54.052544 23.530338,54.052544 L 30.448350,54.052544 C 31.010530,54.052544 31.463116,53.599958 31.463116,53.037778 L 31.463116,46.119766 C 31.463116,45.557585 31.010530,45.105000 30.448350,45.105000 L 23.530338,45.105000 z "
         id="rect937" />
      <path
         transform="matrix(0.000000,-1.000000,1.000000,0.000000,-6.070844,76.53168)"
         style="fill:#7f7f7f;fill-opacity:1.0000000;fill-rule:evenodd;stroke:#333333;stroke-width:1.8750000;stroke-opacity:1.0000000;"
         d="M 32.491193,45.104996 C 31.929013,45.104996 31.476427,45.557581 31.476427,46.119762 L 31.476427,53.037774 C 31.476427,53.599954 31.929013,54.052540 32.491193,54.052540 L 39.409205,54.052540 C 39.971386,54.052540 40.423971,53.599954 40.423971,53.037774 L 40.423971,46.119762 C 40.423971,45.557581 39.971386,45.104996 39.409205,45.104996 L 32.491193,45.104996 z "
         id="rect938" />
      <path
         transform="matrix(0.000000,-1.000000,1.000000,0.000000,-6.070844,76.53168)"
         style="fill:#7f7f7f;fill-opacity:1.0000000;fill-rule:evenodd;stroke:#333333;stroke-width:1.8750000;stroke-opacity:1.0000000;"
         d="M 41.452045,45.104996 C 40.889864,45.104996 40.437279,45.557581 40.437279,46.119762 L 40.437279,53.037774 C 40.437279,53.599954 40.889864,54.052540 41.452045,54.052540 L 48.370057,54.052540 C 48.932237,54.052540 49.384823,53.599954 49.384823,53.037774 L 49.384823,46.119762 C 49.384823,45.557581 48.932237,45.104996 48.370057,45.104996 L 41.452045,45.104996 z "
         id="rect939" />
      <path
         transform="matrix(0.000000,-1.000000,1.000000,0.000000,1.439567,0.000000)"
         style="fill:#7f7f7f;fill-opacity:1.0000000;fill-rule:evenodd;stroke:#333333;stroke-width:1.8750000;stroke-opacity:1.0000000;"
         d="M -44.040486,28.404230 C -44.602666,28.404230 -45.055252,28.856816 -45.055252,29.418996 L -45.055252,36.337008 C -45.055252,36.899189 -44.602666,37.351774 -44.040486,37.351774 L -37.122474,37.351774 C -36.560294,37.351774 -36.107708,36.899189 -36.107708,36.337008 L -36.107708,29.418996 C -36.107708,28.856816 -36.560294,28.404230 -37.122474,28.404230 L -44.040486,28.404230 z "
         id="rect940" />
    </g>
    <g
       id="g940"
       transform="translate(-0.323442,0.000000)">
      <path
         transform="matrix(0.000000,1.000000,-1.000000,0.000000,34.37187,-6.911491)"
         style="fill:#cccccc;fill-opacity:1.0000000;fill-rule:evenodd;stroke:#333333;stroke-width:1.8750000;"
         d="M 12.900418,13.215232 C 12.338237,13.215232 11.885652,13.667818 11.885652,14.229998 L 11.885652,21.148010 C 11.885652,21.710190 12.338237,22.162776 12.900418,22.162776 L 19.818430,22.162776 C 20.380610,22.162776 20.833196,21.710190 20.833196,21.148010 L 20.833196,14.229998 C 20.833196,13.667818 20.380610,13.215232 19.818430,13.215232 L 12.900418,13.215232 z "
         id="rect941" />
      <path
         transform="matrix(0.000000,1.000000,-1.000000,0.000000,34.37187,-6.911491)"
         style="fill:#cccccc;fill-opacity:1.0000000;fill-rule:evenodd;stroke:#333333;stroke-width:1.8750000;"
         d="M 21.861270,13.215228 C 21.299090,13.215228 20.846504,13.667814 20.846504,14.229994 L 20.846504,21.148006 C 20.846504,21.710187 21.299090,22.162772 21.861270,22.162772 L 28.779282,22.162772 C 29.341463,22.162772 29.794048,21.710187 29.794048,21.148006 L 29.794048,14.229994 C 29.794048,13.667814 29.341463,13.215228 28.779282,13.215228 L 21.861270,13.215228 z "
         id="rect942" />
      <path
         transform="matrix(0.000000,1.000000,-1.000000,0.000000,34.37187,-6.911491)"
         style="fill:#cccccc;fill-opacity:1.0000000;fill-rule:evenodd;stroke:#333333;stroke-width:1.8750000;"
         d="M 30.822122,13.215228 C 30.259942,13.215228 29.807356,13.667814 29.807356,14.229994 L 29.807356,21.148006 C 29.807356,21.710187 30.259942,22.162772 30.822122,22.162772 L 37.740134,22.162772 C 38.302314,22.162772 38.754900,21.710187 38.754900,21.148006 L 38.754900,14.229994 C 38.754900,13.667814 38.302314,13.215228 37.740134,13.215228 L 30.822122,13.215228 z "
         id="rect943" />
      <path
         transform="matrix(0.000000,1.000000,-1.000000,0.000000,-1.259621,0.000000)"
         style="fill:#cccccc;fill-opacity:1.0000000;fill-rule:evenodd;stroke:#333333;stroke-width:1.8750000;"
         d="M 5.9889266,-31.786560 C 5.4267463,-31.786560 4.9741607,-31.333974 4.9741607,-30.771794 L 4.9741607,-23.853782 C 4.9741607,-23.291602 5.4267463,-22.839016 5.9889266,-22.839016 L 12.906939,-22.839016 C 13.469119,-22.839016 13.921705,-23.291602 13.921705,-23.853782 L 13.921705,-30.771794 C 13.921705,-31.333974 13.469119,-31.786560 12.906939,-31.786560 L 5.9889266,-31.786560 z "
         id="rect944" />
    </g>
  </g>
  <metadata
     id="metadata17">
    <rdf:RDF
       id="RDF18">
      <cc:Work
         rdf:about=""
         id="Work19">
        <dc:format
           id="format20">image/svg+xml</dc:format>
        <dc:type
           id="type22"
           rdf:resource="http://purl.org/dc/dcmitype/StillImage" />
      </cc:Work>
    </rdf:RDF>
  </metadata>
</svg>
