<?xml version="1.0" encoding="UTF-8" standalone="no"?>
<!DOCTYPE svg PUBLIC "-//W3C//DTD SVG 20010904//EN"
"http://www.w3.org/TR/2001/REC-SVG-20010904/DTD/svg10.dtd">
<svg
   sodipodi:docname="ksnapshot.svg"
   sodipodi:version="0.32"
   height="60.0000000"
   width="60.0000000"
   _SVGFile__filename="scalable/apps/ksnapshot.svg"
   version="1.0"
   y="0"
   x="0"
   inkscape:version="0.39"
   id="svg1"
   sodipodi:docbase="/home/danny/work/flat/newscale/apps"
   xmlns="http://www.w3.org/2000/svg"
   xmlns:cc="http://web.resource.org/cc/"
   xmlns:inkscape="http://www.inkscape.org/namespaces/inkscape"
   xmlns:sodipodi="http://sodipodi.sourceforge.net/DTD/sodipodi-0.dtd"
   xmlns:rdf="http://www.w3.org/1999/02/22-rdf-syntax-ns#"
   xmlns:dc="http://purl.org/dc/elements/1.1/"
   xmlns:xlink="http://www.w3.org/1999/xlink">
  <sodipodi:namedview
     bordercolor="#666666"
     inkscape:pageshadow="2"
     inkscape:window-y="0"
     pagecolor="#ffffff"
     inkscape:window-height="699"
     inkscape:zoom="9.8238822"
     inkscape:window-x="0"
     borderopacity="1.0"
     inkscape:cx="36.239636"
     inkscape:cy="12.231706"
     inkscape:window-width="1024"
     inkscape:pageopacity="0.0"
     id="base" />
  <defs
     id="defs3" />
  <path
     style="font-size:12.000000;fill:#cccccc;fill-opacity:1.0000000;fill-rule:evenodd;stroke:#4c4c4c;stroke-width:3.1250000;stroke-linecap:round;stroke-linejoin:round;stroke-opacity:1.0000000;"
     d="M 3.2158510,57.455181 L 57.003940,57.455181 C 57.003940,57.455181 50.200200,38.463717 33.896890,39.275317 C 31.842920,39.275317 29.917340,39.112996 27.093140,39.275317 C 12.715418,38.301396 4.1167220,53.397175 3.2181150,57.455180"
     sodipodi:nodetypes="ccccc"
     id="path928"
     sodipodi:fill-cmyk="(0.0000000 0.0000000 0.0000000 0.19999999)"
     sodipodi:stroke-cmyk="(0.0000000 0.0000000 0.0000000 0.70196080)" />
  <path
     style="font-size:12.000000;fill:#7f7f7f;fill-opacity:1.0000000;fill-rule:evenodd;stroke:#4c4c4c;stroke-width:3.1250000;stroke-linecap:round;stroke-linejoin:round;stroke-opacity:1.0000000;"
     d="M 5.4529200,2.8688183 C 4.3449190,2.8688183 3.4529200,3.7608183 3.4529200,4.8688183 L 3.4529200,38.150412 C 3.4529200,39.258412 4.3449190,40.150412 5.4529200,40.150412 L 54.766870,40.150412 C 55.874870,40.150412 56.766870,39.258412 56.766870,38.150412 L 56.766870,4.8688183 C 56.766870,3.7608183 55.874870,2.8688183 54.766870,2.8688183 L 5.4529200,2.8688183 z "
     id="path929"
     sodipodi:stroke-cmyk="(0.0000000 0.0000000 0.0000000 0.70196080)" />
  <path
     style="font-size:12.000000;fill:#000000;fill-opacity:1.0000000;fill-rule:evenodd;stroke:#4c4c4c;stroke-width:1.8750024;stroke-linecap:round;stroke-linejoin:round;stroke-opacity:1.0000000;"
     d="M 8.5553610,6.4368750 L 8.5553610,36.582356 L 51.664430,36.582356 L 51.664430,6.4368750 L 8.5553610,6.4368750 z "
     id="path930"
     sodipodi:stroke-cmyk="(0.0000000 0.0000000 0.0000000 0.70196080)" />
  <metadata
     id="metadata16">
    <rdf:RDF
       id="RDF17">
      <cc:Work
         rdf:about=""
         id="Work18">
        <dc:format
           id="format19">image/svg+xml</dc:format>
        <dc:type
           id="type21"
           rdf:resource="http://purl.org/dc/dcmitype/StillImage" />
      </cc:Work>
    </rdf:RDF>
  </metadata>
  <path
     style="font-size:12.000000;fill:#b3b3b3;fill-opacity:1.0000000;fill-rule:evenodd;stroke:#333333;stroke-width:2.9146452;stroke-miterlimit:4.0000000;stroke-dasharray:none;stroke-linejoin:round;"
     d="M 51.659821,15.592913 L 51.659821,24.499779 L 41.989510,24.499779 L 41.989510,15.592913"
     id="path963"
     sodipodi:nodetypes="cccc"
     transform="matrix(0.643303,0.000000,0.000000,0.643303,10.62853,17.80906)" />
  <path
     transform="matrix(0.643303,0.000000,0.000000,0.643303,11.11966,17.80906)"
     style="font-size:12.000000;fill:#7f7f7f;fill-rule:evenodd;stroke:#333333;stroke-width:2.9146452;stroke-linecap:round;stroke-linejoin:round;stroke-miterlimit:4.0000000;stroke-dasharray:none;"
     d="M 37.627464,5.9226012 C 36.519464,5.9226012 35.627464,6.8146012 35.627464,7.9226012 L 35.627464,14.865322 C 35.627464,15.973322 36.519464,16.865322 37.627464,16.865322 L 54.494978,16.865322 C 55.602978,16.865322 56.494978,15.973322 56.494978,14.865322 L 56.494978,7.9226012 C 56.494978,6.8146012 55.602978,5.9226012 54.494978,5.9226012 L 37.627464,5.9226012 z "
     id="path964" />
  <path
     transform="matrix(0.643303,0.000000,0.000000,0.643303,11.11966,17.80906)"
     style="font-size:12.000000;fill:#cccccc;fill-rule:evenodd;stroke:#333333;stroke-width:0.97154840;stroke-linecap:round;stroke-linejoin:round;stroke-miterlimit:4.0000000;stroke-dasharray:none;"
     d="M 39.826416,8.6544266 L 39.826416,14.133497 L 52.296023,14.133497 L 52.296023,8.6544266 L 39.826416,8.6544266 z "
     id="path965" />
  <path
     transform="matrix(1.110013,0.000000,0.000000,1.110013,5.184404,8.339273)"
     style="font-size:12.000000;fill:#b3b3b3;fill-opacity:1.0000000;fill-rule:evenodd;stroke:#333333;stroke-width:1.6891694;stroke-linecap:round;stroke-linejoin:round;stroke-miterlimit:4.0000000;stroke-dasharray:none;"
     d="M 9.0341065,21.255135 C 9.0341065,19.464091 10.487707,18.010491 12.278750,18.010491 C 14.069794,18.010491 15.523394,19.464091 15.523394,21.255135"
     id="path966"
     sodipodi:nodetypes="ccc" />
  <path
     style="font-size:12.000000;fill:#7f7f7f;fill-rule:evenodd;stroke:#333333;stroke-width:2.9146452;stroke-linecap:round;stroke-linejoin:round;stroke-miterlimit:4.0000000;stroke-dasharray:none;"
     d="M 5.3082645,22.463923 C 4.2002645,22.463923 3.3082645,23.355923 3.3082645,24.463923 L 3.3082645,52.146915 C 3.3082645,53.254915 4.2002645,54.146915 5.3082645,54.146915 L 55.258422,54.146915 C 56.366422,54.146915 57.258422,53.254915 57.258422,52.146915 L 57.258422,24.463923 C 57.258422,23.355923 56.366422,22.463923 55.258422,22.463923 L 5.3082645,22.463923 z "
     id="path967"
     transform="matrix(0.643303,0.000000,0.000000,0.643303,10.62853,17.80906)" />
  <path
     transform="matrix(0.727737,0.000000,0.000000,0.727737,8.256796,18.69540)"
     style="font-size:12.000000;fill:#4c4c4c;fill-opacity:1.0000000;fill-rule:evenodd;stroke:#333333;stroke-width:1.7176535;stroke-linejoin:round;stroke-miterlimit:4.0000000;stroke-dasharray:none;"
     d="M 40.208138,32.643200 C 40.208138,38.262161 35.647823,42.822476 30.028862,42.822476 C 24.409901,42.822476 19.849586,38.262161 19.849586,32.643200 C 19.849586,27.024239 24.409901,22.463923 30.028862,22.463923 C 35.647823,22.463923 40.208138,27.024239 40.208138,32.643200 z "
     id="path968" />
  <path
     transform="matrix(0.893750,0.000000,0.000000,0.893750,2.816722,12.70759)"
     style="font-size:12.000000;fill:#333333;fill-opacity:1.0000000;fill-rule:evenodd;stroke:#333333;stroke-width:0.69930070;stroke-linejoin:round;stroke-miterlimit:4.0000000;stroke-dasharray:none;"
     d="M 34.482294,33.279404 C 34.482294,35.456751 32.715172,37.223873 30.537825,37.223873 C 28.360478,37.223873 26.593355,35.456751 26.593355,33.279404 C 26.593355,31.102057 28.360478,29.334934 30.537825,29.334934 C 32.715172,29.334934 34.482294,31.102057 34.482294,33.279404 z "
     id="path969" />
  <path
     style="font-size:12.000000;fill:#333333;fill-opacity:1.0000000;fill-rule:evenodd;stroke:#333333;stroke-width:1.9430968;stroke-linecap:round;stroke-linejoin:round;stroke-opacity:1.0000000;stroke-miterlimit:4.0000000;stroke-dasharray:none;"
     d="M 6.9982514,26.026669 L 6.9982514,30.607342 L 16.668562,30.607342 L 16.668562,26.026669 L 6.9982514,26.026669 z "
     id="path970"
     transform="matrix(0.643303,0.000000,0.000000,0.643303,10.62853,17.80906)" />
</svg>
