<?xml version="1.0" encoding="UTF-8" standalone="no"?>
<!DOCTYPE svg PUBLIC "-//W3C//DTD SVG 20010904//EN"
"http://www.w3.org/TR/2001/REC-SVG-20010904/DTD/svg10.dtd">
<svg
   sodipodi:docname="kspread.svg"
   height="60.0000000"
   sodipodi:version="0.32"
   width="60.0000000"
   _SVGFile__filename="scalable/apps/kspread.svg"
   version="1.0"
   y="0"
   x="0"
   inkscape:version="0.39"
   id="svg1"
   sodipodi:docbase="/home/danny/work/flat/newscale/apps"
   xmlns="http://www.w3.org/2000/svg"
   xmlns:cc="http://web.resource.org/cc/"
   xmlns:inkscape="http://www.inkscape.org/namespaces/inkscape"
   xmlns:sodipodi="http://sodipodi.sourceforge.net/DTD/sodipodi-0.dtd"
   xmlns:rdf="http://www.w3.org/1999/02/22-rdf-syntax-ns#"
   xmlns:dc="http://purl.org/dc/elements/1.1/"
   xmlns:xlink="http://www.w3.org/1999/xlink">
  <sodipodi:namedview
     bordercolor="#666666"
     inkscape:pageshadow="2"
     inkscape:window-y="0"
     snaptoguides="true"
     pagecolor="#ffffff"
     inkscape:window-height="685"
     inkscape:zoom="6.2264042"
     inkscape:window-x="0"
     borderopacity="1.0"
     inkscape:cx="30.954431"
     inkscape:cy="15.574291"
     inkscape:window-width="1016"
     inkscape:pageopacity="0.0"
     id="base"
     showguides="true" />
  <defs
     id="defs3" />
  <path
     id="path839"
     style="font-size:24.000000;fill:#333333;stroke-width:1.0000000pt;font-family:VAG Rounded Black SSi;"
     transform="matrix(0.657596,0.000000,0.000000,0.657596,-1.095641,44.87561)"
     d="M 16.020296,8.6847105 L 16.020296,-5.3074770 C 16.020296,-5.8231020 16.188265,-6.2527895 16.524202,-6.5965395 C 16.860140,-6.9402895 17.293734,-7.1121645 17.824984,-7.1121645 C 18.356234,-7.1121645 18.785921,-6.9520082 19.114046,-6.6316957 C 19.449984,-6.3113832 19.617952,-5.8699770 19.617952,-5.3074770 L 19.617952,-0.080914497 L 25.524202,-6.4324770 C 25.938265,-6.8856020 26.403109,-7.1121645 26.918734,-7.1121645 C 27.395296,-7.1121645 27.809359,-6.9481020 28.160921,-6.6199770 C 28.520296,-6.2996645 28.699984,-5.8777895 28.699984,-5.3543520 C 28.699984,-5.0574770 28.606234,-4.7645082 28.418734,-4.4754457 C 28.231234,-4.1941957 27.930452,-3.8465395 27.516390,-3.4324770 L 22.981234,1.0792418 L 28.524202,6.9268980 C 28.844515,7.2315855 29.090609,7.5284605 29.262484,7.8175230 C 29.442171,8.0987730 29.532015,8.4112730 29.532015,8.7550230 C 29.532015,9.3018980 29.352327,9.7198668 28.992952,10.008929 C 28.633577,10.290179 28.188265,10.430804 27.657015,10.430804 C 27.344515,10.430804 27.059359,10.344867 26.801546,10.172992 C 26.551546,10.001117 26.231234,9.7120543 25.840609,9.3058043 L 19.617952,2.5089293 L 19.617952,8.6847105 C 19.617952,9.1768980 19.449984,9.5909605 19.114046,9.9268980 C 18.778109,10.262836 18.348421,10.430804 17.824984,10.430804 C 17.301546,10.430804 16.867952,10.270648 16.524202,9.9503355 C 16.188265,9.6300230 16.020296,9.2081480 16.020296,8.6847105 z " />
  <path
     style="font-size:12.000000;fill:#333333;fill-rule:evenodd;stroke:#333333;stroke-width:0.37499878;stroke-linecap:round;stroke-linejoin:round;"
     d="M 14.325491,30.828635 L 18.910002,35.631446 L 26.332503,30.610302 L 32.226867,33.230061 L 34.191649,41.834569 L 40.522608,41.776421 L 42.269096,32.947758 L 48.163451,30.610302 L 55.585957,35.413153 L 59.078915,30.610302 L 50.655275,22.660758 C 29.064691,42.463656 10.407101,11.942536 28.952228,-0.82624563 L 28.952204,-5.4107578 L 26.769127,-4.3192125 L 20.001530,-8.6214830 L 15.326591,-4.7823502 L 19.564914,2.4483697 L 17.163514,8.3427248 L 8.8932673,9.7165458 L 8.8677462,15.983562 L 17.381834,18.166660 L 19.728657,23.897314 L 14.325491,30.828635 z "
     sodipodi:nodetypes="ccccccccccccccccccccccc"
     transform="matrix(0.330654,0.000000,0.000000,0.330654,-1.095641,44.87561)"
     sodipodi:stroke-cmyk="(0 0 0 0.8)"
     id="path705" />
  <path
     transform="matrix(1.216287,0.000000,0.000000,1.216287,-26.08191,-4.426152)"
     style="fill:#cccccc;fill-opacity:1.0000000;fill-rule:evenodd;stroke:#4c4c4c;stroke-width:2.0554359;stroke-opacity:1.0000000;stroke-linejoin:round;"
     d="M 29.882732,6.3862114 C 29.065484,6.3862114 28.407555,7.0441405 28.407555,7.8613888 L 28.407555,32.622696 C 28.407555,33.439945 29.065484,34.097874 29.882732,34.097874 L 64.361115,34.097874 C 65.178363,34.097874 65.836292,33.439945 65.836292,32.622696 L 65.836292,7.8613888 C 65.836292,7.0441405 65.178363,6.3862114 64.361115,6.3862114 L 29.882732,6.3862114 z "
     id="rect863" />
  <path
     style="fill:none;fill-rule:evenodd;stroke:#4c4c4c;stroke-opacity:1.0000000;stroke-width:1.5415769;stroke-linejoin:miter;stroke-linecap:butt;fill-opacity:0.75;stroke-dasharray:none;"
     transform="matrix(1.216287,0.000000,0.000000,1.216287,-26.08191,-4.426152)"
     d="M 28.767442,20.310768 L 65.836290,20.310768"
     sodipodi:stroke-cmyk="(0.0000000 0.0000000 0.0000000 0.69999999)"
     id="path865" />
  <path
     style="fill:none;fill-rule:evenodd;stroke:#4c4c4c;stroke-opacity:1.0000000;stroke-width:1.5415769;stroke-linejoin:miter;stroke-linecap:butt;fill-opacity:0.75;stroke-dasharray:none;"
     transform="matrix(1.216287,0.000000,0.000000,1.216287,-26.08191,-4.426152)"
     d="M 28.767442,27.397382 L 65.836290,27.397382"
     sodipodi:stroke-cmyk="(0.0000000 0.0000000 0.0000000 0.69999999)"
     id="path866" />
  <path
     style="fill:none;fill-rule:evenodd;stroke:#4c4c4c;stroke-opacity:1.0000000;stroke-width:1.5415769;stroke-linejoin:miter;stroke-linecap:butt;fill-opacity:0.75;stroke-dasharray:none;"
     transform="matrix(1.216287,0.000000,0.000000,1.216287,-26.08191,-4.426152)"
     d="M 28.767442,13.224154 L 65.836290,13.224154"
     sodipodi:stroke-cmyk="(0.0000000 0.0000000 0.0000000 0.69999999)"
     id="path867" />
  <path
     style="fill:none;fill-rule:evenodd;stroke:#4c4c4c;stroke-opacity:1.0000000;stroke-width:1.5415769;stroke-linejoin:miter;stroke-linecap:butt;fill-opacity:0.75;stroke-dasharray:none;"
     transform="matrix(1.216287,0.000000,0.000000,1.216287,-26.08191,-4.426152)"
     d="M 39.924089,6.7461031 L 39.924089,33.558036"
     sodipodi:stroke-cmyk="(0.0000000 0.0000000 0.0000000 0.69999999)"
     id="path868" />
  <path
     style="fill:none;fill-rule:evenodd;stroke:#4c4c4c;stroke-opacity:1.0000000;stroke-width:1.5415769;stroke-linejoin:miter;stroke-linecap:butt;fill-opacity:0.75;stroke-dasharray:none;"
     transform="matrix(1.216287,0.000000,0.000000,1.216287,-26.08191,-4.426152)"
     d="M 54.097317,6.7461031 L 54.097317,33.558036"
     sodipodi:stroke-cmyk="(0.0000000 0.0000000 0.0000000 0.69999999)"
     id="path869" />
  <path
     style="fill:none;fill-opacity:0.75000000;fill-rule:evenodd;stroke:#333333;stroke-width:2.0150771;stroke-linecap:round;stroke-linejoin:round;stroke-dasharray:none;"
     d="M 40.124334,22.873449 L 40.124334,41.703225 L 58.845892,41.703225"
     sodipodi:nodetypes="ccc"
     transform="matrix(1.860971,0.000000,0.000000,1.860971,-52.14931,-25.78907)"
     sodipodi:stroke-cmyk="(0.0000000 0.0000000 0.0000000 0.80000001)"
     id="path917" />
  <path
     transform="matrix(1.860971,0.000000,0.000000,1.860971,-52.14931,-25.78907)"
     style="fill:#7f7f7f;fill-opacity:1.0000000;fill-rule:evenodd;stroke:#333333;stroke-width:1.3433847;stroke-linecap:round;stroke-linejoin:round;"
     d="M 40.636653,24.929573 C 40.532685,24.929573 40.448986,25.013272 40.448986,25.117240 L 40.448986,41.299123 C 40.448986,41.403090 40.532685,41.486790 40.636653,41.486790 L 45.022872,41.486790 C 45.126839,41.486790 45.210538,41.403090 45.210538,41.299123 L 45.210538,25.117240 C 45.210538,25.013272 45.126839,24.929573 45.022872,24.929573 L 40.636653,24.929573 z "
     id="rect918" />
  <path
     transform="matrix(1.860971,0.000000,0.000000,1.860971,-52.14931,-25.78907)"
     style="fill:#7f7f7f;fill-rule:evenodd;stroke:#333333;stroke-width:1.3433847;stroke-linecap:round;stroke-linejoin:round;"
     d="M 47.062793,32.540947 C 46.958825,32.540947 46.875126,32.624646 46.875126,32.728614 L 46.875126,41.479370 C 46.875126,41.583338 46.958825,41.667037 47.062793,41.667037 L 51.449011,41.667037 C 51.552979,41.667037 51.636678,41.583338 51.636678,41.479370 L 51.636678,32.728614 C 51.636678,32.624646 51.552979,32.540947 51.449011,32.540947 L 47.062793,32.540947 z "
     id="rect919" />
  <path
     transform="matrix(1.860971,0.000000,0.000000,1.860971,-52.14931,-25.78907)"
     style="fill:#4c4c4c;fill-rule:evenodd;stroke:#333333;stroke-width:1.3433847;stroke-linecap:round;stroke-linejoin:round;"
     d="M 53.455489,28.652292 C 53.351522,28.652292 53.267822,28.735992 53.267822,28.839959 L 53.267822,41.363997 C 53.267822,41.467965 53.351522,41.551664 53.455489,41.551664 L 57.841708,41.551664 C 57.945675,41.551664 58.029375,41.467965 58.029375,41.363997 L 58.029375,28.839959 C 58.029375,28.735992 57.945675,28.652292 57.841708,28.652292 L 53.455489,28.652292 z "
     id="rect920" />
  <metadata
     id="metadata16">
    <rdf:RDF
       id="RDF17">
      <cc:Work
         rdf:about=""
         id="Work18">
        <dc:title
           id="title19">Part of the Flat Icon Collection (Thu Aug 26 14:31:40 2004)</dc:title>
        <dc:description
           id="description21" />
        <dc:subject
           id="subject22">
          <rdf:Bag
             id="Bag23">
            <rdf:li
               id="li24" />
          </rdf:Bag>
        </dc:subject>
        <dc:publisher
           id="publisher25">
          <cc:Agent
             rdf:about=""
             id="Agent26">
            <dc:title
               id="title27" />
          </cc:Agent>
        </dc:publisher>
        <dc:creator
           id="creator28">
          <cc:Agent
             rdf:about=""
             id="Agent29">
            <dc:title
               id="title30">Danny Allen</dc:title>
          </cc:Agent>
        </dc:creator>
        <dc:rights
           id="rights32">
          <cc:Agent
             rdf:about=""
             id="Agent33">
            <dc:title
               id="title34">Danny Allen</dc:title>
          </cc:Agent>
        </dc:rights>
        <dc:date
           id="date36" />
        <dc:format
           id="format37">image/svg+xml</dc:format>
        <dc:type
           rdf:resource="http://purl.org/dc/dcmitype/StillImage"
           id="type39" />
        <cc:license
           rdf:resource="http://creativecommons.org/licenses/LGPL/2.1/"
           id="license40">
          <dc:date
             id="date41" />
        </cc:license>
        <dc:language
           id="language42">en</dc:language>
      </cc:Work>
    </rdf:RDF>
  </metadata>
</svg>
