<?xml version="1.0" encoding="UTF-8" standalone="no"?>
<!DOCTYPE svg PUBLIC "-//W3C//DTD SVG 20010904//EN"
"http://www.w3.org/TR/2001/REC-SVG-20010904/DTD/svg10.dtd">
<svg
   sodipodi:docname="ksysguard.svg"
   height="60.0000000"
   sodipodi:version="0.32"
   width="60.0000000"
   _SVGFile__filename="scalable/apps/ksysguard.svg"
   version="1.0"
   y="0"
   x="0"
   inkscape:version="0.39"
   id="svg1"
   sodipodi:docbase="/home/danny/work/flat/newscale/apps"
   xmlns="http://www.w3.org/2000/svg"
   xmlns:cc="http://web.resource.org/cc/"
   xmlns:inkscape="http://www.inkscape.org/namespaces/inkscape"
   xmlns:sodipodi="http://sodipodi.sourceforge.net/DTD/sodipodi-0.dtd"
   xmlns:rdf="http://www.w3.org/1999/02/22-rdf-syntax-ns#"
   xmlns:dc="http://purl.org/dc/elements/1.1/"
   xmlns:xlink="http://www.w3.org/1999/xlink">
  <sodipodi:namedview
     bordercolor="#666666"
     inkscape:pageshadow="2"
     inkscape:window-y="0"
     pagecolor="#ffffff"
     inkscape:window-height="685"
     inkscape:zoom="9.8238822"
     inkscape:window-x="0"
     borderopacity="1.0"
     inkscape:cx="35.265339"
     inkscape:cy="22.663388"
     inkscape:window-width="1016"
     inkscape:pageopacity="0.0"
     id="base" />
  <defs
     id="defs3" />
  <path
     sodipodi:nodetypes="ccccc"
     style="fill:#b3b3b3;fill-opacity:1.0000000;fill-rule:evenodd;stroke:#333333;stroke-width:3.1250000;stroke-linecap:round;stroke-linejoin:round;stroke-miterlimit:4.0000000;stroke-opacity:1.0000000;"
     d="M 56.768800,9.4246584 C 54.449451,4.6606431 38.448894,19.306151 29.880777,4.1992106 C 23.395467,19.306151 4.0072440,5.1405992 2.8798610,9.4246584 C 0.85057000,13.032285 12.110374,54.991910 29.300121,55.421909 C 47.796231,55.096419 59.925480,13.032284 56.768800,9.4246584 z "
     sodipodi:stroke-cmyk="(0.0000000 0.0000000 0.0000000 0.80000001)"
     id="path1560" />
  <path
     id="path830"
     style="font-size:24.000000;fill:#333333;stroke-width:1.0000000pt;font-family:VAG Rounded Black SSi;"
     transform="matrix(1.083240,0.000000,0.000000,1.083240,-9.237427,25.51008)"
     d="M 34.044270,6.8150148 L 34.044270,-7.1771727 C 34.044270,-7.6927977 34.212238,-8.1224852 34.548176,-8.4662352 C 34.884113,-8.8099852 35.317707,-8.9818602 35.848957,-8.9818602 C 36.380207,-8.9818602 36.809895,-8.8217039 37.138020,-8.5013914 C 37.473957,-8.1810789 37.641926,-7.7396727 37.641926,-7.1771727 L 37.641926,-1.9506102 L 43.548176,-8.3021727 C 43.962238,-8.7552977 44.427082,-8.9818602 44.942707,-8.9818602 C 45.419270,-8.9818602 45.833332,-8.8177977 46.184895,-8.4896727 C 46.544270,-8.1693602 46.723957,-7.7474852 46.723957,-7.2240477 C 46.723957,-6.9271727 46.630207,-6.6342039 46.442707,-6.3451414 C 46.255207,-6.0638914 45.954426,-5.7162352 45.540363,-5.3021727 L 41.005207,-0.79045391 L 46.548176,5.0572023 C 46.868488,5.3618898 47.114582,5.6587648 47.286457,5.9478273 C 47.466145,6.2290773 47.555988,6.5415773 47.555988,6.8853273 C 47.555988,7.4322023 47.376301,7.8501711 47.016926,8.1392336 C 46.657551,8.4204836 46.212238,8.5611086 45.680988,8.5611086 C 45.368488,8.5611086 45.083332,8.4751711 44.825520,8.3032961 C 44.575520,8.1314211 44.255207,7.8423586 43.864582,7.4361086 L 37.641926,0.63923359 L 37.641926,6.8150148 C 37.641926,7.3072023 37.473957,7.7212648 37.138020,8.0572023 C 36.802082,8.3931398 36.372395,8.5611086 35.848957,8.5611086 C 35.325520,8.5611086 34.891926,8.4009523 34.548176,8.0806398 C 34.212238,7.7603273 34.044270,7.3384523 34.044270,6.8150148 z " />
  <path
     style="font-size:12.000000;fill:#333333;fill-rule:evenodd;stroke:#333333;stroke-width:0.37499878;stroke-linecap:round;stroke-linejoin:round;"
     d="M 50.171154,27.110229 L 54.755666,31.913039 L 62.178166,26.891895 L 68.072530,29.511654 L 70.037312,38.116162 L 76.368271,38.058014 L 78.114759,29.229352 L 84.009114,26.891895 L 91.431620,31.694746 L 94.924579,26.891895 L 86.500939,18.942351 C 64.910355,38.745249 46.252764,8.2241288 64.797891,-4.5446525 L 64.797867,-9.1291647 L 62.614791,-8.0376194 L 55.847193,-12.339890 L 51.172254,-8.5007571 L 55.410577,-1.2700372 L 53.009178,4.6243179 L 44.738931,5.9981389 L 44.713410,12.265155 L 53.227498,14.448253 L 55.574320,20.178907 L 50.171154,27.110229 z "
     sodipodi:nodetypes="ccccccccccccccccccccccc"
     transform="matrix(0.544677,0.000000,0.000000,0.544677,-9.237427,25.51008)"
     sodipodi:stroke-cmyk="(0 0 0 0.8)"
     id="path705" />
  <metadata
     id="metadata7">
    <rdf:RDF
       id="RDF8">
      <cc:Work
         rdf:about=""
         id="Work9">
        <dc:title
           id="title10">Part of the Flat Icon Collection (Thu Aug 26 14:31:40 2004)</dc:title>
        <dc:description
           id="description12" />
        <dc:subject
           id="subject13">
          <rdf:Bag
             id="Bag14">
            <rdf:li
               id="li15" />
          </rdf:Bag>
        </dc:subject>
        <dc:publisher
           id="publisher16">
          <cc:Agent
             rdf:about=""
             id="Agent17">
            <dc:title
               id="title18" />
          </cc:Agent>
        </dc:publisher>
        <dc:creator
           id="creator19">
          <cc:Agent
             rdf:about=""
             id="Agent20">
            <dc:title
               id="title21">Danny Allen</dc:title>
          </cc:Agent>
        </dc:creator>
        <dc:rights
           id="rights23">
          <cc:Agent
             rdf:about=""
             id="Agent24">
            <dc:title
               id="title25">Danny Allen</dc:title>
          </cc:Agent>
        </dc:rights>
        <dc:date
           id="date27" />
        <dc:format
           id="format28">image/svg+xml</dc:format>
        <dc:type
           rdf:resource="http://purl.org/dc/dcmitype/StillImage"
           id="type30" />
        <cc:license
           rdf:resource="http://creativecommons.org/licenses/LGPL/2.1/"
           id="license31">
          <dc:date
             id="date32" />
        </cc:license>
        <dc:language
           id="language33">en</dc:language>
      </cc:Work>
    </rdf:RDF>
  </metadata>
</svg>
