<?xml version="1.0" encoding="UTF-8" standalone="no"?>
<!DOCTYPE svg PUBLIC "-//W3C//DTD SVG 20010904//EN"
"http://www.w3.org/TR/2001/REC-SVG-20010904/DTD/svg10.dtd">
<svg
   sodipodi:docname="inetd.svg"
   sodipodi:version="0.32"
   height="60.0000000"
   width="60.0000000"
   _SVGFile__filename="scalable/apps/inetd.svg"
   version="1.0"
   y="0"
   x="0"
   inkscape:version="0.39"
   id="svg1"
   sodipodi:docbase="/home/danny/work/flat/newscale/apps"
   xmlns="http://www.w3.org/2000/svg"
   xmlns:cc="http://web.resource.org/cc/"
   xmlns:inkscape="http://www.inkscape.org/namespaces/inkscape"
   xmlns:sodipodi="http://sodipodi.sourceforge.net/DTD/sodipodi-0.dtd"
   xmlns:rdf="http://www.w3.org/1999/02/22-rdf-syntax-ns#"
   xmlns:dc="http://purl.org/dc/elements/1.1/"
   xmlns:xlink="http://www.w3.org/1999/xlink">
  <sodipodi:namedview
     bordercolor="#666666"
     inkscape:pageshadow="2"
     inkscape:window-y="0"
     pagecolor="#ffffff"
     inkscape:window-height="699"
     inkscape:zoom="9.8238822"
     inkscape:window-x="0"
     borderopacity="1.0"
     inkscape:cx="36.239636"
     inkscape:cy="24.719634"
     inkscape:window-width="1024"
     inkscape:pageopacity="0.0"
     id="base" />
  <defs
     id="defs3" />
  <g
     id="g1542"
     transform="translate(0.508965,0.127240)">
    <path
       transform="translate(1.399650,0.254482)"
       style="fill:#cccccc;fill-opacity:1.0000000;fill-rule:evenodd;stroke:#333333;stroke-width:3.1250000;stroke-linejoin:round;stroke-opacity:1.0000000;"
       d="M 12.688239,2.9960594 C 11.580239,2.9960594 10.688239,3.8880594 10.688239,4.9960594 L 10.688239,54.564495 C 10.688239,55.672495 11.580239,56.564495 12.688239,56.564495 L 43.679496,56.564495 C 44.787496,56.564495 45.679496,55.672495 45.679496,54.564495 L 45.679496,4.9960594 C 45.679496,3.8880594 44.787496,2.9960594 43.679496,2.9960594 L 12.688239,2.9960594 z "
       id="rect889" />
    <g
       id="g1537"
       transform="translate(-0.100083,4.450755e-2)">
      <path
         transform="matrix(0.758482,0.000000,0.000000,0.758482,8.596174,0.252639)"
         style="fill:#b3b3b3;fill-opacity:1.0000000;fill-rule:evenodd;stroke:#333333;stroke-width:2.4720428;stroke-linecap:round;stroke-linejoin:round;stroke-opacity:1.0000000;"
         d="M 36.772632,17.946869 C 36.772632,22.898578 32.753854,26.917356 27.802145,26.917356 C 22.850436,26.917356 18.831658,22.898578 18.831658,17.946869 C 18.831658,12.995160 22.850436,8.9763823 27.802145,8.9763823 C 32.753854,8.9763823 36.772632,12.995160 36.772632,17.946869 z "
         id="path890" />
      <path
         transform="matrix(0.758482,0.000000,0.000000,0.758482,8.596174,16.37788)"
         style="fill:#7f7f7f;fill-opacity:1.0000000;fill-rule:evenodd;stroke:#333333;stroke-width:2.4720428;stroke-linecap:round;stroke-linejoin:round;stroke-opacity:1.0000000;"
         d="M 36.772632,17.946869 C 36.772632,22.898578 32.753854,26.917356 27.802145,26.917356 C 22.850436,26.917356 18.831658,22.898578 18.831658,17.946869 C 18.831658,12.995160 22.850436,8.9763823 27.802145,8.9763823 C 32.753854,8.9763823 36.772632,12.995160 36.772632,17.946869 z "
         id="path892" />
      <path
         transform="matrix(0.758482,0.000000,0.000000,0.758482,8.596174,32.50311)"
         style="fill:#4c4c4c;fill-opacity:1.0000000;fill-rule:evenodd;stroke:#333333;stroke-width:2.4720428;stroke-linecap:round;stroke-linejoin:round;stroke-opacity:1.0000000;"
         d="M 36.772632,17.946869 C 36.772632,22.898578 32.753854,26.917356 27.802145,26.917356 C 22.850436,26.917356 18.831658,22.898578 18.831658,17.946869 C 18.831658,12.995160 22.850436,8.9763823 27.802145,8.9763823 C 32.753854,8.9763823 36.772632,12.995160 36.772632,17.946869 z "
         id="path893" />
    </g>
  </g>
  <metadata
     id="metadata8">
    <rdf:RDF
       id="RDF9">
      <cc:Work
         rdf:about=""
         id="Work10">
        <dc:format
           id="format11">image/svg+xml</dc:format>
        <dc:type
           id="type13"
           rdf:resource="http://purl.org/dc/dcmitype/StillImage" />
      </cc:Work>
    </rdf:RDF>
  </metadata>
</svg>
