<?xml version="1.0" encoding="UTF-8" standalone="no"?>
<!DOCTYPE svg PUBLIC "-//W3C//DTD SVG 20010904//EN"
"http://www.w3.org/TR/2001/REC-SVG-20010904/DTD/svg10.dtd">
<svg
   sodipodi:docname="ksame.svg"
   height="60.0000000"
   sodipodi:version="0.32"
   width="60.0000000"
   _SVGFile__filename="scalable/apps/ksame.svg"
   version="1.0"
   y="0"
   x="0"
   inkscape:version="0.39"
   id="svg1"
   sodipodi:docbase="/home/danny/work/flat/newscale/apps"
   xmlns="http://www.w3.org/2000/svg"
   xmlns:cc="http://web.resource.org/cc/"
   xmlns:inkscape="http://www.inkscape.org/namespaces/inkscape"
   xmlns:sodipodi="http://sodipodi.sourceforge.net/DTD/sodipodi-0.dtd"
   xmlns:rdf="http://www.w3.org/1999/02/22-rdf-syntax-ns#"
   xmlns:dc="http://purl.org/dc/elements/1.1/"
   xmlns:xlink="http://www.w3.org/1999/xlink">
  <sodipodi:namedview
     bordercolor="#666666"
     inkscape:pageshadow="2"
     inkscape:window-y="0"
     pagecolor="#ffffff"
     inkscape:window-height="699"
     inkscape:zoom="6.9465337"
     inkscape:window-x="0"
     borderopacity="1.0"
     inkscape:cx="35.429157"
     inkscape:cy="21.753412"
     inkscape:window-width="1024"
     inkscape:pageopacity="0.0"
     id="base" />
  <defs
     id="defs3" />
  <g
     id="g1572"
     transform="translate(0.112070,-0.441089)">
    <path
       transform="translate(0.000000,-0.254482)"
       style="fill:#b3b3b3;fill-opacity:1.0000000;fill-rule:evenodd;stroke:#333333;stroke-width:3.1250000;stroke-linejoin:round;stroke-opacity:1.0000000;"
       d="M 5.8833840,4.5229506 C 4.7387336,4.5229506 3.8172281,5.4444562 3.8172281,6.5891066 L 3.8172281,54.880062 C 3.8172281,56.024712 4.7387336,56.946218 5.8833840,56.946218 L 54.174340,56.946218 C 55.318990,56.946218 56.240495,56.024712 56.240495,54.880062 L 56.240495,6.5891066 C 56.240495,5.4444562 55.318990,4.5229506 54.174340,4.5229506 L 5.8833840,4.5229506 z "
       id="rect839" />
    <g
       id="g1565"
       transform="translate(9.720154e-2,-0.228123)">
      <path
         transform="matrix(1.232235,0.000000,0.000000,1.232235,-1.450542,-12.60175)"
         style="fill:#7f7f7f;fill-opacity:1.0000000;fill-rule:evenodd;stroke:#333333;stroke-width:1.5216253;stroke-linejoin:round;stroke-opacity:1.0000000;"
         d="M 7.2922659,42.949715 C 7.0588905,42.949715 6.8710108,43.137594 6.8710108,43.370970 L 6.8710108,53.216699 C 6.8710108,53.450074 7.0588905,53.637954 7.2922659,53.637954 L 17.137995,53.637954 C 17.371370,53.637954 17.559250,53.450074 17.559250,53.216699 L 17.559250,43.370970 C 17.559250,43.137594 17.371370,42.949715 17.137995,42.949715 L 7.2922659,42.949715 z "
         id="rect840" />
      <path
         transform="matrix(0.949018,0.000000,0.000000,0.949018,-0.164583,2.766427)"
         style="fill:#7f7f7f;fill-opacity:1.0000000;fill-rule:evenodd;stroke:#333333;stroke-width:1.9757265;stroke-linejoin:round;stroke-opacity:1.0000000;"
         d="M 25.321034,39.573471 C 25.018012,39.573471 24.774063,39.817420 24.774063,40.120442 L 24.774063,52.904442 C 24.774063,53.207463 25.018012,53.451412 25.321034,53.451412 L 38.105034,53.451412 C 38.408055,53.451412 38.652004,53.207463 38.652004,52.904442 L 38.652004,40.120442 C 38.652004,39.817420 38.408055,39.573471 38.105034,39.573471 L 25.321034,39.573471 z "
         id="rect841" />
      <path
         transform="matrix(0.949018,0.000000,0.000000,0.949018,-0.164583,2.766427)"
         style="fill:#4c4c4c;fill-opacity:1.0000000;fill-rule:evenodd;stroke:#333333;stroke-width:1.9757265;stroke-linejoin:round;stroke-opacity:1.0000000;"
         d="M 42.528607,39.573471 C 42.225585,39.573471 41.981636,39.817420 41.981636,40.120442 L 41.981636,52.904442 C 41.981636,53.207463 42.225585,53.451412 42.528607,53.451412 L 55.312607,53.451412 C 55.615628,53.451412 55.859577,53.207463 55.859577,52.904442 L 55.859577,40.120442 C 55.859577,39.817420 55.615628,39.573471 55.312607,39.573471 L 42.528607,39.573471 z "
         id="rect842" />
      <path
         transform="translate(0.000000,1.526891)"
         style="fill:#7f7f7f;fill-opacity:1.0000000;fill-rule:evenodd;stroke:#333333;stroke-width:1.8750000;stroke-linejoin:round;stroke-opacity:1.0000000;"
         d="M 40.195831,22.605827 C 39.908258,22.605827 39.676746,22.837339 39.676746,23.124912 L 39.676746,35.257158 C 39.676746,35.544731 39.908258,35.776243 40.195831,35.776243 L 52.328077,35.776243 C 52.615650,35.776243 52.847162,35.544731 52.847162,35.257158 L 52.847162,23.124912 C 52.847162,22.837339 52.615650,22.605827 52.328077,22.605827 L 40.195831,22.605827 z "
         id="rect844" />
      <path
         transform="translate(0.000000,-1.781373)"
         style="fill:#4c4c4c;fill-opacity:1.0000000;fill-rule:evenodd;stroke:#333333;stroke-width:1.8750000;stroke-linejoin:round;stroke-opacity:1.0000000;"
         d="M 23.865534,26.149136 C 23.577961,26.149136 23.346449,26.380647 23.346449,26.668221 L 23.346449,38.800466 C 23.346449,39.088040 23.577961,39.319551 23.865534,39.319551 L 35.997780,39.319551 C 36.285353,39.319551 36.516865,39.088040 36.516865,38.800466 L 36.516865,26.668221 C 36.516865,26.380647 36.285353,26.149136 35.997780,26.149136 L 23.865534,26.149136 z "
         id="rect846" />
      <path
         transform="translate(0.000000,1.272409)"
         style="fill:#4c4c4c;fill-opacity:1.0000000;fill-rule:evenodd;stroke:#333333;stroke-width:1.8750000;stroke-linejoin:round;stroke-opacity:1.0000000;"
         d="M 23.865534,6.6512270 C 23.577961,6.6512270 23.346449,6.8827389 23.346449,7.1703120 L 23.346449,19.302558 C 23.346449,19.590131 23.577961,19.821643 23.865534,19.821643 L 35.997780,19.821643 C 36.285353,19.821643 36.516865,19.590131 36.516865,19.302558 L 36.516865,7.1703120 C 36.516865,6.8827389 36.285353,6.6512270 35.997780,6.6512270 L 23.865534,6.6512270 z "
         id="rect847" />
    </g>
  </g>
  <metadata
     id="metadata11">
    <rdf:RDF
       id="RDF12">
      <cc:Work
         rdf:about=""
         id="Work13">
        <dc:title
           id="title14">Part of the Flat Icon Collection (Thu Aug 26 14:31:40 2004)</dc:title>
        <dc:description
           id="description16" />
        <dc:subject
           id="subject17">
          <rdf:Bag
             id="Bag18">
            <rdf:li
               id="li19" />
          </rdf:Bag>
        </dc:subject>
        <dc:publisher
           id="publisher20">
          <cc:Agent
             rdf:about=""
             id="Agent21">
            <dc:title
               id="title22" />
          </cc:Agent>
        </dc:publisher>
        <dc:creator
           id="creator23">
          <cc:Agent
             rdf:about=""
             id="Agent24">
            <dc:title
               id="title25">Danny Allen</dc:title>
          </cc:Agent>
        </dc:creator>
        <dc:rights
           id="rights27">
          <cc:Agent
             rdf:about=""
             id="Agent28">
            <dc:title
               id="title29">Danny Allen</dc:title>
          </cc:Agent>
        </dc:rights>
        <dc:date
           id="date31" />
        <dc:format
           id="format32">image/svg+xml</dc:format>
        <dc:type
           rdf:resource="http://purl.org/dc/dcmitype/StillImage"
           id="type34" />
        <cc:license
           rdf:resource="http://creativecommons.org/licenses/LGPL/2.1/"
           id="license35">
          <dc:date
             id="date36" />
        </cc:license>
        <dc:language
           id="language37">en</dc:language>
      </cc:Work>
    </rdf:RDF>
  </metadata>
</svg>
