<?xml version="1.0" encoding="UTF-8" standalone="no"?>
<!DOCTYPE svg PUBLIC "-//W3C//DTD SVG 20010904//EN"
"http://www.w3.org/TR/2001/REC-SVG-20010904/DTD/svg10.dtd">
<svg
   sodipodi:docname="looknfeel.svg"
   sodipodi:version="0.32"
   height="60.0000000"
   width="60.0000000"
   _SVGFile__filename="scalable/apps/looknfeel.svg"
   version="1.0"
   y="0"
   x="0"
   inkscape:version="0.39"
   id="svg1"
   sodipodi:docbase="/home/danny/work/flat/newscale/apps"
   xmlns="http://www.w3.org/2000/svg"
   xmlns:cc="http://web.resource.org/cc/"
   xmlns:inkscape="http://www.inkscape.org/namespaces/inkscape"
   xmlns:sodipodi="http://sodipodi.sourceforge.net/DTD/sodipodi-0.dtd"
   xmlns:rdf="http://www.w3.org/1999/02/22-rdf-syntax-ns#"
   xmlns:dc="http://purl.org/dc/elements/1.1/"
   xmlns:xlink="http://www.w3.org/1999/xlink">
  <sodipodi:namedview
     bordercolor="#666666"
     inkscape:pageshadow="2"
     inkscape:window-y="0"
     pagecolor="#ffffff"
     inkscape:window-height="699"
     inkscape:zoom="6.9465339"
     inkscape:window-x="0"
     borderopacity="1.0"
     inkscape:cx="41.413362"
     inkscape:cy="28.375687"
     inkscape:window-width="1024"
     inkscape:pageopacity="0.0"
     id="base" />
  <defs
     id="defs3" />
  <metadata
     id="metadata11">
    <rdf:RDF
       id="RDF12">
      <cc:Work
         rdf:about=""
         id="Work13">
        <dc:format
           id="format14">image/svg+xml</dc:format>
        <dc:type
           id="type16"
           rdf:resource="http://purl.org/dc/dcmitype/StillImage" />
      </cc:Work>
    </rdf:RDF>
  </metadata>
  <path
     style="font-size:12.000000;fill:#cccccc;fill-opacity:1.0000000;fill-rule:evenodd;stroke:#333333;stroke-width:2.5000000;stroke-linecap:round;stroke-linejoin:round;stroke-opacity:1.0000000;"
     d="M 27.355900,45.353811 C 17.687545,44.698895 10.713618,51.280811 6.8559040,56.916311 L 53.605900,56.916311 C 50.110860,51.488123 44.080710,44.860363 34.168400,45.353811 C 32.114440,45.353812 30.180100,45.191490 27.355900,45.353811 z "
     id="path979" />
  <path
     style="font-size:12.000000;fill:#7f7f7f;fill-opacity:1.0000000;fill-rule:evenodd;stroke:#333333;stroke-width:3.1250002;stroke-linecap:round;stroke-linejoin:round;stroke-opacity:1.0000000;"
     d="M 5.5739270,3.2942732 C 4.4659270,3.2942732 3.5739270,4.3463819 3.5739270,5.6532612 L 3.5739270,44.908701 C 3.5739270,46.215581 4.4659270,47.267689 5.5739270,47.267689 L 54.887880,47.267689 C 55.995880,47.267689 56.887880,46.215581 56.887880,44.908701 L 56.887880,5.6532612 C 56.887880,4.3463819 55.995880,3.2942732 54.887880,3.2942732 L 5.5739270,3.2942732 z "
     id="path954" />
  <path
     style="font-size:12.000000;fill:#000000;fill-opacity:1.0000000;fill-rule:evenodd;stroke:none;stroke-width:1.8750000;stroke-linecap:round;stroke-linejoin:round;stroke-opacity:1.0000000;"
     d="M 8.5363250,7.2088882 L 8.5363250,42.765290 L 51.645390,42.765290 L 51.645390,7.2088882 L 8.5363250,7.2088882 z "
     id="path955"
     sodipodi:fill-cmyk="(0.0000000 0.0000000 0.0000000 1.0000000)" />
  <path
     style="font-size:12.000000;fill:none;fill-opacity:1.0000000;fill-rule:evenodd;stroke:#333333;stroke-width:1.8750000;stroke-linecap:round;stroke-linejoin:round;stroke-opacity:1.0000000;"
     d="M 8.5363250,7.2088882 L 8.5363250,42.765290 L 51.645390,42.765290 L 51.645390,7.2088882 L 8.5363250,7.2088882 z "
     id="path1574" />
  <g
     id="g1650"
     transform="translate(33.15056,-14.30928)">
    <path
       style="fill:#cccccc;fill-opacity:1.0000000;fill-rule:evenodd;stroke:#4c4c4c;stroke-width:2.8547852;stroke-linecap:round;stroke-linejoin:round;stroke-miterlimit:4.0000000;stroke-opacity:1.0000000;"
       d="M 34.100572,13.429816 C 0.25448188,17.247044 -11.706166,24.627019 -0.50896376,38.623522 C 10.688239,52.620026 33.846090,57.200700 36.136427,52.365544 C 39.190210,44.476605 56.749459,36.078703 44.788811,32.261475 C 28.247488,26.153910 36.136427,14.193262 34.100572,13.429816 z "
       sodipodi:nodetypes="ccccc"
       transform="matrix(0.656792,0.000000,0.000000,0.656792,-17.61574,17.07790)"
       sodipodi:stroke-cmyk="(0.0000000 0.0000000 0.0000000 0.69999999)"
       id="path1013" />
    <path
       transform="matrix(0.561315,0.000000,0.217593,0.561315,7.709229,32.34623)"
       style="fill:#4c4c4c;fill-opacity:1.0000000;fill-rule:evenodd;stroke:#4c4c4c;stroke-width:2.2269137;stroke-linecap:round;stroke-linejoin:round;stroke-miterlimit:4.0000000;stroke-opacity:1.0000000;"
       d="M -15.014431,24.245296 C -15.014431,28.248805 -18.263655,31.498030 -22.267164,31.498030 C -26.270673,31.498030 -29.519898,28.248805 -29.519898,24.245296 C -29.519898,20.241787 -26.270673,16.992563 -22.267164,16.992563 C -18.263655,16.992563 -15.014431,20.241787 -15.014431,24.245296 z "
       id="path1014" />
    <path
       transform="matrix(0.561315,0.000000,0.217593,0.561315,-3.823546,27.49912)"
       style="fill:#b3b3b3;fill-opacity:1.0000000;fill-rule:evenodd;stroke:#4c4c4c;stroke-width:2.2269137;stroke-linecap:round;stroke-linejoin:round;stroke-miterlimit:4.0000000;stroke-opacity:1.0000000;"
       d="M -15.014431,24.245296 C -15.014431,28.248805 -18.263655,31.498030 -22.267164,31.498030 C -26.270673,31.498030 -29.519898,28.248805 -29.519898,24.245296 C -29.519898,20.241787 -26.270673,16.992563 -22.267164,16.992563 C -18.263655,16.992563 -15.014431,20.241787 -15.014431,24.245296 z "
       id="path1015" />
    <path
       transform="matrix(0.561315,0.000000,0.217593,0.561315,2.193556,20.64631)"
       style="fill:#7f7f7f;fill-opacity:1.0000000;fill-rule:evenodd;stroke:#4c4c4c;stroke-width:2.2269137;stroke-linecap:round;stroke-linejoin:round;stroke-miterlimit:4.0000000;stroke-opacity:1.0000000;"
       d="M -15.014431,24.245296 C -15.014431,28.248805 -18.263655,31.498030 -22.267164,31.498030 C -26.270673,31.498030 -29.519898,28.248805 -29.519898,24.245296 C -29.519898,20.241787 -26.270673,16.992563 -22.267164,16.992563 C -18.263655,16.992563 -15.014431,20.241787 -15.014431,24.245296 z "
       id="path1016" />
  </g>
</svg>
