<?xml version="1.0" encoding="UTF-8" standalone="no"?>
<!DOCTYPE svg PUBLIC "-//W3C//DTD SVG 20010904//EN"
"http://www.w3.org/TR/2001/REC-SVG-20010904/DTD/svg10.dtd">
<svg
   sodipodi:docname="lyx.svg"
   height="60.0000000"
   sodipodi:version="0.32"
   width="60.0000000"
   _SVGFile__filename="scalable/apps/lyx.svg"
   version="1.0"
   y="0"
   x="0"
   inkscape:version="0.39"
   id="svg1"
   sodipodi:docbase="/home/danny/work/flat/newscale/apps"
   xmlns="http://www.w3.org/2000/svg"
   xmlns:cc="http://web.resource.org/cc/"
   xmlns:inkscape="http://www.inkscape.org/namespaces/inkscape"
   xmlns:sodipodi="http://sodipodi.sourceforge.net/DTD/sodipodi-0.dtd"
   xmlns:rdf="http://www.w3.org/1999/02/22-rdf-syntax-ns#"
   xmlns:dc="http://purl.org/dc/elements/1.1/"
   xmlns:xlink="http://www.w3.org/1999/xlink">
  <sodipodi:namedview
     bordercolor="#666666"
     inkscape:pageshadow="2"
     inkscape:window-y="0"
     pagecolor="#ffffff"
     inkscape:window-height="685"
     inkscape:zoom="4.9119412"
     inkscape:window-x="0"
     borderopacity="1.0"
     inkscape:cx="34.226961"
     inkscape:cy="29.363754"
     inkscape:window-width="1016"
     inkscape:pageopacity="0.0"
     id="base" />
  <defs
     id="defs3">
    <linearGradient
       id="linearGradient900">
      <stop
         style="stop-color:#000;stop-opacity:1;"
         id="stop901"
         offset="0" />
      <stop
         style="stop-color:#fff;stop-opacity:1;"
         id="stop902"
         offset="1" />
    </linearGradient>
    <linearGradient
       xlink:href="#linearGradient900"
       id="linearGradient903" />
    <linearGradient
       xlink:href="#linearGradient900"
       id="linearGradient904" />
    <linearGradient
       xlink:href="#linearGradient900"
       id="linearGradient905" />
    <linearGradient
       xlink:href="#linearGradient900"
       id="linearGradient906" />
    <linearGradient
       xlink:href="#linearGradient900"
       id="linearGradient907" />
  </defs>
  <path
     transform="matrix(0.845716,-0.403991,0.403991,0.845716,-5.675705,14.15728)"
     style="fill:#cccccc;fill-opacity:1.0000000;fill-rule:evenodd;stroke:#4c4c4c;stroke-width:3.3342097;stroke-linecap:round;stroke-linejoin:round;stroke-opacity:1.0000000;"
     d="M 7.3441195,10.121552 C 6.2361195,10.121552 5.3441195,11.013552 5.3441195,12.121552 L 5.3441195,51.892434 C 5.3441195,53.000434 6.2361195,53.892434 7.3441195,53.892434 L 47.115001,53.892434 C 48.223001,53.892434 49.115001,53.000434 49.115001,51.892434 L 49.115001,12.121552 C 49.115001,11.013552 48.223001,10.121552 47.115001,10.121552 L 7.3441195,10.121552 z "
     id="rect904" />
  <path
     id="path845"
     style="font-size:12.000000;font-weight:900;fill: #7f7f7f;stroke:#333333;stroke-width:0.92096227;font-family:VAG Rounded Black SSi;"
     fill-opacity="1.0"
     transform="matrix(1.882016,-0.776506,0.776506,1.882016,107.8298,-57.43042)"
     d="M -59.843456,25.169535 L -59.843456,18.495707 C -59.843456,18.159769 -59.753613,17.901957 -59.573925,17.722269 C -59.394238,17.542582 -59.159863,17.452738 -58.870800,17.452738 C -58.577831,17.452738 -58.343456,17.540628 -58.167675,17.716410 C -57.987988,17.892191 -57.898144,18.151957 -57.898144,18.495707 L -57.898144,24.331644 L -55.812206,24.331644 C -55.507519,24.331644 -55.269238,24.411722 -55.097363,24.571878 C -54.925488,24.728128 -54.839550,24.950785 -54.839550,25.239847 C -54.839550,25.521097 -54.925488,25.743753 -55.097363,25.907816 C -55.269238,26.071878 -55.507519,26.153910 -55.812206,26.153910 L -58.870800,26.153910 C -59.132519,26.153910 -59.361034,26.066019 -59.556347,25.890238 C -59.747753,25.710550 -59.843456,25.470316 -59.843456,25.169535 z " />
  <path
     style="font-size:12.000000;font-weight:900;fill:#cccccc;stroke:#333333;stroke-width:1.8750000;font-family:VAG Rounded Black SSi;"
     d="M 29.477580,40.556943 L 29.477580,34.306051 L 26.053906,29.665599 C 25.330201,28.631735 24.876893,27.955749 24.693978,27.637637 C 24.511063,27.319525 24.419606,26.977555 24.419606,26.611728 C 24.419606,26.086843 24.618427,25.657393 25.016066,25.323375 C 25.421659,24.989359 25.922685,24.822349 26.519142,24.822349 C 26.980405,24.822349 27.358163,24.945617 27.652416,25.192154 C 27.954623,25.438691 28.244899,25.764755 28.523245,26.170348 L 31.457826,30.393279 L 34.392405,26.170348 C 34.678705,25.748850 34.965005,25.418808 35.251306,25.180226 C 35.537606,24.941641 35.919340,24.822349 36.396507,24.822349 C 36.992967,24.822349 37.490015,24.985383 37.887656,25.311446 C 38.293248,25.637510 38.496044,26.070938 38.496044,26.611728 C 38.496044,26.977555 38.400610,27.323502 38.209743,27.649565 C 38.026829,27.975631 37.577496,28.647642 36.861746,29.665599 L 33.438070,34.306051 L 33.438070,40.556943 C 33.438070,41.248836 33.255155,41.777695 32.889328,42.143524 C 32.531451,42.501399 32.054284,42.680338 31.457826,42.680338 C 30.877271,42.680338 30.400104,42.497423 30.026324,42.131596 C 29.660495,41.757814 29.477580,41.232929 29.477580,40.556943 z "
     id="path844" />
  <path
     id="path843"
     style="font-size:12.000000;font-weight:900;fill: #b3b3b3;stroke:#333333;stroke-width:0.92096227;font-family:VAG Rounded Black SSi;"
     fill-opacity="1.0"
     transform="matrix(2.035914,0.000000,-0.390117,2.035914,157.7813,-116.0656)"
     d="M -41.623947,68.739044 L -40.534103,67.215607 C -40.401291,67.016388 -40.286057,66.854279 -40.188400,66.729279 C -40.086838,66.604279 -39.971603,66.504669 -39.842697,66.430450 C -39.709885,66.352325 -39.563400,66.313263 -39.403244,66.313263 C -39.082932,66.313263 -38.832932,66.405060 -38.653244,66.588654 C -38.473557,66.768341 -38.383713,66.981232 -38.383713,67.227325 C -38.383713,67.481232 -38.504807,67.768341 -38.746994,68.088654 L -40.452072,70.367950 L -38.371994,73.180450 C -38.211838,73.395294 -38.102463,73.561310 -38.043869,73.678497 C -37.985275,73.795685 -37.955978,73.944122 -37.955978,74.123810 C -37.955978,74.405060 -38.045822,74.635529 -38.225510,74.815216 C -38.405197,74.994904 -38.629807,75.084747 -38.899338,75.084747 C -39.082932,75.084747 -39.246994,75.043732 -39.391525,74.961700 C -39.536057,74.879669 -39.688400,74.729279 -39.848557,74.510529 L -41.623947,72.061310 L -43.399338,74.510529 C -43.559494,74.725372 -43.711838,74.875763 -43.856369,74.961700 C -43.996994,75.043732 -44.161057,75.084747 -44.348557,75.084747 C -44.618088,75.084747 -44.844650,74.994904 -45.028244,74.815216 C -45.207932,74.631622 -45.297775,74.401154 -45.297775,74.123810 C -45.297775,73.951935 -45.270432,73.809357 -45.215744,73.696075 C -45.161057,73.578888 -45.047775,73.407013 -44.875900,73.180450 L -42.801682,70.367950 L -44.506760,68.088654 C -44.745041,67.772247 -44.864182,67.485138 -44.864182,67.227325 C -44.864182,66.981232 -44.774338,66.768341 -44.594650,66.588654 C -44.414963,66.405060 -44.164963,66.313263 -43.844650,66.313263 C -43.606369,66.313263 -43.413010,66.385529 -43.264572,66.530060 C -43.112228,66.670685 -42.930588,66.899200 -42.719650,67.215607 L -41.623947,68.739044 z " />
  <metadata
     id="metadata16">
    <rdf:RDF
       id="RDF17">
      <cc:Work
         rdf:about=""
         id="Work18">
        <dc:title
           id="title19">Part of the Flat Icon Collection (Thu Aug 26 14:31:40 2004)</dc:title>
        <dc:description
           id="description21" />
        <dc:subject
           id="subject22">
          <rdf:Bag
             id="Bag23">
            <rdf:li
               id="li24" />
          </rdf:Bag>
        </dc:subject>
        <dc:publisher
           id="publisher25">
          <cc:Agent
             rdf:about=""
             id="Agent26">
            <dc:title
               id="title27" />
          </cc:Agent>
        </dc:publisher>
        <dc:creator
           id="creator28">
          <cc:Agent
             rdf:about=""
             id="Agent29">
            <dc:title
               id="title30">Danny Allen</dc:title>
          </cc:Agent>
        </dc:creator>
        <dc:rights
           id="rights32">
          <cc:Agent
             rdf:about=""
             id="Agent33">
            <dc:title
               id="title34">Danny Allen</dc:title>
          </cc:Agent>
        </dc:rights>
        <dc:date
           id="date36" />
        <dc:format
           id="format37">image/svg+xml</dc:format>
        <dc:type
           rdf:resource="http://purl.org/dc/dcmitype/StillImage"
           id="type39" />
        <cc:license
           rdf:resource="http://creativecommons.org/licenses/LGPL/2.1/"
           id="license40">
          <dc:date
             id="date41" />
        </cc:license>
        <dc:language
           id="language42">en</dc:language>
      </cc:Work>
    </rdf:RDF>
  </metadata>
</svg>
