<?xml version="1.0" encoding="UTF-8" standalone="no"?>
<!DOCTYPE svg PUBLIC "-//W3C//DTD SVG 20010904//EN"
"http://www.w3.org/TR/2001/REC-SVG-20010904/DTD/svg10.dtd">
<svg
   sodipodi:docname="ooo_printeradmin.svg"
   height="60.0000000"
   sodipodi:version="0.32"
   width="60.0000000"
   _SVGFile__filename="scalable/apps/ooo_printeradmin.svg"
   version="1.0"
   y="0"
   x="0"
   inkscape:version="0.39"
   id="svg1"
   sodipodi:docbase="/home/danny/work/flat/newscale/apps"
   xmlns="http://www.w3.org/2000/svg"
   xmlns:cc="http://web.resource.org/cc/"
   xmlns:inkscape="http://www.inkscape.org/namespaces/inkscape"
   xmlns:sodipodi="http://sodipodi.sourceforge.net/DTD/sodipodi-0.dtd"
   xmlns:rdf="http://www.w3.org/1999/02/22-rdf-syntax-ns#"
   xmlns:dc="http://purl.org/dc/elements/1.1/"
   xmlns:xlink="http://www.w3.org/1999/xlink">
  <sodipodi:namedview
     bordercolor="#666666"
     inkscape:pageshadow="2"
     inkscape:window-y="0"
     snaptoguides="true"
     pagecolor="#ffffff"
     inkscape:window-height="685"
     inkscape:zoom="6.9465337"
     inkscape:window-x="0"
     borderopacity="1.0"
     inkscape:cx="37.697545"
     inkscape:cy="29.932839"
     inkscape:window-width="1016"
     inkscape:pageopacity="0.0"
     id="base"
     showguides="true" />
  <defs
     id="defs3">
    <linearGradient
       id="linearGradient900">
      <stop
         style="stop-color:#000;stop-opacity:1;"
         id="stop901"
         offset="0" />
      <stop
         style="stop-color:#fff;stop-opacity:1;"
         id="stop902"
         offset="1" />
    </linearGradient>
    <linearGradient
       xlink:href="#linearGradient900"
       id="linearGradient903" />
    <linearGradient
       xlink:href="#linearGradient900"
       id="linearGradient904" />
    <linearGradient
       xlink:href="#linearGradient900"
       id="linearGradient905" />
    <linearGradient
       xlink:href="#linearGradient900"
       id="linearGradient906" />
    <linearGradient
       xlink:href="#linearGradient900"
       id="linearGradient907" />
  </defs>
  <path
     style="font-size:12.000000;fill:#b3b3b3;fill-opacity:1.0000000;fill-rule:evenodd;stroke:#333333;stroke-width:2.5000000;stroke-linejoin:round;"
     d="M 4.6123908,2.6844294 C 3.4013812,2.6844294 2.4264529,3.6593577 2.4264529,4.8703673 L 2.4264529,55.567560 C 2.4264529,56.778570 3.4013812,57.753498 4.6123908,57.753498 L 55.702933,57.753498 C 56.913942,57.753498 57.888870,56.778570 57.888870,55.567560 L 57.888870,4.8703673 C 57.888870,3.6593577 56.913942,2.6844294 55.702933,2.6844294 L 4.6123908,2.6844294 z "
     id="rect945" />
  <g
     id="g949"
     transform="matrix(0.781476,0.000000,0.000000,0.781476,0.656003,0.663180)"
     style="fill:#333333;fill-opacity:1.0000000;">
    <path
       style="fill:#333333;fill-rule:evenodd;stroke:#333333;stroke-opacity:1.0000000;stroke-width:1.5636013;stroke-linejoin:round;stroke-linecap:round;fill-opacity:1.0000000;stroke-dasharray:none;"
       d="M -32.570201,41.285630 C -23.033071,41.285630 -14.755560,44.884548 -12.236319,47.403790 C -10.076968,44.704602 -2.5192417,42.725197 8.8173473,42.725197 C -2.3392962,39.126280 -4.7381130,38.503235 -12.475786,41.562315 C -20.033512,37.783452 -23.392962,38.586442 -32.570201,41.285630 z "
       sodipodi:nodetypes="ccccc"
       transform="matrix(1.014920,-0.638678,0.638678,1.014920,9.328673,-14.49248)"
       sodipodi:stroke-cmyk="(0.0000000 0.0000000 0.0000000 0.80000001)"
       id="path943" />
    <path
       style="fill:#333333;fill-opacity:1.0000000;fill-rule:evenodd;stroke:#333333;stroke-width:2.7089621;stroke-linecap:round;stroke-linejoin:round;stroke-dasharray:none;stroke-opacity:1.0000000;"
       d="M 6.2396652,37.041241 C 15.919089,30.950086 26.618650,29.316036 30.784463,30.263881 C 31.252119,26.145291 37.658405,19.309400 49.164135,12.068970 C 35.542486,15.541860 32.709953,16.441591 26.810601,24.488194 C 16.726638,25.479903 13.829917,28.440481 6.2396652,37.041241 z "
       sodipodi:nodetypes="ccccc"
       transform="matrix(0.692147,0.000000,0.000000,0.692147,22.38394,-4.381191)"
       sodipodi:stroke-cmyk="(0.0000000 0.0000000 0.0000000 0.80000001)"
       id="path944" />
  </g>
  <metadata
     id="metadata19">
    <rdf:RDF
       id="RDF20">
      <cc:Work
         rdf:about=""
         id="Work21">
        <dc:title
           id="title22">Part of the Flat Icon Collection (Thu Aug 26 14:31:40 2004)</dc:title>
        <dc:description
           id="description24" />
        <dc:subject
           id="subject25">
          <rdf:Bag
             id="Bag26">
            <rdf:li
               id="li27" />
          </rdf:Bag>
        </dc:subject>
        <dc:publisher
           id="publisher28">
          <cc:Agent
             rdf:about=""
             id="Agent29">
            <dc:title
               id="title30" />
          </cc:Agent>
        </dc:publisher>
        <dc:creator
           id="creator31">
          <cc:Agent
             rdf:about=""
             id="Agent32">
            <dc:title
               id="title33">Danny Allen</dc:title>
          </cc:Agent>
        </dc:creator>
        <dc:rights
           id="rights35">
          <cc:Agent
             rdf:about=""
             id="Agent36">
            <dc:title
               id="title37">Danny Allen</dc:title>
          </cc:Agent>
        </dc:rights>
        <dc:date
           id="date39" />
        <dc:format
           id="format40">image/svg+xml</dc:format>
        <dc:type
           rdf:resource="http://purl.org/dc/dcmitype/StillImage"
           id="type42" />
        <cc:license
           rdf:resource="http://creativecommons.org/licenses/LGPL/2.1/"
           id="license43">
          <dc:date
             id="date44" />
        </cc:license>
        <dc:language
           id="language45">en</dc:language>
      </cc:Work>
    </rdf:RDF>
  </metadata>
  <g
     id="g1616"
     transform="translate(-1.799459,0.359892)">
    <path
       transform="matrix(0.622321,0.000000,-0.211132,0.585412,21.72025,20.57278)"
       style="font-size:12.000000;fill:#cccccc;fill-rule:evenodd;stroke:#333333;stroke-width:3.1064420;stroke-linecap:round;stroke-linejoin:round;stroke-miterlimit:4.0000000;"
       d="M 28.184910,7.3616338 C 27.076910,7.3616338 26.184910,8.2536342 26.184910,9.3616347 L 26.184910,28.699180 C 26.184910,29.807181 27.076910,30.699181 28.184910,30.699181 L 49.737223,30.699181 C 50.845223,30.699181 51.737223,29.807181 51.737223,28.699180 L 51.737223,9.3616347 C 51.737223,8.2536342 50.845223,7.3616338 49.737223,7.3616338 L 28.184910,7.3616338 z "
       id="rect765" />
    <rect
       style="font-size:12.000000;fill:#7f7f7f;fill-rule:evenodd;stroke:none;stroke-width:3.1250000;stroke-linejoin:round;"
       sodipodi:fill-cmyk="(0 0 0 0.5)"
       rx="3.2137742"
       height="26.272097"
       width="50.744732"
       y="27.078951"
       x="4.5295200"
       id="rect764"
       ry="3.2137742"
       transform="matrix(0.622321,0.000000,0.000000,0.622321,21.72025,20.57278)" />
    <path
       style="font-size:12.000000;fill:#b3b3b3;fill-rule:evenodd;stroke:#333333;stroke-width:3.0129147;stroke-linecap:round;stroke-linejoin:round;stroke-miterlimit:4.0000000;"
       d="M 49.515985,53.245634 L 49.515985,44.968124 L 10.287786,44.968124 L 10.287786,53.245634"
       id="rect766"
       transform="matrix(0.622321,0.000000,0.000000,0.622321,21.72025,20.57278)" />
    <path
       style="font-size:12.000000;fill:none;fill-rule:evenodd;stroke:#333333;stroke-width:3.0129147;stroke-linecap:round;stroke-linejoin:round;stroke-miterlimit:4.0000000;"
       d="M 6.5295200,27.078951 C 5.4215200,27.078951 4.5295200,27.970951 4.5295200,29.078951 L 4.5295200,51.351048 C 4.5295200,52.459048 5.4215200,53.351048 6.5295200,53.351048 L 53.274252,53.351048 C 54.382252,53.351048 55.274252,52.459048 55.274252,51.351048 L 55.274252,29.078951 C 55.274252,27.970951 54.382252,27.078951 53.274252,27.078951 L 6.5295200,27.078951 z "
       id="rect1560"
       transform="matrix(0.622321,0.000000,0.000000,0.622321,21.72025,20.57278)" />
  </g>
</svg>
