<?xml version="1.0" encoding="UTF-8" standalone="no"?>
<!DOCTYPE svg PUBLIC "-//W3C//DTD SVG 20010904//EN"
"http://www.w3.org/TR/2001/REC-SVG-20010904/DTD/svg10.dtd">
<svg
   sodipodi:docname="ooo_math.svg"
   height="60.0000000"
   sodipodi:version="0.32"
   width="60.0000000"
   _SVGFile__filename="scalable/apps/ooo_math.svg"
   version="1.0"
   y="0"
   x="0"
   inkscape:version="0.39"
   id="svg1"
   sodipodi:docbase="/home/danny/work/flat/newscale/apps"
   xmlns="http://www.w3.org/2000/svg"
   xmlns:cc="http://web.resource.org/cc/"
   xmlns:inkscape="http://www.inkscape.org/namespaces/inkscape"
   xmlns:sodipodi="http://sodipodi.sourceforge.net/DTD/sodipodi-0.dtd"
   xmlns:rdf="http://www.w3.org/1999/02/22-rdf-syntax-ns#"
   xmlns:dc="http://purl.org/dc/elements/1.1/"
   xmlns:xlink="http://www.w3.org/1999/xlink">
  <sodipodi:namedview
     bordercolor="#666666"
     inkscape:pageshadow="2"
     inkscape:window-y="0"
     snaptoguides="true"
     pagecolor="#ffffff"
     inkscape:window-height="685"
     inkscape:zoom="6.9465337"
     inkscape:window-x="0"
     borderopacity="1.0"
     inkscape:cx="37.697545"
     inkscape:cy="29.932839"
     inkscape:window-width="1016"
     inkscape:pageopacity="0.0"
     id="base"
     showguides="true" />
  <defs
     id="defs3">
    <linearGradient
       id="linearGradient900">
      <stop
         style="stop-color:#000;stop-opacity:1;"
         id="stop901"
         offset="0" />
      <stop
         style="stop-color:#fff;stop-opacity:1;"
         id="stop902"
         offset="1" />
    </linearGradient>
    <linearGradient
       xlink:href="#linearGradient900"
       id="linearGradient903" />
    <linearGradient
       xlink:href="#linearGradient900"
       id="linearGradient904" />
    <linearGradient
       xlink:href="#linearGradient900"
       id="linearGradient905" />
    <linearGradient
       xlink:href="#linearGradient900"
       id="linearGradient906" />
    <linearGradient
       xlink:href="#linearGradient900"
       id="linearGradient907" />
  </defs>
  <path
     style="font-size:12.000000;fill:#b3b3b3;fill-opacity:1.0000000;fill-rule:evenodd;stroke:#333333;stroke-width:2.5000000;stroke-linejoin:round;"
     d="M 4.6123908,2.6844294 C 3.4013812,2.6844294 2.4264529,3.6593577 2.4264529,4.8703673 L 2.4264529,55.567560 C 2.4264529,56.778570 3.4013812,57.753498 4.6123908,57.753498 L 55.702933,57.753498 C 56.913942,57.753498 57.888870,56.778570 57.888870,55.567560 L 57.888870,4.8703673 C 57.888870,3.6593577 56.913942,2.6844294 55.702933,2.6844294 L 4.6123908,2.6844294 z "
     id="rect945" />
  <g
     id="g949"
     transform="matrix(0.781476,0.000000,0.000000,0.781476,0.656003,0.663180)"
     style="fill:#333333;fill-opacity:1.0000000;">
    <path
       style="fill:#333333;fill-rule:evenodd;stroke:#333333;stroke-opacity:1.0000000;stroke-width:1.5636013;stroke-linejoin:round;stroke-linecap:round;fill-opacity:1.0000000;stroke-dasharray:none;"
       d="M -32.570201,41.285630 C -23.033071,41.285630 -14.755560,44.884548 -12.236319,47.403790 C -10.076968,44.704602 -2.5192417,42.725197 8.8173473,42.725197 C -2.3392962,39.126280 -4.7381130,38.503235 -12.475786,41.562315 C -20.033512,37.783452 -23.392962,38.586442 -32.570201,41.285630 z "
       sodipodi:nodetypes="ccccc"
       transform="matrix(1.014920,-0.638678,0.638678,1.014920,9.328673,-14.49248)"
       sodipodi:stroke-cmyk="(0.0000000 0.0000000 0.0000000 0.80000001)"
       id="path943" />
    <path
       style="fill:#333333;fill-opacity:1.0000000;fill-rule:evenodd;stroke:#333333;stroke-width:2.7089621;stroke-linecap:round;stroke-linejoin:round;stroke-dasharray:none;stroke-opacity:1.0000000;"
       d="M 6.2396652,37.041241 C 15.919089,30.950086 26.618650,29.316036 30.784463,30.263881 C 31.252119,26.145291 37.658405,19.309400 49.164135,12.068970 C 35.542486,15.541860 32.709953,16.441591 26.810601,24.488194 C 16.726638,25.479903 13.829917,28.440481 6.2396652,37.041241 z "
       sodipodi:nodetypes="ccccc"
       transform="matrix(0.692147,0.000000,0.000000,0.692147,22.38394,-4.381191)"
       sodipodi:stroke-cmyk="(0.0000000 0.0000000 0.0000000 0.80000001)"
       id="path944" />
  </g>
  <path
     id="path841"
     style="font-size:12.000000;font-weight:900;fill:#333333;stroke-width:1.0000000pt;font-family:VAG Rounded Black SSi;"
     transform="matrix(3.357596,0.000000,0.000000,3.357596,-8.270195,22.63560)"
     d="M 12.099935,7.7692461 L 13.693685,6.0524492 L 12.726888,5.0094805 C 12.492513,4.7594805 12.334310,4.5895586 12.252278,4.4997149 C 12.174153,4.4059649 12.113606,4.3141680 12.070638,4.2243242 C 12.027669,4.1305742 12.006185,4.0251055 12.006185,3.9079180 C 12.006185,3.6266680 12.097981,3.3942461 12.281575,3.2106524 C 12.465169,3.0270586 12.672200,2.9352617 12.902669,2.9352617 C 13.125325,2.9352617 13.301106,2.9665117 13.430013,3.0290117 C 13.558919,3.0915117 13.691731,3.2126055 13.828450,3.3922930 L 14.824544,4.6403399 L 15.820638,3.3922930 C 15.965169,3.2126055 16.099935,3.0915117 16.224935,3.0290117 C 16.349935,2.9665117 16.523763,2.9352617 16.746419,2.9352617 C 16.976888,2.9352617 17.183919,3.0251055 17.367513,3.2047930 C 17.551106,3.3844805 17.642903,3.6188555 17.642903,3.9079180 C 17.642903,4.0251055 17.621419,4.1305742 17.578450,4.2243242 C 17.535481,4.3141680 17.472981,4.4059649 17.390950,4.4997149 C 17.312825,4.5895586 17.156575,4.7594805 16.922200,5.0094805 L 15.955403,6.0524492 L 17.549153,7.7692461 C 17.650716,7.8786211 17.736653,7.9977617 17.806966,8.1266680 C 17.881185,8.2516680 17.918294,8.4001055 17.918294,8.5719805 C 17.918294,8.8571367 17.826497,9.0876055 17.642903,9.2633867 C 17.459310,9.4352617 17.232747,9.5211992 16.963216,9.5211992 C 16.787435,9.5211992 16.642903,9.4840899 16.529622,9.4098711 C 16.420247,9.3356524 16.287435,9.2126055 16.131185,9.0407305 L 14.824544,7.4938555 L 13.517903,9.0407305 C 13.381185,9.1969805 13.252278,9.3161211 13.131185,9.3981524 C 13.010091,9.4801836 12.861653,9.5211992 12.685872,9.5211992 C 12.416341,9.5211992 12.189778,9.4352617 12.006185,9.2633867 C 11.822591,9.0876055 11.730794,8.8571367 11.730794,8.5719805 C 11.730794,8.4040117 11.762044,8.2614336 11.824544,8.1442461 C 11.890950,8.0270586 11.982747,7.9020586 12.099935,7.7692461 z " />
  <path
     style="fill:none;fill-opacity:0.75000000;fill-rule:evenodd;stroke:#333333;stroke-width:3.7072682;stroke-linecap:round;stroke-linejoin:round;stroke-dasharray:none;"
     transform="matrix(0.674351,0.000000,0.000000,0.674351,-8.270195,22.63560)"
     d="M 38.242925,25.828642 L 41.839144,24.347845 L 46.706654,42.513638 L 55.489460,9.7357608 L 92.397772,9.7357608"
     sodipodi:stroke-cmyk="(0.0000000 0.0000000 0.0000000 0.80000001)"
     id="path1017" />
  <metadata
     id="metadata18">
    <rdf:RDF
       id="RDF19">
      <cc:Work
         rdf:about=""
         id="Work20">
        <dc:title
           id="title21">Part of the Flat Icon Collection (Thu Aug 26 14:31:40 2004)</dc:title>
        <dc:description
           id="description23" />
        <dc:subject
           id="subject24">
          <rdf:Bag
             id="Bag25">
            <rdf:li
               id="li26" />
          </rdf:Bag>
        </dc:subject>
        <dc:publisher
           id="publisher27">
          <cc:Agent
             rdf:about=""
             id="Agent28">
            <dc:title
               id="title29" />
          </cc:Agent>
        </dc:publisher>
        <dc:creator
           id="creator30">
          <cc:Agent
             rdf:about=""
             id="Agent31">
            <dc:title
               id="title32">Danny Allen</dc:title>
          </cc:Agent>
        </dc:creator>
        <dc:rights
           id="rights34">
          <cc:Agent
             rdf:about=""
             id="Agent35">
            <dc:title
               id="title36">Danny Allen</dc:title>
          </cc:Agent>
        </dc:rights>
        <dc:date
           id="date38" />
        <dc:format
           id="format39">image/svg+xml</dc:format>
        <dc:type
           rdf:resource="http://purl.org/dc/dcmitype/StillImage"
           id="type41" />
        <cc:license
           rdf:resource="http://creativecommons.org/licenses/LGPL/2.1/"
           id="license42">
          <dc:date
             id="date43" />
        </cc:license>
        <dc:language
           id="language44">en</dc:language>
      </cc:Work>
    </rdf:RDF>
  </metadata>
</svg>
