<?xml version="1.0" encoding="UTF-8" standalone="no"?>
<!DOCTYPE svg PUBLIC "-//W3C//DTD SVG 20010904//EN"
"http://www.w3.org/TR/2001/REC-SVG-20010904/DTD/svg10.dtd">
<svg
   sodipodi:docname="ooo_draw.svg"
   sodipodi:version="0.32"
   height="60.0000000"
   width="60.0000000"
   _SVGFile__filename="scalable/apps/ooo_draw.svg"
   version="1.0"
   y="0"
   x="0"
   inkscape:version="0.39"
   id="svg1"
   sodipodi:docbase="/home/danny/work/flat/newscale/apps"
   xmlns="http://www.w3.org/2000/svg"
   xmlns:cc="http://web.resource.org/cc/"
   xmlns:inkscape="http://www.inkscape.org/namespaces/inkscape"
   xmlns:sodipodi="http://sodipodi.sourceforge.net/DTD/sodipodi-0.dtd"
   xmlns:rdf="http://www.w3.org/1999/02/22-rdf-syntax-ns#"
   xmlns:dc="http://purl.org/dc/elements/1.1/"
   xmlns:xlink="http://www.w3.org/1999/xlink">
  <sodipodi:namedview
     bordercolor="#666666"
     inkscape:pageshadow="2"
     inkscape:window-y="0"
     snaptoguides="true"
     pagecolor="#ffffff"
     inkscape:window-height="685"
     inkscape:zoom="6.9465337"
     inkscape:window-x="0"
     borderopacity="1.0"
     inkscape:cx="37.697545"
     inkscape:cy="29.932839"
     inkscape:window-width="1016"
     inkscape:pageopacity="0.0"
     id="base"
     showguides="true" />
  <defs
     id="defs3">
    <linearGradient
       id="linearGradient900">
      <stop
         style="stop-color:#000;stop-opacity:1;"
         id="stop901"
         offset="0" />
      <stop
         style="stop-color:#fff;stop-opacity:1;"
         id="stop902"
         offset="1" />
    </linearGradient>
    <linearGradient
       xlink:href="#linearGradient900"
       id="linearGradient903" />
    <linearGradient
       xlink:href="#linearGradient900"
       id="linearGradient904" />
    <linearGradient
       xlink:href="#linearGradient900"
       id="linearGradient905" />
    <linearGradient
       xlink:href="#linearGradient900"
       id="linearGradient906" />
    <linearGradient
       xlink:href="#linearGradient900"
       id="linearGradient907" />
  </defs>
  <path
     style="font-size:12.000000;fill:#b3b3b3;fill-opacity:1.0000000;fill-rule:evenodd;stroke:#333333;stroke-width:2.5000000;stroke-linejoin:round;"
     d="M 4.6123908,2.6844294 C 3.4013812,2.6844294 2.4264529,3.6593577 2.4264529,4.8703673 L 2.4264529,55.567560 C 2.4264529,56.778570 3.4013812,57.753498 4.6123908,57.753498 L 55.702933,57.753498 C 56.913942,57.753498 57.888870,56.778570 57.888870,55.567560 L 57.888870,4.8703673 C 57.888870,3.6593577 56.913942,2.6844294 55.702933,2.6844294 L 4.6123908,2.6844294 z "
     id="rect945" />
  <g
     id="g949"
     transform="matrix(0.781476,0.000000,0.000000,0.781476,0.656003,0.663180)"
     style="fill:#333333;fill-opacity:1.0000000;">
    <path
       style="fill:#333333;fill-rule:evenodd;stroke:#333333;stroke-opacity:1.0000000;stroke-width:1.5636013;stroke-linejoin:round;stroke-linecap:round;fill-opacity:1.0000000;stroke-dasharray:none;"
       d="M -32.570201,41.285630 C -23.033071,41.285630 -14.755560,44.884548 -12.236319,47.403790 C -10.076968,44.704602 -2.5192417,42.725197 8.8173473,42.725197 C -2.3392962,39.126280 -4.7381130,38.503235 -12.475786,41.562315 C -20.033512,37.783452 -23.392962,38.586442 -32.570201,41.285630 z "
       sodipodi:nodetypes="ccccc"
       transform="matrix(1.014920,-0.638678,0.638678,1.014920,9.328673,-14.49248)"
       sodipodi:stroke-cmyk="(0.0000000 0.0000000 0.0000000 0.80000001)"
       id="path943" />
    <path
       style="fill:#333333;fill-opacity:1.0000000;fill-rule:evenodd;stroke:#333333;stroke-width:2.7089621;stroke-linecap:round;stroke-linejoin:round;stroke-dasharray:none;stroke-opacity:1.0000000;"
       d="M 6.2396652,37.041241 C 15.919089,30.950086 26.618650,29.316036 30.784463,30.263881 C 31.252119,26.145291 37.658405,19.309400 49.164135,12.068970 C 35.542486,15.541860 32.709953,16.441591 26.810601,24.488194 C 16.726638,25.479903 13.829917,28.440481 6.2396652,37.041241 z "
       sodipodi:nodetypes="ccccc"
       transform="matrix(0.692147,0.000000,0.000000,0.692147,22.38394,-4.381191)"
       sodipodi:stroke-cmyk="(0.0000000 0.0000000 0.0000000 0.80000001)"
       id="path944" />
  </g>
  <path
     style="font-size:12.000000;fill:#4c4c4c;fill-rule:evenodd;stroke:#333333;stroke-width:3.1481507;stroke-linecap:round;stroke-linejoin:round;stroke-dasharray:none;fill-opacity:1.0000000;"
     d="M 1.3114764,76.029216 C -11.585412,85.412693 -11.585412,85.412693 -11.585412,85.412693 L -3.6387574,71.595004 L 1.3114764,76.029216 z "
     sodipodi:nodetypes="cccc"
     transform="matrix(0.794117,0.000000,0.000000,0.794117,26.05757,-14.12361)"
     sodipodi:stroke-cmyk="(0 0 0 0.8)"
     id="path599" />
  <rect
     style="font-size:12.000000;fill:#7f7f7f;fill-rule:evenodd;stroke:#333333;stroke-width:3.1481532;stroke-linecap:round;stroke-linejoin:round;stroke-dasharray:none;fill-opacity:1.0000000;"
     sodipodi:fill-cmyk="(0.0000000 0.0000000 0.0000000 0.50196081)"
     transform="matrix(-0.588979,-0.532658,0.532658,-0.588979,26.05757,-14.12361)"
     height="47.133200"
     width="6.5462773"
     sodipodi:stroke-cmyk="(0 0 0 0.8)"
     y="-55.493640"
     x="-51.924817"
     id="rect598" />
  <path
     transform="matrix(-0.797464,-0.721207,0.721207,-0.797464,54.81620,110.0266)"
     style="font-size:12.000000;fill:#333333;fill-rule:evenodd;stroke:#333333;stroke-width:2.3251152;stroke-linejoin:round;"
     d="M 61.966338,18.726221 C 61.966338,19.068626 61.688444,19.346521 61.346039,19.346521 C 61.003633,19.346521 60.725739,19.068626 60.725739,18.726221 C 60.725739,18.383816 61.003633,18.105922 61.346039,18.105922 C 61.688444,18.105922 61.966338,18.383816 61.966338,18.726221 z "
     id="path600" />
  <path
     transform="matrix(-0.588979,-0.532658,0.532658,-0.588979,26.05757,-14.12361)"
     style="font-size:12.000000;fill:#cccccc;fill-rule:evenodd;stroke:#333333;stroke-width:3.1481533;stroke-linejoin:round;"
     d="M -50.259670,-8.5072536 C -51.399755,-8.5072536 -52.317585,-7.6021653 -52.317585,-6.4779077 C -52.317585,-5.3536500 -51.399755,-4.4485617 -50.259670,-4.4485617 L -46.912744,-4.4485617 C -45.772659,-4.4485617 -44.854828,-5.3536500 -44.854828,-6.4779077 C -44.854828,-7.6021653 -45.772659,-8.5072536 -46.912744,-8.5072536 L -50.259670,-8.5072536 z "
     id="rect601" />
  <metadata
     id="metadata20">
    <rdf:RDF
       id="RDF21">
      <cc:Work
         rdf:about=""
         id="Work22">
        <dc:format
           id="format23">image/svg+xml</dc:format>
        <dc:type
           id="type25"
           rdf:resource="http://purl.org/dc/dcmitype/StillImage" />
      </cc:Work>
    </rdf:RDF>
  </metadata>
</svg>
