<?xml version="1.0" encoding="UTF-8" standalone="no"?>
<!DOCTYPE svg PUBLIC "-//W3C//DTD SVG 20010904//EN"
"http://www.w3.org/TR/2001/REC-SVG-20010904/DTD/svg10.dtd">
<svg
   sodipodi:docname="opera.svg"
   height="60.0000000"
   sodipodi:version="0.32"
   width="60.0000000"
   _SVGFile__filename="scalable/apps/opera.svg"
   version="1.0"
   y="0"
   x="0"
   inkscape:version="0.39"
   id="svg1"
   sodipodi:docbase="/home/danny/work/flat/newscale/apps"
   xmlns="http://www.w3.org/2000/svg"
   xmlns:cc="http://web.resource.org/cc/"
   xmlns:inkscape="http://www.inkscape.org/namespaces/inkscape"
   xmlns:sodipodi="http://sodipodi.sourceforge.net/DTD/sodipodi-0.dtd"
   xmlns:rdf="http://www.w3.org/1999/02/22-rdf-syntax-ns#"
   xmlns:dc="http://purl.org/dc/elements/1.1/"
   xmlns:xlink="http://www.w3.org/1999/xlink">
  <sodipodi:namedview
     bordercolor="#666666"
     inkscape:pageshadow="2"
     inkscape:window-y="0"
     pagecolor="#ffffff"
     inkscape:window-height="699"
     inkscape:zoom="6.9465337"
     inkscape:window-x="0"
     borderopacity="1.0"
     inkscape:cx="37.697540"
     inkscape:cy="16.435217"
     inkscape:window-width="1024"
     inkscape:pageopacity="0.0"
     id="base" />
  <defs
     id="defs3" />
  <g
     id="g1561"
     transform="translate(-0.393777,-0.589479)">
    <path
       transform="matrix(1.198840,0.000000,0.000000,1.028856,-6.210845,-1.110449)"
       style="fill:#b3b3b3;fill-opacity:1.0000000;fill-rule:evenodd;stroke:#333333;stroke-width:2.8137927;stroke-linecap:round;stroke-linejoin:round;stroke-miterlimit:4.0000000;stroke-opacity:1.0000000;"
       d="M 50.024950,30.848770 C 50.024950,45.251637 41.278142,56.940920 30.500824,56.940920 C 19.723506,56.940920 10.976698,45.251637 10.976698,30.848770 C 10.976698,16.445903 19.723506,4.7566204 30.500824,4.7566204 C 41.278142,4.7566204 50.024950,16.445903 50.024950,30.848770 z "
       id="path1014" />
    <path
       id="path829"
       style="font-size:12.000000;font-weight:900;fill:#333333;stroke-width:1.0000000pt;font-family:VAG Rounded Black SSi;"
       d="M 29.994872,7.7404935 C 32.075382,7.7404935 33.980351,8.2666475 35.709775,9.3189558 C 37.452201,10.371264 38.928065,11.871778 40.137361,13.820497 C 41.359663,15.769217 42.302393,18.146654 42.965554,20.952810 C 43.641720,23.739478 43.979804,26.818454 43.979804,30.189737 C 43.979804,33.561025 43.641720,36.649741 42.965554,39.455897 C 42.302393,42.262052 41.359663,44.649235 40.137361,46.617440 C 38.928065,48.566159 37.452201,50.066672 35.709775,51.118983 C 33.980351,52.171289 32.075382,52.697444 29.994872,52.697444 C 27.914361,52.697444 26.009392,52.171289 24.279969,51.118983 C 22.550545,50.066672 21.068179,48.556417 19.832879,46.588211 C 18.610577,44.620001 17.667846,42.242566 17.004683,39.455897 C 16.341522,36.649741 16.009939,33.561025 16.009939,30.189737 C 16.009939,26.818454 16.341522,23.739478 17.004683,20.952810 C 17.680848,18.146654 18.630084,15.769217 19.852382,13.820497 C 21.074684,11.871778 22.550545,10.371264 24.279969,9.3189558 C 26.009392,8.2666475 27.914361,7.7404935 29.994872,7.7404935 z M 29.994872,16.772807 C 28.421486,16.772807 27.101660,17.396397 26.035400,18.643577 C 24.969137,19.890757 24.188945,21.547169 23.694826,23.612811 C 23.200703,25.658966 22.953645,27.851274 22.953645,30.189737 C 22.953645,32.547691 23.200703,34.759485 23.694826,36.825125 C 24.188945,38.890770 24.969137,40.547180 26.035400,41.794360 C 27.101660,43.041540 28.421486,43.665130 29.994872,43.665130 C 31.568257,43.665130 32.881582,43.051283 33.934839,41.823594 C 35.001099,40.576414 35.781291,38.939489 36.275414,36.912822 C 36.769533,34.866663 37.016595,32.625639 37.016595,30.189737 C 37.016595,27.773325 36.769533,25.551787 36.275414,23.525119 C 35.781291,21.498451 35.001099,19.871270 33.934839,18.643577 C 32.881582,17.396397 31.568257,16.772807 29.994872,16.772807 z "
       transform="matrix(0.985779,0.000000,0.000000,0.985779,0.786459,0.839255)" />
  </g>
  <metadata
     id="metadata6">
    <rdf:RDF
       id="RDF7">
      <cc:Work
         rdf:about=""
         id="Work8">
        <dc:title
           id="title9">Part of the Flat Icon Collection (Thu Aug 26 14:31:40 2004)</dc:title>
        <dc:description
           id="description11" />
        <dc:subject
           id="subject12">
          <rdf:Bag
             id="Bag13">
            <rdf:li
               id="li14" />
          </rdf:Bag>
        </dc:subject>
        <dc:publisher
           id="publisher15">
          <cc:Agent
             rdf:about=""
             id="Agent16">
            <dc:title
               id="title17" />
          </cc:Agent>
        </dc:publisher>
        <dc:creator
           id="creator18">
          <cc:Agent
             rdf:about=""
             id="Agent19">
            <dc:title
               id="title20">Danny Allen</dc:title>
          </cc:Agent>
        </dc:creator>
        <dc:rights
           id="rights22">
          <cc:Agent
             rdf:about=""
             id="Agent23">
            <dc:title
               id="title24">Danny Allen</dc:title>
          </cc:Agent>
        </dc:rights>
        <dc:date
           id="date26" />
        <dc:format
           id="format27">image/svg+xml</dc:format>
        <dc:type
           rdf:resource="http://purl.org/dc/dcmitype/StillImage"
           id="type29" />
        <cc:license
           rdf:resource="http://creativecommons.org/licenses/LGPL/2.1/"
           id="license30">
          <dc:date
             id="date31" />
        </cc:license>
        <dc:language
           id="language32">en</dc:language>
      </cc:Work>
    </rdf:RDF>
  </metadata>
</svg>
