<?xml version="1.0" encoding="UTF-8" standalone="no"?>
<!DOCTYPE svg PUBLIC "-//W3C//DTD SVG 20010904//EN"
"http://www.w3.org/TR/2001/REC-SVG-20010904/DTD/svg10.dtd">
<svg
   sodipodi:docname="appearance.svg"
   sodipodi:version="0.32"
   height="60.0000000"
   width="60.0000000"
   _SVGFile__filename="scalable/actions/appearance.svg"
   version="1.0"
   y="0"
   x="0"
   inkscape:version="0.39"
   id="svg1"
   sodipodi:docbase="/home/danny/work/flat/newscale/actions"
   xmlns="http://www.w3.org/2000/svg"
   xmlns:cc="http://web.resource.org/cc/"
   xmlns:inkscape="http://www.inkscape.org/namespaces/inkscape"
   xmlns:sodipodi="http://sodipodi.sourceforge.net/DTD/sodipodi-0.dtd"
   xmlns:rdf="http://www.w3.org/1999/02/22-rdf-syntax-ns#"
   xmlns:dc="http://purl.org/dc/elements/1.1/"
   xmlns:xlink="http://www.w3.org/1999/xlink">
  <sodipodi:namedview
     bordercolor="#666666"
     inkscape:pageshadow="2"
     inkscape:window-y="0"
     pagecolor="#ffffff"
     inkscape:window-height="685"
     inkscape:zoom="6.9465337"
     inkscape:window-x="0"
     borderopacity="1.0"
     inkscape:cx="30.441564"
     inkscape:cy="31.116550"
     inkscape:window-width="1016"
     inkscape:pageopacity="0.0"
     id="base" />
  <defs
     id="defs3">
    <linearGradient
       id="linearGradient900">
      <stop
         style="stop-color:#000;stop-opacity:1;"
         id="stop901"
         offset="0" />
      <stop
         style="stop-color:#fff;stop-opacity:1;"
         id="stop902"
         offset="1" />
    </linearGradient>
    <linearGradient
       xlink:href="#linearGradient900"
       id="linearGradient903" />
    <linearGradient
       xlink:href="#linearGradient900"
       id="linearGradient904" />
    <linearGradient
       xlink:href="#linearGradient900"
       id="linearGradient905" />
    <linearGradient
       xlink:href="#linearGradient900"
       id="linearGradient906" />
    <linearGradient
       xlink:href="#linearGradient900"
       id="linearGradient907" />
  </defs>
  <metadata
     id="metadata18">
    <rdf:RDF
       id="RDF19">
      <cc:Work
         rdf:about=""
         id="Work20">
        <dc:format
           id="format21">image/svg+xml</dc:format>
        <dc:type
           id="type23"
           rdf:resource="http://purl.org/dc/dcmitype/StillImage" />
      </cc:Work>
    </rdf:RDF>
  </metadata>
  <g
     id="g1547"
     transform="translate(-0.106347,0.203202)">
    <path
       style="fill:#cccccc;fill-opacity:1.0000000;fill-rule:evenodd;stroke:#4c4c4c;stroke-width:3.1250000;stroke-linecap:round;stroke-linejoin:round;stroke-opacity:1.0000000;"
       d="M 34.100572,13.429816 C 0.25448188,17.247044 -11.706166,24.627019 -0.50896376,38.623522 C 10.688239,52.620026 33.846090,57.200700 36.136427,52.365544 C 39.190210,44.476605 56.749459,36.078703 44.788811,32.261475 C 28.247488,26.153910 36.136427,14.193262 34.100572,13.429816 z "
       sodipodi:nodetypes="ccccc"
       transform="translate(7.634457,2.544819)"
       sodipodi:stroke-cmyk="(0.0000000 0.0000000 0.0000000 0.69999999)"
       id="path994" />
    <path
       transform="matrix(0.854632,0.000000,0.331296,0.854632,46.19304,25.79165)"
       style="fill:#4c4c4c;fill-opacity:1.0000000;fill-rule:evenodd;stroke:#4c4c4c;stroke-width:2.1939268;stroke-linecap:round;stroke-linejoin:round;stroke-opacity:1.0000000;"
       d="M -15.014431,24.245296 C -15.014431,28.248805 -18.263655,31.498030 -22.267164,31.498030 C -26.270673,31.498030 -29.519898,28.248805 -29.519898,24.245296 C -29.519898,20.241787 -26.270673,16.992563 -22.267164,16.992563 C -18.263655,16.992563 -15.014431,20.241787 -15.014431,24.245296 z "
       id="path995" />
    <path
       transform="matrix(0.854632,0.000000,0.331296,0.854632,28.63379,18.41167)"
       style="fill:#b3b3b3;fill-opacity:1.0000000;fill-rule:evenodd;stroke:#4c4c4c;stroke-width:2.1939268;stroke-linecap:round;stroke-linejoin:round;stroke-opacity:1.0000000;"
       d="M -15.014431,24.245296 C -15.014431,28.248805 -18.263655,31.498030 -22.267164,31.498030 C -26.270673,31.498030 -29.519898,28.248805 -29.519898,24.245296 C -29.519898,20.241787 -26.270673,16.992563 -22.267164,16.992563 C -18.263655,16.992563 -15.014431,20.241787 -15.014431,24.245296 z "
       id="path996" />
    <path
       transform="matrix(0.854632,0.000000,0.331296,0.854632,37.79514,7.977915)"
       style="fill:#7f7f7f;fill-opacity:1.0000000;fill-rule:evenodd;stroke:#4c4c4c;stroke-width:2.1939268;stroke-linecap:round;stroke-linejoin:round;stroke-miterlimit:4.0000000;stroke-opacity:1.0000000;"
       d="M -15.014431,24.245296 C -15.014431,28.248805 -18.263655,31.498030 -22.267164,31.498030 C -26.270673,31.498030 -29.519898,28.248805 -29.519898,24.245296 C -29.519898,20.241787 -26.270673,16.992563 -22.267164,16.992563 C -18.263655,16.992563 -15.014431,20.241787 -15.014431,24.245296 z "
       id="path997" />
    <path
       style="font-size:12.000000;fill:#b3b3b3;fill-rule:evenodd;stroke:none;stroke-width:3.1250000;stroke-linecap:round;stroke-linejoin:round;"
       transform="translate(-0.763446,0.508964)"
       d="M 53.093750,2.7500000 L 40.281250,16.937500 L 45.125000,21.312500 L 58.031250,7.0625000 L 58.031250,2.7500000 L 53.093750,2.7500000 z "
       id="path1014" />
    <path
       style="font-size:12.000000;fill:none;fill-rule:evenodd;stroke:#333333;stroke-width:3.1250000;stroke-linecap:round;stroke-linejoin:round;"
       transform="translate(-0.763446,0.508964)"
       d="M 53.093750,2.7500000 L 40.281250,16.937500 M 45.125000,21.312500 L 58.031250,7.0625000"
       id="path1543"
       sodipodi:nodetypes="cccc" />
    <path
       style="fill:#4c4c4c;fill-rule:evenodd;stroke:#333333;stroke-width:3.1250010;stroke-linecap:round;stroke-linejoin:round;"
       d="M 34.394279,27.687409 C 36.471764,28.960242 44.853719,35.357204 43.431125,37.106482 C 36.252955,37.837903 29.216180,35.813187 21.446825,43.221152 C 27.889846,21.407402 34.394279,27.687409 34.394279,27.687409 z "
       sodipodi:nodetypes="cccc"
       transform="translate(6.362047,-13.23306)"
       sodipodi:stroke-cmyk="(0.0000000 0.0000000 0.0000000 0.80000001)"
       id="path833" />
  </g>
</svg>
