<?xml version="1.0" encoding="UTF-8" standalone="no"?>
<!DOCTYPE svg PUBLIC "-//W3C//DTD SVG 20010904//EN"
"http://www.w3.org/TR/2001/REC-SVG-20010904/DTD/svg10.dtd">
<svg
   sodipodi:docname="package_toys.svg"
   height="60.0000000"
   sodipodi:version="0.32"
   width="60.0000000"
   _SVGFile__filename="scalable/apps/package_toys.svg"
   version="1.0"
   y="0"
   x="0"
   inkscape:version="0.39"
   id="svg1"
   sodipodi:docbase="/home/danny/work/flat/newscale/apps"
   xmlns="http://www.w3.org/2000/svg"
   xmlns:cc="http://web.resource.org/cc/"
   xmlns:inkscape="http://www.inkscape.org/namespaces/inkscape"
   xmlns:sodipodi="http://sodipodi.sourceforge.net/DTD/sodipodi-0.dtd"
   xmlns:rdf="http://www.w3.org/1999/02/22-rdf-syntax-ns#"
   xmlns:dc="http://purl.org/dc/elements/1.1/"
   xmlns:xlink="http://www.w3.org/1999/xlink">
  <sodipodi:namedview
     bordercolor="#666666"
     inkscape:pageshadow="2"
     inkscape:window-y="0"
     pagecolor="#ffffff"
     inkscape:window-height="699"
     inkscape:zoom="9.8238822"
     inkscape:window-x="0"
     borderopacity="1.0"
     inkscape:cx="36.213486"
     inkscape:cy="17.859322"
     inkscape:window-width="1024"
     inkscape:pageopacity="0.0"
     id="base" />
  <defs
     id="defs3" />
  <path
     style="font-size:12.000000;fill:#4c4c4c;fill-rule:evenodd;stroke:#333333;stroke-width:3.4778099;stroke-linecap:round;stroke-linejoin:round;"
     d="M 23.691738,56.795718 L 34.729551,46.123396 L 34.729551,28.433656 L 23.764836,38.813587 L 23.691738,56.795718 z "
     sodipodi:nodetypes="ccccc"
     transform="matrix(0.898555,0.000000,0.000000,0.898555,-0.685720,1.278275)"
     sodipodi:stroke-cmyk="(0 0 0 0.8)"
     id="path653" />
  <path
     style="font-size:12.000000;fill:#7f7f7f;fill-opacity:1.0000000;fill-rule:evenodd;stroke:#333333;stroke-width:3.4778099;stroke-linecap:round;stroke-linejoin:round;"
     d="M 5.3441165,38.228801 L 15.724046,28.141265 L 34.729551,28.141265 L 23.618641,39.032880 L 5.3441165,38.228801 z "
     fill-opacity="1.0"
     sodipodi:nodetypes="ccccc"
     transform="matrix(0.898555,0.000000,0.000000,0.898555,-0.685720,1.278275)"
     sodipodi:stroke-cmyk="(0 0 0 0.8)"
     id="path654" />
  <path
     transform="matrix(0.898555,0.000000,0.000000,0.898555,-0.685720,1.278275)"
     style="font-size:12.000000;fill:#b3b3b3;fill-rule:evenodd;stroke:#333333;stroke-width:3.4778099;stroke-linecap:round;stroke-linejoin:round;"
     d="M 6.7339673,37.511471 C 5.8337778,37.511471 5.1090765,38.236172 5.1090765,39.136362 L 5.1090765,55.321328 C 5.1090765,56.221517 5.8337778,56.946218 6.7339673,56.946218 L 22.918933,56.946218 C 23.819123,56.946218 24.543824,56.221517 24.543824,55.321328 L 24.543824,39.136362 C 24.543824,38.236172 23.819123,37.511471 22.918933,37.511471 L 6.7339673,37.511471 z "
     id="rect648" />
  <path
     style="font-size:12.000000;fill:#4c4c4c;fill-rule:evenodd;stroke:#333333;stroke-width:3.4778099;stroke-linecap:round;stroke-linejoin:round;"
     d="M 23.691738,56.795718 L 34.729551,46.123396 L 34.729551,28.433656 L 23.764836,38.813587 L 23.691738,56.795718 z "
     sodipodi:nodetypes="ccccc"
     transform="matrix(0.898555,0.000000,0.000000,0.898555,25.29660,1.278275)"
     sodipodi:stroke-cmyk="(0 0 0 0.8)"
     id="path989" />
  <path
     style="font-size:12.000000;fill:#7f7f7f;fill-opacity:1.0000000;fill-rule:evenodd;stroke:#333333;stroke-width:3.4778099;stroke-linecap:round;stroke-linejoin:round;"
     d="M 5.3441165,38.228801 L 15.724046,28.141265 L 34.729551,28.141265 L 23.618641,39.032880 L 5.3441165,38.228801 z "
     fill-opacity="1.0"
     sodipodi:nodetypes="ccccc"
     transform="matrix(0.898555,0.000000,0.000000,0.898555,25.29660,1.278275)"
     sodipodi:stroke-cmyk="(0 0 0 0.8)"
     id="path990" />
  <path
     transform="matrix(0.898555,0.000000,0.000000,0.898555,25.29660,1.278275)"
     style="font-size:12.000000;fill:#b3b3b3;fill-rule:evenodd;stroke:#333333;stroke-width:3.4778099;stroke-linecap:round;stroke-linejoin:round;"
     d="M 6.7339673,37.511471 C 5.8337778,37.511471 5.1090765,38.236172 5.1090765,39.136362 L 5.1090765,55.321328 C 5.1090765,56.221517 5.8337778,56.946218 6.7339673,56.946218 L 22.918933,56.946218 C 23.819123,56.946218 24.543824,56.221517 24.543824,55.321328 L 24.543824,39.136362 C 24.543824,38.236172 23.819123,37.511471 22.918933,37.511471 L 6.7339673,37.511471 z "
     id="path991" />
  <path
     style="font-size:12.000000;fill:#4c4c4c;fill-rule:evenodd;stroke:#333333;stroke-width:3.4778099;stroke-linecap:round;stroke-linejoin:round;"
     d="M 23.691738,56.795718 L 34.729551,46.123396 L 34.729551,28.433656 L 23.764836,38.813587 L 23.691738,56.795718 z "
     sodipodi:nodetypes="ccccc"
     transform="matrix(0.898555,0.000000,0.000000,0.898555,12.07327,-16.18438)"
     sodipodi:stroke-cmyk="(0 0 0 0.8)"
     id="path992" />
  <path
     style="font-size:12.000000;fill:#7f7f7f;fill-opacity:1.0000000;fill-rule:evenodd;stroke:#333333;stroke-width:3.4778099;stroke-linecap:round;stroke-linejoin:round;"
     d="M 5.3441165,38.228801 L 15.724046,28.141265 L 34.729551,28.141265 L 23.618641,39.032880 L 5.3441165,38.228801 z "
     fill-opacity="1.0"
     sodipodi:nodetypes="ccccc"
     transform="matrix(0.898555,0.000000,0.000000,0.898555,12.07327,-16.18438)"
     sodipodi:stroke-cmyk="(0 0 0 0.8)"
     id="path993" />
  <path
     transform="matrix(0.898555,0.000000,0.000000,0.898555,12.07327,-16.18438)"
     style="font-size:12.000000;fill:#b3b3b3;fill-rule:evenodd;stroke:#333333;stroke-width:3.4778099;stroke-linecap:round;stroke-linejoin:round;"
     d="M 6.7339673,37.511471 C 5.8337778,37.511471 5.1090765,38.236172 5.1090765,39.136362 L 5.1090765,55.321328 C 5.1090765,56.221517 5.8337778,56.946218 6.7339673,56.946218 L 22.918933,56.946218 C 23.819123,56.946218 24.543824,56.221517 24.543824,55.321328 L 24.543824,39.136362 C 24.543824,38.236172 23.819123,37.511471 22.918933,37.511471 L 6.7339673,37.511471 z "
     id="path994" />
  <path
     id="path845"
     style="font-size:12.000000;font-weight:900;fill:#333333;stroke-width:1.0000000pt;font-family:VAG Rounded Black SSi;"
     d="M 8.3473426,47.033210 L 9.4095423,39.313469 C 9.4629161,38.925565 9.6076182,38.642146 9.8436511,38.463210 C 10.079683,38.284276 10.364588,38.217772 10.698366,38.263698 C 11.036655,38.310245 11.293322,38.448969 11.468366,38.679870 C 11.647921,38.911391 11.710392,39.225615 11.655777,39.622540 L 11.274092,42.396504 L 14.828475,39.411065 C 15.063099,39.208958 15.262056,39.082370 15.425344,39.031303 C 15.589251,38.975725 15.768181,38.961280 15.962134,38.987967 C 16.228253,39.024584 16.465636,39.169846 16.674284,39.423754 C 16.888061,39.673773 16.974780,39.945373 16.934439,40.238558 C 16.895340,40.522719 16.705222,40.802188 16.364083,41.076963 L 13.317369,43.429080 L 15.799847,47.031454 C 15.988589,47.296411 16.119770,47.512084 16.193389,47.678475 C 16.272141,47.840976 16.298483,48.016948 16.272417,48.206389 C 16.224008,48.558209 16.073386,48.817834 15.820554,48.985266 C 15.567720,49.152697 15.274415,49.213449 14.940637,49.167522 C 14.800812,49.148283 14.671475,49.102912 14.552628,49.031408 C 14.438291,48.960525 14.327059,48.867090 14.218929,48.751102 C 14.111419,48.630603 14.015496,48.509400 13.931161,48.387494 C 13.847444,48.261078 13.765364,48.139482 13.684917,48.022707 L 11.046943,44.047352 L 10.593577,47.342281 C 10.539583,47.734695 10.394569,48.020370 10.158537,48.199304 C 9.9276363,48.374350 9.6430416,48.438598 9.3047529,48.392052 C 8.9754859,48.346746 8.7191294,48.205768 8.5356839,47.969114 C 8.3573692,47.728571 8.2945895,47.416603 8.3473426,47.033210 z " />
  <path
     id="path844"
     style="font-size:12.000000;font-weight:900;fill:#333333;stroke-width:1.0000000pt;font-family:VAG Rounded Black SSi;"
     d="M 23.272069,23.427686 L 24.127835,29.183159 L 25.316759,29.006381 C 25.749095,28.942099 26.114758,28.816382 26.413749,28.629231 C 26.716573,28.436906 26.954399,28.194407 27.127226,27.901732 C 27.300053,27.609057 27.411807,27.277131 27.462488,26.905953 C 27.513169,26.534776 27.505029,26.124012 27.438068,25.673662 C 27.310841,24.817997 26.998065,24.169440 26.499739,23.727992 C 26.000744,23.282040 25.352686,23.118325 24.555567,23.236846 L 23.272069,23.427686 z M 22.028724,30.482628 L 20.886699,22.801908 C 20.835138,22.455139 20.904628,22.164020 21.095167,21.928551 C 21.289540,21.687909 21.537594,21.545157 21.839327,21.500293 L 24.521162,21.101538 C 25.462394,20.961589 26.313594,21.067481 27.074764,21.419214 C 27.839768,21.765774 28.460574,22.287976 28.937183,22.985822 C 29.413123,23.679165 29.715040,24.455920 29.842937,25.316089 C 29.960788,26.108705 29.945328,26.840589 29.796554,27.511741 C 29.651614,28.177721 29.395453,28.761272 29.028069,29.262394 C 28.660686,29.763517 28.216434,30.165595 27.695315,30.468629 C 27.173526,30.767159 26.608645,30.961623 26.000673,31.052021 L 23.318838,31.450776 C 23.017104,31.495640 22.738583,31.433483 22.483276,31.264307 C 22.231801,31.089957 22.080284,30.829397 22.028724,30.482628 z " />
  <path
     id="path843"
     style="font-size:12.000000;font-weight:900;fill:#333333;stroke-width:1.0000000pt;font-family:VAG Rounded Black SSi;"
     d="M 36.179850,47.909733 L 35.270146,40.198047 C 35.229074,39.849880 35.307318,39.560991 35.504876,39.331379 C 35.706423,39.096714 35.958671,38.961512 36.261622,38.925775 L 39.707124,38.519328 C 40.064335,38.477190 40.351357,38.539607 40.568191,38.706582 C 40.789547,38.873021 40.919427,39.119022 40.957832,39.444581 C 40.996236,39.770140 40.926896,40.037348 40.749812,40.246205 C 40.572728,40.455062 40.307842,40.580293 39.955152,40.621898 L 37.635543,40.895529 L 37.849968,42.713236 L 39.972886,42.462807 C 40.325575,42.421202 40.612330,42.481359 40.833152,42.643277 C 41.053974,42.805197 41.183588,43.048935 41.221992,43.374495 C 41.260930,43.704575 41.191857,43.974044 41.014773,44.182901 C 40.837689,44.391759 40.572803,44.516990 40.220114,44.558595 L 38.097196,44.809024 L 38.317221,46.674207 L 40.718221,46.390974 C 41.070910,46.349369 41.357666,46.409526 41.578488,46.571444 C 41.798777,46.728841 41.928656,46.974842 41.968127,47.309444 C 42.006532,47.635003 41.937459,47.904472 41.760909,48.117851 C 41.584359,48.331230 41.319738,48.458722 40.967050,48.500327 L 37.440158,48.916375 C 37.137207,48.952112 36.860689,48.881578 36.610603,48.704774 C 36.364506,48.522913 36.220922,48.257900 36.179850,47.909733 z " />
  <metadata
     id="metadata16">
    <rdf:RDF
       id="RDF17">
      <cc:Work
         rdf:about=""
         id="Work18">
        <dc:title
           id="title19">Part of the Flat Icon Collection (Thu Aug 26 14:31:40 2004)</dc:title>
        <dc:description
           id="description21" />
        <dc:subject
           id="subject22">
          <rdf:Bag
             id="Bag23">
            <rdf:li
               id="li24" />
          </rdf:Bag>
        </dc:subject>
        <dc:publisher
           id="publisher25">
          <cc:Agent
             rdf:about=""
             id="Agent26">
            <dc:title
               id="title27" />
          </cc:Agent>
        </dc:publisher>
        <dc:creator
           id="creator28">
          <cc:Agent
             rdf:about=""
             id="Agent29">
            <dc:title
               id="title30">Danny Allen</dc:title>
          </cc:Agent>
        </dc:creator>
        <dc:rights
           id="rights32">
          <cc:Agent
             rdf:about=""
             id="Agent33">
            <dc:title
               id="title34">Danny Allen</dc:title>
          </cc:Agent>
        </dc:rights>
        <dc:date
           id="date36" />
        <dc:format
           id="format37">image/svg+xml</dc:format>
        <dc:type
           rdf:resource="http://purl.org/dc/dcmitype/StillImage"
           id="type39" />
        <cc:license
           rdf:resource="http://creativecommons.org/licenses/LGPL/2.1/"
           id="license40">
          <dc:date
             id="date41" />
        </cc:license>
        <dc:language
           id="language42">en</dc:language>
      </cc:Work>
    </rdf:RDF>
  </metadata>
</svg>
