<?xml version="1.0" encoding="UTF-8" standalone="no"?>
<!DOCTYPE svg PUBLIC "-//W3C//DTD SVG 20010904//EN"
"http://www.w3.org/TR/2001/REC-SVG-20010904/DTD/svg10.dtd">
<svg
   sodipodi:docname="edu_miscellaneous.svg"
   height="60.0000000"
   sodipodi:version="0.32"
   width="60.0000000"
   _SVGFile__filename="scalable/apps/edu_miscellaneous.svg"
   version="1.0"
   y="0"
   x="0"
   inkscape:version="0.39"
   id="svg1"
   sodipodi:docbase="/home/danny/work/flat/newscale/apps"
   xmlns="http://www.w3.org/2000/svg"
   xmlns:cc="http://web.resource.org/cc/"
   xmlns:inkscape="http://www.inkscape.org/namespaces/inkscape"
   xmlns:sodipodi="http://sodipodi.sourceforge.net/DTD/sodipodi-0.dtd"
   xmlns:rdf="http://www.w3.org/1999/02/22-rdf-syntax-ns#"
   xmlns:dc="http://purl.org/dc/elements/1.1/"
   xmlns:xlink="http://www.w3.org/1999/xlink">
  <sodipodi:namedview
     bordercolor="#666666"
     inkscape:pageshadow="2"
     inkscape:window-y="0"
     pagecolor="#ffffff"
     inkscape:window-height="699"
     inkscape:zoom="9.8238822"
     inkscape:window-x="0"
     borderopacity="1.0"
     inkscape:cx="36.239636"
     inkscape:cy="24.719634"
     inkscape:window-width="1024"
     inkscape:pageopacity="0.0"
     id="base" />
  <defs
     id="defs3" />
  <g
     id="g1606"
     transform="translate(4.194114e-2,-0.121332)">
    <path
       style="fill:#7f7f7f;fill-opacity:1.0000000;fill-rule:evenodd;stroke:#333333;stroke-width:3.0120220;stroke-linecap:round;stroke-linejoin:round;stroke-opacity:1.0000000;"
       transform="matrix(1.037509,0.000000,0.000000,1.037509,-0.891976,-0.624781)"
       d="M 4.9891038,55.801049 L 12.138905,43.331437 L 8.7828759,4.6501913 L 4.9891038,55.801049 z "
       sodipodi:stroke-cmyk="(0.0000000 0.0000000 0.0000000 0.80000001)"
       id="path838" />
    <path
       style="fill:none;fill-opacity:0.75000000;fill-rule:evenodd;stroke:#333333;stroke-width:2.5000000;stroke-linecap:round;stroke-linejoin:round;stroke-miterlimit:4.0000000;stroke-opacity:1.0000000;"
       d="M 8.8770320,5.3879570 L 52.045486,5.3879570 M 9.4050860,13.284910 L 51.913472,13.539393 M 8.6130050,21.493618 L 52.309513,21.493618 M 9.4050860,30.470544 L 52.573540,30.470544 M 8.8770320,39.051430 L 53.497635,39.051430"
       sodipodi:nodetypes="cccccccccc"
       sodipodi:stroke-cmyk="(0.0000000 0.0000000 0.0000000 0.80000001)"
       id="path839" />
    <path
       style="fill:#7f7f7f;fill-opacity:1.0000000;fill-rule:evenodd;stroke:#333333;stroke-width:3.9777508;stroke-linecap:round;stroke-linejoin:round;stroke-opacity:1.0000000;"
       transform="matrix(0.594885,0.000000,0.000000,1.037509,23.45985,-0.624781)"
       d="M 41.922358,55.801049 L 54.391970,43.331437 L 48.538887,4.6501913 L 41.922358,55.801049 z "
       sodipodi:stroke-cmyk="(0.0000000 0.0000000 0.0000000 0.80000001)"
       id="path837" />
    <path
       transform="translate(0.000000,0.381723)"
       style="fill:#4c4c4c;fill-opacity:1.0000000;fill-rule:evenodd;stroke:#333333;stroke-width:1.0000000pt;stroke-opacity:1.0000000;"
       d="M 17.177527,5.1591549 C 17.177527,6.7746058 16.407974,8.0856965 15.459774,8.0856965 C 14.511575,8.0856965 13.742021,6.7746058 13.742021,5.1591549 C 13.742021,3.5437039 14.511575,2.2326133 15.459774,2.2326133 C 16.407974,2.2326133 17.177527,3.5437039 17.177527,5.1591549 z "
       id="path840" />
    <path
       transform="translate(3.543307,0.381723)"
       style="fill:#7f7f7f;fill-opacity:1.0000000;fill-rule:evenodd;stroke:#333333;stroke-width:1.0000000pt;stroke-opacity:1.0000000;"
       d="M 17.177527,5.1591549 C 17.177527,6.7746058 16.407974,8.0856965 15.459774,8.0856965 C 14.511575,8.0856965 13.742021,6.7746058 13.742021,5.1591549 C 13.742021,3.5437039 14.511575,2.2326133 15.459774,2.2326133 C 16.407974,2.2326133 17.177527,3.5437039 17.177527,5.1591549 z "
       id="path841" />
    <path
       transform="translate(7.086614,0.381723)"
       style="fill:#7f7f7f;fill-opacity:1.0000000;fill-rule:evenodd;stroke:#333333;stroke-width:1.0000000pt;stroke-opacity:1.0000000;"
       d="M 17.177527,5.1591549 C 17.177527,6.7746058 16.407974,8.0856965 15.459774,8.0856965 C 14.511575,8.0856965 13.742021,6.7746058 13.742021,5.1591549 C 13.742021,3.5437039 14.511575,2.2326133 15.459774,2.2326133 C 16.407974,2.2326133 17.177527,3.5437039 17.177527,5.1591549 z "
       id="path842" />
    <path
       transform="translate(10.62992,0.381723)"
       style="fill:#7f7f7f;fill-opacity:1.0000000;fill-rule:evenodd;stroke:#333333;stroke-width:1.0000000pt;stroke-opacity:1.0000000;"
       d="M 17.177527,5.1591549 C 17.177527,6.7746058 16.407974,8.0856965 15.459774,8.0856965 C 14.511575,8.0856965 13.742021,6.7746058 13.742021,5.1591549 C 13.742021,3.5437039 14.511575,2.2326133 15.459774,2.2326133 C 16.407974,2.2326133 17.177527,3.5437039 17.177527,5.1591549 z "
       id="path843" />
    <path
       transform="translate(28.34647,0.381723)"
       style="fill:#7f7f7f;fill-opacity:1.0000000;fill-rule:evenodd;stroke:#333333;stroke-width:1.0000000pt;stroke-opacity:1.0000000;"
       d="M 17.177527,5.1591549 C 17.177527,6.7746058 16.407974,8.0856965 15.459774,8.0856965 C 14.511575,8.0856965 13.742021,6.7746058 13.742021,5.1591549 C 13.742021,3.5437039 14.511575,2.2326133 15.459774,2.2326133 C 16.407974,2.2326133 17.177527,3.5437039 17.177527,5.1591549 z "
       id="path844" />
    <path
       transform="matrix(-1.000000,0.000000,0.000000,1.000000,30.91955,8.231782)"
       style="fill:#7f7f7f;fill-opacity:1.0000000;fill-rule:evenodd;stroke:#333333;stroke-width:1.0000000pt;stroke-opacity:1.0000000;"
       d="M 17.177527,5.1591549 C 17.177527,6.7746058 16.407974,8.0856965 15.459774,8.0856965 C 14.511575,8.0856965 13.742021,6.7746058 13.742021,5.1591549 C 13.742021,3.5437039 14.511575,2.2326133 15.459774,2.2326133 C 16.407974,2.2326133 17.177527,3.5437039 17.177527,5.1591549 z "
       id="path845" />
    <path
       transform="matrix(-1.000000,0.000000,0.000000,1.000000,34.46286,8.231782)"
       style="fill:#7f7f7f;fill-opacity:1.0000000;fill-rule:evenodd;stroke:#333333;stroke-width:1.0000000pt;stroke-opacity:1.0000000;"
       d="M 17.177527,5.1591549 C 17.177527,6.7746058 16.407974,8.0856965 15.459774,8.0856965 C 14.511575,8.0856965 13.742021,6.7746058 13.742021,5.1591549 C 13.742021,3.5437039 14.511575,2.2326133 15.459774,2.2326133 C 16.407974,2.2326133 17.177527,3.5437039 17.177527,5.1591549 z "
       id="path846" />
    <path
       transform="matrix(-1.000000,0.000000,0.000000,1.000000,38.00617,8.231782)"
       style="fill:#4c4c4c;fill-opacity:1.0000000;fill-rule:evenodd;stroke:#333333;stroke-width:1.0000000pt;stroke-opacity:1.0000000;"
       d="M 17.177527,5.1591549 C 17.177527,6.7746058 16.407974,8.0856965 15.459774,8.0856965 C 14.511575,8.0856965 13.742021,6.7746058 13.742021,5.1591549 C 13.742021,3.5437039 14.511575,2.2326133 15.459774,2.2326133 C 16.407974,2.2326133 17.177527,3.5437039 17.177527,5.1591549 z "
       id="path847" />
    <path
       transform="translate(28.34644,16.69861)"
       style="fill:#7f7f7f;fill-opacity:1.0000000;fill-rule:evenodd;stroke:#333333;stroke-width:1.0000000pt;stroke-opacity:1.0000000;"
       d="M 17.177527,5.1591549 C 17.177527,6.7746058 16.407974,8.0856965 15.459774,8.0856965 C 14.511575,8.0856965 13.742021,6.7746058 13.742021,5.1591549 C 13.742021,3.5437039 14.511575,2.2326133 15.459774,2.2326133 C 16.407974,2.2326133 17.177527,3.5437039 17.177527,5.1591549 z "
       id="path848" />
    <path
       transform="translate(3.543306,16.69861)"
       style="fill:#7f7f7f;fill-opacity:1.0000000;fill-rule:evenodd;stroke:#333333;stroke-width:1.0000000pt;stroke-opacity:1.0000000;"
       d="M 17.177527,5.1591549 C 17.177527,6.7746058 16.407974,8.0856965 15.459774,8.0856965 C 14.511575,8.0856965 13.742021,6.7746058 13.742021,5.1591549 C 13.742021,3.5437039 14.511575,2.2326133 15.459774,2.2326133 C 16.407974,2.2326133 17.177527,3.5437039 17.177527,5.1591549 z "
       id="path849" />
    <path
       transform="translate(-1.125000e-6,16.69861)"
       style="fill:#7f7f7f;fill-opacity:1.0000000;fill-rule:evenodd;stroke:#333333;stroke-width:1.0000000pt;stroke-opacity:1.0000000;"
       d="M 17.177527,5.1591549 C 17.177527,6.7746058 16.407974,8.0856965 15.459774,8.0856965 C 14.511575,8.0856965 13.742021,6.7746058 13.742021,5.1591549 C 13.742021,3.5437039 14.511575,2.2326133 15.459774,2.2326133 C 16.407974,2.2326133 17.177527,3.5437039 17.177527,5.1591549 z "
       id="path850" />
    <path
       transform="translate(24.80313,16.69861)"
       style="fill:#4c4c4c;fill-opacity:1.0000000;fill-rule:evenodd;stroke:#333333;stroke-width:1.0000000pt;stroke-opacity:1.0000000;"
       d="M 17.177527,5.1591549 C 17.177527,6.7746058 16.407974,8.0856965 15.459774,8.0856965 C 14.511575,8.0856965 13.742021,6.7746058 13.742021,5.1591549 C 13.742021,3.5437039 14.511575,2.2326133 15.459774,2.2326133 C 16.407974,2.2326133 17.177527,3.5437039 17.177527,5.1591549 z "
       id="path851" />
    <path
       transform="translate(21.25982,16.69861)"
       style="fill:#7f7f7f;fill-opacity:1.0000000;fill-rule:evenodd;stroke:#333333;stroke-width:1.0000000pt;stroke-opacity:1.0000000;"
       d="M 17.177527,5.1591549 C 17.177527,6.7746058 16.407974,8.0856965 15.459774,8.0856965 C 14.511575,8.0856965 13.742021,6.7746058 13.742021,5.1591549 C 13.742021,3.5437039 14.511575,2.2326133 15.459774,2.2326133 C 16.407974,2.2326133 17.177527,3.5437039 17.177527,5.1591549 z "
       id="path852" />
    <path
       transform="matrix(-1.000000,0.000000,0.000000,1.000000,52.17940,8.231782)"
       style="fill:#7f7f7f;fill-opacity:1.0000000;fill-rule:evenodd;stroke:#333333;stroke-width:1.0000000pt;stroke-opacity:1.0000000;"
       d="M 17.177527,5.1591549 C 17.177527,6.7746058 16.407974,8.0856965 15.459774,8.0856965 C 14.511575,8.0856965 13.742021,6.7746058 13.742021,5.1591549 C 13.742021,3.5437039 14.511575,2.2326133 15.459774,2.2326133 C 16.407974,2.2326133 17.177527,3.5437039 17.177527,5.1591549 z "
       id="path853" />
    <path
       transform="matrix(-1.000000,0.000000,0.000000,1.000000,55.72271,8.231782)"
       style="fill:#4c4c4c;fill-opacity:1.0000000;fill-rule:evenodd;stroke:#333333;stroke-width:1.0000000pt;stroke-opacity:1.0000000;"
       d="M 17.177527,5.1591549 C 17.177527,6.7746058 16.407974,8.0856965 15.459774,8.0856965 C 14.511575,8.0856965 13.742021,6.7746058 13.742021,5.1591549 C 13.742021,3.5437039 14.511575,2.2326133 15.459774,2.2326133 C 16.407974,2.2326133 17.177527,3.5437039 17.177527,5.1591549 z "
       id="path854" />
    <path
       transform="matrix(-1.000000,0.000000,0.000000,1.000000,59.88279,25.18488)"
       style="fill:#7f7f7f;fill-opacity:1.0000000;fill-rule:evenodd;stroke:#333333;stroke-width:1.0000000pt;stroke-opacity:1.0000000;"
       d="M 17.177527,5.1591549 C 17.177527,6.7746058 16.407974,8.0856965 15.459774,8.0856965 C 14.511575,8.0856965 13.742021,6.7746058 13.742021,5.1591549 C 13.742021,3.5437039 14.511575,2.2326133 15.459774,2.2326133 C 16.407974,2.2326133 17.177527,3.5437039 17.177527,5.1591549 z "
       id="path855" />
    <path
       transform="matrix(-1.000000,0.000000,0.000000,1.000000,56.33948,25.18488)"
       style="fill:#7f7f7f;fill-opacity:1.0000000;fill-rule:evenodd;stroke:#333333;stroke-width:1.0000000pt;stroke-opacity:1.0000000;"
       d="M 17.177527,5.1591549 C 17.177527,6.7746058 16.407974,8.0856965 15.459774,8.0856965 C 14.511575,8.0856965 13.742021,6.7746058 13.742021,5.1591549 C 13.742021,3.5437039 14.511575,2.2326133 15.459774,2.2326133 C 16.407974,2.2326133 17.177527,3.5437039 17.177527,5.1591549 z "
       id="path856" />
    <path
       transform="matrix(-1.000000,0.000000,0.000000,1.000000,52.79617,25.18488)"
       style="fill:#7f7f7f;fill-opacity:1.0000000;fill-rule:evenodd;stroke:#333333;stroke-width:1.0000000pt;stroke-opacity:1.0000000;"
       d="M 17.177527,5.1591549 C 17.177527,6.7746058 16.407974,8.0856965 15.459774,8.0856965 C 14.511575,8.0856965 13.742021,6.7746058 13.742021,5.1591549 C 13.742021,3.5437039 14.511575,2.2326133 15.459774,2.2326133 C 16.407974,2.2326133 17.177527,3.5437039 17.177527,5.1591549 z "
       id="path857" />
    <path
       transform="matrix(-1.000000,0.000000,0.000000,1.000000,42.16625,25.18488)"
       style="fill:#4c4c4c;fill-opacity:1.0000000;fill-rule:evenodd;stroke:#333333;stroke-width:1.0000000pt;stroke-opacity:1.0000000;"
       d="M 17.177527,5.1591549 C 17.177527,6.7746058 16.407974,8.0856965 15.459774,8.0856965 C 14.511575,8.0856965 13.742021,6.7746058 13.742021,5.1591549 C 13.742021,3.5437039 14.511575,2.2326133 15.459774,2.2326133 C 16.407974,2.2326133 17.177527,3.5437039 17.177527,5.1591549 z "
       id="path858" />
    <path
       transform="matrix(-1.000000,0.000000,0.000000,1.000000,31.53632,25.18488)"
       style="fill:#4c4c4c;fill-opacity:1.0000000;fill-rule:evenodd;stroke:#333333;stroke-width:1.0000000pt;stroke-opacity:1.0000000;"
       d="M 17.177527,5.1591549 C 17.177527,6.7746058 16.407974,8.0856965 15.459774,8.0856965 C 14.511575,8.0856965 13.742021,6.7746058 13.742021,5.1591549 C 13.742021,3.5437039 14.511575,2.2326133 15.459774,2.2326133 C 16.407974,2.2326133 17.177527,3.5437039 17.177527,5.1591549 z "
       id="path859" />
    <path
       transform="matrix(-1.000000,0.000000,0.000000,1.000000,59.88279,33.77895)"
       style="fill:#4c4c4c;fill-opacity:1.0000000;fill-rule:evenodd;stroke:#333333;stroke-width:1.0000000pt;stroke-opacity:1.0000000;"
       d="M 17.177527,5.1591549 C 17.177527,6.7746058 16.407974,8.0856965 15.459774,8.0856965 C 14.511575,8.0856965 13.742021,6.7746058 13.742021,5.1591549 C 13.742021,3.5437039 14.511575,2.2326133 15.459774,2.2326133 C 16.407974,2.2326133 17.177527,3.5437039 17.177527,5.1591549 z "
       id="path860" />
    <path
       transform="matrix(-1.000000,0.000000,0.000000,1.000000,52.01329,33.77895)"
       style="fill:#4c4c4c;fill-opacity:1.0000000;fill-rule:evenodd;stroke:#333333;stroke-width:1.0000000pt;stroke-opacity:1.0000000;"
       d="M 17.177527,5.1591549 C 17.177527,6.7746058 16.407974,8.0856965 15.459774,8.0856965 C 14.511575,8.0856965 13.742021,6.7746058 13.742021,5.1591549 C 13.742021,3.5437039 14.511575,2.2326133 15.459774,2.2326133 C 16.407974,2.2326133 17.177527,3.5437039 17.177527,5.1591549 z "
       id="path861" />
    <path
       transform="matrix(-1.000000,0.000000,0.000000,1.000000,48.46998,33.77895)"
       style="fill:#4c4c4c;fill-opacity:1.0000000;fill-rule:evenodd;stroke:#333333;stroke-width:1.0000000pt;stroke-opacity:1.0000000;"
       d="M 17.177527,5.1591549 C 17.177527,6.7746058 16.407974,8.0856965 15.459774,8.0856965 C 14.511575,8.0856965 13.742021,6.7746058 13.742021,5.1591549 C 13.742021,3.5437039 14.511575,2.2326133 15.459774,2.2326133 C 16.407974,2.2326133 17.177527,3.5437039 17.177527,5.1591549 z "
       id="path862" />
    <path
       transform="matrix(-1.000000,0.000000,0.000000,1.000000,35.80420,33.77895)"
       style="fill:#7f7f7f;fill-opacity:1.0000000;fill-rule:evenodd;stroke:#333333;stroke-width:1.0000000pt;stroke-opacity:1.0000000;"
       d="M 17.177527,5.1591549 C 17.177527,6.7746058 16.407974,8.0856965 15.459774,8.0856965 C 14.511575,8.0856965 13.742021,6.7746058 13.742021,5.1591549 C 13.742021,3.5437039 14.511575,2.2326133 15.459774,2.2326133 C 16.407974,2.2326133 17.177527,3.5437039 17.177527,5.1591549 z "
       id="path863" />
    <path
       transform="matrix(-1.000000,0.000000,0.000000,1.000000,31.53632,33.77895)"
       style="fill:#7f7f7f;fill-opacity:1.0000000;fill-rule:evenodd;stroke:#333333;stroke-width:1.0000000pt;stroke-opacity:1.0000000;"
       d="M 17.177527,5.1591549 C 17.177527,6.7746058 16.407974,8.0856965 15.459774,8.0856965 C 14.511575,8.0856965 13.742021,6.7746058 13.742021,5.1591549 C 13.742021,3.5437039 14.511575,2.2326133 15.459774,2.2326133 C 16.407974,2.2326133 17.177527,3.5437039 17.177527,5.1591549 z "
       id="path864" />
  </g>
  <metadata
     id="metadata32">
    <rdf:RDF
       id="RDF33">
      <cc:Work
         rdf:about=""
         id="Work34">
        <dc:title
           id="title35">Part of the Flat Icon Collection (Thu Aug 26 14:31:40 2004)</dc:title>
        <dc:description
           id="description37" />
        <dc:subject
           id="subject38">
          <rdf:Bag
             id="Bag39">
            <rdf:li
               id="li40" />
          </rdf:Bag>
        </dc:subject>
        <dc:publisher
           id="publisher41">
          <cc:Agent
             rdf:about=""
             id="Agent42">
            <dc:title
               id="title43" />
          </cc:Agent>
        </dc:publisher>
        <dc:creator
           id="creator44">
          <cc:Agent
             rdf:about=""
             id="Agent45">
            <dc:title
               id="title46">Danny Allen</dc:title>
          </cc:Agent>
        </dc:creator>
        <dc:rights
           id="rights48">
          <cc:Agent
             rdf:about=""
             id="Agent49">
            <dc:title
               id="title50">Danny Allen</dc:title>
          </cc:Agent>
        </dc:rights>
        <dc:date
           id="date52" />
        <dc:format
           id="format53">image/svg+xml</dc:format>
        <dc:type
           rdf:resource="http://purl.org/dc/dcmitype/StillImage"
           id="type55" />
        <cc:license
           rdf:resource="http://creativecommons.org/licenses/LGPL/2.1/"
           id="license56">
          <dc:date
             id="date57" />
        </cc:license>
        <dc:language
           id="language58">en</dc:language>
      </cc:Work>
    </rdf:RDF>
  </metadata>
</svg>
