<?xml version="1.0" encoding="UTF-8" standalone="no"?>
<!DOCTYPE svg PUBLIC "-//W3C//DTD SVG 20010904//EN"
"http://www.w3.org/TR/2001/REC-SVG-20010904/DTD/svg10.dtd">
<svg
   sodipodi:docname="package_games_strategy.svg"
   height="60.0000000"
   sodipodi:version="0.32"
   width="60.0000000"
   _SVGFile__filename="scalable/apps/package_games_strategy.svg"
   version="1.0"
   y="0"
   x="0"
   inkscape:version="0.39"
   id="svg1"
   sodipodi:docbase="/home/danny/work/flat/newscale/apps"
   xmlns="http://www.w3.org/2000/svg"
   xmlns:cc="http://web.resource.org/cc/"
   xmlns:inkscape="http://www.inkscape.org/namespaces/inkscape"
   xmlns:sodipodi="http://sodipodi.sourceforge.net/DTD/sodipodi-0.dtd"
   xmlns:rdf="http://www.w3.org/1999/02/22-rdf-syntax-ns#"
   xmlns:dc="http://purl.org/dc/elements/1.1/"
   xmlns:xlink="http://www.w3.org/1999/xlink">
  <sodipodi:namedview
     bordercolor="#666666"
     inkscape:pageshadow="2"
     inkscape:window-y="0"
     pagecolor="#ffffff"
     inkscape:window-height="699"
     inkscape:zoom="4.9119411"
     inkscape:window-x="0"
     borderopacity="1.0"
     inkscape:cx="34.901065"
     inkscape:cy="27.117200"
     inkscape:window-width="1024"
     inkscape:pageopacity="0.0"
     id="base" />
  <defs
     id="defs3" />
  <path
     sodipodi:nodetypes="ccccc"
     style="fill:#b3b3b3;fill-rule:evenodd;stroke:none;stroke-opacity:1.0000000;stroke-width:3.1250000;stroke-linejoin:round;stroke-linecap:round;fill-opacity:1.0000000;stroke-dasharray:none;"
     transform="translate(-0.381723,-0.127241)"
     d="M 3.4355054,52.365544 C 26.975079,55.164844 62.348060,63.181024 55.986013,50.584171 C 49.623966,37.987318 61.711856,4.0139866 56.622218,4.2684685 C 51.532580,4.5229504 5.7258422,1.7236497 4.9623966,6.9405282 C 4.1989510,12.157407 3.4355054,52.365544 3.4355054,52.365544 z "
     id="path865" />
  <g
     id="g873"
     transform="translate(0.000000,1.145169)">
    <path
       style="fill:#333333;stroke-width:1.0000000pt;"
       d="M 11.456257,15.244832 C 13.597393,15.484179 15.518609,17.701702 16.914754,19.130236 C 17.797907,20.080710 18.628893,21.060946 19.416710,22.091855 L 17.624821,22.596819 C 16.883572,21.595755 16.090311,20.660178 15.232413,19.757177 C 14.305370,18.843035 13.342688,17.961768 12.240827,17.259539 C 11.848234,17.009334 11.183034,16.677096 11.456257,16.704438 L 11.456257,15.244832 z "
       sodipodi:nodetypes="cccccccc"
       transform="matrix(1.933848,0.000000,0.000000,1.933848,9.417255,6.636538)"
       id="path866"
       sodipodi:fill-cmyk="(0.0000000 0.0000000 0.0000000 0.80000001)" />
    <path
       style="fill:#333333;stroke-width:1.0000000pt;"
       sodipodi:fill-cmyk="(0.0000000 0.0000000 0.0000000 0.80000001)"
       id="path867"
       transform="matrix(1.933848,0.000000,0.000000,1.933848,9.417255,6.636538)"
       d="M 10.950377,21.864217 C 12.298929,19.877563 13.990065,18.050478 15.529463,16.213031 C 16.041318,15.611421 16.557155,15.014140 17.079421,14.421549 L 18.803263,15.005412 C 18.270380,15.579406 17.748830,16.161042 17.233286,16.750667 C 16.212668,17.954819 15.209394,19.177776 14.304779,20.472717 C 13.901570,21.049903 12.760326,22.815590 13.229973,22.291038 L 10.950377,21.864217 z " />
  </g>
  <path
     sodipodi:nodetypes="ccccccc"
     style="fill:#7f7f7f;fill-rule:evenodd;stroke:none;stroke-opacity:1;stroke-width:1pt;stroke-linejoin:miter;stroke-linecap:butt;fill-opacity:1.0000000;"
     transform="translate(0.000000,0.508964)"
     d="M 2.9265416,40.532136 C 17.432009,29.080452 53.950158,27.426320 53.950158,27.426320 L 55.477050,21.573236 C 55.477050,21.573236 55.349809,20.937032 50.132930,20.682550 C 38.935727,20.682550 33.973331,29.462175 21.503719,29.462175 C 9.0341067,29.462175 3.1810235,32.134234 3.1810235,32.134234 L 2.9265416,40.532136 z "
     id="path878" />
  <path
     style="fill:none;fill-rule:evenodd;stroke:#333333;stroke-opacity:1.0000000;stroke-width:2.5000000;stroke-linejoin:round;stroke-linecap:round;fill-opacity:0.75;stroke-dasharray:2.5000000,2.5000000;stroke-dashoffset:0.0000000;"
     d="M 12.342371,12.157407 C 18.704418,38.878004 40.335378,12.411888 45.933979,12.539130 C 53.313954,17.501526 18.449936,30.861825 17.177527,38.114558 C 15.905117,45.367292 37.408836,42.059028 37.408836,42.059028"
     sodipodi:nodetypes="cccc"
     transform="translate(0.000000,1.145169)"
     sodipodi:stroke-cmyk="(0.0000000 0.0000000 0.0000000 0.80000001)"
     id="path876" />
  <path
     sodipodi:rx="2.6084392"
     sodipodi:ry="2.6084392"
     style="fill:#333333;fill-opacity:1.0000000;fill-rule:evenodd;stroke:#333333;stroke-width:1.8750000;stroke-dasharray:none;stroke-opacity:1.0000000;stroke-linejoin:round;"
     sodipodi:type="arc"
     d="M 14.759948 11.839304 A 2.6084392 2.6084392 0 1 0 9.5430701,11.839304 A 2.6084392 2.6084392 0 1 0 14.759948 11.839304 z"
     transform="translate(0.000000,1.145169)"
     sodipodi:cy="11.839304"
     sodipodi:cx="12.151509"
     sodipodi:stroke-cmyk="(0.0000000 0.0000000 0.0000000 0.80000001)"
     id="path877" />
  <path
     style="fill:none;fill-rule:evenodd;stroke:#333333;stroke-opacity:1.0000000;stroke-width:3.1250000;stroke-linejoin:round;stroke-linecap:round;fill-opacity:1.0000000;stroke-dasharray:none;"
     d="M 3.4355054,52.365544 C 26.975079,55.164844 62.348060,63.181024 55.986013,50.584171 C 49.623966,37.987318 61.711856,4.0139866 56.622218,4.2684685 C 51.532580,4.5229504 5.7258422,1.7236497 4.9623966,6.9405282 C 4.1989510,12.157407 3.4355054,52.365544 3.4355054,52.365544 z "
     sodipodi:nodetypes="ccccc"
     transform="translate(-0.381723,-0.127241)"
     sodipodi:stroke-cmyk="(0.0000000 0.0000000 0.0000000 0.80000001)"
     id="path879" />
  <metadata
     id="metadata12">
    <rdf:RDF
       id="RDF13">
      <cc:Work
         rdf:about=""
         id="Work14">
        <dc:title
           id="title15">Part of the Flat Icon Collection (Thu Aug 26 14:31:40 2004)</dc:title>
        <dc:description
           id="description17" />
        <dc:subject
           id="subject18">
          <rdf:Bag
             id="Bag19">
            <rdf:li
               id="li20" />
          </rdf:Bag>
        </dc:subject>
        <dc:publisher
           id="publisher21">
          <cc:Agent
             rdf:about=""
             id="Agent22">
            <dc:title
               id="title23" />
          </cc:Agent>
        </dc:publisher>
        <dc:creator
           id="creator24">
          <cc:Agent
             rdf:about=""
             id="Agent25">
            <dc:title
               id="title26">Danny Allen</dc:title>
          </cc:Agent>
        </dc:creator>
        <dc:rights
           id="rights28">
          <cc:Agent
             rdf:about=""
             id="Agent29">
            <dc:title
               id="title30">Danny Allen</dc:title>
          </cc:Agent>
        </dc:rights>
        <dc:date
           id="date32" />
        <dc:format
           id="format33">image/svg+xml</dc:format>
        <dc:type
           rdf:resource="http://purl.org/dc/dcmitype/StillImage"
           id="type35" />
        <cc:license
           rdf:resource="http://creativecommons.org/licenses/LGPL/2.1/"
           id="license36">
          <dc:date
             id="date37" />
        </cc:license>
        <dc:language
           id="language38">en</dc:language>
      </cc:Work>
    </rdf:RDF>
  </metadata>
</svg>
