<?xml version="1.0" encoding="UTF-8" standalone="no"?>
<!DOCTYPE svg PUBLIC "-//W3C//DTD SVG 20010904//EN"
"http://www.w3.org/TR/2001/REC-SVG-20010904/DTD/svg10.dtd">
<svg
   sodipodi:docname="kcmkicker.svg"
   height="60.0000000"
   sodipodi:version="0.32"
   width="60.0000000"
   _SVGFile__filename="scalable/apps/kcmkicker.svg"
   version="1.0"
   y="0"
   x="0"
   inkscape:version="0.39"
   id="svg1"
   sodipodi:docbase="/home/danny/work/flat/newscale/apps"
   xmlns="http://www.w3.org/2000/svg"
   xmlns:cc="http://web.resource.org/cc/"
   xmlns:inkscape="http://www.inkscape.org/namespaces/inkscape"
   xmlns:sodipodi="http://sodipodi.sourceforge.net/DTD/sodipodi-0.dtd"
   xmlns:rdf="http://www.w3.org/1999/02/22-rdf-syntax-ns#"
   xmlns:dc="http://purl.org/dc/elements/1.1/"
   xmlns:xlink="http://www.w3.org/1999/xlink">
  <sodipodi:namedview
     bordercolor="#666666"
     inkscape:pageshadow="2"
     inkscape:window-y="0"
     pagecolor="#ffffff"
     inkscape:window-height="685"
     inkscape:zoom="6.9465337"
     inkscape:window-x="0"
     borderopacity="1.0"
     inkscape:cx="28.788333"
     inkscape:cy="15.571525"
     inkscape:window-width="1016"
     inkscape:pageopacity="0.0"
     id="base" />
  <defs
     id="defs3">
    <linearGradient
       id="linearGradient1160">
      <stop
         style="stop-color:#000;stop-opacity:1;"
         id="stop1161"
         offset="0" />
      <stop
         style="stop-color:#fff;stop-opacity:1;"
         id="stop1162"
         offset="1" />
    </linearGradient>
    <linearGradient
       xlink:href="#linearGradient1160"
       id="linearGradient1163" />
  </defs>
  <metadata
     id="metadata14">
    <rdf:RDF
       id="RDF15">
      <cc:Work
         rdf:about=""
         id="Work16">
        <dc:title
           id="title17">Part of the Flat Icon Collection (Thu Aug 26 14:31:40 2004)</dc:title>
        <dc:description
           id="description19" />
        <dc:subject
           id="subject20">
          <rdf:Bag
             id="Bag21">
            <rdf:li
               id="li22" />
          </rdf:Bag>
        </dc:subject>
        <dc:publisher
           id="publisher23">
          <cc:Agent
             rdf:about=""
             id="Agent24">
            <dc:title
               id="title25" />
          </cc:Agent>
        </dc:publisher>
        <dc:creator
           id="creator26">
          <cc:Agent
             rdf:about=""
             id="Agent27">
            <dc:title
               id="title28">Danny Allen</dc:title>
          </cc:Agent>
        </dc:creator>
        <dc:rights
           id="rights30">
          <cc:Agent
             rdf:about=""
             id="Agent31">
            <dc:title
               id="title32">Danny Allen</dc:title>
          </cc:Agent>
        </dc:rights>
        <dc:date
           id="date34" />
        <dc:format
           id="format35">image/svg+xml</dc:format>
        <dc:type
           rdf:resource="http://purl.org/dc/dcmitype/StillImage"
           id="type37" />
        <cc:license
           rdf:resource="http://creativecommons.org/licenses/LGPL/2.1/"
           id="license38">
          <dc:date
             id="date39" />
        </cc:license>
        <dc:language
           id="language40">en</dc:language>
      </cc:Work>
    </rdf:RDF>
  </metadata>
  <g
     id="g1602"
     transform="translate(-0.105138,-0.315654)">
    <rect
       style="font-size:12.000000;fill:#b3b3b3;fill-opacity:1.0000000;fill-rule:evenodd;stroke:none;stroke-width:1.0000000pt;"
       transform="matrix(0.988213,0.000000,0.000000,1.461558,0.445546,-15.96349)"
       height="27.484043"
       width="55.222569"
       y="18.010490"
       x="2.7993007"
       id="rect887" />
    <path
       style="fill:none;fill-opacity:0.75000000;fill-rule:evenodd;stroke:#333333;stroke-width:2.7427957;stroke-linecap:round;stroke-linejoin:round;stroke-opacity:1.0000000;"
       transform="matrix(0.986858,0.000000,0.000000,1.315402,1.959812e-2,-9.314202)"
       d="M 57.767386,14.956708 L 3.0537825,14.956708 L 3.0537825,45.494533 L 58.021868,45.494533"
       sodipodi:stroke-cmyk="(0 0 0 0.8)"
       id="path888" />
    <path
       style="fill:none;fill-opacity:0.75000000;fill-rule:evenodd;stroke:#333333;stroke-width:2.3756995;stroke-linecap:butt;stroke-linejoin:miter;stroke-opacity:1.0000000;"
       transform="matrix(1.315402,0.000000,0.000000,1.315402,6.224568,-9.314202)"
       d="M 12.215130,15.211190 L 12.215130,45.229644"
       sodipodi:stroke-cmyk="(0 0 0 0.8)"
       id="path889"
       sodipodi:nodetypes="cc" />
    <g
       id="g1562"
       transform="translate(-0.254482,-0.292369)">
      <path
         id="path842"
         style="font-size:24.000000;fill:#333333;stroke-width:1.0000000pt;font-family:VAG Rounded Black SSi;"
         transform="matrix(1.117762,0.000000,0.000000,1.117762,47.59389,26.09594)"
         d="M -6.8225527,5.8193731 L -6.8225527,-8.1728144 C -6.8225527,-8.6884394 -6.6545839,-9.1181269 -6.3186464,-9.4618769 C -5.9827089,-9.8056269 -5.5491152,-9.9775019 -5.0178652,-9.9775019 C -4.4866152,-9.9775019 -4.0569277,-9.8173456 -3.7288027,-9.4970331 C -3.3928652,-9.1767206 -3.2248964,-8.7353144 -3.2248964,-8.1728144 L -3.2248964,-2.9462519 L 2.6813536,-9.2978144 C 3.0954161,-9.7509394 3.5602598,-9.9775019 4.0758848,-9.9775019 C 4.5524473,-9.9775019 4.9665098,-9.8134394 5.3180723,-9.4853144 C 5.6774473,-9.1650019 5.8571348,-8.7431269 5.8571348,-8.2196894 C 5.8571348,-7.9228144 5.7633848,-7.6298456 5.5758848,-7.3407831 C 5.3883848,-7.0595331 5.0876036,-6.7118769 4.6735411,-6.2978144 L 0.13838482,-1.7860956 L 5.6813536,4.0615606 C 6.0016661,4.3662481 6.2477598,4.6631231 6.4196348,4.9521856 C 6.5993223,5.2334356 6.6891661,5.5459356 6.6891661,5.8896856 C 6.6891661,6.4365606 6.5094786,6.8545294 6.1501036,7.1435919 C 5.7907286,7.4248419 5.3454161,7.5654669 4.8141661,7.5654669 C 4.5016661,7.5654669 4.2165098,7.4795294 3.9586973,7.3076544 C 3.7086973,7.1357794 3.3883848,6.8467169 2.9977598,6.4404669 L -3.2248964,-0.35640812 L -3.2248964,5.8193731 C -3.2248964,6.3115606 -3.3928652,6.7256231 -3.7288027,7.0615606 C -4.0647402,7.3974981 -4.4944277,7.5654669 -5.0178652,7.5654669 C -5.5413027,7.5654669 -5.9748964,7.4053106 -6.3186464,7.0849981 C -6.6545839,6.7646856 -6.8225527,6.3428106 -6.8225527,5.8193731 z " />
      <path
         style="font-size:12.000000;fill:#333333;fill-rule:evenodd;stroke:#333333;stroke-width:1.5336859;stroke-linecap:round;stroke-linejoin:round;stroke-miterlimit:4.0000000;"
         d="M 37.139197,181.14740 L 52.946277,197.70716 L 78.538546,180.39460 L 98.861908,189.42735 L 105.63634,219.09510 L 127.46505,218.89461 L 133.48682,188.45399 L 153.81015,180.39460 L 179.40244,196.95450 L 191.44592,180.39460 L 162.40179,152.98512 C 87.958944,221.26415 23.628859,116.02943 87.571178,72.003552 L 87.571095,56.196470 L 80.043997,59.960043 L 56.709788,45.126111 L 40.590920,58.363176 L 55.204367,83.294200 L 46.924507,103.61753 L 18.409265,108.35437 L 18.321270,129.96261 L 47.677259,137.48978 L 55.768940,157.24868 L 37.139197,181.14740 z "
         sodipodi:nodetypes="ccccccccccccccccccccccc"
         transform="matrix(0.163006,0.000000,0.000000,0.163006,24.05851,10.69175)"
         sodipodi:stroke-cmyk="(0 0 0 0.8)"
         id="path705" />
    </g>
    <path
       sodipodi:nodetypes="cccc"
       style="font-size:12.000000;fill:#333333;fill-opacity:1.0000000;fill-rule:evenodd;stroke:#333333;stroke-width:2.5000000;stroke-linecap:round;stroke-linejoin:round;stroke-miterlimit:4.0000000;"
       d="M 15.887790,38.196832 L 8.8862307,30.320831 L 15.945653,22.692463 L 15.887790,38.196832 z "
       sodipodi:stroke-cmyk="(0 0 0 0.8)"
       id="path878" />
  </g>
</svg>
