<?xml version="1.0" encoding="UTF-8" standalone="no"?>
<!DOCTYPE svg PUBLIC "-//W3C//DTD SVG 20010904//EN"
"http://www.w3.org/TR/2001/REC-SVG-20010904/DTD/svg10.dtd">
<svg
   sodipodi:docname="sms_protocol.svg"
   height="60.0000000"
   sodipodi:version="0.32"
   width="60.0000000"
   _SVGFile__filename="scalable/apps/sms_protocol.svg"
   version="1.0"
   y="0"
   x="0"
   inkscape:version="0.39"
   id="svg1"
   sodipodi:docbase="/home/danny/work/flat/newscale/apps"
   xmlns="http://www.w3.org/2000/svg"
   xmlns:cc="http://web.resource.org/cc/"
   xmlns:inkscape="http://www.inkscape.org/namespaces/inkscape"
   xmlns:sodipodi="http://sodipodi.sourceforge.net/DTD/sodipodi-0.dtd"
   xmlns:rdf="http://www.w3.org/1999/02/22-rdf-syntax-ns#"
   xmlns:dc="http://purl.org/dc/elements/1.1/"
   xmlns:xlink="http://www.w3.org/1999/xlink">
  <sodipodi:namedview
     bordercolor="#666666"
     inkscape:pageshadow="2"
     inkscape:window-y="0"
     snaptoguides="true"
     pagecolor="#ffffff"
     inkscape:window-height="685"
     inkscape:zoom="6.9465337"
     inkscape:window-x="0"
     borderopacity="1.0"
     inkscape:cx="37.697545"
     inkscape:cy="22.126475"
     inkscape:window-width="1016"
     inkscape:pageopacity="0.0"
     id="base"
     showguides="true" />
  <defs
     id="defs3">
    <linearGradient
       id="linearGradient772">
      <stop
         style="stop-color:#000;stop-opacity:1;"
         id="stop773"
         offset="0" />
      <stop
         style="stop-color:#fff;stop-opacity:1;"
         id="stop774"
         offset="1" />
    </linearGradient>
    <linearGradient
       xlink:href="#linearGradient772"
       id="linearGradient775" />
  </defs>
  <path
     transform="matrix(0.956132,0.000000,0.000000,0.956132,12.70349,0.157686)"
     style="fill:#333333;fill-rule:evenodd;stroke:#333333;stroke-width:2.6147017;stroke-linejoin:round;stroke-miterlimit:4.0000000;fill-opacity:1.0000000;"
     d="M 38.108711,2.7772157 C 37.532627,2.7772157 37.068848,3.2409946 37.068848,3.8170787 L 37.068848,13.433833 C 37.068848,14.009918 37.532627,14.473696 38.108711,14.473696 L 40.527631,14.473696 C 41.103715,14.473696 41.567494,14.009918 41.567494,13.433833 L 41.567494,3.8170787 C 41.567494,3.2409946 41.103715,2.7772157 40.527631,2.7772157 L 38.108711,2.7772157 z "
     id="rect900" />
  <path
     transform="matrix(0.956132,0.000000,0.000000,0.956132,12.53144,3.426674)"
     style="fill:#7f7f7f;fill-rule:evenodd;stroke:#333333;stroke-width:3.2683773;stroke-linecap:round;stroke-linejoin:round;"
     d="M 19.195127,9.9750500 C 17.533127,9.9750500 16.195127,11.313050 16.195127,12.975050 L 16.195127,53.041189 C 16.195127,54.703189 17.533127,56.041189 19.195127,56.041189 L 42.886194,56.041189 C 44.548194,56.041189 45.886194,54.703189 45.886194,53.041189 L 45.886194,12.975050 C 45.886194,11.313050 44.548194,9.9750500 42.886194,9.9750500 L 19.195127,9.9750500 z "
     id="rect899" />
  <path
     style="fill:#000000;fill-opacity:1.0000000;fill-rule:evenodd;stroke:#000000;stroke-width:1.8750000;stroke-linecap:round;stroke-linejoin:round;stroke-opacity:1.0000000;"
     sodipodi:fill-cmyk="(0.0000000 0.0000000 0.0000000 1.0000000)"
     d="M 34.094440,17.047920 C 32.888976,17.047920 31.918512,18.018384 31.918512,19.223848 L 31.918512,31.317060 C 31.918512,32.522525 32.888976,33.492989 34.094440,33.492989 L 50.298920,33.492989 C 51.504384,33.492989 52.474848,32.522525 52.474848,31.317060 L 52.474848,19.223848 C 52.474848,18.018384 51.504384,17.047920 50.298920,17.047920 L 34.094440,17.047920 z "
     id="rect901"
     sodipodi:stroke-cmyk="(0.0000000 0.0000000 0.0000000 1.0000000)" />
  <path
     transform="matrix(0.843533,0.000000,0.000000,0.843533,14.98497,5.763706)"
     style="fill:#333333;fill-rule:evenodd;stroke-width:1.0000000pt;"
     d="M 20.322414,36.587666 C 19.919484,36.587666 19.595104,36.912046 19.595104,37.314975 L 19.595104,39.550343 C 19.595104,39.953273 19.919484,40.277653 20.322414,40.277653 L 25.738805,40.277653 C 26.141735,40.277653 26.466115,39.953273 26.466115,39.550343 L 26.466115,37.314975 C 26.466115,36.912046 26.141735,36.587666 25.738805,36.587666 L 20.322414,36.587666 z "
     id="rect902" />
  <path
     style="fill:#333333;fill-rule:evenodd;stroke-width:1.0000000pt;"
     d="M 30.952335,36.587666 C 30.549405,36.587666 30.225025,36.912046 30.225025,37.314975 L 30.225025,39.550343 C 30.225025,39.953273 30.549405,40.277653 30.952335,40.277653 L 36.368726,40.277653 C 36.771656,40.277653 37.096036,39.953273 37.096036,39.550343 L 37.096036,37.314975 C 37.096036,36.912046 36.771656,36.587666 36.368726,36.587666 L 30.952335,36.587666 z "
     id="rect903"
     transform="matrix(0.843533,0.000000,0.000000,0.843533,13.91165,5.763706)" />
  <path
     style="fill:#333333;fill-rule:evenodd;stroke-width:1.0000000pt;"
     d="M 41.582260,36.587666 C 41.179330,36.587666 40.854950,36.912046 40.854950,37.314975 L 40.854950,39.550343 C 40.854950,39.953273 41.179330,40.277653 41.582260,40.277653 L 46.998651,40.277653 C 47.401581,40.277653 47.725961,39.953273 47.725961,39.550343 L 47.725961,37.314975 C 47.725961,36.912046 47.401581,36.587666 46.998651,36.587666 L 41.582260,36.587666 z "
     id="rect904"
     transform="matrix(0.843533,0.000000,0.000000,0.843533,12.83834,5.763706)" />
  <path
     style="fill:#333333;fill-rule:evenodd;stroke-width:1.0000000pt;"
     d="M 32.127602,41.230259 C 31.787717,41.230259 31.514092,41.503885 31.514092,41.843769 L 31.514092,43.729376 C 31.514092,44.069260 31.787717,44.342885 32.127602,44.342885 L 36.696506,44.342885 C 37.036391,44.342885 37.310016,44.069260 37.310016,43.729376 L 37.310016,41.843769 C 37.310016,41.503885 37.036391,41.230259 36.696506,41.230259 L 32.127602,41.230259 z "
     id="rect905" />
  <path
     style="fill:#333333;fill-rule:evenodd;stroke-width:1.0000000pt;"
     d="M 40.020972,41.230259 C 39.681088,41.230259 39.407462,41.503885 39.407462,41.843769 L 39.407462,43.729376 C 39.407462,44.069260 39.681088,44.342885 40.020972,44.342885 L 44.589877,44.342885 C 44.929761,44.342885 45.203387,44.069260 45.203387,43.729376 L 45.203387,41.843769 C 45.203387,41.503885 44.929761,41.230259 44.589877,41.230259 L 40.020972,41.230259 z "
     id="rect906" />
  <path
     style="fill:#333333;fill-rule:evenodd;stroke-width:1.0000000pt;"
     d="M 47.914342,41.230259 C 47.574457,41.230259 47.300832,41.503885 47.300832,41.843769 L 47.300832,43.729376 C 47.300832,44.069260 47.574457,44.342885 47.914342,44.342885 L 52.483246,44.342885 C 52.823131,44.342885 53.096756,44.069260 53.096756,43.729376 L 53.096756,41.843769 C 53.096756,41.503885 52.823131,41.230259 52.483246,41.230259 L 47.914342,41.230259 z "
     id="rect907" />
  <path
     style="fill:#333333;fill-rule:evenodd;stroke-width:1.0000000pt;"
     d="M 32.127602,45.833907 C 31.787717,45.833907 31.514092,46.107532 31.514092,46.447416 L 31.514092,48.333023 C 31.514092,48.672907 31.787717,48.946533 32.127602,48.946533 L 36.696506,48.946533 C 37.036391,48.946533 37.310016,48.672907 37.310016,48.333023 L 37.310016,46.447416 C 37.310016,46.107532 37.036391,45.833907 36.696506,45.833907 L 32.127602,45.833907 z "
     id="rect908" />
  <path
     style="fill:#333333;fill-rule:evenodd;stroke-width:1.0000000pt;"
     d="M 40.020972,45.833907 C 39.681088,45.833907 39.407462,46.107532 39.407462,46.447416 L 39.407462,48.333023 C 39.407462,48.672907 39.681088,48.946533 40.020972,48.946533 L 44.589877,48.946533 C 44.929761,48.946533 45.203387,48.672907 45.203387,48.333023 L 45.203387,46.447416 C 45.203387,46.107532 44.929761,45.833907 44.589877,45.833907 L 40.020972,45.833907 z "
     id="rect909" />
  <path
     style="fill:#333333;fill-rule:evenodd;stroke-width:1.0000000pt;"
     d="M 47.914342,45.833907 C 47.574457,45.833907 47.300832,46.107532 47.300832,46.447416 L 47.300832,48.333023 C 47.300832,48.672907 47.574457,48.946533 47.914342,48.946533 L 52.483246,48.946533 C 52.823131,48.946533 53.096756,48.672907 53.096756,48.333023 L 53.096756,46.447416 C 53.096756,46.107532 52.823131,45.833907 52.483246,45.833907 L 47.914342,45.833907 z "
     id="rect910" />
  <path
     transform="translate(11.88954,3.053782)"
     style="fill:#333333;fill-rule:evenodd;stroke-width:1.0000000pt;"
     d="M 20.238062,47.383774 C 19.898177,47.383774 19.624552,47.657399 19.624552,47.997284 L 19.624552,49.882890 C 19.624552,50.222774 19.898177,50.496400 20.238062,50.496400 L 24.806966,50.496400 C 25.146851,50.496400 25.420476,50.222774 25.420476,49.882890 L 25.420476,47.997284 C 25.420476,47.657399 25.146851,47.383774 24.806966,47.383774 L 20.238062,47.383774 z "
     id="rect911" />
  <path
     style="fill:#333333;fill-rule:evenodd;stroke-width:1.0000000pt;"
     d="M 40.020972,50.437556 C 39.681088,50.437556 39.407462,50.711181 39.407462,51.051066 L 39.407462,52.936672 C 39.407462,53.276556 39.681088,53.550182 40.020972,53.550182 L 44.589877,53.550182 C 44.929761,53.550182 45.203387,53.276556 45.203387,52.936672 L 45.203387,51.051066 C 45.203387,50.711181 44.929761,50.437556 44.589877,50.437556 L 40.020972,50.437556 z "
     id="rect912" />
  <path
     style="fill:#333333;fill-rule:evenodd;stroke-width:1.0000000pt;"
     d="M 47.914342,50.437556 C 47.574457,50.437556 47.300832,50.711181 47.300832,51.051066 L 47.300832,52.936672 C 47.300832,53.276556 47.574457,53.550182 47.914342,53.550182 L 52.483246,53.550182 C 52.823131,53.550182 53.096756,53.276556 53.096756,52.936672 L 53.096756,51.051066 C 53.096756,50.711181 52.823131,50.437556 52.483246,50.437556 L 47.914342,50.437556 z "
     id="rect913" />
  <path
     id="path848"
     style="font-size:12.000000;font-weight:900;fill:#333333;stroke-width:1.0000000pt;font-family:VAG Rounded Black SSi;"
     transform="matrix(0.000000,-2.479471,2.479471,0.000000,-82.55723,53.02079)"
     d="M 14.606016,41.680534 C 14.606016,41.395378 14.688048,41.151237 14.852110,40.948112 C 15.016173,40.741081 15.238829,40.637566 15.520079,40.637566 C 15.648985,40.637566 15.854063,40.692253 16.135313,40.801628 C 16.416563,40.907097 16.658751,40.991081 16.861876,41.053581 C 17.068907,41.112175 17.320860,41.141472 17.617735,41.141472 C 17.973204,41.141472 18.232970,41.063347 18.397032,40.907097 C 18.565001,40.750847 18.648985,40.557487 18.648985,40.327019 C 18.648985,40.166862 18.606016,40.034050 18.520079,39.928581 C 18.434141,39.819206 18.316954,39.727409 18.168516,39.653191 C 18.020079,39.575066 17.805235,39.491081 17.523985,39.401237 C 17.242735,39.311394 17.002501,39.235222 16.803282,39.172722 C 16.397032,39.043816 16.049376,38.899284 15.760313,38.739128 C 15.471251,38.575066 15.231016,38.340691 15.039610,38.036003 C 14.848204,37.727409 14.752501,37.330925 14.752501,36.846550 C 14.752501,36.241081 14.891173,35.731316 15.168516,35.317253 C 15.449766,34.903191 15.822813,34.594597 16.287657,34.391472 C 16.752501,34.188347 17.264220,34.086784 17.822813,34.086784 C 18.588438,34.086784 19.184141,34.205925 19.609923,34.444206 C 20.035704,34.682487 20.248595,34.994987 20.248595,35.381706 C 20.248595,35.643425 20.166563,35.864128 20.002501,36.043816 C 19.842345,36.219597 19.635313,36.307487 19.381407,36.307487 C 19.205626,36.307487 18.963438,36.250847 18.654845,36.137566 C 18.346251,36.024284 18.037657,35.967644 17.729063,35.967644 C 17.463438,35.967644 17.248595,36.034050 17.084532,36.166862 C 16.920470,36.299675 16.838438,36.469597 16.838438,36.676628 C 16.838438,36.797722 16.867735,36.895378 16.926329,36.969597 C 16.988829,37.039909 17.098204,37.112175 17.254454,37.186394 C 17.414610,37.260612 17.654845,37.350456 17.975157,37.455925 C 18.299376,37.561394 18.527891,37.637566 18.660704,37.684441 C 19.305235,37.895378 19.813048,38.184441 20.184141,38.551628 C 20.555235,38.914909 20.740782,39.469597 20.740782,40.215691 C 20.740782,41.161003 20.436095,41.877800 19.826720,42.366081 C 19.217345,42.854362 18.434141,43.098503 17.477110,43.098503 C 17.051329,43.098503 16.617735,43.045769 16.176329,42.940300 C 15.738829,42.834831 15.367735,42.672722 15.063048,42.453972 C 14.758360,42.235222 14.606016,41.977409 14.606016,41.680534 z M 4.6333601,39.869987 L 5.4009383,35.440300 C 5.5454695,34.616081 5.9732039,34.203972 6.6841414,34.203972 C 6.9966414,34.203972 7.2446883,34.270378 7.4282820,34.403191 C 7.6157820,34.536003 7.7720320,34.746941 7.8970320,35.036003 C 8.0259383,35.321159 8.1821883,35.752800 8.3657820,36.330925 L 9.3150008,39.295769 L 9.3384383,39.295769 L 10.287657,36.330925 C 10.471251,35.752800 10.625548,35.321159 10.750548,35.036003 C 10.879454,34.746941 11.035704,34.536003 11.219298,34.403191 C 11.406798,34.270378 11.654845,34.203972 11.963438,34.203972 C 12.678282,34.203972 13.107970,34.616081 13.252501,35.440300 L 14.020079,39.869987 C 14.234923,41.135612 14.342345,41.860222 14.342345,42.043816 C 14.342345,42.282097 14.258360,42.496941 14.090391,42.688347 C 13.926329,42.879753 13.705626,42.975456 13.428282,42.975456 C 13.158751,42.975456 12.945860,42.918816 12.789610,42.805534 C 12.633360,42.688347 12.522032,42.536003 12.455626,42.348503 C 12.389220,42.161003 12.338438,41.938347 12.303282,41.680534 L 11.723204,37.854362 L 11.699766,37.854362 L 10.393126,42.090691 C 10.299376,42.407097 10.170470,42.633659 10.006407,42.770378 C 9.8423445,42.907097 9.6157820,42.975456 9.3267195,42.975456 C 9.0376570,42.975456 8.8110945,42.907097 8.6470320,42.770378 C 8.4829695,42.633659 8.3540633,42.407097 8.2603133,42.090691 L 6.9478133,37.854362 L 6.9243758,37.854362 L 6.3501570,41.680534 C 6.3150008,41.938347 6.2642195,42.161003 6.1978133,42.348503 C 6.1314070,42.536003 6.0200789,42.688347 5.8638289,42.805534 C 5.7075789,42.918816 5.4927351,42.975456 5.2192976,42.975456 C 4.9458601,42.975456 4.7251570,42.879753 4.5571883,42.688347 C 4.3931258,42.496941 4.3110945,42.282097 4.3110945,42.043816 C 4.3110945,41.813347 4.4185164,41.088737 4.6333601,39.869987 z M -2.2807024,41.680534 C -2.2807024,41.395378 -2.1986711,41.151237 -2.0346086,40.948112 C -1.8705461,40.741081 -1.6478899,40.637566 -1.3666399,40.637566 C -1.2377336,40.637566 -1.0326555,40.692253 -0.75140548,40.801628 C -0.47015548,40.907097 -0.22796798,40.991081 -0.024842978,41.053581 C 0.18218827,41.112175 0.43414140,41.141472 0.73101640,41.141472 C 1.0864851,41.141472 1.3462508,41.063347 1.5103133,40.907097 C 1.6782820,40.750847 1.7622664,40.557487 1.7622664,40.327019 C 1.7622664,40.166862 1.7192976,40.034050 1.6333601,39.928581 C 1.5474226,39.819206 1.4302351,39.727409 1.2817976,39.653191 C 1.1333601,39.575066 0.91851640,39.491081 0.63726640,39.401237 C 0.35601640,39.311394 0.11578202,39.235222 -0.083436728,39.172722 C -0.48968673,39.043816 -0.83734298,38.899284 -1.1264055,38.739128 C -1.4154680,38.575066 -1.6557024,38.340691 -1.8471086,38.036003 C -2.0385149,37.727409 -2.1342180,37.330925 -2.1342180,36.846550 C -2.1342180,36.241081 -1.9955461,35.731316 -1.7182024,35.317253 C -1.4369524,34.903191 -1.0639055,34.594597 -0.59906173,34.391472 C -0.13421798,34.188347 0.37750077,34.086784 0.93609452,34.086784 C 1.7017195,34.086784 2.2974226,34.205925 2.7232039,34.444206 C 3.1489851,34.682487 3.3618758,34.994987 3.3618758,35.381706 C 3.3618758,35.643425 3.2798445,35.864128 3.1157820,36.043816 C 2.9556258,36.219597 2.7485945,36.307487 2.4946883,36.307487 C 2.3189070,36.307487 2.0767195,36.250847 1.7681258,36.137566 C 1.4595320,36.024284 1.1509383,35.967644 0.84234452,35.967644 C 0.57671952,35.967644 0.36187577,36.034050 0.19781327,36.166862 C 0.033750772,36.299675 -0.048280478,36.469597 -0.048280478,36.676628 C -0.048280478,36.797722 -0.018983603,36.895378 0.039610147,36.969597 C 0.10211015,37.039909 0.21148515,37.112175 0.36773515,37.186394 C 0.52789140,37.260612 0.76812577,37.350456 1.0884383,37.455925 C 1.4126570,37.561394 1.6411726,37.637566 1.7739851,37.684441 C 2.4185164,37.895378 2.9263289,38.184441 3.2974226,38.551628 C 3.6685164,38.914909 3.8540633,39.469597 3.8540633,40.215691 C 3.8540633,41.161003 3.5493758,41.877800 2.9400008,42.366081 C 2.3306258,42.854362 1.5474226,43.098503 0.59039140,43.098503 C 0.16461015,43.098503 -0.26898360,43.045769 -0.71038985,42.940300 C -1.1478899,42.834831 -1.5189836,42.672722 -1.8236711,42.453972 C -2.1283586,42.235222 -2.2807024,41.977409 -2.2807024,41.680534 z " />
  <metadata
     id="metadata24">
    <rdf:RDF
       id="RDF25">
      <cc:Work
         rdf:about=""
         id="Work26">
        <dc:format
           id="format27">image/svg+xml</dc:format>
        <dc:type
           id="type29"
           rdf:resource="http://purl.org/dc/dcmitype/StillImage" />
      </cc:Work>
    </rdf:RDF>
  </metadata>
</svg>
