<?xml version="1.0" encoding="UTF-8" standalone="no"?>
<!DOCTYPE svg PUBLIC "-//W3C//DTD SVG 20010904//EN"
"http://www.w3.org/TR/2001/REC-SVG-20010904/DTD/svg10.dtd">
<svg
   sodipodi:docname="synaescope.svg"
   height="60.0000000"
   sodipodi:version="0.32"
   width="60.0000000"
   _SVGFile__filename="scalable/apps/synaescope.svg"
   version="1.0"
   y="0"
   x="0"
   inkscape:version="0.39"
   id="svg1"
   sodipodi:docbase="/home/danny/work/flat/newscale/apps"
   xmlns="http://www.w3.org/2000/svg"
   xmlns:cc="http://web.resource.org/cc/"
   xmlns:inkscape="http://www.inkscape.org/namespaces/inkscape"
   xmlns:sodipodi="http://sodipodi.sourceforge.net/DTD/sodipodi-0.dtd"
   xmlns:rdf="http://www.w3.org/1999/02/22-rdf-syntax-ns#"
   xmlns:dc="http://purl.org/dc/elements/1.1/"
   xmlns:xlink="http://www.w3.org/1999/xlink">
  <sodipodi:namedview
     bordercolor="#666666"
     inkscape:pageshadow="2"
     inkscape:window-y="0"
     pagecolor="#ffffff"
     inkscape:window-height="699"
     inkscape:zoom="6.9465337"
     inkscape:window-x="0"
     borderopacity="1.0"
     inkscape:cx="37.697540"
     inkscape:cy="16.435217"
     inkscape:window-width="1024"
     inkscape:pageopacity="0.0"
     id="base" />
  <defs
     id="defs3" />
  <path
     style="fill:#4c4c4c;fill-rule:evenodd;stroke:#4c4c4c;stroke-opacity:1.0000000;stroke-width:2.3370112;stroke-linejoin:round;stroke-linecap:round;fill-opacity:1.0000000;stroke-dasharray:none;"
     transform="matrix(1.337178,0.000000,0.000000,1.337178,-10.31350,-13.46786)"
     d="M 12.056373,47.943627 L 48.765329,51.722490 L 49.305166,13.753913 L 11.336589,14.113805 L 12.056373,47.943627 z "
     sodipodi:stroke-cmyk="(0.0000000 0.0000000 0.0000000 0.70196080)"
     id="path1055" />
  <path
     id="path829"
     style="font-size:12.000000;font-weight:900;fill:#b3b3b3;stroke-width:0.47086295;font-family:VAG Rounded Black SSi;"
     transform="matrix(3.726802,0.000000,0.000000,4.254781,-51.01021,-86.05744)"
     d="M 18.772964,30.164000 C 18.772964,29.878843 18.854996,29.634703 19.019058,29.431578 C 19.183121,29.224546 19.405777,29.121031 19.687027,29.121031 C 19.815933,29.121031 20.021011,29.175718 20.302261,29.285093 C 20.583511,29.390562 20.825699,29.474546 21.028824,29.537046 C 21.235855,29.595640 21.487808,29.624937 21.784683,29.624937 C 22.140152,29.624937 22.399918,29.546812 22.563980,29.390562 C 22.731949,29.234312 22.815933,29.040953 22.815933,28.810484 C 22.815933,28.650328 22.772964,28.517515 22.687027,28.412046 C 22.601089,28.302671 22.483902,28.210875 22.335464,28.136656 C 22.187027,28.058531 21.972183,27.974546 21.690933,27.884703 C 21.409683,27.794859 21.169449,27.718687 20.970230,27.656187 C 20.563980,27.527281 20.216324,27.382750 19.927261,27.222593 C 19.638199,27.058531 19.397964,26.824156 19.206558,26.519468 C 19.015152,26.210875 18.919449,25.814390 18.919449,25.330015 C 18.919449,24.724546 19.058121,24.214781 19.335464,23.800718 C 19.616714,23.386656 19.989761,23.078062 20.454605,22.874937 C 20.919449,22.671812 21.431168,22.570250 21.989761,22.570250 C 22.755386,22.570250 23.351089,22.689390 23.776871,22.927671 C 24.202652,23.165953 24.415543,23.478453 24.415543,23.865171 C 24.415543,24.126890 24.333511,24.347593 24.169449,24.527281 C 24.009293,24.703062 23.802261,24.790953 23.548355,24.790953 C 23.372574,24.790953 23.130386,24.734312 22.821793,24.621031 C 22.513199,24.507750 22.204605,24.451109 21.896011,24.451109 C 21.630386,24.451109 21.415543,24.517515 21.251480,24.650328 C 21.087418,24.783140 21.005386,24.953062 21.005386,25.160093 C 21.005386,25.281187 21.034683,25.378843 21.093277,25.453062 C 21.155777,25.523375 21.265152,25.595640 21.421402,25.669859 C 21.581558,25.744078 21.821793,25.833921 22.142105,25.939390 C 22.466324,26.044859 22.694839,26.121031 22.827652,26.167906 C 23.472183,26.378843 23.979996,26.667906 24.351089,27.035093 C 24.722183,27.398375 24.907730,27.953062 24.907730,28.699156 C 24.907730,29.644468 24.603043,30.361265 23.993668,30.849546 C 23.384293,31.337828 22.601089,31.581968 21.644058,31.581968 C 21.218277,31.581968 20.784683,31.529234 20.343277,31.423765 C 19.905777,31.318296 19.534683,31.156187 19.229996,30.937437 C 18.925308,30.718687 18.772964,30.460875 18.772964,30.164000 z " />
  <metadata
     id="metadata6">
    <rdf:RDF
       id="RDF7">
      <cc:Work
         rdf:about=""
         id="Work8">
        <dc:title
           id="title9">Part of the Flat Icon Collection (Thu Aug 26 14:31:40 2004)</dc:title>
        <dc:description
           id="description11" />
        <dc:subject
           id="subject12">
          <rdf:Bag
             id="Bag13">
            <rdf:li
               id="li14" />
          </rdf:Bag>
        </dc:subject>
        <dc:publisher
           id="publisher15">
          <cc:Agent
             rdf:about=""
             id="Agent16">
            <dc:title
               id="title17" />
          </cc:Agent>
        </dc:publisher>
        <dc:creator
           id="creator18">
          <cc:Agent
             rdf:about=""
             id="Agent19">
            <dc:title
               id="title20">Danny Allen</dc:title>
          </cc:Agent>
        </dc:creator>
        <dc:rights
           id="rights22">
          <cc:Agent
             rdf:about=""
             id="Agent23">
            <dc:title
               id="title24">Danny Allen</dc:title>
          </cc:Agent>
        </dc:rights>
        <dc:date
           id="date26" />
        <dc:format
           id="format27">image/svg+xml</dc:format>
        <dc:type
           rdf:resource="http://purl.org/dc/dcmitype/StillImage"
           id="type29" />
        <cc:license
           rdf:resource="http://creativecommons.org/licenses/LGPL/2.1/"
           id="license30">
          <dc:date
             id="date31" />
        </cc:license>
        <dc:language
           id="language32">en</dc:language>
      </cc:Work>
    </rdf:RDF>
  </metadata>
</svg>
