<?xml version="1.0" encoding="UTF-8" standalone="no"?>
<!DOCTYPE svg PUBLIC "-//W3C//DTD SVG 20010904//EN"
"http://www.w3.org/TR/2001/REC-SVG-20010904/DTD/svg10.dtd">
<svg
   sodipodi:docname="thunderbird.svg"
   height="60.0000000"
   sodipodi:version="0.32"
   width="60.0000000"
   _SVGFile__filename="scalable/apps/thunderbird.svg"
   version="1.0"
   y="0"
   x="0"
   inkscape:version="0.39"
   id="svg1"
   sodipodi:docbase="/home/danny/work/flat/newscale/apps"
   xmlns="http://www.w3.org/2000/svg"
   xmlns:cc="http://web.resource.org/cc/"
   xmlns:inkscape="http://www.inkscape.org/namespaces/inkscape"
   xmlns:sodipodi="http://sodipodi.sourceforge.net/DTD/sodipodi-0.dtd"
   xmlns:rdf="http://www.w3.org/1999/02/22-rdf-syntax-ns#"
   xmlns:dc="http://purl.org/dc/elements/1.1/"
   xmlns:xlink="http://www.w3.org/1999/xlink">
  <sodipodi:namedview
     bordercolor="#666666"
     inkscape:pageshadow="2"
     inkscape:window-y="0"
     pagecolor="#ffffff"
     inkscape:window-height="685"
     inkscape:zoom="4.9945719"
     inkscape:window-x="0"
     borderopacity="1.0"
     inkscape:cx="41.514460"
     inkscape:cy="42.925556"
     inkscape:window-width="1016"
     inkscape:pageopacity="0.0"
     id="base" />
  <defs
     id="defs3">
    <linearGradient
       id="linearGradient772">
      <stop
         style="stop-color:#000;stop-opacity:1;"
         id="stop773"
         offset="0" />
      <stop
         style="stop-color:#fff;stop-opacity:1;"
         id="stop774"
         offset="1" />
    </linearGradient>
    <linearGradient
       xlink:href="#linearGradient772"
       id="linearGradient775" />
  </defs>
  <path
     sodipodi:nodetypes="cccc"
     style="font-size:12.000000;fill:#cccccc;fill-rule:evenodd;stroke:#4c4c4c;stroke-width:3.1250000;stroke-linecap:round;stroke-linejoin:round;stroke-opacity:1.0000000;"
     d="M 7.9830022,29.086885 L 7.9830022,4.3009121 L 52.329098,4.3009121 L 52.329098,32.775775"
     sodipodi:stroke-cmyk="(0.0000000 0.0000000 0.0000000 0.70196080)"
     id="path834" />
  <path
     sodipodi:nodetypes="ccc"
     style="font-size:12.000000;fill:none;fill-rule:evenodd;stroke:#4c4c4c;stroke-width:2.5000000;stroke-linecap:round;stroke-linejoin:round;stroke-opacity:1.0000000;"
     d="M 7.9830022,4.4778809 L 29.900105,18.100826 L 52.329098,4.4778809"
     sodipodi:stroke-cmyk="(0.0000000 0.0000000 0.0000000 0.69999999)"
     id="path590" />
  <path
     style="fill:#4c4c4c;fill-rule:evenodd;stroke:#333333;stroke-width:3.1250000;stroke-linejoin:round;"
     d="M 32.507969,30.838367 C 37.315675,19.210427 18.420274,7.1352588 28.482914,10.154051 C 38.545554,13.172843 48.384580,30.502945 48.384580,30.502945 L 45.253980,47.497626 L 28.371107,45.261484 L 32.507969,30.838367 z "
     sodipodi:stroke-cmyk="(0.0000000 0.0000000 0.0000000 0.80000001)"
     id="path953" />
  <path
     sodipodi:nodetypes="ccccccccccccc"
     style="fill:#7f7f7f;fill-rule:evenodd;stroke:#333333;stroke-width:3.1250000;stroke-linecap:round;stroke-linejoin:round;"
     d="M 23.451594,55.883159 C 11.264618,55.212317 5.8978776,47.721240 5.8978776,46.267748 C 5.8978776,44.814255 9.1402839,46.603169 10.705583,45.149677 L 2.8790846,35.534266 C 2.8790846,34.975230 3.3263133,34.080773 6.4569124,35.646073 C 9.5875114,37.211372 9.5875114,37.211372 9.5875114,37.211372 C 9.5875114,37.211372 7.3513699,30.838367 7.1277556,27.707768 C 6.6805268,24.129940 6.9041412,14.514528 10.593776,20.104883 C 14.283411,25.695240 16.854974,31.509209 19.202924,31.956438 C 21.550873,32.403666 26.582193,32.962701 26.582193,32.962701 C 26.582193,32.962701 29.153756,32.962701 29.489177,22.676448 C 34.185076,27.148732 31.837127,40.341971 31.837127,40.341971 L 23.451594,55.883159 z "
     sodipodi:stroke-cmyk="(0.0000000 0.0000000 0.0000000 0.80000001)"
     id="path952" />
  <path
     sodipodi:nodetypes="cccccccccccccccc"
     style="fill:#b3b3b3;fill-rule:evenodd;stroke:#333333;stroke-width:3.1250000;stroke-linecap:round;stroke-linejoin:round;"
     d="M 46.925537,54.412777 C 40.923128,57.991488 22.958758,55.759773 22.923364,55.848258 L 24.156382,52.475818 L 20.954469,49.076255 L 21.152118,44.253623 L 25.935221,46.427761 C 22.851899,40.656413 17.278199,39.351930 17.199140,38.403216 C 16.764312,30.022901 22.891428,16.582775 23.721554,22.314593 C 24.037792,23.619075 23.694426,27.671459 25.336656,30.925303 C 30.921793,41.981042 37.745320,43.429315 40.284534,42.830551 C 45.842541,43.126242 49.020617,21.049639 49.692621,20.772931 C 50.641336,20.614811 54.910554,29.034656 52.459707,36.822024 C 55.859267,36.742965 58.468234,30.813496 56.887042,36.663904 C 55.305851,42.514313 48.506729,45.202338 51.985349,44.253623 C 56.017387,43.067729 55.424441,44.609391 54.396667,46.704470 C 53.685131,48.206602 49.798831,53.392460 46.925537,54.412777 z "
     sodipodi:stroke-cmyk="(0.0000000 0.0000000 0.0000000 0.80000001)"
     id="path951" />
  <metadata
     id="metadata13">
    <rdf:RDF
       id="RDF14">
      <cc:Work
         rdf:about=""
         id="Work15">
        <dc:title
           id="title16">Part of the Flat Icon Collection (Thu Aug 26 14:31:40 2004)</dc:title>
        <dc:description
           id="description18" />
        <dc:subject
           id="subject19">
          <rdf:Bag
             id="Bag20">
            <rdf:li
               id="li21" />
          </rdf:Bag>
        </dc:subject>
        <dc:publisher
           id="publisher22">
          <cc:Agent
             rdf:about=""
             id="Agent23">
            <dc:title
               id="title24" />
          </cc:Agent>
        </dc:publisher>
        <dc:creator
           id="creator25">
          <cc:Agent
             rdf:about=""
             id="Agent26">
            <dc:title
               id="title27">Danny Allen</dc:title>
          </cc:Agent>
        </dc:creator>
        <dc:rights
           id="rights29">
          <cc:Agent
             rdf:about=""
             id="Agent30">
            <dc:title
               id="title31">Danny Allen</dc:title>
          </cc:Agent>
        </dc:rights>
        <dc:date
           id="date33" />
        <dc:format
           id="format34">image/svg+xml</dc:format>
        <dc:type
           rdf:resource="http://purl.org/dc/dcmitype/StillImage"
           id="type36" />
        <cc:license
           rdf:resource="http://creativecommons.org/licenses/LGPL/2.1/"
           id="license37">
          <dc:date
             id="date38" />
        </cc:license>
        <dc:language
           id="language39">en</dc:language>
      </cc:Work>
    </rdf:RDF>
  </metadata>
</svg>
