<?xml version="1.0" encoding="UTF-8" standalone="no"?>
<!DOCTYPE svg PUBLIC "-//W3C//DTD SVG 20010904//EN"
"http://www.w3.org/TR/2001/REC-SVG-20010904/DTD/svg10.dtd">
<svg
   sodipodi:docname="wabi.svg"
   height="60.0000000"
   sodipodi:version="0.32"
   width="60.0000000"
   _SVGFile__filename="scalable/apps/wabi.svg"
   version="1.0"
   y="0"
   x="0"
   inkscape:version="0.39"
   id="svg1"
   sodipodi:docbase="/home/danny/work/flat/newscale/apps"
   xmlns="http://www.w3.org/2000/svg"
   xmlns:cc="http://web.resource.org/cc/"
   xmlns:inkscape="http://www.inkscape.org/namespaces/inkscape"
   xmlns:sodipodi="http://sodipodi.sourceforge.net/DTD/sodipodi-0.dtd"
   xmlns:rdf="http://www.w3.org/1999/02/22-rdf-syntax-ns#"
   xmlns:dc="http://purl.org/dc/elements/1.1/"
   xmlns:xlink="http://www.w3.org/1999/xlink">
  <sodipodi:namedview
     bordercolor="#666666"
     inkscape:pageshadow="2"
     inkscape:window-y="0"
     pagecolor="#ffffff"
     inkscape:window-height="685"
     inkscape:zoom="6.9465337"
     inkscape:window-x="0"
     borderopacity="1.0"
     inkscape:cx="38.082561"
     inkscape:cy="26.540556"
     inkscape:window-width="1016"
     inkscape:pageopacity="0.0"
     id="base" />
  <defs
     id="defs3">
    <linearGradient
       id="linearGradient1160">
      <stop
         style="stop-color:#000;stop-opacity:1;"
         id="stop1161"
         offset="0" />
      <stop
         style="stop-color:#fff;stop-opacity:1;"
         id="stop1162"
         offset="1" />
    </linearGradient>
    <linearGradient
       xlink:href="#linearGradient1160"
       id="linearGradient1163" />
  </defs>
  <metadata
     id="metadata17">
    <rdf:RDF
       id="RDF18">
      <cc:Work
         rdf:about=""
         id="Work19">
        <dc:title
           id="title20">Part of the Flat Icon Collection (Thu Aug 26 14:31:40 2004)</dc:title>
        <dc:description
           id="description22" />
        <dc:subject
           id="subject23">
          <rdf:Bag
             id="Bag24">
            <rdf:li
               id="li25" />
          </rdf:Bag>
        </dc:subject>
        <dc:publisher
           id="publisher26">
          <cc:Agent
             rdf:about=""
             id="Agent27">
            <dc:title
               id="title28" />
          </cc:Agent>
        </dc:publisher>
        <dc:creator
           id="creator29">
          <cc:Agent
             rdf:about=""
             id="Agent30">
            <dc:title
               id="title31">Danny Allen</dc:title>
          </cc:Agent>
        </dc:creator>
        <dc:rights
           id="rights33">
          <cc:Agent
             rdf:about=""
             id="Agent34">
            <dc:title
               id="title35">Danny Allen</dc:title>
          </cc:Agent>
        </dc:rights>
        <dc:date
           id="date37" />
        <dc:format
           id="format38">image/svg+xml</dc:format>
        <dc:type
           rdf:resource="http://purl.org/dc/dcmitype/StillImage"
           id="type40" />
        <cc:license
           rdf:resource="http://creativecommons.org/licenses/LGPL/2.1/"
           id="license41">
          <dc:date
             id="date42" />
        </cc:license>
        <dc:language
           id="language43">en</dc:language>
      </cc:Work>
    </rdf:RDF>
  </metadata>
  <rect
     style="font-size:12.000000;fill:#cccccc;fill-opacity:1.0000000;fill-rule:evenodd;stroke:none;stroke-width:2.7315099;stroke-linecap:round;stroke-linejoin:round;"
     rx="2.3673460"
     height="51.853775"
     width="52.184277"
     y="4.1818800"
     x="3.8859062"
     id="rect1681"
     ry="3.0985293" />
  <rect
     style="font-size:12.000000;fill:none;fill-opacity:1.0000000;fill-rule:evenodd;stroke:none;stroke-width:2.7315099;stroke-linecap:round;stroke-linejoin:round;"
     rx="2.3673460"
     transform="matrix(1.000000,0.000000,0.000000,1.308862,-7.290000e-2,-8.896909)"
     height="39.617451"
     width="52.184277"
     y="9.9924889"
     x="3.9588070"
     id="rect985"
     ry="2.3673460" />
  <path
     style="font-size:12.000000;fill:#7f7f7f;fill-rule:evenodd;stroke:none;stroke-width:3.1250000;stroke-linecap:round;stroke-linejoin:round;stroke-miterlimit:4.0000000;"
     d="M 6.2799752,4.4817147 C 4.9940482,4.4817147 3.9588082,5.5169555 3.9588082,6.8028824 L 3.9588082,10.882279 C 3.9588082,12.168206 4.9940482,13.203447 6.2799752,13.203447 L 53.821915,13.203447 C 55.107842,13.203447 56.143083,12.168206 56.143083,10.882279 L 56.143083,6.8028824 C 56.143083,5.5169555 55.107842,4.4817147 53.821915,4.4817147 L 6.2799752,4.4817147 z "
     id="path986"
     sodipodi:nodetypes="ccccccccc"
     transform="translate(-7.290000e-2,-0.412235)" />
  <path
     style="font-size:12.000000;fill:none;fill-opacity:0.75000000;fill-rule:evenodd;stroke:#333333;stroke-width:1.8750000;stroke-linecap:round;stroke-linejoin:round;stroke-opacity:1.0000000;"
     d="M 53.028658,7.6135273 L 50.322628,10.319557 M 50.259697,7.5505963 L 53.028658,10.319557"
     sodipodi:nodetypes="cccc"
     sodipodi:stroke-cmyk="(0.0000000 0.0000000 0.0000000 0.80000001)"
     id="path987"
     transform="translate(-7.290000e-2,-0.412235)" />
  <path
     style="font-size:12.000000;fill:none;fill-opacity:1.0000000;fill-rule:evenodd;stroke:#333333;stroke-width:3.1249979;stroke-linecap:round;stroke-linejoin:round;"
     d="M 6.2532530,4.1818800 C 4.9417430,4.1818800 3.8859070,5.5638238 3.8859070,7.2804094 L 3.8859070,52.937127 C 3.8859070,54.653711 4.9417430,56.035656 6.2532530,56.035656 L 53.702838,56.035656 C 55.014347,56.035656 56.070184,54.653711 56.070184,52.937127 L 56.070184,7.2804094 C 56.070184,5.5638238 55.014347,4.1818800 53.702838,4.1818800 L 6.2532530,4.1818800 z "
     id="rect1561" />
  <path
     style="font-size:12.000000;fill:none;fill-rule:evenodd;stroke:#333333;stroke-width:3.1250000;stroke-linecap:round;stroke-linejoin:round;stroke-miterlimit:4.0000000;stroke-opacity:1.0000000;"
     d="M 3.9588081,10.882279 C 3.9588081,12.168206 4.9940481,13.203447 6.2799751,13.203447 L 53.826204,13.203447 C 55.112131,13.203447 56.147372,12.168206 56.147372,10.882279"
     id="rect1558"
     sodipodi:nodetypes="cccc"
     sodipodi:stroke-cmyk="(0.0000000 0.0000000 0.0000000 0.80000001)"
     transform="translate(-7.290000e-2,-0.412235)" />
  <g
     id="g1046"
     transform="matrix(0.852661,0.000000,0.000000,0.852661,4.628712,8.298546)">
    <path
       style="fill:#4c4c4c;fill-opacity:1.0000000;fill-rule:evenodd;stroke:none;stroke-width:1.8750000;stroke-linecap:round;stroke-linejoin:round;stroke-opacity:1.0000000;"
       d="M 10.137434,12.511603 L 5.5413080,29.851535 C -0.93505300,20.450367 -14.305605,23.793005 -14.305605,23.793005 L -10.545138,10.004624 C -9.7094780,10.004624 -11.380797,5.4084975 -4.4866070,6.4530718 C 5.9591360,6.8709015 10.137434,12.511603 10.137434,12.511603 z "
       sodipodi:nodetypes="cccccc"
       id="path1039"
       transform="translate(25.00000,0.000000)" />
    <path
       style="fill:#7f7f7f;fill-opacity:1.0000000;fill-rule:evenodd;stroke:none;stroke-width:1.8750000;stroke-linecap:round;stroke-linejoin:round;stroke-opacity:1.0000000;"
       d="M 5.4397677,29.961600 L 0.84364179,47.301532 C -6.8145189,40.854867 -19.298722,43.606603 -19.003271,41.243001 L -14.799628,23.909220 C -1.4073336,19.625192 5.4397677,29.961600 5.4397677,29.961600 z "
       sodipodi:nodetypes="ccccc"
       id="path1040"
       transform="translate(25.00000,0.000000)" />
    <path
       style="fill:#b3b3b3;fill-opacity:1.0000000;fill-rule:evenodd;stroke:none;stroke-width:1.8750000;stroke-linecap:round;stroke-linejoin:round;stroke-opacity:1.0000000;"
       d="M -0.44947297,45.746326 L 4.6816681,28.166694 C 11.027292,38.225682 24.147389,37.010152 24.147389,37.010152 L 19.753259,53.345355 C 10.645072,58.724680 -0.44947297,45.746326 -0.44947297,45.746326 z "
       sodipodi:nodetypes="ccccc"
       id="path1041"
       transform="translate(25.00000,0.000000)" />
    <path
       style="fill:#b3b3b3;fill-opacity:1.0000000;fill-rule:evenodd;stroke:none;stroke-width:1.8750000;stroke-linecap:round;stroke-linejoin:round;stroke-opacity:1.0000000;"
       d="M 4.4892882,28.805906 L 9.7681541,11.521724 C 16.261503,19.955735 29.086150,20.069732 29.086150,20.069732 L 25.135196,33.450432 C 24.299615,33.363931 25.907161,38.126919 19.028084,36.370107 C 8.5891162,34.871574 4.4892882,28.805906 4.4892882,28.805906 z "
       sodipodi:nodetypes="cccccc"
       id="path1042"
       transform="translate(25.00000,0.000000)" />
    <path
       style="fill:none;fill-opacity:0.75000000;fill-rule:evenodd;stroke:#333333;stroke-width:3.1250000;stroke-linecap:round;stroke-linejoin:round;stroke-miterlimit:4.0000000;stroke-opacity:1.0000000;"
       d="M 15.145185,7.2439942 L 5.6447460,43.026982 C 28.323570,38.956428 28.500078,58.996649 44.463385,53.935048 L 53.814602,18.714095 C 38.740580,24.238581 34.916468,1.4289157 15.145185,7.2439942 z "
       sodipodi:nodetypes="ccccc"
       sodipodi:stroke-cmyk="(0.0000000 0.0000000 0.0000000 0.80000001)"
       id="path1043" />
    <path
       style="fill:none;fill-opacity:0.75000000;fill-rule:evenodd;stroke:#333333;stroke-width:1.8750000;stroke-linecap:butt;stroke-linejoin:miter;stroke-miterlimit:4.0000000;stroke-opacity:1.0000000;"
       d="M 34.991258,11.902925 L 25.320948,46.512460"
       id="path1572"
       sodipodi:nodetypes="cc" />
    <path
       style="fill:none;fill-opacity:0.75000000;fill-rule:evenodd;stroke:#333333;stroke-width:1.8750000;stroke-linecap:butt;stroke-linejoin:miter;stroke-miterlimit:4.0000000;stroke-opacity:1.0000000;"
       d="M 10.688239,23.609091 C 20.485791,21.573236 24.557501,23.863573 29.774379,29.080451 C 34.736776,34.042849 42.243993,38.623522 49.623967,36.078703"
       id="path1573"
       sodipodi:nodetypes="ccc" />
  </g>
</svg>
