<?xml version="1.0" encoding="UTF-8" standalone="no"?>
<!DOCTYPE svg PUBLIC "-//W3C//DTD SVG 20010904//EN"
"http://www.w3.org/TR/2001/REC-SVG-20010904/DTD/svg10.dtd">
<svg
   sodipodi:docname="cdwriter_mount.svg"
   height="60.0000000"
   sodipodi:version="0.32"
   width="60.0000000"
   _SVGFile__filename="scalable/devices/cdwriter_mount.svg"
   version="1.0"
   y="0"
   x="0"
   inkscape:version="0.39"
   id="svg1"
   sodipodi:docbase="/home/danny/work/flat/newscale/devices"
   xmlns="http://www.w3.org/2000/svg"
   xmlns:cc="http://web.resource.org/cc/"
   xmlns:inkscape="http://www.inkscape.org/namespaces/inkscape"
   xmlns:sodipodi="http://sodipodi.sourceforge.net/DTD/sodipodi-0.dtd"
   xmlns:rdf="http://www.w3.org/1999/02/22-rdf-syntax-ns#"
   xmlns:dc="http://purl.org/dc/elements/1.1/"
   xmlns:xlink="http://www.w3.org/1999/xlink">
  <sodipodi:namedview
     bordercolor="#666666"
     inkscape:pageshadow="2"
     inkscape:window-y="0"
     snaptoguides="true"
     pagecolor="#ffffff"
     inkscape:window-height="685"
     inkscape:zoom="6.9465337"
     inkscape:window-x="0"
     borderopacity="1.0"
     inkscape:cx="35.692594"
     inkscape:cy="12.566798"
     inkscape:window-width="1016"
     inkscape:pageopacity="0.0"
     id="base"
     showguides="true" />
  <defs
     id="defs3" />
  <path
     transform="matrix(1.072319,0.000000,0.000000,1.072319,-3.749958,-4.018670)"
     style="font-size:12.000000;fill:#b3b3b3;fill-opacity:1.0000000;fill-rule:evenodd;stroke:#4c4c4c;stroke-width:2.9142399;stroke-linecap:round;stroke-linejoin:round;stroke-opacity:1.0000000;"
     d="M 57.131182,31.816132 C 57.131182,45.898650 45.701892,57.327940 31.619373,57.327940 C 17.536855,57.327940 6.1075649,45.898650 6.1075649,31.816132 C 6.1075649,17.733613 17.536855,6.3043232 31.619373,6.3043232 C 45.701892,6.3043232 57.131182,17.733613 57.131182,31.816132 z "
     id="path587" />
  <path
     style="font-size:12.000000;fill:#b3b3b3;fill-opacity:1.0000000;fill-rule:evenodd;stroke:#7f7f7f;stroke-width:1.8749962;stroke-linecap:round;stroke-linejoin:round;stroke-dasharray:1.8749961 3.7500025;stroke-dashoffset:0.0000000;stroke-opacity:1.0000000;"
     d="M 49.042737,24.806476 C 51.963864,35.231902 45.873419,46.063887 35.447994,48.985014 C 25.022569,51.906140 14.190584,45.815695 11.269457,35.390269 C 8.3483299,24.964844 14.438775,14.132859 24.864200,11.211732 C 35.289625,8.2906050 46.121610,14.381051 49.042737,24.806476 z "
     id="path740"
     sodipodi:stroke-cmyk="(0.0000000 0.0000000 0.0000000 0.50196081)" />
  <g
     id="g1564"
     transform="translate(7.478630e-2,-0.860050)"
     style="stroke:#4c4c4c;stroke-opacity:1.0000000;">
    <path
       transform="translate(0.508964,0.127241)"
       style="font-size:12.000000;fill:#7f7f7f;fill-rule:evenodd;stroke:#4c4c4c;stroke-width:3.1250000;stroke-linecap:round;stroke-linejoin:round;stroke-opacity:1.0000000;"
       d="M 40.208137,30.861824 C 40.208137,36.691495 35.476809,41.422822 29.647139,41.422822 C 23.817468,41.422822 19.086141,36.691495 19.086141,30.861824 C 19.086141,25.032153 23.817468,20.300826 29.647139,20.300826 C 35.476809,20.300826 40.208137,25.032153 40.208137,30.861824 z "
       id="path588" />
    <path
       style="font-size:12.000000;fill:#cccccc;fill-rule:evenodd;stroke:#4c4c4c;stroke-width:1.8750000;stroke-linecap:round;stroke-linejoin:round;stroke-opacity:1.0000000;"
       d="M 35.818324,30.989065 C 35.818324,34.114612 33.281650,36.651287 30.156104,36.651287 C 27.030557,36.651287 24.493882,34.114612 24.493882,30.989065 C 24.493882,27.863519 27.030557,25.326843 30.156104,25.326843 C 33.281650,25.326843 35.818324,27.863519 35.818324,30.989065 z "
       id="path589" />
  </g>
  <g
     id="g1573">
    <path
       style="font-size:12.000000;fill:#4c4c4c;fill-rule:evenodd;stroke:#333333;stroke-width:1.6605648;stroke-linecap:round;stroke-linejoin:round;stroke-dasharray:none;fill-opacity:1.0000000;stroke-miterlimit:4.0000000;"
       d="M 64.489325 23.609091 C 66.078952 16.023656 66.078952 16.023656 66.078952 16.023656 L 67.718687 23.593716 L 64.489325 23.609091 z "
       fill-opacity="1.0"
       sodipodi:nodetypes="cccc"
       transform="matrix(-1.139301,-0.984154,0.984154,-1.139301,84.35487,133.1097)"
       sodipodi:stroke-cmyk="(0 0 0 0.8)"
       id="path599" />
    <rect
       style="font-size:12.000000;fill:#b3b3b3;fill-rule:evenodd;stroke:#333333;stroke-width:1.6605648;stroke-linecap:round;stroke-linejoin:round;stroke-dasharray:none;stroke-miterlimit:4.0000000;"
       sodipodi:fill-cmyk="(0 0 0 0.3)"
       transform="matrix(-1.139301,-0.984154,0.984154,-1.139301,84.35487,133.1097)"
       height="22.90336990"
       width="3.18102336"
       sodipodi:stroke-cmyk="(0 0 0 0.8)"
       y="23.61681097"
       x="64.51115417"
       id="rect598" />
    <path
       transform="matrix(-0.749586,-0.647510,0.647510,-0.749586,60.98188,100.8992)"
       style="font-size:12.000000;fill:#333333;fill-rule:evenodd;stroke:#333333;stroke-width:2.5239029;stroke-linecap:round;stroke-linejoin:round;stroke-miterlimit:4.0000000;"
       d="M 61.966338,18.726221 C 61.966338,19.068626 61.688444,19.346521 61.346039,19.346521 C 61.003633,19.346521 60.725739,19.068626 60.725739,18.726221 C 60.725739,18.383816 61.003633,18.105922 61.346039,18.105922 C 61.688444,18.105922 61.966338,18.383816 61.966338,18.726221 z "
       id="path600" />
    <path
       transform="matrix(-1.139301,-0.984154,0.984154,-1.139301,84.35487,133.1097)"
       style="font-size:12.000000;fill:#cccccc;fill-rule:evenodd;stroke:#333333;stroke-width:1.6605648;stroke-linecap:round;stroke-linejoin:round;stroke-miterlimit:4.0000000;"
       d="M 65.320297,46.448841 C 64.766297,46.448841 64.320297,46.888649 64.320297,47.434958 C 64.320297,47.981267 64.766297,48.421076 65.320297,48.421076 L 66.946664,48.421076 C 67.500664,48.421076 67.946664,47.981267 67.946664,47.434958 C 67.946664,46.888649 67.500664,46.448841 66.946664,46.448841 L 65.320297,46.448841 z "
       id="rect601" />
  </g>
  <metadata
     id="metadata13">
    <rdf:RDF
       id="RDF14">
      <cc:Work
         rdf:about=""
         id="Work15">
        <dc:title
           id="title16">Part of the Flat Icon Collection (Thu Aug 26 14:39:51 2004)</dc:title>
        <dc:description
           id="description18" />
        <dc:subject
           id="subject19">
          <rdf:Bag
             id="Bag20">
            <rdf:li
               id="li21" />
          </rdf:Bag>
        </dc:subject>
        <dc:publisher
           id="publisher22">
          <cc:Agent
             rdf:about=""
             id="Agent23">
            <dc:title
               id="title24" />
          </cc:Agent>
        </dc:publisher>
        <dc:creator
           id="creator25">
          <cc:Agent
             rdf:about=""
             id="Agent26">
            <dc:title
               id="title27">Danny Allen</dc:title>
          </cc:Agent>
        </dc:creator>
        <dc:rights
           id="rights29">
          <cc:Agent
             rdf:about=""
             id="Agent30">
            <dc:title
               id="title31">Danny Allen</dc:title>
          </cc:Agent>
        </dc:rights>
        <dc:date
           id="date33" />
        <dc:format
           id="format34">image/svg+xml</dc:format>
        <dc:type
           rdf:resource="http://purl.org/dc/dcmitype/StillImage"
           id="type36" />
        <cc:license
           rdf:resource="http://creativecommons.org/licenses/LGPL/2.1/"
           id="license37">
          <dc:date
             id="date38" />
        </cc:license>
        <dc:language
           id="language39">en</dc:language>
      </cc:Work>
    </rdf:RDF>
  </metadata>
</svg>
