<?xml version="1.0" encoding="UTF-8" standalone="no"?>
<!DOCTYPE svg PUBLIC "-//W3C//DTD SVG 20010904//EN"
"http://www.w3.org/TR/2001/REC-SVG-20010904/DTD/svg10.dtd">
<svg
   sodipodi:docname="xv.svg"
   height="60.0000000"
   sodipodi:version="0.32"
   width="60.0000000"
   _SVGFile__filename="scalable/apps/xv.svg"
   version="1.0"
   y="0"
   x="0"
   inkscape:version="0.39"
   id="svg1"
   sodipodi:docbase="/home/danny/work/flat/newscale/apps"
   xmlns="http://www.w3.org/2000/svg"
   xmlns:cc="http://web.resource.org/cc/"
   xmlns:inkscape="http://www.inkscape.org/namespaces/inkscape"
   xmlns:sodipodi="http://sodipodi.sourceforge.net/DTD/sodipodi-0.dtd"
   xmlns:rdf="http://www.w3.org/1999/02/22-rdf-syntax-ns#"
   xmlns:dc="http://purl.org/dc/elements/1.1/"
   xmlns:xlink="http://www.w3.org/1999/xlink">
  <sodipodi:namedview
     bordercolor="#666666"
     inkscape:pageshadow="2"
     inkscape:window-y="0"
     pagecolor="#ffffff"
     inkscape:window-height="699"
     inkscape:zoom="4.9119411"
     inkscape:window-x="0"
     borderopacity="1.0"
     inkscape:cx="33.503900"
     inkscape:cy="11.924029"
     inkscape:window-width="1024"
     inkscape:pageopacity="0.0"
     id="base" />
  <defs
     id="defs3" />
  <path
     id="path828"
     style="font-size:12.000000;font-style:italic;font-weight:500;fill:#333333;stroke:#333333;stroke-width:0.26383170;font-family:URW Chancery L;fill-opacity:1.0000000;"
     transform="matrix(4.737869,0.000000,-1.546669,4.737869,-76.27880,-104.5752)"
     d="M 31.736189,27.645620 C 31.796189,27.465620 31.856189,27.297620 31.868189,27.237620 C 32.132189,26.481620 32.216189,26.409620 32.864189,26.421620 C 33.344189,26.409620 33.476189,26.397620 33.764189,26.337620 C 33.068189,27.117620 32.864189,27.369620 32.696189,27.645620 C 32.348189,28.221620 32.144189,28.905620 32.144189,29.493620 C 32.144189,30.045620 32.396189,30.381620 32.792189,30.381620 C 33.740189,30.381620 34.988189,29.385620 35.816189,27.969620 C 36.284189,27.177620 36.608189,26.217620 36.608189,25.629620 C 36.608189,25.353620 36.524189,25.173620 36.296189,24.981620 C 36.008189,25.065620 35.864189,25.125620 35.492189,25.305620 C 35.636189,25.629620 35.684189,25.821620 35.684189,26.133620 C 35.684189,26.865620 35.468189,27.633620 35.060189,28.329620 C 34.592189,29.121620 33.932189,29.697620 33.488189,29.697620 C 33.224189,29.697620 33.008189,29.385620 33.008189,28.977620 C 33.008189,28.425620 33.200189,27.765620 33.536189,27.153620 C 33.776189,26.733620 34.004189,26.421620 34.568189,25.773620 C 34.580189,25.737620 34.580189,25.701620 34.580189,25.689620 C 34.580189,25.653620 34.580189,25.641620 34.556189,25.557620 L 34.436189,25.557620 C 34.304189,25.713620 34.172189,25.749620 33.788189,25.749620 L 33.500189,25.749620 C 32.756189,25.713620 32.636189,25.713620 32.540189,25.713620 C 32.312189,25.713620 32.192189,25.749620 32.120189,25.845620 C 31.964189,26.037620 31.772189,26.541620 31.532189,27.393620 L 31.736189,27.645620 z M 26.684189,30.525620 C 26.708189,30.537620 26.732189,30.537620 26.744189,30.537620 C 26.768189,30.549620 26.792189,30.549620 26.792189,30.549620 C 26.816189,30.549620 26.852189,30.537620 26.888189,30.525620 C 27.140189,29.469620 27.656189,28.677620 28.532189,27.969620 C 28.676189,29.829620 28.736189,30.285620 28.916189,30.837620 C 29.180189,31.641620 29.960189,32.145620 30.956189,32.145620 C 31.628189,32.145620 32.048189,31.977620 32.444189,31.569620 L 31.976189,31.005620 C 31.652189,31.581620 31.328189,31.821620 30.896189,31.821620 C 30.320189,31.821620 29.924189,31.341620 29.672189,30.345620 C 29.552189,29.877620 29.456189,29.265620 29.192189,27.381620 C 30.200189,26.445620 30.608189,26.157620 30.932189,26.157620 C 31.064189,26.157620 31.184189,26.181620 31.436189,26.289620 L 31.700189,25.449620 C 31.520189,25.329620 31.436189,25.293620 31.280189,25.293620 C 31.136189,25.293620 31.028189,25.317620 30.824189,25.413620 C 30.488189,25.713620 30.428189,25.773620 29.972189,26.217620 C 29.576189,26.601620 29.468189,26.709620 29.132189,27.021620 C 29.084189,26.577620 29.012189,26.133620 28.976189,25.965620 C 28.868189,25.473620 28.700189,25.293620 28.316189,25.293620 C 27.944189,25.293620 27.596189,25.497620 26.768189,26.217620 L 26.744189,26.541620 C 27.464189,26.061620 27.524189,26.037620 27.764189,26.037620 C 28.160189,26.037620 28.304189,26.349620 28.484189,27.609620 C 28.256189,27.801620 28.100189,27.921620 28.040189,27.969620 C 27.032189,28.737620 27.020189,28.737620 26.792189,28.953620 C 26.576189,29.181620 26.492189,29.349620 26.288189,29.901620 L 26.684189,30.525620 z " />
  <metadata
     id="metadata5">
    <rdf:RDF
       id="RDF6">
      <cc:Work
         rdf:about=""
         id="Work7">
        <dc:title
           id="title8">Part of the Flat Icon Collection (Thu Aug 26 14:31:40 2004)</dc:title>
        <dc:description
           id="description10" />
        <dc:subject
           id="subject11">
          <rdf:Bag
             id="Bag12">
            <rdf:li
               id="li13" />
          </rdf:Bag>
        </dc:subject>
        <dc:publisher
           id="publisher14">
          <cc:Agent
             rdf:about=""
             id="Agent15">
            <dc:title
               id="title16" />
          </cc:Agent>
        </dc:publisher>
        <dc:creator
           id="creator17">
          <cc:Agent
             rdf:about=""
             id="Agent18">
            <dc:title
               id="title19">Danny Allen</dc:title>
          </cc:Agent>
        </dc:creator>
        <dc:rights
           id="rights21">
          <cc:Agent
             rdf:about=""
             id="Agent22">
            <dc:title
               id="title23">Danny Allen</dc:title>
          </cc:Agent>
        </dc:rights>
        <dc:date
           id="date25" />
        <dc:format
           id="format26">image/svg+xml</dc:format>
        <dc:type
           rdf:resource="http://purl.org/dc/dcmitype/StillImage"
           id="type28" />
        <cc:license
           rdf:resource="http://creativecommons.org/licenses/LGPL/2.1/"
           id="license29">
          <dc:date
             id="date30" />
        </cc:license>
        <dc:language
           id="language31">en</dc:language>
      </cc:Work>
    </rdf:RDF>
  </metadata>
</svg>
