<?xml version="1.0" encoding="UTF-8" standalone="no"?>
<!DOCTYPE svg PUBLIC "-//W3C//DTD SVG 20010904//EN"
"http://www.w3.org/TR/2001/REC-SVG-20010904/DTD/svg10.dtd">
<svg
   sodipodi:docname="14_image.svg"
   height="60.0000000"
   sodipodi:version="0.32"
   width="60.0000000"
   _SVGFile__filename="scalable/actions/14_image.svg"
   version="1.0"
   y="0"
   x="0"
   inkscape:version="0.39"
   id="svg1"
   sodipodi:docbase="/home/danny/work/flat/newscale/actions"
   xmlns="http://www.w3.org/2000/svg"
   xmlns:cc="http://web.resource.org/cc/"
   xmlns:inkscape="http://www.inkscape.org/namespaces/inkscape"
   xmlns:sodipodi="http://sodipodi.sourceforge.net/DTD/sodipodi-0.dtd"
   xmlns:rdf="http://www.w3.org/1999/02/22-rdf-syntax-ns#"
   xmlns:dc="http://purl.org/dc/elements/1.1/"
   xmlns:xlink="http://www.w3.org/1999/xlink">
  <sodipodi:namedview
     bordercolor="#666666"
     inkscape:pageshadow="2"
     inkscape:window-y="0"
     pagecolor="#ffffff"
     inkscape:window-height="685"
     inkscape:zoom="6.7989564"
     inkscape:window-x="0"
     borderopacity="1.0"
     inkscape:cx="36.635903"
     inkscape:cy="16.666628"
     inkscape:window-width="1016"
     inkscape:pageopacity="0.0"
     id="base" />
  <defs
     id="defs3" />
  <g
     id="g1609"
     transform="translate(-0.231742,0.124918)">
    <rect
       style="fill:#cccccc;fill-opacity:1.0000000;fill-rule:evenodd;stroke:#333333;stroke-width:3.0684409;stroke-linecap:round;stroke-linejoin:round;stroke-dasharray:3.0684409 3.0684409 ;stroke-dashoffset:0.0000000;stroke-opacity:1.0000000;"
       rx="2.0000000"
       transform="matrix(0.951530,0.000000,0.000000,1.090039,1.689295,-2.320514)"
       height="39.588089"
       width="52.724136"
       sodipodi:stroke-cmyk="(0.0000000 0.0000000 0.0000000 0.80000001)"
       y="9.9750500"
       x="3.7788632"
       id="rect828"
       ry="2.0000000" />
    <path
       style="fill:#4c4c4c;fill-opacity:1.0000000;fill-rule:evenodd;stroke:#333333;stroke-width:1.8750001;stroke-linecap:round;stroke-linejoin:round;stroke-opacity:1.0000000;"
       d="M 3.1666951,6.3005381 C 3.0651971,6.3005381 2.9834857,6.3822494 2.9834857,6.4837474 L 2.9834857,10.947106 C 2.9834857,11.048604 3.0651971,11.130316 3.1666951,11.130316 L 7.6300540,11.130316 C 7.7315520,11.130316 7.8132634,11.048604 7.8132634,10.947106 L 7.8132634,6.4837474 C 7.8132634,6.3822494 7.7315520,6.3005381 7.6300540,6.3005381 L 3.1666951,6.3005381 z "
       id="rect829" />
    <path
       style="fill:#4c4c4c;fill-opacity:1.0000000;fill-rule:evenodd;stroke:#333333;stroke-width:1.8750000;stroke-linecap:round;stroke-linejoin:round;stroke-opacity:1.0000000;"
       d="M 52.952947,6.3005381 C 52.851449,6.3005381 52.769737,6.3822494 52.769737,6.4837474 L 52.769737,10.947106 C 52.769737,11.048604 52.851449,11.130316 52.952947,11.130316 L 57.416306,11.130316 C 57.517804,11.130316 57.599515,11.048604 57.599515,10.947106 L 57.599515,6.4837474 C 57.599515,6.3822494 57.517804,6.3005381 57.416306,6.3005381 L 52.952947,6.3005381 z "
       id="rect830" />
    <path
       transform="translate(-1.217500e-2,-3.418972)"
       style="fill:#4c4c4c;fill-opacity:1.0000000;fill-rule:evenodd;stroke:#333333;stroke-width:1.8750000;stroke-linecap:round;stroke-linejoin:round;stroke-opacity:1.0000000;"
       d="M 28.149791,9.7195101 C 28.048293,9.7195101 27.966581,9.8012215 27.966581,9.9027195 L 27.966581,14.366078 C 27.966581,14.467576 28.048293,14.549288 28.149791,14.549288 L 32.613150,14.549288 C 32.714648,14.549288 32.796359,14.467576 32.796359,14.366078 L 32.796359,9.9027195 C 32.796359,9.8012215 32.714648,9.7195101 32.613150,9.7195101 L 28.149791,9.7195101 z "
       id="rect832" />
    <g
       id="g951">
      <rect
         style="fill:#4c4c4c;fill-opacity:1.0000000;fill-rule:evenodd;stroke:#333333;stroke-width:1.8750000;stroke-linejoin:round;stroke-opacity:1.0000000;"
         rx="0.18320937"
         transform="translate(0.000000,0.539837)"
         height="4.8297777"
         width="4.8297777"
         sodipodi:stroke-cmyk="(0.0000000 0.0000000 0.0000000 0.80000001)"
         y="48.695896"
         x="2.9834857"
         id="rect833"
         ry="0.18320937" />
      <rect
         style="fill:#4c4c4c;fill-opacity:1.0000000;fill-rule:evenodd;stroke:#333333;stroke-width:1.8750000;stroke-linejoin:round;stroke-opacity:1.0000000;"
         rx="0.18320937"
         transform="translate(0.000000,0.539837)"
         height="4.8297777"
         width="4.8297777"
         sodipodi:stroke-cmyk="(0.0000000 0.0000000 0.0000000 0.80000001)"
         y="48.695896"
         x="52.769737"
         id="rect834"
         ry="0.18320937" />
    </g>
    <path
       transform="translate(-0.372067,0.539837)"
       style="fill:#4c4c4c;fill-opacity:1.0000000;fill-rule:evenodd;stroke:#333333;stroke-width:1.8750000;stroke-linecap:round;stroke-linejoin:round;stroke-opacity:1.0000000;"
       d="M 28.509683,48.695896 C 28.408185,48.695896 28.326473,48.777608 28.326473,48.879106 L 28.326473,53.342464 C 28.326473,53.443962 28.408185,53.525674 28.509683,53.525674 L 32.973042,53.525674 C 33.074540,53.525674 33.156251,53.443962 33.156251,53.342464 L 33.156251,48.879106 C 33.156251,48.777608 33.074540,48.695896 32.973042,48.695896 L 28.509683,48.695896 z "
       id="rect835" />
    <path
       transform="translate(0.000000,-2.851323)"
       style="fill:#4c4c4c;fill-opacity:1.0000000;fill-rule:evenodd;stroke:#333333;stroke-width:1.8750000;stroke-linecap:round;stroke-linejoin:round;stroke-opacity:1.0000000;"
       d="M 3.1666951,30.619459 C 3.0651971,30.619459 2.9834857,30.701171 2.9834857,30.802669 L 2.9834857,35.266027 C 2.9834857,35.367525 3.0651971,35.449237 3.1666951,35.449237 L 7.6300540,35.449237 C 7.7315520,35.449237 7.8132634,35.367525 7.8132634,35.266027 L 7.8132634,30.802669 C 7.8132634,30.701171 7.7315520,30.619459 7.6300540,30.619459 L 3.1666951,30.619459 z "
       id="rect836" />
    <path
       transform="translate(0.000000,-2.851323)"
       style="fill:#4c4c4c;fill-opacity:1.0000000;fill-rule:evenodd;stroke:#333333;stroke-width:1.8750000;stroke-linecap:round;stroke-linejoin:round;stroke-opacity:1.0000000;"
       d="M 52.952947,30.619459 C 52.851449,30.619459 52.769737,30.701171 52.769737,30.802669 L 52.769737,35.266027 C 52.769737,35.367525 52.851449,35.449237 52.952947,35.449237 L 57.416306,35.449237 C 57.517804,35.449237 57.599515,35.367525 57.599515,35.266027 L 57.599515,30.802669 C 57.599515,30.701171 57.517804,30.619459 57.416306,30.619459 L 52.952947,30.619459 z "
       id="rect837" />
    <path
       sodipodi:nodetypes="cccc"
       style="font-size:12.000000;fill:#7f7f7f;fill-opacity:1.0000000;fill-rule:evenodd;stroke:#333333;stroke-width:2.5000000;stroke-linecap:round;stroke-linejoin:round;"
       d="M 43.587870,45.549794 C 42.245381,41.375387 40.062455,37.338963 36.490226,35.121718 C 32.893835,34.965354 28.365675,35.121718 23.987455,35.121718 C 20.110219,37.185407 17.755384,41.284890 16.289242,45.549794"
       id="path966"
       transform="translate(0.430739,0.000000)" />
    <path
       transform="matrix(0.900688,0.000000,0.000000,0.900688,12.78415,6.901219)"
       style="font-size:12.000000;fill:#cccccc;fill-rule:evenodd;stroke:#333333;stroke-width:2.7756560;stroke-linecap:round;stroke-linejoin:round;"
       d="M 31.850417,22.301342 C 31.850417,29.105455 26.328239,34.627633 19.524126,34.627633 C 12.720013,34.627633 7.1978350,29.105455 7.1978350,22.301342 C 7.1978350,15.497229 12.720013,9.9750509 19.524126,9.9750509 C 26.328239,9.9750509 31.850417,15.497229 31.850417,22.301342 z "
       id="path710" />
  </g>
  <metadata
     id="metadata15">
    <rdf:RDF
       id="RDF16">
      <cc:Work
         rdf:about=""
         id="Work17">
        <dc:format
           id="format18">image/svg+xml</dc:format>
        <dc:type
           id="type20"
           rdf:resource="http://purl.org/dc/dcmitype/StillImage" />
      </cc:Work>
    </rdf:RDF>
  </metadata>
</svg>
