<?xml version="1.0" encoding="UTF-8" standalone="no"?>
<!DOCTYPE svg PUBLIC "-//W3C//DTD SVG 20010904//EN"
"http://www.w3.org/TR/2001/REC-SVG-20010904/DTD/svg10.dtd">
<svg
   sodipodi:docname="abs.svg"
   height="60.0000000"
   sodipodi:version="0.32"
   width="60.0000000"
   _SVGFile__filename="scalable/actions/abs.svg"
   version="1.0"
   y="0"
   x="0"
   inkscape:version="0.39"
   id="svg1"
   sodipodi:docbase="/home/danny/work/flat/newscale/actions"
   xmlns="http://www.w3.org/2000/svg"
   xmlns:cc="http://web.resource.org/cc/"
   xmlns:inkscape="http://www.inkscape.org/namespaces/inkscape"
   xmlns:sodipodi="http://sodipodi.sourceforge.net/DTD/sodipodi-0.dtd"
   xmlns:rdf="http://www.w3.org/1999/02/22-rdf-syntax-ns#"
   xmlns:dc="http://purl.org/dc/elements/1.1/"
   xmlns:xlink="http://www.w3.org/1999/xlink">
  <sodipodi:namedview
     bordercolor="#666666"
     inkscape:pageshadow="2"
     inkscape:window-y="0"
     pagecolor="#ffffff"
     inkscape:window-height="685"
     inkscape:zoom="6.9465337"
     inkscape:window-x="0"
     borderopacity="1.0"
     inkscape:cx="33.984503"
     inkscape:cy="14.678974"
     inkscape:window-width="1016"
     inkscape:pageopacity="0.0"
     id="base" />
  <defs
     id="defs3">
    <linearGradient
       id="linearGradient900">
      <stop
         style="stop-color:#000;stop-opacity:1;"
         id="stop901"
         offset="0" />
      <stop
         style="stop-color:#fff;stop-opacity:1;"
         id="stop902"
         offset="1" />
    </linearGradient>
    <linearGradient
       xlink:href="#linearGradient900"
       id="linearGradient903" />
    <linearGradient
       xlink:href="#linearGradient900"
       id="linearGradient904" />
    <linearGradient
       xlink:href="#linearGradient900"
       id="linearGradient905" />
    <linearGradient
       xlink:href="#linearGradient900"
       id="linearGradient906" />
    <linearGradient
       xlink:href="#linearGradient900"
       id="linearGradient907" />
  </defs>
  <g
     id="g940"
     transform="translate(0.189677,-0.539847)">
    <path
       id="path837"
       style="font-size:12.000000;font-weight:900;fill:#333333;stroke-width:1.0000000pt;font-family:VAG Rounded Black SSi;"
       d="M 17.404237,37.714431 L 24.690938,29.865153 L 20.270696,25.096650 C 19.199122,23.953638 18.475810,23.176747 18.100759,22.765978 C 17.743568,22.337348 17.466745,21.917648 17.270290,21.506878 C 17.073835,21.078249 16.975607,20.596041 16.975607,20.060254 C 16.975607,18.774365 17.395307,17.711721 18.234706,16.872322 C 19.074106,16.032922 20.020662,15.613223 21.074377,15.613223 C 22.092372,15.613223 22.896052,15.756099 23.485417,16.041852 C 24.074783,16.327605 24.682008,16.881252 25.307093,17.702792 L 29.861281,23.408922 L 34.415470,17.702792 C 35.076274,16.881252 35.692429,16.327605 36.263935,16.041852 C 36.835441,15.756099 37.630191,15.613223 38.648186,15.613223 C 39.701900,15.613223 40.648457,16.023993 41.487856,16.845533 C 42.327256,17.667072 42.746955,18.738646 42.746955,20.060254 C 42.746955,20.596041 42.648728,21.078249 42.452273,21.506878 C 42.255818,21.917648 41.970065,22.337348 41.595014,22.765978 C 41.237823,23.176747 40.523440,23.953638 39.451866,25.096650 L 35.031624,29.865153 L 42.318326,37.714431 C 42.782675,38.214499 43.175585,38.759216 43.497057,39.348581 C 43.836389,39.920087 44.006055,40.598751 44.006055,41.384571 C 44.006055,42.688319 43.586355,43.742034 42.746955,44.545714 C 41.907556,45.331535 40.871702,45.724445 39.639392,45.724445 C 38.835712,45.724445 38.174907,45.554779 37.656980,45.215447 C 37.156913,44.876116 36.549688,44.313540 35.835305,43.527719 L 29.861281,36.455332 L 23.887257,43.527719 C 23.262173,44.242101 22.672807,44.786818 22.119161,45.161869 C 21.565514,45.536920 20.886851,45.724445 20.083171,45.724445 C 18.850861,45.724445 17.815006,45.331535 16.975607,44.545714 C 16.136207,43.742034 15.716508,42.688319 15.716508,41.384571 C 15.716508,40.616610 15.859384,39.964736 16.145137,39.428949 C 16.448750,38.893162 16.868450,38.321656 17.404237,37.714431 z " />
    <path
       style="fill:none;fill-opacity:0.75000000;fill-rule:evenodd;stroke:#333333;stroke-width:4.1290760;stroke-linecap:round;stroke-linejoin:round;stroke-opacity:1.0000000;"
       d="M 9.5371307,11.234671 L 9.5371307,48.483465 M 44.446628,11.054725 L 44.446628,49.023303"
       sodipodi:nodetypes="cccc"
       transform="matrix(1.281199,0.000000,0.000000,1.144505,-4.720687,-3.710968)"
       sodipodi:stroke-cmyk="(0.0000000 0.0000000 0.0000000 0.80000001)"
       id="path836" />
  </g>
  <metadata
     id="metadata14">
    <rdf:RDF
       id="RDF15">
      <cc:Work
         rdf:about=""
         id="Work16">
        <dc:title
           id="title17">Part of the Flat Icon Collection (Thu Aug 26 14:38:01 2004)</dc:title>
        <dc:description
           id="description19" />
        <dc:subject
           id="subject20">
          <rdf:Bag
             id="Bag21">
            <rdf:li
               id="li22" />
          </rdf:Bag>
        </dc:subject>
        <dc:publisher
           id="publisher23">
          <cc:Agent
             rdf:about=""
             id="Agent24">
            <dc:title
               id="title25" />
          </cc:Agent>
        </dc:publisher>
        <dc:creator
           id="creator26">
          <cc:Agent
             rdf:about=""
             id="Agent27">
            <dc:title
               id="title28">Danny Allen</dc:title>
          </cc:Agent>
        </dc:creator>
        <dc:rights
           id="rights30">
          <cc:Agent
             rdf:about=""
             id="Agent31">
            <dc:title
               id="title32">Danny Allen</dc:title>
          </cc:Agent>
        </dc:rights>
        <dc:date
           id="date34" />
        <dc:format
           id="format35">image/svg+xml</dc:format>
        <dc:type
           rdf:resource="http://purl.org/dc/dcmitype/StillImage"
           id="type37" />
        <cc:license
           rdf:resource="http://creativecommons.org/licenses/LGPL/2.1/"
           id="license38">
          <dc:date
             id="date39" />
        </cc:license>
        <dc:language
           id="language40">en</dc:language>
      </cc:Work>
    </rdf:RDF>
  </metadata>
</svg>
