<?xml version="1.0" encoding="UTF-8" standalone="no"?>
<!DOCTYPE svg PUBLIC "-//W3C//DTD SVG 20010904//EN"
"http://www.w3.org/TR/2001/REC-SVG-20010904/DTD/svg10.dtd">
<svg
   sodipodi:docname="add_group.svg"
   sodipodi:version="0.32"
   height="60.0000000"
   width="60.0000000"
   _SVGFile__filename="scalable/actions/add_group.svg"
   version="1.0"
   y="0"
   x="0"
   inkscape:version="0.39"
   id="svg1"
   sodipodi:docbase="/home/danny/work/flat/newscale/actions"
   xmlns="http://www.w3.org/2000/svg"
   xmlns:cc="http://web.resource.org/cc/"
   xmlns:inkscape="http://www.inkscape.org/namespaces/inkscape"
   xmlns:sodipodi="http://sodipodi.sourceforge.net/DTD/sodipodi-0.dtd"
   xmlns:rdf="http://www.w3.org/1999/02/22-rdf-syntax-ns#"
   xmlns:dc="http://purl.org/dc/elements/1.1/"
   xmlns:xlink="http://www.w3.org/1999/xlink">
  <sodipodi:namedview
     bordercolor="#666666"
     inkscape:pageshadow="2"
     inkscape:window-y="0"
     pagecolor="#ffffff"
     inkscape:window-height="699"
     inkscape:zoom="6.9465339"
     inkscape:window-x="0"
     borderopacity="1.0"
     inkscape:cx="39.956081"
     inkscape:cy="22.878442"
     inkscape:window-width="1024"
     inkscape:pageopacity="0.0"
     id="base" />
  <defs
     id="defs3" />
  <path
     transform="matrix(0.724879,2.312303e-3,-2.312303e-3,0.724879,15.85992,-3.604995)"
     style="font-size:12.000000;fill:#cccccc;fill-opacity:1.0000000;fill-rule:evenodd;stroke:#4c4c4c;stroke-width:3.4488339;stroke-linecap:round;stroke-linejoin:round;stroke-miterlimit:4.0000000;stroke-opacity:1.0000000;"
     d="M 31.850417,22.301342 C 31.850417,29.105455 26.328239,34.627633 19.524126,34.627633 C 12.720013,34.627633 7.1978350,29.105455 7.1978350,22.301342 C 7.1978350,15.497229 12.720013,9.9750509 19.524126,9.9750509 C 26.328239,9.9750509 31.850417,15.497229 31.850417,22.301342 z "
     id="path835" />
  <path
     style="font-size:12.000000;fill:#7f7f7f;fill-rule:evenodd;stroke:#4c4c4c;stroke-width:2.5000000;stroke-linecap:round;stroke-linejoin:round;stroke-miterlimit:4.0000000;stroke-opacity:1.0000000;"
     d="M 38.249193,24.249940 C 35.265459,25.825864 33.605375,28.971691 32.402463,32.229217 L 53.611940,32.296874 C 52.528406,29.110891 51.051827,25.988269 48.322427,24.282073 C 45.428436,24.146997 41.772807,24.261182 38.249193,24.249940 z "
     id="path840"
     transform="translate(-0.120103,0.294035)" />
  <path
     transform="matrix(0.724879,2.312303e-3,-2.312303e-3,0.724879,28.78603,1.815528)"
     style="font-size:12.000000;fill:#cccccc;fill-opacity:1.0000000;fill-rule:evenodd;stroke:#4c4c4c;stroke-width:3.4488339;stroke-linecap:round;stroke-linejoin:round;stroke-miterlimit:4.0000000;stroke-opacity:1.0000000;"
     d="M 31.850417,22.301342 C 31.850417,29.105455 26.328239,34.627633 19.524126,34.627633 C 12.720013,34.627633 7.1978350,29.105455 7.1978350,22.301342 C 7.1978350,15.497229 12.720013,9.9750509 19.524126,9.9750509 C 26.328239,9.9750509 31.850417,15.497229 31.850417,22.301342 z "
     id="path841" />
  <path
     style="font-size:12.000000;fill:#7f7f7f;fill-rule:evenodd;stroke:#4c4c4c;stroke-width:2.5000000;stroke-linecap:round;stroke-linejoin:round;stroke-miterlimit:4.0000000;stroke-opacity:1.0000000;"
     d="M 12.396966,24.249940 C 9.4132324,25.825864 7.7531479,28.971691 6.5502358,32.229217 L 27.759713,32.296874 C 26.676179,29.110891 25.199600,25.988269 22.470200,24.282073 C 19.576209,24.146997 15.920580,24.261182 12.396966,24.249940 z "
     id="path843"
     transform="translate(-0.120103,0.294035)" />
  <path
     transform="matrix(0.724879,2.312303e-3,-2.312303e-3,0.724879,2.933810,1.815528)"
     style="font-size:12.000000;fill:#cccccc;fill-opacity:1.0000000;fill-rule:evenodd;stroke:#4c4c4c;stroke-width:3.4488339;stroke-linecap:round;stroke-linejoin:round;stroke-miterlimit:4.0000000;stroke-opacity:1.0000000;"
     d="M 31.850417,22.301342 C 31.850417,29.105455 26.328239,34.627633 19.524126,34.627633 C 12.720013,34.627633 7.1978350,29.105455 7.1978350,22.301342 C 7.1978350,15.497229 12.720013,9.9750509 19.524126,9.9750509 C 26.328239,9.9750509 31.850417,15.497229 31.850417,22.301342 z "
     id="path844" />
  <path
     style="font-size:12.000000;fill:#7f7f7f;fill-rule:evenodd;stroke:#333333;stroke-width:2.5000000;stroke-linecap:round;stroke-linejoin:round;stroke-miterlimit:4.0000000;"
     d="M 25.948283,30.712308 C 22.964549,32.288232 21.304465,35.434059 20.101553,38.691585 L 41.311030,38.759242 C 40.227496,35.573259 38.750917,32.450637 36.021517,30.744441 C 33.127526,30.609365 29.471897,30.723550 25.948283,30.712308 z "
     id="path848"
     transform="translate(-0.745307,0.294035)" />
  <path
     transform="matrix(0.724879,2.312303e-3,-2.312303e-3,0.724879,15.85992,8.277896)"
     style="font-size:12.000000;fill:#cccccc;fill-opacity:1.0000000;fill-rule:evenodd;stroke:#333333;stroke-width:3.4488339;stroke-linecap:round;stroke-linejoin:round;stroke-miterlimit:4.0000000;"
     d="M 31.850417,22.301342 C 31.850417,29.105455 26.328239,34.627633 19.524126,34.627633 C 12.720013,34.627633 7.1978350,29.105455 7.1978350,22.301342 C 7.1978350,15.497229 12.720013,9.9750509 19.524126,9.9750509 C 26.328239,9.9750509 31.850417,15.497229 31.850417,22.301342 z "
     id="path849" />
  <path
     id="path842"
     style="font-size:12.000000;font-weight:900;fill:#333333;stroke-width:1.0000000pt;font-family:VAG Rounded Black SSi;"
     d="M 47.083070,43.636542 L 47.083070,56.309584 C 47.083070,56.788943 46.933270,57.188408 46.633671,57.507980 C 46.334073,57.827553 45.951250,57.987339 45.485208,57.987339 C 45.119031,57.987339 44.809446,57.887472 44.556451,57.687740 C 44.310114,57.488007 44.123697,57.248327 43.997199,56.968702 C 43.637681,57.408114 43.238216,57.721029 42.798803,57.907446 C 42.366049,58.100520 41.850072,58.197059 41.250874,58.197059 C 40.338762,58.197059 39.506541,57.940734 38.754215,57.428087 C 38.008546,56.908783 37.416006,56.203060 36.976593,55.310921 C 36.543839,54.412123 36.327462,53.430104 36.327462,52.364863 C 36.327462,51.312938 36.543839,50.340904 36.976593,49.448766 C 37.416006,48.549968 38.011874,47.844245 38.764202,47.331598 C 39.516529,46.812294 40.345419,46.552641 41.250874,46.552641 C 41.876703,46.552641 42.386023,46.632534 42.778829,46.792320 C 43.178295,46.952106 43.547800,47.175140 43.887346,47.461424 L 43.887346,43.636542 C 43.887346,43.163842 44.037147,42.767705 44.336745,42.448133 C 44.643001,42.121902 45.025823,41.958787 45.485208,41.958787 C 45.944593,41.958787 46.324085,42.118573 46.623685,42.438145 C 46.929941,42.757718 47.083070,43.157183 47.083070,43.636542 z M 41.700273,49.648497 C 41.021181,49.648497 40.485232,49.908150 40.092424,50.427455 C 39.706274,50.946761 39.513200,51.592563 39.513200,52.364863 C 39.513200,52.857538 39.599750,53.316922 39.772851,53.743019 C 39.945954,54.162458 40.195619,54.495345 40.521850,54.741682 C 40.854737,54.988020 41.247546,55.111188 41.700273,55.111188 C 42.386023,55.111188 42.921972,54.851535 43.308121,54.332230 C 43.694272,53.806267 43.887346,53.150479 43.887346,52.364863 C 43.887346,51.585905 43.694272,50.940103 43.308121,50.427455 C 42.921972,49.908150 42.386023,49.648497 41.700273,49.648497 z M 35.338785,43.636542 L 35.338785,56.309584 C 35.338785,56.788943 35.188985,57.188408 34.889386,57.507980 C 34.589788,57.827553 34.206966,57.987339 33.740923,57.987339 C 33.374746,57.987339 33.065162,57.887472 32.812166,57.687740 C 32.565829,57.488007 32.379412,57.248327 32.252914,56.968702 C 31.893396,57.408114 31.493931,57.721029 31.054518,57.907446 C 30.621764,58.100520 30.105787,58.197059 29.506590,58.197059 C 28.594477,58.197059 27.762256,57.940734 27.009930,57.428087 C 26.264261,56.908783 25.671721,56.203060 25.232308,55.310921 C 24.799554,54.412123 24.583177,53.430104 24.583177,52.364863 C 24.583177,51.312938 24.799554,50.340904 25.232308,49.448766 C 25.671721,48.549968 26.267590,47.844245 27.019918,47.331598 C 27.772244,46.812294 28.601134,46.552641 29.506590,46.552641 C 30.132418,46.552641 30.641738,46.632534 31.034544,46.792320 C 31.434010,46.952106 31.803516,47.175140 32.143062,47.461424 L 32.143062,43.636542 C 32.143062,43.163842 32.292862,42.767705 32.592460,42.448133 C 32.898716,42.121902 33.281539,41.958787 33.740923,41.958787 C 34.200308,41.958787 34.579800,42.118573 34.879401,42.438145 C 35.185657,42.757718 35.338785,43.157183 35.338785,43.636542 z M 29.955988,49.648497 C 29.276896,49.648497 28.740947,49.908150 28.348139,50.427455 C 27.961990,50.946761 27.768915,51.592563 27.768915,52.364863 C 27.768915,52.857538 27.855466,53.316922 28.028566,53.743019 C 28.201669,54.162458 28.451334,54.495345 28.777566,54.741682 C 29.110453,54.988020 29.503261,55.111188 29.955988,55.111188 C 30.641738,55.111188 31.177687,54.851535 31.563836,54.332230 C 31.949987,53.806267 32.143062,53.150479 32.143062,52.364863 C 32.143062,51.585905 31.949987,50.940103 31.563836,50.427455 C 31.177687,49.908150 30.641738,49.648497 29.955988,49.648497 z M 23.594501,48.420141 L 23.594501,56.309584 C 23.594501,56.788943 23.444700,57.188408 23.145102,57.507980 C 22.845503,57.827553 22.462681,57.987339 21.996639,57.987339 C 21.630462,57.987339 21.320877,57.887472 21.067881,57.687740 C 20.821545,57.488007 20.635127,57.248327 20.508630,56.968702 C 20.149112,57.408114 19.749646,57.721029 19.310233,57.907446 C 18.877479,58.100520 18.361502,58.197059 17.762305,58.197059 C 16.850192,58.197059 16.017972,57.940734 15.265645,57.428087 C 14.519977,56.908783 13.927436,56.203060 13.488024,55.310921 C 13.055270,54.412123 12.838893,53.430104 12.838893,52.364863 C 12.838893,51.312938 13.055270,50.340904 13.488024,49.448766 C 13.927436,48.549968 14.523305,47.844245 15.275632,47.331598 C 16.027959,46.812294 16.856850,46.552641 17.762305,46.552641 C 18.368161,46.552641 18.884137,46.645848 19.310233,46.832266 C 19.742987,47.018683 20.142453,47.334926 20.508630,47.780997 C 20.628470,47.508029 20.814887,47.271678 21.067881,47.071945 C 21.320877,46.865556 21.630462,46.762360 21.996639,46.762360 C 22.462681,46.762360 22.845503,46.922146 23.145102,47.241719 C 23.444700,47.554632 23.594501,47.947440 23.594501,48.420141 z M 18.211704,49.648497 C 17.532611,49.648497 16.996662,49.908150 16.603855,50.427455 C 16.217705,50.946761 16.024630,51.592563 16.024630,52.364863 C 16.024630,52.857538 16.111181,53.316922 16.284282,53.743019 C 16.457384,54.162458 16.707050,54.495345 17.033281,54.741682 C 17.366168,54.988020 17.758976,55.111188 18.211704,55.111188 C 18.897453,55.111188 19.433402,54.851535 19.819551,54.332230 C 20.205702,53.806267 20.398777,53.150479 20.398777,52.364863 C 20.398777,51.585905 20.205702,50.940103 19.819551,50.427455 C 19.433402,49.908150 18.897453,49.648497 18.211704,49.648497 z " />
  <metadata
     id="metadata17">
    <rdf:RDF
       id="RDF18">
      <cc:Work
         rdf:about=""
         id="Work19">
        <dc:format
           id="format20">image/svg+xml</dc:format>
        <dc:type
           id="type22"
           rdf:resource="http://purl.org/dc/dcmitype/StillImage" />
      </cc:Work>
    </rdf:RDF>
  </metadata>
</svg>
