<?xml version="1.0" encoding="UTF-8" standalone="no"?>
<!DOCTYPE svg PUBLIC "-//W3C//DTD SVG 20010904//EN"
"http://www.w3.org/TR/2001/REC-SVG-20010904/DTD/svg10.dtd">
<svg
   sodipodi:docname="add_user.svg"
   sodipodi:version="0.32"
   height="60.0000000"
   width="60.0000000"
   _SVGFile__filename="scalable/actions/add_user.svg"
   version="1.0"
   y="0"
   x="0"
   inkscape:version="0.39"
   id="svg1"
   sodipodi:docbase="/home/danny/work/flat/newscale/actions"
   xmlns="http://www.w3.org/2000/svg"
   xmlns:cc="http://web.resource.org/cc/"
   xmlns:inkscape="http://www.inkscape.org/namespaces/inkscape"
   xmlns:sodipodi="http://sodipodi.sourceforge.net/DTD/sodipodi-0.dtd"
   xmlns:rdf="http://www.w3.org/1999/02/22-rdf-syntax-ns#"
   xmlns:dc="http://purl.org/dc/elements/1.1/"
   xmlns:xlink="http://www.w3.org/1999/xlink">
  <sodipodi:namedview
     bordercolor="#666666"
     inkscape:pageshadow="2"
     inkscape:window-y="0"
     pagecolor="#ffffff"
     inkscape:window-height="699"
     inkscape:zoom="6.9465339"
     inkscape:window-x="0"
     borderopacity="1.0"
     inkscape:cx="29.521041"
     inkscape:cy="23.057329"
     inkscape:window-width="1024"
     inkscape:pageopacity="0.0"
     id="base" />
  <defs
     id="defs3" />
  <g
     id="g1533"
     transform="translate(0.251860,0.209560)">
    <path
       style="font-size:12.000000;fill:#7f7f7f;fill-rule:evenodd;stroke:#333333;stroke-width:3.1249998;stroke-linecap:round;stroke-linejoin:round;"
       d="M 22.867184,26.551030 C 18.520200,28.846984 16.101633,33.430121 14.349117,38.175991 L 45.249080,38.274561 C 43.670485,33.632921 41.519267,29.083592 37.542820,26.597845 C 33.326581,26.401054 28.000717,26.567408 22.867184,26.551030 z "
       id="path848" />
    <path
       transform="matrix(1.056072,3.368780e-3,-3.368780e-3,1.056072,9.255344,-6.561909)"
       style="font-size:12.000000;fill:#cccccc;fill-opacity:1.0000000;fill-rule:evenodd;stroke:#333333;stroke-width:2.9590635;stroke-linecap:round;stroke-linejoin:round;"
       d="M 31.850417,22.301342 C 31.850417,29.105455 26.328239,34.627633 19.524126,34.627633 C 12.720013,34.627633 7.1978350,29.105455 7.1978350,22.301342 C 7.1978350,15.497229 12.720013,9.9750509 19.524126,9.9750509 C 26.328239,9.9750509 31.850417,15.497229 31.850417,22.301342 z "
       id="path849" />
    <path
       id="path831"
       style="font-size:12.000000;font-weight:900;fill:#333333;stroke-width:1.0000000pt;font-family:VAG Rounded Black SSi;"
       d="M 46.921187,43.342507 L 46.921187,56.015549 C 46.921187,56.494908 46.771387,56.894373 46.471788,57.213945 C 46.172190,57.533518 45.789367,57.693304 45.323325,57.693304 C 44.957148,57.693304 44.647564,57.593437 44.394568,57.393705 C 44.148231,57.193972 43.961814,56.954292 43.835316,56.674667 C 43.475798,57.114079 43.076333,57.426994 42.636920,57.613411 C 42.204166,57.806485 41.688189,57.903024 41.088991,57.903024 C 40.176879,57.903024 39.344658,57.646699 38.592332,57.134052 C 37.846663,56.614748 37.254123,55.909025 36.814710,55.016886 C 36.381956,54.118088 36.165579,53.136069 36.165579,52.070828 C 36.165579,51.018903 36.381956,50.046869 36.814710,49.154731 C 37.254123,48.255933 37.849992,47.550210 38.602319,47.037563 C 39.354646,46.518259 40.183536,46.258606 41.088991,46.258606 C 41.714820,46.258606 42.224140,46.338499 42.616946,46.498285 C 43.016412,46.658071 43.385917,46.881105 43.725463,47.167389 L 43.725463,43.342507 C 43.725463,42.869807 43.875264,42.473670 44.174862,42.154098 C 44.481118,41.827867 44.863940,41.664752 45.323325,41.664752 C 45.782710,41.664752 46.162202,41.824538 46.461802,42.144110 C 46.768058,42.463683 46.921187,42.863148 46.921187,43.342507 z M 41.538390,49.354462 C 40.859298,49.354462 40.323349,49.614115 39.930541,50.133420 C 39.544392,50.652726 39.351317,51.298528 39.351317,52.070828 C 39.351317,52.563503 39.437867,53.022887 39.610968,53.448984 C 39.784071,53.868423 40.033736,54.201310 40.359967,54.447647 C 40.692855,54.693985 41.085663,54.817153 41.538390,54.817153 C 42.224140,54.817153 42.760089,54.557500 43.146238,54.038195 C 43.532389,53.512232 43.725463,52.856444 43.725463,52.070828 C 43.725463,51.291870 43.532389,50.646068 43.146238,50.133420 C 42.760089,49.614115 42.224140,49.354462 41.538390,49.354462 z M 35.176902,43.342507 L 35.176902,56.015549 C 35.176902,56.494908 35.027102,56.894373 34.727504,57.213945 C 34.427905,57.533518 34.045083,57.693304 33.579041,57.693304 C 33.212863,57.693304 32.903279,57.593437 32.650283,57.393705 C 32.403946,57.193972 32.217529,56.954292 32.091031,56.674667 C 31.731513,57.114079 31.332048,57.426994 30.892635,57.613411 C 30.459881,57.806485 29.943904,57.903024 29.344707,57.903024 C 28.432594,57.903024 27.600373,57.646699 26.848047,57.134052 C 26.102378,56.614748 25.509838,55.909025 25.070425,55.016886 C 24.637671,54.118088 24.421294,53.136069 24.421294,52.070828 C 24.421294,51.018903 24.637671,50.046869 25.070425,49.154731 C 25.509838,48.255933 26.105707,47.550210 26.858035,47.037563 C 27.610361,46.518259 28.439251,46.258606 29.344707,46.258606 C 29.970535,46.258606 30.479855,46.338499 30.872661,46.498285 C 31.272127,46.658071 31.641633,46.881105 31.981179,47.167389 L 31.981179,43.342507 C 31.981179,42.869807 32.130979,42.473670 32.430578,42.154098 C 32.736834,41.827867 33.119656,41.664752 33.579041,41.664752 C 34.038425,41.664752 34.417917,41.824538 34.717518,42.144110 C 35.023774,42.463683 35.176902,42.863148 35.176902,43.342507 z M 29.794105,49.354462 C 29.115013,49.354462 28.579064,49.614115 28.186256,50.133420 C 27.800107,50.652726 27.607032,51.298528 27.607032,52.070828 C 27.607032,52.563503 27.693583,53.022887 27.866683,53.448984 C 28.039786,53.868423 28.289451,54.201310 28.615683,54.447647 C 28.948570,54.693985 29.341378,54.817153 29.794105,54.817153 C 30.479855,54.817153 31.015804,54.557500 31.401953,54.038195 C 31.788104,53.512232 31.981179,52.856444 31.981179,52.070828 C 31.981179,51.291870 31.788104,50.646068 31.401953,50.133420 C 31.015804,49.614115 30.479855,49.354462 29.794105,49.354462 z M 23.432618,48.126106 L 23.432618,56.015549 C 23.432618,56.494908 23.282817,56.894373 22.983219,57.213945 C 22.683620,57.533518 22.300798,57.693304 21.834756,57.693304 C 21.468579,57.693304 21.158994,57.593437 20.905998,57.393705 C 20.659662,57.193972 20.473244,56.954292 20.346747,56.674667 C 19.987229,57.114079 19.587763,57.426994 19.148350,57.613411 C 18.715596,57.806485 18.199619,57.903024 17.600422,57.903024 C 16.688309,57.903024 15.856089,57.646699 15.103763,57.134052 C 14.358094,56.614748 13.765553,55.909025 13.326141,55.016886 C 12.893387,54.118088 12.677010,53.136069 12.677010,52.070828 C 12.677010,51.018903 12.893387,50.046869 13.326141,49.154731 C 13.765553,48.255933 14.361422,47.550210 15.113749,47.037563 C 15.866076,46.518259 16.694967,46.258606 17.600422,46.258606 C 18.206278,46.258606 18.722254,46.351813 19.148350,46.538231 C 19.581104,46.724648 19.980570,47.040891 20.346747,47.486962 C 20.466587,47.213994 20.653004,46.977643 20.905998,46.777910 C 21.158994,46.571521 21.468579,46.468325 21.834756,46.468325 C 22.300798,46.468325 22.683620,46.628111 22.983219,46.947684 C 23.282817,47.260597 23.432618,47.653405 23.432618,48.126106 z M 18.049821,49.354462 C 17.370728,49.354462 16.834779,49.614115 16.441972,50.133420 C 16.055822,50.652726 15.862747,51.298528 15.862747,52.070828 C 15.862747,52.563503 15.949298,53.022887 16.122399,53.448984 C 16.295501,53.868423 16.545167,54.201310 16.871398,54.447647 C 17.204285,54.693985 17.597093,54.817153 18.049821,54.817153 C 18.735570,54.817153 19.271519,54.557500 19.657669,54.038195 C 20.043819,53.512232 20.236894,52.856444 20.236894,52.070828 C 20.236894,51.291870 20.043819,50.646068 19.657669,50.133420 C 19.271519,49.614115 18.735570,49.354462 18.049821,49.354462 z " />
  </g>
  <metadata
     id="metadata8">
    <rdf:RDF
       id="RDF9">
      <cc:Work
         rdf:about=""
         id="Work10">
        <dc:format
           id="format11">image/svg+xml</dc:format>
        <dc:type
           id="type13"
           rdf:resource="http://purl.org/dc/dcmitype/StillImage" />
      </cc:Work>
    </rdf:RDF>
  </metadata>
</svg>
