<?xml version="1.0" encoding="UTF-8" standalone="no"?>
<!DOCTYPE svg PUBLIC "-//W3C//DTD SVG 20010904//EN"
"http://www.w3.org/TR/2001/REC-SVG-20010904/DTD/svg10.dtd">
<svg
   sodipodi:docname="atlantik_buy_estate.svg"
   height="60.0000000"
   sodipodi:version="0.32"
   width="60.0000000"
   _SVGFile__filename="scalable/actions/atlantik_buy_estate.svg"
   version="1.0"
   y="0"
   x="0"
   inkscape:version="0.39"
   id="svg1"
   sodipodi:docbase="/home/danny/work/flat/newscale/actions"
   xmlns="http://www.w3.org/2000/svg"
   xmlns:cc="http://web.resource.org/cc/"
   xmlns:inkscape="http://www.inkscape.org/namespaces/inkscape"
   xmlns:sodipodi="http://sodipodi.sourceforge.net/DTD/sodipodi-0.dtd"
   xmlns:rdf="http://www.w3.org/1999/02/22-rdf-syntax-ns#"
   xmlns:dc="http://purl.org/dc/elements/1.1/"
   xmlns:xlink="http://www.w3.org/1999/xlink">
  <sodipodi:namedview
     bordercolor="#666666"
     inkscape:pageshadow="2"
     inkscape:window-y="0"
     pagecolor="#ffffff"
     inkscape:window-height="685"
     inkscape:zoom="6.9465337"
     inkscape:window-x="0"
     borderopacity="1.0"
     inkscape:cx="40.436096"
     inkscape:cy="25.324033"
     inkscape:window-width="1016"
     inkscape:pageopacity="0.0"
     id="base" />
  <defs
     id="defs3" />
  <g
     id="g1563"
     transform="translate(0.324744,-0.359906)">
    <rect
       style="fill:#cccccc;fill-opacity:1.0000000;fill-rule:evenodd;stroke:none;stroke-width:3.1250000;"
       rx="2.0000000"
       transform="matrix(1.076825,0.000000,0.000000,1.076825,-24.64015,-6.017018)"
       height="48.405437"
       width="37.608685"
       y="9.6151590"
       x="31.850418"
       id="rect868"
       ry="2.0000000" />
    <rect
       style="fill:#4c4c4c;fill-opacity:1.0000000;fill-rule:evenodd;stroke:none;stroke-width:3.9257998;"
       transform="matrix(1.076825,0.000000,0.000000,0.245636,-24.64015,1.455503)"
       height="48.405437"
       width="37.608685"
       y="9.6151590"
       x="31.850418"
       id="rect869" />
    <path
       transform="matrix(1.076825,0.000000,0.000000,1.076825,-24.64015,-6.017018)"
       style="fill:none;fill-opacity:1.0000000;fill-rule:evenodd;stroke:#333333;stroke-width:2.9020500;stroke-linecap:round;stroke-linejoin:round;stroke-opacity:1.0000000;"
       d="M 33.850418,9.6151590 C 32.742418,9.6151590 31.850418,10.507159 31.850418,11.615159 L 31.850418,56.020597 C 31.850418,57.128597 32.742418,58.020597 33.850418,58.020597 L 67.459103,58.020597 C 68.567103,58.020597 69.459103,57.128597 69.459103,56.020597 L 69.459103,11.615159 C 69.459103,10.507159 68.567103,9.6151590 67.459103,9.6151590 L 33.850418,9.6151590 z "
       id="rect870" />
    <path
       style="fill:none;fill-opacity:0.75000000;fill-rule:evenodd;stroke:#333333;stroke-width:2.5000000;stroke-linecap:butt;stroke-linejoin:miter;stroke-opacity:1.0000000;"
       d="M 10.976698,15.913264 L 50.024950,15.913264"
       sodipodi:stroke-cmyk="(0.0000000 0.0000000 0.0000000 0.80000001)"
       id="path871" />
    <path
       style="fill:none;fill-opacity:0.75000000;fill-rule:evenodd;stroke:#b3b3b3;stroke-width:2.5000000;stroke-linecap:round;stroke-linejoin:round;stroke-opacity:1.0000000;"
       d="M 14.395669,20.591855 L 45.526303,20.591855"
       sodipodi:stroke-cmyk="(0.0000000 0.0000000 0.0000000 0.30000001)"
       id="path873" />
    <path
       style="fill:none;fill-opacity:0.75000000;fill-rule:evenodd;stroke:#b3b3b3;stroke-width:2.5000000;stroke-linecap:round;stroke-linejoin:round;stroke-opacity:1.0000000;"
       d="M 14.395669,28.429337 L 45.526303,28.429337"
       sodipodi:stroke-cmyk="(0.0000000 0.0000000 0.0000000 0.30000001)"
       id="path875" />
    <path
       style="fill:none;fill-opacity:0.75000000;fill-rule:evenodd;stroke:#b3b3b3;stroke-width:2.5000000;stroke-linecap:round;stroke-linejoin:round;stroke-opacity:1.0000000;"
       d="M 14.395669,36.266819 L 45.526303,36.266819"
       sodipodi:stroke-cmyk="(0.0000000 0.0000000 0.0000000 0.30000001)"
       id="path876" />
    <path
       style="fill:none;fill-opacity:0.75000000;fill-rule:evenodd;stroke:#b3b3b3;stroke-width:2.5000000;stroke-linecap:round;stroke-linejoin:round;stroke-opacity:1.0000000;"
       d="M 14.395669,44.104301 L 45.526303,44.104301"
       sodipodi:stroke-cmyk="(0.0000000 0.0000000 0.0000000 0.30000001)"
       id="path878" />
    <path
       style="fill:none;fill-opacity:0.75000000;fill-rule:evenodd;stroke:#b3b3b3;stroke-width:2.5000000;stroke-linecap:round;stroke-linejoin:round;stroke-opacity:1.0000000;"
       transform="translate(5.218430,0.000000)"
       d="M 9.1772390,51.941782 L 40.307873,51.941782"
       sodipodi:stroke-cmyk="(0.0000000 0.0000000 0.0000000 0.30000001)"
       id="path880" />
    <path
       style="font-size:12.000000;font-weight:900;fill:#333333;stroke-width:1.0000000pt;font-family:VAG Rounded Black SSi;"
       d="M 28.889916,50.680791 L 28.889916,49.148092 C 27.801474,49.070346 26.690821,48.920408 25.557957,48.698278 C 24.425089,48.476147 23.408844,48.076312 22.509213,47.498772 C 21.620690,46.910124 21.176430,46.127115 21.176430,45.149741 C 21.176430,44.416709 21.409669,43.755870 21.876142,43.167224 C 22.353723,42.578578 22.936816,42.284255 23.625418,42.284255 C 23.925295,42.284255 24.463963,42.450854 25.241421,42.784051 C 26.018876,43.117246 26.651950,43.367143 27.140638,43.533739 C 27.640431,43.700338 28.223524,43.783637 28.889916,43.783637 L 28.889916,38.435844 C 27.468280,38.002689 26.274327,37.552874 25.308058,37.086399 C 24.341793,36.608820 23.558781,36.086812 22.959027,35.520379 C 22.359276,34.942839 21.926120,34.320874 21.659564,33.654482 C 21.404113,32.988090 21.276391,32.249505 21.276391,31.438728 C 21.276391,30.305864 21.476307,29.272954 21.876142,28.340006 C 22.275977,27.395952 22.820196,26.585176 23.508802,25.907678 C 24.208514,25.219072 25.024844,24.669300 25.957792,24.258359 C 26.890740,23.847415 27.868115,23.603073 28.889916,23.525326 L 28.889916,21.909328 C 28.889916,21.231827 29.228666,20.893080 29.906163,20.893080 C 30.594767,20.893080 30.939069,21.231827 30.939069,21.909328 L 30.939069,23.525326 C 31.772061,23.547541 32.655030,23.675264 33.587978,23.908503 C 34.532033,24.130633 35.331703,24.508254 35.986989,25.041368 C 36.642272,25.574481 36.969916,26.285299 36.969916,27.173821 C 36.969916,27.606977 36.869958,28.029024 36.670039,28.439967 C 36.481229,28.839802 36.209119,29.161891 35.853710,29.406233 C 35.509407,29.650578 35.120678,29.772750 34.687522,29.772750 C 34.420966,29.772750 34.098878,29.689452 33.721257,29.522853 C 33.354739,29.356254 33.021545,29.195211 32.721668,29.039718 C 32.421791,28.873119 32.127469,28.739841 31.838699,28.639883 C 31.549930,28.528819 31.250053,28.473284 30.939069,28.473284 L 30.939069,33.354605 C 33.260334,33.987679 35.120678,34.881754 36.520102,36.036834 C 37.930630,37.191912 38.635894,38.852337 38.635894,41.018111 C 38.635894,42.306469 38.397105,43.455996 37.919523,44.466687 C 37.453050,45.466276 36.836638,46.304820 36.070288,46.982318 C 35.315044,47.648709 34.487606,48.159611 33.587978,48.515020 C 32.688347,48.870429 31.805381,49.081451 30.939069,49.148092 L 30.939069,50.680791 C 30.939069,51.358292 30.594767,51.697039 29.906163,51.697039 C 29.228666,51.697039 28.889916,51.358292 28.889916,50.680791 z M 28.889916,32.738192 L 28.889916,28.473284 C 28.334587,28.595457 27.879220,28.856461 27.523812,29.256296 C 27.179508,29.645025 27.007360,30.144818 27.007360,30.755678 C 27.007360,31.266577 27.179508,31.688627 27.523812,32.021821 C 27.879220,32.355019 28.334587,32.593808 28.889916,32.738192 z M 30.939069,38.968958 L 30.939069,43.783637 C 31.483289,43.783637 31.944212,43.544848 32.321832,43.067266 C 32.710562,42.589685 32.904925,42.045465 32.904925,41.434606 C 32.904925,40.734894 32.738330,40.201780 32.405132,39.835265 C 32.083043,39.457645 31.594356,39.168874 30.939069,38.968958 z "
       id="path841" />
  </g>
  <metadata
     id="metadata14">
    <rdf:RDF
       id="RDF15">
      <cc:Work
         rdf:about=""
         id="Work16">
        <dc:title
           id="title17">Part of the Flat Icon Collection (Thu Aug 26 14:38:01 2004)</dc:title>
        <dc:description
           id="description19" />
        <dc:subject
           id="subject20">
          <rdf:Bag
             id="Bag21">
            <rdf:li
               id="li22" />
          </rdf:Bag>
        </dc:subject>
        <dc:publisher
           id="publisher23">
          <cc:Agent
             rdf:about=""
             id="Agent24">
            <dc:title
               id="title25" />
          </cc:Agent>
        </dc:publisher>
        <dc:creator
           id="creator26">
          <cc:Agent
             rdf:about=""
             id="Agent27">
            <dc:title
               id="title28">Danny Allen</dc:title>
          </cc:Agent>
        </dc:creator>
        <dc:rights
           id="rights30">
          <cc:Agent
             rdf:about=""
             id="Agent31">
            <dc:title
               id="title32">Danny Allen</dc:title>
          </cc:Agent>
        </dc:rights>
        <dc:date
           id="date34" />
        <dc:format
           id="format35">image/svg+xml</dc:format>
        <dc:type
           rdf:resource="http://purl.org/dc/dcmitype/StillImage"
           id="type37" />
        <cc:license
           rdf:resource="http://creativecommons.org/licenses/LGPL/2.1/"
           id="license38">
          <dc:date
             id="date39" />
        </cc:license>
        <dc:language
           id="language40">en</dc:language>
      </cc:Work>
    </rdf:RDF>
  </metadata>
</svg>
