<?xml version="1.0" encoding="UTF-8" standalone="no"?>
<!DOCTYPE svg PUBLIC "-//W3C//DTD SVG 20010904//EN"
"http://www.w3.org/TR/2001/REC-SVG-20010904/DTD/svg10.dtd">
<svg
   sodipodi:docname="bars3d.svg"
   height="60.0000000"
   sodipodi:version="0.32"
   width="60.0000000"
   _SVGFile__filename="scalable/actions/bars3d.svg"
   version="1.0"
   y="0"
   x="0"
   inkscape:version="0.39"
   id="svg1"
   sodipodi:docbase="/home/danny/work/flat/newscale/actions"
   xmlns="http://www.w3.org/2000/svg"
   xmlns:cc="http://web.resource.org/cc/"
   xmlns:inkscape="http://www.inkscape.org/namespaces/inkscape"
   xmlns:sodipodi="http://sodipodi.sourceforge.net/DTD/sodipodi-0.dtd"
   xmlns:rdf="http://www.w3.org/1999/02/22-rdf-syntax-ns#"
   xmlns:dc="http://purl.org/dc/elements/1.1/"
   xmlns:xlink="http://www.w3.org/1999/xlink">
  <sodipodi:namedview
     bordercolor="#666666"
     inkscape:pageshadow="2"
     inkscape:window-y="0"
     pagecolor="#ffffff"
     inkscape:window-height="685"
     inkscape:zoom="4.9119411"
     inkscape:window-x="0"
     borderopacity="1.0"
     inkscape:cx="49.353527"
     inkscape:cy="23.397440"
     inkscape:window-width="1016"
     inkscape:pageopacity="0.0"
     id="base" />
  <defs
     id="defs3" />
  <path
     style="fill:#7f7f7f;fill-rule:evenodd;stroke:#333333;stroke-opacity:1.0000000;stroke-width:1.8750000;stroke-linejoin:round;stroke-linecap:round;fill-opacity:1.0000000;stroke-dasharray:none;"
     d="M 36.430905,11.774509 L 41.649335,7.0959163 L 41.649335,35.155591 L 36.610851,35.155591 L 36.430905,11.774509 z "
     sodipodi:nodetypes="ccccc"
     transform="translate(-0.127241,19.08614)"
     sodipodi:stroke-cmyk="(0.0000000 0.0000000 0.0000000 0.80000001)"
     id="path831" />
  <path
     style="fill:#4c4c4c;fill-rule:evenodd;stroke:#333333;stroke-opacity:1.0000000;stroke-width:1.8750000;stroke-linejoin:round;stroke-linecap:round;fill-opacity:1.0000000;stroke-dasharray:none;"
     d="M 36.610851,11.234671 L 24.014640,11.234671 L 29.231519,6.7360247 L 41.649335,6.7360246 L 36.610851,11.234671 z "
     sodipodi:nodetypes="ccccc"
     transform="translate(-0.127241,19.08614)"
     sodipodi:stroke-cmyk="(0.0000000 0.0000000 0.0000000 0.80000001)"
     id="path832" />
  <path
     style="fill:#7f7f7f;fill-rule:evenodd;stroke:#333333;stroke-opacity:1.0000000;stroke-width:1.8750000;stroke-linejoin:round;stroke-linecap:round;fill-opacity:1.0000000;stroke-dasharray:none;"
     transform="translate(0.539838,0.000000)"
     d="M 18.174532,11.774509 L 23.392962,7.0959163 L 23.392962,54.241732 L 18.354478,54.241732 L 18.174532,11.774509 z "
     sodipodi:stroke-cmyk="(0.0000000 0.0000000 0.0000000 0.80000001)"
     id="path829" />
  <path
     sodipodi:nodetypes="ccccc"
     style="fill:#4c4c4c;fill-rule:evenodd;stroke:#333333;stroke-opacity:1.0000000;stroke-width:1.8750000;stroke-linejoin:round;stroke-linecap:round;fill-opacity:1.0000000;stroke-dasharray:none;"
     d="M 18.894316,11.234671 L 6.2981052,11.234671 L 12.023947,6.7360247 L 23.932800,6.7360246 L 18.894316,11.234671 z "
     sodipodi:stroke-cmyk="(0.0000000 0.0000000 0.0000000 0.80000001)"
     id="path830" />
  <path
     transform="matrix(1.456885,0.000000,0.000000,1.547427,-84.35329,-13.05050)"
     style="fill:#b3b3b3;fill-opacity:1.0000000;fill-rule:evenodd;stroke:#333333;stroke-width:2.0812886;stroke-linecap:round;stroke-linejoin:round;stroke-opacity:1.0000000;"
     d="M 63.192756,15.744888 C 63.019876,15.744888 62.880699,15.884066 62.880699,16.056945 L 62.880699,42.964549 C 62.880699,43.137428 63.019876,43.276606 63.192756,43.276606 L 70.486260,43.276606 C 70.659140,43.276606 70.798317,43.137428 70.798317,42.964549 L 70.798317,16.056945 C 70.798317,15.884066 70.659140,15.744888 70.486260,15.744888 L 63.192756,15.744888 z "
     id="rect918" />
  <path
     transform="matrix(1.438776,0.000000,0.000000,1.547427,-81.35213,-13.05050)"
     style="fill:#7f7f7f;fill-rule:evenodd;stroke:#333333;stroke-width:2.0943456;stroke-linecap:round;stroke-linejoin:round;"
     d="M 73.878288,28.401255 C 73.705408,28.401255 73.566231,28.540432 73.566231,28.713311 L 73.566231,43.264268 C 73.566231,43.437147 73.705408,43.576324 73.878288,43.576324 L 81.171792,43.576324 C 81.344671,43.576324 81.483849,43.437147 81.483849,43.264268 L 81.483849,28.713311 C 81.483849,28.540432 81.344671,28.401255 81.171792,28.401255 L 73.878288,28.401255 z "
     id="rect919" />
  <path
     transform="matrix(1.456885,0.000000,0.000000,1.547427,-80.98377,-13.05050)"
     style="fill:#4c4c4c;fill-rule:evenodd;stroke:#333333;stroke-width:2.0812886;stroke-linecap:round;stroke-linejoin:round;"
     d="M 84.508208,21.935110 C 84.335329,21.935110 84.196152,22.074287 84.196152,22.247167 L 84.196152,43.072423 C 84.196152,43.245302 84.335329,43.384480 84.508208,43.384480 L 91.801713,43.384480 C 91.974592,43.384480 92.113770,43.245302 92.113770,43.072423 L 92.113770,22.247167 C 92.113770,22.074287 91.974592,21.935110 91.801713,21.935110 L 84.508208,21.935110 z "
     id="rect920" />
  <path
     style="fill:#4c4c4c;fill-rule:evenodd;stroke:#333333;stroke-opacity:1.0000000;stroke-width:1.8750000;stroke-linejoin:round;stroke-linecap:round;fill-opacity:1.0000000;stroke-dasharray:none;"
     d="M 46.468750 16.281250 L 41.250000 20.781250 L 53.843750 20.781250 L 57.250000 17.750000 L 57.250000 16.281250 L 46.468750 16.281250 z "
     id="path836" />
  <path
     sodipodi:nodetypes="cccc"
     style="fill:#7f7f7f;fill-rule:evenodd;stroke:#333333;stroke-opacity:1.0000000;stroke-width:1.8750000;stroke-linejoin:round;stroke-linecap:round;fill-opacity:1.0000000;stroke-dasharray:none;"
     d="M 57.250000,18.093750 L 53.656250,21.312500 L 53.843750,52.843750 L 57.250000,49.812500"
     id="path838" />
  <metadata
     id="metadata14">
    <rdf:RDF
       id="RDF15">
      <cc:Work
         rdf:about=""
         id="Work16">
        <dc:title
           id="title17">Part of the Flat Icon Collection (Thu Aug 26 14:38:01 2004)</dc:title>
        <dc:description
           id="description19" />
        <dc:subject
           id="subject20">
          <rdf:Bag
             id="Bag21">
            <rdf:li
               id="li22" />
          </rdf:Bag>
        </dc:subject>
        <dc:publisher
           id="publisher23">
          <cc:Agent
             rdf:about=""
             id="Agent24">
            <dc:title
               id="title25" />
          </cc:Agent>
        </dc:publisher>
        <dc:creator
           id="creator26">
          <cc:Agent
             rdf:about=""
             id="Agent27">
            <dc:title
               id="title28">Danny Allen</dc:title>
          </cc:Agent>
        </dc:creator>
        <dc:rights
           id="rights30">
          <cc:Agent
             rdf:about=""
             id="Agent31">
            <dc:title
               id="title32">Danny Allen</dc:title>
          </cc:Agent>
        </dc:rights>
        <dc:date
           id="date34" />
        <dc:format
           id="format35">image/svg+xml</dc:format>
        <dc:type
           rdf:resource="http://purl.org/dc/dcmitype/StillImage"
           id="type37" />
        <cc:license
           rdf:resource="http://creativecommons.org/licenses/LGPL/2.1/"
           id="license38">
          <dc:date
             id="date39" />
        </cc:license>
        <dc:language
           id="language40">en</dc:language>
      </cc:Work>
    </rdf:RDF>
  </metadata>
  <path
     style="fill:none;fill-opacity:0.75000000;fill-rule:evenodd;stroke:#333333;stroke-width:5.0000000;stroke-linecap:round;stroke-linejoin:round;stroke-opacity:1.0000000;"
     d="M 6.5126900,6.0229568 L 6.5126900,54.473794 L 54.685074,54.473794"
     sodipodi:nodetypes="ccc"
     sodipodi:stroke-cmyk="(0.0000000 0.0000000 0.0000000 0.80000001)"
     id="path917" />
</svg>
