<?xml version="1.0" encoding="UTF-8" standalone="no"?>
<!DOCTYPE svg PUBLIC "-//W3C//DTD SVG 20010904//EN"
"http://www.w3.org/TR/2001/REC-SVG-20010904/DTD/svg10.dtd">
<svg
   sodipodi:docname="bookmarks_list_add.svg"
   height="60.0000000"
   sodipodi:version="0.32"
   width="60.0000000"
   _SVGFile__filename="scalable/actions/bookmarks_list_add.svg"
   version="1.0"
   y="0"
   x="0"
   inkscape:version="0.39"
   id="svg1"
   sodipodi:docbase="/home/danny/work/flat/newscale/actions"
   xmlns="http://www.w3.org/2000/svg"
   xmlns:cc="http://web.resource.org/cc/"
   xmlns:inkscape="http://www.inkscape.org/namespaces/inkscape"
   xmlns:sodipodi="http://sodipodi.sourceforge.net/DTD/sodipodi-0.dtd"
   xmlns:rdf="http://www.w3.org/1999/02/22-rdf-syntax-ns#"
   xmlns:dc="http://purl.org/dc/elements/1.1/"
   xmlns:xlink="http://www.w3.org/1999/xlink">
  <sodipodi:namedview
     bordercolor="#666666"
     inkscape:pageshadow="2"
     inkscape:window-y="0"
     pagecolor="#ffffff"
     inkscape:window-height="685"
     inkscape:zoom="4.9119411"
     inkscape:window-x="0"
     borderopacity="1.0"
     inkscape:cx="33.667126"
     inkscape:cy="16.626390"
     inkscape:window-width="1016"
     inkscape:pageopacity="0.0"
     id="base" />
  <defs
     id="defs3" />
  <g
     id="g969">
    <path
       style="font-size:12.000000;fill:#b3b3b3;fill-opacity:1.0000000;fill-rule:evenodd;stroke:#4c4c4c;stroke-width:3.1250000;stroke-linejoin:round;stroke-opacity:1.0000000;stroke-miterlimit:4.0000000;stroke-dasharray:none;"
       d="M -22.261933,13.713827 C -23.272833,14.188076 -24.086662,15.470289 -24.086662,16.588744 L -24.086662,49.542176 C -24.086662,50.660631 -23.272833,51.179253 -22.261933,50.705003 L -5.2473470,42.722862 C -4.2364470,42.248613 -3.4226180,40.966400 -3.4226180,39.847945 L -3.4226180,6.8945126 C -3.4226180,5.7760576 -4.2364470,5.2574367 -5.2473470,5.7316855 L -22.261933,13.713827 z "
       id="path1592"
       sodipodi:stroke-cmyk="(0.0000000 0.0000000 0.0000000 0.70196080)"
       transform="translate(49.39444,0.666846)" />
    <path
       style="font-size:12.000000;fill:#cccccc;fill-opacity:1.0000000;fill-rule:evenodd;stroke:#4c4c4c;stroke-width:3.1250000;stroke-linejoin:round;stroke-opacity:1.0000000;stroke-miterlimit:4.0000000;stroke-dasharray:none;"
       d="M -25.794420,13.713853 C -24.783518,14.188103 -23.969687,15.468837 -23.969687,16.585455 L -23.969687,49.545513 C -23.969687,50.662130 -24.783518,51.179269 -25.794420,50.705020 L -42.809040,42.722851 C -43.819942,42.248600 -44.633773,40.967866 -44.633773,39.851249 L -44.633773,6.8911909 C -44.633773,5.7745739 -43.819942,5.2574337 -42.809040,5.7316841 L -25.794420,13.713853 z "
       id="path1593"
       sodipodi:stroke-cmyk="(0.0000000 0.0000000 0.0000000 0.70196080)"
       transform="translate(49.39444,0.666846)" />
    <path
       style="font-size:12.000000;fill:#7f7f7f;fill-opacity:1.0000000;fill-rule:evenodd;stroke:#4c4c4c;stroke-width:1.2500000;stroke-linecap:round;stroke-linejoin:round;stroke-opacity:1.0000000;stroke-miterlimit:4.0000000;stroke-dasharray:none;"
       d="M -34.703829,5.4030216 L -34.703829,40.944455 L -28.512740,43.696048 L -28.512740,8.1546139 L -34.703829,5.4030216 z "
       id="path1594"
       sodipodi:stroke-cmyk="(0.0000000 0.0000000 0.0000000 0.70196080)"
       transform="translate(49.39444,0.666846)" />
  </g>
  <path
     id="path832"
     style="font-size:12.000000;font-weight:900;stroke-width:1.0000000pt;font-family:VAG Rounded Black SSi;fill:#333333;fill-opacity:1.0000000;"
     transform="scale(3.637565,3.637565)"
     d="M 11.682705,11.718236 L 11.682705,9.9311266 C 11.682705,9.6811266 11.751064,9.4780016 11.887783,9.3217516 C 12.024502,9.1615953 12.219814,9.0815172 12.473721,9.0815172 C 12.727627,9.0815172 12.922939,9.1615953 13.059658,9.3217516 C 13.200283,9.4780016 13.270596,9.6811266 13.270596,9.9311266 L 13.270596,11.718236 L 15.034267,11.718236 C 15.292080,11.718236 15.495205,11.788548 15.643642,11.929173 C 15.795986,12.065892 15.872158,12.259252 15.872158,12.509252 C 15.872158,12.763158 15.795986,12.960423 15.643642,13.101048 C 15.495205,13.241673 15.292080,13.311986 15.034267,13.311986 L 13.270596,13.311986 L 13.270596,15.093236 C 13.270596,15.347142 13.200283,15.552220 13.059658,15.708470 C 12.919033,15.864720 12.723721,15.942845 12.473721,15.942845 C 12.223721,15.942845 12.028408,15.864720 11.887783,15.708470 C 11.751064,15.552220 11.682705,15.347142 11.682705,15.093236 L 11.682705,13.311986 L 9.9190331,13.311986 C 9.6690331,13.311986 9.4659081,13.235814 9.3096581,13.083470 C 9.1573143,12.927220 9.0811424,12.735814 9.0811424,12.509252 C 9.0811424,12.259252 9.1553612,12.065892 9.3037987,11.929173 C 9.4561424,11.788548 9.6612206,11.718236 9.9190331,11.718236 L 11.682705,11.718236 z " />
  <metadata
     id="metadata8">
    <rdf:RDF
       id="RDF9">
      <cc:Work
         rdf:about=""
         id="Work10">
        <dc:title
           id="title11">Part of the Flat Icon Collection (Thu Aug 26 14:38:01 2004)</dc:title>
        <dc:description
           id="description13" />
        <dc:subject
           id="subject14">
          <rdf:Bag
             id="Bag15">
            <rdf:li
               id="li16" />
          </rdf:Bag>
        </dc:subject>
        <dc:publisher
           id="publisher17">
          <cc:Agent
             rdf:about=""
             id="Agent18">
            <dc:title
               id="title19" />
          </cc:Agent>
        </dc:publisher>
        <dc:creator
           id="creator20">
          <cc:Agent
             rdf:about=""
             id="Agent21">
            <dc:title
               id="title22">Danny Allen</dc:title>
          </cc:Agent>
        </dc:creator>
        <dc:rights
           id="rights24">
          <cc:Agent
             rdf:about=""
             id="Agent25">
            <dc:title
               id="title26">Danny Allen</dc:title>
          </cc:Agent>
        </dc:rights>
        <dc:date
           id="date28" />
        <dc:format
           id="format29">image/svg+xml</dc:format>
        <dc:type
           rdf:resource="http://purl.org/dc/dcmitype/StillImage"
           id="type31" />
        <cc:license
           rdf:resource="http://creativecommons.org/licenses/LGPL/2.1/"
           id="license32">
          <dc:date
             id="date33" />
        </cc:license>
        <dc:language
           id="language34">en</dc:language>
      </cc:Work>
    </rdf:RDF>
  </metadata>
</svg>
