<?xml version="1.0" encoding="UTF-8" standalone="no"?>
<!DOCTYPE svg PUBLIC "-//W3C//DTD SVG 20010904//EN"
"http://www.w3.org/TR/2001/REC-SVG-20010904/DTD/svg10.dtd">
<svg
   sodipodi:docname="cdcopy.svg"
   height="60.0000000"
   sodipodi:version="0.32"
   width="60.0000000"
   _SVGFile__filename="scalable/actions/cdcopy.svg"
   version="1.0"
   y="0"
   x="0"
   inkscape:version="0.39"
   id="svg1"
   sodipodi:docbase="/home/danny/work/flat/newscale/actions"
   xmlns="http://www.w3.org/2000/svg"
   xmlns:cc="http://web.resource.org/cc/"
   xmlns:inkscape="http://www.inkscape.org/namespaces/inkscape"
   xmlns:sodipodi="http://sodipodi.sourceforge.net/DTD/sodipodi-0.dtd"
   xmlns:rdf="http://www.w3.org/1999/02/22-rdf-syntax-ns#"
   xmlns:dc="http://purl.org/dc/elements/1.1/"
   xmlns:xlink="http://www.w3.org/1999/xlink">
  <sodipodi:namedview
     bordercolor="#666666"
     inkscape:pageshadow="2"
     inkscape:window-y="0"
     pagecolor="#ffffff"
     inkscape:window-height="685"
     inkscape:zoom="6.9465337"
     inkscape:window-x="0"
     borderopacity="1.0"
     inkscape:cx="39.488204"
     inkscape:cy="20.997815"
     inkscape:window-width="1016"
     inkscape:pageopacity="0.0"
     id="base" />
  <defs
     id="defs3" />
  <g
     id="g1603"
     transform="translate(24.78421,-1.048785)"
     style="stroke:#4c4c4c;stroke-opacity:1.0000000;"
     sodipodi:stroke-cmyk="(0.0000000 0.0000000 0.0000000 0.69999999)">
    <path
       transform="matrix(0.711461,0.000000,0.000000,0.711477,-26.71193,-1.076744)"
       style="font-size:12.000000;fill:#b3b3b3;fill-opacity:1.0000000;fill-rule:evenodd;stroke:#4c4c4c;stroke-width:4.3923206;stroke-linecap:round;stroke-linejoin:round;stroke-miterlimit:4.0000000;"
       d="M 57.131182,31.816132 C 57.131182,45.898650 45.701892,57.327940 31.619373,57.327940 C 17.536855,57.327940 6.1075649,45.898650 6.1075649,31.816132 C 6.1075649,17.733613 17.536855,6.3043232 31.619373,6.3043232 C 45.701892,6.3043232 57.131182,17.733613 57.131182,31.816132 z "
       id="path971" />
    <path
       transform="matrix(0.663479,0.000000,0.000000,0.663494,-23.88623,1.083073)"
       style="font-size:12.000000;fill:#7f7f7f;fill-rule:evenodd;stroke:#4c4c4c;stroke-width:2.8259807;stroke-linecap:round;stroke-linejoin:round;stroke-miterlimit:4.0000000;"
       d="M 40.208137,30.861824 C 40.208137,36.691495 35.476809,41.422822 29.647139,41.422822 C 23.817468,41.422822 19.086141,36.691495 19.086141,30.861824 C 19.086141,25.032153 23.817468,20.300826 29.647139,20.300826 C 35.476809,20.300826 40.208137,25.032153 40.208137,30.861824 z "
       id="path972" />
    <path
       style="font-size:12.000000;fill:#cccccc;fill-opacity:1.0000000;fill-rule:evenodd;stroke:#4c4c4c;stroke-width:1.8839871;stroke-linecap:round;stroke-linejoin:round;stroke-miterlimit:4.0000000;"
       d="M 35.818324,30.989065 C 35.818324,34.114612 33.281650,36.651287 30.156104,36.651287 C 27.030557,36.651287 24.493882,34.114612 24.493882,30.989065 C 24.493882,27.863519 27.030557,25.326843 30.156104,25.326843 C 33.281650,25.326843 35.818324,27.863519 35.818324,30.989065 z "
       id="path973"
       transform="matrix(0.663479,0.000000,0.000000,0.663494,-24.22391,0.998650)" />
  </g>
  <g
     id="g1607"
     transform="translate(43.83271,17.87166)"
     style="stroke:#4c4c4c;stroke-opacity:1.0000000;"
     sodipodi:stroke-cmyk="(0.0000000 0.0000000 0.0000000 0.69999999)">
    <path
       transform="matrix(0.711461,0.000000,0.000000,0.711477,-26.71193,-1.076744)"
       style="font-size:12.000000;fill:#b3b3b3;fill-opacity:1.0000000;fill-rule:evenodd;stroke:#4c4c4c;stroke-width:4.3923206;stroke-linecap:round;stroke-linejoin:round;stroke-miterlimit:4.0000000;"
       d="M 57.131182,31.816132 C 57.131182,45.898650 45.701892,57.327940 31.619373,57.327940 C 17.536855,57.327940 6.1075649,45.898650 6.1075649,31.816132 C 6.1075649,17.733613 17.536855,6.3043232 31.619373,6.3043232 C 45.701892,6.3043232 57.131182,17.733613 57.131182,31.816132 z "
       id="path1608" />
    <path
       transform="matrix(0.663479,0.000000,0.000000,0.663494,-23.88623,1.083073)"
       style="font-size:12.000000;fill:#7f7f7f;fill-rule:evenodd;stroke:#4c4c4c;stroke-width:2.8259807;stroke-linecap:round;stroke-linejoin:round;stroke-miterlimit:4.0000000;"
       d="M 40.208137,30.861824 C 40.208137,36.691495 35.476809,41.422822 29.647139,41.422822 C 23.817468,41.422822 19.086141,36.691495 19.086141,30.861824 C 19.086141,25.032153 23.817468,20.300826 29.647139,20.300826 C 35.476809,20.300826 40.208137,25.032153 40.208137,30.861824 z "
       id="path1609" />
    <path
       style="font-size:12.000000;fill:#cccccc;fill-opacity:1.0000000;fill-rule:evenodd;stroke:#4c4c4c;stroke-width:1.8839871;stroke-linecap:round;stroke-linejoin:round;stroke-miterlimit:4.0000000;"
       d="M 35.818324,30.989065 C 35.818324,34.114612 33.281650,36.651287 30.156104,36.651287 C 27.030557,36.651287 24.493882,34.114612 24.493882,30.989065 C 24.493882,27.863519 27.030557,25.326843 30.156104,25.326843 C 33.281650,25.326843 35.818324,27.863519 35.818324,30.989065 z "
       id="path1610"
       transform="matrix(0.663479,0.000000,0.000000,0.663494,-24.22391,0.998650)" />
  </g>
  <metadata
     id="metadata11">
    <rdf:RDF
       id="RDF12">
      <cc:Work
         rdf:about=""
         id="Work13">
        <dc:title
           id="title14">Part of the Flat Icon Collection (Thu Aug 26 14:38:01 2004)</dc:title>
        <dc:description
           id="description16" />
        <dc:subject
           id="subject17">
          <rdf:Bag
             id="Bag18">
            <rdf:li
               id="li19" />
          </rdf:Bag>
        </dc:subject>
        <dc:publisher
           id="publisher20">
          <cc:Agent
             rdf:about=""
             id="Agent21">
            <dc:title
               id="title22" />
          </cc:Agent>
        </dc:publisher>
        <dc:creator
           id="creator23">
          <cc:Agent
             rdf:about=""
             id="Agent24">
            <dc:title
               id="title25">Danny Allen</dc:title>
          </cc:Agent>
        </dc:creator>
        <dc:rights
           id="rights27">
          <cc:Agent
             rdf:about=""
             id="Agent28">
            <dc:title
               id="title29">Danny Allen</dc:title>
          </cc:Agent>
        </dc:rights>
        <dc:date
           id="date31" />
        <dc:format
           id="format32">image/svg+xml</dc:format>
        <dc:type
           rdf:resource="http://purl.org/dc/dcmitype/StillImage"
           id="type34" />
        <cc:license
           rdf:resource="http://creativecommons.org/licenses/LGPL/2.1/"
           id="license35">
          <dc:date
             id="date36" />
        </cc:license>
        <dc:language
           id="language37">en</dc:language>
      </cc:Work>
    </rdf:RDF>
  </metadata>
  <path
     style="font-size:12.000000;fill:#7f7f7f;fill-rule:evenodd;stroke:#333333;stroke-width:3.1250000;stroke-linecap:round;stroke-linejoin:round;stroke-miterlimit:4.0000000;stroke-opacity:1.0000000;"
     d="M 7.5025748,22.271237 C 9.9327328,43.727330 28.563129,42.286581 29.761362,42.173889 L 29.761362,48.591009 L 39.147598,39.300551 L 29.761362,30.029248 L 29.761362,36.369747 C 28.352464,36.535229 15.190281,37.856147 7.5025748,22.271237 z "
     id="path1643" />
</svg>
