<?xml version="1.0" encoding="UTF-8" standalone="no"?>
<!DOCTYPE svg PUBLIC "-//W3C//DTD SVG 20010904//EN"
"http://www.w3.org/TR/2001/REC-SVG-20010904/DTD/svg10.dtd">
<svg
   sodipodi:docname="cdrwblank.svg"
   sodipodi:version="0.32"
   height="60.0000000"
   width="60.0000000"
   _SVGFile__filename="scalable/actions/cdrwblank.svg"
   version="1.0"
   y="0"
   x="0"
   inkscape:version="0.39"
   id="svg1"
   sodipodi:docbase="/home/danny/work/flat/newscale/actions"
   xmlns="http://www.w3.org/2000/svg"
   xmlns:cc="http://web.resource.org/cc/"
   xmlns:inkscape="http://www.inkscape.org/namespaces/inkscape"
   xmlns:sodipodi="http://sodipodi.sourceforge.net/DTD/sodipodi-0.dtd"
   xmlns:rdf="http://www.w3.org/1999/02/22-rdf-syntax-ns#"
   xmlns:dc="http://purl.org/dc/elements/1.1/"
   xmlns:xlink="http://www.w3.org/1999/xlink">
  <sodipodi:namedview
     bordercolor="#666666"
     inkscape:pageshadow="2"
     inkscape:window-y="0"
     pagecolor="#ffffff"
     inkscape:window-height="685"
     inkscape:zoom="9.8238825"
     inkscape:window-x="0"
     borderopacity="1.0"
     inkscape:cx="35.500239"
     inkscape:cy="20.118793"
     inkscape:window-width="1016"
     inkscape:pageopacity="0.0"
     id="base" />
  <defs
     id="defs3" />
  <metadata
     id="metadata11">
    <rdf:RDF
       id="RDF12">
      <cc:Work
         rdf:about=""
         id="Work13">
        <dc:format
           id="format14">image/svg+xml</dc:format>
        <dc:type
           id="type16"
           rdf:resource="http://purl.org/dc/dcmitype/StillImage" />
      </cc:Work>
    </rdf:RDF>
  </metadata>
  <g
     id="g951"
     style="stroke:#4c4c4c;stroke-opacity:1.0000000;"
     sodipodi:stroke-cmyk="(0.0000000 0.0000000 0.0000000 0.69999999)">
    <path
       transform="matrix(1.072319,0.000000,0.000000,1.072319,-3.749958,-4.018670)"
       style="font-size:12.000000;fill:#b3b3b3;fill-opacity:1.0000000;fill-rule:evenodd;stroke:#4c4c4c;stroke-width:2.9142399;stroke-linecap:round;stroke-linejoin:round;"
       d="M 57.131182,31.816132 C 57.131182,45.898650 45.701892,57.327940 31.619373,57.327940 C 17.536855,57.327940 6.1075649,45.898650 6.1075649,31.816132 C 6.1075649,17.733613 17.536855,6.3043232 31.619373,6.3043232 C 45.701892,6.3043232 57.131182,17.733613 57.131182,31.816132 z "
       id="path948" />
    <path
       transform="translate(0.508958,-0.763452)"
       style="font-size:12.000000;fill:#7f7f7f;fill-rule:evenodd;stroke:#4c4c4c;stroke-width:3.1250000;stroke-linecap:round;stroke-linejoin:round;"
       d="M 40.208137,30.861824 C 40.208137,36.691495 35.476809,41.422822 29.647139,41.422822 C 23.817468,41.422822 19.086141,36.691495 19.086141,30.861824 C 19.086141,25.032153 23.817468,20.300826 29.647139,20.300826 C 35.476809,20.300826 40.208137,25.032153 40.208137,30.861824 z "
       id="path949" />
    <path
       style="font-size:12.000000;fill:#cccccc;fill-opacity:1.0000000;fill-rule:evenodd;stroke:#4c4c4c;stroke-width:1.8750000;stroke-linecap:round;stroke-linejoin:round;"
       d="M 35.818324,30.989065 C 35.818324,34.114612 33.281650,36.651287 30.156104,36.651287 C 27.030557,36.651287 24.493882,34.114612 24.493882,30.989065 C 24.493882,27.863519 27.030557,25.326843 30.156104,25.326843 C 33.281650,25.326843 35.818324,27.863519 35.818324,30.989065 z "
       id="path950"
       transform="translate(-6.081469e-6,-0.890693)" />
  </g>
  <g
     id="g1576">
    <path
       style="fill:#7f7f7f;fill-opacity:1.0000000;fill-rule:evenodd;stroke:#333333;stroke-width:1.7209891;stroke-linecap:round;stroke-linejoin:round;"
       d="M 69.048167,21.386897 L 88.177971,9.6125881 L 95.812427,9.6125881 L 80.407231,21.439602 L 69.048167,21.386897 z "
       sodipodi:nodetypes="ccccc"
       transform="matrix(1.452653,0.000000,0.000000,1.452653,-82.67304,11.73004)"
       sodipodi:stroke-cmyk="(0 0 0 0.8)"
       id="path578" />
    <path
       style="fill:#4c4c4c;fill-opacity:1.0000000;fill-rule:evenodd;stroke:#333333;stroke-width:1.7209891;stroke-linecap:round;stroke-linejoin:round;"
       d="M 79.867393,30.098379 L 95.303463,18.137731 L 95.796990,9.6280251 L 80.497204,21.371460 L 79.867393,30.098379 z "
       sodipodi:nodetypes="ccccc"
       transform="matrix(1.452653,0.000000,0.000000,1.452653,-82.67304,11.73004)"
       sodipodi:stroke-cmyk="(0 0 0 0.8)"
       id="path579" />
    <path
       transform="matrix(1.452653,0.000000,0.000000,1.452653,-82.67304,11.73004)"
       style="font-size:12.000000;fill:#b3b3b3;fill-rule:evenodd;stroke:#333333;stroke-width:1.7209891;stroke-miterlimit:4.0000000;stroke-dasharray:none;stroke-linejoin:round;stroke-linecap:round;"
       d="M 70.328384,20.937031 C 69.220384,20.937031 68.328384,21.829031 68.328384,22.937031 L 68.328384,28.225619 C 68.328384,29.333619 69.220384,30.225619 70.328384,30.225619 L 79.179719,30.225619 C 80.287719,30.225619 81.179719,29.333619 81.179719,28.225619 L 81.179719,22.937031 C 81.179719,21.829031 80.287719,20.937031 79.179719,20.937031 L 70.328384,20.937031 z "
       id="rect577" />
  </g>
</svg>
