<?xml version="1.0" encoding="UTF-8" standalone="no"?>
<!DOCTYPE svg PUBLIC "-//W3C//DTD SVG 20010904//EN"
"http://www.w3.org/TR/2001/REC-SVG-20010904/DTD/svg10.dtd">
<svg
   sodipodi:docname="cell_layout.svg"
   height="60.0000000"
   sodipodi:version="0.32"
   width="60.0000000"
   _SVGFile__filename="scalable/actions/cell_layout.svg"
   version="1.0"
   y="0"
   x="0"
   inkscape:version="0.39"
   id="svg1"
   sodipodi:docbase="/home/danny/work/flat/newscale/actions"
   xmlns="http://www.w3.org/2000/svg"
   xmlns:cc="http://web.resource.org/cc/"
   xmlns:inkscape="http://www.inkscape.org/namespaces/inkscape"
   xmlns:sodipodi="http://sodipodi.sourceforge.net/DTD/sodipodi-0.dtd"
   xmlns:rdf="http://www.w3.org/1999/02/22-rdf-syntax-ns#"
   xmlns:dc="http://purl.org/dc/elements/1.1/"
   xmlns:xlink="http://www.w3.org/1999/xlink">
  <sodipodi:namedview
     bordercolor="#666666"
     inkscape:pageshadow="2"
     inkscape:window-y="0"
     snaptoguides="true"
     pagecolor="#ffffff"
     inkscape:window-height="685"
     inkscape:zoom="4.9119412"
     inkscape:window-x="0"
     borderopacity="1.0"
     inkscape:cx="36.877070"
     inkscape:cy="15.382721"
     inkscape:window-width="1016"
     inkscape:pageopacity="0.0"
     id="base"
     showguides="true" />
  <defs
     id="defs3" />
  <metadata
     id="metadata6">
    <rdf:RDF
       id="RDF7">
      <cc:Work
         rdf:about=""
         id="Work8">
        <dc:title
           id="title9">Part of the Flat Icon Collection (Thu Aug 26 14:38:01 2004)</dc:title>
        <dc:description
           id="description11" />
        <dc:subject
           id="subject12">
          <rdf:Bag
             id="Bag13">
            <rdf:li
               id="li14" />
          </rdf:Bag>
        </dc:subject>
        <dc:publisher
           id="publisher15">
          <cc:Agent
             rdf:about=""
             id="Agent16">
            <dc:title
               id="title17" />
          </cc:Agent>
        </dc:publisher>
        <dc:creator
           id="creator18">
          <cc:Agent
             rdf:about=""
             id="Agent19">
            <dc:title
               id="title20">Danny Allen</dc:title>
          </cc:Agent>
        </dc:creator>
        <dc:rights
           id="rights22">
          <cc:Agent
             rdf:about=""
             id="Agent23">
            <dc:title
               id="title24">Danny Allen</dc:title>
          </cc:Agent>
        </dc:rights>
        <dc:date
           id="date26" />
        <dc:format
           id="format27">image/svg+xml</dc:format>
        <dc:type
           rdf:resource="http://purl.org/dc/dcmitype/StillImage"
           id="type29" />
        <cc:license
           rdf:resource="http://creativecommons.org/licenses/LGPL/2.1/"
           id="license30">
          <dc:date
             id="date31" />
        </cc:license>
        <dc:language
           id="language32">en</dc:language>
      </cc:Work>
    </rdf:RDF>
  </metadata>
  <path
     transform="matrix(0.000000,-1.000000,1.000000,0.000000,-0.254480,-0.508961)"
     style="fill:#cccccc;fill-opacity:1.0000000;fill-rule:evenodd;stroke:#333333;stroke-width:3.1250000;stroke-linecap:round;stroke-linejoin:round;stroke-dasharray:3.1250000 3.1250000;stroke-dashoffset:0.0000000;stroke-opacity:1.0000000;"
     d="M -46.802795,5.4132142 C -47.910795,5.4132142 -48.802795,6.3052142 -48.802795,7.4132142 L -48.802795,53.153475 C -48.802795,54.261475 -47.910795,55.153475 -46.802795,55.153475 L -14.157406,55.153475 C -13.049406,55.153475 -12.157406,54.261475 -12.157406,53.153475 L -12.157406,7.4132142 C -12.157406,6.3052142 -13.049406,5.4132142 -14.157406,5.4132142 L -46.802795,5.4132142 z "
     id="path967" />
  <path
     style="font-size:12.000000;font-weight:900;fill:#333333;fill-opacity:1.0000000;stroke-width:1.0000000pt;font-family:VAG Rounded Black SSi;"
     d="M 29.978819,16.842372 C 30.646098,16.842372 31.257774,16.953585 31.813846,17.176009 C 32.392153,17.398439 32.848128,17.754323 33.181771,18.243660 C 33.515413,18.710761 33.682234,19.311311 33.682234,20.045324 C 33.682234,20.601391 33.593263,21.357641 33.415322,22.314080 C 33.237380,23.248277 33.115041,23.960044 33.048311,24.449381 C 33.760079,23.960044 34.394002,23.504063 34.950068,23.081456 C 35.528376,22.636602 36.084448,22.291838 36.618274,22.047167 C 37.152099,21.780254 37.674798,21.646800 38.186383,21.646800 C 39.231792,21.646800 40.110380,22.047167 40.822147,22.847905 C 41.533914,23.648643 41.889798,24.582840 41.889798,25.650491 C 41.889798,26.406741 41.600644,27.040657 41.022331,27.552242 C 40.444022,28.063826 39.509825,28.586531 38.219750,29.120356 C 36.929669,29.631935 36.240143,29.909968 36.151172,29.954456 C 36.240143,29.998939 36.929669,30.288098 38.219750,30.821924 C 39.532067,31.355749 40.466264,31.867327 41.022331,32.356670 C 41.600644,32.823766 41.889798,33.435442 41.889798,34.191697 C 41.889798,35.281589 41.533914,36.238028 40.822147,37.061007 C 40.110380,37.883986 39.231792,38.295479 38.186383,38.295479 C 37.474615,38.295479 36.662756,37.984078 35.750806,37.361281 C 34.838856,36.738485 33.938021,36.115689 33.048311,35.492893 C 33.159530,36.204660 33.292983,36.960915 33.448684,37.761653 C 33.604385,38.562391 33.682234,39.240791 33.682234,39.796864 C 33.682234,40.908997 33.326351,41.743096 32.614583,42.299169 C 31.925058,42.832995 31.046469,43.099907 29.978819,43.099907 C 28.933410,43.099907 28.054821,42.832995 27.343054,42.299169 C 26.653534,41.743096 26.308770,40.908997 26.308770,39.796864 C 26.308770,39.440980 26.397742,38.773695 26.575683,37.795015 C 26.753625,36.816335 26.864837,36.048959 26.909320,35.492893 C 25.730457,36.315872 24.951961,36.871944 24.573835,37.161098 C 24.195711,37.428011 23.739736,37.683803 23.205910,37.928475 C 22.694326,38.173140 22.204989,38.295479 21.737887,38.295479 C 20.670237,38.295479 19.802775,37.895107 19.135491,37.094369 C 18.490453,36.293630 18.167931,35.326072 18.167931,34.191697 C 18.167931,33.390959 18.445965,32.757036 19.002037,32.289941 C 19.558104,31.822845 20.458933,31.344628 21.704525,30.855286 C 22.950118,30.343701 23.661885,30.043427 23.839827,29.954456 C 23.661885,29.865485 22.950118,29.576331 21.704525,29.086988 C 20.481174,28.575404 19.580344,28.074947 19.002037,27.585604 C 18.445965,27.074025 18.167931,26.428982 18.167931,25.650491 C 18.167931,24.560593 18.490453,23.626402 19.135491,22.847905 C 19.802775,22.047167 20.670237,21.646800 21.737887,21.646800 C 22.405172,21.646800 23.016848,21.824743 23.572914,22.180627 C 24.151222,22.536510 25.263361,23.292760 26.909320,24.449381 C 26.864837,23.960044 26.753625,23.192668 26.575683,22.147258 C 26.397742,21.101849 26.308770,20.401208 26.308770,20.045324 C 26.308770,18.933185 26.653534,18.121327 27.343054,17.609743 C 28.054821,17.098159 28.933410,16.842372 29.978819,16.842372 z "
     id="path886" />
</svg>
