<?xml version="1.0" encoding="UTF-8" standalone="no"?>
<!DOCTYPE svg PUBLIC "-//W3C//DTD SVG 20010904//EN"
"http://www.w3.org/TR/2001/REC-SVG-20010904/DTD/svg10.dtd">
<svg
   sodipodi:docname="delete_user.svg"
   height="60.0000000"
   sodipodi:version="0.32"
   width="60.0000000"
   _SVGFile__filename="scalable/actions/delete_user.svg"
   version="1.0"
   y="0"
   x="0"
   inkscape:version="0.39"
   id="svg1"
   sodipodi:docbase="/home/danny/work/flat/newscale/actions"
   xmlns="http://www.w3.org/2000/svg"
   xmlns:cc="http://web.resource.org/cc/"
   xmlns:inkscape="http://www.inkscape.org/namespaces/inkscape"
   xmlns:sodipodi="http://sodipodi.sourceforge.net/DTD/sodipodi-0.dtd"
   xmlns:rdf="http://www.w3.org/1999/02/22-rdf-syntax-ns#"
   xmlns:dc="http://purl.org/dc/elements/1.1/"
   xmlns:xlink="http://www.w3.org/1999/xlink">
  <sodipodi:namedview
     bordercolor="#666666"
     inkscape:pageshadow="2"
     inkscape:window-y="0"
     pagecolor="#ffffff"
     inkscape:window-height="699"
     inkscape:zoom="6.9465339"
     inkscape:window-x="0"
     borderopacity="1.0"
     inkscape:cx="32.978955"
     inkscape:cy="27.716973"
     inkscape:window-width="1024"
     inkscape:pageopacity="0.0"
     id="base" />
  <defs
     id="defs3" />
  <path
     id="path831"
     style="font-size:12.000000;font-weight:900;fill:#333333;stroke-width:1.0000000pt;font-family:VAG Rounded Black SSi;"
     d="M 56.718988,53.348958 L 50.956698,53.348958 C 50.956698,53.781712 51.156431,54.191165 51.555897,54.577314 C 51.955362,54.956806 52.607822,55.146552 53.513277,55.146552 C 53.979321,55.146552 54.365470,55.086632 54.671728,54.966794 C 54.977984,54.846953 55.354148,54.677181 55.800217,54.457475 C 56.252944,54.231111 56.579176,54.117929 56.778908,54.117929 C 57.151742,54.117929 57.467986,54.247756 57.727639,54.507407 C 57.987290,54.767060 58.117117,55.103277 58.117117,55.516058 C 58.117117,56.008733 57.870780,56.458131 57.378107,56.864254 C 56.892089,57.263720 56.262932,57.569976 55.490632,57.783024 C 54.718332,58.002731 53.922730,58.112584 53.103825,58.112584 C 52.258290,58.112584 51.492649,57.966112 50.806899,57.673171 C 50.127807,57.380230 49.538596,56.967450 49.039264,56.434829 C 48.546590,55.895551 48.170427,55.269721 47.910774,54.557340 C 47.651121,53.838303 47.521295,53.079319 47.521295,52.280388 C 47.521295,51.528062 47.657780,50.795708 47.930748,50.083327 C 48.203716,49.370948 48.589866,48.745118 49.089197,48.205840 C 49.588529,47.666562 50.184398,47.243795 50.876805,46.937537 C 51.569212,46.624622 52.311552,46.468166 53.103825,46.468166 C 54.122462,46.468166 55.024588,46.724489 55.810205,47.237136 C 56.595819,47.749784 57.201676,48.422217 57.627772,49.254437 C 58.060526,50.086656 58.276903,50.978796 58.276903,51.930856 C 58.276903,52.476791 58.153735,52.849626 57.907397,53.049359 C 57.661060,53.249091 57.264924,53.348958 56.718988,53.348958 z M 50.956698,51.131925 L 55.081179,51.131925 C 55.081179,50.878929 54.991300,50.599305 54.811540,50.293047 C 54.631780,49.980132 54.385444,49.720480 54.072528,49.514090 C 53.766272,49.301041 53.416740,49.194517 53.023932,49.194517 C 52.631124,49.194517 52.274935,49.301041 51.955362,49.514090 C 51.642447,49.727138 51.396111,49.986791 51.216351,50.293047 C 51.043250,50.592645 50.956698,50.872272 50.956698,51.131925 z M 41.958740,56.225109 L 41.958740,49.763755 L 41.589234,49.763755 C 41.063271,49.763755 40.653819,49.640587 40.360878,49.394249 C 40.061277,49.147912 39.911479,48.775078 39.911479,48.275746 C 39.911479,47.769756 40.061277,47.396922 40.360878,47.157242 C 40.653819,46.917563 41.063271,46.797724 41.589234,46.797724 L 41.958740,46.797724 L 41.958740,44.690544 C 41.958740,44.211186 42.105209,43.811720 42.398151,43.492148 C 42.691092,43.172575 43.073913,43.012789 43.546614,43.012789 C 44.025972,43.012789 44.412123,43.172575 44.705065,43.492148 C 44.998006,43.811720 45.144476,44.211186 45.144476,44.690544 L 45.144476,46.797724 L 46.023300,46.797724 C 46.562578,46.797724 46.975360,46.917563 47.261644,47.157242 C 47.554585,47.396922 47.701055,47.769756 47.701055,48.275746 C 47.701055,48.775078 47.554585,49.147912 47.261644,49.394249 C 46.975360,49.640587 46.562578,49.763755 46.023300,49.763755 L 45.144476,49.763755 L 45.144476,56.225109 C 45.144476,56.697811 44.994677,57.097276 44.695077,57.423506 C 44.402135,57.743078 44.019315,57.902864 43.546614,57.902864 C 43.080572,57.902864 42.697749,57.743078 42.398151,57.423506 C 42.105209,57.097276 41.958740,56.697811 41.958740,56.225109 z M 38.533323,53.348958 L 32.771034,53.348958 C 32.771034,53.781712 32.970766,54.191165 33.370231,54.577314 C 33.769697,54.956806 34.422158,55.146552 35.327613,55.146552 C 35.793655,55.146552 36.179806,55.086632 36.486062,54.966794 C 36.792320,54.846953 37.168483,54.677181 37.614551,54.457475 C 38.067279,54.231111 38.393510,54.117929 38.593242,54.117929 C 38.966076,54.117929 39.282320,54.247756 39.541973,54.507407 C 39.801626,54.767060 39.931451,55.103277 39.931451,55.516058 C 39.931451,56.008733 39.685114,56.458131 39.192441,56.864254 C 38.706423,57.263720 38.077266,57.569976 37.304966,57.783024 C 36.532667,58.002731 35.737064,58.112584 34.918160,58.112584 C 34.072624,58.112584 33.306983,57.966112 32.621234,57.673171 C 31.942142,57.380230 31.352930,56.967450 30.853600,56.434829 C 30.360925,55.895551 29.984762,55.269721 29.725109,54.557340 C 29.465456,53.838303 29.335631,53.079319 29.335631,52.280388 C 29.335631,51.528062 29.472115,50.795708 29.745082,50.083327 C 30.018050,49.370948 30.404201,48.745118 30.903531,48.205840 C 31.402864,47.666562 31.998734,47.243795 32.691141,46.937537 C 33.383548,46.624622 34.125886,46.468166 34.918160,46.468166 C 35.936796,46.468166 36.838923,46.724489 37.624539,47.237136 C 38.410153,47.749784 39.016010,48.422217 39.442106,49.254437 C 39.874860,50.086656 40.091237,50.978796 40.091237,51.930856 C 40.091237,52.476791 39.968070,52.849626 39.721733,53.049359 C 39.475395,53.249091 39.079258,53.348958 38.533323,53.348958 z M 32.771034,51.131925 L 36.895513,51.131925 C 36.895513,50.878929 36.805634,50.599305 36.625874,50.293047 C 36.446116,49.980132 36.199778,49.720480 35.886865,49.514090 C 35.580607,49.301041 35.231075,49.194517 34.838267,49.194517 C 34.445458,49.194517 34.089269,49.301041 33.769697,49.514090 C 33.456782,49.727138 33.210445,49.986791 33.030685,50.293047 C 32.857584,50.592645 32.771034,50.872272 32.771034,51.131925 z M 25.161216,56.225109 L 25.161216,43.552067 C 25.161216,43.072709 25.311015,42.673243 25.610615,42.353671 C 25.910214,42.034098 26.289706,41.874312 26.749090,41.874312 C 27.215134,41.874312 27.597955,42.034098 27.897555,42.353671 C 28.197154,42.673243 28.346952,43.072709 28.346952,43.552067 L 28.346952,56.225109 C 28.346952,56.697811 28.197154,57.097276 27.897555,57.423506 C 27.604614,57.743078 27.221792,57.902864 26.749090,57.902864 C 26.283048,57.902864 25.900228,57.743078 25.600627,57.423506 C 25.307686,57.097276 25.161216,56.697811 25.161216,56.225109 z M 22.614623,53.348958 L 16.852334,53.348958 C 16.852334,53.781712 17.052066,54.191165 17.451532,54.577314 C 17.850997,54.956806 18.503458,55.146552 19.408913,55.146552 C 19.874956,55.146552 20.261106,55.086632 20.567363,54.966794 C 20.873620,54.846953 21.249783,54.677181 21.695854,54.457475 C 22.148581,54.231111 22.474811,54.117929 22.674543,54.117929 C 23.047377,54.117929 23.363621,54.247756 23.623274,54.507407 C 23.882927,54.767060 24.012753,55.103277 24.012753,55.516058 C 24.012753,56.008733 23.766415,56.458131 23.273742,56.864254 C 22.787726,57.263720 22.158567,57.569976 21.386267,57.783024 C 20.613967,58.002731 19.818365,58.112584 18.999460,58.112584 C 18.153926,58.112584 17.388284,57.966112 16.702534,57.673171 C 16.023444,57.380230 15.434233,56.967450 14.934900,56.434829 C 14.442225,55.895551 14.066062,55.269721 13.806409,54.557340 C 13.546758,53.838303 13.416931,53.079319 13.416931,52.280388 C 13.416931,51.528062 13.553415,50.795708 13.826383,50.083327 C 14.099351,49.370948 14.485501,48.745118 14.984834,48.205840 C 15.484164,47.666562 16.080035,47.243795 16.772441,46.937537 C 17.464848,46.624622 18.207188,46.468166 18.999460,46.468166 C 20.018099,46.468166 20.920225,46.724489 21.705840,47.237136 C 22.491456,47.749784 23.097310,48.422217 23.523407,49.254437 C 23.956163,50.086656 24.172539,50.978796 24.172539,51.930856 C 24.172539,52.476791 24.049370,52.849626 23.803034,53.049359 C 23.556697,53.249091 23.160560,53.348958 22.614623,53.348958 z M 16.852334,51.131925 L 20.976816,51.131925 C 20.976816,50.878929 20.886935,50.599305 20.707177,50.293047 C 20.527417,49.980132 20.281080,49.720480 19.968165,49.514090 C 19.661907,49.301041 19.312375,49.194517 18.919567,49.194517 C 18.526761,49.194517 18.170570,49.301041 17.850997,49.514090 C 17.538084,49.727138 17.291746,49.986791 17.111987,50.293047 C 16.938885,50.592645 16.852334,50.872272 16.852334,51.131925 z M 12.428255,43.552067 L 12.428255,56.225109 C 12.428255,56.704468 12.278454,57.103933 11.978856,57.423506 C 11.679257,57.743078 11.296435,57.902864 10.830393,57.902864 C 10.464216,57.902864 10.154629,57.802998 9.9016353,57.603266 C 9.6552987,57.403532 9.4688815,57.163853 9.3423837,56.884228 C 8.9828639,57.323639 8.5833984,57.636554 8.1439873,57.822971 C 7.7112334,58.016046 7.1952561,58.112584 6.5960588,58.112584 C 5.6839454,58.112584 4.8517257,57.856260 4.0993990,57.343613 C 3.3537301,56.824307 2.7611898,56.118585 2.3217778,55.226445 C 1.8890234,54.327649 1.6726463,53.345629 1.6726463,52.280388 C 1.6726463,51.228462 1.8890234,50.256430 2.3217778,49.364289 C 2.7611898,48.465493 3.3570592,47.759770 4.1093857,47.247123 C 4.8617124,46.727817 5.6906032,46.468166 6.5960588,46.468166 C 7.2218872,46.468166 7.7312054,46.548059 8.1240136,46.707845 C 8.5234790,46.867631 8.8929848,47.090666 9.2325309,47.376950 L 9.2325309,43.552067 C 9.2325309,43.079366 9.3823294,42.683229 9.6819298,42.363657 C 9.9881858,42.037427 10.371006,41.874312 10.830393,41.874312 C 11.289778,41.874312 11.669269,42.034098 11.968868,42.353671 C 12.275126,42.673243 12.428255,43.072709 12.428255,43.552067 z M 7.0454577,49.564023 C 6.3663655,49.564023 5.8304161,49.823676 5.4376084,50.342980 C 5.0514585,50.862286 4.8583834,51.508088 4.8583834,52.280388 C 4.8583834,52.773061 4.9449343,53.232448 5.1180361,53.658544 C 5.2911378,54.077982 5.5408037,54.410871 5.8670338,54.657207 C 6.1999220,54.903544 6.5927301,55.026713 7.0454577,55.026713 C 7.7312054,55.026713 8.2671547,54.767060 8.6533055,54.247756 C 9.0394546,53.721793 9.2325309,53.066003 9.2325309,52.280388 C 9.2325309,51.501431 9.0394546,50.855627 8.6533055,50.342980 C 8.2671547,49.823676 7.7312054,49.564023 7.0454577,49.564023 z " />
  <metadata
     id="metadata8">
    <rdf:RDF
       id="RDF9">
      <cc:Work
         rdf:about=""
         id="Work10">
        <dc:title
           id="title11">Part of the Flat Icon Collection (Thu Aug 26 14:38:01 2004)</dc:title>
        <dc:description
           id="description13" />
        <dc:subject
           id="subject14">
          <rdf:Bag
             id="Bag15">
            <rdf:li
               id="li16" />
          </rdf:Bag>
        </dc:subject>
        <dc:publisher
           id="publisher17">
          <cc:Agent
             rdf:about=""
             id="Agent18">
            <dc:title
               id="title19" />
          </cc:Agent>
        </dc:publisher>
        <dc:creator
           id="creator20">
          <cc:Agent
             rdf:about=""
             id="Agent21">
            <dc:title
               id="title22">Danny Allen</dc:title>
          </cc:Agent>
        </dc:creator>
        <dc:rights
           id="rights24">
          <cc:Agent
             rdf:about=""
             id="Agent25">
            <dc:title
               id="title26">Danny Allen</dc:title>
          </cc:Agent>
        </dc:rights>
        <dc:date
           id="date28" />
        <dc:format
           id="format29">image/svg+xml</dc:format>
        <dc:type
           rdf:resource="http://purl.org/dc/dcmitype/StillImage"
           id="type31" />
        <cc:license
           rdf:resource="http://creativecommons.org/licenses/LGPL/2.1/"
           id="license32">
          <dc:date
             id="date33" />
        </cc:license>
        <dc:language
           id="language34">en</dc:language>
      </cc:Work>
    </rdf:RDF>
  </metadata>
  <path
     style="font-size:12.000000;fill:#7f7f7f;fill-rule:evenodd;stroke:#333333;stroke-width:3.1249998;stroke-linecap:round;stroke-linejoin:round;"
     d="M 23.119044,26.760590 C 18.772060,29.056544 16.353493,33.639681 14.600977,38.385551 L 45.500940,38.484121 C 43.922345,33.842481 41.771127,29.293152 37.794680,26.807405 C 33.578441,26.610614 28.252577,26.776968 23.119044,26.760590 z "
     id="path948" />
  <path
     style="font-size:12.000000;fill:#cccccc;fill-opacity:1.0000000;fill-rule:evenodd;stroke:#333333;stroke-width:3.1250000;stroke-linecap:round;stroke-linejoin:round;"
     d="M 43.068409,17.306771 C 43.045488,24.492404 37.195067,30.305619 30.009434,30.282697 C 22.823801,30.259776 17.010586,24.409355 17.033508,17.223722 C 17.056429,10.038089 22.906850,4.2248739 30.092483,4.2477954 C 37.278116,4.2707170 43.091331,10.121138 43.068409,17.306771 z "
     id="path949" />
</svg>
