<?xml version="1.0" encoding="UTF-8" standalone="no"?>
<!DOCTYPE svg PUBLIC "-//W3C//DTD SVG 20010904//EN"
"http://www.w3.org/TR/2001/REC-SVG-20010904/DTD/svg10.dtd">
<svg
   sodipodi:docname="delete_group.svg"
   height="60.0000000"
   sodipodi:version="0.32"
   width="60.0000000"
   _SVGFile__filename="scalable/actions/delete_group.svg"
   version="1.0"
   y="0"
   x="0"
   inkscape:version="0.39"
   id="svg1"
   sodipodi:docbase="/home/danny/work/flat/newscale/actions"
   xmlns="http://www.w3.org/2000/svg"
   xmlns:cc="http://web.resource.org/cc/"
   xmlns:inkscape="http://www.inkscape.org/namespaces/inkscape"
   xmlns:sodipodi="http://sodipodi.sourceforge.net/DTD/sodipodi-0.dtd"
   xmlns:rdf="http://www.w3.org/1999/02/22-rdf-syntax-ns#"
   xmlns:dc="http://purl.org/dc/elements/1.1/"
   xmlns:xlink="http://www.w3.org/1999/xlink">
  <sodipodi:namedview
     bordercolor="#666666"
     inkscape:pageshadow="2"
     inkscape:window-y="0"
     pagecolor="#ffffff"
     inkscape:window-height="699"
     inkscape:zoom="6.9465339"
     inkscape:window-x="0"
     borderopacity="1.0"
     inkscape:cx="32.978955"
     inkscape:cy="27.716973"
     inkscape:window-width="1024"
     inkscape:pageopacity="0.0"
     id="base" />
  <defs
     id="defs3" />
  <metadata
     id="metadata17">
    <rdf:RDF
       id="RDF18">
      <cc:Work
         rdf:about=""
         id="Work19">
        <dc:title
           id="title20">Part of the Flat Icon Collection (Thu Aug 26 14:38:01 2004)</dc:title>
        <dc:description
           id="description22" />
        <dc:subject
           id="subject23">
          <rdf:Bag
             id="Bag24">
            <rdf:li
               id="li25" />
          </rdf:Bag>
        </dc:subject>
        <dc:publisher
           id="publisher26">
          <cc:Agent
             rdf:about=""
             id="Agent27">
            <dc:title
               id="title28" />
          </cc:Agent>
        </dc:publisher>
        <dc:creator
           id="creator29">
          <cc:Agent
             rdf:about=""
             id="Agent30">
            <dc:title
               id="title31">Danny Allen</dc:title>
          </cc:Agent>
        </dc:creator>
        <dc:rights
           id="rights33">
          <cc:Agent
             rdf:about=""
             id="Agent34">
            <dc:title
               id="title35">Danny Allen</dc:title>
          </cc:Agent>
        </dc:rights>
        <dc:date
           id="date37" />
        <dc:format
           id="format38">image/svg+xml</dc:format>
        <dc:type
           rdf:resource="http://purl.org/dc/dcmitype/StillImage"
           id="type40" />
        <cc:license
           rdf:resource="http://creativecommons.org/licenses/LGPL/2.1/"
           id="license41">
          <dc:date
             id="date42" />
        </cc:license>
        <dc:language
           id="language43">en</dc:language>
      </cc:Work>
    </rdf:RDF>
  </metadata>
  <path
     transform="matrix(0.724879,2.312303e-3,-2.312303e-3,0.724879,15.85992,-3.604995)"
     style="font-size:12.000000;fill:#cccccc;fill-opacity:1.0000000;fill-rule:evenodd;stroke:#4c4c4c;stroke-width:3.4488339;stroke-linecap:round;stroke-linejoin:round;stroke-miterlimit:4.0000000;stroke-opacity:1.0000000;"
     d="M 31.850417,22.301342 C 31.850417,29.105455 26.328239,34.627633 19.524126,34.627633 C 12.720013,34.627633 7.1978350,29.105455 7.1978350,22.301342 C 7.1978350,15.497229 12.720013,9.9750509 19.524126,9.9750509 C 26.328239,9.9750509 31.850417,15.497229 31.850417,22.301342 z "
     id="path960" />
  <path
     style="font-size:12.000000;fill:#7f7f7f;fill-rule:evenodd;stroke:#4c4c4c;stroke-width:2.5000000;stroke-linecap:round;stroke-linejoin:round;stroke-miterlimit:4.0000000;stroke-opacity:1.0000000;"
     d="M 38.249193,24.249940 C 35.265459,25.825864 33.605375,28.971691 32.402463,32.229217 L 53.611940,32.296874 C 52.528406,29.110891 51.051827,25.988269 48.322427,24.282073 C 45.428436,24.146997 41.772807,24.261182 38.249193,24.249940 z "
     id="path961"
     transform="translate(-0.120103,0.294035)" />
  <path
     transform="matrix(0.724879,2.312303e-3,-2.312303e-3,0.724879,28.78603,1.815528)"
     style="font-size:12.000000;fill:#cccccc;fill-opacity:1.0000000;fill-rule:evenodd;stroke:#4c4c4c;stroke-width:3.4488339;stroke-linecap:round;stroke-linejoin:round;stroke-miterlimit:4.0000000;stroke-opacity:1.0000000;"
     d="M 31.850417,22.301342 C 31.850417,29.105455 26.328239,34.627633 19.524126,34.627633 C 12.720013,34.627633 7.1978350,29.105455 7.1978350,22.301342 C 7.1978350,15.497229 12.720013,9.9750509 19.524126,9.9750509 C 26.328239,9.9750509 31.850417,15.497229 31.850417,22.301342 z "
     id="path962" />
  <path
     style="font-size:12.000000;fill:#7f7f7f;fill-rule:evenodd;stroke:#4c4c4c;stroke-width:2.5000000;stroke-linecap:round;stroke-linejoin:round;stroke-miterlimit:4.0000000;stroke-opacity:1.0000000;"
     d="M 12.396966,24.249940 C 9.4132324,25.825864 7.7531479,28.971691 6.5502358,32.229217 L 27.759713,32.296874 C 26.676179,29.110891 25.199600,25.988269 22.470200,24.282073 C 19.576209,24.146997 15.920580,24.261182 12.396966,24.249940 z "
     id="path963"
     transform="translate(-0.120103,0.294035)" />
  <path
     transform="matrix(0.724879,2.312303e-3,-2.312303e-3,0.724879,2.933810,1.815528)"
     style="font-size:12.000000;fill:#cccccc;fill-opacity:1.0000000;fill-rule:evenodd;stroke:#4c4c4c;stroke-width:3.4488339;stroke-linecap:round;stroke-linejoin:round;stroke-miterlimit:4.0000000;stroke-opacity:1.0000000;"
     d="M 31.850417,22.301342 C 31.850417,29.105455 26.328239,34.627633 19.524126,34.627633 C 12.720013,34.627633 7.1978350,29.105455 7.1978350,22.301342 C 7.1978350,15.497229 12.720013,9.9750509 19.524126,9.9750509 C 26.328239,9.9750509 31.850417,15.497229 31.850417,22.301342 z "
     id="path964" />
  <path
     style="font-size:12.000000;fill:#7f7f7f;fill-rule:evenodd;stroke:#333333;stroke-width:2.5000000;stroke-linecap:round;stroke-linejoin:round;stroke-miterlimit:4.0000000;"
     d="M 25.948283,30.712308 C 22.964549,32.288232 21.304465,35.434059 20.101553,38.691585 L 41.311030,38.759242 C 40.227496,35.573259 38.750917,32.450637 36.021517,30.744441 C 33.127526,30.609365 29.471897,30.723550 25.948283,30.712308 z "
     id="path965"
     transform="translate(-0.745307,0.294035)" />
  <path
     transform="matrix(0.724879,2.312303e-3,-2.312303e-3,0.724879,15.85992,8.277896)"
     style="font-size:12.000000;fill:#cccccc;fill-opacity:1.0000000;fill-rule:evenodd;stroke:#333333;stroke-width:3.4488339;stroke-linecap:round;stroke-linejoin:round;stroke-miterlimit:4.0000000;"
     d="M 31.850417,22.301342 C 31.850417,29.105455 26.328239,34.627633 19.524126,34.627633 C 12.720013,34.627633 7.1978350,29.105455 7.1978350,22.301342 C 7.1978350,15.497229 12.720013,9.9750509 19.524126,9.9750509 C 26.328239,9.9750509 31.850417,15.497229 31.850417,22.301342 z "
     id="path966" />
  <path
     id="path842"
     style="font-size:12.000000;font-weight:900;fill:#333333;stroke-width:1.0000000pt;font-family:VAG Rounded Black SSi;"
     d="M 56.705198,53.433433 L 50.942908,53.433433 C 50.942908,53.866187 51.142641,54.275640 51.542107,54.661789 C 51.941572,55.041281 52.594032,55.231027 53.499487,55.231027 C 53.965531,55.231027 54.351680,55.171108 54.657938,55.051269 C 54.964194,54.931428 55.340358,54.761656 55.786427,54.541951 C 56.239154,54.315586 56.565386,54.202404 56.765118,54.202404 C 57.137952,54.202404 57.454196,54.332231 57.713849,54.591882 C 57.973500,54.851535 58.103327,55.187753 58.103327,55.600533 C 58.103327,56.093208 57.856990,56.542607 57.364317,56.948729 C 56.878299,57.348195 56.249142,57.654451 55.476842,57.867499 C 54.704542,58.087206 53.908940,58.197059 53.090035,58.197059 C 52.244500,58.197059 51.478859,58.050588 50.793109,57.757646 C 50.114017,57.464705 49.524806,57.051925 49.025474,56.519304 C 48.532800,55.980026 48.156637,55.354196 47.896984,54.641816 C 47.637331,53.922778 47.507505,53.163794 47.507505,52.364863 C 47.507505,51.612537 47.643990,50.880183 47.916958,50.167802 C 48.189926,49.455424 48.576076,48.829594 49.075407,48.290316 C 49.574739,47.751038 50.170608,47.328270 50.863015,47.022012 C 51.555422,46.709097 52.297762,46.552641 53.090035,46.552641 C 54.108672,46.552641 55.010798,46.808964 55.796415,47.321611 C 56.582029,47.834259 57.187886,48.506692 57.613982,49.338912 C 58.046736,50.171131 58.263113,51.063271 58.263113,52.015331 C 58.263113,52.561267 58.139945,52.934101 57.893607,53.133835 C 57.647270,53.333566 57.251134,53.433433 56.705198,53.433433 z M 50.942908,51.216400 L 55.067389,51.216400 C 55.067389,50.963405 54.977510,50.683780 54.797750,50.377522 C 54.617990,50.064607 54.371654,49.804956 54.058738,49.598565 C 53.752482,49.385516 53.402950,49.278992 53.010142,49.278992 C 52.617334,49.278992 52.261145,49.385516 51.941572,49.598565 C 51.628657,49.811613 51.382321,50.071266 51.202561,50.377522 C 51.029460,50.677121 50.942908,50.956747 50.942908,51.216400 z M 41.944950,56.309585 L 41.944950,49.848230 L 41.575444,49.848230 C 41.049481,49.848230 40.640029,49.725063 40.347088,49.478724 C 40.047487,49.232388 39.897689,48.859553 39.897689,48.360221 C 39.897689,47.854231 40.047487,47.481397 40.347088,47.241718 C 40.640029,47.002038 41.049481,46.882200 41.575444,46.882200 L 41.944950,46.882200 L 41.944950,44.775019 C 41.944950,44.295661 42.091419,43.896195 42.384361,43.576623 C 42.677302,43.257051 43.060123,43.097264 43.532824,43.097264 C 44.012182,43.097264 44.398333,43.257051 44.691275,43.576623 C 44.984216,43.896195 45.130686,44.295661 45.130686,44.775019 L 45.130686,46.882200 L 46.009510,46.882200 C 46.548788,46.882200 46.961570,47.002038 47.247854,47.241718 C 47.540795,47.481397 47.687265,47.854231 47.687265,48.360221 C 47.687265,48.859553 47.540795,49.232388 47.247854,49.478724 C 46.961570,49.725063 46.548788,49.848230 46.009510,49.848230 L 45.130686,49.848230 L 45.130686,56.309585 C 45.130686,56.782286 44.980887,57.181751 44.681287,57.507981 C 44.388345,57.827553 44.005525,57.987340 43.532824,57.987340 C 43.066782,57.987340 42.683959,57.827553 42.384361,57.507981 C 42.091419,57.181751 41.944950,56.782286 41.944950,56.309585 z M 38.519533,53.433433 L 32.757244,53.433433 C 32.757244,53.866187 32.956976,54.275640 33.356441,54.661789 C 33.755907,55.041281 34.408368,55.231027 35.313823,55.231027 C 35.779865,55.231027 36.166016,55.171108 36.472272,55.051269 C 36.778530,54.931428 37.154693,54.761656 37.600761,54.541951 C 38.053489,54.315586 38.379720,54.202404 38.579452,54.202404 C 38.952286,54.202404 39.268530,54.332231 39.528183,54.591882 C 39.787836,54.851535 39.917661,55.187753 39.917661,55.600533 C 39.917661,56.093208 39.671324,56.542607 39.178651,56.948729 C 38.692633,57.348195 38.063476,57.654451 37.291176,57.867499 C 36.518877,58.087206 35.723274,58.197059 34.904370,58.197059 C 34.058834,58.197059 33.293193,58.050588 32.607444,57.757646 C 31.928352,57.464705 31.339140,57.051925 30.839810,56.519304 C 30.347135,55.980026 29.970972,55.354196 29.711319,54.641816 C 29.451666,53.922778 29.321841,53.163794 29.321841,52.364863 C 29.321841,51.612537 29.458325,50.880183 29.731292,50.167802 C 30.004260,49.455424 30.390411,48.829594 30.889741,48.290316 C 31.389074,47.751038 31.984944,47.328270 32.677351,47.022012 C 33.369758,46.709097 34.112096,46.552641 34.904370,46.552641 C 35.923006,46.552641 36.825133,46.808964 37.610749,47.321611 C 38.396363,47.834259 39.002220,48.506692 39.428316,49.338912 C 39.861070,50.171131 40.077447,51.063271 40.077447,52.015331 C 40.077447,52.561267 39.954280,52.934101 39.707943,53.133835 C 39.461605,53.333566 39.065468,53.433433 38.519533,53.433433 z M 32.757244,51.216400 L 36.881723,51.216400 C 36.881723,50.963405 36.791844,50.683780 36.612084,50.377522 C 36.432326,50.064607 36.185988,49.804956 35.873075,49.598565 C 35.566817,49.385516 35.217285,49.278992 34.824477,49.278992 C 34.431668,49.278992 34.075479,49.385516 33.755907,49.598565 C 33.442992,49.811613 33.196655,50.071266 33.016895,50.377522 C 32.843794,50.677121 32.757244,50.956747 32.757244,51.216400 z M 25.147426,56.309585 L 25.147426,43.636542 C 25.147426,43.157184 25.297225,42.757718 25.596825,42.438146 C 25.896424,42.118574 26.275916,41.958787 26.735300,41.958787 C 27.201344,41.958787 27.584165,42.118574 27.883765,42.438146 C 28.183364,42.757718 28.333162,43.157184 28.333162,43.636542 L 28.333162,56.309585 C 28.333162,56.782286 28.183364,57.181751 27.883765,57.507981 C 27.590824,57.827553 27.208002,57.987340 26.735300,57.987340 C 26.269258,57.987340 25.886438,57.827553 25.586837,57.507981 C 25.293896,57.181751 25.147426,56.782286 25.147426,56.309585 z M 22.600833,53.433433 L 16.838544,53.433433 C 16.838544,53.866187 17.038276,54.275640 17.437742,54.661789 C 17.837207,55.041281 18.489668,55.231027 19.395123,55.231027 C 19.861166,55.231027 20.247316,55.171108 20.553573,55.051269 C 20.859830,54.931428 21.235993,54.761656 21.682064,54.541951 C 22.134791,54.315586 22.461021,54.202404 22.660753,54.202404 C 23.033587,54.202404 23.349831,54.332231 23.609484,54.591882 C 23.869137,54.851535 23.998963,55.187753 23.998963,55.600533 C 23.998963,56.093208 23.752625,56.542607 23.259952,56.948729 C 22.773936,57.348195 22.144777,57.654451 21.372477,57.867499 C 20.600177,58.087206 19.804575,58.197059 18.985670,58.197059 C 18.140136,58.197059 17.374494,58.050588 16.688744,57.757646 C 16.009654,57.464705 15.420443,57.051925 14.921110,56.519304 C 14.428435,55.980026 14.052272,55.354196 13.792619,54.641816 C 13.532968,53.922778 13.403141,53.163794 13.403141,52.364863 C 13.403141,51.612537 13.539625,50.880183 13.812593,50.167802 C 14.085561,49.455424 14.471711,48.829594 14.971044,48.290316 C 15.470374,47.751038 16.066245,47.328270 16.758651,47.022012 C 17.451058,46.709097 18.193398,46.552641 18.985670,46.552641 C 20.004309,46.552641 20.906435,46.808964 21.692050,47.321611 C 22.477666,47.834259 23.083520,48.506692 23.509617,49.338912 C 23.942373,50.171131 24.158749,51.063271 24.158749,52.015331 C 24.158749,52.561267 24.035580,52.934101 23.789244,53.133835 C 23.542907,53.333566 23.146770,53.433433 22.600833,53.433433 z M 16.838544,51.216400 L 20.963026,51.216400 C 20.963026,50.963405 20.873145,50.683780 20.693387,50.377522 C 20.513627,50.064607 20.267290,49.804956 19.954375,49.598565 C 19.648117,49.385516 19.298585,49.278992 18.905777,49.278992 C 18.512971,49.278992 18.156780,49.385516 17.837207,49.598565 C 17.524294,49.811613 17.277956,50.071266 17.098197,50.377522 C 16.925095,50.677121 16.838544,50.956747 16.838544,51.216400 z M 12.414465,43.636542 L 12.414465,56.309585 C 12.414465,56.788943 12.264664,57.188409 11.965066,57.507981 C 11.665467,57.827553 11.282645,57.987340 10.816603,57.987340 C 10.450426,57.987340 10.140839,57.887473 9.8878450,57.687741 C 9.6415090,57.488007 9.4550920,57.248328 9.3285940,56.968703 C 8.9690740,57.408114 8.5696080,57.721029 8.1301970,57.907446 C 7.6974430,58.100521 7.1814660,58.197059 6.5822690,58.197059 C 5.6701550,58.197059 4.8379360,57.940735 4.0856090,57.428088 C 3.3399400,56.908782 2.7474000,56.203060 2.3079880,55.310920 C 1.8752330,54.412124 1.6588560,53.430105 1.6588560,52.364863 C 1.6588560,51.312937 1.8752330,50.340905 2.3079880,49.448765 C 2.7474000,48.549969 3.3432690,47.844245 4.0955960,47.331598 C 4.8479220,46.812292 5.6768130,46.552641 6.5822690,46.552641 C 7.2080970,46.552641 7.7174150,46.632534 8.1102240,46.792320 C 8.5096890,46.952107 8.8791950,47.175141 9.2187410,47.461425 L 9.2187410,43.636542 C 9.2187410,43.163841 9.3685390,42.767704 9.6681400,42.448132 C 9.9743960,42.121902 10.357216,41.958787 10.816603,41.958787 C 11.275988,41.958787 11.655479,42.118574 11.955078,42.438146 C 12.261336,42.757718 12.414465,43.157184 12.414465,43.636542 z M 7.0316680,49.648498 C 6.3525760,49.648498 5.8166260,49.908151 5.4238180,50.427455 C 5.0376680,50.946761 4.8445930,51.592563 4.8445930,52.364863 C 4.8445930,52.857537 4.9311440,53.316923 5.1042460,53.743020 C 5.2773480,54.162457 5.5270140,54.495346 5.8532440,54.741682 C 6.1861320,54.988019 6.5789400,55.111188 7.0316680,55.111188 C 7.7174150,55.111188 8.2533650,54.851535 8.6395160,54.332231 C 9.0256650,53.806268 9.2187410,53.150478 9.2187410,52.364863 C 9.2187410,51.585906 9.0256650,50.940102 8.6395160,50.427455 C 8.2533650,49.908151 7.7174150,49.648498 7.0316680,49.648498 z " />
</svg>
