<?xml version="1.0" encoding="UTF-8" standalone="no"?>
<!DOCTYPE svg PUBLIC "-//W3C//DTD SVG 20010904//EN"
"http://www.w3.org/TR/2001/REC-SVG-20010904/DTD/svg10.dtd">
<svg
   sodipodi:docname="dirsynch_new.svg"
   height="60.0000000"
   sodipodi:version="0.32"
   width="60.0000000"
   _SVGFile__filename="scalable/actions/dirsynch_new.svg"
   version="1.0"
   y="0"
   x="0"
   inkscape:version="0.39"
   id="svg1"
   sodipodi:docbase="/home/danny/work/flat/newscale/actions"
   xmlns="http://www.w3.org/2000/svg"
   xmlns:cc="http://web.resource.org/cc/"
   xmlns:inkscape="http://www.inkscape.org/namespaces/inkscape"
   xmlns:sodipodi="http://sodipodi.sourceforge.net/DTD/sodipodi-0.dtd"
   xmlns:rdf="http://www.w3.org/1999/02/22-rdf-syntax-ns#"
   xmlns:dc="http://purl.org/dc/elements/1.1/"
   xmlns:xlink="http://www.w3.org/1999/xlink">
  <sodipodi:namedview
     bordercolor="#666666"
     inkscape:pageshadow="2"
     inkscape:window-y="0"
     snaptoguides="true"
     pagecolor="#ffffff"
     inkscape:window-height="685"
     inkscape:zoom="6.9465337"
     inkscape:window-x="0"
     borderopacity="1.0"
     inkscape:cx="33.984503"
     inkscape:cy="18.129014"
     inkscape:window-width="1016"
     inkscape:pageopacity="0.0"
     id="base"
     showguides="true" />
  <defs
     id="defs3" />
  <path
     id="path831"
     style="font-size:12.000000;font-weight:900;stroke-width:1.0000000pt;font-family:VAG Rounded Black SSi;fill:#333333;fill-opacity:1.0000000;"
     transform="scale(4.304488,4.304488)"
     d="M 9.4214916,9.4635048 L 9.4214916,7.6763954 C 9.4214916,7.4263954 9.4898510,7.2232704 9.6265697,7.0670204 C 9.7632885,6.9068642 9.9586010,6.8267860 10.212507,6.8267860 C 10.466413,6.8267860 10.661726,6.9068642 10.798445,7.0670204 C 10.939070,7.2232704 11.009382,7.4263954 11.009382,7.6763954 L 11.009382,9.4635048 L 12.773054,9.4635048 C 13.030867,9.4635048 13.233992,9.5338173 13.382429,9.6744423 C 13.534773,9.8111610 13.610945,10.004520 13.610945,10.254520 C 13.610945,10.508427 13.534773,10.705692 13.382429,10.846317 C 13.233992,10.986942 13.030867,11.057255 12.773054,11.057255 L 11.009382,11.057255 L 11.009382,12.838505 C 11.009382,13.092411 10.939070,13.297489 10.798445,13.453739 C 10.657820,13.609989 10.462507,13.688114 10.212507,13.688114 C 9.9625072,13.688114 9.7671947,13.609989 9.6265697,13.453739 C 9.4898510,13.297489 9.4214916,13.092411 9.4214916,12.838505 L 9.4214916,11.057255 L 7.6578197,11.057255 C 7.4078197,11.057255 7.2046947,10.981083 7.0484447,10.828739 C 6.8961010,10.672489 6.8199291,10.481083 6.8199291,10.254520 C 6.8199291,10.004520 6.8941479,9.8111610 7.0425854,9.6744423 C 7.1949291,9.5338173 7.4000072,9.4635048 7.6578197,9.4635048 L 9.4214916,9.4635048 z " />
  <metadata
     id="metadata7">
    <rdf:RDF
       id="RDF8">
      <cc:Work
         rdf:about=""
         id="Work9">
        <dc:title
           id="title10">Part of the Flat Icon Collection (Thu Aug 26 14:38:01 2004)</dc:title>
        <dc:description
           id="description12" />
        <dc:subject
           id="subject13">
          <rdf:Bag
             id="Bag14">
            <rdf:li
               id="li15" />
          </rdf:Bag>
        </dc:subject>
        <dc:publisher
           id="publisher16">
          <cc:Agent
             rdf:about=""
             id="Agent17">
            <dc:title
               id="title18" />
          </cc:Agent>
        </dc:publisher>
        <dc:creator
           id="creator19">
          <cc:Agent
             rdf:about=""
             id="Agent20">
            <dc:title
               id="title21">Danny Allen</dc:title>
          </cc:Agent>
        </dc:creator>
        <dc:rights
           id="rights23">
          <cc:Agent
             rdf:about=""
             id="Agent24">
            <dc:title
               id="title25">Danny Allen</dc:title>
          </cc:Agent>
        </dc:rights>
        <dc:date
           id="date27" />
        <dc:format
           id="format28">image/svg+xml</dc:format>
        <dc:type
           rdf:resource="http://purl.org/dc/dcmitype/StillImage"
           id="type30" />
        <cc:license
           rdf:resource="http://creativecommons.org/licenses/LGPL/2.1/"
           id="license31">
          <dc:date
             id="date32" />
        </cc:license>
        <dc:language
           id="language33">en</dc:language>
      </cc:Work>
    </rdf:RDF>
  </metadata>
  <g
     id="g1591"
     transform="translate(-7.105480,-2.385648)"
     style="fill:#b3b3b3;fill-opacity:1.0000000;stroke:#4c4c4c;stroke-opacity:1.0000000;"
     sodipodi:stroke-cmyk="(0.0000000 0.0000000 0.0000000 0.69999999)">
    <path
       sodipodi:nodetypes="cccc"
       style="font-size:12.000000;fill-rule:evenodd;stroke:#4c4c4c;stroke-width:5.0010405;stroke-linecap:round;stroke-linejoin:round;stroke-miterlimit:4.0000000;"
       d="M 25.540486,54.307382 L 10.864876,37.798896 L 25.661771,21.809462 L 25.540486,54.307382 z "
       id="path878" />
    <path
       sodipodi:nodetypes="cccc"
       style="font-size:12.000000;fill-rule:evenodd;stroke:#4c4c4c;stroke-width:5.0010405;stroke-linecap:round;stroke-linejoin:round;stroke-miterlimit:4.0000000;"
       d="M 36.176184,39.081058 L 50.851794,22.572572 L 36.054899,6.5831380 L 36.176184,39.081058 z "
       id="path1590" />
  </g>
</svg>
