<?xml version="1.0" encoding="UTF-8" standalone="no"?>
<!DOCTYPE svg PUBLIC "-//W3C//DTD SVG 20010904//EN"
"http://www.w3.org/TR/2001/REC-SVG-20010904/DTD/svg10.dtd">
<svg
   sodipodi:docname="editquestion.svg"
   height="60.0000000"
   sodipodi:version="0.32"
   width="60.0000000"
   _SVGFile__filename="scalable/actions/editquestion.svg"
   version="1.0"
   y="0"
   x="0"
   inkscape:version="0.39"
   id="svg1"
   sodipodi:docbase="/home/danny/work/flat/newscale/actions"
   xmlns="http://www.w3.org/2000/svg"
   xmlns:cc="http://web.resource.org/cc/"
   xmlns:inkscape="http://www.inkscape.org/namespaces/inkscape"
   xmlns:sodipodi="http://sodipodi.sourceforge.net/DTD/sodipodi-0.dtd"
   xmlns:rdf="http://www.w3.org/1999/02/22-rdf-syntax-ns#"
   xmlns:dc="http://purl.org/dc/elements/1.1/"
   xmlns:xlink="http://www.w3.org/1999/xlink">
  <sodipodi:namedview
     bordercolor="#666666"
     inkscape:pageshadow="2"
     inkscape:window-y="0"
     pagecolor="#ffffff"
     inkscape:window-height="685"
     inkscape:zoom="4.9119410"
     inkscape:window-x="0"
     borderopacity="1.0"
     inkscape:cx="46.481703"
     inkscape:cy="22.309357"
     inkscape:window-width="1016"
     inkscape:pageopacity="0.0"
     id="base" />
  <defs
     id="defs3">
    <linearGradient
       id="linearGradient772">
      <stop
         style="stop-color:#000;stop-opacity:1;"
         id="stop773"
         offset="0" />
      <stop
         style="stop-color:#fff;stop-opacity:1;"
         id="stop774"
         offset="1" />
    </linearGradient>
    <linearGradient
       xlink:href="#linearGradient772"
       id="linearGradient775" />
  </defs>
  <path
     style="font-size:12.000000;font-weight:900;stroke-width:1.0000000pt;font-family:VAG Rounded Black SSi;fill:#4c4c4c;fill-opacity:1.0000000;"
     d="M 28.181539,25.211571 C 28.181539,24.712584 28.306286,24.249982 28.555779,23.823762 C 28.815667,23.387150 29.158720,23.038900 29.584937,22.779009 C 30.011157,22.519121 30.473759,22.389177 30.972746,22.389177 C 31.461338,22.389177 31.918742,22.519121 32.344959,22.779009 C 32.771176,23.038900 33.109032,23.387150 33.358525,23.823762 C 33.618413,24.249982 33.748360,24.712584 33.748360,25.211571 C 33.748360,25.720952 33.618413,26.193949 33.358525,26.630564 C 33.109032,27.056781 32.765979,27.394636 32.329364,27.644130 C 31.903147,27.893623 31.450940,28.018370 30.972746,28.018370 C 30.484154,28.018370 30.021552,27.893623 29.584937,27.644130 C 29.158720,27.394636 28.815667,27.056781 28.555779,26.630564 C 28.306286,26.193949 28.181539,25.720952 28.181539,25.211571 z M 21.757083,27.815656 L 20.384870,26.614972 C 18.763163,27.550570 16.860775,28.018370 14.677710,28.018370 C 13.014420,28.018370 11.491469,27.737692 10.108861,27.176330 C 8.7262528,26.614972 7.5411578,25.809314 6.5535818,24.759364 C 5.5763978,23.709413 4.8227208,22.441154 4.2925458,20.954588 C 3.7623718,19.457628 3.4972868,17.809934 3.4972868,16.011503 C 3.4972868,14.213070 3.7623718,12.570573 4.2925458,11.084008 C 4.8331148,9.5870485 5.5919898,8.3187915 6.5691738,7.2792345 C 7.5463548,6.2396785 8.7262528,5.4392215 10.108861,4.8778611 C 11.491469,4.3165010 13.014420,4.0358208 14.677710,4.0358208 C 16.340999,4.0358208 17.863949,4.3165010 19.246557,4.8778611 C 20.639561,5.4392215 21.819458,6.2396785 22.786244,7.2792345 C 23.763425,8.3187915 24.517105,9.5870485 25.047277,11.084008 C 25.587846,12.570573 25.858132,14.213070 25.858132,16.011503 C 25.858132,18.963842 25.177221,21.443180 23.815405,23.449522 L 25.047277,24.541058 C 25.702198,25.081627 26.144010,25.539031 26.372711,25.913271 C 26.601414,26.277114 26.715763,26.666949 26.715763,27.082771 C 26.715763,27.716899 26.507852,28.247073 26.092030,28.673291 C 25.676208,29.109905 25.172023,29.328211 24.579477,29.328211 C 24.278007,29.328211 23.997326,29.286629 23.737438,29.203465 C 23.487945,29.120300 23.217659,28.974761 22.926583,28.766850 C 22.635508,28.558939 22.245675,28.241876 21.757083,27.815656 z M 14.677710,8.8541605 C 13.419848,8.8541605 12.364696,9.1868185 11.512262,9.8521345 C 10.659825,10.517449 10.036091,11.401074 9.6410615,12.503001 C 9.2460288,13.594534 9.0485148,14.764037 9.0485148,16.011503 C 9.0485148,17.269365 9.2460288,18.449260 9.6410615,19.551190 C 10.036091,20.653118 10.659825,21.536740 11.512262,22.202055 C 12.364696,22.867371 13.419848,23.200029 14.677710,23.200029 C 15.259861,23.200029 15.779637,23.122064 16.237042,22.966130 L 16.174670,22.934943 C 15.509354,22.342397 15.067542,21.869397 14.849236,21.515950 C 14.630930,21.162500 14.521776,20.783062 14.521776,20.377637 C 14.521776,19.733112 14.724489,19.202937 15.129917,18.787115 C 15.545739,18.360898 16.055121,18.147789 16.658064,18.147789 C 17.105071,18.147789 17.515696,18.246546 17.889936,18.444062 C 18.274571,18.641579 18.799548,19.041806 19.464863,19.644750 L 19.620797,19.769496 C 20.067807,18.646776 20.291310,17.394112 20.291310,16.011503 C 20.291310,14.722454 20.093794,13.537359 19.698764,12.456222 C 19.303732,11.375084 18.679998,10.507054 17.827564,9.8521345 C 16.985522,9.1868185 15.935571,8.8541605 14.677710,8.8541605 z "
     id="path860" />
  <g
     id="g886"
     transform="translate(0.000000,13.23306)">
    <path
       style="font-size:12.000000;fill: #4c4c4c;fill-rule:evenodd;stroke:#333333;stroke-width:3.1647372;stroke-linecap:round;stroke-linejoin:round;stroke-dasharray:none;"
       d="M 48.097401,30.862805 C 35.200512,40.246282 35.200512,40.246282 35.200512,40.246282 L 43.147167,26.428593 L 48.097401,30.862805 z "
       fill-opacity="1.0"
       sodipodi:nodetypes="cccc"
       transform="matrix(0.789955,0.000000,0.000000,0.789955,-7.510137,11.84079)"
       sodipodi:stroke-cmyk="(0 0 0 0.8)"
       id="path599" />
    <rect
       style="font-size:12.000000;fill:#b3b3b3;fill-rule:evenodd;stroke:#333333;stroke-width:3.1647353;stroke-linecap:round;stroke-linejoin:round;stroke-dasharray:none;"
       sodipodi:fill-cmyk="(0 0 0 0.3)"
       transform="matrix(-0.585893,-0.529867,0.529867,-0.585893,-7.510137,11.84079)"
       height="47.133200"
       width="6.5462773"
       sodipodi:stroke-cmyk="(0 0 0 0.8)"
       y="9.3872363"
       x="-56.329278"
       id="rect598" />
    <path
       transform="matrix(-0.793285,-0.717427,0.717427,-0.793285,58.05658,99.66090)"
       style="font-size:12.000000;fill:#333333;fill-rule:evenodd;stroke:#333333;stroke-width:2.3373649;stroke-linejoin:round;"
       d="M 61.966338,18.726221 C 61.966338,19.068626 61.688444,19.346521 61.346039,19.346521 C 61.003633,19.346521 60.725739,19.068626 60.725739,18.726221 C 60.725739,18.383816 61.003633,18.105922 61.346039,18.105922 C 61.688444,18.105922 61.966338,18.383816 61.966338,18.726221 z "
       id="path600" />
    <path
       transform="matrix(-0.585893,-0.529867,0.529867,-0.585893,-7.510137,11.84079)"
       style="font-size:12.000000;fill:#cccccc;fill-rule:evenodd;stroke:#333333;stroke-width:3.1647353;stroke-linejoin:round;"
       d="M -54.664130,56.373623 C -55.804216,56.373623 -56.722046,57.278711 -56.722046,58.402969 C -56.722046,59.527227 -55.804216,60.432315 -54.664130,60.432315 L -51.317205,60.432315 C -50.177120,60.432315 -49.259289,59.527227 -49.259289,58.402969 C -49.259289,57.278711 -50.177120,56.373623 -51.317205,56.373623 L -54.664130,56.373623 z "
       id="rect601" />
  </g>
  <metadata
     id="metadata14">
    <rdf:RDF
       id="RDF15">
      <cc:Work
         rdf:about=""
         id="Work16">
        <dc:title
           id="title17">Part of the Flat Icon Collection (Thu Aug 26 14:38:01 2004)</dc:title>
        <dc:description
           id="description19" />
        <dc:subject
           id="subject20">
          <rdf:Bag
             id="Bag21">
            <rdf:li
               id="li22" />
          </rdf:Bag>
        </dc:subject>
        <dc:publisher
           id="publisher23">
          <cc:Agent
             rdf:about=""
             id="Agent24">
            <dc:title
               id="title25" />
          </cc:Agent>
        </dc:publisher>
        <dc:creator
           id="creator26">
          <cc:Agent
             rdf:about=""
             id="Agent27">
            <dc:title
               id="title28">Danny Allen</dc:title>
          </cc:Agent>
        </dc:creator>
        <dc:rights
           id="rights30">
          <cc:Agent
             rdf:about=""
             id="Agent31">
            <dc:title
               id="title32">Danny Allen</dc:title>
          </cc:Agent>
        </dc:rights>
        <dc:date
           id="date34" />
        <dc:format
           id="format35">image/svg+xml</dc:format>
        <dc:type
           rdf:resource="http://purl.org/dc/dcmitype/StillImage"
           id="type37" />
        <cc:license
           rdf:resource="http://creativecommons.org/licenses/LGPL/2.1/"
           id="license38">
          <dc:date
             id="date39" />
        </cc:license>
        <dc:language
           id="language40">en</dc:language>
      </cc:Work>
    </rdf:RDF>
  </metadata>
</svg>
