<?xml version="1.0" encoding="UTF-8" standalone="no"?>
<!DOCTYPE svg PUBLIC "-//W3C//DTD SVG 20010904//EN"
"http://www.w3.org/TR/2001/REC-SVG-20010904/DTD/svg10.dtd">
<svg
   sodipodi:docname="edit_user.svg"
   height="60.0000000"
   sodipodi:version="0.32"
   width="60.0000000"
   _SVGFile__filename="scalable/actions/edit_user.svg"
   version="1.0"
   y="0"
   x="0"
   inkscape:version="0.39"
   id="svg1"
   sodipodi:docbase="/home/danny/work/flat/newscale/actions"
   xmlns="http://www.w3.org/2000/svg"
   xmlns:cc="http://web.resource.org/cc/"
   xmlns:inkscape="http://www.inkscape.org/namespaces/inkscape"
   xmlns:sodipodi="http://sodipodi.sourceforge.net/DTD/sodipodi-0.dtd"
   xmlns:rdf="http://www.w3.org/1999/02/22-rdf-syntax-ns#"
   xmlns:dc="http://purl.org/dc/elements/1.1/"
   xmlns:xlink="http://www.w3.org/1999/xlink">
  <sodipodi:namedview
     bordercolor="#666666"
     inkscape:pageshadow="2"
     inkscape:window-y="0"
     pagecolor="#ffffff"
     inkscape:window-height="699"
     inkscape:zoom="6.9465339"
     inkscape:window-x="0"
     borderopacity="1.0"
     inkscape:cx="32.978955"
     inkscape:cy="27.716973"
     inkscape:window-width="1024"
     inkscape:pageopacity="0.0"
     id="base" />
  <defs
     id="defs3" />
  <path
     id="path831"
     style="font-size:12.000000;font-weight:900;fill:#333333;stroke-width:1.0000000pt;font-family:VAG Rounded Black SSi;"
     d="M 41.635456,56.225109 L 41.635456,49.763755 L 41.265952,49.763755 C 40.739989,49.763755 40.330535,49.640587 40.037594,49.394249 C 39.737995,49.147912 39.588197,48.775078 39.588197,48.275746 C 39.588197,47.769756 39.737995,47.396922 40.037594,47.157242 C 40.330535,46.917563 40.739989,46.797724 41.265952,46.797724 L 41.635456,46.797724 L 41.635456,44.690544 C 41.635456,44.211186 41.781927,43.811720 42.074869,43.492148 C 42.367810,43.172575 42.750631,43.012789 43.223332,43.012789 C 43.702690,43.012789 44.088841,43.172575 44.381783,43.492148 C 44.674724,43.811720 44.821194,44.211186 44.821194,44.690544 L 44.821194,46.797724 L 45.700018,46.797724 C 46.239296,46.797724 46.652077,46.917563 46.938362,47.157242 C 47.231303,47.396922 47.377773,47.769756 47.377773,48.275746 C 47.377773,48.775078 47.231303,49.147912 46.938362,49.394249 C 46.652077,49.640587 46.239296,49.763755 45.700018,49.763755 L 44.821194,49.763755 L 44.821194,56.225109 C 44.821194,56.697811 44.671393,57.097276 44.371795,57.423506 C 44.078853,57.743078 43.696033,57.902864 43.223332,57.902864 C 42.757290,57.902864 42.374467,57.743078 42.074869,57.423506 C 41.781927,57.097276 41.635456,56.697811 41.635456,56.225109 z M 36.212713,56.225109 L 36.212713,48.335667 C 36.212713,47.862966 36.359183,47.470157 36.652124,47.157242 C 36.951725,46.837670 37.334545,46.677884 37.800587,46.677884 C 38.273289,46.677884 38.656111,46.837670 38.949052,47.157242 C 39.248651,47.470157 39.398449,47.862966 39.398449,48.335667 L 39.398449,56.225109 C 39.398449,56.697811 39.248651,57.097276 38.949052,57.423506 C 38.656111,57.743078 38.273289,57.902864 37.800587,57.902864 C 37.334545,57.902864 36.951725,57.743078 36.652124,57.423506 C 36.359183,57.097276 36.212713,56.697811 36.212713,56.225109 z M 35.903127,43.791747 C 35.903127,43.272442 36.089544,42.823043 36.462379,42.443550 C 36.835213,42.064058 37.281283,41.874312 37.800587,41.874312 C 38.326551,41.874312 38.775950,42.060729 39.148784,42.433564 C 39.521618,42.806398 39.708036,43.259126 39.708036,43.791747 C 39.708036,44.344341 39.521618,44.803726 39.148784,45.169903 C 38.775950,45.536080 38.326551,45.719167 37.800587,45.719167 C 37.281283,45.719167 36.835213,45.532750 36.462379,45.159915 C 36.089544,44.787081 35.903127,44.331024 35.903127,43.791747 z M 34.854531,43.552067 L 34.854531,56.225109 C 34.854531,56.704468 34.704730,57.103933 34.405132,57.423506 C 34.105533,57.743078 33.722711,57.902864 33.256669,57.902864 C 32.890492,57.902864 32.580905,57.802998 32.327911,57.603266 C 32.081575,57.403532 31.895158,57.163853 31.768660,56.884228 C 31.409140,57.323639 31.009674,57.636554 30.570263,57.822971 C 30.137509,58.016046 29.621532,58.112584 29.022335,58.112584 C 28.110222,58.112584 27.278001,57.856260 26.525675,57.343613 C 25.780006,56.824307 25.187466,56.118585 24.748053,55.226445 C 24.315300,54.327649 24.098923,53.345629 24.098923,52.280388 C 24.098923,51.228462 24.315300,50.256430 24.748053,49.364289 C 25.187466,48.465493 25.783335,47.759770 26.535661,47.247123 C 27.287989,46.727817 28.116880,46.468166 29.022335,46.468166 C 29.648163,46.468166 30.157481,46.548059 30.550290,46.707845 C 30.949755,46.867631 31.319261,47.090666 31.658807,47.376950 L 31.658807,43.552067 C 31.658807,43.079366 31.808605,42.683229 32.108206,42.363657 C 32.414462,42.037427 32.797284,41.874312 33.256669,41.874312 C 33.716054,41.874312 34.095545,42.034098 34.395146,42.353671 C 34.701402,42.673243 34.854531,43.072709 34.854531,43.552067 z M 29.471734,49.564023 C 28.792642,49.564023 28.256692,49.823676 27.863884,50.342980 C 27.477735,50.862286 27.284660,51.508088 27.284660,52.280388 C 27.284660,52.773061 27.371211,53.232448 27.544312,53.658544 C 27.717414,54.077982 27.967080,54.410871 28.293309,54.657207 C 28.626198,54.903544 29.019006,55.026713 29.471734,55.026713 C 30.157481,55.026713 30.693432,54.767060 31.079582,54.247756 C 31.465732,53.721793 31.658807,53.066003 31.658807,52.280388 C 31.658807,51.501431 31.465732,50.855627 31.079582,50.342980 C 30.693432,49.823676 30.157481,49.564023 29.471734,49.564023 z M 21.921835,53.348958 L 16.159546,53.348958 C 16.159546,53.781712 16.359279,54.191165 16.758745,54.577314 C 17.158210,54.956806 17.810671,55.146552 18.716126,55.146552 C 19.182168,55.146552 19.568319,55.086632 19.874575,54.966794 C 20.180832,54.846953 20.556996,54.677181 21.003066,54.457475 C 21.455793,54.231111 21.782023,54.117929 21.981755,54.117929 C 22.354589,54.117929 22.670833,54.247756 22.930486,54.507407 C 23.190139,54.767060 23.319965,55.103277 23.319965,55.516058 C 23.319965,56.008733 23.073627,56.458131 22.580954,56.864254 C 22.094938,57.263720 21.465779,57.569976 20.693479,57.783024 C 19.921179,58.002731 19.125577,58.112584 18.306673,58.112584 C 17.461139,58.112584 16.695496,57.966112 16.009747,57.673171 C 15.330656,57.380230 14.741444,56.967450 14.242112,56.434829 C 13.749438,55.895551 13.373275,55.269721 13.113622,54.557340 C 12.853970,53.838303 12.724143,53.079319 12.724143,52.280388 C 12.724143,51.528062 12.860627,50.795708 13.133595,50.083327 C 13.406563,49.370948 13.792713,48.745118 14.292045,48.205840 C 14.791377,47.666562 15.387246,47.243795 16.079653,46.937537 C 16.772060,46.624622 17.514401,46.468166 18.306673,46.468166 C 19.325311,46.468166 20.227437,46.724489 21.013052,47.237136 C 21.798668,47.749784 22.404523,48.422217 22.830619,49.254437 C 23.263375,50.086656 23.479752,50.978796 23.479752,51.930856 C 23.479752,52.476791 23.356582,52.849626 23.110246,53.049359 C 22.863909,53.249091 22.467772,53.348958 21.921835,53.348958 z M 16.159546,51.131925 L 20.284028,51.131925 C 20.284028,50.878929 20.194147,50.599305 20.014389,50.293047 C 19.834629,49.980132 19.588292,49.720480 19.275377,49.514090 C 18.969120,49.301041 18.619588,49.194517 18.226779,49.194517 C 17.833973,49.194517 17.477782,49.301041 17.158210,49.514090 C 16.845296,49.727138 16.598958,49.986791 16.419199,50.293047 C 16.246097,50.592645 16.159546,50.872272 16.159546,51.131925 z " />
  <metadata
     id="metadata8">
    <rdf:RDF
       id="RDF9">
      <cc:Work
         rdf:about=""
         id="Work10">
        <dc:title
           id="title11">Part of the Flat Icon Collection (Thu Aug 26 14:38:01 2004)</dc:title>
        <dc:description
           id="description13" />
        <dc:subject
           id="subject14">
          <rdf:Bag
             id="Bag15">
            <rdf:li
               id="li16" />
          </rdf:Bag>
        </dc:subject>
        <dc:publisher
           id="publisher17">
          <cc:Agent
             rdf:about=""
             id="Agent18">
            <dc:title
               id="title19" />
          </cc:Agent>
        </dc:publisher>
        <dc:creator
           id="creator20">
          <cc:Agent
             rdf:about=""
             id="Agent21">
            <dc:title
               id="title22">Danny Allen</dc:title>
          </cc:Agent>
        </dc:creator>
        <dc:rights
           id="rights24">
          <cc:Agent
             rdf:about=""
             id="Agent25">
            <dc:title
               id="title26">Danny Allen</dc:title>
          </cc:Agent>
        </dc:rights>
        <dc:date
           id="date28" />
        <dc:format
           id="format29">image/svg+xml</dc:format>
        <dc:type
           rdf:resource="http://purl.org/dc/dcmitype/StillImage"
           id="type31" />
        <cc:license
           rdf:resource="http://creativecommons.org/licenses/LGPL/2.1/"
           id="license32">
          <dc:date
             id="date33" />
        </cc:license>
        <dc:language
           id="language34">en</dc:language>
      </cc:Work>
    </rdf:RDF>
  </metadata>
  <path
     style="font-size:12.000000;fill:#7f7f7f;fill-rule:evenodd;stroke:#333333;stroke-width:3.1249998;stroke-linecap:round;stroke-linejoin:round;"
     d="M 22.867184,26.551030 C 18.520200,28.846984 16.101633,33.430121 14.349117,38.175991 L 45.249080,38.274561 C 43.670485,33.632921 41.519267,29.083592 37.542820,26.597845 C 33.326581,26.401054 28.000717,26.567408 22.867184,26.551030 z "
     id="path948"
     transform="translate(0.251860,0.209560)" />
  <path
     transform="matrix(1.056072,3.368780e-3,-3.368780e-3,1.056072,9.507200,-6.352349)"
     style="font-size:12.000000;fill:#cccccc;fill-opacity:1.0000000;fill-rule:evenodd;stroke:#333333;stroke-width:2.9590635;stroke-linecap:round;stroke-linejoin:round;"
     d="M 31.850417,22.301342 C 31.850417,29.105455 26.328239,34.627633 19.524126,34.627633 C 12.720013,34.627633 7.1978350,29.105455 7.1978350,22.301342 C 7.1978350,15.497229 12.720013,9.9750509 19.524126,9.9750509 C 26.328239,9.9750509 31.850417,15.497229 31.850417,22.301342 z "
     id="path949" />
</svg>
