<?xml version="1.0" encoding="UTF-8" standalone="no"?>
<!DOCTYPE svg PUBLIC "-//W3C//DTD SVG 20010904//EN"
"http://www.w3.org/TR/2001/REC-SVG-20010904/DTD/svg10.dtd">
<svg
   sodipodi:docname="edit_group.svg"
   height="60.0000000"
   sodipodi:version="0.32"
   width="60.0000000"
   _SVGFile__filename="scalable/actions/edit_group.svg"
   version="1.0"
   y="0"
   x="0"
   inkscape:version="0.39"
   id="svg1"
   sodipodi:docbase="/home/danny/work/flat/newscale/actions"
   xmlns="http://www.w3.org/2000/svg"
   xmlns:cc="http://web.resource.org/cc/"
   xmlns:inkscape="http://www.inkscape.org/namespaces/inkscape"
   xmlns:sodipodi="http://sodipodi.sourceforge.net/DTD/sodipodi-0.dtd"
   xmlns:rdf="http://www.w3.org/1999/02/22-rdf-syntax-ns#"
   xmlns:dc="http://purl.org/dc/elements/1.1/"
   xmlns:xlink="http://www.w3.org/1999/xlink">
  <sodipodi:namedview
     bordercolor="#666666"
     inkscape:pageshadow="2"
     inkscape:window-y="0"
     pagecolor="#ffffff"
     inkscape:window-height="699"
     inkscape:zoom="6.9465339"
     inkscape:window-x="0"
     borderopacity="1.0"
     inkscape:cx="32.978955"
     inkscape:cy="13.623197"
     inkscape:window-width="1024"
     inkscape:pageopacity="0.0"
     id="base" />
  <defs
     id="defs3" />
  <path
     id="path842"
     style="font-size:12.000000;font-weight:900;fill:#333333;stroke-width:1.0000000pt;font-family:VAG Rounded Black SSi;"
     d="M 41.545479,56.309584 L 41.545479,49.848230 L 41.175975,49.848230 C 40.650012,49.848230 40.240558,49.725062 39.947617,49.478724 C 39.648018,49.232387 39.498220,48.859553 39.498220,48.360221 C 39.498220,47.854231 39.648018,47.481397 39.947617,47.241717 C 40.240558,47.002038 40.650012,46.882199 41.175975,46.882199 L 41.545479,46.882199 L 41.545479,44.775019 C 41.545479,44.295661 41.691950,43.896195 41.984892,43.576623 C 42.277833,43.257050 42.660654,43.097264 43.133355,43.097264 C 43.612713,43.097264 43.998864,43.257050 44.291806,43.576623 C 44.584747,43.896195 44.731217,44.295661 44.731217,44.775019 L 44.731217,46.882199 L 45.610041,46.882199 C 46.149319,46.882199 46.562100,47.002038 46.848385,47.241717 C 47.141326,47.481397 47.287796,47.854231 47.287796,48.360221 C 47.287796,48.859553 47.141326,49.232387 46.848385,49.478724 C 46.562100,49.725062 46.149319,49.848230 45.610041,49.848230 L 44.731217,49.848230 L 44.731217,56.309584 C 44.731217,56.782286 44.581416,57.181751 44.281818,57.507981 C 43.988876,57.827553 43.606056,57.987339 43.133355,57.987339 C 42.667313,57.987339 42.284490,57.827553 41.984892,57.507981 C 41.691950,57.181751 41.545479,56.782286 41.545479,56.309584 z M 36.122736,56.309584 L 36.122736,48.420142 C 36.122736,47.947441 36.269206,47.554632 36.562147,47.241717 C 36.861748,46.922145 37.244568,46.762359 37.710610,46.762359 C 38.183312,46.762359 38.566134,46.922145 38.859075,47.241717 C 39.158674,47.554632 39.308472,47.947441 39.308472,48.420142 L 39.308472,56.309584 C 39.308472,56.782286 39.158674,57.181751 38.859075,57.507981 C 38.566134,57.827553 38.183312,57.987339 37.710610,57.987339 C 37.244568,57.987339 36.861748,57.827553 36.562147,57.507981 C 36.269206,57.181751 36.122736,56.782286 36.122736,56.309584 z M 35.813150,43.876222 C 35.813150,43.356917 35.999567,42.907518 36.372402,42.528025 C 36.745236,42.148533 37.191306,41.958787 37.710610,41.958787 C 38.236574,41.958787 38.685973,42.145204 39.058807,42.518039 C 39.431641,42.890873 39.618059,43.343601 39.618059,43.876222 C 39.618059,44.428816 39.431641,44.888201 39.058807,45.254378 C 38.685973,45.620555 38.236574,45.803642 37.710610,45.803642 C 37.191306,45.803642 36.745236,45.617225 36.372402,45.244390 C 35.999567,44.871556 35.813150,44.415499 35.813150,43.876222 z M 34.764554,43.636542 L 34.764554,56.309584 C 34.764554,56.788943 34.614753,57.188408 34.315155,57.507981 C 34.015556,57.827553 33.632734,57.987339 33.166692,57.987339 C 32.800515,57.987339 32.490928,57.887473 32.237934,57.687741 C 31.991598,57.488007 31.805181,57.248328 31.678683,56.968703 C 31.319163,57.408114 30.919697,57.721029 30.480286,57.907446 C 30.047532,58.100521 29.531555,58.197059 28.932358,58.197059 C 28.020245,58.197059 27.188024,57.940735 26.435698,57.428088 C 25.690029,56.908782 25.097489,56.203060 24.658076,55.310920 C 24.225323,54.412124 24.008946,53.430104 24.008946,52.364863 C 24.008946,51.312937 24.225323,50.340905 24.658076,49.448764 C 25.097489,48.549968 25.693358,47.844245 26.445684,47.331598 C 27.198012,46.812292 28.026903,46.552641 28.932358,46.552641 C 29.558186,46.552641 30.067504,46.632534 30.460313,46.792320 C 30.859778,46.952106 31.229284,47.175141 31.568830,47.461425 L 31.568830,43.636542 C 31.568830,43.163841 31.718628,42.767704 32.018229,42.448132 C 32.324485,42.121902 32.707307,41.958787 33.166692,41.958787 C 33.626077,41.958787 34.005568,42.118573 34.305169,42.438146 C 34.611425,42.757718 34.764554,43.157184 34.764554,43.636542 z M 29.381757,49.648498 C 28.702665,49.648498 28.166715,49.908151 27.773907,50.427455 C 27.387758,50.946761 27.194683,51.592563 27.194683,52.364863 C 27.194683,52.857536 27.281234,53.316923 27.454335,53.743019 C 27.627437,54.162457 27.877103,54.495346 28.203332,54.741682 C 28.536221,54.988019 28.929029,55.111188 29.381757,55.111188 C 30.067504,55.111188 30.603455,54.851535 30.989605,54.332231 C 31.375755,53.806268 31.568830,53.150478 31.568830,52.364863 C 31.568830,51.585906 31.375755,50.940102 30.989605,50.427455 C 30.603455,49.908151 30.067504,49.648498 29.381757,49.648498 z M 21.831858,53.433433 L 16.069569,53.433433 C 16.069569,53.866187 16.269302,54.275640 16.668768,54.661789 C 17.068233,55.041281 17.720694,55.231027 18.626149,55.231027 C 19.092191,55.231027 19.478342,55.171107 19.784598,55.051269 C 20.090855,54.931428 20.467019,54.761656 20.913089,54.541950 C 21.365816,54.315586 21.692046,54.202404 21.891778,54.202404 C 22.264612,54.202404 22.580856,54.332231 22.840509,54.591882 C 23.100162,54.851535 23.229988,55.187752 23.229988,55.600533 C 23.229988,56.093208 22.983650,56.542606 22.490977,56.948729 C 22.004961,57.348195 21.375802,57.654451 20.603502,57.867499 C 19.831202,58.087206 19.035600,58.197059 18.216696,58.197059 C 17.371162,58.197059 16.605519,58.050587 15.919770,57.757646 C 15.240679,57.464705 14.651467,57.051925 14.152135,56.519304 C 13.659461,55.980026 13.283298,55.354196 13.023645,54.641815 C 12.763993,53.922778 12.634166,53.163794 12.634166,52.364863 C 12.634166,51.612537 12.770650,50.880183 13.043618,50.167802 C 13.316586,49.455423 13.702736,48.829593 14.202068,48.290315 C 14.701400,47.751037 15.297269,47.328270 15.989676,47.022012 C 16.682083,46.709097 17.424424,46.552641 18.216696,46.552641 C 19.235334,46.552641 20.137460,46.808964 20.923075,47.321611 C 21.708691,47.834259 22.314546,48.506692 22.740642,49.338912 C 23.173398,50.171131 23.389775,51.063271 23.389775,52.015331 C 23.389775,52.561266 23.266605,52.934101 23.020269,53.133834 C 22.773932,53.333566 22.377795,53.433433 21.831858,53.433433 z M 16.069569,51.216400 L 20.194051,51.216400 C 20.194051,50.963404 20.104170,50.683780 19.924412,50.377522 C 19.744652,50.064607 19.498315,49.804955 19.185400,49.598565 C 18.879143,49.385516 18.529611,49.278992 18.136802,49.278992 C 17.743996,49.278992 17.387805,49.385516 17.068233,49.598565 C 16.755319,49.811613 16.508981,50.071266 16.329222,50.377522 C 16.156120,50.677120 16.069569,50.956747 16.069569,51.216400 z " />
  <metadata
     id="metadata17">
    <rdf:RDF
       id="RDF18">
      <cc:Work
         rdf:about=""
         id="Work19">
        <dc:title
           id="title20">Part of the Flat Icon Collection (Thu Aug 26 14:38:01 2004)</dc:title>
        <dc:description
           id="description22" />
        <dc:subject
           id="subject23">
          <rdf:Bag
             id="Bag24">
            <rdf:li
               id="li25" />
          </rdf:Bag>
        </dc:subject>
        <dc:publisher
           id="publisher26">
          <cc:Agent
             rdf:about=""
             id="Agent27">
            <dc:title
               id="title28" />
          </cc:Agent>
        </dc:publisher>
        <dc:creator
           id="creator29">
          <cc:Agent
             rdf:about=""
             id="Agent30">
            <dc:title
               id="title31">Danny Allen</dc:title>
          </cc:Agent>
        </dc:creator>
        <dc:rights
           id="rights33">
          <cc:Agent
             rdf:about=""
             id="Agent34">
            <dc:title
               id="title35">Danny Allen</dc:title>
          </cc:Agent>
        </dc:rights>
        <dc:date
           id="date37" />
        <dc:format
           id="format38">image/svg+xml</dc:format>
        <dc:type
           rdf:resource="http://purl.org/dc/dcmitype/StillImage"
           id="type40" />
        <cc:license
           rdf:resource="http://creativecommons.org/licenses/LGPL/2.1/"
           id="license41">
          <dc:date
             id="date42" />
        </cc:license>
        <dc:language
           id="language43">en</dc:language>
      </cc:Work>
    </rdf:RDF>
  </metadata>
  <path
     style="font-size:12.000000;fill:#cccccc;fill-opacity:1.0000000;fill-rule:evenodd;stroke:#4c4c4c;stroke-width:2.5000000;stroke-linecap:round;stroke-linejoin:round;stroke-miterlimit:4.0000000;stroke-opacity:1.0000000;"
     d="M 38.896051,12.634427 C 38.880318,17.566586 34.864638,21.556728 29.932479,21.540995 C 25.000321,21.525262 21.010179,17.509582 21.025912,12.577423 C 21.041645,7.6452644 25.057325,3.6551224 29.989484,3.6708556 C 34.921642,3.6865888 38.911784,7.7022687 38.896051,12.634427 z "
     id="path960" />
  <path
     style="font-size:12.000000;fill:#7f7f7f;fill-rule:evenodd;stroke:#4c4c4c;stroke-width:2.5000000;stroke-linecap:round;stroke-linejoin:round;stroke-miterlimit:4.0000000;stroke-opacity:1.0000000;"
     d="M 38.129093,24.543975 C 35.145359,26.119899 33.485275,29.265726 32.282363,32.523252 L 53.491840,32.590909 C 52.408306,29.404926 50.931727,26.282304 48.202327,24.576108 C 45.308336,24.441032 41.652707,24.555217 38.129093,24.543975 z "
     id="path961" />
  <path
     style="font-size:12.000000;fill:#cccccc;fill-opacity:1.0000000;fill-rule:evenodd;stroke:#4c4c4c;stroke-width:2.5000000;stroke-linecap:round;stroke-linejoin:round;stroke-miterlimit:4.0000000;stroke-opacity:1.0000000;"
     d="M 51.822161,18.054950 C 51.806428,22.987109 47.790748,26.977251 42.858589,26.961518 C 37.926431,26.945785 33.936289,22.930105 33.952022,17.997946 C 33.967755,13.065787 37.983435,9.0756454 42.915594,9.0913786 C 47.847752,9.1071118 51.837894,13.122792 51.822161,18.054950 z "
     id="path962" />
  <path
     style="font-size:12.000000;fill:#7f7f7f;fill-rule:evenodd;stroke:#4c4c4c;stroke-width:2.5000000;stroke-linecap:round;stroke-linejoin:round;stroke-miterlimit:4.0000000;stroke-opacity:1.0000000;"
     d="M 12.276866,24.543975 C 9.2931320,26.119899 7.6330480,29.265726 6.4301360,32.523252 L 27.639613,32.590909 C 26.556079,29.404926 25.079500,26.282304 22.350100,24.576108 C 19.456109,24.441032 15.800480,24.555217 12.276866,24.543975 z "
     id="path963" />
  <path
     style="font-size:12.000000;fill:#cccccc;fill-opacity:1.0000000;fill-rule:evenodd;stroke:#4c4c4c;stroke-width:2.5000000;stroke-linecap:round;stroke-linejoin:round;stroke-miterlimit:4.0000000;stroke-opacity:1.0000000;"
     d="M 25.969941,18.054950 C 25.954208,22.987109 21.938528,26.977251 17.006369,26.961518 C 12.074211,26.945785 8.0840690,22.930105 8.0998020,17.997946 C 8.1155350,13.065787 12.131215,9.0756454 17.063374,9.0913786 C 21.995532,9.1071118 25.985674,13.122792 25.969941,18.054950 z "
     id="path964" />
  <path
     style="font-size:12.000000;fill:#7f7f7f;fill-rule:evenodd;stroke:#333333;stroke-width:2.5000000;stroke-linecap:round;stroke-linejoin:round;stroke-miterlimit:4.0000000;"
     d="M 25.202973,31.006343 C 22.219239,32.582267 20.559155,35.728094 19.356243,38.985620 L 40.565720,39.053277 C 39.482186,35.867294 38.005607,32.744672 35.276207,31.038476 C 32.382216,30.903400 28.726587,31.017585 25.202973,31.006343 z "
     id="path965" />
  <path
     style="font-size:12.000000;fill:#cccccc;fill-opacity:1.0000000;fill-rule:evenodd;stroke:#333333;stroke-width:2.5000000;stroke-linecap:round;stroke-linejoin:round;stroke-miterlimit:4.0000000;"
     d="M 38.896051,24.517318 C 38.880318,29.449477 34.864638,33.439619 29.932479,33.423886 C 25.000321,33.408153 21.010179,29.392473 21.025912,24.460314 C 21.041645,19.528155 25.057325,15.538013 29.989484,15.553747 C 34.921642,15.569480 38.911784,19.585160 38.896051,24.517318 z "
     id="path966" />
</svg>
