<?xml version="1.0" encoding="UTF-8" standalone="no"?>
<!DOCTYPE svg PUBLIC "-//W3C//DTD SVG 20010904//EN"
"http://www.w3.org/TR/2001/REC-SVG-20010904/DTD/svg10.dtd">
<svg
   sodipodi:docname="filesaveas.svg"
   height="60.0000000"
   sodipodi:version="0.32"
   width="60.0000000"
   _SVGFile__filename="scalable/actions/filesaveas.svg"
   version="1.0"
   y="0"
   x="0"
   inkscape:version="0.39"
   id="svg1"
   sodipodi:docbase="/home/danny/work/flat/newscale/actions"
   xmlns="http://www.w3.org/2000/svg"
   xmlns:cc="http://web.resource.org/cc/"
   xmlns:inkscape="http://www.inkscape.org/namespaces/inkscape"
   xmlns:sodipodi="http://sodipodi.sourceforge.net/DTD/sodipodi-0.dtd"
   xmlns:rdf="http://www.w3.org/1999/02/22-rdf-syntax-ns#"
   xmlns:dc="http://purl.org/dc/elements/1.1/"
   xmlns:xlink="http://www.w3.org/1999/xlink">
  <sodipodi:namedview
     bordercolor="#666666"
     inkscape:pageshadow="2"
     inkscape:window-y="0"
     pagecolor="#ffffff"
     inkscape:window-height="685"
     inkscape:zoom="7.9999999"
     inkscape:window-x="0"
     borderopacity="1.0"
     inkscape:cx="28.057154"
     inkscape:cy="10.083546"
     inkscape:window-width="1016"
     inkscape:pageopacity="0.0"
     id="base" />
  <defs
     id="defs3" />
  <metadata
     id="metadata11">
    <rdf:RDF
       id="RDF12">
      <cc:Work
         rdf:about=""
         id="Work13">
        <dc:title
           id="title14">Part of the Flat Icon Collection (Thu Aug 26 14:38:01 2004)</dc:title>
        <dc:description
           id="description16" />
        <dc:subject
           id="subject17">
          <rdf:Bag
             id="Bag18">
            <rdf:li
               id="li19" />
          </rdf:Bag>
        </dc:subject>
        <dc:publisher
           id="publisher20">
          <cc:Agent
             rdf:about=""
             id="Agent21">
            <dc:title
               id="title22" />
          </cc:Agent>
        </dc:publisher>
        <dc:creator
           id="creator23">
          <cc:Agent
             rdf:about=""
             id="Agent24">
            <dc:title
               id="title25">Danny Allen</dc:title>
          </cc:Agent>
        </dc:creator>
        <dc:rights
           id="rights27">
          <cc:Agent
             rdf:about=""
             id="Agent28">
            <dc:title
               id="title29">Danny Allen</dc:title>
          </cc:Agent>
        </dc:rights>
        <dc:date
           id="date31" />
        <dc:format
           id="format32">image/svg+xml</dc:format>
        <dc:type
           rdf:resource="http://purl.org/dc/dcmitype/StillImage"
           id="type34" />
        <cc:license
           rdf:resource="http://creativecommons.org/licenses/LGPL/2.1/"
           id="license35">
          <dc:date
             id="date36" />
        </cc:license>
        <dc:language
           id="language37">en</dc:language>
      </cc:Work>
    </rdf:RDF>
  </metadata>
  <path
     style="font-size:12.000000;fill:#7f7f7f;fill-rule:evenodd;stroke-width:1.0000000pt;stroke-linecap:round;stroke-linejoin:round;"
     transform="matrix(1.059370,0.000000,0.000000,1.059370,-1.461906,-1.891021)"
     d="M 8.3749998,6.0625000 C 7.2669998,6.0625000 6.3749998,6.9545000 6.3749998,8.0625000 L 6.3749998,52.906250 C 6.3749998,54.014249 7.2669998,54.906250 8.3749998,54.906250 L 51.437498,54.906250 C 52.545498,54.906249 53.437498,54.014250 53.437498,52.906250 L 53.437498,12.656250 L 46.812498,6.0625000 L 8.3749998,6.0625000 z "
     id="path951" />
  <path
     style="font-size:12.000000;fill:#b3b3b3;fill-opacity:1.0000000;fill-rule:evenodd;stroke:#333333;stroke-width:2.5000000;stroke-linecap:round;stroke-linejoin:round;"
     d="M 15.913561,4.6592127 L 15.913561,17.901131 C 15.913561,19.254174 17.102332,20.343445 18.578969,20.343445 L 36.487184,20.343445 C 37.963821,20.343444 39.152592,19.254174 39.152592,17.901131 L 39.152592,4.6592127"
     sodipodi:stroke-cmyk="(0 0 0 0.8)"
     id="path952"
     sodipodi:nodetypes="cccccc" />
  <path
     style="font-size:12.000000;fill:#4c4c4c;fill-opacity:1.0000000;fill-rule:evenodd;stroke:none;stroke-width:1.2500000;stroke-linecap:round;stroke-linejoin:round;"
     d="M 20.915641,7.9807835 C 20.140512,7.9807835 19.516491,8.6048045 19.516491,9.3799339 L 19.516491,15.622724 C 19.516491,16.397853 20.140512,17.021874 20.915641,17.021874 L 24.704421,17.021874 C 25.479550,17.021874 26.103571,16.397853 26.103571,15.622724 L 26.103571,9.3799339 C 26.103571,8.6048045 25.479550,7.9807835 24.704421,7.9807835 L 20.915641,7.9807835 z "
     id="path953" />
  <path
     style="font-size:12.000000;fill:none;fill-rule:evenodd;stroke:#333333;stroke-width:2.9498663;stroke-linecap:round;stroke-linejoin:round;stroke-miterlimit:4.0000000;"
     transform="matrix(1.059370,0.000000,0.000000,1.059370,-1.461906,-1.891021)"
     d="M 8.3750000,6.0625000 C 7.2670000,6.0625000 6.3750000,6.9545000 6.3750000,8.0625000 L 6.3750000,52.906250 C 6.3750000,54.014249 7.2670000,54.906250 8.3750000,54.906250 L 51.437500,54.906250 C 52.545501,54.906249 53.437500,54.014250 53.437500,52.906250 L 53.437500,12.656250 L 46.812500,6.0625000 L 8.3750000,6.0625000 z "
     sodipodi:stroke-cmyk="(0 0 0 0.8)"
     id="path954" />
  <path
     style="font-size:12.000000;fill:#cccccc;fill-opacity:1.0000000;fill-rule:evenodd;stroke:none;stroke-width:1.2500000;stroke-linecap:round;stroke-linejoin:round;"
     d="M 11.381244,24.010828 C 10.253806,24.010828 9.3461566,24.918477 9.3461566,26.045916 L 9.3461566,50.587131 C 9.3461566,51.714570 10.253806,52.622219 11.381244,52.622219 L 49.058509,52.622219 C 50.185948,52.622219 51.093597,51.714570 51.093597,50.587131 L 51.093597,26.045916 C 51.093597,24.918477 50.185948,24.010828 49.058509,24.010828 L 11.381244,24.010828 z "
     id="path955" />
  <g
     id="g1598"
     transform="translate(0.426472,-1.250000e-7)">
    <path
       style="fill:none;fill-opacity:0.75000000;fill-rule:evenodd;stroke:#333333;stroke-width:2.6315789;stroke-linecap:round;stroke-linejoin:round;"
       d="M 39.734110,28.610949 L 45.407814,28.610949 M 42.706050,28.610949 L 42.706050,47.847071 M 39.734110,48.366966 L 45.542901,48.366966"
       sodipodi:nodetypes="cccccc"
       sodipodi:stroke-cmyk="(0.0000000 0.0000000 0.0000000 0.80000001)"
       id="path862"
       transform="matrix(0.950000,0.000000,0.000000,0.950000,1.520676,1.752014)" />
    <path
       style="font-size:12.000000;font-weight:900;fill:#333333;stroke-width:1.0000000pt;font-family:VAG Rounded Black SSi;"
       d="M 27.009958,42.900949 C 27.009958,42.376299 27.156551,41.944234 27.449738,41.604755 C 27.750639,41.265277 28.113266,41.095538 28.537615,41.095538 C 28.792224,41.095538 29.035261,41.141829 29.266723,41.234415 C 29.498187,41.319285 29.806804,41.458163 30.192575,41.651049 C 30.586063,41.836220 30.910112,41.971239 31.164721,42.056109 C 31.419330,42.140979 31.727947,42.183414 32.090574,42.183414 C 32.445483,42.183414 32.707809,42.113975 32.877547,41.975097 C 33.047288,41.828505 33.132159,41.647192 33.132159,41.431160 C 33.132159,41.238272 33.078150,41.080105 32.970132,40.956659 C 32.862117,40.833212 32.719381,40.732912 32.541927,40.655758 C 32.364472,40.570887 32.113721,40.466728 31.789672,40.343282 C 31.465623,40.219834 30.956404,40.019234 30.262015,39.741478 C 29.536763,39.432861 28.977394,39.143532 28.583906,38.873492 C 28.190421,38.595736 27.885660,38.244682 27.669629,37.820334 C 27.453596,37.388270 27.345579,36.852046 27.345579,36.211666 C 27.345579,35.486414 27.538465,34.799741 27.924238,34.151644 C 28.317725,33.503547 28.877094,32.982755 29.602344,32.589267 C 30.335312,32.188064 31.172436,31.987464 32.113721,31.987464 C 32.514923,31.987464 32.962417,32.037613 33.456206,32.137916 C 33.949994,32.230500 34.416778,32.388668 34.856559,32.612414 C 35.304053,32.828446 35.666679,33.106202 35.944435,33.445681 C 36.229905,33.785161 36.372642,34.186363 36.372642,34.649289 C 36.372642,34.950192 36.303202,35.224090 36.164325,35.470984 C 36.033162,35.710161 35.847992,35.895332 35.608813,36.026496 C 35.377349,36.149943 35.118883,36.211666 34.833412,36.211666 C 34.679103,36.211666 34.509362,36.176945 34.324192,36.107507 C 34.146739,36.038069 33.892127,35.926194 33.560365,35.771885 C 33.236316,35.617576 32.939271,35.497986 32.669231,35.413118 C 32.399191,35.328248 32.133008,35.285814 31.870684,35.285814 C 31.600643,35.285814 31.369181,35.351395 31.176294,35.482556 C 30.991123,35.613718 30.898538,35.810463 30.898538,36.072787 C 30.898538,36.373690 31.199440,36.651446 31.801245,36.906054 C 32.403048,37.152949 33.101296,37.438419 33.895984,37.762469 C 34.698390,38.086516 35.361919,38.522438 35.886569,39.070235 C 36.418933,39.618031 36.685117,40.354855 36.685117,41.280708 C 36.685117,42.129405 36.472942,42.873945 36.048592,43.514327 C 35.624243,44.146993 35.045586,44.633065 34.312619,44.972543 C 33.587367,45.312022 32.796537,45.481763 31.940122,45.481763 C 30.682505,45.481763 29.544478,45.246443 28.526041,44.775801 C 27.515320,44.297445 27.009958,43.672493 27.009958,42.900949 z M 26.014666,34.151644 L 26.014666,43.294437 C 26.014666,43.849948 25.841068,44.312875 25.493874,44.683215 C 25.146680,45.053556 24.703043,45.238727 24.162962,45.238727 C 23.738613,45.238727 23.379845,45.122995 23.086658,44.891532 C 22.801188,44.660069 22.585155,44.382313 22.438562,44.058265 C 22.021929,44.567483 21.559003,44.930110 21.049782,45.146142 C 20.548279,45.369888 19.950334,45.481763 19.255944,45.481763 C 18.198929,45.481763 17.234500,45.184718 16.362654,44.590630 C 15.498525,43.988827 14.811851,43.170990 14.302634,42.137122 C 13.801129,41.095538 13.550378,39.957510 13.550378,38.723040 C 13.550378,37.504000 13.801129,36.377547 14.302634,35.343678 C 14.811851,34.302096 15.502383,33.484258 16.374229,32.890170 C 17.246072,32.288365 18.206644,31.987464 19.255944,31.987464 C 19.958049,31.987464 20.555994,32.095479 21.049782,32.311511 C 21.551285,32.527544 22.014212,32.894028 22.438562,33.410963 C 22.577440,33.094630 22.793472,32.820731 23.086658,32.589267 C 23.379845,32.350088 23.738613,32.230500 24.162962,32.230500 C 24.703043,32.230500 25.146680,32.415671 25.493874,32.786012 C 25.841068,33.148636 26.014666,33.603848 26.014666,34.151644 z M 19.776736,35.575142 C 18.989760,35.575142 18.368667,35.876044 17.913459,36.477848 C 17.465962,37.079653 17.242215,37.828049 17.242215,38.723040 C 17.242215,39.293982 17.342515,39.826349 17.543117,40.320136 C 17.743719,40.806207 18.033046,41.191979 18.411103,41.477451 C 18.796874,41.762921 19.252087,41.905658 19.776736,41.905658 C 20.571427,41.905658 21.192519,41.604755 21.640013,41.002952 C 22.087509,40.393432 22.311257,39.633461 22.311257,38.723040 C 22.311257,37.820334 22.087509,37.071936 21.640013,36.477848 C 21.192519,35.876044 20.571427,35.575142 19.776736,35.575142 z "
       id="path854" />
  </g>
</svg>
