<?xml version="1.0" encoding="UTF-8" standalone="no"?>
<!DOCTYPE svg PUBLIC "-//W3C//DTD SVG 20010904//EN"
"http://www.w3.org/TR/2001/REC-SVG-20010904/DTD/svg10.dtd">
<svg
   sodipodi:docname="fileimport.svg"
   height="60.0000000"
   sodipodi:version="0.32"
   width="60.0000000"
   _SVGFile__filename="scalable/actions/fileexport.svg"
   version="1.0"
   y="0"
   x="0"
   inkscape:version="0.39"
   id="svg1"
   sodipodi:docbase="/home/danny/work/flat/newscale/actions"
   xmlns="http://www.w3.org/2000/svg"
   xmlns:cc="http://web.resource.org/cc/"
   xmlns:inkscape="http://www.inkscape.org/namespaces/inkscape"
   xmlns:sodipodi="http://sodipodi.sourceforge.net/DTD/sodipodi-0.dtd"
   xmlns:rdf="http://www.w3.org/1999/02/22-rdf-syntax-ns#"
   xmlns:dc="http://purl.org/dc/elements/1.1/"
   xmlns:xlink="http://www.w3.org/1999/xlink">
  <sodipodi:namedview
     bordercolor="#666666"
     inkscape:pageshadow="2"
     inkscape:window-y="0"
     pagecolor="#ffffff"
     inkscape:window-height="685"
     inkscape:zoom="6.9465337"
     inkscape:window-x="0"
     borderopacity="1.0"
     inkscape:cx="26.800261"
     inkscape:cy="20.073413"
     inkscape:window-width="1016"
     inkscape:pageopacity="0.0"
     id="base" />
  <defs
     id="defs3" />
  <metadata
     id="metadata10">
    <rdf:RDF
       id="RDF11">
      <cc:Work
         rdf:about=""
         id="Work12">
        <dc:title
           id="title13">Part of the Flat Icon Collection (Thu Aug 26 14:38:01 2004)</dc:title>
        <dc:description
           id="description15" />
        <dc:subject
           id="subject16">
          <rdf:Bag
             id="Bag17">
            <rdf:li
               id="li18" />
          </rdf:Bag>
        </dc:subject>
        <dc:publisher
           id="publisher19">
          <cc:Agent
             rdf:about=""
             id="Agent20">
            <dc:title
               id="title21" />
          </cc:Agent>
        </dc:publisher>
        <dc:creator
           id="creator22">
          <cc:Agent
             rdf:about=""
             id="Agent23">
            <dc:title
               id="title24">Danny Allen</dc:title>
          </cc:Agent>
        </dc:creator>
        <dc:rights
           id="rights26">
          <cc:Agent
             rdf:about=""
             id="Agent27">
            <dc:title
               id="title28">Danny Allen</dc:title>
          </cc:Agent>
        </dc:rights>
        <dc:date
           id="date30" />
        <dc:format
           id="format31">image/svg+xml</dc:format>
        <dc:type
           rdf:resource="http://purl.org/dc/dcmitype/StillImage"
           id="type33" />
        <cc:license
           rdf:resource="http://creativecommons.org/licenses/LGPL/2.1/"
           id="license34">
          <dc:date
             id="date35" />
        </cc:license>
        <dc:language
           id="language36">en</dc:language>
      </cc:Work>
    </rdf:RDF>
  </metadata>
  <g
     id="g1620"
     transform="translate(24.95153,0.226940)">
    <path
       style="font-size:12.000000;fill:#7f7f7f;fill-rule:evenodd;stroke-width:1.0000000pt;stroke-linecap:round;stroke-linejoin:round;"
       transform="matrix(0.865324,0.000000,0.000000,0.865324,-27.89008,9.952519)"
       d="M 8.3749998,6.0625000 C 7.2669998,6.0625000 6.3749998,6.9545000 6.3749998,8.0625000 L 6.3749998,52.906250 C 6.3749998,54.014249 7.2669998,54.906250 8.3749998,54.906250 L 51.437498,54.906250 C 52.545498,54.906249 53.437498,54.014250 53.437498,52.906250 L 53.437498,12.656250 L 46.812498,6.0625000 L 8.3749998,6.0625000 z "
       id="path950" />
    <path
       style="font-size:12.000000;fill:#b3b3b3;fill-opacity:1.0000000;fill-rule:evenodd;stroke:#4c4c4c;stroke-width:2.5000000;stroke-linecap:round;stroke-linejoin:round;stroke-opacity:1.0000000;"
       d="M 15.913561,4.6592127 L 15.913561,17.901131 C 15.913561,19.254174 17.102332,20.343445 18.578969,20.343445 L 36.487184,20.343445 C 37.963821,20.343444 39.152592,19.254174 39.152592,17.901131 L 39.152592,4.6592127"
       sodipodi:stroke-cmyk="(0.0000000 0.0000000 0.0000000 0.70196080)"
       id="path951"
       sodipodi:nodetypes="cccccc"
       transform="matrix(0.816829,0.000000,0.000000,0.816829,-26.69595,11.49716)" />
    <path
       style="font-size:12.000000;fill:#4c4c4c;fill-opacity:1.0000000;fill-rule:evenodd;stroke:none;stroke-width:1.2500000;stroke-linecap:round;stroke-linejoin:round;"
       d="M 20.915641,7.9807835 C 20.140512,7.9807835 19.516491,8.6048045 19.516491,9.3799339 L 19.516491,15.622724 C 19.516491,16.397853 20.140512,17.021874 20.915641,17.021874 L 24.704421,17.021874 C 25.479550,17.021874 26.103571,16.397853 26.103571,15.622724 L 26.103571,9.3799339 C 26.103571,8.6048045 25.479550,7.9807835 24.704421,7.9807835 L 20.915641,7.9807835 z "
       id="path952"
       transform="matrix(0.816829,0.000000,0.000000,0.816829,-26.69595,11.49716)" />
    <path
       style="font-size:12.000000;fill:none;fill-rule:evenodd;stroke:#4c4c4c;stroke-width:2.9498663;stroke-linecap:round;stroke-linejoin:round;stroke-miterlimit:4.0000000;stroke-opacity:1.0000000;"
       transform="matrix(0.865324,0.000000,0.000000,0.865324,-27.89008,9.952519)"
       d="M 8.3750000,6.0625000 C 7.2670000,6.0625000 6.3750000,6.9545000 6.3750000,8.0625000 L 6.3750000,52.906250 C 6.3750000,54.014249 7.2670000,54.906250 8.3750000,54.906250 L 51.437500,54.906250 C 52.545501,54.906249 53.437500,54.014250 53.437500,52.906250 L 53.437500,12.656250 L 46.812500,6.0625000 L 8.3750000,6.0625000 z "
       sodipodi:stroke-cmyk="(0.0000000 0.0000000 0.0000000 0.70196080)"
       id="path953" />
    <path
       style="font-size:12.000000;fill:#cccccc;fill-opacity:1.0000000;fill-rule:evenodd;stroke:none;stroke-width:1.2500000;stroke-linecap:round;stroke-linejoin:round;"
       d="M 11.381244,24.010828 C 10.253806,24.010828 9.3461566,24.918477 9.3461566,26.045916 L 9.3461566,50.587131 C 9.3461566,51.714570 10.253806,52.622219 11.381244,52.622219 L 49.058509,52.622219 C 50.185948,52.622219 51.093597,51.714570 51.093597,50.587131 L 51.093597,26.045916 C 51.093597,24.918477 50.185948,24.010828 49.058509,24.010828 L 11.381244,24.010828 z "
       id="path954"
       transform="matrix(0.816829,0.000000,0.000000,0.816829,-26.69595,11.49716)" />
  </g>
  <path
     style="font-size:12.000000;fill:#7f7f7f;fill-rule:evenodd;stroke:#333333;stroke-width:3.1250000;stroke-linecap:round;stroke-linejoin:round;stroke-miterlimit:4.0000000;"
     d="M 57.237826,3.2129166 C 54.576326,26.711543 34.172390,25.133640 32.860090,25.010219 L 32.860090,32.038224 L 22.580323,21.863352 L 32.860090,11.709460 L 32.860090,18.653547 C 34.403110,18.834782 48.818280,20.281447 57.237826,3.2129166 z "
     id="path993" />
</svg>
