<?xml version="1.0" encoding="UTF-8" standalone="no"?>
<!DOCTYPE svg PUBLIC "-//W3C//DTD SVG 20010904//EN"
"http://www.w3.org/TR/2001/REC-SVG-20010904/DTD/svg10.dtd">
<svg
   sodipodi:docname="filequickprint.svg"
   height="60.0000000"
   sodipodi:version="0.32"
   width="60.0000000"
   _SVGFile__filename="scalable/actions/filequickprint.svg"
   version="1.0"
   y="0"
   x="0"
   inkscape:version="0.39"
   id="svg1"
   sodipodi:docbase="/home/danny/work/flat/newscale/actions"
   xmlns="http://www.w3.org/2000/svg"
   xmlns:cc="http://web.resource.org/cc/"
   xmlns:inkscape="http://www.inkscape.org/namespaces/inkscape"
   xmlns:sodipodi="http://sodipodi.sourceforge.net/DTD/sodipodi-0.dtd"
   xmlns:rdf="http://www.w3.org/1999/02/22-rdf-syntax-ns#"
   xmlns:dc="http://purl.org/dc/elements/1.1/"
   xmlns:xlink="http://www.w3.org/1999/xlink">
  <sodipodi:namedview
     bordercolor="#666666"
     inkscape:pageshadow="2"
     inkscape:window-y="0"
     pagecolor="#ffffff"
     inkscape:window-height="685"
     inkscape:zoom="6.9465337"
     inkscape:window-x="0"
     borderopacity="1.0"
     inkscape:cx="37.697483"
     inkscape:cy="24.624506"
     inkscape:window-width="1016"
     inkscape:pageopacity="0.0"
     id="base" />
  <defs
     id="defs3">
    <linearGradient
       id="linearGradient1160">
      <stop
         style="stop-color:#000;stop-opacity:1;"
         id="stop1161"
         offset="0" />
      <stop
         style="stop-color:#fff;stop-opacity:1;"
         id="stop1162"
         offset="1" />
    </linearGradient>
    <linearGradient
       xlink:href="#linearGradient1160"
       id="linearGradient1163" />
  </defs>
  <g
     id="g1612"
     style="stroke:#4c4c4c;stroke-opacity:1.0000000;"
     transform="translate(-60.63486,10.62753)">
    <path
       transform="matrix(0.939873,0.000000,-0.318867,0.884130,59.63480,-13.88024)"
       style="font-size:12.000000;fill:#cccccc;fill-rule:evenodd;stroke-width:3.4281306;stroke-linecap:round;stroke-linejoin:round;stroke-miterlimit:4.0000000;"
       d="M 28.184910,7.3616338 C 27.076910,7.3616338 26.184910,8.2536342 26.184910,9.3616347 L 26.184910,28.699180 C 26.184910,29.807181 27.076910,30.699181 28.184910,30.699181 L 49.737223,30.699181 C 50.845223,30.699181 51.737223,29.807181 51.737223,28.699180 L 51.737223,9.3616347 C 51.737223,8.2536342 50.845223,7.3616338 49.737223,7.3616338 L 28.184910,7.3616338 z "
       id="path982" />
    <rect
       style="font-size:12.000000;fill:#7f7f7f;fill-rule:evenodd;stroke-width:3.3249173;stroke-linejoin:round;stroke-miterlimit:4.0000000;"
       sodipodi:fill-cmyk="(0 0 0 0.5)"
       rx="2.1279471"
       height="26.272097"
       width="50.744732"
       y="27.078951"
       x="4.5295200"
       id="rect983"
       ry="2.1279471"
       transform="matrix(0.939873,0.000000,0.000000,0.939873,59.63480,-13.88024)" />
    <path
       style="font-size:12.000000;fill:#b3b3b3;fill-rule:evenodd;stroke-width:3.3249173;stroke-linecap:round;stroke-linejoin:round;stroke-miterlimit:4.0000000;"
       d="M 49.515985,53.245634 L 49.515985,44.968124 L 10.287786,44.968124 L 10.287786,53.245634"
       id="path984"
       transform="matrix(0.939873,0.000000,0.000000,0.939873,59.63480,-13.88024)" />
    <path
       style="font-size:12.000000;fill:none;fill-rule:evenodd;stroke-width:3.3249173;stroke-linecap:round;stroke-linejoin:round;stroke-miterlimit:4.0000000;"
       d="M 6.5295200,27.078951 C 5.4215200,27.078951 4.5295200,27.970951 4.5295200,29.078951 L 4.5295200,51.351048 C 4.5295200,52.459048 5.4215200,53.351048 6.5295200,53.351048 L 53.274252,53.351048 C 54.382252,53.351048 55.274252,52.459048 55.274252,51.351048 L 55.274252,29.078951 C 55.274252,27.970951 54.382252,27.078951 53.274252,27.078951 L 6.5295200,27.078951 z "
       id="rect1560"
       transform="matrix(0.939873,0.000000,0.000000,0.939873,59.63480,-13.88024)" />
  </g>
  <path
     transform="matrix(0.500000,0.000000,0.000000,0.500000,27.73616,25.69504)"
     style="font-size:12.000000;fill:#b3b3b3;fill-opacity:1.0000000;fill-rule:evenodd;stroke:#333333;stroke-width:5.0000000;stroke-linejoin:round;stroke-opacity:1.0000000;"
     d="M 58.842297,36.966930 C 58.842297,52.065108 46.588703,64.318701 31.490526,64.318701 C 16.392349,64.318701 4.1387558,52.065108 4.1387558,36.966930 C 4.1387558,21.868753 16.392349,9.6151600 31.490526,9.6151600 C 46.588703,9.6151600 58.842297,21.868753 58.842297,36.966930 z "
     id="path741" />
  <path
     sodipodi:nodetypes="cc"
     style="fill:none;fill-opacity:0.75000000;fill-rule:evenodd;stroke:#4c4c4c;stroke-width:3.1250000;stroke-linecap:round;stroke-linejoin:round;stroke-opacity:1.0000000;"
     d="M 43.546903,43.661923 L 43.546903,34.438293"
     sodipodi:stroke-cmyk="(0.0000000 0.0000000 0.0000000 0.69999999)"
     id="path743"
     transform="translate(-6.548104e-2,0.373625)" />
  <path
     sodipodi:nodetypes="cc"
     style="fill:none;fill-opacity:0.75000000;fill-rule:evenodd;stroke:#4c4c4c;stroke-width:3.1250000;stroke-linecap:round;stroke-linejoin:round;"
     d="M 43.891100,44.032469 L 49.931268,47.395490"
     sodipodi:stroke-cmyk="(0.0000000 0.0000000 0.0000000 0.69999999)"
     id="path744"
     transform="translate(-6.548104e-2,0.373625)" />
  <path
     transform="matrix(0.529617,0.000000,0.000000,0.529617,28.04244,27.07804)"
     style="font-size:12.000000;fill:#333333;fill-opacity:1.0000000;fill-rule:evenodd;stroke:#333333;stroke-width:3.5402901;stroke-linecap:round;stroke-linejoin:round;stroke-opacity:1.0000000;"
     d="M 31.490526,32.288338 C 31.490526,33.579629 30.442521,34.627634 29.151230,34.627634 C 27.859938,34.627634 26.811934,33.579629 26.811934,32.288338 C 26.811934,30.997046 27.859938,29.949042 29.151230,29.949042 C 30.442521,29.949042 31.490526,30.997046 31.490526,32.288338 z "
     id="path742" />
  <metadata
     id="metadata15">
    <rdf:RDF
       id="RDF16">
      <cc:Work
         rdf:about=""
         id="Work17">
        <dc:title
           id="title18">Part of the Flat Icon Collection (Thu Aug 26 14:38:01 2004)</dc:title>
        <dc:description
           id="description20" />
        <dc:subject
           id="subject21">
          <rdf:Bag
             id="Bag22">
            <rdf:li
               id="li23" />
          </rdf:Bag>
        </dc:subject>
        <dc:publisher
           id="publisher24">
          <cc:Agent
             rdf:about=""
             id="Agent25">
            <dc:title
               id="title26" />
          </cc:Agent>
        </dc:publisher>
        <dc:creator
           id="creator27">
          <cc:Agent
             rdf:about=""
             id="Agent28">
            <dc:title
               id="title29">Danny Allen</dc:title>
          </cc:Agent>
        </dc:creator>
        <dc:rights
           id="rights31">
          <cc:Agent
             rdf:about=""
             id="Agent32">
            <dc:title
               id="title33">Danny Allen</dc:title>
          </cc:Agent>
        </dc:rights>
        <dc:date
           id="date35" />
        <dc:format
           id="format36">image/svg+xml</dc:format>
        <dc:type
           rdf:resource="http://purl.org/dc/dcmitype/StillImage"
           id="type38" />
        <cc:license
           rdf:resource="http://creativecommons.org/licenses/LGPL/2.1/"
           id="license39">
          <dc:date
             id="date40" />
        </cc:license>
        <dc:language
           id="language41">en</dc:language>
      </cc:Work>
    </rdf:RDF>
  </metadata>
</svg>
