<?xml version="1.0" encoding="UTF-8" standalone="no"?>
<!DOCTYPE svg PUBLIC "-//W3C//DTD SVG 20010904//EN"
"http://www.w3.org/TR/2001/REC-SVG-20010904/DTD/svg10.dtd">
<svg
   sodipodi:docname="fonts.svg"
   height="60.0000000"
   sodipodi:version="0.32"
   width="60.0000000"
   _SVGFile__filename="scalable/actions/fonts.svg"
   version="1.0"
   y="0"
   x="0"
   inkscape:version="0.39"
   id="svg1"
   sodipodi:docbase="/home/danny/work/flat/newscale/actions"
   xmlns="http://www.w3.org/2000/svg"
   xmlns:cc="http://web.resource.org/cc/"
   xmlns:inkscape="http://www.inkscape.org/namespaces/inkscape"
   xmlns:sodipodi="http://sodipodi.sourceforge.net/DTD/sodipodi-0.dtd"
   xmlns:rdf="http://www.w3.org/1999/02/22-rdf-syntax-ns#"
   xmlns:dc="http://purl.org/dc/elements/1.1/"
   xmlns:xlink="http://www.w3.org/1999/xlink">
  <sodipodi:namedview
     bordercolor="#666666"
     inkscape:pageshadow="2"
     inkscape:window-y="0"
     pagecolor="#ffffff"
     inkscape:window-height="685"
     inkscape:zoom="4.9119411"
     inkscape:window-x="0"
     borderopacity="1.0"
     inkscape:cx="33.667126"
     inkscape:cy="16.626390"
     inkscape:window-width="1016"
     inkscape:pageopacity="0.0"
     id="base" />
  <defs
     id="defs3" />
  <g
     id="g937"
     transform="translate(0.145085,-0.100127)">
    <path
       id="path832"
       style="font-size:12.000000;fill:#333333;stroke-width:1.0000000pt;font-family:VAG Rounded Black SSi;"
       transform="matrix(2.089372,0.000000,0.000000,2.089372,-8.001611,10.47006)"
       d="M 30.881804,1.7415977 C 30.881804,1.9408164 30.813445,2.1185508 30.676726,2.2748008 C 30.543914,2.4310508 30.377898,2.5091758 30.178679,2.5091758 C 30.088836,2.5091758 29.916961,2.4525352 29.663054,2.3392539 C 29.413054,2.2259727 29.219695,2.1419883 29.082976,2.0873008 C 28.946258,2.0326133 28.793914,2.0052695 28.625945,2.0052695 C 28.461883,2.0052695 28.323211,2.0462852 28.209929,2.1283164 C 28.096648,2.2064414 28.040008,2.3255820 28.040008,2.4857383 C 28.040008,2.6576133 28.211883,2.8197227 28.555633,2.9720664 C 28.899383,3.1205039 29.262664,3.2748008 29.645476,3.4349570 C 30.028289,3.5912070 30.356414,3.8040977 30.629851,4.0736289 C 30.903289,4.3431602 31.040008,4.7044883 31.040008,5.1576133 C 31.040008,5.5443320 30.936492,5.8958945 30.729461,6.2123008 C 30.526336,6.5248008 30.237273,6.7708945 29.862273,6.9505820 C 29.487273,7.1263633 29.059539,7.2142539 28.579070,7.2142539 C 28.239226,7.2142539 27.881804,7.1556602 27.506804,7.0384727 C 27.131804,6.9212852 26.813445,6.7591758 26.551726,6.5521445 C 26.293914,6.3412070 26.165008,6.1126914 26.165008,5.8665977 C 26.165008,5.7689414 26.194304,5.6595664 26.252898,5.5384727 C 26.315398,5.4173789 26.405242,5.3119102 26.522429,5.2220664 C 26.639617,5.1322227 26.768523,5.0873008 26.909148,5.0873008 C 27.065398,5.0873008 27.202117,5.1126914 27.319304,5.1634727 C 27.436492,5.2103477 27.584929,5.2845664 27.764617,5.3861289 C 27.944304,5.4876914 28.102508,5.5638633 28.239226,5.6146445 C 28.379851,5.6615195 28.534148,5.6849570 28.702117,5.6849570 C 28.956023,5.6849570 29.131804,5.6458945 29.229461,5.5677695 C 29.331023,5.4857383 29.381804,5.3568320 29.381804,5.1810508 C 29.381804,5.0130820 29.211883,4.8568320 28.872039,4.7123008 C 28.532195,4.5677695 28.165008,4.4134727 27.770476,4.2494102 C 27.379851,4.0814414 27.049773,3.8626914 26.780242,3.5931602 C 26.514617,3.3197227 26.381804,2.9583945 26.381804,2.5091758 C 26.381804,2.1107383 26.481414,1.7591758 26.680633,1.4544883 C 26.879851,1.1458945 27.157195,0.90761328 27.512664,0.73964453 C 27.868133,0.56776953 28.272429,0.48183203 28.725554,0.48183203 C 29.041961,0.48183203 29.364226,0.52870703 29.692351,0.62245703 C 30.024383,0.71620703 30.305633,0.86073828 30.536101,1.0560508 C 30.766570,1.2474570 30.881804,1.4759727 30.881804,1.7415977 z M 23.411101,6.1654258 L 23.411101,2.1458945 L 23.024383,2.1458945 C 22.790008,2.1458945 22.606414,2.0794883 22.473601,1.9466758 C 22.336883,1.8099570 22.268523,1.6205039 22.268523,1.3783164 C 22.268523,1.1634727 22.340789,0.98378515 22.485320,0.83925390 C 22.629851,0.69472265 22.809539,0.62245703 23.024383,0.62245703 L 23.411101,0.62245703 L 23.411101,-0.42051172 C 23.411101,-0.71348047 23.489226,-0.94785547 23.645476,-1.1236367 C 23.805633,-1.3033242 24.014617,-1.3931680 24.272429,-1.3931680 C 24.440398,-1.3931680 24.590789,-1.3521523 24.723601,-1.2701211 C 24.856414,-1.1880898 24.957976,-1.0728555 25.028289,-0.92441797 C 25.102508,-0.77988672 25.139617,-0.61191797 25.139617,-0.42051172 L 25.139617,0.62245703 L 25.631804,0.62245703 C 25.870086,0.62245703 26.067351,0.68495703 26.223601,0.80995703 C 26.379851,0.93105078 26.457976,1.1205039 26.457976,1.3783164 C 26.457976,1.6400352 26.379851,1.8333945 26.223601,1.9583945 C 26.071258,2.0833945 25.873992,2.1458945 25.631804,2.1458945 L 25.139617,2.1458945 L 25.139617,6.1654258 C 25.139617,6.3529258 25.102508,6.5228477 25.028289,6.6751914 C 24.954070,6.8236289 24.850554,6.9388633 24.717742,7.0208945 C 24.584929,7.0990195 24.436492,7.1380820 24.272429,7.1380820 C 24.014617,7.1380820 23.805633,7.0501914 23.645476,6.8744102 C 23.489226,6.6947227 23.411101,6.4583945 23.411101,6.1654258 z M 16.315398,6.1654258 L 16.315398,1.5130820 C 16.315398,1.2201133 16.393523,0.98769140 16.549773,0.81581640 C 16.709929,0.64003515 16.918914,0.55214453 17.176726,0.55214453 C 17.399383,0.55214453 17.579070,0.60683203 17.715789,0.71620703 C 17.856414,0.82558203 17.942351,0.98183203 17.973601,1.1849570 C 18.145476,0.94667578 18.364226,0.77089453 18.629851,0.65761328 C 18.899383,0.54042578 19.235320,0.48183203 19.637664,0.48183203 C 20.090789,0.48183203 20.497039,0.57558203 20.856414,0.76308203 C 21.215789,0.94667578 21.497039,1.2162070 21.700164,1.5716758 C 21.903289,1.9232383 22.004851,2.3392539 22.004851,2.8197227 L 22.004851,6.1654258 C 22.004851,6.3529258 21.967742,6.5228477 21.893523,6.6751914 C 21.819304,6.8236289 21.715789,6.9388633 21.582976,7.0208945 C 21.450164,7.0990195 21.301726,7.1380820 21.137664,7.1380820 C 20.879851,7.1380820 20.670867,7.0501914 20.510711,6.8744102 C 20.354461,6.6947227 20.276336,6.4583945 20.276336,6.1654258 L 20.276336,3.1302695 C 20.276336,2.7357383 20.170867,2.4369102 19.959929,2.2337852 C 19.752898,2.0306602 19.481414,1.9290977 19.145476,1.9290977 C 18.801726,1.9290977 18.532195,2.0423789 18.336883,2.2689414 C 18.141570,2.4955039 18.043914,2.7826133 18.043914,3.1302695 L 18.043914,6.1654258 C 18.043914,6.3529258 18.006804,6.5228477 17.932586,6.6751914 C 17.858367,6.8236289 17.754851,6.9388633 17.622039,7.0208945 C 17.489226,7.0990195 17.340789,7.1380820 17.176726,7.1380820 C 16.918914,7.1380820 16.709929,7.0501914 16.549773,6.8744102 C 16.393523,6.6947227 16.315398,6.4583945 16.315398,6.1654258 z M 12.483367,0.48183203 C 12.928679,0.48183203 13.344695,0.57558203 13.731414,0.76308203 C 14.122039,0.94667578 14.452117,1.1947227 14.721648,1.5072227 C 14.995086,1.8197227 15.206023,2.1771445 15.354461,2.5794883 C 15.506804,2.9779258 15.582976,3.4017539 15.582976,3.8509727 C 15.582976,4.3040977 15.508758,4.7357383 15.360320,5.1458945 C 15.211883,5.5521445 15.002898,5.9095664 14.733367,6.2181602 C 14.463836,6.5228477 14.131804,6.7650352 13.737273,6.9447227 C 13.346648,7.1244102 12.928679,7.2142539 12.483367,7.2142539 C 11.881804,7.2142539 11.344695,7.0638633 10.872039,6.7630820 C 10.403289,6.4583945 10.038054,6.0501914 9.7763357,5.5384727 C 9.5185232,5.0228477 9.3896170,4.4603477 9.3896170,3.8509727 C 9.3896170,3.4173789 9.4638357,2.9974570 9.6122732,2.5912070 C 9.7607107,2.1849570 9.9716482,1.8236289 10.245086,1.5072227 C 10.522429,1.1908164 10.854461,0.94081640 11.241179,0.75722265 C 11.627898,0.57362890 12.041961,0.48183203 12.483367,0.48183203 z M 12.483367,2.0755820 C 12.190398,2.0755820 11.940398,2.1615195 11.733367,2.3333945 C 11.526336,2.5052695 11.372039,2.7298789 11.270476,3.0072227 C 11.168914,3.2806602 11.118133,3.5619102 11.118133,3.8509727 C 11.118133,4.1478477 11.168914,4.4310508 11.270476,4.7005820 C 11.375945,4.9701133 11.530242,5.1908164 11.733367,5.3626914 C 11.940398,5.5306602 12.190398,5.6146445 12.483367,5.6146445 C 12.784148,5.6146445 13.036101,5.5306602 13.239226,5.3626914 C 13.442351,5.1908164 13.594695,4.9701133 13.696258,4.7005820 C 13.801726,4.4310508 13.854461,4.1478477 13.854461,3.8509727 C 13.854461,3.5658164 13.803679,3.2865195 13.702117,3.0130820 C 13.600554,2.7357383 13.446258,2.5111289 13.239226,2.3392539 C 13.036101,2.1634727 12.784148,2.0755820 12.483367,2.0755820 z M 6.4892263,6.1654258 L 6.4892263,2.1458945 L 6.1025076,2.1458945 C 5.8681326,2.1458945 5.6845388,2.0794883 5.5517263,1.9466758 C 5.4150076,1.8099570 5.3466482,1.6205039 5.3466482,1.3783164 C 5.3466482,1.1634727 5.4189138,0.98378515 5.5634451,0.83925390 C 5.7079763,0.69472265 5.8876638,0.62245703 6.1025076,0.62245703 L 6.4892263,0.62245703 L 6.4892263,-0.27402735 C 6.4892263,-0.90293360 6.6552420,-1.3912148 6.9872732,-1.7388711 C 7.3232107,-2.0904336 7.7607107,-2.2662148 8.2997732,-2.2662148 C 9.1005545,-2.2662148 9.5009451,-2.0025430 9.5009451,-1.4751992 C 9.5009451,-0.97910547 9.2646170,-0.73105860 8.7919607,-0.73105860 C 8.6005545,-0.73105860 8.4560232,-0.69394922 8.3583670,-0.61973047 C 8.2607107,-0.54941797 8.2118826,-0.37558985 8.2118826,-0.098246098 L 8.2118826,0.62245703 L 8.7568045,0.62245703 C 9.3388357,0.62245703 9.6298513,0.87441015 9.6298513,1.3783164 C 9.6298513,1.8900352 9.3388357,2.1458945 8.7568045,2.1458945 L 8.2118826,2.1458945 L 8.2118826,6.1654258 C 8.2118826,6.3529258 8.1747732,6.5228477 8.1005545,6.6751914 C 8.0302420,6.8236289 7.9286795,6.9388633 7.7958670,7.0208945 C 7.6630545,7.0990195 7.5146170,7.1380820 7.3505545,7.1380820 C 7.0927420,7.1380820 6.8837576,7.0501914 6.7236013,6.8744102 C 6.5673513,6.6947227 6.4892263,6.4583945 6.4892263,6.1654258 z " />
    <path
       id="path831"
       style="font-size:12.000000;font-style:italic;fill:#333333;stroke-width:1.0000000pt;font-family:URW Chancery L;"
       d="M 47.604862,45.811190 C 47.577960,46.053308 47.551059,46.268523 47.551059,46.429934 C 47.551059,47.586716 48.358116,48.393773 49.541799,48.393773 C 50.375758,48.393773 51.532540,48.044048 52.393401,47.559814 C 53.980613,46.645149 54.949081,45.273152 54.949081,43.928057 C 54.949081,42.932687 54.760768,42.717472 53.254261,41.775905 C 52.339597,41.184064 51.962970,40.672928 51.962970,39.973478 C 51.962970,39.058814 52.743125,38.251757 53.657790,38.251757 C 54.276534,38.251757 54.733866,38.547677 55.325708,39.300931 C 56.240372,38.413168 56.240372,38.413168 56.590097,37.902032 C 56.052059,37.256386 55.540923,36.987367 54.787670,36.987367 C 52.823831,36.987367 50.295052,39.327833 50.295052,41.103358 C 50.295052,41.937317 50.725483,42.582962 51.747755,43.309314 C 53.092850,44.250880 53.281163,44.492997 53.281163,45.165545 C 53.281163,46.134013 52.043676,47.263893 50.994502,47.263893 C 50.402660,47.263893 49.945328,46.941070 49.676309,46.349228 C 49.487995,45.945700 49.434192,45.542171 49.407290,44.627507 C 49.111369,44.842722 48.896154,44.977232 48.788546,45.057937 C 48.573331,45.192447 48.331214,45.326956 48.089097,45.488368 C 48.089097,45.488368 47.873881,45.622877 47.604862,45.811190 z M 47.604862,44.654409 C 45.560318,45.864994 44.699457,46.322327 44.322831,46.322327 C 43.973106,46.322327 43.542675,45.622877 43.542675,45.057937 C 43.542675,44.681311 44.000008,42.609864 44.699457,39.785165 C 45.076084,39.758263 45.345103,39.758263 45.479612,39.758263 L 46.555688,39.731361 C 46.663296,39.731361 46.932315,39.704459 47.362745,39.650655 L 48.385017,38.870500 L 44.941574,38.870500 C 45.102986,38.197953 45.452710,36.745250 46.017650,34.512392 C 45.506514,34.781411 45.291299,34.862117 44.887770,35.050430 C 44.699457,35.158038 44.484242,35.238744 44.269027,35.346351 C 44.161419,35.400155 44.026910,35.453959 43.892400,35.507763 C 43.515774,37.229484 43.381264,37.794424 43.139147,38.870500 C 42.897030,38.897402 42.735618,38.897402 42.654913,38.897402 L 42.009267,38.897402 C 41.955463,38.897402 41.820954,38.897402 41.605739,38.924304 C 41.309818,39.112617 41.282916,39.112617 40.825584,39.489244 C 40.744878,39.543048 40.610368,39.650655 40.422055,39.785165 L 41.067701,39.785165 L 42.305188,39.785165 L 42.897030,39.785165 C 41.471229,45.757387 41.471229,45.757387 41.471229,46.591346 C 41.471229,47.452206 42.036169,48.393773 42.547305,48.393773 C 43.139147,48.393773 44.968476,47.263893 47.551059,45.326956 L 47.604862,44.654409 z M 29.876510,47.532912 L 31.463722,41.210966 C 34.826460,39.085715 34.907166,39.058814 35.283792,39.058814 C 35.472105,39.058814 35.579713,39.193323 35.579713,39.408538 C 35.579713,39.812067 35.364498,40.834339 34.584343,43.901156 C 33.992501,46.295425 33.884893,46.752757 33.884893,47.263893 C 33.884893,47.640520 33.992501,47.990244 34.288422,48.474479 C 35.525909,47.909539 37.382140,46.752757 39.265273,45.353858 L 39.453587,44.600605 C 36.763397,46.134013 36.655789,46.187817 36.386770,46.187817 C 36.117751,46.187817 35.956340,45.891896 35.956340,45.461466 C 35.956340,44.896526 36.144653,44.008763 36.655789,42.152532 C 37.920178,37.633013 37.920178,37.633013 37.920178,37.444700 C 37.920178,37.148779 37.731865,36.987367 37.382140,36.987367 C 36.978612,36.987367 36.386770,37.229484 35.418302,37.848228 C 34.934067,38.144149 33.696580,38.897402 31.732741,40.134890 C 31.974858,39.247127 32.378387,37.552307 32.378387,37.337092 C 32.378387,37.148779 32.216976,36.987367 32.028662,36.987367 C 31.732741,36.987367 29.795805,37.982738 27.805064,39.166421 L 27.643653,39.865871 C 29.365374,39.085715 29.472982,39.058814 29.715099,39.058814 C 29.903412,39.058814 30.037922,39.220225 30.037922,39.435440 C 30.037922,40.000380 29.526786,42.233238 28.854238,44.681311 L 28.235494,46.860365 C 28.181691,47.048678 28.047181,47.559814 27.858868,48.313067 L 29.876510,47.532912 z M 24.361620,36.987367 C 23.285544,36.987367 21.563822,37.767522 19.976610,38.951206 C 18.254889,40.242497 17.044303,43.040295 17.044303,45.703583 C 17.044303,47.344599 17.958968,48.393773 19.384768,48.393773 C 20.138022,48.393773 20.891275,48.124754 22.128762,47.479108 C 23.473857,46.725855 24.361620,46.053308 24.845855,45.407662 C 25.921931,43.954959 26.782792,41.318573 26.782792,39.462342 C 26.782792,38.009639 25.787421,36.987367 24.361620,36.987367 z M 22.962721,38.251757 C 24.038797,38.251757 24.711345,39.300931 24.711345,40.915045 C 24.711345,42.044924 24.334718,43.443823 23.662170,44.762016 C 22.908917,46.295425 21.940449,47.129384 20.918177,47.129384 C 19.815199,47.129384 19.115749,46.134013 19.115749,44.600605 C 19.115749,41.479985 21.079588,38.251757 22.962721,38.251757 z M 15.510895,39.650655 C 15.591600,39.650655 15.753012,39.650655 16.048933,39.677557 L 17.151911,38.816696 C 15.753012,38.789795 15.753012,38.789795 15.457091,38.789795 C 15.134268,38.789795 15.134268,38.789795 13.869879,38.816696 C 15.618502,31.983614 16.022031,31.149655 17.609243,31.149655 C 18.066575,31.149655 18.416300,31.203459 19.411670,31.364870 L 20.649158,29.912168 C 20.111120,29.777658 19.895904,29.750756 19.357866,29.750756 C 17.743752,29.750756 16.613873,30.342598 14.811445,32.091221 C 13.304939,33.543924 12.955214,34.350981 11.906040,38.816696 C 11.637021,38.789795 11.502512,38.789795 11.368002,38.789795 L 10.049809,38.843598 C 9.9960052,38.843598 9.8614957,38.843598 9.6462805,38.816696 C 9.4848691,38.924304 9.3234577,39.031912 9.2696539,39.058814 L 8.6778121,39.381636 C 8.5702045,39.435440 8.3549893,39.543048 8.1397741,39.677557 L 8.8123216,39.677557 L 10.695455,39.704459 C 10.856866,39.704459 11.152787,39.704459 11.690825,39.677557 C 11.260395,41.318573 11.098983,42.044924 10.587847,44.385390 C 8.9737330,51.783412 8.3549893,52.993998 6.0683278,52.993998 C 5.6917012,52.993998 5.3688784,52.967096 4.6425271,52.859488 C 4.3735081,53.263017 4.2928025,53.397526 4.1044892,53.639643 C 3.8892740,53.935564 3.6471569,54.231485 3.4319417,54.554308 C 4.0237835,54.635014 4.3197044,54.661916 4.7501347,54.661916 C 5.6378974,54.661916 6.3373468,54.527406 6.7677772,54.285289 C 7.5479323,53.854859 8.9199292,52.536665 9.6462805,51.595099 C 10.480239,50.465219 11.448708,48.151656 12.067452,45.703583 C 13.224233,41.318573 13.520154,40.215595 13.654664,39.677557 C 13.896781,39.704459 14.004388,39.704459 14.111996,39.704459 L 15.510895,39.650655 z " />
  </g>
  <metadata
     id="metadata6">
    <rdf:RDF
       id="RDF7">
      <cc:Work
         rdf:about=""
         id="Work8">
        <dc:title
           id="title9">Part of the Flat Icon Collection (Thu Aug 26 14:38:01 2004)</dc:title>
        <dc:description
           id="description11" />
        <dc:subject
           id="subject12">
          <rdf:Bag
             id="Bag13">
            <rdf:li
               id="li14" />
          </rdf:Bag>
        </dc:subject>
        <dc:publisher
           id="publisher15">
          <cc:Agent
             rdf:about=""
             id="Agent16">
            <dc:title
               id="title17" />
          </cc:Agent>
        </dc:publisher>
        <dc:creator
           id="creator18">
          <cc:Agent
             rdf:about=""
             id="Agent19">
            <dc:title
               id="title20">Danny Allen</dc:title>
          </cc:Agent>
        </dc:creator>
        <dc:rights
           id="rights22">
          <cc:Agent
             rdf:about=""
             id="Agent23">
            <dc:title
               id="title24">Danny Allen</dc:title>
          </cc:Agent>
        </dc:rights>
        <dc:date
           id="date26" />
        <dc:format
           id="format27">image/svg+xml</dc:format>
        <dc:type
           rdf:resource="http://purl.org/dc/dcmitype/StillImage"
           id="type29" />
        <cc:license
           rdf:resource="http://creativecommons.org/licenses/LGPL/2.1/"
           id="license30">
          <dc:date
             id="date31" />
        </cc:license>
        <dc:language
           id="language32">en</dc:language>
      </cc:Work>
    </rdf:RDF>
  </metadata>
</svg>
