<?xml version="1.0" encoding="UTF-8" standalone="no"?>
<!DOCTYPE svg PUBLIC "-//W3C//DTD SVG 20010904//EN"
"http://www.w3.org/TR/2001/REC-SVG-20010904/DTD/svg10.dtd">
<svg
   sodipodi:docname="frame_chart.svg"
   height="60.0000000"
   sodipodi:version="0.32"
   width="60.0000000"
   _SVGFile__filename="scalable/actions/frame_chart.svg"
   version="1.0"
   y="0"
   x="0"
   inkscape:version="0.39"
   id="svg1"
   sodipodi:docbase="/home/danny/work/flat/newscale/actions"
   xmlns="http://www.w3.org/2000/svg"
   xmlns:cc="http://web.resource.org/cc/"
   xmlns:inkscape="http://www.inkscape.org/namespaces/inkscape"
   xmlns:sodipodi="http://sodipodi.sourceforge.net/DTD/sodipodi-0.dtd"
   xmlns:rdf="http://www.w3.org/1999/02/22-rdf-syntax-ns#"
   xmlns:dc="http://purl.org/dc/elements/1.1/"
   xmlns:xlink="http://www.w3.org/1999/xlink">
  <sodipodi:namedview
     bordercolor="#666666"
     inkscape:pageshadow="2"
     inkscape:window-y="0"
     pagecolor="#ffffff"
     inkscape:window-height="685"
     inkscape:zoom="6.9465337"
     inkscape:window-x="0"
     borderopacity="1.0"
     inkscape:cx="33.478772"
     inkscape:cy="17.130398"
     inkscape:window-width="1016"
     inkscape:pageopacity="0.0"
     id="base" />
  <defs
     id="defs3" />
  <rect
     style="fill:#cccccc;fill-opacity:1.0000000;fill-rule:evenodd;stroke:#333333;stroke-width:3.0684409;stroke-dasharray:3.0684409,3.0684409;stroke-linejoin:round;stroke-linecap:round;stroke-dashoffset:0.0000000;stroke-opacity:1.0000000;"
     rx="2"
     transform="matrix(0.951530,0.000000,0.000000,1.090039,1.689295,-2.320514)"
     height="39.588089"
     width="52.724136"
     sodipodi:stroke-cmyk="(0.0000000 0.0000000 0.0000000 0.80000001)"
     y="9.9750500"
     x="3.7788632"
     id="rect828" />
  <path
     id="rect829"
     style="fill:#4c4c4c;fill-opacity:1.0000000;fill-rule:evenodd;stroke:#333333;stroke-width:1.6067334;stroke-linejoin:round;stroke-opacity:1.0000000;"
     transform="matrix(1.166964,0.000000,0.000000,1.166964,-2.266273,-9.022778e-2)"
     d="M 4.6556433,5.4764037 C 4.5686672,5.4764037 4.4986467,5.5464242 4.4986467,5.6334003 L 4.4986467,9.4581620 C 4.4986467,9.5451381 4.5686672,9.6151586 4.6556433,9.6151586 L 8.4804050,9.6151586 C 8.5673811,9.6151586 8.6374016,9.5451381 8.6374016,9.4581620 L 8.6374016,5.6334003 C 8.6374016,5.5464242 8.5673811,5.4764037 8.4804050,5.4764037 L 4.6556433,5.4764037 z " />
  <path
     id="rect830"
     style="fill:#4c4c4c;fill-opacity:1.0000000;fill-rule:evenodd;stroke:#333333;stroke-width:1.8750000;stroke-linejoin:round;stroke-opacity:1.0000000;"
     transform="translate(0.179946,-3.418972)"
     d="M 52.773000,9.7195101 C 52.671502,9.7195101 52.589790,9.8012215 52.589790,9.9027195 L 52.589790,14.366078 C 52.589790,14.467576 52.671502,14.549288 52.773000,14.549288 L 57.236359,14.549288 C 57.337857,14.549288 57.419568,14.467576 57.419568,14.366078 L 57.419568,9.9027195 C 57.419568,9.8012215 57.337857,9.7195101 57.236359,9.7195101 L 52.773000,9.7195101 z " />
  <path
     id="rect832"
     style="fill:#4c4c4c;fill-opacity:1.0000000;fill-rule:evenodd;stroke:#333333;stroke-width:1.8750000;stroke-linejoin:round;stroke-opacity:1.0000000;"
     transform="translate(0.359892,-3.418972)"
     d="M 28.149791,9.7195101 C 28.048293,9.7195101 27.966581,9.8012215 27.966581,9.9027195 L 27.966581,14.366078 C 27.966581,14.467576 28.048293,14.549288 28.149791,14.549288 L 32.613150,14.549288 C 32.714648,14.549288 32.796359,14.467576 32.796359,14.366078 L 32.796359,9.9027195 C 32.796359,9.8012215 32.714648,9.7195101 32.613150,9.7195101 L 28.149791,9.7195101 z " />
  <path
     id="rect833"
     style="fill:#4c4c4c;fill-opacity:1.0000000;fill-rule:evenodd;stroke:#333333;stroke-width:1.8750000;stroke-linejoin:round;stroke-opacity:1.0000000;"
     transform="translate(0.000000,0.539837)"
     d="M 3.1666951,48.695896 C 3.0651971,48.695896 2.9834857,48.777608 2.9834857,48.879106 L 2.9834857,53.342464 C 2.9834857,53.443962 3.0651971,53.525674 3.1666951,53.525674 L 7.6300540,53.525674 C 7.7315520,53.525674 7.8132634,53.443962 7.8132634,53.342464 L 7.8132634,48.879106 C 7.8132634,48.777608 7.7315520,48.695896 7.6300540,48.695896 L 3.1666951,48.695896 z " />
  <path
     id="rect834"
     style="fill:#4c4c4c;fill-opacity:1.0000000;fill-rule:evenodd;stroke:#333333;stroke-width:1.8750000;stroke-linejoin:round;stroke-opacity:1.0000000;"
     transform="translate(0.000000,0.539837)"
     d="M 52.952947,48.695896 C 52.851449,48.695896 52.769737,48.777608 52.769737,48.879106 L 52.769737,53.342464 C 52.769737,53.443962 52.851449,53.525674 52.952947,53.525674 L 57.416306,53.525674 C 57.517804,53.525674 57.599515,53.443962 57.599515,53.342464 L 57.599515,48.879106 C 57.599515,48.777608 57.517804,48.695896 57.416306,48.695896 L 52.952947,48.695896 z " />
  <path
     id="rect835"
     style="fill:#4c4c4c;fill-opacity:1.0000000;fill-rule:evenodd;stroke:#333333;stroke-width:1.8750000;stroke-linejoin:round;stroke-opacity:1.0000000;"
     transform="translate(0.000000,0.539837)"
     d="M 28.509683,48.695896 C 28.408185,48.695896 28.326473,48.777608 28.326473,48.879106 L 28.326473,53.342464 C 28.326473,53.443962 28.408185,53.525674 28.509683,53.525674 L 32.973042,53.525674 C 33.074540,53.525674 33.156251,53.443962 33.156251,53.342464 L 33.156251,48.879106 C 33.156251,48.777608 33.074540,48.695896 32.973042,48.695896 L 28.509683,48.695896 z " />
  <path
     id="rect836"
     style="fill:#4c4c4c;fill-opacity:1.0000000;fill-rule:evenodd;stroke:#333333;stroke-width:1.8750000;stroke-linejoin:round;stroke-opacity:1.0000000;"
     transform="translate(0.000000,-3.059080)"
     d="M 3.1666951,30.619459 C 3.0651971,30.619459 2.9834857,30.701171 2.9834857,30.802669 L 2.9834857,35.266027 C 2.9834857,35.367525 3.0651971,35.449237 3.1666951,35.449237 L 7.6300540,35.449237 C 7.7315520,35.449237 7.8132634,35.367525 7.8132634,35.266027 L 7.8132634,30.802669 C 7.8132634,30.701171 7.7315520,30.619459 7.6300540,30.619459 L 3.1666951,30.619459 z " />
  <path
     id="rect837"
     style="fill:#4c4c4c;fill-opacity:1.0000000;fill-rule:evenodd;stroke:#333333;stroke-width:1.8750000;stroke-linejoin:round;stroke-opacity:1.0000000;"
     transform="translate(0.000000,-3.059080)"
     d="M 52.952947,30.619459 C 52.851449,30.619459 52.769737,30.701171 52.769737,30.802669 L 52.769737,35.266027 C 52.769737,35.367525 52.851449,35.449237 52.952947,35.449237 L 57.416306,35.449237 C 57.517804,35.449237 57.599515,35.367525 57.599515,35.266027 L 57.599515,30.802669 C 57.599515,30.701171 57.517804,30.619459 57.416306,30.619459 L 52.952947,30.619459 z " />
  <metadata
     id="metadata20">
    <rdf:RDF
       id="RDF21">
      <cc:Work
         rdf:about=""
         id="Work22">
        <dc:format
           id="format23">image/svg+xml</dc:format>
        <dc:type
           id="type25"
           rdf:resource="http://purl.org/dc/dcmitype/StillImage" />
      </cc:Work>
    </rdf:RDF>
  </metadata>
  <g
     id="g1604"
     transform="translate(-49.76710,-0.263192)">
    <path
       style="fill:none;fill-opacity:0.75000000;fill-rule:evenodd;stroke:#4c4c4c;stroke-width:1.8750000;stroke-linecap:round;stroke-linejoin:round;stroke-miterlimit:4.0000000;stroke-opacity:1.0000000;"
       d="M 77.768065,14.039027 L 77.768065,33.033465 L 96.653340,33.033465"
       sodipodi:nodetypes="ccc"
       sodipodi:stroke-cmyk="(0.0000000 0.0000000 0.0000000 0.69999999)"
       id="path966" />
    <path
       style="fill:#b3b3b3;fill-opacity:1.0000000;fill-rule:evenodd;stroke:#4c4c4c;stroke-width:1.2500000;stroke-linecap:round;stroke-linejoin:round;stroke-miterlimit:4.0000000;stroke-opacity:1.0000000;"
       d="M 78.284864,16.113131 C 78.179988,16.113131 78.095556,16.197563 78.095556,16.302440 L 78.095556,32.625830 C 78.095556,32.730706 78.179988,32.815138 78.284864,32.815138 L 82.709439,32.815138 C 82.814316,32.815138 82.898747,32.730706 82.898747,32.625830 L 82.898747,16.302440 C 82.898747,16.197563 82.814316,16.113131 82.709439,16.113131 L 78.284864,16.113131 z "
       id="path967" />
    <path
       style="fill:#8c8c8c;fill-opacity:1.0000000;fill-rule:evenodd;stroke:#4c4c4c;stroke-width:1.2500000;stroke-linecap:round;stroke-linejoin:round;stroke-miterlimit:4.0000000;stroke-opacity:1.0000000;"
       d="M 84.767200,23.791066 C 84.662323,23.791066 84.577892,23.837603 84.577892,23.895410 L 84.577892,32.892617 C 84.577892,32.950423 84.662323,32.996961 84.767200,32.996961 L 89.191775,32.996961 C 89.296651,32.996961 89.381083,32.950423 89.381083,32.892617 L 89.381083,23.895410 C 89.381083,23.837603 89.296651,23.791066 89.191775,23.791066 L 84.767200,23.791066 z "
       id="path968" />
    <path
       style="fill:#7f7f7f;fill-opacity:1.0000000;fill-rule:evenodd;stroke:#4c4c4c;stroke-width:1.2500000;stroke-linecap:round;stroke-linejoin:round;stroke-miterlimit:4.0000000;stroke-opacity:1.0000000;"
       d="M 91.215801,19.868405 C 91.110923,19.868405 91.026492,19.987746 91.026492,20.135984 L 91.026492,32.612999 C 91.026492,32.761239 91.110923,32.880578 91.215801,32.880578 L 95.640375,32.880578 C 95.745252,32.880578 95.829683,32.761239 95.829683,32.612999 L 95.829683,20.135984 C 95.829683,19.987746 95.745252,19.868405 95.640375,19.868405 L 91.215801,19.868405 z "
       id="path969" />
    <path
       sodipodi:rx="25.912205"
       sodipodi:ry="25.912205"
       style="fill:#b3b3b3;fill-rule:evenodd;stroke:none;stroke-width:3.1469119;stroke-linecap:round;stroke-linejoin:round;stroke-opacity:1.0000000;"
       sodipodi:type="arc"
       d="M 57.222784 32.828175 A 25.912205 25.912205 0 1 0 5.3983746,32.828175 A 25.912205 25.912205 0 1 0 57.222784 32.828175 z"
       transform="matrix(0.455222,0.000000,0.000000,0.455222,61.16199,20.00535)"
       sodipodi:cy="32.828175"
       sodipodi:cx="31.310579"
       id="path993" />
    <path
       sodipodi:rx="25.912205"
       sodipodi:ry="25.912205"
       style="fill:#7f7f7f;fill-rule:evenodd;stroke:none;stroke-width:3.1469119;stroke-linecap:round;stroke-linejoin:round;stroke-opacity:1.0000000;"
       sodipodi:type="arc"
       d="M 57.222784,32.828175 A 25.912205,25.912205 0 1 1 38.848185,8.0365056 L 31.310579,32.828175 z"
       transform="matrix(0.455222,0.000000,0.000000,0.455222,61.16199,20.00535)"
       sodipodi:cy="32.828175"
       sodipodi:cx="31.310579"
       sodipodi:end="5.0075461"
       id="path994"
       sodipodi:start="0.0000000" />
    <path
       sodipodi:rx="25.912205"
       sodipodi:ry="25.912205"
       style="fill:#4c4c4c;fill-rule:evenodd;stroke:none;stroke-width:3.1469119;stroke-linecap:round;stroke-linejoin:round;stroke-opacity:1.0000000;"
       sodipodi:type="arc"
       d="M 8.2226047,44.592008 A 25.912205,25.912205 0 0 1 38.848175,8.0365026 L 31.310579,32.828175 z"
       transform="matrix(0.455222,0.000000,0.000000,0.455222,61.16199,20.00535)"
       sodipodi:cy="32.828175"
       sodipodi:cx="31.310579"
       sodipodi:end="5.0075457"
       id="path995"
       sodipodi:start="2.6703564" />
    <path
       style="fill:none;fill-rule:evenodd;stroke:#333333;stroke-width:4.0901890;stroke-linecap:round;stroke-linejoin:round;stroke-miterlimit:4.0000000;stroke-opacity:1.0000000;"
       d="M 55.620400,30.116991 C 55.620400,44.320933 44.092560,55.848769 29.888620,55.848769 C 15.684682,55.848769 4.1568460,44.320933 4.1568460,30.116991 C 4.1568460,15.913050 15.684682,4.3852129 29.888620,4.3852129 C 44.065170,4.3852129 55.577340,15.862556 55.620280,30.039039"
       id="path1558"
       transform="matrix(0.458414,0.000000,0.000000,0.458414,61.71390,21.14342)" />
    <path
       style="fill:none;fill-rule:evenodd;stroke:#333333;stroke-width:4.0901890;stroke-linecap:round;stroke-linejoin:round;stroke-miterlimit:4.0000000;stroke-opacity:1.0000000;"
       d="M 37.013840,6.2177268 L 29.888620,30.116991 L 6.9614110,41.798913"
       id="path1559"
       sodipodi:nodetypes="ccc"
       transform="matrix(0.458414,0.000000,0.000000,0.458414,61.71390,21.14342)" />
    <path
       style="fill:none;fill-rule:evenodd;stroke:#333333;stroke-width:4.0901890;stroke-linecap:round;stroke-linejoin:round;stroke-miterlimit:4.0000000;stroke-opacity:1.0000000;"
       d="M 55.620400,30.116991 L 29.888620,30.116991 L 55.620400,30.116991 z "
       id="path1575"
       sodipodi:nodetypes="ccc"
       transform="matrix(0.458414,0.000000,0.000000,0.458414,61.71390,21.14342)" />
  </g>
</svg>
