<?xml version="1.0" encoding="UTF-8" standalone="no"?>
<!DOCTYPE svg PUBLIC "-//W3C//DTD SVG 20010904//EN"
"http://www.w3.org/TR/2001/REC-SVG-20010904/DTD/svg10.dtd">
<svg
   sodipodi:docname="frame_spreadsheet.svg"
   height="60.0000000"
   sodipodi:version="0.32"
   width="60.0000000"
   _SVGFile__filename="scalable/actions/frame_spreadsheet.svg"
   version="1.0"
   y="0"
   x="0"
   inkscape:version="0.39"
   id="svg1"
   sodipodi:docbase="/home/danny/work/flat/newscale/actions"
   xmlns="http://www.w3.org/2000/svg"
   xmlns:cc="http://web.resource.org/cc/"
   xmlns:inkscape="http://www.inkscape.org/namespaces/inkscape"
   xmlns:sodipodi="http://sodipodi.sourceforge.net/DTD/sodipodi-0.dtd"
   xmlns:rdf="http://www.w3.org/1999/02/22-rdf-syntax-ns#"
   xmlns:dc="http://purl.org/dc/elements/1.1/"
   xmlns:xlink="http://www.w3.org/1999/xlink">
  <sodipodi:namedview
     bordercolor="#666666"
     inkscape:pageshadow="2"
     inkscape:window-y="0"
     pagecolor="#ffffff"
     inkscape:window-height="685"
     inkscape:zoom="6.9465337"
     inkscape:window-x="0"
     borderopacity="1.0"
     inkscape:cx="32.470847"
     inkscape:cy="17.130398"
     inkscape:window-width="1016"
     inkscape:pageopacity="0.0"
     id="base" />
  <defs
     id="defs3" />
  <rect
     style="fill:#cccccc;fill-opacity:1.0000000;fill-rule:evenodd;stroke:#333333;stroke-width:3.0684409;stroke-dasharray:3.0684409,3.0684409;stroke-linejoin:round;stroke-linecap:round;stroke-dashoffset:0.0000000;stroke-opacity:1.0000000;"
     rx="2"
     transform="matrix(0.951530,0.000000,0.000000,1.090039,1.689295,-2.320514)"
     height="39.588089"
     width="52.724136"
     sodipodi:stroke-cmyk="(0.0000000 0.0000000 0.0000000 0.80000001)"
     y="9.9750500"
     x="3.7788632"
     id="rect828" />
  <path
     transform="matrix(1.166964,0.000000,0.000000,1.166964,-2.266273,-9.022778e-2)"
     style="fill:#575757;fill-opacity:1.0000000;fill-rule:evenodd;stroke:#333333;stroke-width:1.6067334;stroke-linejoin:round;stroke-opacity:1.0000000;"
     d="M 4.6556433,5.4764037 C 4.5686672,5.4764037 4.4986467,5.5464242 4.4986467,5.6334003 L 4.4986467,9.4581620 C 4.4986467,9.5451381 4.5686672,9.6151586 4.6556433,9.6151586 L 8.4804050,9.6151586 C 8.5673811,9.6151586 8.6374016,9.5451381 8.6374016,9.4581620 L 8.6374016,5.6334003 C 8.6374016,5.5464242 8.5673811,5.4764037 8.4804050,5.4764037 L 4.6556433,5.4764037 z "
     id="rect829" />
  <path
     transform="translate(0.179946,-3.418972)"
     style="fill:#575757;fill-opacity:1.0000000;fill-rule:evenodd;stroke:#333333;stroke-width:1.8750000;stroke-linejoin:round;stroke-opacity:1.0000000;"
     d="M 52.773000,9.7195101 C 52.671502,9.7195101 52.589790,9.8012215 52.589790,9.9027195 L 52.589790,14.366078 C 52.589790,14.467576 52.671502,14.549288 52.773000,14.549288 L 57.236359,14.549288 C 57.337857,14.549288 57.419568,14.467576 57.419568,14.366078 L 57.419568,9.9027195 C 57.419568,9.8012215 57.337857,9.7195101 57.236359,9.7195101 L 52.773000,9.7195101 z "
     id="rect830" />
  <path
     transform="translate(0.359892,-3.418972)"
     style="fill:#575757;fill-opacity:1.0000000;fill-rule:evenodd;stroke:#333333;stroke-width:1.8750000;stroke-linejoin:round;stroke-opacity:1.0000000;"
     d="M 28.149791,9.7195101 C 28.048293,9.7195101 27.966581,9.8012215 27.966581,9.9027195 L 27.966581,14.366078 C 27.966581,14.467576 28.048293,14.549288 28.149791,14.549288 L 32.613150,14.549288 C 32.714648,14.549288 32.796359,14.467576 32.796359,14.366078 L 32.796359,9.9027195 C 32.796359,9.8012215 32.714648,9.7195101 32.613150,9.7195101 L 28.149791,9.7195101 z "
     id="rect832" />
  <path
     transform="translate(0.000000,0.539837)"
     style="fill:#575757;fill-opacity:1.0000000;fill-rule:evenodd;stroke:#333333;stroke-width:1.8750000;stroke-linejoin:round;stroke-opacity:1.0000000;"
     d="M 3.1666951,48.695896 C 3.0651971,48.695896 2.9834857,48.777608 2.9834857,48.879106 L 2.9834857,53.342464 C 2.9834857,53.443962 3.0651971,53.525674 3.1666951,53.525674 L 7.6300540,53.525674 C 7.7315520,53.525674 7.8132634,53.443962 7.8132634,53.342464 L 7.8132634,48.879106 C 7.8132634,48.777608 7.7315520,48.695896 7.6300540,48.695896 L 3.1666951,48.695896 z "
     id="rect833" />
  <path
     transform="translate(0.000000,0.539837)"
     style="fill:#575757;fill-opacity:1.0000000;fill-rule:evenodd;stroke:#333333;stroke-width:1.8750000;stroke-linejoin:round;stroke-opacity:1.0000000;"
     d="M 52.952947,48.695896 C 52.851449,48.695896 52.769737,48.777608 52.769737,48.879106 L 52.769737,53.342464 C 52.769737,53.443962 52.851449,53.525674 52.952947,53.525674 L 57.416306,53.525674 C 57.517804,53.525674 57.599515,53.443962 57.599515,53.342464 L 57.599515,48.879106 C 57.599515,48.777608 57.517804,48.695896 57.416306,48.695896 L 52.952947,48.695896 z "
     id="rect834" />
  <path
     transform="translate(0.000000,0.539837)"
     style="fill:#575757;fill-opacity:1.0000000;fill-rule:evenodd;stroke:#333333;stroke-width:1.8750000;stroke-linejoin:round;stroke-opacity:1.0000000;"
     d="M 28.509683,48.695896 C 28.408185,48.695896 28.326473,48.777608 28.326473,48.879106 L 28.326473,53.342464 C 28.326473,53.443962 28.408185,53.525674 28.509683,53.525674 L 32.973042,53.525674 C 33.074540,53.525674 33.156251,53.443962 33.156251,53.342464 L 33.156251,48.879106 C 33.156251,48.777608 33.074540,48.695896 32.973042,48.695896 L 28.509683,48.695896 z "
     id="rect835" />
  <path
     transform="translate(0.000000,-3.059080)"
     style="fill:#575757;fill-opacity:1.0000000;fill-rule:evenodd;stroke:#333333;stroke-width:1.8750000;stroke-linejoin:round;stroke-opacity:1.0000000;"
     d="M 3.1666951,30.619459 C 3.0651971,30.619459 2.9834857,30.701171 2.9834857,30.802669 L 2.9834857,35.266027 C 2.9834857,35.367525 3.0651971,35.449237 3.1666951,35.449237 L 7.6300540,35.449237 C 7.7315520,35.449237 7.8132634,35.367525 7.8132634,35.266027 L 7.8132634,30.802669 C 7.8132634,30.701171 7.7315520,30.619459 7.6300540,30.619459 L 3.1666951,30.619459 z "
     id="rect836" />
  <path
     transform="translate(0.000000,-3.059080)"
     style="fill:#575757;fill-opacity:1.0000000;fill-rule:evenodd;stroke:#333333;stroke-width:1.8750000;stroke-linejoin:round;stroke-opacity:1.0000000;"
     d="M 52.952947,30.619459 C 52.851449,30.619459 52.769737,30.701171 52.769737,30.802669 L 52.769737,35.266027 C 52.769737,35.367525 52.851449,35.449237 52.952947,35.449237 L 57.416306,35.449237 C 57.517804,35.449237 57.599515,35.367525 57.599515,35.266027 L 57.599515,30.802669 C 57.599515,30.701171 57.517804,30.619459 57.416306,30.619459 L 52.952947,30.619459 z "
     id="rect837" />
  <g
     id="g1566"
     transform="translate(-4.123865e-2,-0.110121)">
    <rect
       style="fill:#b3b3b3;fill-opacity:1.0000000;fill-rule:evenodd;stroke-width:3.1250000;"
       rx="1.8930138"
       transform="matrix(0.950000,0.000000,0.000000,0.950000,-46.15043,1.853851)"
       height="26.289377"
       width="36.425095"
       y="16.734501"
       x="62.377941"
       id="rect831"
       ry="1.8930138" />
    <path
       style="fill:none;fill-opacity:0.75000000;fill-rule:evenodd;stroke:#333333;stroke-width:1.9736842;stroke-linecap:round;stroke-linejoin:round;stroke-dashoffset:0.0000000;"
       transform="matrix(0.950000,0.000000,0.000000,0.950000,-46.15043,1.853851)"
       d="M 62.582439,25.580581 L 98.635731,25.580581"
       sodipodi:stroke-cmyk="(0.0000000 0.0000000 0.0000000 0.80000001)"
       id="path832" />
    <path
       style="fill:none;fill-opacity:0.75000000;fill-rule:evenodd;stroke:#333333;stroke-width:1.9736842;stroke-linecap:round;stroke-linejoin:round;stroke-dashoffset:0.0000000;"
       transform="matrix(0.950000,0.000000,0.000000,0.950000,-46.15043,1.853851)"
       d="M 80.423240,17.110874 L 80.423240,42.802271"
       sodipodi:stroke-cmyk="(0.0000000 0.0000000 0.0000000 0.80000001)"
       id="path833" />
    <path
       style="fill:none;fill-opacity:0.75000000;fill-rule:evenodd;stroke:#333333;stroke-width:1.9736842;stroke-linecap:round;stroke-linejoin:round;stroke-dashoffset:0.0000000;"
       transform="matrix(0.950000,0.000000,0.000000,0.950000,-46.15043,1.853851)"
       d="M 62.582439,34.196278 L 98.635731,34.196278"
       sodipodi:stroke-cmyk="(0.0000000 0.0000000 0.0000000 0.80000001)"
       id="path834" />
    <path
       transform="matrix(0.950000,0.000000,0.000000,0.950000,-46.15043,1.853851)"
       style="fill:none;fill-rule:evenodd;stroke:#333333;stroke-width:2.6315789;stroke-linecap:round;stroke-linejoin:round;"
       d="M 64.365919,16.734501 C 63.264579,16.734501 62.377941,17.621139 62.377941,18.722478 L 62.377941,41.035901 C 62.377941,42.137240 63.264579,43.023878 64.365919,43.023878 L 96.815058,43.023878 C 97.916398,43.023878 98.803036,42.137240 98.803036,41.035901 L 98.803036,18.722478 C 98.803036,17.621139 97.916398,16.734501 96.815058,16.734501 L 64.365919,16.734501 z "
       id="rect853" />
  </g>
  <metadata
     id="metadata18">
    <rdf:RDF
       id="RDF19">
      <cc:Work
         rdf:about=""
         id="Work20">
        <dc:title
           id="title21">Part of the Flat Icon Collection (Thu Aug 26 14:38:01 2004)</dc:title>
        <dc:description
           id="description23" />
        <dc:subject
           id="subject24">
          <rdf:Bag
             id="Bag25">
            <rdf:li
               id="li26" />
          </rdf:Bag>
        </dc:subject>
        <dc:publisher
           id="publisher27">
          <cc:Agent
             rdf:about=""
             id="Agent28">
            <dc:title
               id="title29" />
          </cc:Agent>
        </dc:publisher>
        <dc:creator
           id="creator30">
          <cc:Agent
             rdf:about=""
             id="Agent31">
            <dc:title
               id="title32">Danny Allen</dc:title>
          </cc:Agent>
        </dc:creator>
        <dc:rights
           id="rights34">
          <cc:Agent
             rdf:about=""
             id="Agent35">
            <dc:title
               id="title36">Danny Allen</dc:title>
          </cc:Agent>
        </dc:rights>
        <dc:date
           id="date38" />
        <dc:format
           id="format39">image/svg+xml</dc:format>
        <dc:type
           rdf:resource="http://purl.org/dc/dcmitype/StillImage"
           id="type41" />
        <cc:license
           rdf:resource="http://creativecommons.org/licenses/LGPL/2.1/"
           id="license42">
          <dc:date
             id="date43" />
        </cc:license>
        <dc:language
           id="language44">en</dc:language>
      </cc:Work>
    </rdf:RDF>
  </metadata>
</svg>
