<?xml version="1.0" encoding="UTF-8" standalone="no"?>
<!DOCTYPE svg PUBLIC "-//W3C//DTD SVG 20010904//EN"
"http://www.w3.org/TR/2001/REC-SVG-20010904/DTD/svg10.dtd">
<svg
   sodipodi:docname="gg_invi.svg"
   height="60.0000000"
   sodipodi:version="0.32"
   width="60.0000000"
   _SVGFile__filename="scalable/actions/gg_invi.svg"
   version="1.0"
   y="0"
   x="0"
   inkscape:version="0.39"
   id="svg1"
   sodipodi:docbase="/home/danny/work/flat/newscale/actions"
   xmlns="http://www.w3.org/2000/svg"
   xmlns:cc="http://web.resource.org/cc/"
   xmlns:inkscape="http://www.inkscape.org/namespaces/inkscape"
   xmlns:sodipodi="http://sodipodi.sourceforge.net/DTD/sodipodi-0.dtd"
   xmlns:rdf="http://www.w3.org/1999/02/22-rdf-syntax-ns#"
   xmlns:dc="http://purl.org/dc/elements/1.1/"
   xmlns:xlink="http://www.w3.org/1999/xlink">
  <sodipodi:namedview
     bordercolor="#666666"
     inkscape:pageshadow="2"
     inkscape:window-y="0"
     pagecolor="#ffffff"
     inkscape:window-height="685"
     inkscape:zoom="6.9465337"
     inkscape:window-x="0"
     borderopacity="1.0"
     inkscape:cx="42.359491"
     inkscape:cy="21.841083"
     inkscape:window-width="1016"
     inkscape:pageopacity="0.0"
     id="base" />
  <defs
     id="defs3" />
  <path
     transform="translate(1.382528e-7,-1.079676)"
     style="fill:#b3b3b3;fill-opacity:1.0000000;fill-rule:evenodd;stroke:#333333;stroke-width:1.8750000;stroke-linecap:round;stroke-linejoin:round;stroke-dasharray:1.8750000 3.7500000 ;stroke-dashoffset:0.0000000;stroke-opacity:1.0000000;"
     d="M 29.871013,3.6769452 C 26.481552,3.6769452 23.752853,7.2449452 23.752853,11.676945 L 23.752853,50.920323 C 23.752853,55.352323 26.481552,58.920323 29.871013,58.920323 C 33.260473,58.920323 35.989172,55.352323 35.989172,50.920323 L 35.989172,11.676945 C 35.989172,7.2449452 33.260473,3.6769452 29.871013,3.6769452 z "
     id="rect826" />
  <path
     transform="matrix(0.000000,1.000000,-1.000000,0.000000,61.16964,0.347944)"
     style="fill:#b3b3b3;fill-opacity:1.0000000;fill-rule:evenodd;stroke:#333333;stroke-width:1.8750000;stroke-linecap:round;stroke-linejoin:round;stroke-dasharray:1.8750000 3.7500000 ;stroke-dashoffset:0.0000000;stroke-opacity:1.0000000;"
     d="M 29.871013,3.6769452 C 26.481552,3.6769452 23.752853,7.2449452 23.752853,11.676945 L 23.752853,50.920323 C 23.752853,55.352323 26.481552,58.920323 29.871013,58.920323 C 33.260473,58.920323 35.989172,55.352323 35.989172,50.920323 L 35.989172,11.676945 C 35.989172,7.2449452 33.260473,3.6769452 29.871013,3.6769452 z "
     id="rect827" />
  <path
     transform="matrix(-0.707107,0.707107,-0.707107,-0.707107,73.12448,31.22844)"
     style="fill:#b3b3b3;fill-opacity:1.0000000;fill-rule:evenodd;stroke:#333333;stroke-width:1.8749994;stroke-linecap:round;stroke-linejoin:round;stroke-dasharray:1.8749994 3.7499988 ;stroke-dashoffset:0.0000000;stroke-opacity:1.0000000;"
     d="M 29.871013,3.6769452 C 26.481552,3.6769452 23.752853,7.2449452 23.752853,11.676945 L 23.752853,50.920323 C 23.752853,55.352323 26.481552,58.920323 29.871013,58.920323 C 33.260473,58.920323 35.989172,55.352323 35.989172,50.920323 L 35.989172,11.676945 C 35.989172,7.2449452 33.260473,3.6769452 29.871013,3.6769452 z "
     id="rect828" />
  <path
     transform="matrix(-0.707107,-0.707107,0.707107,-0.707107,28.86151,73.47244)"
     style="fill:#b3b3b3;fill-opacity:1.0000000;fill-rule:evenodd;stroke:#333333;stroke-width:1.8749994;stroke-linecap:round;stroke-linejoin:round;stroke-dasharray:1.8749994,3.7499988;stroke-dashoffset:0.0000000;stroke-opacity:1.0000000;stroke-miterlimit:4.0000000;"
     d="M 29.871013,3.6769452 C 26.481552,3.6769452 23.752853,7.2449452 23.752853,11.676945 L 23.752853,50.920323 C 23.752853,55.352323 26.481552,58.920323 29.871013,58.920323 C 33.260473,58.920323 35.989172,55.352323 35.989172,50.920323 L 35.989172,11.676945 C 35.989172,7.2449452 33.260473,3.6769452 29.871013,3.6769452 z "
     id="rect829" />
  <path
     sodipodi:rx="20.153936"
     sodipodi:ry="20.153936"
     style="fill:#ffffff;fill-opacity:1.0000000;fill-rule:evenodd;stroke:none;stroke-width:1.0000000pt;"
     sodipodi:type="arc"
     d="M 53.084028 33.727905 A 20.153936 20.153936 0 1 0 12.776155,33.727905 A 20.153936 20.153936 0 1 0 53.084028 33.727905 z"
     transform="translate(-2.879134,-3.059080)"
     sodipodi:cy="33.727905"
     sodipodi:cx="32.930092"
     id="path831" />
  <path
     style="font-size:12;fill:#cccccc;fill-rule:evenodd;stroke:#333333;stroke-width:3.2092137;fill-opacity:1.0000000;stroke-dasharray:3.2092137,6.4184275;stroke-linecap:round;stroke-linejoin:round;stroke-dashoffset:0.0000000;"
     transform="matrix(4.223006e-20,0.779007,-0.779007,4.223006e-20,53.33830,6.887360)"
     d="M 30.156250 2.750000 C 15.055298 2.750000 2.812500 14.992798 2.812500 30.093750 C 2.812500 45.194702 15.055298 57.468749 30.156250 57.468750 C 45.257202 57.468750 57.500001 45.194702 57.500000 30.093750 C 57.500000 14.992798 45.257202 2.750000 30.156250 2.750000 z M 40.718750 12.000000 C 41.350093 11.995952 41.913661 12.226795 42.406250 12.687500 C 42.898757 13.135321 43.344464 13.830352 43.750000 14.781250 C 44.639370 16.837165 45.350496 19.144891 45.843750 21.718750 C 46.349807 24.279641 46.608062 26.889911 46.625000 29.531250 C 46.640450 31.940667 46.441156 34.332376 46.031250 36.718750 C 45.621260 39.092239 45.016681 41.374320 44.218750 43.531250 C 43.737483 44.835734 43.230580 45.755158 42.718750 46.312500 C 42.219803 46.869758 41.651633 47.151871 40.968750 47.156250 C 40.195674 47.161206 39.565885 46.935267 39.125000 46.500000 C 38.697084 46.077536 38.504957 45.491825 38.500000 44.718750 C 38.499008 44.564135 38.942858 42.830336 39.875000 39.500000 C 40.807143 36.169665 41.271069 32.848068 41.250000 29.562500 C 41.228765 26.251162 40.724693 22.961473 39.750000 19.656250 C 38.775225 16.338142 38.282076 14.597596 38.281250 14.468750 C 38.276210 13.682790 38.483785 13.084168 38.906250 12.656250 C 39.341599 12.228250 39.945675 12.004957 40.718750 12.000000 z M 21.687500 13.406250 C 24.813046 13.406250 27.343750 15.968204 27.343750 19.093750 C 27.343749 22.219297 24.813046 24.750000 21.687500 24.750000 C 18.561953 24.750000 16.031250 22.219296 16.031250 19.093750 C 16.031249 15.968204 18.561954 13.406250 21.687500 13.406250 z M 21.687500 35.812500 C 24.813046 35.812501 27.343750 38.374454 27.343750 41.500000 C 27.343749 44.625546 24.813046 47.156250 21.687500 47.156250 C 18.561953 47.156251 16.031250 44.625546 16.031250 41.500000 C 16.031249 38.374453 18.561954 35.812500 21.687500 35.812500 z "
     id="path592" />
  <metadata
     id="metadata10">
    <rdf:RDF
       id="RDF11">
      <cc:Work
         rdf:about=""
         id="Work12">
        <dc:title
           id="title13">Part of the Flat Icon Collection (Thu Aug 26 14:38:01 2004)</dc:title>
        <dc:description
           id="description15" />
        <dc:subject
           id="subject16">
          <rdf:Bag
             id="Bag17">
            <rdf:li
               id="li18" />
          </rdf:Bag>
        </dc:subject>
        <dc:publisher
           id="publisher19">
          <cc:Agent
             rdf:about=""
             id="Agent20">
            <dc:title
               id="title21" />
          </cc:Agent>
        </dc:publisher>
        <dc:creator
           id="creator22">
          <cc:Agent
             rdf:about=""
             id="Agent23">
            <dc:title
               id="title24">Danny Allen</dc:title>
          </cc:Agent>
        </dc:creator>
        <dc:rights
           id="rights26">
          <cc:Agent
             rdf:about=""
             id="Agent27">
            <dc:title
               id="title28">Danny Allen</dc:title>
          </cc:Agent>
        </dc:rights>
        <dc:date
           id="date30" />
        <dc:format
           id="format31">image/svg+xml</dc:format>
        <dc:type
           rdf:resource="http://purl.org/dc/dcmitype/StillImage"
           id="type33" />
        <cc:license
           rdf:resource="http://creativecommons.org/licenses/LGPL/2.1/"
           id="license34">
          <dc:date
             id="date35" />
        </cc:license>
        <dc:language
           id="language36">en</dc:language>
      </cc:Work>
    </rdf:RDF>
  </metadata>
</svg>
