<?xml version="1.0" encoding="UTF-8" standalone="no"?>
<!DOCTYPE svg PUBLIC "-//W3C//DTD SVG 20010904//EN"
"http://www.w3.org/TR/2001/REC-SVG-20010904/DTD/svg10.dtd">
<svg
   sodipodi:docname="gg_offline.svg"
   height="60.0000000"
   sodipodi:version="0.32"
   width="60.0000000"
   _SVGFile__filename="scalable/actions/gg_offline.svg"
   version="1.0"
   y="0"
   x="0"
   inkscape:version="0.39"
   id="svg1"
   sodipodi:docbase="/home/danny/work/flat/newscale/actions"
   xmlns="http://www.w3.org/2000/svg"
   xmlns:cc="http://web.resource.org/cc/"
   xmlns:inkscape="http://www.inkscape.org/namespaces/inkscape"
   xmlns:sodipodi="http://sodipodi.sourceforge.net/DTD/sodipodi-0.dtd"
   xmlns:rdf="http://www.w3.org/1999/02/22-rdf-syntax-ns#"
   xmlns:dc="http://purl.org/dc/elements/1.1/"
   xmlns:xlink="http://www.w3.org/1999/xlink">
  <sodipodi:namedview
     bordercolor="#666666"
     inkscape:pageshadow="2"
     inkscape:window-y="0"
     pagecolor="#ffffff"
     inkscape:window-height="685"
     inkscape:zoom="6.9465337"
     inkscape:window-x="0"
     borderopacity="1.0"
     inkscape:cx="42.359491"
     inkscape:cy="21.841083"
     inkscape:window-width="1016"
     inkscape:pageopacity="0.0"
     id="base"
     showguides="true"
     inkscape:guide-bbox="true" />
  <defs
     id="defs3" />
  <path
     style="fill:#7f7f7f;fill-opacity:1.0000000;fill-rule:evenodd;stroke:#333333;stroke-width:1.8749994;stroke-opacity:1.0000000;stroke-dasharray:none;stroke-linejoin:round;stroke-linecap:round;"
     d="M 13.125000 9.4062500 C 12.074688 9.5840717 11.094412 9.9368379 10.343750 10.687500 C 7.9470388 13.084211 8.5223518 17.522352 11.656250 20.656250 L 22.406250 31.406250 L 21.656250 28.937500 L 13.125000 9.4062500 z M 31.562500 23.281250 L 31.031250 30.000000 L 50.687500 44.687500 C 50.379775 42.989106 49.529182 41.247932 48.062500 39.781250 L 31.562500 23.281250 z "
     id="path835" />
  <path
     style="fill:#7f7f7f;fill-opacity:1.0000000;fill-rule:evenodd;stroke:#333333;stroke-width:1.8750000;stroke-opacity:1.0000000;stroke-dasharray:none;stroke-linecap:round;stroke-linejoin:round;"
     d="M 33.125000 3.9687500 L 31.031250 30.000000 L 36.000000 33.718750 L 36.000000 10.593750 C 35.999999 7.7626964 34.812814 5.3899433 33.125000 3.9687500 z M 23.750000 35.750000 L 23.750000 49.843750 C 23.750000 54.275748 26.485540 57.843750 29.875000 57.843750 C 30.097269 57.843750 30.283997 57.717424 30.500000 57.687500 L 23.750000 35.750000 z "
     id="path833" />
  <path
     transform="matrix(0.000000,1.000000,-1.000000,0.000000,61.16964,0.347944)"
     style="fill:#7f7f7f;fill-opacity:1.0000000;fill-rule:evenodd;stroke:#333333;stroke-width:1.8750000;stroke-opacity:1.0000000;stroke-linejoin:round;"
     d="M 29.871013,3.6769452 C 26.481552,3.6769452 23.752853,7.2449452 23.752853,11.676945 L 23.752853,50.920323 C 23.752853,55.352323 26.481552,58.920323 29.871013,58.920323 C 33.260473,58.920323 35.989172,55.352323 35.989172,50.920323 L 35.989172,11.676945 C 35.989172,7.2449452 33.260473,3.6769452 29.871013,3.6769452 z "
     id="rect827" />
  <path
     transform="matrix(-0.707107,-0.707107,0.707107,-0.707107,28.86151,73.47244)"
     style="fill:#7f7f7f;fill-opacity:1.0000000;fill-rule:evenodd;stroke:#333333;stroke-width:1.8749994;stroke-opacity:1.0000000;stroke-linejoin:round;"
     d="M 29.871013,3.6769452 C 26.481552,3.6769452 23.752853,7.2449452 23.752853,11.676945 L 23.752853,50.920323 C 23.752853,55.352323 26.481552,58.920323 29.871013,58.920323 C 33.260473,58.920323 35.989172,55.352323 35.989172,50.920323 L 35.989172,11.676945 C 35.989172,7.2449452 33.260473,3.6769452 29.871013,3.6769452 z "
     id="rect829" />
  <path
     sodipodi:rx="20.153936"
     sodipodi:ry="20.153936"
     style="fill:#ffffff;fill-opacity:1.0000000;fill-rule:evenodd;stroke:none;stroke-width:1.0000000pt;"
     sodipodi:type="arc"
     d="M 53.084028 33.727905 A 20.153936 20.153936 0 1 0 12.776155,33.727905 A 20.153936 20.153936 0 1 0 53.084028 33.727905 z"
     transform="translate(-2.879139,-3.059081)"
     sodipodi:cy="33.727905"
     sodipodi:cx="32.930092"
     id="path831" />
  <path
     style="font-size:12;fill:#b3b3b3;fill-rule:evenodd;stroke:#333333;stroke-width:2.5000000;fill-opacity:1;stroke-dasharray:none;stroke-linejoin:round;stroke-linecap:round;"
     d="M 32.687500 9.3437500 L 31.031250 30.000000 L 40.593750 37.125000 C 40.961914 37.023477 42.025954 36.718984 42.062500 36.718750 C 42.674768 36.714824 43.135399 36.858397 43.468750 37.187500 C 43.802165 37.526639 43.996138 37.991519 44.000000 38.593750 C 44.001989 38.903841 43.798759 39.170011 43.656250 39.437500 L 47.531250 42.312500 C 49.843191 38.905666 51.187500 34.802237 51.187500 30.375000 C 51.187501 19.566071 43.120075 10.722035 32.687500 9.3437500 z M 15.468750 14.781250 C 11.251188 18.672824 8.5625004 24.189224 8.5625000 30.375000 C 8.5625002 41.702040 17.465160 50.890385 28.625000 51.562500 L 25.937500 42.843750 C 25.534442 42.790021 25.121320 42.819149 24.718750 42.750000 C 22.869786 42.430616 21.117764 41.965344 19.437500 41.343750 C 18.421299 40.968839 17.684173 40.554969 17.250000 40.156250 C 16.815892 39.767567 16.597161 39.344471 16.593750 38.812500 C 16.589890 38.210268 16.785924 37.718453 17.125000 37.375000 C 17.454102 37.041651 17.897769 36.878862 18.500000 36.875000 C 18.620446 36.874225 19.968145 37.211355 22.562500 37.937500 C 23.231130 38.124646 23.895139 38.205282 24.562500 38.343750 L 21.656250 28.937500 L 21.312500 28.125000 C 21.203787 28.133005 21.110674 28.187500 21.000000 28.187500 C 18.565177 28.187498 16.593750 26.216072 16.593750 23.781250 C 16.593750 22.522629 17.154723 21.396422 18.000000 20.593750 L 15.468750 14.781250 z M 38.468750 19.375000 C 40.903573 19.374999 42.906250 21.346428 42.906250 23.781250 C 42.906250 26.216073 40.903572 28.187500 38.468750 28.187500 C 36.033928 28.187498 34.062500 26.216072 34.062500 23.781250 C 34.062500 21.346427 36.033928 19.375000 38.468750 19.375000 z "
     id="path837" />
  <metadata
     id="metadata10">
    <rdf:RDF
       id="RDF11">
      <cc:Work
         rdf:about=""
         id="Work12">
        <dc:title
           id="title13">Part of the Flat Icon Collection (Thu Aug 26 14:38:01 2004)</dc:title>
        <dc:description
           id="description15" />
        <dc:subject
           id="subject16">
          <rdf:Bag
             id="Bag17">
            <rdf:li
               id="li18" />
          </rdf:Bag>
        </dc:subject>
        <dc:publisher
           id="publisher19">
          <cc:Agent
             rdf:about=""
             id="Agent20">
            <dc:title
               id="title21" />
          </cc:Agent>
        </dc:publisher>
        <dc:creator
           id="creator22">
          <cc:Agent
             rdf:about=""
             id="Agent23">
            <dc:title
               id="title24">Danny Allen</dc:title>
          </cc:Agent>
        </dc:creator>
        <dc:rights
           id="rights26">
          <cc:Agent
             rdf:about=""
             id="Agent27">
            <dc:title
               id="title28">Danny Allen</dc:title>
          </cc:Agent>
        </dc:rights>
        <dc:date
           id="date30" />
        <dc:format
           id="format31">image/svg+xml</dc:format>
        <dc:type
           rdf:resource="http://purl.org/dc/dcmitype/StillImage"
           id="type33" />
        <cc:license
           rdf:resource="http://creativecommons.org/licenses/LGPL/2.1/"
           id="license34">
          <dc:date
             id="date35" />
        </cc:license>
        <dc:language
           id="language36">en</dc:language>
      </cc:Work>
    </rdf:RDF>
  </metadata>
</svg>
