<?xml version="1.0" encoding="UTF-8" standalone="no"?>
<!DOCTYPE svg PUBLIC "-//W3C//DTD SVG 20010904//EN"
"http://www.w3.org/TR/2001/REC-SVG-20010904/DTD/svg10.dtd">
<svg
   sodipodi:docname="hdd_mount.svg"
   sodipodi:version="0.32"
   height="60.0000000"
   width="60.0000000"
   _SVGFile__filename="scalable/devices/hdd_mount.svg"
   version="1.0"
   y="0"
   x="0"
   inkscape:version="0.39"
   id="svg1"
   sodipodi:docbase="/home/danny/work/flat/newscale/devices"
   xmlns="http://www.w3.org/2000/svg"
   xmlns:cc="http://web.resource.org/cc/"
   xmlns:inkscape="http://www.inkscape.org/namespaces/inkscape"
   xmlns:sodipodi="http://sodipodi.sourceforge.net/DTD/sodipodi-0.dtd"
   xmlns:rdf="http://www.w3.org/1999/02/22-rdf-syntax-ns#"
   xmlns:dc="http://purl.org/dc/elements/1.1/"
   xmlns:xlink="http://www.w3.org/1999/xlink">
  <sodipodi:namedview
     bordercolor="#666666"
     inkscape:pageshadow="2"
     inkscape:window-y="0"
     pagecolor="#ffffff"
     inkscape:window-height="685"
     inkscape:zoom="9.8238822"
     inkscape:window-x="0"
     borderopacity="1.0"
     inkscape:cx="36.853442"
     inkscape:cy="21.508531"
     inkscape:window-width="1016"
     inkscape:pageopacity="0.0"
     id="base"
     showguides="true"
     inkscape:guide-bbox="true" />
  <defs
     id="defs3" />
  <metadata
     id="metadata9">
    <rdf:RDF
       id="RDF10">
      <cc:Work
         rdf:about=""
         id="Work11">
        <dc:format
           id="format12">image/svg+xml</dc:format>
        <dc:type
           id="type14"
           rdf:resource="http://purl.org/dc/dcmitype/StillImage" />
      </cc:Work>
    </rdf:RDF>
  </metadata>
  <path
     style="font-size:12.000000;fill:#7f7f7f;fill-opacity:1.0000000;fill-rule:evenodd;stroke:none;stroke-width:3.1250000;"
     d="M 16.426892,3.1185584 C 15.399793,3.1185584 14.572924,3.9454281 14.572924,4.9725264 L 14.572924,49.034469 C 14.572924,50.061567 15.399793,50.888437 16.426892,50.888437 L 49.873302,50.888437 C 50.900400,50.888437 51.727270,50.061567 51.727270,49.034469 L 51.727270,4.9725264 C 51.727270,3.9454281 50.900400,3.1185584 49.873302,3.1185584 L 16.426892,3.1185584 z "
     id="rect783" />
  <rect
     style="font-size:12.000000;fill:#b3b3b3;fill-opacity:1.0000000;fill-rule:evenodd;stroke:#333333;stroke-width:3.1250021;stroke-linecap:round;stroke-linejoin:round;stroke-opacity:1.0000000;"
     rx="1.8539680"
     height="47.769878"
     width="37.154346"
     sodipodi:stroke-cmyk="(0 0 0 0.8)"
     y="7.8070335"
     x="9.7572098"
     id="rect782"
     ry="1.8539680" />
  <path
     style="font-size:12.000000;fill:#cccccc;fill-opacity:1.0000000;fill-rule:evenodd;stroke:#333333;stroke-width:1.8750000;stroke-linecap:round;stroke-linejoin:round;stroke-miterlimit:4.0000000;stroke-dasharray:none;"
     d="M 21.073673,11.022731 L 21.073673,22.706496 C 16.446251,25.178961 13.188036,29.901779 13.188036,35.511613 C 13.188036,43.617497 19.768247,50.197710 27.874131,50.197708 C 35.980015,50.197708 42.560225,43.617497 42.560226,35.511613 C 42.560226,32.874690 41.680706,30.525386 40.462212,28.385602 L 40.462212,11.022731 L 21.073673,11.022731 z "
     sodipodi:stroke-cmyk="(0 0 0 0.8)"
     id="path621"
     transform="translate(0.460252,1.081753)" />
  <path
     style="font-size:12.000000;fill:#b3b3b3;fill-opacity:1.0000000;fill-rule:evenodd;stroke:#333333;stroke-width:1.2500000;stroke-linecap:round;stroke-linejoin:round;stroke-miterlimit:4.0000000;stroke-dasharray:none;"
     d="M 39.211887,35.618019 C 39.211887,41.826780 34.172893,46.865774 27.964132,46.865774 C 21.755372,46.865774 16.716378,41.826780 16.716378,35.618019 C 16.716378,29.409258 21.755372,24.370263 27.964132,24.370263 C 34.172893,24.370263 39.211887,29.409258 39.211887,35.618019 z "
     id="path619"
     transform="translate(0.460252,1.081753)" />
  <path
     style="font-size:12.000000;fill:#4c4c4c;fill-rule:evenodd;stroke:#4c4c4c;stroke-width:1.2500000;stroke-linecap:round;stroke-linejoin:round;stroke-miterlimit:4.0000000;stroke-dasharray:none;fill-opacity:1.0000000;stroke-opacity:1.0000000;"
     d="M 13.230895,49.550040 L 13.230895,52.153687 L 15.105521,52.153687 L 15.105521,49.550040 L 13.230895,49.550040 z "
     id="rect640" />
</svg>
