<?xml version="1.0" encoding="UTF-8" standalone="no"?>
<!DOCTYPE svg PUBLIC "-//W3C//DTD SVG 20010904//EN"
"http://www.w3.org/TR/2001/REC-SVG-20010904/DTD/svg10.dtd">
<svg
   sodipodi:docname="make_kdevelop.svg"
   height="60.0000000"
   sodipodi:version="0.32"
   width="60.0000000"
   _SVGFile__filename="scalable/actions/make_kdevelop.svg"
   version="1.0"
   y="0"
   x="0"
   inkscape:version="0.39"
   id="svg1"
   sodipodi:docbase="/home/danny/work/flat/newscale/actions"
   xmlns="http://www.w3.org/2000/svg"
   xmlns:cc="http://web.resource.org/cc/"
   xmlns:inkscape="http://www.inkscape.org/namespaces/inkscape"
   xmlns:sodipodi="http://sodipodi.sourceforge.net/DTD/sodipodi-0.dtd"
   xmlns:rdf="http://www.w3.org/1999/02/22-rdf-syntax-ns#"
   xmlns:dc="http://purl.org/dc/elements/1.1/"
   xmlns:xlink="http://www.w3.org/1999/xlink">
  <sodipodi:namedview
     bordercolor="#666666"
     inkscape:pageshadow="2"
     inkscape:window-y="0"
     pagecolor="#ffffff"
     inkscape:window-height="685"
     inkscape:zoom="6.9465337"
     inkscape:window-x="0"
     borderopacity="1.0"
     inkscape:cx="22.948053"
     inkscape:cy="24.624506"
     inkscape:window-width="1016"
     inkscape:pageopacity="0.0"
     id="base" />
  <defs
     id="defs3">
    <linearGradient
       id="linearGradient1160">
      <stop
         style="stop-color:#000;stop-opacity:1;"
         id="stop1161"
         offset="0" />
      <stop
         style="stop-color:#fff;stop-opacity:1;"
         id="stop1162"
         offset="1" />
    </linearGradient>
    <linearGradient
       xlink:href="#linearGradient1160"
       id="linearGradient1163" />
  </defs>
  <g
     id="g1696"
     transform="translate(-0.359892,-0.359892)">
    <path
       transform="matrix(0.650542,0.000000,0.000000,0.851470,20.93045,19.40692)"
       style="font-size:12.000000;fill:#cccccc;fill-opacity:1.0000000;fill-rule:evenodd;stroke:none;stroke-width:2.7315099;stroke-linecap:round;stroke-linejoin:round;"
       d="M 6.3261530,9.9924889 C 5.0146433,9.9924889 3.9588070,11.048325 3.9588070,12.359835 L 3.9588070,42.427383 C 3.9588070,43.738892 5.0146433,44.794729 6.3261530,44.794729 L 53.775738,44.794729 C 55.087247,44.794729 56.143084,43.738892 56.143084,42.427383 L 56.143084,12.359835 C 56.143084,11.048325 55.087247,9.9924889 53.775738,9.9924889 L 6.3261530,9.9924889 z "
       id="rect921"
       sodipodi:nodetypes="ccccccccc" />
    <path
       style="font-size:12.000000;fill:#7f7f7f;fill-rule:evenodd;stroke:none;stroke-width:3.1250000;stroke-linecap:round;stroke-linejoin:round;stroke-miterlimit:4.0000000;"
       d="M 6.2799752,4.4817147 C 4.9940482,4.4817147 3.9588082,5.5169555 3.9588082,6.8028824 L 3.9588082,10.882279 C 3.9588082,12.168206 4.9940482,13.203447 6.2799752,13.203447 L 53.821915,13.203447 C 55.107842,13.203447 56.143083,12.168206 56.143083,10.882279 L 56.143083,6.8028824 C 56.143083,5.5169555 55.107842,4.4817147 53.821915,4.4817147 L 6.2799752,4.4817147 z "
       id="rect922"
       sodipodi:nodetypes="ccccccccc"
       transform="matrix(0.650542,0.000000,0.000000,0.650542,20.93045,24.92656)" />
    <path
       style="font-size:12.000000;fill:none;fill-opacity:0.75000000;fill-rule:evenodd;stroke:#4c4c4c;stroke-width:1.9214747;stroke-linecap:round;stroke-linejoin:round;stroke-miterlimit:4.0000000;stroke-opacity:1.0000000;"
       d="M 53.028658,7.6135273 L 50.322628,10.319557 M 50.259697,7.5505963 L 53.028658,10.319557"
       sodipodi:nodetypes="cccc"
       id="path923"
       transform="matrix(0.650542,0.000000,0.000000,0.650542,20.93045,24.92656)"
       sodipodi:stroke-cmyk="(0.0000000 0.0000000 0.0000000 0.70196080)" />
    <path
       style="font-size:12.000000;fill:none;fill-opacity:1.0000000;fill-rule:evenodd;stroke:#4c4c4c;stroke-width:3.8429494;stroke-linecap:round;stroke-linejoin:round;stroke-miterlimit:4.0000000;stroke-opacity:1.0000000;"
       d="M 81.253253,9.9924880 C 79.941743,9.9924880 78.885907,11.374432 78.885907,13.091017 L 78.885907,52.445288 C 78.885907,54.161873 79.941743,55.543818 81.253253,55.543818 L 128.70284,55.543818 C 130.01435,55.543818 131.07019,54.161873 131.07019,52.445288 L 131.07019,13.091017 C 131.07019,11.374432 130.01435,9.9924880 128.70284,9.9924880 L 81.253253,9.9924880 z "
       id="rect1561"
       sodipodi:nodetypes="ccccccccc"
       transform="matrix(0.650542,0.000000,0.000000,0.650542,-27.81279,21.41469)"
       sodipodi:stroke-cmyk="(0.0000000 0.0000000 0.0000000 0.70196080)" />
    <path
       style="font-size:12.000000;fill:none;fill-rule:evenodd;stroke:#4c4c4c;stroke-width:3.8429494;stroke-linecap:round;stroke-linejoin:round;stroke-miterlimit:4.0000000;stroke-opacity:1.0000000;"
       d="M 3.9588081,10.882279 C 3.9588081,12.168206 4.9940481,13.203447 6.2799751,13.203447 L 53.826204,13.203447 C 55.112131,13.203447 56.147372,12.168206 56.147372,10.882279"
       id="rect1558"
       sodipodi:nodetypes="cccc"
       transform="matrix(0.650542,0.000000,0.000000,0.650542,20.93045,24.92656)"
       sodipodi:stroke-cmyk="(0.0000000 0.0000000 0.0000000 0.70196080)" />
    <g
       id="g993"
       transform="matrix(0.806354,0.000000,0.000000,0.806354,12.65818,12.64388)">
      <path
         id="path843"
         style="font-size:24.000000;fill:#333333;stroke-width:1.0000000pt;font-family:VAG Rounded Black SSi;"
         transform="matrix(0.791804,0.000000,0.000000,0.791804,39.06575,37.69532)"
         d="M -6.8225527,5.8193731 L -6.8225527,-8.1728144 C -6.8225527,-8.6884394 -6.6545839,-9.1181269 -6.3186464,-9.4618769 C -5.9827089,-9.8056269 -5.5491152,-9.9775019 -5.0178652,-9.9775019 C -4.4866152,-9.9775019 -4.0569277,-9.8173456 -3.7288027,-9.4970331 C -3.3928652,-9.1767206 -3.2248964,-8.7353144 -3.2248964,-8.1728144 L -3.2248964,-2.9462519 L 2.6813536,-9.2978144 C 3.0954161,-9.7509394 3.5602598,-9.9775019 4.0758848,-9.9775019 C 4.5524473,-9.9775019 4.9665098,-9.8134394 5.3180723,-9.4853144 C 5.6774473,-9.1650019 5.8571348,-8.7431269 5.8571348,-8.2196894 C 5.8571348,-7.9228144 5.7633848,-7.6298456 5.5758848,-7.3407831 C 5.3883848,-7.0595331 5.0876036,-6.7118769 4.6735411,-6.2978144 L 0.13838482,-1.7860956 L 5.6813536,4.0615606 C 6.0016661,4.3662481 6.2477598,4.6631231 6.4196348,4.9521856 C 6.5993223,5.2334356 6.6891661,5.5459356 6.6891661,5.8896856 C 6.6891661,6.4365606 6.5094786,6.8545294 6.1501036,7.1435919 C 5.7907286,7.4248419 5.3454161,7.5654669 4.8141661,7.5654669 C 4.5016661,7.5654669 4.2165098,7.4795294 3.9586973,7.3076544 C 3.7086973,7.1357794 3.3883848,6.8467169 2.9977598,6.4404669 L -3.2248964,-0.35640812 L -3.2248964,5.8193731 C -3.2248964,6.3115606 -3.3928652,6.7256231 -3.7288027,7.0615606 C -4.0647402,7.3974981 -4.4944277,7.5654669 -5.0178652,7.5654669 C -5.5413027,7.5654669 -5.9748964,7.4053106 -6.3186464,7.0849981 C -6.6545839,6.7646856 -6.8225527,6.3428106 -6.8225527,5.8193731 z " />
      <path
         style="font-size:12.000000;fill:#333333;fill-rule:evenodd;stroke:#333333;stroke-width:1.2929699;stroke-linecap:round;stroke-linejoin:round;"
         d="M 37.139197,181.14740 L 52.946277,197.70716 L 78.538546,180.39460 L 98.861908,189.42735 L 105.63634,219.09510 L 127.46505,218.89461 L 133.48682,188.45399 L 153.81015,180.39460 L 179.40244,196.95450 L 191.44592,180.39460 L 162.40179,152.98512 C 87.958944,221.26415 23.628859,116.02943 87.571178,72.003552 L 87.571095,56.196470 L 80.043997,59.960043 L 56.709788,45.126111 L 40.590920,58.363176 L 55.204367,83.294200 L 46.924507,103.61753 L 18.409265,108.35437 L 18.321270,129.96261 L 47.677259,137.48978 L 55.768940,157.24868 L 37.139197,181.14740 z "
         sodipodi:nodetypes="ccccccccccccccccccccccc"
         transform="matrix(0.115472,0.000000,0.000000,0.115472,22.39368,26.78325)"
         sodipodi:stroke-cmyk="(0 0 0 0.8)"
         id="path997" />
    </g>
  </g>
  <path
     id="path846"
     style="font-size:12.000000;font-weight:900;fill:#333333;stroke-width:1.0000000pt;font-family:VAG Rounded Black SSi;"
     d="M 15.063785,5.5382775 C 15.063785,5.0380497 15.125479,4.5594986 15.248870,4.1026239 C 15.375593,3.6457493 15.565680,3.2372299 15.819128,2.8770660 C 16.072577,2.5135671 16.392723,2.2267699 16.779566,2.0166742 C 17.166409,1.8032437 17.611612,1.6965285 18.115174,1.6965285 C 18.622071,1.6965285 19.068942,1.8032437 19.455784,2.0166742 C 19.842627,2.2267699 20.162773,2.5135671 20.416222,2.8770660 C 20.669670,3.2372299 20.858089,3.6474167 20.981479,4.1076262 C 21.104869,4.5678357 21.166563,5.0447194 21.166563,5.5382775 C 21.166563,6.0318355 21.104869,6.5087193 20.981479,6.9689288 C 20.861424,7.4291384 20.673005,7.8426600 20.416222,8.2094936 C 20.162773,8.5729924 19.842627,8.8614571 19.455784,9.0748876 C 19.068942,9.2849832 18.622071,9.3900311 18.115174,9.3900311 C 17.611612,9.3900311 17.166409,9.2849832 16.779566,9.0748876 C 16.392723,8.8614571 16.070910,8.5729924 15.814127,8.2094936 C 15.560678,7.8426600 15.372259,7.4308058 15.248870,6.9739311 C 15.125479,6.5170564 15.063785,6.0385052 15.063785,5.5382775 z M 16.784569,5.5382775 C 16.784569,5.8784323 16.826254,6.2219221 16.909625,6.5687467 C 16.992996,6.9155712 17.134728,7.2040359 17.334819,7.4341407 C 17.534910,7.6642454 17.795028,7.7792977 18.115174,7.7792977 C 18.582053,7.7792977 18.920541,7.5491930 19.130637,7.0889835 C 19.340732,6.6254391 19.445780,6.1085371 19.445780,5.5382775 C 19.445780,4.9713527 19.340732,4.4577856 19.130637,3.9975761 C 18.920541,3.5340317 18.582053,3.3022595 18.115174,3.3022595 C 17.868395,3.3022595 17.658299,3.3722914 17.484887,3.5123552 C 17.311475,3.6524190 17.173079,3.8341684 17.069698,4.0576034 C 16.969653,4.2810385 16.896286,4.5244826 16.849598,4.7879359 C 16.806245,5.0480543 16.784569,5.2981682 16.784569,5.5382775 z M 8.6108472,5.5382775 C 8.6108472,5.0380497 8.6725422,4.5594986 8.7959315,4.1026239 C 8.9226555,3.6457493 9.1127426,3.2372299 9.3661914,2.8770660 C 9.6196401,2.5135671 9.9397858,2.2267699 10.326629,2.0166742 C 10.713471,1.8032437 11.158674,1.6965285 11.662237,1.6965285 C 12.169134,1.6965285 12.616004,1.8032437 13.002846,2.0166742 C 13.389689,2.2267699 13.709835,2.5135671 13.963284,2.8770660 C 14.216732,3.2372299 14.405151,3.6474167 14.528542,4.1076262 C 14.651931,4.5678357 14.713625,5.0447194 14.713625,5.5382775 C 14.713625,6.0318355 14.651931,6.5087193 14.528542,6.9689288 C 14.408487,7.4291384 14.220067,7.8426600 13.963284,8.2094936 C 13.709835,8.5729924 13.389689,8.8614571 13.002846,9.0748876 C 12.616004,9.2849832 12.169134,9.3900311 11.662237,9.3900311 C 11.158674,9.3900311 10.713471,9.2849832 10.326629,9.0748876 C 9.9397858,8.8614571 9.6179719,8.5729924 9.3611885,8.2094936 C 9.1077398,7.8426600 8.9193208,7.4308058 8.7959315,6.9739311 C 8.6725422,6.5170564 8.6108472,6.0385052 8.6108472,5.5382775 z M 10.331631,5.5382775 C 10.331631,5.8784323 10.373316,6.2219221 10.456687,6.5687467 C 10.540059,6.9155712 10.681790,7.2040359 10.881881,7.4341407 C 11.081972,7.6642454 11.342091,7.7792977 11.662237,7.7792977 C 12.129116,7.7792977 12.467603,7.5491930 12.677699,7.0889835 C 12.887795,6.6254391 12.992842,6.1085371 12.992842,5.5382775 C 12.992842,4.9713527 12.887795,4.4577856 12.677699,3.9975761 C 12.467603,3.5340317 12.129116,3.3022595 11.662237,3.3022595 C 11.415457,3.3022595 11.205361,3.3722914 11.031949,3.5123552 C 10.858537,3.6524190 10.720141,3.8341684 10.616760,4.0576034 C 10.516715,4.2810385 10.443348,4.5244826 10.396660,4.7879359 C 10.353307,5.0480543 10.331631,5.2981682 10.331631,5.5382775 z M 6.2747837,8.3945779 L 6.2747837,3.4073074 L 5.7495441,3.4073074 C 5.5127703,3.4073074 5.3260186,3.3306058 5.1892890,3.1772026 C 5.0525603,3.0204646 4.9841960,2.8403826 4.9841960,2.6369567 C 4.9841960,2.4268610 5.0508930,2.2451116 5.1842871,2.0917085 C 5.3176811,1.9349704 5.5061001,1.8566014 5.7495441,1.8566014 L 7.1051616,1.8566014 C 7.3419362,1.8566014 7.5386927,1.9166287 7.6954301,2.0366833 C 7.8555030,2.1567380 7.9355394,2.3768382 7.9355394,2.6969840 L 7.9355394,8.3945779 C 7.9355394,8.6847100 7.8588384,8.9064776 7.7054348,9.0598807 C 7.5553667,9.2099491 7.3552756,9.2849832 7.1051616,9.2849832 C 6.8550475,9.2849832 6.6532891,9.2099491 6.4998863,9.0598807 C 6.3498174,8.9064776 6.2747837,8.6847100 6.2747837,8.3945779 z M 2.8632304,8.3945779 L 2.8632304,3.4073074 L 2.3379916,3.4073074 C 2.1012169,3.4073074 1.9144652,3.3306058 1.7777363,3.1772026 C 1.6410073,3.0204646 1.5726429,2.8403826 1.5726429,2.6369567 C 1.5726429,2.4268610 1.6393399,2.2451116 1.7727340,2.0917085 C 1.9061278,1.9349704 2.0945468,1.8566014 2.3379916,1.8566014 L 3.6936082,1.8566014 C 3.9303829,1.8566014 4.1271393,1.9166287 4.2838776,2.0366833 C 4.4439504,2.1567380 4.5239869,2.3768382 4.5239869,2.6969840 L 4.5239869,8.3945779 C 4.5239869,8.6847100 4.4472851,8.9064776 4.2938815,9.0598807 C 4.1438134,9.2099491 3.9437223,9.2849832 3.6936082,9.2849832 C 3.4434950,9.2849832 3.2417357,9.2099491 3.0883330,9.0598807 C 2.9382649,8.9064776 2.8632304,8.6847100 2.8632304,8.3945779 z M 15.063785,15.782942 C 15.063785,15.282713 15.125479,14.804162 15.248870,14.347288 C 15.375593,13.890413 15.565680,13.481894 15.819128,13.121730 C 16.072577,12.758231 16.392723,12.471434 16.779566,12.261338 C 17.166409,12.047908 17.611612,11.941193 18.115174,11.941193 C 18.622071,11.941193 19.068942,12.047908 19.455784,12.261338 C 19.842627,12.471434 20.162773,12.758231 20.416222,13.121730 C 20.669670,13.481894 20.858089,13.892081 20.981479,14.352291 C 21.104869,14.812500 21.166563,15.289384 21.166563,15.782942 C 21.166563,16.276500 21.104869,16.753384 20.981479,17.213593 C 20.861424,17.673803 20.673005,18.087324 20.416222,18.454158 C 20.162773,18.817656 19.842627,19.106121 19.455784,19.319552 C 19.068942,19.529647 18.622071,19.634695 18.115174,19.634695 C 17.611612,19.634695 17.166409,19.529647 16.779566,19.319552 C 16.392723,19.106121 16.070910,18.817656 15.814127,18.454158 C 15.560678,18.087324 15.372259,17.675470 15.248870,17.218595 C 15.125479,16.761720 15.063785,16.283169 15.063785,15.782942 z M 16.784569,15.782942 C 16.784569,16.123096 16.826254,16.466586 16.909625,16.813411 C 16.992996,17.160235 17.134728,17.448700 17.334819,17.678805 C 17.534910,17.908909 17.795028,18.023962 18.115174,18.023962 C 18.582053,18.023962 18.920541,17.793857 19.130637,17.333647 C 19.340732,16.870103 19.445780,16.353201 19.445780,15.782942 C 19.445780,15.216016 19.340732,14.702450 19.130637,14.242240 C 18.920541,13.778696 18.582053,13.546923 18.115174,13.546923 C 17.868395,13.546923 17.658299,13.616955 17.484887,13.757019 C 17.311475,13.897083 17.173079,14.078832 17.069698,14.302268 C 16.969653,14.525703 16.896286,14.769147 16.849598,15.032600 C 16.806245,15.292718 16.784569,15.542832 16.784569,15.782942 z M 12.727722,18.639242 L 12.727722,13.651971 L 12.202482,13.651971 C 11.965707,13.651971 11.778956,13.575269 11.642227,13.421867 C 11.505498,13.265129 11.437134,13.085047 11.437134,12.881620 C 11.437134,12.671525 11.503831,12.489776 11.637225,12.336372 C 11.770619,12.179635 11.959038,12.101266 12.202482,12.101266 L 13.558100,12.101266 C 13.794874,12.101266 13.991630,12.161292 14.148368,12.281347 C 14.308441,12.401402 14.388477,12.621502 14.388477,12.941648 L 14.388477,18.639242 C 14.388477,18.929374 14.311776,19.151141 14.158373,19.304545 C 14.008305,19.454613 13.808214,19.529647 13.558100,19.529647 C 13.307985,19.529647 13.106227,19.454613 12.952823,19.304545 C 12.802755,19.151141 12.727722,18.929374 12.727722,18.639242 z M 5.1992938,15.782942 C 5.1992938,15.282713 5.2609889,14.804162 5.3843782,14.347288 C 5.5111029,13.890413 5.7011893,13.481894 5.9546380,13.121730 C 6.2080867,12.758231 6.5282325,12.471434 6.9150752,12.261338 C 7.3019180,12.047908 7.7471204,11.941193 8.2506832,11.941193 C 8.7575806,11.941193 9.2044503,12.047908 9.5912931,12.261338 C 9.9781359,12.471434 10.298282,12.758231 10.551730,13.121730 C 10.805179,13.481894 10.993599,13.892081 11.116988,14.352291 C 11.240378,14.812500 11.302073,15.289384 11.302073,15.782942 C 11.302073,16.276500 11.240378,16.753384 11.116988,17.213593 C 10.996934,17.673803 10.808515,18.087324 10.551730,18.454158 C 10.298282,18.817656 9.9781359,19.106121 9.5912931,19.319552 C 9.2044503,19.529647 8.7575806,19.634695 8.2506832,19.634695 C 7.7471204,19.634695 7.3019180,19.529647 6.9150752,19.319552 C 6.5282325,19.106121 6.2064194,18.817656 5.9496352,18.454158 C 5.6961865,18.087324 5.5077675,17.675470 5.3843782,17.218595 C 5.2609889,16.761720 5.1992938,16.283169 5.1992938,15.782942 z M 6.9200772,15.782942 C 6.9200772,16.123096 6.9617627,16.466586 7.0451347,16.813411 C 7.1285057,17.160235 7.2702364,17.448700 7.4703275,17.678805 C 7.6704186,17.908909 7.9305374,18.023962 8.2506832,18.023962 C 8.7175624,18.023962 9.0560495,17.793857 9.2661454,17.333647 C 9.4762412,16.870103 9.5812892,16.353201 9.5812892,15.782942 C 9.5812892,15.216016 9.4762412,14.702450 9.2661454,14.242240 C 9.0560495,13.778696 8.7175624,13.546923 8.2506832,13.546923 C 8.0039037,13.546923 7.7938087,13.616955 7.6203965,13.757019 C 7.4469842,13.897083 7.3085873,14.078832 7.2052075,14.302268 C 7.1051616,14.525703 7.0317953,14.769147 6.9851069,15.032600 C 6.9417541,15.292718 6.9200772,15.542832 6.9200772,15.782942 z M 2.8632304,18.639242 L 2.8632304,13.651971 L 2.3379916,13.651971 C 2.1012169,13.651971 1.9144652,13.575269 1.7777363,13.421867 C 1.6410073,13.265129 1.5726429,13.085047 1.5726429,12.881620 C 1.5726429,12.671525 1.6393399,12.489776 1.7727340,12.336372 C 1.9061278,12.179635 2.0945468,12.101266 2.3379916,12.101266 L 3.6936082,12.101266 C 3.9303829,12.101266 4.1271393,12.161292 4.2838776,12.281347 C 4.4439504,12.401402 4.5239869,12.621502 4.5239869,12.941648 L 4.5239869,18.639242 C 4.5239869,18.929374 4.4472851,19.151141 4.2938815,19.304545 C 4.1438134,19.454613 3.9437223,19.529647 3.6936082,19.529647 C 3.4434950,19.529647 3.2417357,19.454613 3.0883330,19.304545 C 2.9382649,19.151141 2.8632304,18.929374 2.8632304,18.639242 z M 19.180659,28.883906 L 19.180659,23.896635 L 18.655420,23.896635 C 18.418645,23.896635 18.231894,23.819933 18.095165,23.666531 C 17.958436,23.509793 17.890072,23.329711 17.890072,23.126284 C 17.890072,22.916189 17.956769,22.734440 18.090163,22.581036 C 18.223557,22.424299 18.411976,22.345930 18.655420,22.345930 L 20.011038,22.345930 C 20.247811,22.345930 20.444568,22.405956 20.601306,22.526011 C 20.761379,22.646066 20.841415,22.866166 20.841415,23.186312 L 20.841415,28.883906 C 20.841415,29.174038 20.764714,29.395805 20.611311,29.549209 C 20.461242,29.699277 20.261151,29.774311 20.011038,29.774311 C 19.760923,29.774311 19.559165,29.699277 19.405761,29.549209 C 19.255693,29.395805 19.180659,29.174038 19.180659,28.883906 z M 11.652232,26.027606 C 11.652232,25.527377 11.713927,25.048826 11.837316,24.591952 C 11.964040,24.135077 12.154127,23.726558 12.407576,23.366394 C 12.661025,23.002895 12.981170,22.716098 13.368013,22.506002 C 13.754856,22.292572 14.200058,22.185857 14.703621,22.185857 C 15.210519,22.185857 15.657388,22.292572 16.044231,22.506002 C 16.431074,22.716098 16.751220,23.002895 17.004668,23.366394 C 17.258117,23.726558 17.446536,24.136745 17.569926,24.596955 C 17.693315,25.057164 17.755010,25.534048 17.755010,26.027606 C 17.755010,26.521164 17.693315,26.998048 17.569926,27.458257 C 17.449872,27.918467 17.261452,28.331988 17.004668,28.698822 C 16.751220,29.062320 16.431074,29.350785 16.044231,29.564216 C 15.657388,29.774311 15.210519,29.879359 14.703621,29.879359 C 14.200058,29.879359 13.754856,29.774311 13.368013,29.564216 C 12.981170,29.350785 12.659357,29.062320 12.402573,28.698822 C 12.149124,28.331988 11.960705,27.920134 11.837316,27.463259 C 11.713927,27.006384 11.652232,26.527833 11.652232,26.027606 z M 13.373015,26.027606 C 13.373015,26.367760 13.414701,26.711250 13.498072,27.058075 C 13.581444,27.404899 13.723174,27.693364 13.923265,27.923469 C 14.123357,28.153573 14.383475,28.268626 14.703621,28.268626 C 15.170500,28.268626 15.508988,28.038521 15.719083,27.578311 C 15.929179,27.114767 16.034226,26.597865 16.034226,26.027606 C 16.034226,25.460680 15.929179,24.947114 15.719083,24.486904 C 15.508988,24.023360 15.170500,23.791587 14.703621,23.791587 C 14.456842,23.791587 14.246746,23.861619 14.073334,24.001683 C 13.899921,24.141747 13.761525,24.323496 13.658145,24.546932 C 13.558100,24.770367 13.484732,25.013811 13.438045,25.277264 C 13.394692,25.537382 13.373015,25.787496 13.373015,26.027606 z M 9.3161684,28.883906 L 9.3161684,23.896635 L 8.7909287,23.896635 C 8.5541549,23.896635 8.3674032,23.819933 8.2306737,23.666531 C 8.0939449,23.509793 8.0255806,23.329711 8.0255806,23.126284 C 8.0255806,22.916189 8.0922776,22.734440 8.2256717,22.581036 C 8.3590658,22.424299 8.5474848,22.345930 8.7909287,22.345930 L 10.146546,22.345930 C 10.383321,22.345930 10.580077,22.405956 10.736815,22.526011 C 10.896888,22.646066 10.976924,22.866166 10.976924,23.186312 L 10.976924,28.883906 C 10.976924,29.174038 10.900223,29.395805 10.746819,29.549209 C 10.596751,29.699277 10.396660,29.774311 10.146546,29.774311 C 9.8964321,29.774311 9.6946737,29.699277 9.5412710,29.549209 C 9.3912020,29.395805 9.3161684,29.174038 9.3161684,28.883906 z M 1.7877408,26.027606 C 1.7877408,25.527377 1.8494356,25.048826 1.9728248,24.591952 C 2.0995496,24.135077 2.2896359,23.726558 2.5430846,23.366394 C 2.7965333,23.002895 3.1166791,22.716098 3.5035219,22.506002 C 3.8903647,22.292572 4.3355670,22.185857 4.8391298,22.185857 C 5.3460273,22.185857 5.7928978,22.292572 6.1797406,22.506002 C 6.5665834,22.716098 6.8867291,23.002895 7.1401778,23.366394 C 7.3936265,23.726558 7.5820456,24.136745 7.7054348,24.596955 C 7.8288241,25.057164 7.8905192,25.534048 7.8905192,26.027606 C 7.8905192,26.521164 7.8288241,26.998048 7.7054348,27.458257 C 7.5853802,27.918467 7.3969612,28.331988 7.1401778,28.698822 C 6.8867291,29.062320 6.5665834,29.350785 6.1797406,29.564216 C 5.7928978,29.774311 5.3460273,29.879359 4.8391298,29.879359 C 4.3355670,29.879359 3.8903647,29.774311 3.5035219,29.564216 C 3.1166791,29.350785 2.7948660,29.062320 2.5380827,28.698822 C 2.2846340,28.331988 2.0962149,27.920134 1.9728248,27.463259 C 1.8494356,27.006384 1.7877408,26.527833 1.7877408,26.027606 z M 3.5085238,26.027606 C 3.5085238,26.367760 3.5502102,26.711250 3.6335813,27.058075 C 3.7169524,27.404899 3.8586839,27.693364 4.0587750,27.923469 C 4.2588661,28.153573 4.5189841,28.268626 4.8391298,28.268626 C 5.3060090,28.268626 5.6444970,28.038521 5.8545920,27.578311 C 6.0646879,27.114767 6.1697358,26.597865 6.1697358,26.027606 C 6.1697358,25.460680 6.0646879,24.947114 5.8545920,24.486904 C 5.6444970,24.023360 5.3060090,23.791587 4.8391298,23.791587 C 4.5923512,23.791587 4.3822554,23.861619 4.2088431,24.001683 C 4.0354308,24.141747 3.8970348,24.323496 3.7936542,24.546932 C 3.6936082,24.770367 3.6202419,25.013811 3.5735536,25.277264 C 3.5302007,25.537382 3.5085238,25.787496 3.5085238,26.027606 z " />
  <metadata
     id="metadata17">
    <rdf:RDF
       id="RDF18">
      <cc:Work
         rdf:about=""
         id="Work19">
        <dc:title
           id="title20">Part of the Flat Icon Collection (Thu Aug 26 14:38:01 2004)</dc:title>
        <dc:description
           id="description22" />
        <dc:subject
           id="subject23">
          <rdf:Bag
             id="Bag24">
            <rdf:li
               id="li25" />
          </rdf:Bag>
        </dc:subject>
        <dc:publisher
           id="publisher26">
          <cc:Agent
             rdf:about=""
             id="Agent27">
            <dc:title
               id="title28" />
          </cc:Agent>
        </dc:publisher>
        <dc:creator
           id="creator29">
          <cc:Agent
             rdf:about=""
             id="Agent30">
            <dc:title
               id="title31">Danny Allen</dc:title>
          </cc:Agent>
        </dc:creator>
        <dc:rights
           id="rights33">
          <cc:Agent
             rdf:about=""
             id="Agent34">
            <dc:title
               id="title35">Danny Allen</dc:title>
          </cc:Agent>
        </dc:rights>
        <dc:date
           id="date37" />
        <dc:format
           id="format38">image/svg+xml</dc:format>
        <dc:type
           rdf:resource="http://purl.org/dc/dcmitype/StillImage"
           id="type40" />
        <cc:license
           rdf:resource="http://creativecommons.org/licenses/LGPL/2.1/"
           id="license41">
          <dc:date
             id="date42" />
        </cc:license>
        <dc:language
           id="language43">en</dc:language>
      </cc:Work>
    </rdf:RDF>
  </metadata>
  <path
     style="font-size:12.000000;fill:#7f7f7f;fill-rule:evenodd;stroke:#333333;stroke-width:1.8750000;stroke-linecap:round;stroke-linejoin:round;stroke-miterlimit:4.0000000;"
     d="M 24.333814,7.2177164 C 38.948943,8.8730540 37.967557,21.563420 37.890795,22.379612 L 42.261909,22.379612 L 35.933579,28.773184 L 29.618297,22.379612 L 33.937219,22.379612 C 34.049940,21.419922 34.949702,12.454309 24.333814,7.2177164 z "
     id="path1670" />
  <path
     style="font-size:12.000000;fill:#7f7f7f;fill-rule:evenodd;stroke:#333333;stroke-width:1.8750000;stroke-linecap:round;stroke-linejoin:round;stroke-miterlimit:4.0000000;"
     d="M 5.0653790,33.324095 C 6.7207170,47.939223 19.411083,46.957837 20.227275,46.881075 L 20.227275,51.252189 L 26.620847,44.923860 L 20.227275,38.608578 L 20.227275,42.927500 C 19.267585,43.040221 10.301972,43.939983 5.0653790,33.324095 z "
     id="path1705" />
</svg>
