<?xml version="1.0" encoding="UTF-8" standalone="no"?>
<!DOCTYPE svg PUBLIC "-//W3C//DTD SVG 20010904//EN"
"http://www.w3.org/TR/2001/REC-SVG-20010904/DTD/svg10.dtd">
<svg
   sodipodi:docname="inscol.svg"
   height="60.0000000"
   sodipodi:version="0.32"
   width="60.0000000"
   _SVGFile__filename="scalable/actions/inscol.svg"
   version="1.0"
   y="0"
   x="0"
   inkscape:version="0.39"
   id="svg1"
   sodipodi:docbase="/home/danny/work/flat/newscale/actions"
   xmlns="http://www.w3.org/2000/svg"
   xmlns:cc="http://web.resource.org/cc/"
   xmlns:inkscape="http://www.inkscape.org/namespaces/inkscape"
   xmlns:sodipodi="http://sodipodi.sourceforge.net/DTD/sodipodi-0.dtd"
   xmlns:rdf="http://www.w3.org/1999/02/22-rdf-syntax-ns#"
   xmlns:dc="http://purl.org/dc/elements/1.1/"
   xmlns:xlink="http://www.w3.org/1999/xlink">
  <sodipodi:namedview
     bordercolor="#666666"
     inkscape:pageshadow="2"
     inkscape:window-y="0"
     snaptoguides="true"
     pagecolor="#ffffff"
     inkscape:window-height="685"
     inkscape:zoom="6.9465337"
     inkscape:window-x="0"
     borderopacity="1.0"
     inkscape:cx="33.984503"
     inkscape:cy="18.129014"
     inkscape:window-width="1016"
     inkscape:pageopacity="0.0"
     id="base"
     showguides="true" />
  <defs
     id="defs3" />
  <path
     style="fill:#cccccc;fill-opacity:1.0000000;fill-rule:evenodd;stroke:#4c4c4c;stroke-width:3.1250000;stroke-linecap:round;stroke-linejoin:round;stroke-dasharray:3.1250000 3.1250000 ;stroke-dashoffset:0.0000000;stroke-opacity:1.0000000;"
     d="M 5.7826078,3.1371074 C 4.4731532,3.1371074 3.4189713,4.1912892 3.4189713,5.5007439 L 3.4189713,54.757228 C 3.4189713,56.066683 4.4731532,57.120864 5.7826078,57.120864 L 15.091112,57.120864 C 16.400567,57.120864 17.454748,56.066683 17.454748,54.757228 L 17.454748,5.5007439 C 17.454748,4.1912892 16.400567,3.1371074 15.091112,3.1371074 L 5.7826078,3.1371074 z "
     id="rect877" />
  <path
     id="path830"
     style="font-size:12.000000;font-weight:900;stroke-width:1.0000000pt;font-family:VAG Rounded Black SSi;fill:#333333;fill-opacity:1.0000000;"
     transform="scale(4.960140,4.960140)"
     d="M 7.2502623,5.3323364 L 7.2502623,3.5452271 C 7.2502623,3.2952271 7.3186216,3.0921021 7.4553404,2.9358521 C 7.5920591,2.7756958 7.7873716,2.6956177 8.0412779,2.6956177 C 8.2951841,2.6956177 8.4904966,2.7756958 8.6272154,2.9358521 C 8.7678404,3.0921021 8.8381529,3.2952271 8.8381529,3.5452271 L 8.8381529,5.3323364 L 10.601825,5.3323364 C 10.859637,5.3323364 11.062762,5.4026489 11.211200,5.5432739 C 11.363544,5.6799927 11.439715,5.8733521 11.439715,6.1233521 C 11.439715,6.3772583 11.363544,6.5745239 11.211200,6.7151489 C 11.062762,6.8557739 10.859637,6.9260864 10.601825,6.9260864 L 8.8381529,6.9260864 L 8.8381529,8.7073364 C 8.8381529,8.9612427 8.7678404,9.1663208 8.6272154,9.3225708 C 8.4865904,9.4788208 8.2912779,9.5569458 8.0412779,9.5569458 C 7.7912779,9.5569458 7.5959654,9.4788208 7.4553404,9.3225708 C 7.3186216,9.1663208 7.2502623,8.9612427 7.2502623,8.7073364 L 7.2502623,6.9260864 L 5.4865904,6.9260864 C 5.2365904,6.9260864 5.0334654,6.8499146 4.8772154,6.6975708 C 4.7248716,6.5413208 4.6486998,6.3499146 4.6486998,6.1233521 C 4.6486998,5.8733521 4.7229185,5.6799927 4.8713560,5.5432739 C 5.0236998,5.4026489 5.2287779,5.3323364 5.4865904,5.3323364 L 7.2502623,5.3323364 z " />
  <metadata
     id="metadata6">
    <rdf:RDF
       id="RDF7">
      <cc:Work
         rdf:about=""
         id="Work8">
        <dc:title
           id="title9">Part of the Flat Icon Collection (Thu Aug 26 14:38:01 2004)</dc:title>
        <dc:description
           id="description11" />
        <dc:subject
           id="subject12">
          <rdf:Bag
             id="Bag13">
            <rdf:li
               id="li14" />
          </rdf:Bag>
        </dc:subject>
        <dc:publisher
           id="publisher15">
          <cc:Agent
             rdf:about=""
             id="Agent16">
            <dc:title
               id="title17" />
          </cc:Agent>
        </dc:publisher>
        <dc:creator
           id="creator18">
          <cc:Agent
             rdf:about=""
             id="Agent19">
            <dc:title
               id="title20">Danny Allen</dc:title>
          </cc:Agent>
        </dc:creator>
        <dc:rights
           id="rights22">
          <cc:Agent
             rdf:about=""
             id="Agent23">
            <dc:title
               id="title24">Danny Allen</dc:title>
          </cc:Agent>
        </dc:rights>
        <dc:date
           id="date26" />
        <dc:format
           id="format27">image/svg+xml</dc:format>
        <dc:type
           rdf:resource="http://purl.org/dc/dcmitype/StillImage"
           id="type29" />
        <cc:license
           rdf:resource="http://creativecommons.org/licenses/LGPL/2.1/"
           id="license30">
          <dc:date
             id="date31" />
        </cc:license>
        <dc:language
           id="language32">en</dc:language>
      </cc:Work>
    </rdf:RDF>
  </metadata>
</svg>
