<?xml version="1.0" encoding="UTF-8" standalone="no"?>
<!DOCTYPE svg PUBLIC "-//W3C//DTD SVG 20010904//EN"
"http://www.w3.org/TR/2001/REC-SVG-20010904/DTD/svg10.dtd">
<svg
   sodipodi:docname="kalarm.svg"
   height="60.0000000"
   sodipodi:version="0.32"
   width="60.0000000"
   _SVGFile__filename="scalable/apps/kalarm.svg"
   version="1.0"
   y="0"
   x="0"
   inkscape:version="0.39"
   id="svg1"
   sodipodi:docbase="/home/danny/work/flat/newscale/actions"
   xmlns="http://www.w3.org/2000/svg"
   xmlns:cc="http://web.resource.org/cc/"
   xmlns:inkscape="http://www.inkscape.org/namespaces/inkscape"
   xmlns:sodipodi="http://sodipodi.sourceforge.net/DTD/sodipodi-0.dtd"
   xmlns:rdf="http://www.w3.org/1999/02/22-rdf-syntax-ns#"
   xmlns:dc="http://purl.org/dc/elements/1.1/"
   xmlns:xlink="http://www.w3.org/1999/xlink">
  <sodipodi:namedview
     bordercolor="#666666"
     inkscape:pageshadow="2"
     inkscape:window-y="0"
     pagecolor="#ffffff"
     inkscape:window-height="699"
     inkscape:zoom="6.9465337"
     inkscape:window-x="0"
     borderopacity="1.0"
     inkscape:cx="35.553188"
     inkscape:cy="17.644786"
     inkscape:window-width="1024"
     inkscape:pageopacity="0.0"
     id="base" />
  <defs
     id="defs3" />
  <g
     id="g1567"
     transform="translate(0.189493,-0.573490)">
    <path
       style="fill:none;fill-opacity:0.75000000;fill-rule:evenodd;stroke:#333333;stroke-width:6.2500000;stroke-linecap:round;stroke-linejoin:round;stroke-opacity:1.0000000;"
       transform="translate(0.763446,-2.799300)"
       d="M 17.813731,46.003497 L 12.035852,56.011077"
       sodipodi:stroke-cmyk="(0 0 0 0.8)"
       id="path795" />
    <path
       style="fill:none;fill-opacity:0.75000000;fill-rule:evenodd;stroke:#333333;stroke-width:6.2500000;stroke-linecap:round;stroke-linejoin:round;stroke-opacity:1.0000000;"
       transform="translate(0.000000,-1.526891)"
       d="M 41.145753,44.731088 L 46.923632,54.738668"
       sodipodi:stroke-cmyk="(0 0 0 0.8)"
       id="path797" />
  </g>
  <g
     id="g1570"
     transform="translate(9.982303e-2,-0.573490)">
    <path
       transform="matrix(0.790565,-0.612378,0.612378,0.790565,36.63689,-15.67535)"
       style="font-size:12.000000;fill:#7f7f7f;fill-opacity:1.0000000;fill-rule:evenodd;stroke:#333333;stroke-width:1.8750000;stroke-linejoin:round;stroke-opacity:1.0000000;"
       d="M -25.702670,9.6125879 C -25.702670,13.264912 -29.920962,16.229117 -35.118500,16.229117 C -40.316038,16.229117 -44.534329,13.264912 -44.534329,9.6125879 C -44.534329,5.9602639 -40.316038,2.9960589 -35.118500,2.9960589 C -29.920962,2.9960589 -25.702670,5.9602639 -25.702670,9.6125879 z "
       id="path798" />
    <path
       transform="translate(-1.017927,-1.017927)"
       style="font-size:12.000000;fill:#b3b3b3;fill-opacity:1.0000000;fill-rule:evenodd;stroke:#333333;stroke-width:1.8750000;stroke-linejoin:round;stroke-opacity:1.0000000;"
       d="M 13.742021,10.121552 C 13.742021,11.526292 12.544939,12.666370 11.069962,12.666370 C 9.5949846,12.666370 8.3979018,11.526292 8.3979018,10.121552 C 8.3979018,8.7168115 9.5949846,7.5767326 11.069962,7.5767326 C 12.544939,7.5767326 13.742021,8.7168115 13.742021,10.121552 z "
       id="path799" />
    <path
       transform="matrix(-0.790565,-0.612378,-0.612378,0.790565,23.26538,-15.67535)"
       style="font-size:12.000000;fill:#7f7f7f;fill-opacity:1.0000000;fill-rule:evenodd;stroke:#333333;stroke-width:1.8750000;stroke-linejoin:round;stroke-opacity:1.0000000;"
       d="M -25.702670,9.6125879 C -25.702670,13.264912 -29.920962,16.229117 -35.118500,16.229117 C -40.316038,16.229117 -44.534329,13.264912 -44.534329,9.6125879 C -44.534329,5.9602639 -40.316038,2.9960589 -35.118500,2.9960589 C -29.920962,2.9960589 -25.702670,5.9602639 -25.702670,9.6125879 z "
       id="path805" />
    <path
       transform="matrix(-1.000000,0.000000,0.000000,1.000000,60.92021,-1.017927)"
       style="font-size:12.000000;fill:#b3b3b3;fill-opacity:1.0000000;fill-rule:evenodd;stroke:#333333;stroke-width:1.8750000;stroke-opacity:1.0000000;"
       d="M 13.742021,10.121552 C 13.742021,11.526292 12.544939,12.666370 11.069962,12.666370 C 9.5949846,12.666370 8.3979018,11.526292 8.3979018,10.121552 C 8.3979018,8.7168115 9.5949846,7.5767326 11.069962,7.5767326 C 12.544939,7.5767326 13.742021,8.7168115 13.742021,10.121552 z "
       id="path806" />
  </g>
  <path
     transform="matrix(0.785910,0.000000,0.000000,0.785910,5.302238,2.225081)"
     style="font-size:12.000000;fill:#b3b3b3;fill-rule:evenodd;stroke:#333333;stroke-width:3.9762823;stroke-linejoin:round;stroke-miterlimit:4.0000000;stroke-dasharray:none;"
     d="M 58.842297,36.966930 C 58.842297,52.065108 46.588703,64.318701 31.490526,64.318701 C 16.392349,64.318701 4.1387558,52.065108 4.1387558,36.966930 C 4.1387558,21.868753 16.392349,9.6151600 31.490526,9.6151600 C 46.588703,9.6151600 58.842297,21.868753 58.842297,36.966930 z "
     id="path741" />
  <path
     sodipodi:nodetypes="cc"
     style="fill:none;fill-opacity:0.75000000;fill-rule:evenodd;stroke:#4c4c4c;stroke-width:5.0000000;stroke-linecap:round;stroke-linejoin:round;stroke-opacity:1.0000000;"
     d="M 30.140920,31.626568 L 30.140920,16.166692"
     sodipodi:stroke-cmyk="(0.0000000 0.0000000 0.0000000 0.69999999)"
     id="path743"
     transform="translate(-8.996297e-2,-0.573490)" />
  <path
     style="fill:none;fill-opacity:0.75000000;fill-rule:evenodd;stroke:#4c4c4c;stroke-width:5.0000000;stroke-linecap:round;stroke-linejoin:round;stroke-opacity:1.0000000;"
     d="M 30.710334,31.926155 L 41.335773,38.060756"
     sodipodi:stroke-cmyk="(0.0000000 0.0000000 0.0000000 0.69999999)"
     id="path744"
     transform="translate(-8.996297e-2,-0.573490)" />
  <path
     transform="matrix(0.832463,0.000000,0.000000,0.832463,5.783637,4.398915)"
     style="font-size:12.000000;fill:#333333;fill-rule:evenodd;stroke:#333333;stroke-width:3.0031364;stroke-linecap:round;stroke-linejoin:round;stroke-miterlimit:4.0000000;"
     d="M 31.490526,32.288338 C 31.490526,33.579629 30.442521,34.627634 29.151230,34.627634 C 27.859938,34.627634 26.811934,33.579629 26.811934,32.288338 C 26.811934,30.997046 27.859938,29.949042 29.151230,29.949042 C 30.442521,29.949042 31.490526,30.997046 31.490526,32.288338 z "
     id="path742" />
  <metadata
     id="metadata14">
    <rdf:RDF
       id="RDF15">
      <cc:Work
         rdf:about=""
         id="Work16">
        <dc:title
           id="title17">Part of the Flat Icon Collection (Thu Aug 26 14:31:40 2004)</dc:title>
        <dc:description
           id="description19" />
        <dc:subject
           id="subject20">
          <rdf:Bag
             id="Bag21">
            <rdf:li
               id="li22" />
          </rdf:Bag>
        </dc:subject>
        <dc:publisher
           id="publisher23">
          <cc:Agent
             rdf:about=""
             id="Agent24">
            <dc:title
               id="title25" />
          </cc:Agent>
        </dc:publisher>
        <dc:creator
           id="creator26">
          <cc:Agent
             rdf:about=""
             id="Agent27">
            <dc:title
               id="title28">Danny Allen</dc:title>
          </cc:Agent>
        </dc:creator>
        <dc:rights
           id="rights30">
          <cc:Agent
             rdf:about=""
             id="Agent31">
            <dc:title
               id="title32">Danny Allen</dc:title>
          </cc:Agent>
        </dc:rights>
        <dc:date
           id="date34" />
        <dc:format
           id="format35">image/svg+xml</dc:format>
        <dc:type
           rdf:resource="http://purl.org/dc/dcmitype/StillImage"
           id="type37" />
        <cc:license
           rdf:resource="http://creativecommons.org/licenses/LGPL/2.1/"
           id="license38">
          <dc:date
             id="date39" />
        </cc:license>
        <dc:language
           id="language40">en</dc:language>
      </cc:Work>
    </rdf:RDF>
  </metadata>
</svg>
