<?xml version="1.0" encoding="UTF-8" standalone="no"?>
<!DOCTYPE svg PUBLIC "-//W3C//DTD SVG 20010904//EN"
"http://www.w3.org/TR/2001/REC-SVG-20010904/DTD/svg10.dtd">
<!-- Created with Inkscape (http://www.inkscape.org/) -->
<svg
   version="1.0"
   x="0"
   y="0"
   width="60.0000000"
   height="60.0000000"
   id="svg1"
   sodipodi:version="0.32"
   inkscape:version="0.39"
   sodipodi:docname="knoda.svg"
   sodipodi:docbase="/home/danny/work/flat/newscale/apps"
   xmlns="http://www.w3.org/2000/svg"
   xmlns:cc="http://web.resource.org/cc/"
   xmlns:inkscape="http://www.inkscape.org/namespaces/inkscape"
   xmlns:sodipodi="http://sodipodi.sourceforge.net/DTD/sodipodi-0.dtd"
   xmlns:rdf="http://www.w3.org/1999/02/22-rdf-syntax-ns#"
   xmlns:dc="http://purl.org/dc/elements/1.1/"
   xmlns:xlink="http://www.w3.org/1999/xlink">
  <sodipodi:namedview
     id="base"
     pagecolor="#ffffff"
     bordercolor="#666666"
     borderopacity="1.0"
     inkscape:pageopacity="0.0"
     inkscape:pageshadow="2"
     inkscape:zoom="8.5454545"
     inkscape:cx="34.534137"
     inkscape:cy="20.352431"
     inkscape:window-width="1016"
     inkscape:window-height="685"
     inkscape:window-x="0"
     inkscape:window-y="0"
     showguides="true"
     snaptoguides="true" />
  <defs
     id="defs3">
    <linearGradient
       id="linearGradient900">
      <stop
         style="stop-color:#000;stop-opacity:1;"
         offset="0"
         id="stop901" />
      <stop
         style="stop-color:#fff;stop-opacity:1;"
         offset="1"
         id="stop902" />
    </linearGradient>
    <linearGradient
       xlink:href="#linearGradient900"
       id="linearGradient903" />
    <linearGradient
       xlink:href="#linearGradient900"
       id="linearGradient904" />
    <linearGradient
       xlink:href="#linearGradient900"
       id="linearGradient905" />
    <linearGradient
       xlink:href="#linearGradient900"
       id="linearGradient906" />
    <linearGradient
       xlink:href="#linearGradient900"
       id="linearGradient907" />
  </defs>
  <metadata
     id="metadata16">
    <rdf:RDF
       id="RDF17">
      <cc:Work
         rdf:about=""
         id="Work18">
        <dc:format
           id="format19">image/svg+xml</dc:format>
        <dc:type
           id="type21"
           rdf:resource="http://purl.org/dc/dcmitype/StillImage" />
      </cc:Work>
    </rdf:RDF>
  </metadata>
  <g
     id="g1568"
     transform="translate(0.000000,-0.511969)">
    <g
       id="g1585"
       transform="translate(-4.303860e-4,0.322755)">
      <path
         style="fill:none;fill-opacity:0.75000000;fill-rule:evenodd;stroke:#4f4f4f;stroke-width:2.5000000;stroke-linecap:round;stroke-linejoin:round;stroke-miterlimit:4.0000000;stroke-dasharray:2.5000000 2.5000000 ;stroke-dashoffset:0.0000000;stroke-opacity:1.0000000;"
         d="M 24.048538,15.096975 L 36.136427,27.184864"
         id="path1555"
         sodipodi:stroke-cmyk="(0.0000000 0.0000000 0.0000000 0.69019610)" />
      <path
         style="fill:none;fill-opacity:0.75000000;fill-rule:evenodd;stroke:#4f4f4f;stroke-width:2.5000000;stroke-linecap:round;stroke-linejoin:round;stroke-miterlimit:4.0000000;stroke-dasharray:2.5000000 2.5000000 ;stroke-dashoffset:0.0000000;stroke-opacity:1.0000000;"
         d="M 13.742021,29.207693 L 18.195454,38.623522"
         id="path1556"
         sodipodi:stroke-cmyk="(0.0000000 0.0000000 0.0000000 0.69019610)" />
      <path
         style="fill:none;fill-opacity:0.75000000;fill-rule:evenodd;stroke:#4f4f4f;stroke-width:2.5000000;stroke-linecap:round;stroke-linejoin:round;stroke-miterlimit:4.0000000;stroke-dasharray:2.5000000 2.5000000 ;stroke-dashoffset:0.0000000;stroke-opacity:1.0000000;"
         d="M 36.772631,41.804546 L 25.829911,49.820725"
         id="path1557"
         sodipodi:stroke-cmyk="(0.0000000 0.0000000 0.0000000 0.69019610)" />
      <path
         style="fill:#cccccc;fill-opacity:1.0000000;fill-rule:evenodd;stroke:none;stroke-width:2.5000000;stroke-linecap:round;stroke-linejoin:round;stroke-miterlimit:4.0000000;stroke-dashoffset:0.0000000;stroke-opacity:1.0000000;"
         d="M 5.7280414,3.5007710 C 4.5170324,3.5007710 3.5421045,4.4756989 3.5421045,5.6867080 L 3.5421045,26.922683 C 3.5421045,28.133693 4.5170324,29.108621 5.7280414,29.108621 L 21.965093,29.108621 C 23.176102,29.108621 24.151030,28.133693 24.151030,26.922683 L 24.151030,5.6867080 C 24.151030,4.4756989 23.176102,3.5007710 21.965093,3.5007710 L 5.7280414,3.5007710 z "
         id="rect1541"
         sodipodi:nodetypes="ccccccccc" />
      <path
         style="fill:#cccccc;fill-opacity:1.0000000;fill-rule:evenodd;stroke:none;stroke-width:2.5000000;stroke-linecap:round;stroke-linejoin:round;stroke-miterlimit:4.0000000;stroke-dashoffset:0.0000000;stroke-opacity:1.0000000;"
         d="M 9.4180287,38.357573 C 8.2070197,38.357573 7.2320918,39.332501 7.2320918,40.543510 L 7.2320918,54.279485 C 7.2320918,55.490495 8.2070197,56.465423 9.4180287,56.465423 L 25.655080,56.465423 C 26.866089,56.465423 27.841017,55.490495 27.841017,54.279485 L 27.841017,40.543510 C 27.841017,39.332501 26.866089,38.357573 25.655080,38.357573 L 9.4180287,38.357573 z "
         id="path1547"
         sodipodi:nodetypes="ccccccccc" />
      <path
         style="fill:#cccccc;fill-opacity:1.0000000;fill-rule:evenodd;stroke:none;stroke-width:2.5000000;stroke-linecap:round;stroke-linejoin:round;stroke-miterlimit:4.0000000;stroke-dashoffset:0.0000000;stroke-opacity:1.0000000;"
         d="M 38.301722,9.4883106 C 37.090713,9.4883106 36.115785,10.463239 36.115785,11.674248 L 36.115785,40.410223 C 36.115785,41.621233 37.090713,42.596161 38.301722,42.596161 L 54.538773,42.596161 C 55.749782,42.596161 56.724710,41.621233 56.724710,40.410223 L 56.724710,11.674248 C 56.724710,10.463239 55.749782,9.4883106 54.538773,9.4883106 L 38.301722,9.4883106 z "
         id="path1548"
         sodipodi:nodetypes="ccccccccc" />
      <path
         style="fill:#4c4c4c;fill-opacity:1.0000000;fill-rule:evenodd;stroke:none;stroke-width:2.5000000;stroke-linecap:round;stroke-linejoin:round;stroke-miterlimit:4.0000000;stroke-dashoffset:0.0000000;stroke-opacity:1.0000000;"
         d="M 5.7280414,3.5007710 C 4.5170324,3.5007710 3.5421045,4.4756989 3.5421045,5.6867080 L 3.5421045,6.9226830 C 3.5421045,8.1336930 4.5170324,9.1086210 5.7280414,9.1086210 L 21.965093,9.1086210 C 23.176102,9.1086210 24.151030,8.1336930 24.151030,6.9226830 L 24.151030,5.6867080 C 24.151030,4.4756989 23.176102,3.5007710 21.965093,3.5007710 L 5.7280414,3.5007710 z "
         id="path1550"
         sodipodi:nodetypes="ccccccccc" />
      <path
         style="fill:none;fill-opacity:1.0000000;fill-rule:evenodd;stroke:#333333;stroke-width:2.5000000;stroke-linecap:round;stroke-linejoin:round;stroke-miterlimit:4.0000000;stroke-dashoffset:0.0000000;stroke-opacity:1.0000000;"
         d="M 5.7280410,3.5007710 C 4.5170320,3.5007710 3.5421050,4.4756989 3.5421050,5.6867080 L 3.5421050,26.922683 C 3.5421050,28.133693 4.5170320,29.108621 5.7280410,29.108621 L 21.965093,29.108621 C 23.176102,29.108621 24.151030,28.133693 24.151030,26.922683 L 24.151030,5.6867080 C 24.151030,4.4756989 23.176102,3.5007710 21.965093,3.5007710 L 5.7280410,3.5007710 z "
         id="path1549"
         sodipodi:nodetypes="ccccccccc" />
      <path
         style="fill:#4c4c4c;fill-opacity:1.0000000;fill-rule:evenodd;stroke:none;stroke-width:2.5000000;stroke-linecap:round;stroke-linejoin:round;stroke-miterlimit:4.0000000;stroke-dashoffset:0.0000000;stroke-opacity:1.0000000;"
         d="M 38.301722,9.4883106 C 37.090713,9.4883106 36.115785,10.463238 36.115785,11.674248 L 36.115785,12.910223 C 36.115785,14.121233 37.090713,15.096161 38.301722,15.096161 L 54.538773,15.096161 C 55.749782,15.096161 56.724710,14.121233 56.724710,12.910223 L 56.724710,11.674248 C 56.724710,10.463238 55.749782,9.4883106 54.538773,9.4883106 L 38.301722,9.4883106 z "
         id="path1551"
         sodipodi:nodetypes="ccccccccc" />
      <path
         style="fill:none;fill-opacity:1.0000000;fill-rule:evenodd;stroke:#333333;stroke-width:2.5000000;stroke-linecap:round;stroke-linejoin:round;stroke-miterlimit:4.0000000;stroke-dashoffset:0.0000000;stroke-opacity:1.0000000;"
         d="M 38.301722,9.4883106 C 37.090713,9.4883106 36.115785,10.463239 36.115785,11.674248 L 36.115785,40.410223 C 36.115785,41.621233 37.090713,42.596161 38.301722,42.596161 L 54.538773,42.596161 C 55.749782,42.596161 56.724710,41.621233 56.724710,40.410223 L 56.724710,11.674248 C 56.724710,10.463239 55.749782,9.4883106 54.538773,9.4883106 L 38.301722,9.4883106 z "
         id="path1552"
         sodipodi:nodetypes="ccccccccc" />
      <path
         style="fill:#4c4c4c;fill-opacity:1.0000000;fill-rule:evenodd;stroke:none;stroke-width:2.5000000;stroke-linecap:round;stroke-linejoin:round;stroke-miterlimit:4.0000000;stroke-dashoffset:0.0000000;stroke-opacity:1.0000000;"
         d="M 9.4180288,38.357573 C 8.2070198,38.357573 7.2320918,39.332500 7.2320918,40.543510 L 7.2320918,41.779485 C 7.2320918,42.990495 8.2070198,43.965423 9.4180288,43.965423 L 25.655080,43.965423 C 26.866089,43.965423 27.841017,42.990495 27.841017,41.779485 L 27.841017,40.543510 C 27.841017,39.332500 26.866089,38.357573 25.655080,38.357573 L 9.4180288,38.357573 z "
         id="path1553"
         sodipodi:nodetypes="ccccccccc" />
      <path
         style="fill:none;fill-opacity:1.0000000;fill-rule:evenodd;stroke:#333333;stroke-width:2.5000000;stroke-linecap:round;stroke-linejoin:round;stroke-miterlimit:4.0000000;stroke-dashoffset:0.0000000;stroke-opacity:1.0000000;"
         d="M 9.4180287,38.357573 C 8.2070197,38.357573 7.2320918,39.332501 7.2320918,40.543510 L 7.2320918,54.864591 C 7.2320918,56.075601 8.2070197,57.050529 9.4180287,57.050529 L 25.655080,57.050529 C 26.866089,57.050529 27.841017,56.075601 27.841017,54.864591 L 27.841017,40.543510 C 27.841017,39.332501 26.866089,38.357573 25.655080,38.357573 L 9.4180287,38.357573 z "
         id="path1554"
         sodipodi:nodetypes="ccccccccc" />
      <g
         id="g2202"
         transform="matrix(0.806819,0.000000,0.000000,0.806819,-0.202671,3.405364)">
        <path
           id="path829"
           style="font-size:24.000000;fill:#333333;stroke-width:1.0000000pt;font-family:VAG Rounded Black SSi;"
           d="M 16.660047,19.989989 L 16.660047,10.070105 C 16.660047,9.7045483 16.779130,9.3999172 17.017295,9.1562128 C 17.255462,8.9125085 17.562861,8.7906563 17.939496,8.7906563 C 18.316131,8.7906563 18.620760,8.9041997 18.853388,9.1312880 C 19.091554,9.3583762 19.210637,9.6713160 19.210637,10.070105 L 19.210637,13.775522 L 23.397924,9.2725259 C 23.691478,8.9512799 24.021033,8.7906563 24.386590,8.7906563 C 24.724453,8.7906563 25.018007,8.9069693 25.267249,9.1395967 C 25.522032,9.3666849 25.649423,9.6657769 25.649423,10.036873 C 25.649423,10.247345 25.582957,10.455047 25.450028,10.659981 C 25.317099,10.859375 25.103857,11.105849 24.810303,11.399403 L 21.595065,14.598025 L 25.524802,18.743772 C 25.751890,18.959784 25.926360,19.170256 26.048212,19.375189 C 26.175603,19.574584 26.239298,19.796133 26.239298,20.039837 C 26.239298,20.427549 26.111907,20.723873 25.857126,20.928805 C 25.602343,21.128201 25.286635,21.227897 24.910001,21.227897 C 24.688451,21.227897 24.486288,21.166972 24.303509,21.045118 C 24.126269,20.923266 23.899181,20.718333 23.622244,20.430318 L 19.210637,15.611615 L 19.210637,19.989989 C 19.210637,20.338929 19.091554,20.632483 18.853388,20.870648 C 18.615223,21.108815 18.310591,21.227897 17.939496,21.227897 C 17.568400,21.227897 17.261001,21.114353 17.017295,20.887264 C 16.779130,20.660176 16.660047,20.361084 16.660047,19.989989 z " />
        <path
           style="font-size:12.000000;fill:#333333;fill-rule:evenodd;stroke:#333333;stroke-width:0.13367949;stroke-linecap:round;stroke-linejoin:round;"
           d="M 10.409065,24.822673 L 12.043350,26.534778 L 14.689322,24.744842 L 16.790543,25.678732 L 17.490948,28.746065 L 19.730217,28.747325 L 20.370395,25.578097 L 22.471614,24.744842 L 25.117587,26.456961 L 26.362755,24.744842 L 23.359899,21.910990 C 15.663292,28.970322 9.0122379,18.090160 15.623200,13.538348 L 15.623192,11.904061 L 14.844970,12.293175 L 12.432457,10.759503 L 10.765936,12.128076 L 12.276813,14.705681 L 11.420763,16.806900 L 8.4725867,17.296639 L 8.4634900,19.530704 L 11.498589,20.308934 L 12.335184,22.351796 L 10.409065,24.822673 z "
           sodipodi:nodetypes="ccccccccccccccccccccccc"
           sodipodi:stroke-cmyk="(0 0 0 0.8)"
           id="path705" />
      </g>
    </g>
    <path
       style="fill:none;fill-opacity:0.75000000;fill-rule:evenodd;stroke:#7f7f7f;stroke-width:1.8750000;stroke-linecap:round;stroke-linejoin:round;stroke-miterlimit:4.0000000;stroke-opacity:1.0000000;"
       d="M 39.787234,18.187500 L 50.611703,18.187500"
       id="path932"
       sodipodi:stroke-cmyk="(0.0000000 0.0000000 0.0000000 0.50196081)"
       sodipodi:nodetypes="cc" />
    <path
       style="fill:none;fill-opacity:0.75000000;fill-rule:evenodd;stroke:#7f7f7f;stroke-width:1.8750000;stroke-linecap:round;stroke-linejoin:round;stroke-miterlimit:4.0000000;stroke-opacity:1.0000000;"
       d="M 39.787234,21.698138 L 48.563830,21.698138"
       id="path1558"
       sodipodi:stroke-cmyk="(0.0000000 0.0000000 0.0000000 0.50196081)"
       sodipodi:nodetypes="cc" />
    <path
       style="fill:none;fill-opacity:0.75000000;fill-rule:evenodd;stroke:#7f7f7f;stroke-width:1.8750000;stroke-linecap:round;stroke-linejoin:round;stroke-miterlimit:4.0000000;stroke-opacity:1.0000000;"
       d="M 39.787234,25.208776 L 46.223405,25.208776"
       id="path1559"
       sodipodi:stroke-cmyk="(0.0000000 0.0000000 0.0000000 0.50196081)"
       sodipodi:nodetypes="cs" />
    <path
       style="fill:none;fill-opacity:0.75000000;fill-rule:evenodd;stroke:#7f7f7f;stroke-width:1.8750000;stroke-linecap:round;stroke-linejoin:round;stroke-miterlimit:4.0000000;stroke-opacity:1.0000000;"
       d="M 39.787234,28.719414 L 51.196809,28.719414"
       id="path1560"
       sodipodi:stroke-cmyk="(0.0000000 0.0000000 0.0000000 0.50196081)"
       sodipodi:nodetypes="cc" />
    <path
       style="fill:none;fill-opacity:0.75000000;fill-rule:evenodd;stroke:#7f7f7f;stroke-width:1.8750000;stroke-linecap:round;stroke-linejoin:round;stroke-miterlimit:4.0000000;stroke-opacity:1.0000000;"
       d="M 39.787234,35.793882 L 47.686171,35.793882"
       id="path1563"
       sodipodi:stroke-cmyk="(0.0000000 0.0000000 0.0000000 0.50196081)"
       sodipodi:nodetypes="cc" />
    <path
       style="fill:none;fill-opacity:0.75000000;fill-rule:evenodd;stroke:#7f7f7f;stroke-width:1.8750000;stroke-linecap:round;stroke-linejoin:round;stroke-miterlimit:4.0000000;stroke-opacity:1.0000000;"
       d="M 39.787234,39.304520 L 49.734043,39.304520"
       id="path1564"
       sodipodi:stroke-cmyk="(0.0000000 0.0000000 0.0000000 0.50196081)" />
    <path
       style="fill:none;fill-opacity:0.75000000;fill-rule:evenodd;stroke:#7f7f7f;stroke-width:1.8750000;stroke-linecap:round;stroke-linejoin:round;stroke-miterlimit:4.0000000;stroke-opacity:1.0000000;"
       d="M 10.531915,46.711436 L 21.941490,46.711436"
       id="path1565"
       sodipodi:stroke-cmyk="(0.0000000 0.0000000 0.0000000 0.50196081)"
       sodipodi:nodetypes="cc" />
    <path
       style="fill:none;fill-opacity:0.75000000;fill-rule:evenodd;stroke:#7f7f7f;stroke-width:1.8750000;stroke-linecap:round;stroke-linejoin:round;stroke-miterlimit:4.0000000;stroke-opacity:1.0000000;"
       d="M 10.531915,50.222074 L 20.478724,50.222074"
       id="path1566"
       sodipodi:stroke-cmyk="(0.0000000 0.0000000 0.0000000 0.50196081)" />
    <path
       style="fill:none;fill-opacity:0.75000000;fill-rule:evenodd;stroke:#7f7f7f;stroke-width:1.8750000;stroke-linecap:round;stroke-linejoin:round;stroke-miterlimit:4.0000000;stroke-opacity:1.0000000;"
       d="M 10.531915,53.732712 L 23.111703,53.732712"
       id="path1567"
       sodipodi:stroke-cmyk="(0.0000000 0.0000000 0.0000000 0.50196081)"
       sodipodi:nodetypes="cc" />
  </g>
</svg>
