<?xml version="1.0" encoding="UTF-8" standalone="no"?>
<!DOCTYPE svg PUBLIC "-//W3C//DTD SVG 20010904//EN"
"http://www.w3.org/TR/2001/REC-SVG-20010904/DTD/svg10.dtd">
<svg
   sodipodi:docname="largethumbnails.svg"
   height="60.0000000"
   sodipodi:version="0.32"
   width="60.0000000"
   _SVGFile__filename="scalable/actions/largethumbnails.svg"
   version="1.0"
   y="0"
   x="0"
   inkscape:version="0.39"
   id="svg1"
   sodipodi:docbase="/home/danny/work/flat/newscale/actions"
   xmlns="http://www.w3.org/2000/svg"
   xmlns:cc="http://web.resource.org/cc/"
   xmlns:inkscape="http://www.inkscape.org/namespaces/inkscape"
   xmlns:sodipodi="http://sodipodi.sourceforge.net/DTD/sodipodi-0.dtd"
   xmlns:rdf="http://www.w3.org/1999/02/22-rdf-syntax-ns#"
   xmlns:dc="http://purl.org/dc/elements/1.1/"
   xmlns:xlink="http://www.w3.org/1999/xlink">
  <sodipodi:namedview
     bordercolor="#666666"
     inkscape:pageshadow="2"
     inkscape:window-y="0"
     snaptoguides="true"
     pagecolor="#ffffff"
     inkscape:window-height="685"
     inkscape:zoom="6.9465337"
     inkscape:window-x="0"
     borderopacity="1.0"
     inkscape:cx="33.984503"
     inkscape:cy="21.891029"
     inkscape:window-width="1016"
     inkscape:pageopacity="0.0"
     id="base"
     showguides="true" />
  <defs
     id="defs3" />
  <path
     style="fill:#b3b3b3;fill-rule:evenodd;stroke:#333333;stroke-width:3.1250000;stroke-linecap:round;stroke-linejoin:round;stroke-dasharray:3.1250000 3.1250000 ;stroke-dashoffset:0.0000000;"
     d="M 6.5672653,4.3905821 C 5.0855425,4.3905821 3.8926754,5.5834492 3.8926754,7.0651720 L 3.8926754,25.197890 C 3.8926754,26.679612 5.0855425,27.872479 6.5672653,27.872479 L 24.699983,27.872479 C 26.181706,27.872479 27.374573,26.679612 27.374573,25.197890 L 27.374573,7.0651720 C 27.374573,5.5834492 26.181706,4.3905821 24.699983,4.3905821 L 6.5672653,4.3905821 z "
     id="rect835" />
  <path
     style="fill:#b3b3b3;fill-rule:evenodd;stroke:#333333;stroke-width:3.1250000;stroke-linecap:round;stroke-linejoin:round;stroke-dasharray:3.1250000 3.1250000 ;stroke-dashoffset:0.0000000;"
     d="M 35.221991,4.3905821 C 33.740269,4.3905821 32.547401,5.5834492 32.547401,7.0651720 L 32.547401,25.197890 C 32.547401,26.679612 33.740269,27.872479 35.221991,27.872479 L 53.354709,27.872479 C 54.836432,27.872479 56.029299,26.679612 56.029299,25.197890 L 56.029299,7.0651720 C 56.029299,5.5834492 54.836432,4.3905821 53.354709,4.3905821 L 35.221991,4.3905821 z "
     id="rect836" />
  <path
     style="fill:#b3b3b3;fill-rule:evenodd;stroke:#333333;stroke-width:3.1250000;stroke-linecap:round;stroke-linejoin:round;stroke-dasharray:3.1250000 3.1250000 ;stroke-dashoffset:0.0000000;"
     d="M 6.5672653,32.925339 C 5.0855425,32.925339 3.8926754,34.118206 3.8926754,35.599929 L 3.8926754,53.732646 C 3.8926754,55.214369 5.0855425,56.407236 6.5672653,56.407236 L 24.699983,56.407236 C 26.181706,56.407236 27.374573,55.214369 27.374573,53.732646 L 27.374573,35.599929 C 27.374573,34.118206 26.181706,32.925339 24.699983,32.925339 L 6.5672653,32.925339 z "
     id="rect838" />
  <path
     style="fill:#b3b3b3;fill-rule:evenodd;stroke:#333333;stroke-width:3.1250000;stroke-linecap:round;stroke-linejoin:round;stroke-dasharray:3.1250000 3.1250000 ;stroke-dashoffset:0.0000000;"
     d="M 35.221991,32.925339 C 33.740269,32.925339 32.547401,34.118206 32.547401,35.599929 L 32.547401,53.732646 C 32.547401,55.214369 33.740269,56.407236 35.221991,56.407236 L 53.354709,56.407236 C 54.836432,56.407236 56.029299,55.214369 56.029299,53.732646 L 56.029299,35.599929 C 56.029299,34.118206 54.836432,32.925339 53.354709,32.925339 L 35.221991,32.925339 z "
     id="rect839" />
  <metadata
     id="metadata8">
    <rdf:RDF
       id="RDF9">
      <cc:Work
         rdf:about=""
         id="Work10">
        <dc:title
           id="title11">Part of the Flat Icon Collection (Thu Aug 26 14:38:01 2004)</dc:title>
        <dc:description
           id="description13" />
        <dc:subject
           id="subject14">
          <rdf:Bag
             id="Bag15">
            <rdf:li
               id="li16" />
          </rdf:Bag>
        </dc:subject>
        <dc:publisher
           id="publisher17">
          <cc:Agent
             rdf:about=""
             id="Agent18">
            <dc:title
               id="title19" />
          </cc:Agent>
        </dc:publisher>
        <dc:creator
           id="creator20">
          <cc:Agent
             rdf:about=""
             id="Agent21">
            <dc:title
               id="title22">Danny Allen</dc:title>
          </cc:Agent>
        </dc:creator>
        <dc:rights
           id="rights24">
          <cc:Agent
             rdf:about=""
             id="Agent25">
            <dc:title
               id="title26">Danny Allen</dc:title>
          </cc:Agent>
        </dc:rights>
        <dc:date
           id="date28" />
        <dc:format
           id="format29">image/svg+xml</dc:format>
        <dc:type
           rdf:resource="http://purl.org/dc/dcmitype/StillImage"
           id="type31" />
        <cc:license
           rdf:resource="http://creativecommons.org/licenses/LGPL/2.1/"
           id="license32">
          <dc:date
             id="date33" />
        </cc:license>
        <dc:language
           id="language34">en</dc:language>
      </cc:Work>
    </rdf:RDF>
  </metadata>
</svg>
