<?xml version="1.0" encoding="UTF-8" standalone="no"?>
<!DOCTYPE svg PUBLIC "-//W3C//DTD SVG 20010904//EN"
"http://www.w3.org/TR/2001/REC-SVG-20010904/DTD/svg10.dtd">
<svg
   sodipodi:docname="math_lsup.svg"
   height="60.0000000"
   sodipodi:version="0.32"
   width="60.0000000"
   _SVGFile__filename="scalable/actions/math_lsup.svg"
   version="1.0"
   y="0"
   x="0"
   inkscape:version="0.39"
   id="svg1"
   sodipodi:docbase="/home/danny/work/flat/newscale/actions"
   xmlns="http://www.w3.org/2000/svg"
   xmlns:cc="http://web.resource.org/cc/"
   xmlns:inkscape="http://www.inkscape.org/namespaces/inkscape"
   xmlns:sodipodi="http://sodipodi.sourceforge.net/DTD/sodipodi-0.dtd"
   xmlns:rdf="http://www.w3.org/1999/02/22-rdf-syntax-ns#"
   xmlns:dc="http://purl.org/dc/elements/1.1/"
   xmlns:xlink="http://www.w3.org/1999/xlink">
  <sodipodi:namedview
     bordercolor="#666666"
     inkscape:pageshadow="2"
     inkscape:window-y="0"
     pagecolor="#ffffff"
     inkscape:window-height="685"
     inkscape:zoom="6.9465337"
     inkscape:window-x="0"
     borderopacity="1.0"
     inkscape:cx="33.984503"
     inkscape:cy="14.678974"
     inkscape:window-width="1016"
     inkscape:pageopacity="0.0"
     id="base" />
  <defs
     id="defs3">
    <linearGradient
       id="linearGradient900">
      <stop
         style="stop-color:#000;stop-opacity:1;"
         id="stop901"
         offset="0" />
      <stop
         style="stop-color:#fff;stop-opacity:1;"
         id="stop902"
         offset="1" />
    </linearGradient>
    <linearGradient
       xlink:href="#linearGradient900"
       id="linearGradient903" />
    <linearGradient
       xlink:href="#linearGradient900"
       id="linearGradient904" />
    <linearGradient
       xlink:href="#linearGradient900"
       id="linearGradient905" />
    <linearGradient
       xlink:href="#linearGradient900"
       id="linearGradient906" />
    <linearGradient
       xlink:href="#linearGradient900"
       id="linearGradient907" />
  </defs>
  <path
     id="path837"
     style="font-size:12.000000;font-weight:900;fill:#333333;stroke-width:1.0000000pt;font-family:VAG Rounded Black SSi;"
     transform="scale(-4.979007,4.979007)"
     d="M -11.231544,7.7494164 L -9.6377945,6.0326195 L -10.604591,4.9896507 C -10.838966,4.7396507 -10.997169,4.5697289 -11.079201,4.4798851 C -11.157326,4.3861351 -11.217873,4.2943382 -11.260841,4.2044945 C -11.303810,4.1107445 -11.325294,4.0052757 -11.325294,3.8880882 C -11.325294,3.6068382 -11.233498,3.3744164 -11.049904,3.1908226 C -10.866310,3.0072289 -10.659279,2.9154320 -10.428810,2.9154320 C -10.206154,2.9154320 -10.030373,2.9466820 -9.9014664,3.0091820 C -9.7725601,3.0716820 -9.6397476,3.1927757 -9.5030289,3.3724632 L -8.5069351,4.6205101 L -7.5108414,3.3724632 C -7.3663101,3.1927757 -7.2315445,3.0716820 -7.1065445,3.0091820 C -6.9815445,2.9466820 -6.8077164,2.9154320 -6.5850601,2.9154320 C -6.3545914,2.9154320 -6.1475601,3.0052757 -5.9639664,3.1849632 C -5.7803726,3.3646507 -5.6885757,3.5990257 -5.6885757,3.8880882 C -5.6885757,4.0052757 -5.7100601,4.1107445 -5.7530289,4.2044945 C -5.7959976,4.2943382 -5.8584976,4.3861351 -5.9405289,4.4798851 C -6.0186539,4.5697289 -6.1749039,4.7396507 -6.4092789,4.9896507 L -7.3760757,6.0326195 L -5.7823257,7.7494164 C -5.6807632,7.8587914 -5.5948257,7.9779320 -5.5245132,8.1068382 C -5.4502945,8.2318382 -5.4131851,8.3802757 -5.4131851,8.5521507 C -5.4131851,8.8373070 -5.5049820,9.0677757 -5.6885757,9.2435570 C -5.8721695,9.4154320 -6.0987320,9.5013695 -6.3682632,9.5013695 C -6.5440445,9.5013695 -6.6885757,9.4642601 -6.8018570,9.3900414 C -6.9112320,9.3158226 -7.0440445,9.1927757 -7.2002945,9.0209007 L -8.5069351,7.4740257 L -9.8135757,9.0209007 C -9.9502945,9.1771507 -10.079201,9.2962914 -10.200294,9.3783226 C -10.321388,9.4603539 -10.469826,9.5013695 -10.645607,9.5013695 C -10.915138,9.5013695 -11.141701,9.4154320 -11.325294,9.2435570 C -11.508888,9.0677757 -11.600685,8.8373070 -11.600685,8.5521507 C -11.600685,8.3841820 -11.569435,8.2416039 -11.506935,8.1244164 C -11.440529,8.0072289 -11.348732,7.8822289 -11.231544,7.7494164 z " />
  <path
     transform="scale(-1.000000,1.000000)"
     style="fill:#b3b3b3;fill-rule:evenodd;stroke:#333333;stroke-width:3.1250000;stroke-linecap:round;stroke-linejoin:round;stroke-dasharray:3.1250000 3.1250000 ;stroke-dashoffset:0.0000000;"
     d="M -22.606661,4.5617428 C -23.029442,4.5617428 -23.369804,4.9021049 -23.369804,5.3248866 L -23.369804,23.161363 C -23.369804,23.584145 -23.029442,23.924507 -22.606661,23.924507 L -4.7701839,23.924507 C -4.3474022,23.924507 -4.0070400,23.584145 -4.0070400,23.161363 L -4.0070400,5.3248866 C -4.0070400,4.9021049 -4.3474022,4.5617428 -4.7701839,4.5617428 L -22.606661,4.5617428 z "
     id="rect1018" />
  <metadata
     id="metadata14">
    <rdf:RDF
       id="RDF15">
      <cc:Work
         rdf:about=""
         id="Work16">
        <dc:title
           id="title17">Part of the Flat Icon Collection (Thu Aug 26 14:38:01 2004)</dc:title>
        <dc:description
           id="description19" />
        <dc:subject
           id="subject20">
          <rdf:Bag
             id="Bag21">
            <rdf:li
               id="li22" />
          </rdf:Bag>
        </dc:subject>
        <dc:publisher
           id="publisher23">
          <cc:Agent
             rdf:about=""
             id="Agent24">
            <dc:title
               id="title25" />
          </cc:Agent>
        </dc:publisher>
        <dc:creator
           id="creator26">
          <cc:Agent
             rdf:about=""
             id="Agent27">
            <dc:title
               id="title28">Danny Allen</dc:title>
          </cc:Agent>
        </dc:creator>
        <dc:rights
           id="rights30">
          <cc:Agent
             rdf:about=""
             id="Agent31">
            <dc:title
               id="title32">Danny Allen</dc:title>
          </cc:Agent>
        </dc:rights>
        <dc:date
           id="date34" />
        <dc:format
           id="format35">image/svg+xml</dc:format>
        <dc:type
           rdf:resource="http://purl.org/dc/dcmitype/StillImage"
           id="type37" />
        <cc:license
           rdf:resource="http://creativecommons.org/licenses/LGPL/2.1/"
           id="license38">
          <dc:date
             id="date39" />
        </cc:license>
        <dc:language
           id="language40">en</dc:language>
      </cc:Work>
    </rdf:RDF>
  </metadata>
</svg>
