<?xml version="1.0" encoding="UTF-8" standalone="no"?>
<!DOCTYPE svg PUBLIC "-//W3C//DTD SVG 20010904//EN"
"http://www.w3.org/TR/2001/REC-SVG-20010904/DTD/svg10.dtd">
<svg
   sodipodi:docname="medthumbnails.svg"
   height="60.0000000"
   sodipodi:version="0.32"
   width="60.0000000"
   _SVGFile__filename="scalable/actions/medthumbnails.svg"
   version="1.0"
   y="0"
   x="0"
   inkscape:version="0.39"
   id="svg1"
   sodipodi:docbase="/home/danny/work/flat/newscale/actions"
   xmlns="http://www.w3.org/2000/svg"
   xmlns:cc="http://web.resource.org/cc/"
   xmlns:inkscape="http://www.inkscape.org/namespaces/inkscape"
   xmlns:sodipodi="http://sodipodi.sourceforge.net/DTD/sodipodi-0.dtd"
   xmlns:rdf="http://www.w3.org/1999/02/22-rdf-syntax-ns#"
   xmlns:dc="http://purl.org/dc/elements/1.1/"
   xmlns:xlink="http://www.w3.org/1999/xlink">
  <sodipodi:namedview
     bordercolor="#666666"
     inkscape:pageshadow="2"
     inkscape:window-y="0"
     snaptoguides="true"
     pagecolor="#ffffff"
     inkscape:window-height="685"
     inkscape:zoom="6.9465337"
     inkscape:window-x="0"
     borderopacity="1.0"
     inkscape:cx="33.984503"
     inkscape:cy="21.891029"
     inkscape:window-width="1016"
     inkscape:pageopacity="0.0"
     id="base"
     showguides="true" />
  <defs
     id="defs3" />
  <path
     style="fill:#b3b3b3;fill-rule:evenodd;stroke:#333333;stroke-width:2.5000000;stroke-linecap:round;stroke-linejoin:round;stroke-dasharray:2.5000000 2.5000000 ;stroke-dashoffset:0.0000000;"
     d="M 8.8338552,7.3258195 C 7.7225631,7.3258195 6.8279128,8.2204698 6.8279128,9.3317618 L 6.8279128,22.931301 C 6.8279128,24.042593 7.7225631,24.937243 8.8338552,24.937243 L 22.433394,24.937243 C 23.544686,24.937243 24.439336,24.042593 24.439336,22.931301 L 24.439336,9.3317618 C 24.439336,8.2204698 23.544686,7.3258195 22.433394,7.3258195 L 8.8338552,7.3258195 z "
     id="rect835" />
  <path
     style="fill:#b3b3b3;fill-rule:evenodd;stroke:#333333;stroke-width:2.5000000;stroke-linecap:round;stroke-linejoin:round;stroke-dasharray:2.5000000 2.5000000 ;stroke-dashoffset:0.0000000;"
     d="M 37.488582,7.3258195 C 36.377290,7.3258195 35.482639,8.2204698 35.482639,9.3317618 L 35.482639,22.931301 C 35.482639,24.042593 36.377290,24.937243 37.488582,24.937243 L 51.088120,24.937243 C 52.199413,24.937243 53.094063,24.042593 53.094063,22.931301 L 53.094063,9.3317618 C 53.094063,8.2204698 52.199413,7.3258195 51.088120,7.3258195 L 37.488582,7.3258195 z "
     id="rect836" />
  <path
     style="fill:#b3b3b3;fill-rule:evenodd;stroke:#333333;stroke-width:2.5000000;stroke-linecap:round;stroke-linejoin:round;stroke-dasharray:2.5000000 2.5000000 ;stroke-dashoffset:0.0000000;"
     d="M 8.8338552,35.860577 C 7.7225631,35.860577 6.8279128,36.755227 6.8279128,37.866519 L 6.8279128,51.466058 C 6.8279128,52.577350 7.7225631,53.472000 8.8338552,53.472000 L 22.433394,53.472000 C 23.544686,53.472000 24.439336,52.577350 24.439336,51.466058 L 24.439336,37.866519 C 24.439336,36.755227 23.544686,35.860577 22.433394,35.860577 L 8.8338552,35.860577 z "
     id="rect838" />
  <path
     style="fill:#b3b3b3;fill-rule:evenodd;stroke:#333333;stroke-width:2.5000000;stroke-linecap:round;stroke-linejoin:round;stroke-dasharray:2.5000000 2.5000000 ;stroke-dashoffset:0.0000000;"
     d="M 37.488582,35.860577 C 36.377290,35.860577 35.482639,36.755227 35.482639,37.866519 L 35.482639,51.466058 C 35.482639,52.577350 36.377290,53.472000 37.488582,53.472000 L 51.088120,53.472000 C 52.199413,53.472000 53.094063,52.577350 53.094063,51.466058 L 53.094063,37.866519 C 53.094063,36.755227 52.199413,35.860577 51.088120,35.860577 L 37.488582,35.860577 z "
     id="rect839" />
  <metadata
     id="metadata8">
    <rdf:RDF
       id="RDF9">
      <cc:Work
         rdf:about=""
         id="Work10">
        <dc:title
           id="title11">Part of the Flat Icon Collection (Thu Aug 26 14:38:01 2004)</dc:title>
        <dc:description
           id="description13" />
        <dc:subject
           id="subject14">
          <rdf:Bag
             id="Bag15">
            <rdf:li
               id="li16" />
          </rdf:Bag>
        </dc:subject>
        <dc:publisher
           id="publisher17">
          <cc:Agent
             rdf:about=""
             id="Agent18">
            <dc:title
               id="title19" />
          </cc:Agent>
        </dc:publisher>
        <dc:creator
           id="creator20">
          <cc:Agent
             rdf:about=""
             id="Agent21">
            <dc:title
               id="title22">Danny Allen</dc:title>
          </cc:Agent>
        </dc:creator>
        <dc:rights
           id="rights24">
          <cc:Agent
             rdf:about=""
             id="Agent25">
            <dc:title
               id="title26">Danny Allen</dc:title>
          </cc:Agent>
        </dc:rights>
        <dc:date
           id="date28" />
        <dc:format
           id="format29">image/svg+xml</dc:format>
        <dc:type
           rdf:resource="http://purl.org/dc/dcmitype/StillImage"
           id="type31" />
        <cc:license
           rdf:resource="http://creativecommons.org/licenses/LGPL/2.1/"
           id="license32">
          <dc:date
             id="date33" />
        </cc:license>
        <dc:language
           id="language34">en</dc:language>
      </cc:Work>
    </rdf:RDF>
  </metadata>
</svg>
