<?xml version="1.0" encoding="UTF-8" standalone="no"?>
<!DOCTYPE svg PUBLIC "-//W3C//DTD SVG 20010904//EN"
"http://www.w3.org/TR/2001/REC-SVG-20010904/DTD/svg10.dtd">
<svg
   sodipodi:docname="yahoo_mobile.svg"
   height="60.0000000"
   sodipodi:version="0.32"
   width="60.0000000"
   _SVGFile__filename="scalable/actions/yahoo_mobile.svg"
   version="1.0"
   y="0"
   x="0"
   inkscape:version="0.39"
   id="svg1"
   sodipodi:docbase="/home/danny/work/flat/newscale/actions"
   xmlns="http://www.w3.org/2000/svg"
   xmlns:cc="http://web.resource.org/cc/"
   xmlns:inkscape="http://www.inkscape.org/namespaces/inkscape"
   xmlns:sodipodi="http://sodipodi.sourceforge.net/DTD/sodipodi-0.dtd"
   xmlns:rdf="http://www.w3.org/1999/02/22-rdf-syntax-ns#"
   xmlns:dc="http://purl.org/dc/elements/1.1/"
   xmlns:xlink="http://www.w3.org/1999/xlink">
  <sodipodi:namedview
     bordercolor="#666666"
     inkscape:pageshadow="2"
     inkscape:window-y="0"
     snaptoguides="true"
     pagecolor="#ffffff"
     inkscape:window-height="685"
     inkscape:zoom="11.125000"
     inkscape:window-x="0"
     borderopacity="1.0"
     inkscape:cx="24.000000"
     inkscape:cy="17.191039"
     inkscape:window-width="1016"
     inkscape:pageopacity="0.0"
     id="base"
     showguides="true" />
  <defs
     id="defs3">
    <linearGradient
       id="linearGradient772">
      <stop
         style="stop-color:#000;stop-opacity:1;"
         id="stop773"
         offset="0" />
      <stop
         style="stop-color:#fff;stop-opacity:1;"
         id="stop774"
         offset="1" />
    </linearGradient>
    <linearGradient
       xlink:href="#linearGradient772"
       id="linearGradient775" />
  </defs>
  <path
     transform="matrix(0.956132,0.000000,0.000000,0.956132,0.509679,0.157686)"
     style="fill:#333333;fill-opacity:1.0000000;fill-rule:evenodd;stroke:#333333;stroke-width:2.6147017;stroke-linejoin:round;stroke-miterlimit:4.0000000;"
     d="M 38.108711,2.7772157 C 37.532627,2.7772157 37.068848,3.2409946 37.068848,3.8170787 L 37.068848,13.433833 C 37.068848,14.009918 37.532627,14.473696 38.108711,14.473696 L 40.527631,14.473696 C 41.103715,14.473696 41.567494,14.009918 41.567494,13.433833 L 41.567494,3.8170787 C 41.567494,3.2409946 41.103715,2.7772157 40.527631,2.7772157 L 38.108711,2.7772157 z "
     id="rect900" />
  <path
     transform="matrix(0.956132,0.000000,0.000000,0.956132,0.337626,3.426674)"
     style="fill:#7f7f7f;fill-rule:evenodd;stroke:#333333;stroke-width:3.2683773;stroke-linejoin:round;"
     d="M 19.195127,9.9750500 C 17.533127,9.9750500 16.195127,11.313050 16.195127,12.975050 L 16.195127,53.041189 C 16.195127,54.703189 17.533127,56.041189 19.195127,56.041189 L 42.886194,56.041189 C 44.548194,56.041189 45.886194,54.703189 45.886194,53.041189 L 45.886194,12.975050 C 45.886194,11.313050 44.548194,9.9750500 42.886194,9.9750500 L 19.195127,9.9750500 z "
     id="rect899" />
  <path
     style="fill:#000000;fill-opacity:1.0000000;fill-rule:evenodd;stroke:#000000;stroke-width:1.8750000;stroke-linejoin:round;stroke-opacity:1.0000000;"
     d="M 21.914355,17.047920 C 20.708891,17.047920 19.738427,18.018384 19.738427,19.223848 L 19.738427,31.317060 C 19.738427,32.522524 20.708891,33.492988 21.914355,33.492988 L 38.118835,33.492988 C 39.324299,33.492988 40.294763,32.522524 40.294763,31.317060 L 40.294763,19.223848 C 40.294763,18.018384 39.324299,17.047920 38.118835,17.047920 L 21.914355,17.047920 z "
     id="rect901"
     sodipodi:stroke-cmyk="(0.0000000 0.0000000 0.0000000 1.0000000)" />
  <g
     id="g1587"
     transform="translate(-9.501613e-2,0.000000)">
    <path
       transform="matrix(0.843533,0.000000,0.000000,0.843533,2.791160,5.763706)"
       style="fill:#333333;fill-rule:evenodd;stroke-width:1.0000000pt;"
       d="M 20.322414,36.587666 C 19.919484,36.587666 19.595104,36.912046 19.595104,37.314975 L 19.595104,39.550343 C 19.595104,39.953273 19.919484,40.277653 20.322414,40.277653 L 25.738805,40.277653 C 26.141735,40.277653 26.466115,39.953273 26.466115,39.550343 L 26.466115,37.314975 C 26.466115,36.912046 26.141735,36.587666 25.738805,36.587666 L 20.322414,36.587666 z "
       id="rect902" />
    <path
       transform="matrix(0.843533,0.000000,0.000000,0.843533,1.717841,5.763706)"
       style="fill:#333333;fill-rule:evenodd;stroke-width:1.0000000pt;"
       d="M 30.952335,36.587666 C 30.549405,36.587666 30.225025,36.912046 30.225025,37.314975 L 30.225025,39.550343 C 30.225025,39.953273 30.549405,40.277653 30.952335,40.277653 L 36.368726,40.277653 C 36.771656,40.277653 37.096036,39.953273 37.096036,39.550343 L 37.096036,37.314975 C 37.096036,36.912046 36.771656,36.587666 36.368726,36.587666 L 30.952335,36.587666 z "
       id="rect903" />
    <path
       transform="matrix(0.843533,0.000000,0.000000,0.843533,0.644521,5.763706)"
       style="fill:#333333;fill-rule:evenodd;stroke-width:1.0000000pt;"
       d="M 41.582260,36.587666 C 41.179330,36.587666 40.854950,36.912046 40.854950,37.314975 L 40.854950,39.550343 C 40.854950,39.953273 41.179330,40.277653 41.582260,40.277653 L 46.998651,40.277653 C 47.401581,40.277653 47.725961,39.953273 47.725961,39.550343 L 47.725961,37.314975 C 47.725961,36.912046 47.401581,36.587666 46.998651,36.587666 L 41.582260,36.587666 z "
       id="rect904" />
    <path
       style="fill:#333333;fill-rule:evenodd;stroke-width:1.0000000pt;"
       d="M 19.933788,41.230259 C 19.593903,41.230259 19.320278,41.503885 19.320278,41.843769 L 19.320278,43.729376 C 19.320278,44.069260 19.593903,44.342885 19.933788,44.342885 L 24.502692,44.342885 C 24.842577,44.342885 25.116202,44.069260 25.116202,43.729376 L 25.116202,41.843769 C 25.116202,41.503885 24.842577,41.230259 24.502692,41.230259 L 19.933788,41.230259 z "
       id="rect905" />
    <path
       style="fill:#333333;fill-rule:evenodd;stroke-width:1.0000000pt;"
       d="M 27.827157,41.230259 C 27.487273,41.230259 27.213647,41.503885 27.213647,41.843769 L 27.213647,43.729376 C 27.213647,44.069260 27.487273,44.342885 27.827157,44.342885 L 32.396062,44.342885 C 32.735946,44.342885 33.009572,44.069260 33.009572,43.729376 L 33.009572,41.843769 C 33.009572,41.503885 32.735946,41.230259 32.396062,41.230259 L 27.827157,41.230259 z "
       id="rect906" />
    <path
       style="fill:#333333;fill-rule:evenodd;stroke-width:1.0000000pt;"
       d="M 35.720529,41.230259 C 35.380644,41.230259 35.107019,41.503885 35.107019,41.843769 L 35.107019,43.729376 C 35.107019,44.069260 35.380644,44.342885 35.720529,44.342885 L 40.289433,44.342885 C 40.629318,44.342885 40.902943,44.069260 40.902943,43.729376 L 40.902943,41.843769 C 40.902943,41.503885 40.629318,41.230259 40.289433,41.230259 L 35.720529,41.230259 z "
       id="rect907" />
    <path
       style="fill:#333333;fill-rule:evenodd;stroke-width:1.0000000pt;"
       d="M 19.933788,45.833907 C 19.593903,45.833907 19.320278,46.107532 19.320278,46.447416 L 19.320278,48.333023 C 19.320278,48.672907 19.593903,48.946533 19.933788,48.946533 L 24.502692,48.946533 C 24.842577,48.946533 25.116202,48.672907 25.116202,48.333023 L 25.116202,46.447416 C 25.116202,46.107532 24.842577,45.833907 24.502692,45.833907 L 19.933788,45.833907 z "
       id="rect908" />
    <path
       style="fill:#333333;fill-rule:evenodd;stroke-width:1.0000000pt;"
       d="M 27.827157,45.833907 C 27.487273,45.833907 27.213647,46.107532 27.213647,46.447416 L 27.213647,48.333023 C 27.213647,48.672907 27.487273,48.946533 27.827157,48.946533 L 32.396062,48.946533 C 32.735946,48.946533 33.009572,48.672907 33.009572,48.333023 L 33.009572,46.447416 C 33.009572,46.107532 32.735946,45.833907 32.396062,45.833907 L 27.827157,45.833907 z "
       id="rect909" />
    <path
       style="fill:#333333;fill-rule:evenodd;stroke-width:1.0000000pt;"
       d="M 35.720529,45.833907 C 35.380644,45.833907 35.107019,46.107532 35.107019,46.447416 L 35.107019,48.333023 C 35.107019,48.672907 35.380644,48.946533 35.720529,48.946533 L 40.289433,48.946533 C 40.629318,48.946533 40.902943,48.672907 40.902943,48.333023 L 40.902943,46.447416 C 40.902943,46.107532 40.629318,45.833907 40.289433,45.833907 L 35.720529,45.833907 z "
       id="rect910" />
    <path
       transform="translate(-0.304274,3.053782)"
       style="fill:#333333;fill-rule:evenodd;stroke-width:1.0000000pt;"
       d="M 20.238062,47.383774 C 19.898177,47.383774 19.624552,47.657399 19.624552,47.997284 L 19.624552,49.882890 C 19.624552,50.222774 19.898177,50.496400 20.238062,50.496400 L 24.806966,50.496400 C 25.146851,50.496400 25.420476,50.222774 25.420476,49.882890 L 25.420476,47.997284 C 25.420476,47.657399 25.146851,47.383774 24.806966,47.383774 L 20.238062,47.383774 z "
       id="rect911" />
    <path
       style="fill:#333333;fill-rule:evenodd;stroke-width:1.0000000pt;"
       d="M 27.827159,50.437556 C 27.487275,50.437556 27.213649,50.711181 27.213649,51.051066 L 27.213649,52.936672 C 27.213649,53.276556 27.487275,53.550182 27.827159,53.550182 L 32.396064,53.550182 C 32.735948,53.550182 33.009574,53.276556 33.009574,52.936672 L 33.009574,51.051066 C 33.009574,50.711181 32.735948,50.437556 32.396064,50.437556 L 27.827159,50.437556 z "
       id="rect912" />
    <path
       style="fill:#333333;fill-rule:evenodd;stroke-width:1.0000000pt;"
       d="M 35.720531,50.437556 C 35.380646,50.437556 35.107021,50.711181 35.107021,51.051066 L 35.107021,52.936672 C 35.107021,53.276556 35.380646,53.550182 35.720531,53.550182 L 40.289435,53.550182 C 40.629320,53.550182 40.902945,53.276556 40.902945,52.936672 L 40.902945,51.051066 C 40.902945,50.711181 40.629320,50.437556 40.289435,50.437556 L 35.720531,50.437556 z "
       id="rect913" />
  </g>
  <metadata
     id="metadata23">
    <rdf:RDF
       id="RDF24">
      <cc:Work
         rdf:about=""
         id="Work25">
        <dc:title
           id="title26">Part of the Flat Icon Collection (Thu Aug 26 14:38:01 2004)</dc:title>
        <dc:description
           id="description28" />
        <dc:subject
           id="subject29">
          <rdf:Bag
             id="Bag30">
            <rdf:li
               id="li31" />
          </rdf:Bag>
        </dc:subject>
        <dc:publisher
           id="publisher32">
          <cc:Agent
             rdf:about=""
             id="Agent33">
            <dc:title
               id="title34" />
          </cc:Agent>
        </dc:publisher>
        <dc:creator
           id="creator35">
          <cc:Agent
             rdf:about=""
             id="Agent36">
            <dc:title
               id="title37">Danny Allen</dc:title>
          </cc:Agent>
        </dc:creator>
        <dc:rights
           id="rights39">
          <cc:Agent
             rdf:about=""
             id="Agent40">
            <dc:title
               id="title41">Danny Allen</dc:title>
          </cc:Agent>
        </dc:rights>
        <dc:date
           id="date43" />
        <dc:format
           id="format44">image/svg+xml</dc:format>
        <dc:type
           rdf:resource="http://purl.org/dc/dcmitype/StillImage"
           id="type46" />
        <cc:license
           rdf:resource="http://creativecommons.org/licenses/LGPL/2.1/"
           id="license47">
          <dc:date
             id="date48" />
        </cc:license>
        <dc:language
           id="language49">en</dc:language>
      </cc:Work>
    </rdf:RDF>
  </metadata>
</svg>
