<?xml version="1.0" encoding="UTF-8" standalone="no"?>
<!DOCTYPE svg PUBLIC "-//W3C//DTD SVG 20010904//EN"
"http://www.w3.org/TR/2001/REC-SVG-20010904/DTD/svg10.dtd">
<svg
   sodipodi:docname="nexterror.svg"
   height="60.0000000"
   sodipodi:version="0.32"
   width="60.0000000"
   _SVGFile__filename="scalable/actions/nexterror.svg"
   version="1.0"
   y="0"
   x="0"
   inkscape:version="0.39"
   id="svg1"
   sodipodi:docbase="/home/danny/work/flat/newscale/actions"
   xmlns="http://www.w3.org/2000/svg"
   xmlns:cc="http://web.resource.org/cc/"
   xmlns:inkscape="http://www.inkscape.org/namespaces/inkscape"
   xmlns:sodipodi="http://sodipodi.sourceforge.net/DTD/sodipodi-0.dtd"
   xmlns:rdf="http://www.w3.org/1999/02/22-rdf-syntax-ns#"
   xmlns:xml="http://www.w3.org/XML/1998/namespace"
   xmlns:dc="http://purl.org/dc/elements/1.1/"
   xmlns:xlink="http://www.w3.org/1999/xlink">
  <sodipodi:namedview
     bordercolor="#666666"
     inkscape:pageshadow="2"
     inkscape:window-y="0"
     snaptoguides="true"
     pagecolor="#ffffff"
     inkscape:window-height="685"
     inkscape:zoom="4.9119411"
     inkscape:window-x="0"
     borderopacity="1.0"
     inkscape:cx="47.779858"
     inkscape:cy="28.022928"
     inkscape:window-width="1016"
     inkscape:pageopacity="0.0"
     id="base"
     showguides="true" />
  <defs
     id="defs3">
    <linearGradient
       id="linearGradient1160">
      <stop
         style="stop-color:#000;stop-opacity:1;"
         id="stop1161"
         offset="0" />
      <stop
         style="stop-color:#fff;stop-opacity:1;"
         id="stop1162"
         offset="1" />
    </linearGradient>
    <linearGradient
       xlink:href="#linearGradient1160"
       id="linearGradient1163" />
  </defs>
  <path
     sodipodi:nodetypes="cccc"
     style="fill:#b3b3b3;fill-rule:evenodd;stroke:#333333;stroke-width:4.9452281;stroke-linecap:round;stroke-linejoin:round;"
     d="M 10.624379,46.237349 L 30.690070,31.036863 L 10.327230,15.228345 L 10.624379,46.237349 z "
     id="path869" />
  <path
     transform="scale(4.671070,4.671070)"
     style="font-size:12.000000;font-style:normal;font-variant:normal;font-weight:900;font-stretch:normal;fill:#333333;fill-opacity:1.0000000;stroke:none;stroke-width:1.0000000pt;stroke-linecap:butt;stroke-linejoin:miter;stroke-opacity:1.0000000;font-family:VAG Rounded Black SSi;text-anchor:start;writing-mode:lr;"
     d="M 10.862206,3.3066940 L 10.862206,7.5547409 C 10.862203,7.8516191 10.778219,8.1035720 10.610252,8.3106003 C 10.446188,8.5176341 10.217672,8.6211496 9.9247055,8.6211472 C 9.6356417,8.6211496 9.4071263,8.5176341 9.2391586,8.3106003 C 9.0711892,8.0996657 8.9872049,7.8477129 8.9872055,7.5547409 L 8.9872055,3.3066940 C 8.9872049,3.0059208 9.0711892,2.7539680 9.2391586,2.5508347 C 9.4071263,2.3438121 9.6356417,2.2402966 9.9247055,2.2402878 C 10.116110,2.2402966 10.282125,2.2871716 10.422752,2.3809128 C 10.567281,2.4746714 10.676656,2.6035775 10.750877,2.7676315 C 10.825094,2.9277959 10.862203,3.1074832 10.862206,3.3066940 M 8.8817368,10.197319 C 8.8817362,10.009820 8.9286112,9.8359921 9.0223618,9.6758347 C 9.1200173,9.5117737 9.2489234,9.3809145 9.4090805,9.2832565 C 9.5692356,9.1856022 9.7411104,9.1367741 9.9247055,9.1367722 C 10.108298,9.1367741 10.280172,9.1856022 10.440331,9.2832565 C 10.600485,9.3809145 10.727438,9.5117737 10.821190,9.6758347 C 10.918844,9.8359921 10.967672,10.009820 10.967674,10.197319 C 10.967672,10.388726 10.918844,10.566460 10.821190,10.730522 C 10.727438,10.890679 10.598531,11.017632 10.434471,11.111382 C 10.274313,11.205131 10.104391,11.252006 9.9247055,11.252007 C 9.7450166,11.252006 9.5731418,11.205131 9.4090805,11.111382 C 9.2489234,11.017632 9.1200173,10.890679 9.0223618,10.730522 C 8.9286112,10.566460 8.8817362,10.388726 8.8817368,10.197319"
     id="text856" />
  <metadata
     id="metadata12">
    <rdf:RDF
       id="RDF13">
      <cc:Work
         rdf:about=""
         id="Work14">
        <dc:title
           id="title15">Part of the Flat Icon Collection (Thu Aug 26 14:38:01 2004)</dc:title>
        <dc:description
           id="description17" />
        <dc:subject
           id="subject18">
          <rdf:Bag
             id="Bag19">
            <rdf:li
               id="li20" />
          </rdf:Bag>
        </dc:subject>
        <dc:publisher
           id="publisher21">
          <cc:Agent
             rdf:about=""
             id="Agent22">
            <dc:title
               id="title23" />
          </cc:Agent>
        </dc:publisher>
        <dc:creator
           id="creator24">
          <cc:Agent
             rdf:about=""
             id="Agent25">
            <dc:title
               id="title26">Danny Allen</dc:title>
          </cc:Agent>
        </dc:creator>
        <dc:rights
           id="rights28">
          <cc:Agent
             rdf:about=""
             id="Agent29">
            <dc:title
               id="title30">Danny Allen</dc:title>
          </cc:Agent>
        </dc:rights>
        <dc:date
           id="date32" />
        <dc:format
           id="format33">image/svg+xml</dc:format>
        <dc:type
           rdf:resource="http://purl.org/dc/dcmitype/StillImage"
           id="type35" />
        <cc:license
           rdf:resource="http://creativecommons.org/licenses/LGPL/2.1/"
           id="license36">
          <dc:date
             id="date37" />
        </cc:license>
        <dc:language
           id="language38">en</dc:language>
      </cc:Work>
    </rdf:RDF>
  </metadata>
</svg>
