<?xml version="1.0" encoding="UTF-8" standalone="no"?>
<!DOCTYPE svg PUBLIC "-//W3C//DTD SVG 20010904//EN"
"http://www.w3.org/TR/2001/REC-SVG-20010904/DTD/svg10.dtd">
<svg
   sodipodi:docname="preverror.svg"
   height="60.0000000"
   sodipodi:version="0.32"
   width="60.0000000"
   _SVGFile__filename="scalable/actions/preverror.svg"
   version="1.0"
   y="0"
   x="0"
   inkscape:version="0.39"
   id="svg1"
   sodipodi:docbase="/home/danny/work/flat/newscale/actions"
   xmlns="http://www.w3.org/2000/svg"
   xmlns:cc="http://web.resource.org/cc/"
   xmlns:inkscape="http://www.inkscape.org/namespaces/inkscape"
   xmlns:sodipodi="http://sodipodi.sourceforge.net/DTD/sodipodi-0.dtd"
   xmlns:rdf="http://www.w3.org/1999/02/22-rdf-syntax-ns#"
   xmlns:xml="http://www.w3.org/XML/1998/namespace"
   xmlns:dc="http://purl.org/dc/elements/1.1/"
   xmlns:xlink="http://www.w3.org/1999/xlink">
  <sodipodi:namedview
     bordercolor="#666666"
     inkscape:pageshadow="2"
     inkscape:window-y="0"
     snaptoguides="true"
     pagecolor="#ffffff"
     inkscape:window-height="685"
     inkscape:zoom="4.9119411"
     inkscape:window-x="0"
     borderopacity="1.0"
     inkscape:cx="47.779858"
     inkscape:cy="28.022928"
     inkscape:window-width="1016"
     inkscape:pageopacity="0.0"
     id="base"
     showguides="true" />
  <defs
     id="defs3">
    <linearGradient
       id="linearGradient1160">
      <stop
         style="stop-color:#000;stop-opacity:1;"
         id="stop1161"
         offset="0" />
      <stop
         style="stop-color:#fff;stop-opacity:1;"
         id="stop1162"
         offset="1" />
    </linearGradient>
    <linearGradient
       xlink:href="#linearGradient1160"
       id="linearGradient1163" />
  </defs>
  <path
     sodipodi:nodetypes="cccc"
     style="fill:#b3b3b3;fill-rule:evenodd;stroke:#333333;stroke-width:4.9452281;stroke-linecap:round;stroke-linejoin:round;"
     d="M 49.224457,46.237349 L 29.158766,31.036863 L 49.521606,15.228345 L 49.224457,46.237349 z "
     id="path869" />
  <path
     transform="scale(-4.671070,4.671070)"
     style="font-size:12.000000;font-style:normal;font-variant:normal;font-weight:900;font-stretch:normal;fill:#333333;fill-opacity:1.0000000;stroke:none;stroke-width:1.0000000pt;stroke-linecap:butt;stroke-linejoin:miter;stroke-opacity:1.0000000;font-family:VAG Rounded Black SSi;text-anchor:start;writing-mode:lr;"
     d="M -2.1138964,3.3066940 L -2.1138964,7.5547409 C -2.1138989,7.8516191 -2.1978832,8.1035720 -2.3658495,8.3106003 C -2.5299141,8.5176341 -2.7584295,8.6211496 -3.0513964,8.6211472 C -3.3404601,8.6211496 -3.5689755,8.5176341 -3.7369432,8.3106003 C -3.9049127,8.0996657 -3.9888970,7.8477129 -3.9888964,7.5547409 L -3.9888964,3.3066940 C -3.9888970,3.0059208 -3.9049127,2.7539680 -3.7369432,2.5508347 C -3.5689755,2.3438121 -3.3404601,2.2402966 -3.0513964,2.2402878 C -2.8599919,2.2402966 -2.6939764,2.2871716 -2.5533495,2.3809128 C -2.4088204,2.4746714 -2.2994456,2.6035775 -2.2252245,2.7676315 C -2.1510082,2.9277959 -2.1138989,3.1074832 -2.1138964,3.3066940 M -4.0943651,10.197319 C -4.0943656,10.009820 -4.0474907,9.8359921 -3.9537401,9.6758347 C -3.8560846,9.5117737 -3.7271785,9.3809145 -3.5670214,9.2832565 C -3.4068663,9.1856022 -3.2349915,9.1367741 -3.0513964,9.1367722 C -2.8678044,9.1367741 -2.6959295,9.1856022 -2.5357714,9.2832565 C -2.3756174,9.3809145 -2.2486644,9.5117737 -2.1549120,9.6758347 C -2.0572583,9.8359921 -2.0084302,10.009820 -2.0084276,10.197319 C -2.0084302,10.388726 -2.0572583,10.566460 -2.1549120,10.730522 C -2.2486644,10.890679 -2.3775705,11.017632 -2.5416307,11.111382 C -2.7017889,11.205131 -2.8717106,11.252006 -3.0513964,11.252007 C -3.2310852,11.252006 -3.4029601,11.205131 -3.5670214,11.111382 C -3.7271785,11.017632 -3.8560846,10.890679 -3.9537401,10.730522 C -4.0474907,10.566460 -4.0943656,10.388726 -4.0943651,10.197319"
     id="text856" />
  <metadata
     id="metadata12">
    <rdf:RDF
       id="RDF13">
      <cc:Work
         rdf:about=""
         id="Work14">
        <dc:title
           id="title15">Part of the Flat Icon Collection (Thu Aug 26 14:38:01 2004)</dc:title>
        <dc:description
           id="description17" />
        <dc:subject
           id="subject18">
          <rdf:Bag
             id="Bag19">
            <rdf:li
               id="li20" />
          </rdf:Bag>
        </dc:subject>
        <dc:publisher
           id="publisher21">
          <cc:Agent
             rdf:about=""
             id="Agent22">
            <dc:title
               id="title23" />
          </cc:Agent>
        </dc:publisher>
        <dc:creator
           id="creator24">
          <cc:Agent
             rdf:about=""
             id="Agent25">
            <dc:title
               id="title26">Danny Allen</dc:title>
          </cc:Agent>
        </dc:creator>
        <dc:rights
           id="rights28">
          <cc:Agent
             rdf:about=""
             id="Agent29">
            <dc:title
               id="title30">Danny Allen</dc:title>
          </cc:Agent>
        </dc:rights>
        <dc:date
           id="date32" />
        <dc:format
           id="format33">image/svg+xml</dc:format>
        <dc:type
           rdf:resource="http://purl.org/dc/dcmitype/StillImage"
           id="type35" />
        <cc:license
           rdf:resource="http://creativecommons.org/licenses/LGPL/2.1/"
           id="license36">
          <dc:date
             id="date37" />
        </cc:license>
        <dc:language
           id="language38">en</dc:language>
      </cc:Work>
    </rdf:RDF>
  </metadata>
</svg>
