<?xml version="1.0" encoding="UTF-8" standalone="no"?>
<!DOCTYPE svg PUBLIC "-//W3C//DTD SVG 20010904//EN"
"http://www.w3.org/TR/2001/REC-SVG-20010904/DTD/svg10.dtd">
<svg
   sodipodi:docname="smallthumbnails.svg"
   height="60.0000000"
   sodipodi:version="0.32"
   width="60.0000000"
   _SVGFile__filename="scalable/actions/smallthumbnails.svg"
   version="1.0"
   y="0"
   x="0"
   inkscape:version="0.39"
   id="svg1"
   sodipodi:docbase="/home/danny/work/flat/newscale/actions"
   xmlns="http://www.w3.org/2000/svg"
   xmlns:cc="http://web.resource.org/cc/"
   xmlns:inkscape="http://www.inkscape.org/namespaces/inkscape"
   xmlns:sodipodi="http://sodipodi.sourceforge.net/DTD/sodipodi-0.dtd"
   xmlns:rdf="http://www.w3.org/1999/02/22-rdf-syntax-ns#"
   xmlns:dc="http://purl.org/dc/elements/1.1/"
   xmlns:xlink="http://www.w3.org/1999/xlink">
  <sodipodi:namedview
     bordercolor="#666666"
     inkscape:pageshadow="2"
     inkscape:window-y="0"
     snaptoguides="true"
     pagecolor="#ffffff"
     inkscape:window-height="685"
     inkscape:zoom="6.9465337"
     inkscape:window-x="0"
     borderopacity="1.0"
     inkscape:cx="33.984503"
     inkscape:cy="21.891029"
     inkscape:window-width="1016"
     inkscape:pageopacity="0.0"
     id="base"
     showguides="true" />
  <defs
     id="defs3" />
  <path
     style="fill:#b3b3b3;fill-rule:evenodd;stroke:#333333;stroke-width:1.8750000;stroke-linecap:round;stroke-linejoin:round;stroke-dasharray:1.8750000 1.8750000 ;stroke-dashoffset:0.0000000;"
     d="M 11.100444,10.261057 C 10.359583,10.261057 9.7631493,10.857490 9.7631493,11.598352 L 9.7631493,20.664711 C 9.7631493,21.405572 10.359583,22.002006 11.100444,22.002006 L 20.166803,22.002006 C 20.907664,22.002006 21.504098,21.405572 21.504098,20.664711 L 21.504098,11.598352 C 21.504098,10.857490 20.907664,10.261057 20.166803,10.261057 L 11.100444,10.261057 z "
     id="rect835" />
  <path
     style="fill:#b3b3b3;fill-rule:evenodd;stroke:#333333;stroke-width:1.8750000;stroke-linecap:round;stroke-linejoin:round;stroke-dasharray:1.8750000 1.8750000 ;stroke-dashoffset:0.0000000;"
     d="M 39.755172,10.261057 C 39.014311,10.261057 38.417877,10.857490 38.417877,11.598352 L 38.417877,20.664711 C 38.417877,21.405572 39.014311,22.002006 39.755172,22.002006 L 48.821531,22.002006 C 49.562392,22.002006 50.158826,21.405572 50.158826,20.664711 L 50.158826,11.598352 C 50.158826,10.857490 49.562392,10.261057 48.821531,10.261057 L 39.755172,10.261057 z "
     id="rect836" />
  <path
     style="fill:#b3b3b3;fill-rule:evenodd;stroke:#333333;stroke-width:1.8750000;stroke-linecap:round;stroke-linejoin:round;stroke-dasharray:1.8750000 1.8750000 ;stroke-dashoffset:0.0000000;"
     d="M 11.100444,38.795815 C 10.359583,38.795815 9.7631493,39.392248 9.7631493,40.133109 L 9.7631493,49.199468 C 9.7631493,49.940330 10.359583,50.536763 11.100444,50.536763 L 20.166803,50.536763 C 20.907664,50.536763 21.504098,49.940330 21.504098,49.199468 L 21.504098,40.133109 C 21.504098,39.392248 20.907664,38.795815 20.166803,38.795815 L 11.100444,38.795815 z "
     id="rect838" />
  <path
     style="fill:#b3b3b3;fill-rule:evenodd;stroke:#333333;stroke-width:1.8750000;stroke-linecap:round;stroke-linejoin:round;stroke-dasharray:1.8750000 1.8750000 ;stroke-dashoffset:0.0000000;"
     d="M 39.755172,38.795815 C 39.014311,38.795815 38.417877,39.392248 38.417877,40.133109 L 38.417877,49.199468 C 38.417877,49.940330 39.014311,50.536763 39.755172,50.536763 L 48.821531,50.536763 C 49.562392,50.536763 50.158826,49.940330 50.158826,49.199468 L 50.158826,40.133109 C 50.158826,39.392248 49.562392,38.795815 48.821531,38.795815 L 39.755172,38.795815 z "
     id="rect839" />
  <metadata
     id="metadata8">
    <rdf:RDF
       id="RDF9">
      <cc:Work
         rdf:about=""
         id="Work10">
        <dc:title
           id="title11">Part of the Flat Icon Collection (Thu Aug 26 14:38:01 2004)</dc:title>
        <dc:description
           id="description13" />
        <dc:subject
           id="subject14">
          <rdf:Bag
             id="Bag15">
            <rdf:li
               id="li16" />
          </rdf:Bag>
        </dc:subject>
        <dc:publisher
           id="publisher17">
          <cc:Agent
             rdf:about=""
             id="Agent18">
            <dc:title
               id="title19" />
          </cc:Agent>
        </dc:publisher>
        <dc:creator
           id="creator20">
          <cc:Agent
             rdf:about=""
             id="Agent21">
            <dc:title
               id="title22">Danny Allen</dc:title>
          </cc:Agent>
        </dc:creator>
        <dc:rights
           id="rights24">
          <cc:Agent
             rdf:about=""
             id="Agent25">
            <dc:title
               id="title26">Danny Allen</dc:title>
          </cc:Agent>
        </dc:rights>
        <dc:date
           id="date28" />
        <dc:format
           id="format29">image/svg+xml</dc:format>
        <dc:type
           rdf:resource="http://purl.org/dc/dcmitype/StillImage"
           id="type31" />
        <cc:license
           rdf:resource="http://creativecommons.org/licenses/LGPL/2.1/"
           id="license32">
          <dc:date
             id="date33" />
        </cc:license>
        <dc:language
           id="language34">en</dc:language>
      </cc:Work>
    </rdf:RDF>
  </metadata>
</svg>
