<?xml version="1.0" encoding="UTF-8" standalone="no"?>
<!DOCTYPE svg PUBLIC "-//W3C//DTD SVG 20010904//EN"
"http://www.w3.org/TR/2001/REC-SVG-20010904/DTD/svg10.dtd">
<svg
   sodipodi:docname="sort_incr.svg"
   height="60.0000000"
   sodipodi:version="0.32"
   width="60.0000000"
   _SVGFile__filename="scalable/actions/sort_incr.svg"
   version="1.0"
   y="0"
   x="0"
   inkscape:version="0.39"
   id="svg1"
   sodipodi:docbase="/home/danny/work/flat/newscale/actions"
   xmlns="http://www.w3.org/2000/svg"
   xmlns:cc="http://web.resource.org/cc/"
   xmlns:inkscape="http://www.inkscape.org/namespaces/inkscape"
   xmlns:sodipodi="http://sodipodi.sourceforge.net/DTD/sodipodi-0.dtd"
   xmlns:rdf="http://www.w3.org/1999/02/22-rdf-syntax-ns#"
   xmlns:dc="http://purl.org/dc/elements/1.1/"
   xmlns:xlink="http://www.w3.org/1999/xlink">
  <sodipodi:namedview
     bordercolor="#666666"
     inkscape:pageshadow="2"
     inkscape:window-y="0"
     pagecolor="#ffffff"
     inkscape:window-height="685"
     inkscape:zoom="2.4559706"
     inkscape:window-x="0"
     borderopacity="1.0"
     inkscape:cx="33.307937"
     inkscape:cy="23.184728"
     inkscape:window-width="1016"
     inkscape:pageopacity="0.0"
     id="base" />
  <defs
     id="defs3">
    <linearGradient
       id="linearGradient772">
      <stop
         style="stop-color:#000;stop-opacity:1;"
         id="stop773"
         offset="0" />
      <stop
         style="stop-color:#fff;stop-opacity:1;"
         id="stop774"
         offset="1" />
    </linearGradient>
    <linearGradient
       xlink:href="#linearGradient772"
       id="linearGradient775" />
  </defs>
  <path
     style="fill:none;fill-rule:evenodd;stroke:#333333;stroke-opacity:1.0000000;stroke-width:5.0000000;stroke-linejoin:round;stroke-linecap:round;fill-opacity:0.75;stroke-dasharray:none;"
     transform="translate(0.719783,0.359892)"
     d="M 43.187007,46.684006 L 43.187007,6.7360251"
     sodipodi:stroke-cmyk="(0.0000000 0.0000000 0.0000000 0.80000001)"
     id="path850" />
  <path
     id="path838"
     style="font-size:12.000000;font-weight:900;fill:#333333;stroke-width:1.0000000pt;font-family:VAG Rounded Black SSi;"
     transform="matrix(2.724090,0.000000,0.000000,2.724090,-2.585736,-12.84039)"
     d="M 3.8743079,13.068222 L 5.7493079,7.9705658 C 5.9172766,7.5213470 6.0559485,7.1893158 6.1653235,6.9744720 C 6.2746985,6.7557220 6.4250891,6.5721283 6.6164954,6.4236908 C 6.8079016,6.2713470 7.0579016,6.1951752 7.3664954,6.1951752 C 7.6829016,6.1951752 7.9387610,6.2713470 8.1340735,6.4236908 C 8.3332922,6.5760345 8.4895422,6.7674408 8.6028235,6.9979095 C 8.7200110,7.2244720 8.8567297,7.5486908 9.0129797,7.9705658 L 10.882120,13.068222 C 10.999308,13.376816 11.075480,13.615097 11.110636,13.783066 C 11.149698,13.947128 11.169230,14.113144 11.169230,14.281113 C 11.169230,14.523300 11.083292,14.718613 10.911417,14.867050 C 10.743448,15.011581 10.518839,15.083847 10.237589,15.083847 C 10.042277,15.083847 9.8782141,15.044785 9.7454016,14.966660 C 9.6125891,14.888535 9.5051672,14.779160 9.4231360,14.638535 C 9.3450110,14.497910 9.2746985,14.326035 9.2121985,14.122910 L 8.9778235,13.355331 L 5.7844641,13.355331 L 5.5442297,14.122910 C 5.4426672,14.439316 5.3196204,14.679550 5.1750891,14.843613 C 5.0344641,15.003769 4.8176672,15.083847 4.5246985,15.083847 C 4.2473547,15.083847 4.0207922,15.011581 3.8450110,14.867050 C 3.6731360,14.718613 3.5871985,14.523300 3.5871985,14.281113 C 3.5871985,14.136581 3.6028235,13.986191 3.6340735,13.829941 C 3.6692297,13.669785 3.7493079,13.415878 3.8743079,13.068222 z M 8.3977454,11.533066 L 7.4250891,8.3748627 L 7.4016516,8.3748627 L 6.3586829,11.533066 L 8.3977454,11.533066 z " />
  <path
     id="path837"
     style="font-size:12.000000;font-weight:900;fill:#7f7f7f;stroke-width:1.0000000pt;font-family:VAG Rounded Black SSi;"
     transform="matrix(2.724090,0.000000,0.000000,2.724090,-32.81664,-59.62631)"
     d="M 17.494358,40.902931 L 20.658421,40.902931 C 20.990452,40.902931 21.244358,40.984962 21.420139,41.149025 C 21.599827,41.309181 21.689671,41.529884 21.689671,41.811134 C 21.689671,42.092384 21.601780,42.315041 21.425999,42.479103 C 21.250217,42.643166 20.994358,42.725197 20.658421,42.725197 L 16.351780,42.725197 C 15.863499,42.725197 15.511936,42.633400 15.297092,42.449806 C 15.086155,42.262306 14.980686,41.994728 14.980686,41.647072 C 14.980686,41.498634 15.004124,41.371681 15.050999,41.266212 C 15.097874,41.156837 15.195530,40.994728 15.343967,40.779884 L 19.017796,35.834572 L 16.146702,35.834572 C 15.818577,35.834572 15.564671,35.756447 15.384983,35.600197 C 15.205296,35.443947 15.115452,35.234962 15.115452,34.973244 C 15.115452,34.801369 15.154514,34.649025 15.232639,34.516212 C 15.310764,34.383400 15.427952,34.279884 15.584202,34.205666 C 15.744358,34.131447 15.931858,34.094337 16.146702,34.094337 L 20.324436,34.094337 C 20.636936,34.094337 20.883030,34.149025 21.062717,34.258400 C 21.242405,34.363869 21.361546,34.490822 21.420139,34.639259 C 21.482639,34.783791 21.513889,34.930275 21.513889,35.078712 C 21.513889,35.203712 21.478733,35.344337 21.408421,35.500587 C 21.338108,35.656837 21.242405,35.822853 21.121311,35.998634 C 21.000217,36.174416 20.826389,36.416603 20.599827,36.725197 L 17.494358,40.902931 z " />
  <path
     sodipodi:nodetypes="cccc"
     style="fill:#333333;fill-rule:evenodd;stroke:#333333;stroke-width:3.7120094;stroke-linecap:round;stroke-linejoin:round;fill-opacity:1.0000000;"
     transform="matrix(-2.588533e-17,-1.000000,1.000000,-2.588533e-17,36.45098,71.15664)"
     d="M 28.412996,-2.3410679 L 15.493793,6.9401821 L 28.104347,17.252682 L 28.412996,-2.3410679 z "
     id="path869" />
  <metadata
     id="metadata12">
    <rdf:RDF
       id="RDF13">
      <cc:Work
         rdf:about=""
         id="Work14">
        <dc:title
           id="title15">Part of the Flat Icon Collection (Thu Aug 26 14:38:01 2004)</dc:title>
        <dc:description
           id="description17" />
        <dc:subject
           id="subject18">
          <rdf:Bag
             id="Bag19">
            <rdf:li
               id="li20" />
          </rdf:Bag>
        </dc:subject>
        <dc:publisher
           id="publisher21">
          <cc:Agent
             rdf:about=""
             id="Agent22">
            <dc:title
               id="title23" />
          </cc:Agent>
        </dc:publisher>
        <dc:creator
           id="creator24">
          <cc:Agent
             rdf:about=""
             id="Agent25">
            <dc:title
               id="title26">Danny Allen</dc:title>
          </cc:Agent>
        </dc:creator>
        <dc:rights
           id="rights28">
          <cc:Agent
             rdf:about=""
             id="Agent29">
            <dc:title
               id="title30">Danny Allen</dc:title>
          </cc:Agent>
        </dc:rights>
        <dc:date
           id="date32" />
        <dc:format
           id="format33">image/svg+xml</dc:format>
        <dc:type
           rdf:resource="http://purl.org/dc/dcmitype/StillImage"
           id="type35" />
        <cc:license
           rdf:resource="http://creativecommons.org/licenses/LGPL/2.1/"
           id="license36">
          <dc:date
             id="date37" />
        </cc:license>
        <dc:language
           id="language38">en</dc:language>
      </cc:Work>
    </rdf:RDF>
  </metadata>
</svg>
