<?xml version="1.0" encoding="UTF-8" standalone="no"?>
<!DOCTYPE svg PUBLIC "-//W3C//DTD SVG 20010904//EN"
"http://www.w3.org/TR/2001/REC-SVG-20010904/DTD/svg10.dtd">
<svg
   sodipodi:docname="kteatime.svg"
   height="60.0000000"
   sodipodi:version="0.32"
   width="60.0000000"
   _SVGFile__filename="scalable/apps/kteatime.svg"
   version="1.0"
   y="0"
   x="0"
   inkscape:version="0.39"
   id="svg1"
   sodipodi:docbase="/home/danny/work/flat/newscale/apps"
   xmlns="http://www.w3.org/2000/svg"
   xmlns:cc="http://web.resource.org/cc/"
   xmlns:inkscape="http://www.inkscape.org/namespaces/inkscape"
   xmlns:sodipodi="http://sodipodi.sourceforge.net/DTD/sodipodi-0.dtd"
   xmlns:rdf="http://www.w3.org/1999/02/22-rdf-syntax-ns#"
   xmlns:xml="http://www.w3.org/XML/1998/namespace"
   xmlns:dc="http://purl.org/dc/elements/1.1/"
   xmlns:xlink="http://www.w3.org/1999/xlink">
  <sodipodi:namedview
     bordercolor="#666666"
     inkscape:pageshadow="2"
     inkscape:window-y="0"
     pagecolor="#ffffff"
     inkscape:window-height="685"
     inkscape:zoom="8.4285714"
     inkscape:window-x="0"
     borderopacity="1.0"
     inkscape:cx="43.367231"
     inkscape:cy="22.393605"
     inkscape:window-width="1016"
     inkscape:pageopacity="0.0"
     id="base" />
  <defs
     id="defs3">
    <linearGradient
       id="linearGradient575">
      <stop
         style="stop-color:#000;stop-opacity:1;"
         id="stop576"
         offset="0" />
      <stop
         style="stop-color:#fff;stop-opacity:1;"
         id="stop577"
         offset="1" />
    </linearGradient>
    <linearGradient
       xlink:href="#linearGradient575"
       id="linearGradient578" />
  </defs>
  <metadata
     id="metadata17">
    <rdf:RDF
       id="RDF18">
      <cc:Work
         rdf:about=""
         id="Work19">
        <dc:title
           id="title20">Part of the Flat Icon Collection (Thu Aug 26 14:31:40 2004)</dc:title>
        <dc:description
           id="description22" />
        <dc:subject
           id="subject23">
          <rdf:Bag
             id="Bag24">
            <rdf:li
               id="li25" />
          </rdf:Bag>
        </dc:subject>
        <dc:publisher
           id="publisher26">
          <cc:Agent
             rdf:about=""
             id="Agent27">
            <dc:title
               id="title28" />
          </cc:Agent>
        </dc:publisher>
        <dc:creator
           id="creator29">
          <cc:Agent
             rdf:about=""
             id="Agent30">
            <dc:title
               id="title31">Danny Allen</dc:title>
          </cc:Agent>
        </dc:creator>
        <dc:rights
           id="rights33">
          <cc:Agent
             rdf:about=""
             id="Agent34">
            <dc:title
               id="title35">Danny Allen</dc:title>
          </cc:Agent>
        </dc:rights>
        <dc:date
           id="date37" />
        <dc:format
           id="format38">image/svg+xml</dc:format>
        <dc:type
           rdf:resource="http://purl.org/dc/dcmitype/StillImage"
           id="type40" />
        <cc:license
           rdf:resource="http://creativecommons.org/licenses/LGPL/2.1/"
           id="license41">
          <dc:date
             id="date42" />
        </cc:license>
        <dc:language
           id="language43">en</dc:language>
      </cc:Work>
    </rdf:RDF>
  </metadata>
  <g
     id="g1579"
     transform="translate(-1.010719,0.204966)">
    <path
       style="fill:#b3b3b3;fill-opacity:1.0000000;fill-rule:evenodd;stroke:#333333;stroke-width:3.1222012;stroke-linecap:butt;stroke-linejoin:miter;stroke-miterlimit:4.0000000;stroke-opacity:1.0000000;"
       d="M 5.0000000,13.265360 C 5.0000000,13.265360 5.0000000,46.123825 5.0000000,46.594810 C 5.0000000,51.390296 14.637479,55.282312 26.500000,55.282310 C 38.362521,55.282310 48.000001,51.390296 48.000000,46.594810 L 48.000000,13.265360"
       id="rect1577"
       sodipodi:nodetypes="ccccc"
       sodipodi:stroke-cmyk="(0.0000000 0.0000000 0.0000000 0.80000001)" />
    <path
       transform="matrix(1.270481,0.000000,0.000000,1.270481,-7.792117,-18.79563)"
       style="font-size:12.000000;fill:#7f7f7f;fill-opacity:1.0000000;fill-rule:evenodd;stroke:#333333;stroke-width:2.4597001;stroke-linejoin:round;stroke-opacity:1.0000000;"
       d="M 43.906790,25.090504 C 43.906790,28.865048 36.328910,31.928446 26.991879,31.928446 C 17.654847,31.928446 10.076967,28.865048 10.076967,25.090504 C 10.076967,21.315959 17.654847,18.252561 26.991879,18.252561 C 36.328910,18.252561 43.906790,21.315959 43.906790,25.090504 z "
       id="path584" />
    <path
       style="font-size:12.000000;fill:#4c4c4c;fill-opacity:1.0000000;fill-rule:evenodd;stroke:#333333;stroke-width:1.8750014;stroke-linejoin:round;stroke-opacity:1.0000000;"
       d="M 42.628514,13.081379 C 42.628514,15.633593 35.403187,17.704956 26.500552,17.704956 C 17.597916,17.704956 10.372590,15.633593 10.372590,13.081379 C 10.372590,10.529163 17.597916,8.4578004 26.500552,8.4578004 C 35.403187,8.4578004 42.628514,10.529163 42.628514,13.081379 z "
       id="path586" />
    <path
       style="fill:none;fill-opacity:0.75000000;fill-rule:evenodd;stroke:#333333;stroke-width:5.0000000;stroke-linecap:round;stroke-linejoin:round;stroke-miterlimit:4.0000000;stroke-opacity:1.0000000;"
       d="M 42.720824,25.942752 C 63.776271,28.469406 57.600007,42.506370 42.720824,45.313763"
       sodipodi:nodetypes="cc"
       sodipodi:stroke-cmyk="(0 0 0 0.8)"
       id="path587" />
    <g
       id="g1573"
       transform="translate(-0.593220,-0.296610)">
      <path
         transform="matrix(0.842229,0.000000,0.000000,0.842229,29.51571,35.54270)"
         style="font-size:24.000000;font-weight:normal;fill:#333333;stroke-width:1.0000000pt;font-family:VAG Rounded Black SSi;"
         d="M -6.8225527,5.8193731 L -6.8225527,-8.1728144 C -6.8225538,-8.6884233 -6.6545852,-9.1181103 -6.3186464,-9.4618769 C -5.9827108,-9.8056096 -5.5491175,-9.9774845 -5.0178652,-9.9775019 C -4.4866186,-9.9774845 -4.0569315,-9.8173284 -3.7288027,-9.4970331 C -3.3928697,-9.1767040 -3.2249011,-8.7352982 -3.2248964,-8.1728144 L -3.2248964,-2.9462519 L 2.6813536,-9.2978144 C 3.0954051,-9.7509222 3.5602484,-9.9774845 4.0758848,-9.9775019 C 4.5524349,-9.9774845 4.9664970,-9.8134221 5.3180723,-9.4853144 C 5.6774337,-9.1649853 5.8571211,-8.7431107 5.8571348,-8.2196894 C 5.8571211,-7.9227990 5.7633712,-7.6298306 5.5758848,-7.3407831 C 5.3883715,-7.0595186 5.0875906,-6.7118627 4.6735411,-6.2978144 L 0.13838482,-1.7860956 L 5.6813536,4.0615606 C 6.0016522,4.3662512 6.2477457,4.6631259 6.4196348,4.9521856 C 6.5993078,5.2334378 6.6891515,5.5459375 6.6891661,5.8896856 C 6.6891515,6.4365616 6.5094642,6.8545300 6.1501036,7.1435919 C 5.7907149,7.4248419 5.3454028,7.5654667 4.8141661,7.5654669 C 4.5016537,7.5654667 4.2164977,7.4795293 3.9586973,7.3076544 C 3.7086857,7.1357797 3.3883735,6.8467175 2.9977598,6.4404669 L -3.2248964,-0.35640812 L -3.2248964,5.8193731 C -3.2249011,6.3115617 -3.3928697,6.7256238 -3.7288027,7.0615606 C -4.0647440,7.3974982 -4.4944311,7.5654667 -5.0178652,7.5654669 C -5.5413050,7.5654667 -5.9748984,7.4053107 -6.3186464,7.0849981 C -6.6545852,6.7646863 -6.8225538,6.3428117 -6.8225527,5.8193731"
         id="text702" />
      <path
         style="font-size:12.000000;fill:#333333;fill-rule:evenodd;stroke:#333333;stroke-width:2.0354161;stroke-linecap:round;stroke-linejoin:round;stroke-miterlimit:4.0000000;stroke-opacity:1.0000000;"
         d="M 37.139197,181.14740 L 52.946277,197.70716 L 78.538546,180.39460 L 98.861908,189.42735 L 105.63634,219.09510 L 127.46505,218.89461 L 133.48682,188.45399 L 153.81015,180.39460 L 179.40244,196.95450 L 191.44592,180.39460 L 162.40179,152.98512 C 87.958944,221.26415 23.628859,116.02943 87.571178,72.003552 L 87.571095,56.196470 L 80.043997,59.960043 L 56.709788,45.126111 L 40.590920,58.363176 L 55.204367,83.294200 L 46.924507,103.61753 L 18.409265,108.35437 L 18.321270,129.96261 L 47.677259,137.48978 L 55.768940,157.24868 L 37.139197,181.14740 z "
         sodipodi:nodetypes="ccccccccccccccccccccccc"
         transform="matrix(0.122825,0.000000,0.000000,0.122825,11.78190,23.93571)"
         sodipodi:stroke-cmyk="(0 0 0 0.8)"
         id="path705" />
    </g>
  </g>
</svg>
