<?xml version="1.0" encoding="UTF-8" standalone="no"?>
<!DOCTYPE svg PUBLIC "-//W3C//DTD SVG 20010904//EN"
"http://www.w3.org/TR/2001/REC-SVG-20010904/DTD/svg10.dtd">
<svg
   sodipodi:docname="validators.svg"
   height="60.000000"
   sodipodi:version="0.32"
   width="60.000000"
   _SVGFile__filename="scalable/actions/validators.svg"
   version="1.0"
   y="0.0000000"
   x="0.0000000"
   inkscape:version="0.39"
   id="svg1"
   sodipodi:docbase="/home/danny/work/flat/newscale/actions"
   xmlns="http://www.w3.org/2000/svg"
   xmlns:cc="http://web.resource.org/cc/"
   xmlns:inkscape="http://www.inkscape.org/namespaces/inkscape"
   xmlns:sodipodi="http://sodipodi.sourceforge.net/DTD/sodipodi-0.dtd"
   xmlns:rdf="http://www.w3.org/1999/02/22-rdf-syntax-ns#"
   xmlns:dc="http://purl.org/dc/elements/1.1/"
   xmlns:xlink="http://www.w3.org/1999/xlink">
  <sodipodi:namedview
     bordercolor="#666666"
     inkscape:pageshadow="2"
     inkscape:window-y="0"
     pagecolor="#ffffff"
     inkscape:window-height="699"
     inkscape:zoom="6.9465337"
     inkscape:window-x="0"
     borderopacity="1.0"
     inkscape:cx="47.671681"
     inkscape:cy="27.128271"
     inkscape:window-width="1024"
     inkscape:pageopacity="0.0"
     id="base" />
  <defs
     id="defs3">
    <linearGradient
       id="linearGradient900">
      <stop
         style="stop-color:#000000;stop-opacity:1.0000000;"
         id="stop901"
         offset="0.0000000" />
      <stop
         style="stop-color:#ffffff;stop-opacity:1.0000000;"
         id="stop902"
         offset="1.0000000" />
    </linearGradient>
    <linearGradient
       xlink:href="#linearGradient900"
       id="linearGradient903" />
    <linearGradient
       xlink:href="#linearGradient900"
       id="linearGradient904" />
    <linearGradient
       xlink:href="#linearGradient900"
       id="linearGradient905" />
    <linearGradient
       xlink:href="#linearGradient900"
       id="linearGradient906" />
    <linearGradient
       xlink:href="#linearGradient900"
       id="linearGradient907" />
  </defs>
  <rect
     style="font-size:12.000000;fill:#b3b3b3;fill-rule:evenodd;stroke:none;stroke-width:3.1250000;"
     rx="2.0000000"
     height="50.384842"
     width="50.744732"
     y="5.1165123"
     x="4.6785922"
     id="rect812" />
  <path
     id="path844"
     style="font-size:12.000000;font-weight:900;fill:#333333;stroke-width:1.0000000pt;font-family:VAG Rounded Black SSi;"
     d="M 36.125651,25.305095 C 36.125651,24.736195 36.361888,24.225149 36.834364,23.771958 C 37.316483,23.318767 37.822707,23.092171 38.353036,23.092171 C 38.921936,23.092171 39.355842,23.227164 39.654756,23.497151 C 39.963312,23.757494 40.305616,24.172116 40.681669,24.741016 C 41.067364,25.300273 41.472342,25.729359 41.896606,26.028272 C 42.320870,26.317542 42.894591,26.462178 43.617769,26.462178 C 44.302378,26.462178 44.871276,26.216298 45.324468,25.724537 C 45.787301,25.223134 46.018718,24.620486 46.018718,23.916594 C 46.018718,23.068065 45.739090,22.470239 45.179832,22.123113 C 44.630217,21.775988 43.911863,21.592783 43.024765,21.573498 C 42.475148,21.554214 41.997852,21.356545 41.592871,20.980493 C 41.187893,20.594798 40.985404,20.035541 40.985404,19.302721 C 40.985404,18.666325 41.158965,18.198670 41.506090,17.899757 C 41.862857,17.591201 42.528183,17.316393 43.502061,17.075334 C 44.707356,16.824633 45.310005,16.173773 45.310005,15.122755 C 45.310005,14.602067 45.136441,14.206730 44.789316,13.936744 C 44.442191,13.657115 44.013106,13.517301 43.502061,13.517301 C 42.971730,13.517301 42.523362,13.628188 42.156950,13.849962 C 41.800184,14.071737 41.419310,14.394756 41.014329,14.819020 C 40.609351,15.243284 40.252584,15.556661 39.944028,15.759151 C 39.645114,15.961641 39.249778,16.062885 38.758016,16.062885 C 38.189116,16.062885 37.721462,15.836290 37.355053,15.383099 C 36.988642,14.920265 36.805436,14.409220 36.805436,13.849962 C 36.805436,12.895368 37.147740,12.042018 37.832349,11.289914 C 38.526600,10.528167 39.394411,9.9351613 40.435787,9.5108971 C 41.486807,9.0866330 42.489613,8.8745009 43.444206,8.8745009 C 44.639859,8.8745009 45.729448,9.1059177 46.712969,9.5687513 C 47.696491,10.031585 48.477522,10.706551 49.056065,11.593648 C 49.634607,12.471104 49.923876,13.507658 49.923876,14.703312 C 49.923876,15.503628 49.731029,16.275018 49.345334,17.017480 C 48.959640,17.759942 48.366635,18.430087 47.566318,19.027913 C 48.675191,19.471462 49.523719,20.170534 50.111903,21.125128 C 50.700089,22.079723 50.994180,23.188595 50.994180,24.451745 C 50.994180,25.695610 50.666340,26.833410 50.010659,27.865142 C 49.364620,28.887234 48.477522,29.687551 47.349366,30.266093 C 46.230852,30.834991 44.977343,31.119442 43.588842,31.119442 C 42.557108,31.119442 41.583229,30.960344 40.667204,30.642144 C 39.760823,30.323946 38.965326,29.885219 38.280720,29.325961 C 37.596111,28.757063 37.065781,28.120666 36.689728,27.416773 C 36.313677,26.703237 36.125651,25.999345 36.125651,25.305095 z M 12.781478,27.199819 L 9.5850353,13.994598 C 9.4982522,13.705327 9.4162924,13.411235 9.3391534,13.112321 C 9.2716563,12.813408 9.2186242,12.543422 9.1800547,12.302362 C 9.1318435,12.061303 9.1077366,11.805781 9.1077366,11.535794 C 9.1077366,11.101888 9.2041615,10.706551 9.3970089,10.349783 C 9.5994980,9.9833730 9.8839469,9.6941020 10.250358,9.4819699 C 10.616767,9.2698378 11.036210,9.1637719 11.508685,9.1637719 C 12.839333,9.1637719 13.668576,9.8869493 13.996417,11.333304 L 16.455222,22.788437 L 16.513075,22.788437 L 19.969864,11.651503 C 20.268778,10.725835 20.630366,10.079797 21.054630,9.7133867 C 21.488536,9.3469768 22.028509,9.1637719 22.674548,9.1637719 C 23.320587,9.1637719 23.860560,9.3517979 24.294466,9.7278503 C 24.728371,10.103903 25.085138,10.745120 25.364769,11.651503 L 28.836021,22.788437 L 28.893874,22.788437 L 31.352678,11.333304 C 31.661234,9.8869493 32.490476,9.1637719 33.840408,9.1637719 C 34.312886,9.1637719 34.727506,9.2698378 35.084275,9.4819699 C 35.450684,9.6844597 35.735135,9.9689094 35.937624,10.335319 C 36.140113,10.692087 36.241359,11.092245 36.241359,11.535794 C 36.241359,11.699714 36.212431,11.945595 36.154576,12.273435 C 36.106365,12.601276 36.034047,12.948401 35.937624,13.314811 C 35.841199,13.681221 35.783346,13.907817 35.764060,13.994598 L 32.567615,27.199819 C 32.259060,28.501539 31.887830,29.432027 31.453924,29.991286 C 31.020016,30.540900 30.263091,30.815707 29.183146,30.815707 C 28.296049,30.815707 27.582512,30.598753 27.042540,30.164847 C 26.502567,29.721300 26.083124,29.051154 25.784212,28.154414 L 22.703476,18.405981 L 22.645620,18.405981 L 19.564884,28.154414 C 19.285256,29.031870 18.870633,29.697193 18.321019,30.150385 C 17.771404,30.593932 17.048226,30.815707 16.151487,30.815707 C 15.418667,30.815707 14.835304,30.680713 14.401396,30.410727 C 13.967490,30.140741 13.644471,29.764690 13.432338,29.282570 C 13.220207,28.800453 13.003253,28.106203 12.781478,27.199819 z " />
  <path
     style="font-size:12.000000;fill:none;fill-rule:evenodd;stroke:#333333;stroke-width:3.1250000;stroke-linejoin:round;stroke-opacity:1.0000000;"
     d="M 6.6785922,5.1165123 C 5.5705922,5.1165123 4.6785922,6.0085123 4.6785922,7.1165123 L 4.6785922,53.501354 C 4.6785922,54.609354 5.5705922,55.501354 6.6785922,55.501354 L 53.423324,55.501354 C 54.531324,55.501354 55.423324,54.609354 55.423324,53.501354 L 55.423324,7.1165123 C 55.423324,6.0085123 54.531324,5.1165123 53.423324,5.1165123 L 6.6785922,5.1165123 z "
     id="rect857" />
  <path
     style="font-size:12;fill:#b3b3b3;fill-rule:evenodd;stroke:#333333;stroke-width:2.5000000;fill-opacity:1;stroke-dasharray:none;stroke-linejoin:round;"
     d="M 30.218750 33.937500 C 20.890615 33.937500 13.343750 41.484364 13.343750 50.812500 C 13.343750 52.379774 13.631393 53.872022 14.031250 55.312500 L 46.437500 55.312500 C 46.837357 53.872022 47.125000 52.379774 47.125000 50.812500 C 47.125000 41.484365 39.546886 33.937499 30.218750 33.937500 z "
     id="path878" />
  <path
     sodipodi:nodetypes="ccccccccc"
     style="font-size:12.000000;fill:none;fill-opacity:0.75000000;fill-rule:evenodd;stroke:#333333;stroke-width:2.0308164;stroke-linecap:round;stroke-linejoin:round;stroke-miterlimit:4.0000000;stroke-dasharray:none;"
     transform="matrix(0.615516,0.000000,0.000000,0.615516,42.41445,37.92662)"
     d="M -43.273066,6.7368644 L -40.527600,5.7200249 L -40.527600,4.7031856 L -39.815812,4.7031856 L -39.815812,5.7200249 L -38.392237,5.6183411 L -34.324880,-0.58437924 L -39.002340,1.3476158 L -39.002340,1.2459318"
     id="path594" />
  <path
     sodipodi:nodetypes="ccccccc"
     style="font-size:12.000000;fill:none;fill-opacity:0.75000000;fill-rule:evenodd;stroke:#333333;stroke-width:2.0308164;stroke-linecap:round;stroke-linejoin:round;stroke-dasharray:none;stroke-miterlimit:4.0000000;"
     transform="matrix(0.615516,0.000000,0.000000,0.615516,42.41445,37.92662)"
     d="M -34.121511,3.7880302 L -29.952471,2.0594033 L -26.190160,1.5509835 L -22.122811,-2.7197420 L -26.800276,-3.3298455 L -29.952471,0.12740845 L -34.121511,3.7880302 z "
     id="path595" />
  <path
     style="font-size:12.000000;fill:none;fill-opacity:0.75000000;fill-rule:evenodd;stroke:#333333;stroke-width:2.0308164;stroke-linecap:round;stroke-linejoin:round;stroke-dasharray:none;stroke-miterlimit:4.0000000;"
     transform="matrix(0.615516,0.000000,0.000000,0.615516,42.41445,37.92662)"
     d="M -26.291851,13.244637 L -23.648069,12.532849 L -24.969960,10.092434 L -24.258168,9.4823308 L -25.071635,8.6688593 L -26.291851,13.244637 z "
     id="path597" />
  <path
     style="font-size:12.000000;fill:none;fill-opacity:0.75000000;fill-rule:evenodd;stroke:#333333;stroke-width:2.0308164;stroke-linecap:round;stroke-linejoin:round;stroke-dasharray:none;stroke-miterlimit:4.0000000;"
     transform="matrix(0.615516,0.000000,0.000000,0.615516,42.41445,37.92662)"
     d="M -26.698585,12.024429 L -26.393526,10.397486 L -28.122151,11.516009 L -26.698585,12.024429 z "
     id="path598" />
  <path
     sodipodi:nodetypes="cccccccccccccccccccccccccccccccccccccccccccccccccccccccccccccccccccccccccccccccccc"
     style="font-size:12.000000;fill:none;fill-opacity:0.75000000;fill-rule:evenodd;stroke:#333333;stroke-width:1.2500000;stroke-linecap:round;stroke-linejoin:round;stroke-dasharray:none;stroke-miterlimit:4.0000000;"
     d="M 36.093750,34.937500 L 34.375000,35.562500 L 35.812500,37.281250 L 36.093750,34.937500 z M 35.812500,37.281250 L 35.500000,39.718750 L 36.687500,38.312500 L 35.812500,37.281250 z M 38.208809,41.250000 L 33.500000,40.625000 L 34.375000,39.937500 L 32.062500,39.312500 L 29.125000,43.062500 L 30.187500,43.250000 L 30.562500,44.625000 L 31.625000,43.187500 L 31.437500,42.062500 L 32.125000,40.750000 L 32.687500,40.750000 L 31.937500,42.187500 L 32.500000,42.937500 L 32.437500,44.500000 L 28.812500,45.500000 L 26.468750,46.968750 L 26.906250,48.843750 L 24.656250,48.593750 L 24.281250,49.968750 L 23.843750,50.843750 L 24.593750,51.281250 L 24.968750,51.531250 L 26.281250,51.593750 L 27.218750,49.843750 L 27.718750,49.843750 L 28.093750,49.281250 L 29.812500,48.718750 L 31.500000,50.968750 L 32.125000,50.343750 L 30.562500,48.468750 L 31.187500,48.468750 L 33.562500,51.656250 L 34.250000,49.843750 L 34.281250,49.843750 L 38.208809,41.250000 z M 34.281250,49.843750 L 33.843750,53.406250 L 36.062500,53.781250 L 37.812500,53.156250 L 37.875000,50.843750 L 35.375000,51.343750 L 34.937500,50.281250 L 38.500000,48.968750 L 38.562500,48.218750 L 35.437500,47.593750 L 35.187500,49.718750 L 34.281250,49.843750 z M 33.843750,53.406250 L 33.437500,53.343750 L 33.000000,54.093750 L 30.062500,53.281250 L 30.000000,51.843750 L 23.531250,52.593750 L 23.218750,53.968750 L 20.968750,55.343750 L 20.906250,55.687500 L 33.562500,55.687500 L 33.843750,53.406250 z M 45.750000,50.593750 L 43.687500,52.156250 L 42.000000,51.656250 L 41.437500,52.031250 L 42.687500,53.406250 L 43.500000,52.468750 L 44.375000,52.781250 L 42.437500,55.687500 L 44.343750,55.687500 L 47.187500,50.593750 L 45.750000,50.593750 z M 38.187500,54.156250 L 37.562500,54.406250 L 38.718750,55.687500 L 39.843750,55.687500 L 38.187500,54.156250 z "
     id="path880" />
  <metadata
     id="metadata21">
    <rdf:RDF
       id="RDF22">
      <cc:Work
         rdf:about=""
         id="Work23">
        <dc:title
           id="title24">Part of the Flat Icon Collection (Thu Aug 26 14:38:01 2004)</dc:title>
        <dc:description
           id="description26" />
        <dc:subject
           id="subject27">
          <rdf:Bag
             id="Bag28">
            <rdf:li
               id="li29" />
          </rdf:Bag>
        </dc:subject>
        <dc:publisher
           id="publisher30">
          <cc:Agent
             rdf:about=""
             id="Agent31">
            <dc:title
               id="title32" />
          </cc:Agent>
        </dc:publisher>
        <dc:creator
           id="creator33">
          <cc:Agent
             rdf:about=""
             id="Agent34">
            <dc:title
               id="title35">Danny Allen</dc:title>
          </cc:Agent>
        </dc:creator>
        <dc:rights
           id="rights37">
          <cc:Agent
             rdf:about=""
             id="Agent38">
            <dc:title
               id="title39">Danny Allen</dc:title>
          </cc:Agent>
        </dc:rights>
        <dc:date
           id="date41" />
        <dc:format
           id="format42">image/svg+xml</dc:format>
        <dc:type
           rdf:resource="http://purl.org/dc/dcmitype/StillImage"
           id="type44" />
        <cc:license
           rdf:resource="http://creativecommons.org/licenses/LGPL/2.1/"
           id="license45">
          <dc:date
             id="date46" />
        </cc:license>
        <dc:language
           id="language47">en</dc:language>
      </cc:Work>
    </rdf:RDF>
  </metadata>
</svg>
