<?xml version="1.0" encoding="UTF-8" standalone="no"?>
<!DOCTYPE svg PUBLIC "-//W3C//DTD SVG 20010904//EN"
"http://www.w3.org/TR/2001/REC-SVG-20010904/DTD/svg10.dtd">
<svg
   sodipodi:docname="viewmag_shrink.svg"
   height="60.0000000"
   sodipodi:version="0.32"
   width="60.0000000"
   _SVGFile__filename="scalable/actions/viewmag_shrink.svg"
   version="1.0"
   y="0"
   x="0"
   inkscape:version="0.39"
   id="svg1"
   sodipodi:docbase="/home/danny/work/flat/newscale/actions"
   xmlns="http://www.w3.org/2000/svg"
   xmlns:cc="http://web.resource.org/cc/"
   xmlns:inkscape="http://www.inkscape.org/namespaces/inkscape"
   xmlns:sodipodi="http://sodipodi.sourceforge.net/DTD/sodipodi-0.dtd"
   xmlns:rdf="http://www.w3.org/1999/02/22-rdf-syntax-ns#"
   xmlns:dc="http://purl.org/dc/elements/1.1/"
   xmlns:xlink="http://www.w3.org/1999/xlink">
  <sodipodi:namedview
     bordercolor="#666666"
     inkscape:pageshadow="2"
     inkscape:window-y="0"
     pagecolor="#ffffff"
     inkscape:window-height="685"
     inkscape:zoom="4.9119411"
     inkscape:window-x="0"
     borderopacity="1.0"
     inkscape:cx="37.697483"
     inkscape:cy="24.624508"
     inkscape:window-width="1016"
     inkscape:pageopacity="0.0"
     id="base" />
  <defs
     id="defs3">
    <linearGradient
       id="linearGradient1160">
      <stop
         style="stop-color:#000;stop-opacity:1;"
         id="stop1161"
         offset="0" />
      <stop
         style="stop-color:#fff;stop-opacity:1;"
         id="stop1162"
         offset="1" />
    </linearGradient>
    <linearGradient
       xlink:href="#linearGradient1160"
       id="linearGradient1163" />
  </defs>
  <path
     id="path835"
     style="font-size:12.000000;font-weight:900;fill:#333333;stroke-width:1.0000000pt;font-family:VAG Rounded Black SSi;"
     transform="scale(1.568707,1.568707)"
     d="M 13.589006,37.525982 L 8.7081468,35.258404 C 8.5831468,35.199810 8.4776780,35.106060 8.3917405,34.977154 C 8.3058030,34.848248 8.2628343,34.709576 8.2628343,34.561138 C 8.2628343,34.408794 8.3038499,34.274029 8.3858811,34.156841 C 8.4718186,34.035748 8.5792405,33.943951 8.7081468,33.881451 L 13.589006,31.608013 C 13.827287,31.498638 14.047991,31.443951 14.251116,31.443951 C 14.450334,31.443951 14.610491,31.508404 14.731584,31.637310 C 14.852678,31.766216 14.913225,31.941998 14.913225,32.164654 C 14.913225,32.328716 14.874162,32.473248 14.796037,32.598248 C 14.721819,32.719341 14.571428,32.830669 14.344866,32.932232 L 10.483537,34.561138 L 14.344866,36.207623 C 14.567522,36.301373 14.717912,36.410748 14.796037,36.535748 C 14.874162,36.656841 14.913225,36.799419 14.913225,36.963482 C 14.913225,37.190044 14.852678,37.369732 14.731584,37.502544 C 14.610491,37.631451 14.450334,37.695904 14.251116,37.695904 C 14.044084,37.695904 13.823381,37.639263 13.589006,37.525982 z M 1.6241624,36.207623 L 5.4913499,34.561138 L 1.6241624,32.932232 C 1.3936936,32.830669 1.2413499,32.719341 1.1671311,32.598248 C 1.0968186,32.473248 1.0616624,32.328716 1.0616624,32.164654 C 1.0616624,31.941998 1.1222093,31.766216 1.2433030,31.637310 C 1.3643968,31.508404 1.5245530,31.443951 1.7237718,31.443951 C 1.9268968,31.443951 2.1456468,31.498638 2.3800218,31.608013 L 7.2667405,33.881451 C 7.3487718,33.920513 7.4249436,33.975201 7.4952561,34.045513 C 7.5655686,34.115826 7.6183030,34.197857 7.6534593,34.291607 C 7.6925218,34.381451 7.7120530,34.471294 7.7120530,34.561138 C 7.7120530,34.709576 7.6710374,34.848248 7.5890061,34.977154 C 7.5069749,35.106060 7.3995530,35.199810 7.2667405,35.258404 L 2.3800218,37.525982 C 2.1495530,37.639263 1.9308030,37.695904 1.7237718,37.695904 C 1.5245530,37.695904 1.3643968,37.631451 1.2433030,37.502544 C 1.1222093,37.369732 1.0616624,37.190044 1.0616624,36.963482 C 1.0616624,36.799419 1.0987718,36.656841 1.1729905,36.535748 C 1.2472093,36.410748 1.3975999,36.301373 1.6241624,36.207623 z " />
  <metadata
     id="metadata12">
    <rdf:RDF
       id="RDF13">
      <cc:Work
         rdf:about=""
         id="Work14">
        <dc:title
           id="title15">Part of the Flat Icon Collection (Thu Aug 26 14:38:01 2004)</dc:title>
        <dc:description
           id="description17" />
        <dc:subject
           id="subject18">
          <rdf:Bag
             id="Bag19">
            <rdf:li
               id="li20" />
          </rdf:Bag>
        </dc:subject>
        <dc:publisher
           id="publisher21">
          <cc:Agent
             rdf:about=""
             id="Agent22">
            <dc:title
               id="title23" />
          </cc:Agent>
        </dc:publisher>
        <dc:creator
           id="creator24">
          <cc:Agent
             rdf:about=""
             id="Agent25">
            <dc:title
               id="title26">Danny Allen</dc:title>
          </cc:Agent>
        </dc:creator>
        <dc:rights
           id="rights28">
          <cc:Agent
             rdf:about=""
             id="Agent29">
            <dc:title
               id="title30">Danny Allen</dc:title>
          </cc:Agent>
        </dc:rights>
        <dc:date
           id="date32" />
        <dc:format
           id="format33">image/svg+xml</dc:format>
        <dc:type
           rdf:resource="http://purl.org/dc/dcmitype/StillImage"
           id="type35" />
        <cc:license
           rdf:resource="http://creativecommons.org/licenses/LGPL/2.1/"
           id="license36">
          <dc:date
             id="date37" />
        </cc:license>
        <dc:language
           id="language38">en</dc:language>
      </cc:Work>
    </rdf:RDF>
  </metadata>
  <path
     style="font-size:12.000000;fill:#b3b3b3;fill-opacity:1.0000000;fill-rule:evenodd;stroke:#333333;stroke-width:3.1250000;stroke-linecap:round;stroke-linejoin:round;stroke-opacity:1.0000000;"
     d="M 30.760907,34.156561 C 43.835771,53.343901 52.812250,58.284572 55.623110,55.802463 C 58.254010,52.960461 53.169280,44.840036 32.295559,32.423772 L 30.760907,34.156561 z "
     id="path954"
     sodipodi:nodetypes="cccc"
     sodipodi:stroke-cmyk="(0 0 0 0.8)" />
  <path
     sodipodi:type="arc"
     style="font-size:12.000000;fill:#7f7f7f;fill-opacity:1.0000000;fill-rule:evenodd;stroke:#333333;stroke-width:3.1250000;stroke-linejoin:round;stroke-opacity:1.0000000;"
     id="path955"
     sodipodi:cx="27.261799"
     sodipodi:cy="28.059610"
     sodipodi:rx="20.603802"
     sodipodi:ry="20.603802"
     d="M 47.865601 28.059610 A 20.603802 20.603802 0 1 0 6.6579971,28.059610 A 20.603802 20.603802 0 1 0 47.865601 28.059610 z"
     transform="translate(-2.879130,-2.879134)"
     sodipodi:stroke-cmyk="(0 0 0 0.8)" />
  <path
     style="font-size:12.000000;fill:#cccccc;fill-opacity:1.0000000;fill-rule:evenodd;stroke:#333333;stroke-width:2.5000000;stroke-linejoin:round;stroke-miterlimit:4.0000000;stroke-opacity:1.0000000;"
     d="M 40.602287,25.180476 C 40.602287,34.133707 33.335896,41.400098 24.382665,41.400098 C 15.429434,41.400098 8.1630430,34.133707 8.1630430,25.180476 C 8.1630430,16.227245 15.429434,8.9608544 24.382665,8.9608544 C 33.335896,8.9608544 40.602287,16.227245 40.602287,25.180476 z "
     id="path956" />
</svg>
