<?xml version="1.0" encoding="UTF-8" standalone="no"?>
<!DOCTYPE svg PUBLIC "-//W3C//DTD SVG 20010904//EN"
"http://www.w3.org/TR/2001/REC-SVG-20010904/DTD/svg10.dtd">
<svg
   sodipodi:docname="viewmag_enlarge.svg"
   height="60.0000000"
   sodipodi:version="0.32"
   width="60.0000000"
   _SVGFile__filename="scalable/actions/viewmag_enlarge.svg"
   version="1.0"
   y="0"
   x="0"
   inkscape:version="0.39"
   id="svg1"
   sodipodi:docbase="/home/danny/work/flat/newscale/actions"
   xmlns="http://www.w3.org/2000/svg"
   xmlns:cc="http://web.resource.org/cc/"
   xmlns:inkscape="http://www.inkscape.org/namespaces/inkscape"
   xmlns:sodipodi="http://sodipodi.sourceforge.net/DTD/sodipodi-0.dtd"
   xmlns:rdf="http://www.w3.org/1999/02/22-rdf-syntax-ns#"
   xmlns:dc="http://purl.org/dc/elements/1.1/"
   xmlns:xlink="http://www.w3.org/1999/xlink">
  <sodipodi:namedview
     bordercolor="#666666"
     inkscape:pageshadow="2"
     inkscape:window-y="0"
     pagecolor="#ffffff"
     inkscape:window-height="685"
     inkscape:zoom="4.9119411"
     inkscape:window-x="0"
     borderopacity="1.0"
     inkscape:cx="37.697483"
     inkscape:cy="24.624508"
     inkscape:window-width="1016"
     inkscape:pageopacity="0.0"
     id="base" />
  <defs
     id="defs3">
    <linearGradient
       id="linearGradient1160">
      <stop
         style="stop-color:#000;stop-opacity:1;"
         id="stop1161"
         offset="0" />
      <stop
         style="stop-color:#fff;stop-opacity:1;"
         id="stop1162"
         offset="1" />
    </linearGradient>
    <linearGradient
       xlink:href="#linearGradient1160"
       id="linearGradient1163" />
  </defs>
  <path
     style="font-size:12.000000;font-weight:900;fill:#333333;stroke-width:1.0000000pt;font-family:VAG Rounded Black SSi;"
     d="M 13.844359,56.799133 L 19.910842,54.216283 L 13.844359,51.661006 C 13.482822,51.501685 13.243839,51.327044 13.127412,51.137083 C 13.017112,50.940994 12.961962,50.714268 12.961962,50.456901 C 12.961962,50.107619 13.056942,49.831870 13.246903,49.629653 C 13.436863,49.427437 13.688101,49.326330 14.000617,49.326330 C 14.319261,49.326330 14.662415,49.412119 15.030081,49.583696 L 22.695909,53.150052 C 22.824592,53.211330 22.944083,53.297118 23.054382,53.407418 C 23.164683,53.517717 23.247407,53.646400 23.302556,53.793466 C 23.363835,53.934405 23.394473,54.075344 23.394473,54.216283 C 23.394473,54.449137 23.330131,54.666672 23.201448,54.868888 C 23.072766,55.071104 22.904252,55.218170 22.695909,55.310087 L 15.030081,58.867251 C 14.668543,59.044957 14.325389,59.133809 14.000617,59.133809 C 13.688101,59.133809 13.436863,59.032701 13.246903,58.830485 C 13.056942,58.622141 12.961962,58.340265 12.961962,57.984854 C 12.961962,57.727489 13.020176,57.503826 13.136603,57.313865 C 13.253031,57.117776 13.488949,56.946199 13.844359,56.799133 z M 10.020637,58.867251 L 2.3640009,55.310087 C 2.1679126,55.218170 2.0024632,55.071104 1.8676525,54.868888 C 1.7328418,54.666672 1.6654363,54.449137 1.6654363,54.216283 C 1.6654363,53.977300 1.7297779,53.765891 1.8584608,53.582059 C 1.9932715,53.392098 2.1617850,53.248096 2.3640009,53.150052 L 10.020637,49.583696 C 10.394431,49.412119 10.740649,49.326330 11.059293,49.326330 C 11.371808,49.326330 11.623047,49.427437 11.813007,49.629653 C 12.002968,49.831870 12.097948,50.107619 12.097948,50.456901 C 12.097948,50.714268 12.036670,50.940994 11.914115,51.137083 C 11.797688,51.327044 11.561769,51.501685 11.206359,51.661006 L 5.1490679,54.216283 L 11.206359,56.799133 C 11.555641,56.946199 11.791560,57.117776 11.914115,57.313865 C 12.036670,57.503826 12.097948,57.727489 12.097948,57.984854 C 12.097948,58.340265 12.002968,58.622141 11.813007,58.830485 C 11.623047,59.032701 11.371808,59.133809 11.059293,59.133809 C 10.734521,59.133809 10.388303,59.044957 10.020637,58.867251 z "
     id="path835" />
  <metadata
     id="metadata12">
    <rdf:RDF
       id="RDF13">
      <cc:Work
         rdf:about=""
         id="Work14">
        <dc:title
           id="title15">Part of the Flat Icon Collection (Thu Aug 26 14:38:01 2004)</dc:title>
        <dc:description
           id="description17" />
        <dc:subject
           id="subject18">
          <rdf:Bag
             id="Bag19">
            <rdf:li
               id="li20" />
          </rdf:Bag>
        </dc:subject>
        <dc:publisher
           id="publisher21">
          <cc:Agent
             rdf:about=""
             id="Agent22">
            <dc:title
               id="title23" />
          </cc:Agent>
        </dc:publisher>
        <dc:creator
           id="creator24">
          <cc:Agent
             rdf:about=""
             id="Agent25">
            <dc:title
               id="title26">Danny Allen</dc:title>
          </cc:Agent>
        </dc:creator>
        <dc:rights
           id="rights28">
          <cc:Agent
             rdf:about=""
             id="Agent29">
            <dc:title
               id="title30">Danny Allen</dc:title>
          </cc:Agent>
        </dc:rights>
        <dc:date
           id="date32" />
        <dc:format
           id="format33">image/svg+xml</dc:format>
        <dc:type
           rdf:resource="http://purl.org/dc/dcmitype/StillImage"
           id="type35" />
        <cc:license
           rdf:resource="http://creativecommons.org/licenses/LGPL/2.1/"
           id="license36">
          <dc:date
             id="date37" />
        </cc:license>
        <dc:language
           id="language38">en</dc:language>
      </cc:Work>
    </rdf:RDF>
  </metadata>
  <path
     sodipodi:nodetypes="cccc"
     style="font-size:12.000000;fill:#b3b3b3;fill-opacity:1.0000000;fill-rule:evenodd;stroke:#333333;stroke-width:3.1250000;stroke-linecap:round;stroke-linejoin:round;stroke-opacity:1.0000000;"
     d="M 31.695249,32.796155 C 44.033211,53.895202 52.747178,58.267478 55.425984,55.676851 C 58.197835,52.972138 53.532095,44.603944 33.315928,31.143546 L 31.695249,32.796155 z "
     sodipodi:stroke-cmyk="(0 0 0 0.8)"
     id="path976" />
  <path
     style="font-size:12.000000;fill:#7f7f7f;fill-opacity:1.0000000;fill-rule:evenodd;stroke:#333333;stroke-width:3.1250000;stroke-linecap:round;stroke-linejoin:round;stroke-opacity:1.0000000;"
     d="M 45.154588,24.695000 C 45.154588,36.068299 35.924084,45.298803 24.550785,45.298803 C 13.177487,45.298803 3.9469830,36.068300 3.9469830,24.695001 C 3.9469830,13.321702 13.177486,4.0911996 24.550785,4.0911994 C 35.924084,4.0911997 45.154588,13.321702 45.154588,24.695000 z "
     id="path1174" />
  <path
     style="font-size:12.000000;fill:#cccccc;fill-opacity:1.0000000;fill-rule:evenodd;stroke:#333333;stroke-width:2.5000000;stroke-linecap:round;stroke-linejoin:round;stroke-opacity:1.0000000;"
     d="M 40.770407,24.695002 C 40.770408,33.648233 33.504016,40.914623 24.550786,40.914623 C 15.597554,40.914623 8.3311630,33.648233 8.3311640,24.695002 C 8.3311630,15.741771 15.597554,8.4753800 24.550786,8.4753798 C 33.504016,8.4753798 40.770408,15.741771 40.770407,24.695002 z "
     id="path1175" />
</svg>
