<?xml version="1.0" encoding="UTF-8" standalone="no"?>
<!DOCTYPE svg PUBLIC "-//W3C//DTD SVG 20010904//EN"
"http://www.w3.org/TR/2001/REC-SVG-20010904/DTD/svg10.dtd">
<svg
   sodipodi:docname="window_new.svg"
   height="60.0000000"
   sodipodi:version="0.32"
   width="60.0000000"
   _SVGFile__filename="scalable/actions/window_new.svg"
   version="1.0"
   y="0"
   x="0"
   inkscape:version="0.39"
   id="svg1"
   sodipodi:docbase="/home/danny/work/flat/newscale/actions"
   xmlns="http://www.w3.org/2000/svg"
   xmlns:cc="http://web.resource.org/cc/"
   xmlns:inkscape="http://www.inkscape.org/namespaces/inkscape"
   xmlns:sodipodi="http://sodipodi.sourceforge.net/DTD/sodipodi-0.dtd"
   xmlns:rdf="http://www.w3.org/1999/02/22-rdf-syntax-ns#"
   xmlns:dc="http://purl.org/dc/elements/1.1/"
   xmlns:xlink="http://www.w3.org/1999/xlink">
  <sodipodi:namedview
     bordercolor="#666666"
     inkscape:pageshadow="2"
     inkscape:window-y="0"
     pagecolor="#ffffff"
     inkscape:window-height="685"
     inkscape:zoom="6.9465337"
     inkscape:window-x="0"
     borderopacity="1.0"
     inkscape:cx="38.082561"
     inkscape:cy="27.910970"
     inkscape:window-width="1016"
     inkscape:pageopacity="0.0"
     id="base" />
  <defs
     id="defs3">
    <linearGradient
       id="linearGradient1160">
      <stop
         style="stop-color:#000;stop-opacity:1;"
         id="stop1161"
         offset="0" />
      <stop
         style="stop-color:#fff;stop-opacity:1;"
         id="stop1162"
         offset="1" />
    </linearGradient>
    <linearGradient
       xlink:href="#linearGradient1160"
       id="linearGradient1163" />
  </defs>
  <g
     id="g995"
     transform="translate(-74.92710,0.459611)">
    <path
       transform="matrix(1.000000,0.000000,0.000000,1.308862,74.92710,-3.086301)"
       style="font-size:12.000000;fill:#cccccc;fill-opacity:1.0000000;fill-rule:evenodd;stroke:none;stroke-width:2.7315099;stroke-linecap:round;stroke-linejoin:round;"
       d="M 6.3261530,9.9924889 C 5.0146433,9.9924889 3.9588070,11.048325 3.9588070,12.359835 L 3.9588070,37.692313 C 3.9588070,39.003822 5.0146433,40.059659 6.3261530,40.059659 L 53.775738,40.059659 C 55.087247,40.059659 56.143084,39.003822 56.143084,37.692313 L 56.143084,12.359835 C 56.143084,11.048325 55.087247,9.9924889 53.775738,9.9924889 L 6.3261530,9.9924889 z "
       id="rect921"
       sodipodi:nodetypes="ccccccccc" />
    <path
       style="font-size:12.000000;fill:#7f7f7f;fill-rule:evenodd;stroke:none;stroke-width:3.1250000;stroke-linecap:round;stroke-linejoin:round;stroke-miterlimit:4.0000000;"
       d="M 6.2799752,4.4817147 C 4.9940482,4.4817147 3.9588082,5.5169555 3.9588082,6.8028824 L 3.9588082,10.882279 C 3.9588082,12.168206 4.9940482,13.203447 6.2799752,13.203447 L 53.821915,13.203447 C 55.107842,13.203447 56.143083,12.168206 56.143083,10.882279 L 56.143083,6.8028824 C 56.143083,5.5169555 55.107842,4.4817147 53.821915,4.4817147 L 6.2799752,4.4817147 z "
       id="rect922"
       sodipodi:nodetypes="ccccccccc"
       transform="translate(74.92710,5.398373)" />
    <path
       style="font-size:12.000000;fill:none;fill-opacity:0.75000000;fill-rule:evenodd;stroke:#333333;stroke-width:1.8750000;stroke-linecap:round;stroke-linejoin:round;stroke-opacity:1.0000000;"
       d="M 53.028658,7.6135273 L 50.322628,10.319557 M 50.259697,7.5505963 L 53.028658,10.319557"
       sodipodi:nodetypes="cccc"
       sodipodi:stroke-cmyk="(0.0000000 0.0000000 0.0000000 0.80000001)"
       id="path923"
       transform="translate(74.92710,5.398373)" />
    <path
       transform="matrix(1.000000,0.000000,0.000000,1.308862,74.92710,-3.086301)"
       style="font-size:12.000000;fill:none;fill-opacity:1.0000000;fill-rule:evenodd;stroke:#333333;stroke-width:2.7315099;stroke-linecap:round;stroke-linejoin:round;"
       d="M 6.3261530,9.9924889 C 5.0146433,9.9924889 3.9588070,11.048325 3.9588070,12.359835 L 3.9588070,37.692313 C 3.9588070,39.003822 5.0146433,40.059659 6.3261530,40.059659 L 53.775738,40.059659 C 55.087247,40.059659 56.143084,39.003822 56.143084,37.692313 L 56.143084,12.359835 C 56.143084,11.048325 55.087247,9.9924889 53.775738,9.9924889 L 6.3261530,9.9924889 z "
       id="rect1561"
       sodipodi:nodetypes="ccccccccc" />
    <path
       style="font-size:12.000000;fill:none;fill-rule:evenodd;stroke:#333333;stroke-width:3.1250000;stroke-linecap:round;stroke-linejoin:round;stroke-miterlimit:4.0000000;stroke-opacity:1.0000000;"
       d="M 3.9588081,10.882279 C 3.9588081,12.168206 4.9940481,13.203447 6.2799751,13.203447 L 53.826204,13.203447 C 55.112131,13.203447 56.147372,12.168206 56.147372,10.882279"
       id="rect1558"
       sodipodi:nodetypes="cccc"
       sodipodi:stroke-cmyk="(0.0000000 0.0000000 0.0000000 0.80000001)"
       transform="translate(74.92710,5.398373)" />
  </g>
  <path
     style="font-size:12.000000;font-weight:900;fill:#333333;fill-opacity:1.0000000;stroke-width:1.0000000pt;font-family:VAG Rounded Black SSi;"
     d="M 27.372509,32.059796 L 27.372509,26.026016 C 27.372509,25.181946 27.603310,24.496139 28.064911,23.968596 C 28.526511,23.427863 29.185940,23.157497 30.043200,23.157497 C 30.900458,23.157497 31.559887,23.427863 32.021488,23.968596 C 32.496277,24.496139 32.733672,25.181946 32.733672,26.026016 L 32.733672,32.059796 L 38.688321,32.059796 C 39.558766,32.059796 40.244573,32.297191 40.745741,32.771980 C 41.260094,33.233580 41.517272,33.886415 41.517272,34.730486 C 41.517272,35.587744 41.260094,36.253768 40.745741,36.728557 C 40.244573,37.203346 39.558766,37.440739 38.688321,37.440739 L 32.733672,37.440739 L 32.733672,43.454736 C 32.733672,44.311997 32.496277,45.004397 32.021488,45.531941 C 31.546698,46.059484 30.887269,46.323257 30.043200,46.323257 C 29.199129,46.323257 28.539700,46.059484 28.064911,45.531941 C 27.603310,45.004397 27.372509,44.311997 27.372509,43.454736 L 27.372509,37.440739 L 21.417861,37.440739 C 20.573791,37.440739 19.887985,37.183564 19.360441,36.669209 C 18.846086,36.141665 18.588909,35.495424 18.588909,34.730486 C 18.588909,33.886415 18.839492,33.233580 19.340658,32.771980 C 19.855013,32.297191 20.547414,32.059796 21.417861,32.059796 L 27.372509,32.059796 z "
     id="path838" />
  <metadata
     id="metadata1041">
    <rdf:RDF
       id="RDF1042">
      <cc:Work
         rdf:about=""
         id="Work1043">
        <dc:title
           id="title1044">Part of the Flat Icon Collection (Thu Aug 26 14:38:01 2004)</dc:title>
        <dc:description
           id="description1046" />
        <dc:subject
           id="subject1047">
          <rdf:Bag
             id="Bag1048">
            <rdf:li
               id="li1049" />
          </rdf:Bag>
        </dc:subject>
        <dc:publisher
           id="publisher1050">
          <cc:Agent
             rdf:about=""
             id="Agent1051">
            <dc:title
               id="title1052" />
          </cc:Agent>
        </dc:publisher>
        <dc:creator
           id="creator1053">
          <cc:Agent
             rdf:about=""
             id="Agent1054">
            <dc:title
               id="title1055">Danny Allen</dc:title>
          </cc:Agent>
        </dc:creator>
        <dc:rights
           id="rights1057">
          <cc:Agent
             rdf:about=""
             id="Agent1058">
            <dc:title
               id="title1059">Danny Allen</dc:title>
          </cc:Agent>
        </dc:rights>
        <dc:date
           id="date1061" />
        <dc:format
           id="format1062">image/svg+xml</dc:format>
        <dc:type
           rdf:resource="http://purl.org/dc/dcmitype/StillImage"
           id="type1064" />
        <cc:license
           rdf:resource="http://creativecommons.org/licenses/LGPL/2.1/"
           id="license1065">
          <dc:date
             id="date1066" />
        </cc:license>
        <dc:language
           id="language1067">en</dc:language>
      </cc:Work>
    </rdf:RDF>
  </metadata>
</svg>
