<?xml version="1.0" encoding="UTF-8" standalone="no"?>
<!DOCTYPE svg PUBLIC "-//W3C//DTD SVG 20010904//EN"
"http://www.w3.org/TR/2001/REC-SVG-20010904/DTD/svg10.dtd">
<svg
   sodipodi:docname="desktop.svg"
   height="60.0000000"
   sodipodi:version="0.32"
   width="60.0000000"
   _SVGFile__filename="scalable/filesystems/desktop.svg"
   version="1.0"
   y="0"
   x="0"
   inkscape:version="0.39"
   id="svg1"
   sodipodi:docbase="/home/danny/work/flat/newscale/filesystems"
   xmlns="http://www.w3.org/2000/svg"
   xmlns:cc="http://web.resource.org/cc/"
   xmlns:inkscape="http://www.inkscape.org/namespaces/inkscape"
   xmlns:sodipodi="http://sodipodi.sourceforge.net/DTD/sodipodi-0.dtd"
   xmlns:rdf="http://www.w3.org/1999/02/22-rdf-syntax-ns#"
   xmlns:dc="http://purl.org/dc/elements/1.1/"
   xmlns:xlink="http://www.w3.org/1999/xlink">
  <sodipodi:namedview
     bordercolor="#666666"
     inkscape:pageshadow="2"
     inkscape:window-y="0"
     pagecolor="#ffffff"
     inkscape:window-height="685"
     inkscape:zoom="6.9465338"
     inkscape:window-x="0"
     borderopacity="1.0"
     inkscape:cx="33.307957"
     inkscape:cy="23.184732"
     inkscape:window-width="1016"
     inkscape:pageopacity="0.0"
     id="base" />
  <defs
     id="defs3">
    <linearGradient
       id="linearGradient772">
      <stop
         style="stop-color:#000;stop-opacity:1;"
         id="stop773"
         offset="0" />
      <stop
         style="stop-color:#fff;stop-opacity:1;"
         id="stop774"
         offset="1" />
    </linearGradient>
    <linearGradient
       xlink:href="#linearGradient772"
       id="linearGradient775" />
  </defs>
  <path
     style="font-size:12;fill:none;fill-opacity:0.75;fill-rule:evenodd;stroke:#333333;stroke-width:3.125;stroke-linecap:round;stroke-linejoin:round;stroke-dasharray:none;"
     d="M 44.916051 25.625507 L 54.968085 9.4659085 L 37.917799 5.1397161 "
     sodipodi:nodetypes="ccc"
     transform="translate(0.000000,1.079675)"
     sodipodi:stroke-cmyk="(0 0 0 0.8)"
     id="path594" />
  <path
     transform="translate(0.000000,1.079675)"
     style="font-size:12.000000;fill:#4c4c4c;fill-rule:evenodd;stroke:#333333;stroke-width:3.1250000;stroke-linecap:round;stroke-linejoin:round;"
     d="M 23.994755,4.6307526 C 22.332755,4.6307526 20.994755,5.8508659 20.994755,7.3664327 C 20.994755,8.8819994 22.332755,10.102113 23.994755,10.102113 L 41.279846,10.102113 C 42.941846,10.102113 44.279846,8.8819994 44.279846,7.3664327 C 44.279846,5.8508659 42.941846,4.6307526 41.279846,4.6307526 L 23.994755,4.6307526 z "
     id="rect595" />
  <path
     transform="translate(0.000000,1.079675)"
     style="font-size:12.000000;fill:#7f7f7f;fill-rule:evenodd;stroke:#333333;stroke-width:3.1250000;stroke-linecap:round;stroke-linejoin:round;"
     d="M 5.6899872,18.519455 C 4.5819872,18.519455 3.6899872,19.411455 3.6899872,20.519455 L 3.6899872,52.146919 C 3.6899872,53.254919 4.5819872,54.146919 5.6899872,54.146919 L 54.876701,54.146919 C 55.984701,54.146919 56.876701,53.254919 56.876701,52.146919 L 56.876701,20.519455 C 56.876701,19.411455 55.984701,18.519455 54.876701,18.519455 L 5.6899872,18.519455 z "
     id="rect593" />
  <path
     transform="matrix(0.986884,-0.161432,0.161432,0.986884,0.000000,1.079675)"
     style="font-size:12.000000;fill:#cccccc;fill-rule:evenodd;stroke:#333333;stroke-width:1.8750000;stroke-linecap:round;stroke-linejoin:round;"
     d="M 4.9959764,27.240133 L 4.9959764,46.199041 L 20.264894,46.199041 L 20.264894,27.240133 L 4.9959764,27.240133 z "
     id="rect596" />
  <path
     transform="matrix(0.952877,0.303358,-0.303358,0.952877,0.000000,1.079675)"
     style="font-size:12.000000;fill:#cccccc;fill-rule:evenodd;stroke:#333333;stroke-width:1.8750000;stroke-linecap:round;stroke-linejoin:round;"
     d="M 27.905333,19.639633 L 27.905333,38.598553 L 43.174258,38.598553 L 43.174258,19.639633 L 27.905333,19.639633 z "
     id="rect597" />
  <path
     style="font-size:12.000000;fill:#4c4c4c;fill-rule:evenodd;stroke:#333333;stroke-width:1.6846600;stroke-linecap:round;stroke-linejoin:round;stroke-dasharray:none;fill-opacity:1.0000000;"
     d="M 64.489325 23.609091 C 66.078952 16.023656 66.078952 16.023656 66.078952 16.023656 L 67.718687 23.593716 L 64.489325 23.609091 z "
     fill-opacity="1.0"
     sodipodi:nodetypes="cccc"
     transform="matrix(0.656671,-0.345444,0.345444,0.656671,-9.727915,39.26459)"
     sodipodi:stroke-cmyk="(0 0 0 0.8)"
     id="path599" />
  <rect
     style="font-size:12.000000;fill:#b3b3b3;fill-rule:evenodd;stroke:#333333;stroke-width:1.6846600;stroke-linecap:round;stroke-linejoin:round;stroke-dasharray:none;"
     sodipodi:fill-cmyk="(0 0 0 0.3)"
     transform="matrix(0.656671,-0.345444,0.345444,0.656671,-9.727915,39.26459)"
     height="22.90336990"
     width="3.18102336"
     sodipodi:stroke-cmyk="(0 0 0 0.8)"
     y="23.61681097"
     x="64.51115417"
     id="rect598" />
  <path
     sodipodi:rx="0.62029958"
     sodipodi:ry="0.62029958"
     style="font-size:12.000000;fill:#333333;fill-rule:evenodd;stroke:#333333;stroke-width:2.5605299;stroke-dasharray:none;"
     sodipodi:type="arc"
     d="M 61.966338 18.726221 A 0.620300 0.620300 0 1 0 60.725739,18.726221 A 0.6203 0.6203 0 1 0 61.9663 18.7262 L 61.346039 18.726221 z"
     transform="matrix(0.432047,-0.227280,0.227280,0.432047,9.258380,34.34242)"
     sodipodi:cy="18.72622108"
     sodipodi:cx="61.34603882"
     sodipodi:stroke-cmyk="(0 0 0 0.8)"
     id="path600" />
  <path
     transform="matrix(0.656671,-0.345444,0.345444,0.656671,-9.727915,39.26459)"
     style="font-size:12.000000;fill:#cccccc;fill-rule:evenodd;stroke:#333333;stroke-width:1.6846600;"
     d="M 65.320297,46.448841 C 64.766297,46.448841 64.320297,46.888649 64.320297,47.434958 C 64.320297,47.981267 64.766297,48.421076 65.320297,48.421076 L 66.946664,48.421076 C 67.500664,48.421076 67.946664,47.981267 67.946664,47.434958 C 67.946664,46.888649 67.500664,46.448841 66.946664,46.448841 L 65.320297,46.448841 z "
     id="rect601" />
  <metadata
     id="metadata18">
    <rdf:RDF
       id="RDF19">
      <cc:Work
         rdf:about=""
         id="Work20">
        <dc:title
           id="title21">Part of the Flat Icon Collection (Thu Aug 26 14:40:13 2004)</dc:title>
        <dc:description
           id="description23" />
        <dc:subject
           id="subject24">
          <rdf:Bag
             id="Bag25">
            <rdf:li
               id="li26" />
          </rdf:Bag>
        </dc:subject>
        <dc:publisher
           id="publisher27">
          <cc:Agent
             rdf:about=""
             id="Agent28">
            <dc:title
               id="title29" />
          </cc:Agent>
        </dc:publisher>
        <dc:creator
           id="creator30">
          <cc:Agent
             rdf:about=""
             id="Agent31">
            <dc:title
               id="title32">Danny Allen</dc:title>
          </cc:Agent>
        </dc:creator>
        <dc:rights
           id="rights34">
          <cc:Agent
             rdf:about=""
             id="Agent35">
            <dc:title
               id="title36">Danny Allen</dc:title>
          </cc:Agent>
        </dc:rights>
        <dc:date
           id="date38" />
        <dc:format
           id="format39">image/svg+xml</dc:format>
        <dc:type
           rdf:resource="http://purl.org/dc/dcmitype/StillImage"
           id="type41" />
        <cc:license
           rdf:resource="http://creativecommons.org/licenses/LGPL/2.1/"
           id="license42">
          <dc:date
             id="date43" />
        </cc:license>
        <dc:language
           id="language44">en</dc:language>
      </cc:Work>
    </rdf:RDF>
  </metadata>
</svg>
