<?xml version="1.0" encoding="UTF-8" standalone="no"?>
<!DOCTYPE svg PUBLIC "-//W3C//DTD SVG 20010904//EN"
"http://www.w3.org/TR/2001/REC-SVG-20010904/DTD/svg10.dtd">
<svg
   sodipodi:docname="file_important.svg"
   height="60.0000000"
   sodipodi:version="0.32"
   width="60.0000000"
   _SVGFile__filename="scalable/filesystems/file_important.svg"
   version="1.0"
   y="0"
   x="0"
   inkscape:version="0.39"
   id="svg1"
   sodipodi:docbase="/home/danny/work/flat/newscale/filesystems"
   xmlns="http://www.w3.org/2000/svg"
   xmlns:cc="http://web.resource.org/cc/"
   xmlns:inkscape="http://www.inkscape.org/namespaces/inkscape"
   xmlns:sodipodi="http://sodipodi.sourceforge.net/DTD/sodipodi-0.dtd"
   xmlns:rdf="http://www.w3.org/1999/02/22-rdf-syntax-ns#"
   xmlns:dc="http://purl.org/dc/elements/1.1/"
   xmlns:xlink="http://www.w3.org/1999/xlink">
  <sodipodi:namedview
     bordercolor="#666666"
     inkscape:pageshadow="2"
     inkscape:window-y="0"
     pagecolor="#ffffff"
     inkscape:window-height="685"
     inkscape:zoom="6.9465337"
     inkscape:window-x="0"
     borderopacity="1.0"
     inkscape:cx="37.697540"
     inkscape:cy="31.806367"
     inkscape:window-width="1016"
     inkscape:pageopacity="0.0"
     id="base" />
  <defs
     id="defs3">
    <linearGradient
       id="linearGradient900">
      <stop
         style="stop-color:#000;stop-opacity:1;"
         id="stop901"
         offset="0" />
      <stop
         style="stop-color:#fff;stop-opacity:1;"
         id="stop902"
         offset="1" />
    </linearGradient>
    <linearGradient
       xlink:href="#linearGradient900"
       id="linearGradient903" />
    <linearGradient
       xlink:href="#linearGradient900"
       id="linearGradient904" />
    <linearGradient
       xlink:href="#linearGradient900"
       id="linearGradient905" />
    <linearGradient
       xlink:href="#linearGradient900"
       id="linearGradient906" />
    <linearGradient
       xlink:href="#linearGradient900"
       id="linearGradient907" />
  </defs>
  <path
     style="font-size:12.000000;fill:#b3b3b3;fill-opacity:1.0000000;fill-rule:evenodd;stroke:#333333;stroke-width:3.1250000;stroke-linecap:round;stroke-linejoin:round;stroke-opacity:1.0000000;"
     d="M 6.6785922,5.1165123 C 5.5705922,5.1165123 4.6785922,6.0085123 4.6785922,7.1165123 L 4.6785922,53.501354 C 4.6785922,54.609354 5.5705922,55.501354 6.6785922,55.501354 L 53.423324,55.501354 C 54.531324,55.501354 55.423324,54.609354 55.423324,53.501354 L 55.423324,7.1165123 C 55.423324,6.0085123 54.531324,5.1165123 53.423324,5.1165123 L 6.6785922,5.1165123 z "
     id="rect812" />
  <path
     transform="translate(-0.143241,-0.920185)"
     style="fill:#7f7f7f;fill-opacity:1.0000000;fill-rule:evenodd;stroke:#4c4c4c;stroke-width:2.5000000;stroke-linecap:round;stroke-linejoin:round;stroke-miterlimit:4.0000000;"
     d="M 26.301861,19.400406 L 10.289668,47.136228 L 25.998865,47.136228 C 25.979653,46.965365 25.859021,46.823239 25.859021,46.646772 C 25.859021,45.869084 26.052861,45.143461 26.441706,44.479183 C 26.846752,43.798705 27.385640,43.252710 28.049918,42.847664 C 28.714193,42.442618 29.432712,42.241671 30.194200,42.241671 C 30.955685,42.241671 31.674205,42.442618 32.338482,42.847664 C 33.002758,43.252710 33.534540,43.798705 33.923385,44.479183 C 34.328433,45.143461 34.529379,45.869084 34.529379,46.646772 C 34.529379,46.822802 34.409448,46.965775 34.389534,47.136228 L 50.098731,47.136228 L 34.086538,19.400406 L 34.086538,33.478084 C 34.086538,34.709424 33.734384,35.765885 33.037704,36.624584 C 32.357226,37.483283 31.409338,37.906492 30.194200,37.906492 C 28.995261,37.906492 28.047375,37.483283 27.350695,36.624584 C 26.654015,35.749684 26.301861,34.693223 26.301861,33.478084 L 26.301861,19.400406 z "
     id="path839" />
  <path
     transform="translate(-0.143241,-0.920185)"
     style="font-size:12.000000;font-weight:900;fill:#cccccc;fill-opacity:1.0000000;stroke:#333333;stroke-width:2.5000000;stroke-linecap:round;stroke-linejoin:round;stroke-miterlimit:4.0000000;font-family:VAG Rounded Black SSi;"
     d="M 25.868751,46.641135 C 25.868751,45.863446 26.063174,45.142464 26.452018,44.478186 C 26.857064,43.797709 27.391725,43.254946 28.056002,42.849900 C 28.720277,42.444854 29.433159,42.242331 30.194647,42.242331 C 30.956134,42.242331 31.669015,42.444854 32.333292,42.849900 C 32.997568,43.254946 33.524128,43.797709 33.912973,44.478186 C 34.318020,45.142464 34.520543,45.863446 34.520543,46.641135 C 34.520543,47.435026 34.318020,48.172210 33.912973,48.852689 C 33.524128,49.516965 32.989467,50.043525 32.308989,50.432369 C 31.644713,50.821214 30.939933,51.015637 30.194647,51.015637 C 29.449361,51.015637 28.736480,50.821214 28.056002,50.432369 C 27.391725,50.043525 26.857064,49.516965 26.452018,48.852689 C 26.063174,48.172210 25.868751,47.435026 25.868751,46.641135 z "
     id="path836" />
  <path
     transform="translate(-0.143241,-0.920185)"
     style="font-size:12.000000;font-weight:900;fill:#cccccc;fill-opacity:1.0000000;stroke:#333333;stroke-width:2.5000000;stroke-linecap:round;stroke-linejoin:round;stroke-miterlimit:4.0000000;font-family:VAG Rounded Black SSi;"
     d="M 34.083092,15.865707 L 34.083092,33.485226 C 34.083092,34.716568 33.734752,35.761587 33.038073,36.620286 C 32.357594,37.478985 31.409786,37.908334 30.194647,37.908334 C 28.995710,37.908334 28.047901,37.478985 27.351221,36.620286 C 26.654541,35.745385 26.306201,34.700367 26.306201,33.485226 L 26.306201,15.865707 C 26.306201,14.618163 26.654541,13.573144 27.351221,12.730647 C 28.047901,11.871948 28.995710,11.442600 30.194647,11.442600 C 30.988538,11.442600 31.677116,11.637021 32.260384,12.025866 C 32.859852,12.414711 33.313504,12.949371 33.621339,13.629850 C 33.929174,14.294126 34.083092,15.039412 34.083092,15.865707 z "
     id="path835" />
  <metadata
     id="metadata17">
    <rdf:RDF
       id="RDF18">
      <cc:Work
         rdf:about=""
         id="Work19">
        <dc:title
           id="title20">Part of the Flat Icon Collection (Thu Aug 26 14:40:13 2004)</dc:title>
        <dc:description
           id="description22" />
        <dc:subject
           id="subject23">
          <rdf:Bag
             id="Bag24">
            <rdf:li
               id="li25" />
          </rdf:Bag>
        </dc:subject>
        <dc:publisher
           id="publisher26">
          <cc:Agent
             rdf:about=""
             id="Agent27">
            <dc:title
               id="title28" />
          </cc:Agent>
        </dc:publisher>
        <dc:creator
           id="creator29">
          <cc:Agent
             rdf:about=""
             id="Agent30">
            <dc:title
               id="title31">Danny Allen</dc:title>
          </cc:Agent>
        </dc:creator>
        <dc:rights
           id="rights33">
          <cc:Agent
             rdf:about=""
             id="Agent34">
            <dc:title
               id="title35">Danny Allen</dc:title>
          </cc:Agent>
        </dc:rights>
        <dc:date
           id="date37" />
        <dc:format
           id="format38">image/svg+xml</dc:format>
        <dc:type
           rdf:resource="http://purl.org/dc/dcmitype/StillImage"
           id="type40" />
        <cc:license
           rdf:resource="http://creativecommons.org/licenses/LGPL/2.1/"
           id="license41">
          <dc:date
             id="date42" />
        </cc:license>
        <dc:language
           id="language43">en</dc:language>
      </cc:Work>
    </rdf:RDF>
  </metadata>
</svg>
