<?xml version="1.0" encoding="UTF-8" standalone="no"?>
<!DOCTYPE svg PUBLIC "-//W3C//DTD SVG 20010904//EN"
"http://www.w3.org/TR/2001/REC-SVG-20010904/DTD/svg10.dtd">
<svg
   sodipodi:docname="folder_fonts.svg"
   height="60.0000000"
   sodipodi:version="0.32"
   width="60.0000000"
   _SVGFile__filename="scalable/filesystems/folder_fonts.svg"
   version="1.0"
   y="0"
   x="0"
   inkscape:version="0.39"
   id="svg1"
   sodipodi:docbase="/home/danny/work/flat/newscale/filesystems"
   xmlns="http://www.w3.org/2000/svg"
   xmlns:cc="http://web.resource.org/cc/"
   xmlns:inkscape="http://www.inkscape.org/namespaces/inkscape"
   xmlns:sodipodi="http://sodipodi.sourceforge.net/DTD/sodipodi-0.dtd"
   xmlns:rdf="http://www.w3.org/1999/02/22-rdf-syntax-ns#"
   xmlns:dc="http://purl.org/dc/elements/1.1/"
   xmlns:xlink="http://www.w3.org/1999/xlink">
  <sodipodi:namedview
     bordercolor="#666666"
     inkscape:pageshadow="2"
     inkscape:window-y="0"
     pagecolor="#ffffff"
     inkscape:window-height="685"
     inkscape:zoom="4.9119411"
     inkscape:window-x="0"
     borderopacity="1.0"
     inkscape:cx="22.559197"
     inkscape:cy="35.151018"
     inkscape:window-width="1016"
     inkscape:pageopacity="0.0"
     id="base" />
  <defs
     id="defs3">
    <linearGradient
       id="linearGradient900">
      <stop
         style="stop-color:#000;stop-opacity:1;"
         id="stop901"
         offset="0" />
      <stop
         style="stop-color:#fff;stop-opacity:1;"
         id="stop902"
         offset="1" />
    </linearGradient>
    <linearGradient
       xlink:href="#linearGradient900"
       id="linearGradient903" />
    <linearGradient
       xlink:href="#linearGradient900"
       id="linearGradient904" />
    <linearGradient
       xlink:href="#linearGradient900"
       id="linearGradient905" />
    <linearGradient
       xlink:href="#linearGradient900"
       id="linearGradient906" />
    <linearGradient
       xlink:href="#linearGradient900"
       id="linearGradient907" />
  </defs>
  <path
     style="font-size:12;fill:#b3b3b3;fill-rule:evenodd;stroke:#333333;stroke-width:3.125;stroke-dasharray:none;stroke-linejoin:round;"
     d="M 5.4330181,8.4866775 C 4.9067701,8.4866775 4.4642681,8.9291795 4.4642681,9.4554275 L 4.4330181,51.392927 C 4.4330181,52.276723 5.1429741,52.986677 6.0267681,52.986677 L 43.308018,52.986677 C 44.191811,52.986676 44.901768,52.276721 44.901768,51.392927 L 44.901768,14.392927 C 44.901768,13.509133 44.191812,12.799177 43.308018,12.799177 L 28.589268,12.799177 L 28.589268,9.4554275 C 28.589268,8.9291805 28.146766,8.4866775 27.620518,8.4866775 L 5.4330181,8.4866775 z "
     id="path938"
     sodipodi:nodetypes="cccccccccccc" />
  <path
     transform="matrix(1.000000,0.000000,-0.359650,0.933087,0.000000,0.000000)"
     style="font-size:12.000000;fill:#7f7f7f;fill-rule:evenodd;stroke:#333333;stroke-width:3.2351100;stroke-linejoin:round;"
     d="M 26.627555,23.398020 C 25.743761,23.398020 25.032259,24.109522 25.032259,24.993316 L 25.032259,55.253091 C 25.032259,56.136885 25.743761,56.848387 26.627555,56.848387 L 63.913396,56.848387 C 64.797190,56.848387 65.508692,56.136885 65.508692,55.253091 L 65.508692,24.993316 C 65.508692,24.109522 64.797190,23.398020 63.913396,23.398020 L 26.627555,23.398020 z "
     id="rect922" />
  <path
     id="path836"
     style="font-size:12.000000;font-weight:900;fill:#333333;stroke-width:1.0000000pt;font-family:VAG Rounded Black SSi;"
     d="M 38.627773,42.165517 L 40.652987,37.264204 L 40.372695,37.264204 C 39.973721,37.264204 39.701734,37.170773 39.556731,36.983912 C 39.406679,36.797051 39.409906,36.514235 39.566414,36.135462 C 39.725009,35.751640 39.955500,35.468823 40.257887,35.287012 C 40.555224,35.105202 40.903379,35.014296 41.302352,35.014296 L 41.582644,35.014296 L 42.243108,33.415877 C 42.393356,33.052256 42.629668,32.749238 42.952046,32.506824 C 43.274424,32.264410 43.614900,32.143203 43.973470,32.143203 C 44.337091,32.143203 44.579926,32.264410 44.701974,32.506824 C 44.824022,32.749238 44.809922,33.052256 44.659674,33.415877 L 43.999210,35.014296 L 44.665849,35.014296 C 45.074924,35.014296 45.350480,35.105202 45.492520,35.287012 C 45.639609,35.468823 45.633855,35.751640 45.475261,36.135462 C 45.318753,36.514235 45.090787,36.797051 44.791364,36.983912 C 44.496990,37.170773 44.145267,37.264204 43.736192,37.264204 L 43.069553,37.264204 L 41.044339,42.165517 C 40.896178,42.524087 40.657341,42.827105 40.327826,43.074571 C 40.005448,43.316985 39.664972,43.438192 39.306401,43.438192 C 38.952881,43.438192 38.712572,43.316985 38.585472,43.074571 C 38.465512,42.827105 38.479612,42.524087 38.627773,42.165517 z M 29.378154,42.165517 L 31.850981,36.180915 C 31.999141,35.822344 32.233367,35.524376 32.553658,35.287012 C 32.881088,35.044598 33.221562,34.923391 33.575083,34.923391 C 33.868000,34.923391 34.088170,35.001671 34.235592,35.158230 C 34.390152,35.309739 34.467580,35.489024 34.467878,35.696086 C 35.118474,35.074900 35.941226,34.764307 36.936135,34.764307 C 37.506819,34.764307 37.976644,34.867838 38.345614,35.074900 C 38.719634,35.281962 38.946737,35.600131 39.026927,36.029406 C 39.114253,36.453631 39.024364,36.988962 38.757257,37.635400 L 36.885421,42.165517 C 36.735173,42.529139 36.496334,42.832156 36.168906,43.074571 C 35.841477,43.316985 35.501003,43.438192 35.147482,43.438192 C 34.793961,43.438192 34.554695,43.314460 34.429683,43.066994 C 34.304672,42.819530 34.315204,42.519037 34.461278,42.165517 L 36.057660,38.302040 C 36.239209,37.862664 36.266601,37.509143 36.139836,37.241477 C 36.020207,36.968761 35.750806,36.832403 35.331633,36.832403 C 34.917508,36.832403 34.535421,36.968761 34.185371,37.241477 C 33.835321,37.514193 33.570566,37.867714 33.391103,38.302040 L 31.794721,42.165517 C 31.646561,42.524087 31.407722,42.827105 31.078207,43.074571 C 30.755829,43.316985 30.415353,43.438192 30.056783,43.438192 C 29.703262,43.438192 29.462953,43.316985 29.335854,43.074571 C 29.215893,42.827105 29.229993,42.524087 29.378154,42.165517 z M 27.557733,34.764307 C 28.163769,34.764307 28.669825,34.877938 29.075899,35.105202 C 29.489111,35.327415 29.791531,35.640533 29.983161,36.044557 C 30.179840,36.448581 30.264579,36.915733 30.237380,37.446014 C 30.217317,37.971245 30.077906,38.546979 29.819146,39.173216 C 29.483175,39.986314 29.002622,40.733758 28.377487,41.415548 C 27.759490,42.092287 27.059558,42.625093 26.277689,43.013967 C 25.495821,43.402840 24.705914,43.597276 23.907966,43.597276 C 23.306982,43.597276 22.802408,43.486169 22.394247,43.263956 C 21.991136,43.041743 21.689759,42.726099 21.490116,42.317025 C 21.292559,41.902902 21.208424,41.428173 21.237711,40.892842 C 21.269084,40.352460 21.409978,39.779252 21.660391,39.173216 C 21.992188,38.370219 22.469610,37.630350 23.092658,36.953610 C 23.717792,36.271820 24.418769,35.736489 25.195586,35.347616 C 25.977454,34.958743 26.764837,34.764307 27.557733,34.764307 z M 26.587383,37.112695 C 26.072254,37.112695 25.584321,37.309656 25.123585,37.703579 C 24.667900,38.097503 24.319023,38.587381 24.076957,39.173216 C 23.922536,39.546938 23.844204,39.895408 23.841957,40.218627 C 23.841799,40.536796 23.926846,40.789311 24.097099,40.976172 C 24.272404,41.163033 24.531765,41.256464 24.875186,41.256464 C 25.395366,41.256464 25.883300,41.059502 26.338986,40.665578 C 26.796757,40.266606 27.148764,39.769151 27.395003,39.173216 C 27.639156,38.582331 27.695113,38.092452 27.562878,37.703579 C 27.432729,37.309656 27.107564,37.112695 26.587383,37.112695 z M 16.204455,42.165517 L 18.229668,37.264204 L 17.949377,37.264204 C 17.550403,37.264204 17.278415,37.170773 17.133413,36.983912 C 16.983361,36.797051 16.986588,36.514235 17.143096,36.135462 C 17.301691,35.751640 17.532182,35.468823 17.834569,35.287012 C 18.131906,35.105202 18.480060,35.014296 18.879034,35.014296 L 19.159326,35.014296 L 19.613199,33.915857 C 19.761360,33.557286 19.963864,33.213865 20.220712,32.885596 C 20.477559,32.557327 20.766128,32.274510 21.086419,32.037146 C 21.413849,31.794732 21.756200,31.607871 22.113474,31.476563 C 22.470748,31.345256 22.836244,31.279602 23.209967,31.279602 C 23.674594,31.279602 24.023985,31.362932 24.258140,31.529592 C 24.499431,31.691201 24.532432,31.984118 24.357143,32.408343 C 24.044127,33.165888 23.506322,33.544660 22.743727,33.544660 C 22.546765,33.544660 22.379877,33.600213 22.243063,33.711320 C 22.111299,33.822426 21.982813,34.029488 21.857607,34.332506 L 21.575892,35.014296 L 22.242531,35.014296 C 22.651606,35.014296 22.927162,35.105202 23.069201,35.287012 C 23.216291,35.468823 23.210537,35.751640 23.051942,36.135462 C 22.895434,36.514235 22.667469,36.797051 22.368046,36.983912 C 22.073672,37.170773 21.721949,37.264204 21.312874,37.264204 L 20.646235,37.264204 L 18.621021,42.165517 C 18.472860,42.524087 18.234023,42.827105 17.904508,43.074571 C 17.582129,43.316985 17.241654,43.438192 16.883083,43.438192 C 16.529563,43.438192 16.289253,43.316985 16.162154,43.074571 C 16.042194,42.827105 16.056294,42.524087 16.204455,42.165517 z " />
  <metadata
     id="metadata15">
    <rdf:RDF
       id="RDF16">
      <cc:Work
         rdf:about=""
         id="Work17">
        <dc:title
           id="title18">Part of the Flat Icon Collection (Thu Aug 26 14:40:13 2004)</dc:title>
        <dc:description
           id="description20" />
        <dc:subject
           id="subject21">
          <rdf:Bag
             id="Bag22">
            <rdf:li
               id="li23" />
          </rdf:Bag>
        </dc:subject>
        <dc:publisher
           id="publisher24">
          <cc:Agent
             rdf:about=""
             id="Agent25">
            <dc:title
               id="title26" />
          </cc:Agent>
        </dc:publisher>
        <dc:creator
           id="creator27">
          <cc:Agent
             rdf:about=""
             id="Agent28">
            <dc:title
               id="title29">Danny Allen</dc:title>
          </cc:Agent>
        </dc:creator>
        <dc:rights
           id="rights31">
          <cc:Agent
             rdf:about=""
             id="Agent32">
            <dc:title
               id="title33">Danny Allen</dc:title>
          </cc:Agent>
        </dc:rights>
        <dc:date
           id="date35" />
        <dc:format
           id="format36">image/svg+xml</dc:format>
        <dc:type
           rdf:resource="http://purl.org/dc/dcmitype/StillImage"
           id="type38" />
        <cc:license
           rdf:resource="http://creativecommons.org/licenses/LGPL/2.1/"
           id="license39">
          <dc:date
             id="date40" />
        </cc:license>
        <dc:language
           id="language41">en</dc:language>
      </cc:Work>
    </rdf:RDF>
  </metadata>
</svg>
