<?xml version="1.0" encoding="UTF-8" standalone="no"?>
<!DOCTYPE svg PUBLIC "-//W3C//DTD SVG 20010904//EN"
"http://www.w3.org/TR/2001/REC-SVG-20010904/DTD/svg10.dtd">
<svg
   sodipodi:docname="folder_deb.svg"
   height="60.0000000"
   sodipodi:version="0.32"
   width="60.0000000"
   _SVGFile__filename="scalable/filesystems/folder_deb.svg"
   version="1.0"
   y="0"
   x="0"
   inkscape:version="0.39"
   id="svg1"
   sodipodi:docbase="/home/danny/work/flat/newscale/filesystems"
   xmlns="http://www.w3.org/2000/svg"
   xmlns:cc="http://web.resource.org/cc/"
   xmlns:inkscape="http://www.inkscape.org/namespaces/inkscape"
   xmlns:sodipodi="http://sodipodi.sourceforge.net/DTD/sodipodi-0.dtd"
   xmlns:rdf="http://www.w3.org/1999/02/22-rdf-syntax-ns#"
   xmlns:dc="http://purl.org/dc/elements/1.1/"
   xmlns:xlink="http://www.w3.org/1999/xlink">
  <sodipodi:namedview
     bordercolor="#666666"
     inkscape:pageshadow="2"
     inkscape:window-y="0"
     pagecolor="#ffffff"
     inkscape:window-height="685"
     inkscape:zoom="4.9119411"
     inkscape:window-x="0"
     borderopacity="1.0"
     inkscape:cx="22.559197"
     inkscape:cy="35.151018"
     inkscape:window-width="1016"
     inkscape:pageopacity="0.0"
     id="base" />
  <defs
     id="defs3">
    <linearGradient
       id="linearGradient900">
      <stop
         style="stop-color:#000;stop-opacity:1;"
         id="stop901"
         offset="0" />
      <stop
         style="stop-color:#fff;stop-opacity:1;"
         id="stop902"
         offset="1" />
    </linearGradient>
    <linearGradient
       xlink:href="#linearGradient900"
       id="linearGradient903" />
    <linearGradient
       xlink:href="#linearGradient900"
       id="linearGradient904" />
    <linearGradient
       xlink:href="#linearGradient900"
       id="linearGradient905" />
    <linearGradient
       xlink:href="#linearGradient900"
       id="linearGradient906" />
    <linearGradient
       xlink:href="#linearGradient900"
       id="linearGradient907" />
  </defs>
  <path
     style="font-size:12;fill:#b3b3b3;fill-rule:evenodd;stroke:#333333;stroke-width:3.125;stroke-dasharray:none;stroke-linejoin:round;"
     d="M 5.4330181,8.4866775 C 4.9067701,8.4866775 4.4642681,8.9291795 4.4642681,9.4554275 L 4.4330181,51.392927 C 4.4330181,52.276723 5.1429741,52.986677 6.0267681,52.986677 L 43.308018,52.986677 C 44.191811,52.986676 44.901768,52.276721 44.901768,51.392927 L 44.901768,14.392927 C 44.901768,13.509133 44.191812,12.799177 43.308018,12.799177 L 28.589268,12.799177 L 28.589268,9.4554275 C 28.589268,8.9291805 28.146766,8.4866775 27.620518,8.4866775 L 5.4330181,8.4866775 z "
     id="path938"
     sodipodi:nodetypes="cccccccccccc" />
  <path
     transform="matrix(1.000000,0.000000,-0.359650,0.933087,0.000000,0.000000)"
     style="font-size:12.000000;fill:#7f7f7f;fill-opacity:1.0000000;fill-rule:evenodd;stroke:#333333;stroke-width:3.2351081;stroke-linejoin:round;"
     d="M 26.627555,23.397997 C 25.743761,23.397997 25.032259,24.109498 25.032259,24.993291 L 25.032259,55.253039 C 25.032259,56.136832 25.743761,56.848333 26.627555,56.848333 L 63.913396,56.848333 C 64.797190,56.848333 65.508692,56.136832 65.508692,55.253039 L 65.508692,24.993291 C 65.508692,24.109498 64.797190,23.397997 63.913396,23.397997 L 26.627555,23.397997 z "
     id="rect922" />
  <path
     id="path679"
     style="font-size:12.000000;fill:none;fill-opacity:0.75000000;fill-rule:evenodd;stroke:#cccccc;stroke-width:2.8469913;stroke-linecap:round;stroke-linejoin:round;stroke-miterlimit:4.0000000;stroke-opacity:1.0000000;"
     transform="matrix(0.878120,0.000000,0.372101,-0.878120,26.49410,23.50238)"
     d="M 14.439416,-11.472228 C 12.385009,-9.8593059 9.4337660,-10.879323 8.1171249,-12.925124 C 6.2023873,-15.900249 7.6491017,-19.824870 10.574707,-21.510075 C 14.454251,-23.744766 19.378910,-21.856941 21.422318,-18.047806 C 23.985347,-13.270041 21.650096,-7.3340144 16.955362,-4.9375358 C 11.282331,-2.0416744 4.3290413,-4.8276165 1.5824330,-10.409178 C -1.3752343,-16.419646 1.0735572,-23.770264 6.6579958,-27.273740" />
  <path
     id="path839"
     style="font-size:12.000000;font-weight:900;fill:#333333;stroke-width:1.0000000pt;font-family:VAG Rounded Black SSi;"
     transform="matrix(0.677862,0.000000,-0.287242,0.677862,19.93373,13.99360)"
     d="M 41.910114,50.988373 L 41.910114,43.552826 C 41.910114,43.271576 41.998005,43.037201 42.173786,42.849701 C 42.349567,42.662201 42.572224,42.568451 42.841755,42.568451 C 43.115192,42.568451 43.339802,42.662201 43.515583,42.849701 C 43.691364,43.037201 43.779255,43.271576 43.779255,43.552826 L 43.779255,45.796967 C 43.990192,45.621185 44.208942,45.488373 44.435505,45.398529 C 44.665974,45.308685 44.962849,45.263763 45.326130,45.263763 C 45.857380,45.263763 46.343708,45.416107 46.785114,45.720795 C 47.230427,46.021576 47.580036,46.435638 47.833942,46.962982 C 48.091755,47.486420 48.220661,48.056732 48.220661,48.673920 C 48.220661,49.154388 48.148396,49.597748 48.003864,50.003998 C 47.863239,50.410248 47.658161,50.773529 47.388630,51.093842 C 47.119099,51.414154 46.810505,51.662201 46.462849,51.837982 C 46.115192,52.009857 45.736286,52.095795 45.326130,52.095795 C 44.974567,52.095795 44.671833,52.039154 44.417927,51.925873 C 44.164021,51.816498 43.931599,51.632904 43.720661,51.375092 C 43.642536,51.543060 43.529255,51.685638 43.380817,51.802826 C 43.236286,51.916107 43.056599,51.972748 42.841755,51.972748 C 42.568317,51.972748 42.343708,51.878998 42.167927,51.691498 C 41.996052,51.500092 41.910114,51.265717 41.910114,50.988373 z M 45.062458,47.080170 C 44.664021,47.080170 44.349567,47.232513 44.119099,47.537201 C 43.892536,47.841888 43.779255,48.220795 43.779255,48.673920 C 43.779255,48.962982 43.830036,49.232513 43.931599,49.482513 C 44.033161,49.728607 44.179646,49.923920 44.371052,50.068451 C 44.566364,50.212982 44.796833,50.285248 45.062458,50.285248 C 45.464802,50.285248 45.779255,50.132904 46.005817,49.828217 C 46.232380,49.519623 46.345661,49.134857 46.345661,48.673920 C 46.345661,48.216888 46.232380,47.837982 46.005817,47.537201 C 45.779255,47.232513 45.464802,47.080170 45.062458,47.080170 z M 40.415974,49.300873 L 37.035114,49.300873 C 37.035114,49.554779 37.152302,49.795013 37.386677,50.021576 C 37.621052,50.244232 38.003864,50.355560 38.535114,50.355560 C 38.808552,50.355560 39.035114,50.320404 39.214802,50.250092 C 39.394489,50.179779 39.615192,50.080170 39.876911,49.951263 C 40.142536,49.818451 40.333942,49.752045 40.451130,49.752045 C 40.669880,49.752045 40.855427,49.828217 41.007771,49.980560 C 41.160114,50.132904 41.236286,50.330170 41.236286,50.572357 C 41.236286,50.861420 41.091755,51.125092 40.802692,51.363373 C 40.517536,51.597748 40.148396,51.777435 39.695271,51.902435 C 39.242146,52.031342 38.775349,52.095795 38.294880,52.095795 C 37.798786,52.095795 37.349567,52.009857 36.947224,51.837982 C 36.548786,51.666107 36.203083,51.423920 35.910114,51.111420 C 35.621052,50.795013 35.400349,50.427826 35.248005,50.009857 C 35.095661,49.587982 35.019489,49.142670 35.019489,48.673920 C 35.019489,48.232513 35.099567,47.802826 35.259724,47.384857 C 35.419880,46.966888 35.646442,46.599701 35.939411,46.283295 C 36.232380,45.966888 36.581989,45.718842 36.988239,45.539154 C 37.394489,45.355560 37.830036,45.263763 38.294880,45.263763 C 38.892536,45.263763 39.421833,45.414154 39.882771,45.714935 C 40.343708,46.015717 40.699177,46.410248 40.949177,46.898529 C 41.203083,47.386810 41.330036,47.910248 41.330036,48.468842 C 41.330036,48.789154 41.257771,49.007904 41.113239,49.125092 C 40.968708,49.242279 40.736286,49.300873 40.415974,49.300873 z M 37.035114,48.000092 L 39.455036,48.000092 C 39.455036,47.851654 39.402302,47.687592 39.296833,47.507904 C 39.191364,47.324310 39.046833,47.171967 38.863239,47.050873 C 38.683552,46.925873 38.478474,46.863373 38.248005,46.863373 C 38.017536,46.863373 37.808552,46.925873 37.621052,47.050873 C 37.437458,47.175873 37.292927,47.328217 37.187458,47.507904 C 37.085896,47.683685 37.035114,47.847748 37.035114,48.000092 z M 34.439411,43.552826 L 34.439411,50.988373 C 34.439411,51.269623 34.351521,51.503998 34.175739,51.691498 C 33.999958,51.878998 33.775349,51.972748 33.501911,51.972748 C 33.287067,51.972748 33.105427,51.914154 32.956989,51.796967 C 32.812458,51.679779 32.703083,51.539154 32.628864,51.375092 C 32.417927,51.632904 32.183552,51.816498 31.925739,51.925873 C 31.671833,52.039154 31.369099,52.095795 31.017536,52.095795 C 30.482380,52.095795 29.994099,51.945404 29.552692,51.644623 C 29.115192,51.339935 28.767536,50.925873 28.509724,50.402435 C 28.255817,49.875092 28.128864,49.298920 28.128864,48.673920 C 28.128864,48.056732 28.255817,47.486420 28.509724,46.962982 C 28.767536,46.435638 29.117146,46.021576 29.558552,45.720795 C 29.999958,45.416107 30.486286,45.263763 31.017536,45.263763 C 31.384724,45.263763 31.683552,45.310638 31.914021,45.404388 C 32.148396,45.498138 32.365192,45.628998 32.564411,45.796967 L 32.564411,43.552826 C 32.564411,43.275482 32.652302,43.043060 32.828083,42.855560 C 33.007771,42.664154 33.232380,42.568451 33.501911,42.568451 C 33.771442,42.568451 33.994099,42.662201 34.169880,42.849701 C 34.349567,43.037201 34.439411,43.271576 34.439411,43.552826 z M 31.281208,47.080170 C 30.882771,47.080170 30.568317,47.232513 30.337849,47.537201 C 30.111286,47.841888 29.998005,48.220795 29.998005,48.673920 C 29.998005,48.962982 30.048786,49.232513 30.150349,49.482513 C 30.251911,49.728607 30.398396,49.923920 30.589802,50.068451 C 30.785114,50.212982 31.015583,50.285248 31.281208,50.285248 C 31.683552,50.285248 31.998005,50.132904 32.224567,49.828217 C 32.451130,49.519623 32.564411,49.134857 32.564411,48.673920 C 32.564411,48.216888 32.451130,47.837982 32.224567,47.537201 C 31.998005,47.232513 31.683552,47.080170 31.281208,47.080170 z " />
  <metadata
     id="metadata16">
    <rdf:RDF
       id="RDF17">
      <cc:Work
         rdf:about=""
         id="Work18">
        <dc:format
           id="format19">image/svg+xml</dc:format>
        <dc:type
           id="type21"
           rdf:resource="http://purl.org/dc/dcmitype/StillImage" />
      </cc:Work>
    </rdf:RDF>
  </metadata>
</svg>
