<?xml version="1.0" encoding="UTF-8" standalone="no"?>
<!DOCTYPE svg PUBLIC "-//W3C//DTD SVG 20010904//EN"
"http://www.w3.org/TR/2001/REC-SVG-20010904/DTD/svg10.dtd">
<svg
   sodipodi:docname="folder_print.svg"
   height="60.0000000"
   sodipodi:version="0.32"
   width="60.0000000"
   _SVGFile__filename="scalable/filesystems/folder_print.svg"
   version="1.0"
   y="0"
   x="0"
   inkscape:version="0.39"
   id="svg1"
   sodipodi:docbase="/home/danny/work/flat/newscale/filesystems"
   xmlns="http://www.w3.org/2000/svg"
   xmlns:cc="http://web.resource.org/cc/"
   xmlns:inkscape="http://www.inkscape.org/namespaces/inkscape"
   xmlns:sodipodi="http://sodipodi.sourceforge.net/DTD/sodipodi-0.dtd"
   xmlns:rdf="http://www.w3.org/1999/02/22-rdf-syntax-ns#"
   xmlns:dc="http://purl.org/dc/elements/1.1/"
   xmlns:xlink="http://www.w3.org/1999/xlink">
  <sodipodi:namedview
     bordercolor="#666666"
     inkscape:pageshadow="2"
     inkscape:window-y="0"
     pagecolor="#ffffff"
     inkscape:window-height="685"
     inkscape:zoom="6.9465337"
     inkscape:window-x="0"
     borderopacity="1.0"
     inkscape:cx="31.916850"
     inkscape:cy="16.989363"
     inkscape:window-width="1016"
     inkscape:pageopacity="0.0"
     id="base" />
  <defs
     id="defs3">
    <linearGradient
       id="linearGradient900">
      <stop
         style="stop-color:#000;stop-opacity:1;"
         id="stop901"
         offset="0" />
      <stop
         style="stop-color:#fff;stop-opacity:1;"
         id="stop902"
         offset="1" />
    </linearGradient>
    <linearGradient
       xlink:href="#linearGradient900"
       id="linearGradient903" />
    <linearGradient
       xlink:href="#linearGradient900"
       id="linearGradient904" />
    <linearGradient
       xlink:href="#linearGradient900"
       id="linearGradient905" />
    <linearGradient
       xlink:href="#linearGradient900"
       id="linearGradient906" />
    <linearGradient
       xlink:href="#linearGradient900"
       id="linearGradient907" />
  </defs>
  <path
     style="font-size:12;fill:#b3b3b3;fill-rule:evenodd;stroke:#333333;stroke-width:3.125;stroke-dasharray:none;stroke-linejoin:round;"
     d="M 5.4330181,8.4866775 C 4.9067701,8.4866775 4.4642681,8.9291795 4.4642681,9.4554275 L 4.4330181,51.392927 C 4.4330181,52.276723 5.1429741,52.986677 6.0267681,52.986677 L 43.308018,52.986677 C 44.191811,52.986676 44.901768,52.276721 44.901768,51.392927 L 44.901768,14.392927 C 44.901768,13.509133 44.191812,12.799177 43.308018,12.799177 L 28.589268,12.799177 L 28.589268,9.4554275 C 28.589268,8.9291805 28.146766,8.4866775 27.620518,8.4866775 L 5.4330181,8.4866775 z "
     id="path938"
     sodipodi:nodetypes="cccccccccccc" />
  <path
     transform="matrix(1.000000,0.000000,-0.359650,0.933087,0.000000,0.000000)"
     style="font-size:12.000000;fill:#7f7f7f;fill-rule:evenodd;stroke:#333333;stroke-width:3.2351081;stroke-linejoin:round;"
     d="M 26.627555,23.397997 C 25.743761,23.397997 25.032259,24.109499 25.032259,24.993293 L 25.032259,55.253037 C 25.032259,56.136831 25.743761,56.848333 26.627555,56.848333 L 63.913396,56.848333 C 64.797190,56.848333 65.508692,56.136831 65.508692,55.253037 L 65.508692,24.993293 C 65.508692,24.109499 64.797190,23.397997 63.913396,23.397997 L 26.627555,23.397997 z "
     id="rect922" />
  <g
     id="g1573"
     transform="translate(0.000000,3.891247e-6)">
    <path
       transform="matrix(0.484744,0.000000,-0.350086,0.455994,22.46832,22.82917)"
       style="font-size:12.000000;fill:#cccccc;fill-rule:evenodd;stroke:#333333;stroke-width:3.9880948;stroke-linecap:round;stroke-linejoin:round;"
       d="M 28.693874,7.3616300 C 27.585874,7.3616300 26.693874,8.2536300 26.693874,9.3616300 L 26.693874,28.699166 C 26.693874,29.807166 27.585874,30.699166 28.693874,30.699166 L 50.246187,30.699166 C 51.354187,30.699166 52.246187,29.807166 52.246187,28.699166 L 52.246187,9.3616300 C 52.246187,8.2536300 51.354187,7.3616300 50.246187,7.3616300 L 28.693874,7.3616300 z "
       id="rect765" />
    <path
       transform="matrix(0.484744,0.000000,-0.197332,0.484744,22.46832,22.82917)"
       style="font-size:12.000000;fill:#7f7f7f;fill-rule:evenodd;stroke:#333333;stroke-width:3.8680210;stroke-linecap:round;stroke-linejoin:round;"
       d="M 6.4022794,27.078951 C 5.2942794,27.078951 4.4022794,27.970951 4.4022794,29.078951 L 4.4022794,51.351048 C 4.4022794,52.459048 5.2942794,53.351048 6.4022794,53.351048 L 53.147011,53.351048 C 54.255011,53.351048 55.147011,52.459048 55.147011,51.351048 L 55.147011,29.078951 C 55.147011,27.970951 54.255011,27.078951 53.147011,27.078951 L 6.4022794,27.078951 z "
       id="rect764" />
    <path
       transform="matrix(0.484744,0.000000,-0.197332,0.484744,22.46832,22.82917)"
       style="font-size:12.000000;fill:#b3b3b3;fill-rule:evenodd;stroke:#333333;stroke-width:3.8680210;stroke-linecap:round;stroke-linejoin:round;"
       d="M 10.287788,44.968124 L 10.287788,53.245634 L 49.515987,53.245634 L 49.515987,44.968124 L 10.287788,44.968124 z "
       id="rect766" />
  </g>
  <metadata
     id="metadata18">
    <rdf:RDF
       id="RDF19">
      <cc:Work
         rdf:about=""
         id="Work20">
        <dc:title
           id="title21">Part of the Flat Icon Collection (Thu Aug 26 14:40:13 2004)</dc:title>
        <dc:description
           id="description23" />
        <dc:subject
           id="subject24">
          <rdf:Bag
             id="Bag25">
            <rdf:li
               id="li26" />
          </rdf:Bag>
        </dc:subject>
        <dc:publisher
           id="publisher27">
          <cc:Agent
             rdf:about=""
             id="Agent28">
            <dc:title
               id="title29" />
          </cc:Agent>
        </dc:publisher>
        <dc:creator
           id="creator30">
          <cc:Agent
             rdf:about=""
             id="Agent31">
            <dc:title
               id="title32">Danny Allen</dc:title>
          </cc:Agent>
        </dc:creator>
        <dc:rights
           id="rights34">
          <cc:Agent
             rdf:about=""
             id="Agent35">
            <dc:title
               id="title36">Danny Allen</dc:title>
          </cc:Agent>
        </dc:rights>
        <dc:date
           id="date38" />
        <dc:format
           id="format39">image/svg+xml</dc:format>
        <dc:type
           rdf:resource="http://purl.org/dc/dcmitype/StillImage"
           id="type41" />
        <cc:license
           rdf:resource="http://creativecommons.org/licenses/LGPL/2.1/"
           id="license42">
          <dc:date
             id="date43" />
        </cc:license>
        <dc:language
           id="language44">en</dc:language>
      </cc:Work>
    </rdf:RDF>
  </metadata>
</svg>
