<?xml version="1.0" encoding="UTF-8" standalone="no"?>
<!DOCTYPE svg PUBLIC "-//W3C//DTD SVG 20010904//EN"
"http://www.w3.org/TR/2001/REC-SVG-20010904/DTD/svg10.dtd">
<svg
   sodipodi:docname="folder_apollon.svg"
   height="60.0000000"
   sodipodi:version="0.32"
   width="60.0000000"
   _SVGFile__filename="scalable/filesystems/folder_apollon.svg"
   version="1.0"
   y="0"
   x="0"
   inkscape:version="0.39"
   id="svg1"
   sodipodi:docbase="/home/danny/work/flat/newscale/filesystems"
   xmlns="http://www.w3.org/2000/svg"
   xmlns:cc="http://web.resource.org/cc/"
   xmlns:inkscape="http://www.inkscape.org/namespaces/inkscape"
   xmlns:sodipodi="http://sodipodi.sourceforge.net/DTD/sodipodi-0.dtd"
   xmlns:rdf="http://www.w3.org/1999/02/22-rdf-syntax-ns#"
   xmlns:dc="http://purl.org/dc/elements/1.1/"
   xmlns:xlink="http://www.w3.org/1999/xlink">
  <sodipodi:namedview
     bordercolor="#666666"
     inkscape:pageshadow="2"
     inkscape:window-y="0"
     pagecolor="#ffffff"
     inkscape:window-height="685"
     inkscape:zoom="9.8238822"
     inkscape:window-x="0"
     borderopacity="1.0"
     inkscape:cx="22.559267"
     inkscape:cy="20.987181"
     inkscape:window-width="1016"
     inkscape:pageopacity="0.0"
     id="base" />
  <defs
     id="defs3">
    <linearGradient
       id="linearGradient900">
      <stop
         style="stop-color:#000;stop-opacity:1;"
         id="stop901"
         offset="0" />
      <stop
         style="stop-color:#fff;stop-opacity:1;"
         id="stop902"
         offset="1" />
    </linearGradient>
    <linearGradient
       xlink:href="#linearGradient900"
       id="linearGradient903" />
    <linearGradient
       xlink:href="#linearGradient900"
       id="linearGradient904" />
    <linearGradient
       xlink:href="#linearGradient900"
       id="linearGradient905" />
    <linearGradient
       xlink:href="#linearGradient900"
       id="linearGradient906" />
    <linearGradient
       xlink:href="#linearGradient900"
       id="linearGradient907" />
  </defs>
  <path
     style="font-size:12;fill:#b3b3b3;fill-rule:evenodd;stroke:#333333;stroke-width:3.125;stroke-dasharray:none;stroke-linecap:round;stroke-linejoin:round;"
     d="M 5.4330181,8.4866775 C 4.9067701,8.4866775 4.4642681,8.9291795 4.4642681,9.4554275 L 4.4330181,51.392927 C 4.4330181,52.276723 5.1429741,52.986677 6.0267681,52.986677 L 43.308018,52.986677 C 44.191811,52.986676 44.901768,52.276721 44.901768,51.392927 L 44.901768,14.392927 C 44.901768,13.509133 44.191812,12.799177 43.308018,12.799177 L 28.589268,12.799177 L 28.589268,9.4554275 C 28.589268,8.9291805 28.146766,8.4866775 27.620518,8.4866775 L 5.4330181,8.4866775 z "
     id="path938"
     sodipodi:nodetypes="cccccccccccc" />
  <path
     transform="matrix(1.000000,0.000000,-0.359650,0.933087,0.000000,0.000000)"
     style="font-size:12.000000;fill:#7f7f7f;fill-rule:evenodd;stroke:#333333;stroke-width:3.2351100;stroke-linejoin:round;"
     d="M 26.627555,23.398020 C 25.743761,23.398020 25.032259,24.109522 25.032259,24.993316 L 25.032259,55.253091 C 25.032259,56.136885 25.743761,56.848387 26.627555,56.848387 L 63.913396,56.848387 C 64.797190,56.848387 65.508692,56.136885 65.508692,55.253091 L 65.508692,24.993316 C 65.508692,24.109522 64.797190,23.398020 63.913396,23.398020 L 26.627555,23.398020 z "
     id="rect922" />
  <path
     sodipodi:nodetypes="cc"
     style="fill:none;fill-opacity:0.75000000;fill-rule:evenodd;stroke:#333333;stroke-width:1.9380462;stroke-linecap:round;stroke-linejoin:round;stroke-dasharray:1.9380461 1.9380461 ;stroke-dashoffset:0.0000000;"
     d="M 7.7232670,49.803362 C 11.413278,49.868978 18.085613,45.428979 22.059720,42.843397"
     sodipodi:stroke-cmyk="(0 0 0 0.8)"
     id="path818" />
  <path
     style="fill:none;fill-opacity:0.75000000;fill-rule:evenodd;stroke:#333333;stroke-width:1.2500000;stroke-linecap:round;stroke-dasharray:none;"
     d="M 31.988866,34.014731 L 24.810132,38.470596 M 32.921464,37.770796 L 25.849877,42.160154"
     sodipodi:stroke-cmyk="(0 0 0 0.8)"
     id="path822" />
  <path
     style="font-size:12.000000;fill:#b3b3b3;fill-rule:evenodd;stroke:#333333;stroke-width:1.9380462;stroke-linecap:round;stroke-linejoin:round;"
     d="M 26.032534,36.608267 C 25.813147,35.829773 25.204465,35.472049 24.663089,35.808083 L 19.794894,38.829787 L 19.479119,39.025790 C 19.429314,39.056706 19.411576,39.135532 19.366699,39.175418 C 17.010766,40.877695 15.586895,43.755364 16.187455,45.886467 C 16.788014,48.017567 19.174737,48.556605 21.645769,47.262768 C 21.696420,47.243359 21.746688,47.279977 21.796495,47.249060 L 22.112270,47.053058 L 26.980464,44.031354 C 27.521840,43.695320 27.777683,42.800980 27.558299,42.022486 L 26.032534,36.608267 z "
     sodipodi:stroke-cmyk="(0 0 0 0.8)"
     id="path821" />
  <path
     sodipodi:nodetypes="cc"
     style="fill:none;fill-opacity:0.75000000;fill-rule:evenodd;stroke:#333333;stroke-width:1.9380462;stroke-linecap:round;stroke-linejoin:round;stroke-dasharray:1.9380461 1.9380461 ;stroke-dashoffset:0.0000000;"
     d="M 53.865637,26.206748 C 50.175625,26.141132 43.503291,30.581132 39.529185,33.166714"
     sodipodi:stroke-cmyk="(0 0 0 0.8)"
     id="path883" />
  <path
     style="fill:none;fill-opacity:0.75000000;fill-rule:evenodd;stroke:#333333;stroke-width:1.2500000;stroke-linecap:round;stroke-dasharray:none;"
     d="M 29.600039,41.995378 L 36.778773,37.539514 M 28.667440,38.239314 L 35.739028,33.849956"
     sodipodi:stroke-cmyk="(0 0 0 0.8)"
     id="path884" />
  <path
     style="font-size:12.000000;fill:#4c4c4c;fill-rule:evenodd;stroke:#333333;stroke-width:1.9380462;stroke-linecap:round;stroke-linejoin:round;fill-opacity:1.0000000;"
     d="M 35.556372,39.401843 C 35.775755,40.180337 36.384439,40.538061 36.925816,40.202026 L 41.794010,37.180322 L 42.109785,36.984320 C 42.159590,36.953405 42.177328,36.874578 42.222206,36.834691 C 44.578139,35.132415 46.002010,32.254747 45.401450,30.123644 C 44.800892,27.992543 42.414168,27.453505 39.943135,28.747342 C 39.892486,28.766749 39.842216,28.730134 39.792409,28.761050 L 39.476635,28.957051 L 34.608440,31.978757 C 34.067065,32.314790 33.811222,33.209129 34.030606,33.987623 L 35.556372,39.401843 z "
     sodipodi:stroke-cmyk="(0 0 0 0.8)"
     id="path885" />
  <metadata
     id="metadata20">
    <rdf:RDF
       id="RDF21">
      <cc:Work
         rdf:about=""
         id="Work22">
        <dc:title
           id="title23">Part of the Flat Icon Collection (Thu Aug 26 14:40:13 2004)</dc:title>
        <dc:description
           id="description25" />
        <dc:subject
           id="subject26">
          <rdf:Bag
             id="Bag27">
            <rdf:li
               id="li28" />
          </rdf:Bag>
        </dc:subject>
        <dc:publisher
           id="publisher29">
          <cc:Agent
             rdf:about=""
             id="Agent30">
            <dc:title
               id="title31" />
          </cc:Agent>
        </dc:publisher>
        <dc:creator
           id="creator32">
          <cc:Agent
             rdf:about=""
             id="Agent33">
            <dc:title
               id="title34">Danny Allen</dc:title>
          </cc:Agent>
        </dc:creator>
        <dc:rights
           id="rights36">
          <cc:Agent
             rdf:about=""
             id="Agent37">
            <dc:title
               id="title38">Danny Allen</dc:title>
          </cc:Agent>
        </dc:rights>
        <dc:date
           id="date40" />
        <dc:format
           id="format41">image/svg+xml</dc:format>
        <dc:type
           rdf:resource="http://purl.org/dc/dcmitype/StillImage"
           id="type43" />
        <cc:license
           rdf:resource="http://creativecommons.org/licenses/LGPL/2.1/"
           id="license44">
          <dc:date
             id="date45" />
        </cc:license>
        <dc:language
           id="language46">en</dc:language>
      </cc:Work>
    </rdf:RDF>
  </metadata>
</svg>
