<?xml version="1.0" encoding="UTF-8" standalone="no"?>
<!DOCTYPE svg PUBLIC "-//W3C//DTD SVG 20010904//EN"
"http://www.w3.org/TR/2001/REC-SVG-20010904/DTD/svg10.dtd">
<svg
   sodipodi:docname="folder_games.svg"
   height="60.0000000"
   sodipodi:version="0.32"
   width="60.0000000"
   _SVGFile__filename="scalable/filesystems/folder_games.svg"
   version="1.0"
   y="0"
   x="0"
   inkscape:version="0.39"
   id="svg1"
   sodipodi:docbase="/home/danny/work/flat/newscale/filesystems"
   xmlns="http://www.w3.org/2000/svg"
   xmlns:cc="http://web.resource.org/cc/"
   xmlns:inkscape="http://www.inkscape.org/namespaces/inkscape"
   xmlns:sodipodi="http://sodipodi.sourceforge.net/DTD/sodipodi-0.dtd"
   xmlns:rdf="http://www.w3.org/1999/02/22-rdf-syntax-ns#"
   xmlns:dc="http://purl.org/dc/elements/1.1/"
   xmlns:xlink="http://www.w3.org/1999/xlink">
  <sodipodi:namedview
     bordercolor="#666666"
     inkscape:pageshadow="2"
     inkscape:window-y="0"
     pagecolor="#ffffff"
     inkscape:window-height="685"
     inkscape:zoom="9.8238822"
     inkscape:window-x="0"
     borderopacity="1.0"
     inkscape:cx="36.124326"
     inkscape:cy="25.070597"
     inkscape:window-width="1016"
     inkscape:pageopacity="0.0"
     id="base" />
  <defs
     id="defs3">
    <linearGradient
       id="linearGradient900">
      <stop
         style="stop-color:#000;stop-opacity:1;"
         id="stop901"
         offset="0" />
      <stop
         style="stop-color:#fff;stop-opacity:1;"
         id="stop902"
         offset="1" />
    </linearGradient>
    <linearGradient
       xlink:href="#linearGradient900"
       id="linearGradient903" />
    <linearGradient
       xlink:href="#linearGradient900"
       id="linearGradient904" />
    <linearGradient
       xlink:href="#linearGradient900"
       id="linearGradient905" />
    <linearGradient
       xlink:href="#linearGradient900"
       id="linearGradient906" />
    <linearGradient
       xlink:href="#linearGradient900"
       id="linearGradient907" />
  </defs>
  <path
     style="font-size:12;fill:#b3b3b3;fill-rule:evenodd;stroke:#333333;stroke-width:3.125;stroke-dasharray:none;stroke-linejoin:round;"
     d="M 5.4330181,8.4866775 C 4.9067701,8.4866775 4.4642681,8.9291795 4.4642681,9.4554275 L 4.4330181,51.392927 C 4.4330181,52.276723 5.1429741,52.986677 6.0267681,52.986677 L 43.308018,52.986677 C 44.191811,52.986676 44.901768,52.276721 44.901768,51.392927 L 44.901768,14.392927 C 44.901768,13.509133 44.191812,12.799177 43.308018,12.799177 L 28.589268,12.799177 L 28.589268,9.4554275 C 28.589268,8.9291805 28.146766,8.4866775 27.620518,8.4866775 L 5.4330181,8.4866775 z "
     id="path938"
     sodipodi:nodetypes="cccccccccccc" />
  <path
     transform="matrix(1.000000,0.000000,-0.359650,0.933087,0.000000,0.000000)"
     style="font-size:12.000000;fill:#7f7f7f;fill-rule:evenodd;stroke:#333333;stroke-width:3.2351100;stroke-linejoin:round;"
     d="M 26.627555,23.398020 C 25.743761,23.398020 25.032259,24.109522 25.032259,24.993316 L 25.032259,55.253091 C 25.032259,56.136885 25.743761,56.848387 26.627555,56.848387 L 63.913396,56.848387 C 64.797190,56.848387 65.508692,56.136885 65.508692,55.253091 L 65.508692,24.993316 C 65.508692,24.109522 64.797190,23.398020 63.913396,23.398020 L 26.627555,23.398020 z "
     id="rect922" />
  <path
     style="fill:none;fill-opacity:0.75000000;fill-rule:evenodd;stroke:#333333;stroke-width:3.8866122;stroke-linecap:round;stroke-linejoin:round;stroke-miterlimit:4.0000000;stroke-dasharray:3.8866121 3.8866121;stroke-dashoffset:0.0000000;stroke-opacity:1.0000000;"
     d="M -45.043292,19.028418 C -41.989510,4.7774324 -38.993527,1.6250146 -38.993527,1.6250146"
     sodipodi:nodetypes="cc"
     transform="matrix(0.331687,0.227470,-0.402797,0.425431,57.10401,35.39052)"
     sodipodi:stroke-cmyk="(0 0 0 0.8)"
     id="path1059" />
  <rect
     style="font-size:12.000000;fill:#b3b3b3;fill-opacity:1.0000000;fill-rule:evenodd;stroke:#333333;stroke-width:2.5910747;stroke-linecap:round;stroke-linejoin:round;stroke-miterlimit:4.0000000;stroke-opacity:1.0000000;"
     transform="matrix(0.331687,0.227470,-0.402797,0.425431,57.10401,35.39052)"
     height="17.634695"
     width="33.829823"
     sodipodi:stroke-cmyk="(0 0 0 0.8)"
     y="18.612452"
     x="-61.901375"
     id="rect1049" />
  <path
     transform="matrix(0.331687,0.227470,-0.402797,0.425431,70.03191,44.25650)"
     style="font-size:12.000000;fill:#7f7f7f;fill-opacity:1.0000000;fill-rule:evenodd;stroke:#333333;stroke-width:2.5910747;stroke-linecap:round;stroke-linejoin:round;stroke-miterlimit:4.0000000;stroke-opacity:1.0000000;"
     d="M -51.824407,29.229258 C -51.824407,35.884375 -57.225662,41.285630 -63.880779,41.285630 C -70.535897,41.285630 -75.937152,35.884375 -75.937152,29.229258 C -75.937152,22.574140 -70.535897,17.172885 -63.880779,17.172885 C -57.225662,17.172885 -51.824407,22.574140 -51.824407,29.229258 z "
     id="path1048" />
  <path
     transform="matrix(0.331687,0.227470,-0.402797,0.425431,57.10401,35.39052)"
     style="font-size:12.000000;fill:#7f7f7f;fill-opacity:1.0000000;fill-rule:evenodd;stroke:#333333;stroke-width:2.5910747;stroke-linecap:round;stroke-linejoin:round;stroke-miterlimit:4.0000000;stroke-opacity:1.0000000;"
     d="M -51.824407,29.229258 C -51.824407,35.884375 -57.225662,41.285630 -63.880779,41.285630 C -70.535897,41.285630 -75.937152,35.884375 -75.937152,29.229258 C -75.937152,22.574140 -70.535897,17.172885 -63.880779,17.172885 C -57.225662,17.172885 -51.824407,22.574140 -51.824407,29.229258 z "
     id="path1047" />
  <path
     transform="matrix(0.273154,0.187329,-0.331716,0.350355,52.60409,50.12456)"
     style="font-size:12.000000;fill:#4c4c4c;fill-opacity:1.0000000;fill-rule:evenodd;stroke:#4c4c4c;stroke-width:1.5731504;stroke-linecap:round;stroke-linejoin:round;stroke-miterlimit:4.0000000;stroke-opacity:1.0000000;"
     d="M -55.063433,4.2167830 C -55.063433,5.9053950 -56.433901,7.2758627 -58.122513,7.2758627 C -59.811125,7.2758627 -61.181592,5.9053950 -61.181592,4.2167830 C -61.181592,2.5281711 -59.811125,1.1577034 -58.122513,1.1577034 C -56.433901,1.1577034 -55.063433,2.5281711 -55.063433,4.2167830 z "
     id="path1052" />
  <path
     transform="matrix(0.273154,0.187329,-0.331716,0.350355,56.48365,52.78517)"
     style="font-size:12.000000;fill:#4c4c4c;fill-opacity:1.0000000;fill-rule:evenodd;stroke:#4c4c4c;stroke-width:1.5731504;stroke-linecap:round;stroke-linejoin:round;stroke-miterlimit:4.0000000;stroke-opacity:1.0000000;"
     d="M -55.063433,4.2167830 C -55.063433,5.9053950 -56.433901,7.2758627 -58.122513,7.2758627 C -59.811125,7.2758627 -61.181592,5.9053950 -61.181592,4.2167830 C -61.181592,2.5281711 -59.811125,1.1577034 -58.122513,1.1577034 C -56.433901,1.1577034 -55.063433,2.5281711 -55.063433,4.2167830 z "
     id="path1053" />
  <path
     transform="matrix(0.273154,0.187329,-0.331716,0.350355,51.96437,54.23130)"
     style="font-size:12.000000;fill:#4c4c4c;fill-opacity:1.0000000;fill-rule:evenodd;stroke:#4c4c4c;stroke-width:1.5731504;stroke-linecap:round;stroke-linejoin:round;stroke-miterlimit:4.0000000;stroke-opacity:1.0000000;"
     d="M -55.063433,4.2167830 C -55.063433,5.9053950 -56.433901,7.2758627 -58.122513,7.2758627 C -59.811125,7.2758627 -61.181592,5.9053950 -61.181592,4.2167830 C -61.181592,2.5281711 -59.811125,1.1577034 -58.122513,1.1577034 C -56.433901,1.1577034 -55.063433,2.5281711 -55.063433,4.2167830 z "
     id="path1054" />
  <path
     transform="matrix(0.273154,0.187329,-0.331716,0.350355,56.96562,48.94903)"
     style="font-size:12.000000;fill:#4c4c4c;fill-opacity:1.0000000;fill-rule:evenodd;stroke:#4c4c4c;stroke-width:1.5731504;stroke-linecap:round;stroke-linejoin:round;stroke-miterlimit:4.0000000;stroke-opacity:1.0000000;"
     d="M -55.063433,4.2167830 C -55.063433,5.9053950 -56.433901,7.2758627 -58.122513,7.2758627 C -59.811125,7.2758627 -61.181592,5.9053950 -61.181592,4.2167830 C -61.181592,2.5281711 -59.811125,1.1577034 -58.122513,1.1577034 C -56.433901,1.1577034 -55.063433,2.5281711 -55.063433,4.2167830 z "
     id="path1055" />
  <path
     style="font-size:12.000000;fill:#4c4c4c;fill-opacity:1.0000000;fill-rule:evenodd;stroke:#4c4c4c;stroke-width:1.2143800;stroke-opacity:1.0000000;"
     transform="matrix(0.331687,0.227470,-0.402797,0.425431,43.12719,50.44678)"
     d="M -65.562500,-14.000000 C -66.116501,-14.000000 -66.562500,-13.554000 -66.562500,-13.000000 L -66.562500,-8.5312500 L -71.031250,-8.5312500 C -71.585250,-8.5312500 -72.031250,-8.0852500 -72.031250,-7.5312500 L -72.031250,-4.6875000 C -72.031250,-4.1335000 -71.585250,-3.6875000 -71.031250,-3.6875000 L -66.562500,-3.6875000 L -66.562500,0.78125000 C -66.562501,1.3352500 -66.116500,1.7812500 -65.562500,1.7812500 L -62.718750,1.7812500 C -62.164749,1.7812500 -61.718750,1.3352500 -61.718750,0.78125000 L -61.718750,-3.6875000 L -57.250000,-3.6875000 C -56.695998,-3.6875000 -56.250000,-4.1335000 -56.250000,-4.6875000 L -56.250000,-7.5312500 C -56.249998,-8.0852500 -56.696000,-8.5312500 -57.250000,-8.5312500 L -61.718750,-8.5312500 L -61.718750,-13.000000 C -61.718749,-13.554000 -62.164750,-14.000000 -62.718750,-14.000000 L -65.562500,-14.000000 z "
     sodipodi:stroke-cmyk="(0.0000000 0.0000000 0.0000000 0.70196080)"
     id="path1058" />
  <metadata
     id="metadata23">
    <rdf:RDF
       id="RDF24">
      <cc:Work
         rdf:about=""
         id="Work25">
        <dc:title
           id="title26">Part of the Flat Icon Collection (Thu Aug 26 14:40:13 2004)</dc:title>
        <dc:description
           id="description28" />
        <dc:subject
           id="subject29">
          <rdf:Bag
             id="Bag30">
            <rdf:li
               id="li31" />
          </rdf:Bag>
        </dc:subject>
        <dc:publisher
           id="publisher32">
          <cc:Agent
             rdf:about=""
             id="Agent33">
            <dc:title
               id="title34" />
          </cc:Agent>
        </dc:publisher>
        <dc:creator
           id="creator35">
          <cc:Agent
             rdf:about=""
             id="Agent36">
            <dc:title
               id="title37">Danny Allen</dc:title>
          </cc:Agent>
        </dc:creator>
        <dc:rights
           id="rights39">
          <cc:Agent
             rdf:about=""
             id="Agent40">
            <dc:title
               id="title41">Danny Allen</dc:title>
          </cc:Agent>
        </dc:rights>
        <dc:date
           id="date43" />
        <dc:format
           id="format44">image/svg+xml</dc:format>
        <dc:type
           rdf:resource="http://purl.org/dc/dcmitype/StillImage"
           id="type46" />
        <cc:license
           rdf:resource="http://creativecommons.org/licenses/LGPL/2.1/"
           id="license47">
          <dc:date
             id="date48" />
        </cc:license>
        <dc:language
           id="language49">en</dc:language>
      </cc:Work>
    </rdf:RDF>
  </metadata>
</svg>
