<?xml version="1.0" encoding="UTF-8" standalone="no"?>
<!DOCTYPE svg PUBLIC "-//W3C//DTD SVG 20010904//EN"
"http://www.w3.org/TR/2001/REC-SVG-20010904/DTD/svg10.dtd">
<svg
   sodipodi:docname="folder_important.svg"
   height="60.0000000"
   sodipodi:version="0.32"
   width="60.0000000"
   _SVGFile__filename="scalable/filesystems/folder_important.svg"
   version="1.0"
   y="0"
   x="0"
   inkscape:version="0.39"
   id="svg1"
   sodipodi:docbase="/home/danny/work/flat/newscale/filesystems"
   xmlns="http://www.w3.org/2000/svg"
   xmlns:cc="http://web.resource.org/cc/"
   xmlns:inkscape="http://www.inkscape.org/namespaces/inkscape"
   xmlns:sodipodi="http://sodipodi.sourceforge.net/DTD/sodipodi-0.dtd"
   xmlns:rdf="http://www.w3.org/1999/02/22-rdf-syntax-ns#"
   xmlns:dc="http://purl.org/dc/elements/1.1/"
   xmlns:xlink="http://www.w3.org/1999/xlink">
  <sodipodi:namedview
     bordercolor="#666666"
     inkscape:pageshadow="2"
     inkscape:window-y="0"
     pagecolor="#ffffff"
     inkscape:window-height="685"
     inkscape:zoom="4.9119412"
     inkscape:window-x="0"
     borderopacity="1.0"
     inkscape:cx="41.798797"
     inkscape:cy="9.9247869"
     inkscape:window-width="1016"
     inkscape:pageopacity="0.0"
     id="base" />
  <defs
     id="defs3">
    <linearGradient
       id="linearGradient900">
      <stop
         style="stop-color:#000;stop-opacity:1;"
         id="stop901"
         offset="0" />
      <stop
         style="stop-color:#fff;stop-opacity:1;"
         id="stop902"
         offset="1" />
    </linearGradient>
    <linearGradient
       xlink:href="#linearGradient900"
       id="linearGradient903" />
    <linearGradient
       xlink:href="#linearGradient900"
       id="linearGradient904" />
    <linearGradient
       xlink:href="#linearGradient900"
       id="linearGradient905" />
    <linearGradient
       xlink:href="#linearGradient900"
       id="linearGradient906" />
    <linearGradient
       xlink:href="#linearGradient900"
       id="linearGradient907" />
  </defs>
  <path
     style="font-size:12;fill:#b3b3b3;fill-rule:evenodd;stroke:#333333;stroke-width:3.125;stroke-dasharray:none;stroke-linejoin:round;"
     d="M 5.4330181,8.4866775 C 4.9067701,8.4866775 4.4642681,8.9291795 4.4642681,9.4554275 L 4.4330181,51.392927 C 4.4330181,52.276723 5.1429741,52.986677 6.0267681,52.986677 L 43.308018,52.986677 C 44.191811,52.986676 44.901768,52.276721 44.901768,51.392927 L 44.901768,14.392927 C 44.901768,13.509133 44.191812,12.799177 43.308018,12.799177 L 28.589268,12.799177 L 28.589268,9.4554275 C 28.589268,8.9291805 28.146766,8.4866775 27.620518,8.4866775 L 5.4330181,8.4866775 z "
     id="path938"
     sodipodi:nodetypes="cccccccccccc" />
  <path
     transform="matrix(1.000000,0.000000,-0.359650,0.933087,0.000000,0.000000)"
     style="font-size:12.000000;fill:#7f7f7f;fill-rule:evenodd;stroke:#333333;stroke-width:3.2351100;stroke-linejoin:round;"
     d="M 26.627555,23.398020 C 25.743761,23.398020 25.032259,24.109522 25.032259,24.993316 L 25.032259,55.253091 C 25.032259,56.136885 25.743761,56.848387 26.627555,56.848387 L 63.913396,56.848387 C 64.797190,56.848387 65.508692,56.136885 65.508692,55.253091 L 65.508692,24.993316 C 65.508692,24.109522 64.797190,23.398020 63.913396,23.398020 L 26.627555,23.398020 z "
     id="rect922" />
  <path
     sodipodi:nodetypes="ccccccccc"
     style="fill:#ffffff;fill-rule:evenodd;stroke-width:1.0000000pt;"
     d="M 39.745587,28.953211 C 39.578891,28.953211 39.444691,29.087410 39.444691,29.254107 L 39.174772,55.627393 C 39.174772,55.794090 39.308972,55.928289 39.475668,55.928289 L 45.296345,55.928289 C 45.463042,55.928289 45.552256,55.794090 45.552256,55.627393 L 45.552256,29.254107 C 45.552256,29.087410 45.418056,28.953211 45.251359,28.953211 L 39.745587,28.953211 z "
     id="path854" />
  <path
     style="fill:#b3b3b3;fill-rule:evenodd;stroke:#4c4c4c;stroke-width:1.8750000;stroke-linecap:round;stroke-linejoin:round;stroke-miterlimit:4.0000000;stroke-dasharray:none;"
     d="M 39.432545,34.077230 L 27.343451,55.017582 L 39.203785,55.017582 C 39.189280,54.888582 39.098204,54.781277 39.098204,54.648047 C 39.098204,54.060897 39.244552,53.513056 39.538127,53.011532 C 39.843934,52.497776 40.250791,52.085553 40.752316,51.779746 C 41.253839,51.473939 41.796315,51.322226 42.371234,51.322226 C 42.946150,51.322226 43.488628,51.473939 43.990151,51.779746 C 44.491675,52.085553 44.893168,52.497776 45.186742,53.011532 C 45.492550,53.513056 45.644263,54.060897 45.644263,54.648047 C 45.644263,54.780948 45.553716,54.888891 45.538681,55.017582 L 57.399015,55.017582 L 45.309921,34.077230 L 45.309921,44.705779 C 45.309922,45.635432 45.044048,46.433053 44.518060,47.081365 C 44.004303,47.729676 43.288655,48.049196 42.371234,48.049196 C 41.466043,48.049196 40.750396,47.729676 40.224408,47.081365 C 39.698419,46.420821 39.432545,45.623200 39.432545,44.705779 L 39.432545,34.077230 z "
     sodipodi:stroke-cmyk="(0.0000000 0.0000000 0.0000000 0.69999999)"
     id="path839" />
  <path
     sodipodi:nodetypes="ccccccccccccc"
     style="font-size:12.000000;font-weight:900;fill:none;stroke:#333333;stroke-width:1.8750000;font-family:VAG Rounded Black SSi;stroke-linejoin:round;stroke-linecap:round;stroke-miterlimit:4.0000000;stroke-dasharray:none;"
     d="M 39.105550,54.643790 C 39.105550,54.056640 39.252338,53.512304 39.545913,53.010779 C 39.851720,52.497023 40.255385,52.087242 40.756909,51.781434 C 41.258433,51.475627 41.796653,51.322724 42.371571,51.322724 C 42.946489,51.322724 43.484710,51.475627 43.986233,51.781434 C 44.487757,52.087242 44.885306,52.497023 45.178881,53.010779 C 45.484688,53.512304 45.637592,54.056640 45.637592,54.643790 C 45.637592,55.243172 45.484688,55.799741 45.178881,56.313498 C 44.885306,56.815021 44.481641,57.212571 43.967885,57.506146 C 43.466361,57.799721 42.934257,57.946508 42.371571,57.946508 C 41.808886,57.946508 41.270665,57.799721 40.756909,57.506146 C 40.255385,57.212571 39.851720,56.815021 39.545913,56.313498 C 39.252338,55.799741 39.105550,55.243172 39.105550,54.643790 z "
     sodipodi:stroke-cmyk="(0.0000000 0.0000000 0.0000000 0.80000001)"
     id="path836" />
  <path
     sodipodi:nodetypes="cccccccccccc"
     style="font-size:12.000000;font-weight:900;fill:none;stroke:#333333;stroke-width:1.8750000;font-family:VAG Rounded Black SSi;stroke-miterlimit:4.0000000;stroke-dasharray:none;stroke-linejoin:round;stroke-linecap:round;"
     d="M 45.307320,31.408558 L 45.307320,44.711172 C 45.307320,45.640826 45.044326,46.429808 44.518338,47.078119 C 44.004582,47.726431 43.288993,48.050587 42.371571,48.050587 C 41.466382,48.050587 40.750793,47.726431 40.224805,47.078119 C 39.698816,46.417576 39.435822,45.628593 39.435822,44.711172 L 39.435822,31.408558 C 39.435822,30.466671 39.698816,29.677689 40.224805,29.041609 C 40.750793,28.393298 41.466382,28.069142 42.371571,28.069142 C 42.970953,28.069142 43.490825,28.215929 43.931188,28.509504 C 44.383783,28.803080 44.726287,29.206745 44.958700,29.720501 C 45.191113,30.222025 45.307320,30.784710 45.307320,31.408558 z "
     sodipodi:stroke-cmyk="(0.0000000 0.0000000 0.0000000 0.80000001)"
     id="path835" />
  <metadata
     id="metadata19">
    <rdf:RDF
       id="RDF20">
      <cc:Work
         rdf:about=""
         id="Work21">
        <dc:title
           id="title22">Part of the Flat Icon Collection (Thu Aug 26 14:40:13 2004)</dc:title>
        <dc:description
           id="description24" />
        <dc:subject
           id="subject25">
          <rdf:Bag
             id="Bag26">
            <rdf:li
               id="li27" />
          </rdf:Bag>
        </dc:subject>
        <dc:publisher
           id="publisher28">
          <cc:Agent
             rdf:about=""
             id="Agent29">
            <dc:title
               id="title30" />
          </cc:Agent>
        </dc:publisher>
        <dc:creator
           id="creator31">
          <cc:Agent
             rdf:about=""
             id="Agent32">
            <dc:title
               id="title33">Danny Allen</dc:title>
          </cc:Agent>
        </dc:creator>
        <dc:rights
           id="rights35">
          <cc:Agent
             rdf:about=""
             id="Agent36">
            <dc:title
               id="title37">Danny Allen</dc:title>
          </cc:Agent>
        </dc:rights>
        <dc:date
           id="date39" />
        <dc:format
           id="format40">image/svg+xml</dc:format>
        <dc:type
           rdf:resource="http://purl.org/dc/dcmitype/StillImage"
           id="type42" />
        <cc:license
           rdf:resource="http://creativecommons.org/licenses/LGPL/2.1/"
           id="license43">
          <dc:date
             id="date44" />
        </cc:license>
        <dc:language
           id="language45">en</dc:language>
      </cc:Work>
    </rdf:RDF>
  </metadata>
</svg>
