<?xml version="1.0" encoding="UTF-8" standalone="no"?>
<!DOCTYPE svg PUBLIC "-//W3C//DTD SVG 20010904//EN"
"http://www.w3.org/TR/2001/REC-SVG-20010904/DTD/svg10.dtd">
<svg
   sodipodi:docname="folder_rpm.svg"
   height="60.0000000"
   sodipodi:version="0.32"
   width="60.0000000"
   _SVGFile__filename="scalable/filesystems/folder_rpm.svg"
   version="1.0"
   y="0"
   x="0"
   inkscape:version="0.39"
   id="svg1"
   sodipodi:docbase="/home/danny/work/flat/newscale/filesystems"
   xmlns="http://www.w3.org/2000/svg"
   xmlns:cc="http://web.resource.org/cc/"
   xmlns:inkscape="http://www.inkscape.org/namespaces/inkscape"
   xmlns:sodipodi="http://sodipodi.sourceforge.net/DTD/sodipodi-0.dtd"
   xmlns:rdf="http://www.w3.org/1999/02/22-rdf-syntax-ns#"
   xmlns:dc="http://purl.org/dc/elements/1.1/"
   xmlns:xlink="http://www.w3.org/1999/xlink">
  <sodipodi:namedview
     bordercolor="#666666"
     inkscape:pageshadow="2"
     inkscape:window-y="0"
     pagecolor="#ffffff"
     inkscape:window-height="685"
     inkscape:zoom="6.9465337"
     inkscape:window-x="0"
     borderopacity="1.0"
     inkscape:cx="18.336914"
     inkscape:cy="34.157617"
     inkscape:window-width="1016"
     inkscape:pageopacity="0.0"
     id="base" />
  <defs
     id="defs3">
    <linearGradient
       id="linearGradient900">
      <stop
         style="stop-color:#000;stop-opacity:1;"
         id="stop901"
         offset="0" />
      <stop
         style="stop-color:#fff;stop-opacity:1;"
         id="stop902"
         offset="1" />
    </linearGradient>
    <linearGradient
       xlink:href="#linearGradient900"
       id="linearGradient903" />
    <linearGradient
       xlink:href="#linearGradient900"
       id="linearGradient904" />
    <linearGradient
       xlink:href="#linearGradient900"
       id="linearGradient905" />
    <linearGradient
       xlink:href="#linearGradient900"
       id="linearGradient906" />
    <linearGradient
       xlink:href="#linearGradient900"
       id="linearGradient907" />
  </defs>
  <path
     style="font-size:12;fill:#b3b3b3;fill-rule:evenodd;stroke:#333333;stroke-width:3.125;stroke-dasharray:none;stroke-linejoin:round;"
     d="M 5.4330181,8.4866775 C 4.9067701,8.4866775 4.4642681,8.9291795 4.4642681,9.4554275 L 4.4330181,51.392927 C 4.4330181,52.276723 5.1429741,52.986677 6.0267681,52.986677 L 43.308018,52.986677 C 44.191811,52.986676 44.901768,52.276721 44.901768,51.392927 L 44.901768,14.392927 C 44.901768,13.509133 44.191812,12.799177 43.308018,12.799177 L 28.589268,12.799177 L 28.589268,9.4554275 C 28.589268,8.9291805 28.146766,8.4866775 27.620518,8.4866775 L 5.4330181,8.4866775 z "
     id="path938"
     sodipodi:nodetypes="cccccccccccc" />
  <path
     transform="matrix(1.000000,0.000000,-0.359650,0.933087,0.000000,0.000000)"
     style="font-size:12.000000;fill:#7f7f7f;fill-rule:evenodd;stroke:#333333;stroke-width:3.2351100;stroke-linejoin:round;"
     d="M 26.627555,23.398020 C 25.743761,23.398020 25.032259,24.109522 25.032259,24.993316 L 25.032259,55.253091 C 25.032259,56.136885 25.743761,56.848387 26.627555,56.848387 L 63.913396,56.848387 C 64.797190,56.848387 65.508692,56.136885 65.508692,55.253091 L 65.508692,24.993316 C 65.508692,24.109522 64.797190,23.398020 63.913396,23.398020 L 26.627555,23.398020 z "
     id="rect922" />
  <metadata
     id="metadata17">
    <rdf:RDF
       id="RDF18">
      <cc:Work
         rdf:about=""
         id="Work19">
        <dc:title
           id="title20">Part of the Flat Icon Collection (Thu Aug 26 14:40:13 2004)</dc:title>
        <dc:description
           id="description22" />
        <dc:subject
           id="subject23">
          <rdf:Bag
             id="Bag24">
            <rdf:li
               id="li25" />
          </rdf:Bag>
        </dc:subject>
        <dc:publisher
           id="publisher26">
          <cc:Agent
             rdf:about=""
             id="Agent27">
            <dc:title
               id="title28" />
          </cc:Agent>
        </dc:publisher>
        <dc:creator
           id="creator29">
          <cc:Agent
             rdf:about=""
             id="Agent30">
            <dc:title
               id="title31">Danny Allen</dc:title>
          </cc:Agent>
        </dc:creator>
        <dc:rights
           id="rights33">
          <cc:Agent
             rdf:about=""
             id="Agent34">
            <dc:title
               id="title35">Danny Allen</dc:title>
          </cc:Agent>
        </dc:rights>
        <dc:date
           id="date37" />
        <dc:format
           id="format38">image/svg+xml</dc:format>
        <dc:type
           rdf:resource="http://purl.org/dc/dcmitype/StillImage"
           id="type40" />
        <cc:license
           rdf:resource="http://creativecommons.org/licenses/LGPL/2.1/"
           id="license41">
          <dc:date
             id="date42" />
        </cc:license>
        <dc:language
           id="language43">en</dc:language>
      </cc:Work>
    </rdf:RDF>
  </metadata>
  <g
     id="g998"
     transform="matrix(0.660143,0.000000,-0.261325,0.660143,19.10779,17.43021)">
    <path
       style="font-size:12.000000;font-weight:900;fill:#333333;stroke-width:1.0000000pt;font-family:VAG Rounded Black SSi;"
       d="M 33.726232,43.105746 L 35.092078,35.223459 C 35.349260,33.756825 36.110382,33.023509 37.375439,33.023509 C 37.931509,33.023509 38.372890,33.141673 38.699581,33.378002 C 39.033223,33.614332 39.311258,33.989678 39.533685,34.504044 C 39.763064,35.011457 40.041099,35.779529 40.367790,36.808258 L 42.056852,42.083969 L 42.098556,42.083969 L 43.787619,36.808258 C 44.114310,35.779529 44.388870,35.011457 44.611297,34.504044 C 44.840676,33.989678 45.118711,33.614332 45.445402,33.378002 C 45.779044,33.141673 46.220423,33.023509 46.769542,33.023509 C 48.041552,33.023509 48.806147,33.756825 49.063330,35.223459 L 50.429176,43.105746 C 50.811474,45.357828 51.002622,46.647216 51.002622,46.973906 C 51.002622,47.397910 50.853179,47.780207 50.554291,48.120801 C 50.262355,48.461393 49.869631,48.631689 49.376119,48.631689 C 48.896509,48.631689 48.517686,48.530901 48.239651,48.329326 C 47.961616,48.120801 47.763517,47.849716 47.645352,47.516075 C 47.527186,47.182433 47.436825,46.786233 47.374268,46.327475 L 46.342064,39.519097 L 46.300358,39.519097 L 43.975293,47.057316 C 43.808472,47.620338 43.579092,48.023488 43.287156,48.266769 C 42.995218,48.510050 42.592069,48.631689 42.077703,48.631689 C 41.563340,48.631689 41.160188,48.510050 40.868253,48.266769 C 40.576315,48.023488 40.346937,47.620338 40.180116,47.057316 L 37.844623,39.519097 L 37.802919,39.519097 L 36.781141,46.327475 C 36.718583,46.786233 36.628220,47.182433 36.510056,47.516075 C 36.391892,47.849716 36.193792,48.120801 35.915757,48.329326 C 35.637722,48.530901 35.255424,48.631689 34.768864,48.631689 C 34.282302,48.631689 33.889578,48.461393 33.590690,48.120801 C 33.298755,47.780207 33.152785,47.397910 33.152785,46.973906 C 33.152785,46.563806 33.343934,45.274418 33.726232,43.105746 z M 24.822167,36.245238 L 24.822167,40.457465 L 26.678050,40.457465 C 27.143757,40.457465 27.550384,40.360153 27.897926,40.165529 C 28.245471,39.970905 28.509603,39.713721 28.690327,39.393982 C 28.871048,39.074241 28.961411,38.730173 28.961411,38.361778 C 28.961411,37.694494 28.752884,37.176654 28.335832,36.808258 C 27.918779,36.432910 27.366185,36.245238 26.678050,36.245238 L 24.822167,36.245238 z M 21.360632,46.775806 L 21.360632,34.900243 C 21.360632,34.365026 21.530928,33.941024 21.871522,33.628233 C 22.219065,33.308494 22.625692,33.148624 23.091401,33.148624 L 27.334906,33.148624 C 28.238520,33.148624 29.090001,33.350198 29.889352,33.753350 C 30.695653,34.149549 31.338608,34.743850 31.818218,35.536248 C 32.304780,36.321696 32.548060,37.263539 32.548060,38.361778 C 32.548060,39.369654 32.349961,40.269791 31.953760,41.062191 C 31.557561,41.847639 30.977163,42.462791 30.212568,42.907647 C 29.447971,43.352502 28.526981,43.574930 27.449595,43.574930 L 24.822167,43.574930 L 24.822167,46.775806 C 24.822167,47.380532 24.662297,47.842766 24.342557,48.162505 C 24.029767,48.475294 23.612715,48.631689 23.091401,48.631689 C 22.583986,48.631689 22.166933,48.471819 21.840244,48.152079 C 21.520503,47.825388 21.360632,47.366631 21.360632,46.775806 z M 9.0992953,46.775806 L 9.0992953,34.900243 C 9.0992953,34.365026 9.2695914,33.941024 9.6101854,33.628233 C 9.9577281,33.308494 10.364355,33.148624 10.830064,33.148624 L 14.990159,33.148624 C 15.768657,33.148624 16.467219,33.259837 17.085848,33.482265 C 17.704475,33.704693 18.239692,34.031385 18.691498,34.462338 C 19.143306,34.886342 19.487373,35.390280 19.723702,35.974153 C 19.960032,36.558026 20.078197,37.204457 20.078197,37.913447 C 20.078197,38.476467 19.994786,39.001258 19.827965,39.487818 C 19.668095,39.967428 19.431766,40.394907 19.118978,40.770253 C 18.813139,41.138651 18.441266,41.447964 18.003363,41.698196 C 17.565458,41.948427 17.075421,42.125674 16.533253,42.229937 L 19.536030,45.514224 C 20.022590,46.042490 20.265871,46.542953 20.265871,47.015612 C 20.265871,47.356204 20.112951,47.710699 19.807112,48.079095 C 19.508226,48.447490 19.070321,48.631689 18.493398,48.631689 C 18.090249,48.631689 17.773983,48.565656 17.544605,48.433589 C 17.322177,48.301522 17.089323,48.082570 16.846042,47.776732 L 12.602535,42.355052 L 12.560830,42.355052 L 12.560830,46.775806 C 12.560830,47.380532 12.400960,47.842766 12.081221,48.162505 C 11.768430,48.475294 11.351378,48.631689 10.830064,48.631689 C 10.322649,48.631689 9.9055964,48.471819 9.5789067,48.152079 C 9.2591658,47.825388 9.0992953,47.366631 9.0992953,46.775806 z M 12.560830,36.380778 L 12.560830,39.769328 L 14.844191,39.769328 C 15.393311,39.769328 15.824264,39.609459 16.137052,39.289718 C 16.456793,38.963027 16.616664,38.545975 16.616664,38.038562 C 16.616664,37.538099 16.449843,37.138424 16.116201,36.839537 C 15.782559,36.533698 15.358555,36.380778 14.844191,36.380778 L 12.560830,36.380778 z "
       id="path839"
       transform="translate(-7.788806e-8,-0.419383)" />
    <path
       transform="matrix(0.951445,0.000000,0.000000,0.951445,48.53529,0.393567)"
       style="fill:#333333;fill-opacity:1.0000000;fill-rule:evenodd;stroke:#333333;stroke-width:1.8750000;stroke-linecap:round;stroke-linejoin:round;stroke-miterlimit:4.0000000;stroke-opacity:1.0000000;"
       d="M -20.031250,13.562500 C -31.458608,13.562500 -40.750000,21.120605 -40.750000,30.437500 L -31.562500,28.638041 C -31.562501,19.321146 -26.389015,13.562500 -20.031250,13.562500 z "
       id="path1567" />
    <path
       transform="matrix(0.951445,0.000000,0.000000,0.951445,48.53529,0.393567)"
       style="fill:#4c4c4c;fill-opacity:1.0000000;fill-rule:evenodd;stroke:#4c4c4c;stroke-width:1.8750000;stroke-linecap:round;stroke-linejoin:round;stroke-miterlimit:4.0000000;stroke-opacity:1.0000000;"
       d="M -20.062500,13.562500 C -8.6351420,13.562500 0.65625000,21.120605 0.65625000,30.437500 L -8.5312500,28.638041 C -8.5312490,19.321146 -13.704735,13.562500 -20.062500,13.562500 z "
       id="path1584" />
    <path
       transform="matrix(0.951445,0.000000,0.000000,0.951445,50.52671,1.241007)"
       style="fill:#333333;fill-opacity:1.0000000;fill-rule:evenodd;stroke:#333333;stroke-width:1.9706867;stroke-linecap:butt;stroke-linejoin:miter;stroke-miterlimit:4.0000000;stroke-opacity:1.0000000;"
       d="M -21.249237,25.390465 C -21.249237,25.882124 -21.648264,26.281151 -22.139923,26.281151 C -22.631582,26.281151 -23.030610,25.882124 -23.030610,25.390465 C -23.030610,24.898806 -22.631582,24.499778 -22.139923,24.499778 C -21.648264,24.499778 -21.249237,24.898806 -21.249237,25.390465 z "
       id="path1585" />
    <path
       style="fill:none;fill-opacity:0.75000000;fill-rule:evenodd;stroke:#333333;stroke-width:1.9706867;stroke-linecap:round;stroke-linejoin:round;stroke-miterlimit:4.0000000;stroke-opacity:1.0000000;"
       d="M 1.8468664,30.629174 L -19.849587,26.386561"
       id="path1589"
       sodipodi:nodetypes="cc"
       transform="matrix(0.951445,0.000000,0.000000,0.951445,48.53529,0.393567)" />
    <path
       transform="matrix(0.951445,0.000000,0.000000,0.951445,48.53529,0.393567)"
       style="fill:#4c4c4c;fill-opacity:1.0000000;fill-rule:evenodd;stroke:#333333;stroke-width:1.8750000;stroke-linecap:square;stroke-linejoin:miter;stroke-miterlimit:4.0000000;stroke-opacity:1.0000000;"
       d="M -20.062500,13.562500 C -16.955865,13.562500 -14.138186,14.944287 -12.062500,17.437500 L -10.593750,15.500000 C -13.445577,14.294726 -16.632166,13.562500 -20.062500,13.562500 z "
       id="path1599" />
    <path
       style="fill:#333333;fill-opacity:1.0000000;fill-rule:evenodd;stroke:#333333;stroke-width:1.5634114;stroke-linecap:square;stroke-linejoin:miter;stroke-miterlimit:4.0000000;stroke-opacity:1.0000000;"
       d="M -19.977338,13.562500 C -23.083973,13.562500 -25.901652,14.944287 -27.977338,17.437500 L -29.446088,15.500000 C -26.594261,14.294726 -23.407672,13.562500 -19.977338,13.562500 z "
       id="path1602"
       transform="matrix(0.951445,0.000000,0.000000,0.951445,48.53529,0.393567)" />
  </g>
</svg>
