<?xml version="1.0" encoding="UTF-8" standalone="no"?>
<!DOCTYPE svg PUBLIC "-//W3C//DTD SVG 20010904//EN"
"http://www.w3.org/TR/2001/REC-SVG-20010904/DTD/svg10.dtd">
<svg
   sodipodi:docname="ascii.svg"
   height="60.0000000"
   sodipodi:version="0.32"
   width="60.0000000"
   _SVGFile__filename="scalable/mimetypes/ascii.svg"
   version="1.0"
   y="0"
   x="0"
   inkscape:version="0.39"
   id="svg1"
   sodipodi:docbase="/home/danny/work/flat/newscale/mimetypes"
   xmlns="http://www.w3.org/2000/svg"
   xmlns:cc="http://web.resource.org/cc/"
   xmlns:inkscape="http://www.inkscape.org/namespaces/inkscape"
   xmlns:sodipodi="http://sodipodi.sourceforge.net/DTD/sodipodi-0.dtd"
   xmlns:rdf="http://www.w3.org/1999/02/22-rdf-syntax-ns#"
   xmlns:dc="http://purl.org/dc/elements/1.1/"
   xmlns:xlink="http://www.w3.org/1999/xlink">
  <sodipodi:namedview
     bordercolor="#666666"
     inkscape:pageshadow="2"
     inkscape:window-y="0"
     pagecolor="#ffffff"
     inkscape:window-height="685"
     inkscape:zoom="6.9465337"
     inkscape:window-x="0"
     borderopacity="1.0"
     inkscape:cx="37.697540"
     inkscape:cy="31.806367"
     inkscape:window-width="1016"
     inkscape:pageopacity="0.0"
     id="base" />
  <defs
     id="defs3">
    <linearGradient
       id="linearGradient900">
      <stop
         style="stop-color:#000;stop-opacity:1;"
         id="stop901"
         offset="0" />
      <stop
         style="stop-color:#fff;stop-opacity:1;"
         id="stop902"
         offset="1" />
    </linearGradient>
    <linearGradient
       xlink:href="#linearGradient900"
       id="linearGradient903" />
    <linearGradient
       xlink:href="#linearGradient900"
       id="linearGradient904" />
    <linearGradient
       xlink:href="#linearGradient900"
       id="linearGradient905" />
    <linearGradient
       xlink:href="#linearGradient900"
       id="linearGradient906" />
    <linearGradient
       xlink:href="#linearGradient900"
       id="linearGradient907" />
  </defs>
  <path
     style="font-size:12.000000;fill:#b3b3b3;fill-opacity:1.0000000;fill-rule:evenodd;stroke:#333333;stroke-width:3.1250000;stroke-linecap:round;stroke-linejoin:round;stroke-opacity:1.0000000;"
     d="M 6.6785922,5.1165123 C 5.5705922,5.1165123 4.6785922,6.0085123 4.6785922,7.1165123 L 4.6785922,53.501354 C 4.6785922,54.609354 5.5705922,55.501354 6.6785922,55.501354 L 53.423324,55.501354 C 54.531324,55.501354 55.423324,54.609354 55.423324,53.501354 L 55.423324,7.1165123 C 55.423324,6.0085123 54.531324,5.1165123 53.423324,5.1165123 L 6.6785922,5.1165123 z "
     id="rect812" />
  <path
     id="path837"
     style="font-size:12.000000;font-weight:900;fill:#333333;stroke-width:1.0000000pt;font-family:VAG Rounded Black SSi;"
     d="M 47.262692,37.154136 L 47.262692,28.487933 C 47.262692,27.968694 47.423583,27.537212 47.745366,27.193488 C 48.074463,26.842452 48.494975,26.666934 49.006901,26.666934 C 49.526142,26.666934 49.946655,26.842452 50.268438,27.193488 C 50.597534,27.537212 50.762081,27.968694 50.762081,28.487933 L 50.762081,37.154136 C 50.762081,37.673375 50.597534,38.112170 50.268438,38.470521 C 49.946655,38.821557 49.526142,38.997075 49.006901,38.997075 C 48.494975,38.997075 48.074463,38.821557 47.745366,38.470521 C 47.423583,38.112170 47.262692,37.673375 47.262692,37.154136 z M 46.922625,23.496641 C 46.922625,22.926207 47.127396,22.432562 47.536938,22.015707 C 47.946480,21.598853 48.436469,21.390425 49.006901,21.390425 C 49.584648,21.390425 50.078293,21.595196 50.487835,22.004738 C 50.897377,22.414280 51.102148,22.911581 51.102148,23.496641 C 51.102148,24.103641 50.897377,24.608255 50.487835,25.010484 C 50.078293,25.412712 49.584648,25.613826 49.006901,25.613826 C 48.436469,25.613826 47.946480,25.409055 47.536938,24.999513 C 47.127396,24.589971 46.922625,24.089014 46.922625,23.496641 z M 42.271398,37.154136 L 42.271398,28.487933 C 42.271398,27.968694 42.432291,27.537212 42.754074,27.193488 C 43.083170,26.842452 43.503681,26.666934 44.015609,26.666934 C 44.534850,26.666934 44.955362,26.842452 45.277145,27.193488 C 45.606240,27.537212 45.770789,27.968694 45.770789,28.487933 L 45.770789,37.154136 C 45.770789,37.673375 45.606240,38.112170 45.277145,38.470521 C 44.955362,38.821557 44.534850,38.997075 44.015609,38.997075 C 43.503681,38.997075 43.083170,38.821557 42.754074,38.470521 C 42.432291,38.112170 42.271398,37.673375 42.271398,37.154136 z M 41.931333,23.496641 C 41.931333,22.926207 42.136104,22.432562 42.545646,22.015707 C 42.955188,21.598853 43.445175,21.390425 44.015609,21.390425 C 44.593356,21.390425 45.086999,21.595196 45.496541,22.004738 C 45.906083,22.414280 46.110854,22.911581 46.110854,23.496641 C 46.110854,24.103641 45.906083,24.608255 45.496541,25.010484 C 45.086999,25.412712 44.593356,25.613826 44.015609,25.613826 C 43.445175,25.613826 42.955188,25.409055 42.545646,24.999513 C 42.136104,24.589971 41.931333,24.089014 41.931333,23.496641 z M 31.466072,32.821035 C 31.466072,31.658228 31.714722,30.586836 32.212023,29.606862 C 32.709324,28.619573 33.404083,27.844367 34.296300,27.281247 C 35.195829,26.718128 36.219684,26.436567 37.367865,26.436567 C 37.974864,26.436567 38.600148,26.509700 39.243714,26.655965 C 39.887280,26.794917 40.428459,27.036254 40.867254,27.379977 C 41.306049,27.723699 41.525448,28.188090 41.525448,28.773150 C 41.525448,29.241198 41.386496,29.632458 41.108591,29.946927 C 40.838001,30.261397 40.497936,30.418631 40.088394,30.418631 C 39.890936,30.418631 39.697134,30.385722 39.506991,30.319903 C 39.324158,30.254084 39.137671,30.184607 38.947527,30.111476 C 38.764695,30.031029 38.567238,29.965211 38.355153,29.914017 C 38.150382,29.862824 37.890761,29.837229 37.576293,29.837229 C 37.005858,29.837229 36.523185,29.972523 36.128268,30.243113 C 35.740667,30.506390 35.448137,30.864741 35.250678,31.318161 C 35.060535,31.764269 34.965461,32.265228 34.965461,32.821035 C 34.965461,33.362215 35.060535,33.866829 35.250678,34.334877 C 35.440824,34.795612 35.715070,35.161275 36.073419,35.431865 C 36.439082,35.702455 36.870564,35.837751 37.367865,35.837751 C 37.930985,35.837751 38.497761,35.731708 39.068196,35.519624 C 39.638628,35.307540 39.978695,35.201498 40.088394,35.201498 C 40.351671,35.201498 40.593008,35.278287 40.812405,35.431865 C 41.031803,35.585443 41.203665,35.786558 41.327990,36.035207 C 41.459627,36.276546 41.525448,36.525195 41.525448,36.781160 C 41.525448,37.322339 41.287767,37.779418 40.812405,38.152394 C 40.344357,38.525370 39.784893,38.795960 39.134015,38.964165 C 38.483136,39.139683 37.894419,39.227442 37.367865,39.227442 C 36.497588,39.227442 35.700444,39.066550 34.976432,38.744767 C 34.259733,38.422984 33.634451,37.965905 33.100584,37.373532 C 32.566715,36.773847 32.160831,36.086400 31.882927,35.311197 C 31.605024,34.528679 31.466072,33.698625 31.466072,32.821035 z M 21.757733,36.781160 C 21.757733,36.283859 21.896685,35.874317 22.174587,35.552534 C 22.459805,35.230751 22.803528,35.069858 23.205755,35.069858 C 23.447094,35.069858 23.677461,35.113739 23.896858,35.201498 C 24.116256,35.281944 24.408786,35.413581 24.774448,35.596412 C 25.147424,35.771930 25.454580,35.899913 25.695918,35.980359 C 25.937255,36.060804 26.229785,36.101028 26.573508,36.101028 C 26.909917,36.101028 27.158568,36.035207 27.319459,35.903570 C 27.480351,35.764617 27.560796,35.592756 27.560796,35.387985 C 27.560796,35.205154 27.509604,35.055233 27.407218,34.938221 C 27.304833,34.821209 27.169538,34.726137 27.001332,34.653003 C 26.833127,34.572557 26.595447,34.473829 26.288291,34.356817 C 25.981134,34.239805 25.498460,34.049661 24.840267,33.786384 C 24.152822,33.493854 23.622612,33.219606 23.249636,32.963642 C 22.876659,32.700365 22.587786,32.367613 22.383015,31.965384 C 22.178244,31.555842 22.075859,31.047572 22.075859,30.440571 C 22.075859,29.753127 22.258690,29.102246 22.624353,28.487933 C 22.997328,27.873620 23.527538,27.379977 24.214985,27.007001 C 24.909744,26.626712 25.703231,26.436567 26.595447,26.436567 C 26.975736,26.436567 27.399905,26.484104 27.867953,26.579175 C 28.336001,26.666934 28.778453,26.816856 29.195307,27.028941 C 29.619477,27.233712 29.963198,27.496989 30.226475,27.818772 C 30.497067,28.140555 30.632361,28.520844 30.632361,28.959639 C 30.632361,29.244855 30.566542,29.504475 30.434904,29.738499 C 30.310578,29.965211 30.135060,30.140729 29.908350,30.265053 C 29.688952,30.382065 29.443959,30.440571 29.173367,30.440571 C 29.027102,30.440571 28.866212,30.407662 28.690694,30.341843 C 28.522488,30.276024 28.281152,30.169982 27.966681,30.023717 C 27.659526,29.877452 27.377965,29.764096 27.122001,29.683650 C 26.866038,29.603205 26.613731,29.562981 26.365079,29.562981 C 26.109117,29.562981 25.889718,29.625144 25.706888,29.749470 C 25.531370,29.873795 25.443611,30.060282 25.443611,30.308934 C 25.443611,30.594149 25.728828,30.857426 26.299260,31.098765 C 26.869695,31.332789 27.531543,31.603379 28.284808,31.910534 C 29.045386,32.217692 29.674326,32.630890 30.171627,33.150131 C 30.676241,33.669372 30.928547,34.367786 30.928547,35.245376 C 30.928547,36.049835 30.727434,36.755563 30.325205,37.362563 C 29.922976,37.962249 29.374482,38.422984 28.679724,38.744767 C 27.992278,39.066550 27.242669,39.227442 26.430900,39.227442 C 25.238840,39.227442 24.160135,39.004388 23.194786,38.558280 C 22.236750,38.104857 21.757733,37.512485 21.757733,36.781160 z M 20.814324,28.487933 L 20.814324,37.154136 C 20.814324,37.680690 20.649775,38.119485 20.320679,38.470521 C 19.991583,38.821557 19.571070,38.997075 19.059144,38.997075 C 18.656915,38.997075 18.316848,38.887376 18.038945,38.667977 C 17.768355,38.448581 17.563584,38.185304 17.424632,37.878146 C 17.029716,38.360822 16.590921,38.704545 16.108247,38.909316 C 15.632886,39.121400 15.066108,39.227442 14.407917,39.227442 C 13.406000,39.227442 12.491844,38.945882 11.665448,38.382762 C 10.846364,37.812327 10.195485,37.037124 9.7128094,36.057147 C 9.2374486,35.069858 8.9997682,33.991155 8.9997682,32.821035 C 8.9997682,31.665541 9.2374486,30.597807 9.7128094,29.617831 C 10.195485,28.630542 10.850020,27.855338 11.676417,27.292218 C 12.502815,26.721784 13.413315,26.436567 14.407917,26.436567 C 15.073421,26.436567 15.640199,26.538953 16.108247,26.743724 C 16.583608,26.948495 17.022403,27.295875 17.424632,27.785861 C 17.556270,27.486018 17.761041,27.226398 18.038945,27.007001 C 18.316848,26.780290 18.656915,26.666934 19.059144,26.666934 C 19.571070,26.666934 19.991583,26.842452 20.320679,27.193488 C 20.649775,27.537212 20.814324,27.968694 20.814324,28.487933 z M 14.901561,29.837229 C 14.155609,29.837229 13.566893,30.122445 13.135410,30.692879 C 12.711243,31.263312 12.499157,31.972698 12.499157,32.821035 C 12.499157,33.362215 12.594231,33.866829 12.784374,34.334877 C 12.974520,34.795612 13.248766,35.161275 13.607115,35.431865 C 13.972778,35.702455 14.404260,35.837751 14.901561,35.837751 C 15.654825,35.837751 16.243541,35.552534 16.667711,34.982099 C 17.091878,34.404354 17.303964,33.683998 17.303964,32.821035 C 17.303964,31.965384 17.091878,31.255999 16.667711,30.692879 C 16.243541,30.122445 15.654825,29.837229 14.901561,29.837229 z " />
  <metadata
     id="metadata14">
    <rdf:RDF
       id="RDF15">
      <cc:Work
         rdf:about=""
         id="Work16">
        <dc:title
           id="title17">Part of the Flat Icon Collection (Thu Aug 26 14:40:35 2004)</dc:title>
        <dc:description
           id="description19" />
        <dc:subject
           id="subject20">
          <rdf:Bag
             id="Bag21">
            <rdf:li
               id="li22" />
          </rdf:Bag>
        </dc:subject>
        <dc:publisher
           id="publisher23">
          <cc:Agent
             rdf:about=""
             id="Agent24">
            <dc:title
               id="title25" />
          </cc:Agent>
        </dc:publisher>
        <dc:creator
           id="creator26">
          <cc:Agent
             rdf:about=""
             id="Agent27">
            <dc:title
               id="title28">Danny Allen</dc:title>
          </cc:Agent>
        </dc:creator>
        <dc:rights
           id="rights30">
          <cc:Agent
             rdf:about=""
             id="Agent31">
            <dc:title
               id="title32">Danny Allen</dc:title>
          </cc:Agent>
        </dc:rights>
        <dc:date
           id="date34" />
        <dc:format
           id="format35">image/svg+xml</dc:format>
        <dc:type
           rdf:resource="http://purl.org/dc/dcmitype/StillImage"
           id="type37" />
        <cc:license
           rdf:resource="http://creativecommons.org/licenses/LGPL/2.1/"
           id="license38">
          <dc:date
             id="date39" />
        </cc:license>
        <dc:language
           id="language40">en</dc:language>
      </cc:Work>
    </rdf:RDF>
  </metadata>
</svg>
