<?xml version="1.0" encoding="UTF-8" standalone="no"?>
<!DOCTYPE svg PUBLIC "-//W3C//DTD SVG 20010904//EN"
"http://www.w3.org/TR/2001/REC-SVG-20010904/DTD/svg10.dtd">
<svg
   sodipodi:docname="backup.svg"
   height="60.0000000"
   sodipodi:version="0.32"
   width="60.0000000"
   _SVGFile__filename="scalable/mimetypes/backup.svg"
   version="1.0"
   y="0"
   x="0"
   inkscape:version="0.39"
   id="svg1"
   sodipodi:docbase="/home/danny/work/flat/newscale/mimetypes"
   xmlns="http://www.w3.org/2000/svg"
   xmlns:cc="http://web.resource.org/cc/"
   xmlns:inkscape="http://www.inkscape.org/namespaces/inkscape"
   xmlns:sodipodi="http://sodipodi.sourceforge.net/DTD/sodipodi-0.dtd"
   xmlns:rdf="http://www.w3.org/1999/02/22-rdf-syntax-ns#"
   xmlns:dc="http://purl.org/dc/elements/1.1/"
   xmlns:xlink="http://www.w3.org/1999/xlink">
  <sodipodi:namedview
     bordercolor="#666666"
     inkscape:pageshadow="2"
     inkscape:window-y="0"
     pagecolor="#ffffff"
     inkscape:window-height="685"
     inkscape:zoom="6.9465337"
     inkscape:window-x="0"
     borderopacity="1.0"
     inkscape:cx="37.697540"
     inkscape:cy="31.806367"
     inkscape:window-width="1016"
     inkscape:pageopacity="0.0"
     id="base" />
  <defs
     id="defs3">
    <linearGradient
       id="linearGradient900">
      <stop
         style="stop-color:#000;stop-opacity:1;"
         id="stop901"
         offset="0" />
      <stop
         style="stop-color:#fff;stop-opacity:1;"
         id="stop902"
         offset="1" />
    </linearGradient>
    <linearGradient
       xlink:href="#linearGradient900"
       id="linearGradient903" />
    <linearGradient
       xlink:href="#linearGradient900"
       id="linearGradient904" />
    <linearGradient
       xlink:href="#linearGradient900"
       id="linearGradient905" />
    <linearGradient
       xlink:href="#linearGradient900"
       id="linearGradient906" />
    <linearGradient
       xlink:href="#linearGradient900"
       id="linearGradient907" />
  </defs>
  <path
     style="font-size:12.000000;fill:#b3b3b3;fill-opacity:1.0000000;fill-rule:evenodd;stroke:#333333;stroke-width:3.1250000;stroke-linecap:round;stroke-linejoin:round;stroke-opacity:1.0000000;"
     d="M 6.6785922,5.1165123 C 5.5705922,5.1165123 4.6785922,6.0085123 4.6785922,7.1165123 L 4.6785922,53.501354 C 4.6785922,54.609354 5.5705922,55.501354 6.6785922,55.501354 L 53.423324,55.501354 C 54.531324,55.501354 55.423324,54.609354 55.423324,53.501354 L 55.423324,7.1165123 C 55.423324,6.0085123 54.531324,5.1165123 53.423324,5.1165123 L 6.6785922,5.1165123 z "
     id="rect812" />
  <path
     style="font-size:12.000000;fill:#b3b3b3;fill-opacity:1.0000000;fill-rule:evenodd;stroke:#4c4c4c;stroke-width:2.5000000;stroke-linecap:round;stroke-linejoin:round;"
     d="M 11.963757,26.954128 C 11.116137,26.954128 10.433757,27.636508 10.433757,28.484128 L 10.433757,48.201527 C 10.433757,49.049147 11.116137,49.731527 11.963757,49.731527 L 47.839487,49.731527 C 48.687107,49.731527 49.369487,49.049147 49.369487,48.201527 L 49.369487,28.484128 C 49.369487,27.636508 48.687107,26.954128 47.839487,26.954128 L 11.963757,26.954128 z "
     id="rect745" />
  <path
     sodipodi:nodetypes="ccccc"
     style="font-size:12.000000;fill:#7f7f7f;fill-rule:evenodd;stroke:#4c4c4c;stroke-width:2.5000000;stroke-linecap:round;stroke-linejoin:round;"
     d="M 16.408661,49.634190 L 19.813664,43.736550 L 39.867436,43.736550 L 43.394582,49.651067 L 16.408661,49.634190 z "
     sodipodi:stroke-cmyk="(0.0000000 0.0000000 0.0000000 0.69999999)"
     id="path746" />
  <path
     transform="matrix(0.765000,0.000000,0.000000,0.765000,7.760303,22.03398)"
     style="font-size:12.000000;fill:#7f7f7f;fill-opacity:1.0000000;fill-rule:evenodd;stroke:#4c4c4c;stroke-width:3.2679739;stroke-linecap:round;stroke-linejoin:round;stroke-opacity:1.0000000;"
     d="M 25.066464,20.046345 C 25.066464,24.611750 21.361208,28.317006 16.795803,28.317006 C 12.230398,28.317006 8.5251417,24.611750 8.5251417,20.046345 C 8.5251417,15.480940 12.230398,11.775683 16.795803,11.775683 C 21.361208,11.775683 25.066464,15.480940 25.066464,20.046345 z "
     id="path747" />
  <path
     transform="matrix(0.765000,0.000000,0.000000,0.765000,26.34536,22.03398)"
     style="font-size:12.000000;fill:#7f7f7f;fill-opacity:1.0000000;fill-rule:evenodd;stroke:#4c4c4c;stroke-width:3.2679739;stroke-linecap:round;stroke-linejoin:round;stroke-opacity:1.0000000;"
     d="M 25.066464,20.046345 C 25.066464,24.611750 21.361208,28.317006 16.795803,28.317006 C 12.230398,28.317006 8.5251417,24.611750 8.5251417,20.046345 C 8.5251417,15.480940 12.230398,11.775683 16.795803,11.775683 C 21.361208,11.775683 25.066464,15.480940 25.066464,20.046345 z "
     id="path748" />
  <path
     transform="matrix(0.765000,0.000000,0.000000,0.765000,12.38392,-1.765483)"
     style="font-size:12.000000;fill:#cccccc;fill-opacity:1.0000000;fill-rule:evenodd;stroke:#4c4c4c;stroke-width:1.6339869;stroke-linecap:round;stroke-linejoin:round;stroke-opacity:1.0000000;"
     d="M 14.759949,51.156754 C 14.759949,53.369219 12.964325,55.164843 10.751860,55.164843 C 8.5393942,55.164843 6.7437701,53.369219 6.7437701,51.156754 C 6.7437701,48.944288 8.5393942,47.148664 10.751860,47.148664 C 12.964325,47.148664 14.759949,48.944288 14.759949,51.156754 z "
     id="path749" />
  <path
     transform="matrix(0.765000,0.000000,0.000000,0.765000,30.96898,-1.765483)"
     style="font-size:12.000000;fill:#cccccc;fill-opacity:1.0000000;fill-rule:evenodd;stroke:#4c4c4c;stroke-width:1.6339869;stroke-linecap:round;stroke-linejoin:round;stroke-opacity:1.0000000;"
     d="M 14.759949,51.156754 C 14.759949,53.369219 12.964325,55.164843 10.751860,55.164843 C 8.5393942,55.164843 6.7437701,53.369219 6.7437701,51.156754 C 6.7437701,48.944288 8.5393942,47.148664 10.751860,47.148664 C 12.964325,47.148664 14.759949,48.944288 14.759949,51.156754 z "
     id="path750" />
  <path
     sodipodi:nodetypes="ccccccc"
     style="font-size:12.000000;fill:#7f7f7f;fill-rule:evenodd;stroke:#333333;stroke-width:2.5000000;stroke-linecap:round;stroke-linejoin:round;stroke-dasharray:none;"
     d="M 41.874964,10.146111 C 29.260168,15.896973 32.228356,25.636336 32.228356,25.729092 L 36.402368,25.729092 L 29.497625,31.340821 L 23.119736,25.682714 L 27.520072,25.682714 C 27.520072,25.682714 25.086157,12.186739 41.874964,10.146111 z "
     sodipodi:stroke-cmyk="(0 0 0 0.8)"
     id="path968" />
  <metadata
     id="metadata21">
    <rdf:RDF
       id="RDF22">
      <cc:Work
         rdf:about=""
         id="Work23">
        <dc:title
           id="title24">Part of the Flat Icon Collection (Thu Aug 26 14:40:35 2004)</dc:title>
        <dc:description
           id="description26" />
        <dc:subject
           id="subject27">
          <rdf:Bag
             id="Bag28">
            <rdf:li
               id="li29" />
          </rdf:Bag>
        </dc:subject>
        <dc:publisher
           id="publisher30">
          <cc:Agent
             rdf:about=""
             id="Agent31">
            <dc:title
               id="title32" />
          </cc:Agent>
        </dc:publisher>
        <dc:creator
           id="creator33">
          <cc:Agent
             rdf:about=""
             id="Agent34">
            <dc:title
               id="title35">Danny Allen</dc:title>
          </cc:Agent>
        </dc:creator>
        <dc:rights
           id="rights37">
          <cc:Agent
             rdf:about=""
             id="Agent38">
            <dc:title
               id="title39">Danny Allen</dc:title>
          </cc:Agent>
        </dc:rights>
        <dc:date
           id="date41" />
        <dc:format
           id="format42">image/svg+xml</dc:format>
        <dc:type
           rdf:resource="http://purl.org/dc/dcmitype/StillImage"
           id="type44" />
        <cc:license
           rdf:resource="http://creativecommons.org/licenses/LGPL/2.1/"
           id="license45">
          <dc:date
             id="date46" />
        </cc:license>
        <dc:language
           id="language47">en</dc:language>
      </cc:Work>
    </rdf:RDF>
  </metadata>
</svg>
