<?xml version="1.0" encoding="UTF-8" standalone="no"?>
<!DOCTYPE svg PUBLIC "-//W3C//DTD SVG 20010904//EN"
"http://www.w3.org/TR/2001/REC-SVG-20010904/DTD/svg10.dtd">
<svg
   sodipodi:docname="deb.svg"
   sodipodi:version="0.32"
   height="60.0000000"
   width="60.0000000"
   _SVGFile__filename="scalable/mimetypes/deb.svg"
   version="1.0"
   y="0"
   x="0"
   inkscape:version="0.39"
   id="svg1"
   sodipodi:docbase="/home/danny/work/flat/newscale/mimetypes"
   xmlns="http://www.w3.org/2000/svg"
   xmlns:cc="http://web.resource.org/cc/"
   xmlns:inkscape="http://www.inkscape.org/namespaces/inkscape"
   xmlns:sodipodi="http://sodipodi.sourceforge.net/DTD/sodipodi-0.dtd"
   xmlns:rdf="http://www.w3.org/1999/02/22-rdf-syntax-ns#"
   xmlns:dc="http://purl.org/dc/elements/1.1/"
   xmlns:xlink="http://www.w3.org/1999/xlink">
  <sodipodi:namedview
     bordercolor="#666666"
     inkscape:pageshadow="2"
     inkscape:window-y="0"
     pagecolor="#ffffff"
     inkscape:window-height="685"
     inkscape:zoom="6.9465340"
     inkscape:window-x="0"
     borderopacity="1.0"
     inkscape:cx="38.844573"
     inkscape:cy="21.996215"
     inkscape:window-width="1016"
     inkscape:pageopacity="0.0"
     id="base" />
  <defs
     id="defs3">
    <linearGradient
       id="linearGradient900">
      <stop
         style="stop-color:#000;stop-opacity:1;"
         id="stop901"
         offset="0" />
      <stop
         style="stop-color:#fff;stop-opacity:1;"
         id="stop902"
         offset="1" />
    </linearGradient>
    <linearGradient
       xlink:href="#linearGradient900"
       id="linearGradient903" />
    <linearGradient
       xlink:href="#linearGradient900"
       id="linearGradient904" />
    <linearGradient
       xlink:href="#linearGradient900"
       id="linearGradient905" />
    <linearGradient
       xlink:href="#linearGradient900"
       id="linearGradient906" />
    <linearGradient
       xlink:href="#linearGradient900"
       id="linearGradient907" />
  </defs>
  <path
     style="font-size:12.000000;fill:#b3b3b3;fill-opacity:1.0000000;fill-rule:evenodd;stroke:#333333;stroke-width:3.1250000;stroke-linejoin:round;stroke-opacity:1.0000000;stroke-linecap:round;"
     d="M 6.6785922,5.1165123 C 5.5705922,5.1165123 4.6785922,6.0085123 4.6785922,7.1165123 L 4.6785922,53.501354 C 4.6785922,54.609354 5.5705922,55.501354 6.6785922,55.501354 L 53.423324,55.501354 C 54.531324,55.501354 55.423324,54.609354 55.423324,53.501354 L 55.423324,7.1165123 C 55.423324,6.0085123 54.531324,5.1165123 53.423324,5.1165123 L 6.6785922,5.1165123 z "
     id="rect812" />
  <path
     id="path679"
     style="font-size:12.000000;fill:none;fill-opacity:0.75000000;fill-rule:evenodd;stroke:#7f7f7f;stroke-width:3.1862638;stroke-linecap:round;stroke-linejoin:round;stroke-opacity:1.0000000;"
     transform="matrix(1.569236,0.000000,0.000000,-1.569236,12.34599,5.981271)"
     d="M 14.439416,-11.472228 C 12.385009,-9.8593059 9.4337660,-10.879323 8.1171249,-12.925124 C 6.2023873,-15.900249 7.6491017,-19.824870 10.574707,-21.510075 C 14.454251,-23.744766 19.378910,-21.856941 21.422318,-18.047806 C 23.985347,-13.270041 21.650096,-7.3340144 16.955362,-4.9375358 C 11.282331,-2.0416744 4.3290413,-4.8276165 1.5824330,-10.409178 C -1.3752343,-16.419646 1.0735572,-23.770264 6.6579958,-27.273740" />
  <path
     style="font-size:12.000000;font-weight:900;fill:#333333;stroke-width:1.0000000pt;font-family:VAG Rounded Black SSi;"
     d="M 44.267562,51.064582 L 44.267562,41.724443 C 44.267562,41.371151 44.377966,41.076742 44.598772,40.841214 C 44.819580,40.605687 45.099270,40.487923 45.437840,40.487923 C 45.781317,40.487923 46.063461,40.605687 46.284267,40.841214 C 46.505074,41.076742 46.615478,41.371151 46.615478,41.724443 L 46.615478,44.543414 C 46.880446,44.322605 47.155227,44.155774 47.439824,44.042916 C 47.729327,43.930060 48.102246,43.873631 48.558580,43.873631 C 49.225908,43.873631 49.836807,44.064997 50.391278,44.447731 C 50.950656,44.825555 51.389817,45.345678 51.708760,46.008100 C 52.032611,46.665615 52.194536,47.382010 52.194536,48.157289 C 52.194536,48.760827 52.103761,49.317753 51.922208,49.828062 C 51.745561,50.338372 51.487954,50.794707 51.149383,51.197067 C 50.810812,51.599425 50.423173,51.911009 49.986467,52.131816 C 49.549758,52.347716 49.073796,52.455667 48.558580,52.455667 C 48.116965,52.455667 47.736687,52.384518 47.417744,52.242220 C 47.098800,52.104829 46.806844,51.874207 46.541875,51.550358 C 46.443738,51.761350 46.301441,51.940450 46.114981,52.087655 C 45.933429,52.229952 45.707715,52.301102 45.437840,52.301102 C 45.094362,52.301102 44.812220,52.183338 44.591413,51.947810 C 44.375513,51.707376 44.267562,51.412967 44.267562,51.064582 z M 48.227369,46.155305 C 47.726873,46.155305 47.331874,46.346670 47.042371,46.729403 C 46.757776,47.112134 46.615478,47.588098 46.615478,48.157289 C 46.615478,48.520394 46.679266,48.858964 46.806844,49.173001 C 46.934421,49.482131 47.118428,49.727472 47.358862,49.909025 C 47.604202,50.090577 47.893705,50.181354 48.227369,50.181354 C 48.732772,50.181354 49.127772,49.989987 49.412367,49.607256 C 49.696963,49.219617 49.839261,48.736293 49.839261,48.157289 C 49.839261,47.583190 49.696963,47.107228 49.412367,46.729403 C 49.127772,46.346670 48.732772,46.155305 48.227369,46.155305 z M 42.390703,48.944834 L 38.143846,48.944834 C 38.143846,49.263777 38.291051,49.565547 38.585460,49.850143 C 38.879870,50.129831 39.360738,50.269676 40.028066,50.269676 C 40.371544,50.269676 40.656140,50.225515 40.881854,50.137193 C 41.107568,50.048869 41.384803,49.923745 41.713560,49.761820 C 42.047224,49.594988 42.287658,49.511573 42.434864,49.511573 C 42.709646,49.511573 42.942720,49.607256 43.134087,49.798621 C 43.325452,49.989987 43.421135,50.237783 43.421135,50.542005 C 43.421135,50.905111 43.239583,51.236321 42.876477,51.535637 C 42.518280,51.830047 42.054585,52.055760 41.485394,52.212778 C 40.916202,52.374705 40.329836,52.455667 39.726297,52.455667 C 39.103130,52.455667 38.538845,52.347716 38.033443,52.131816 C 37.532947,51.915915 37.098693,51.611693 36.730680,51.219147 C 36.367576,50.821694 36.090341,50.360453 35.898974,49.835422 C 35.707607,49.305485 35.611924,48.746108 35.611924,48.157289 C 35.611924,47.602817 35.712514,47.063067 35.913695,46.538037 C 36.114874,46.013006 36.399470,45.551765 36.767482,45.154313 C 37.135494,44.756859 37.574655,44.445277 38.084964,44.219563 C 38.595274,43.988941 39.142384,43.873631 39.726297,43.873631 C 40.477041,43.873631 41.141915,44.062544 41.720922,44.440369 C 42.299926,44.818195 42.746447,45.313784 43.060484,45.927137 C 43.379427,46.540489 43.538898,47.198004 43.538898,47.899681 C 43.538898,48.302040 43.448123,48.576822 43.266570,48.724027 C 43.085018,48.871232 42.793062,48.944834 42.390703,48.944834 z M 38.143846,47.310862 L 41.183623,47.310862 C 41.183623,47.124402 41.117382,46.918317 40.984897,46.692602 C 40.852413,46.461980 40.670860,46.270615 40.440239,46.118504 C 40.214526,45.961485 39.956918,45.882976 39.667415,45.882976 C 39.377913,45.882976 39.115397,45.961485 38.879870,46.118504 C 38.649249,46.275522 38.467697,46.466888 38.335212,46.692602 C 38.207635,46.913409 38.143846,47.119496 38.143846,47.310862 z M 34.883262,41.724443 L 34.883262,51.064582 C 34.883262,51.417873 34.772859,51.712283 34.552050,51.947810 C 34.331244,52.183338 34.049102,52.301102 33.705624,52.301102 C 33.435748,52.301102 33.207582,52.227499 33.021122,52.080295 C 32.839569,51.933089 32.702179,51.756444 32.608948,51.550358 C 32.343981,51.874207 32.049571,52.104829 31.725720,52.242220 C 31.406777,52.384518 31.026498,52.455667 30.584884,52.455667 C 29.912649,52.455667 29.299297,52.266753 28.744824,51.888928 C 28.195260,51.506196 27.758553,50.986073 27.434703,50.328558 C 27.115759,49.666138 26.956287,48.942381 26.956287,48.157289 C 26.956287,47.382010 27.115759,46.665615 27.434703,46.008100 C 27.758553,45.345678 28.197715,44.825555 28.752186,44.447731 C 29.306656,44.064997 29.917555,43.873631 30.584884,43.873631 C 31.046126,43.873631 31.421498,43.932512 31.711001,44.050277 C 32.005410,44.168040 32.277737,44.332420 32.527986,44.543414 L 32.527986,41.724443 C 32.527986,41.376058 32.638389,41.084101 32.859197,40.848574 C 33.084912,40.608140 33.367053,40.487923 33.705624,40.487923 C 34.044195,40.487923 34.323884,40.605687 34.544691,40.841214 C 34.770405,41.076742 34.883262,41.371151 34.883262,41.724443 z M 30.916095,46.155305 C 30.415599,46.155305 30.020599,46.346670 29.731097,46.729403 C 29.446500,47.112134 29.304203,47.588098 29.304203,48.157289 C 29.304203,48.520394 29.367992,48.858964 29.495570,49.173001 C 29.623146,49.482131 29.807152,49.727472 30.047587,49.909025 C 30.292927,50.090577 30.582431,50.181354 30.916095,50.181354 C 31.421498,50.181354 31.816496,49.989987 32.101092,49.607256 C 32.385689,49.219617 32.527986,48.736293 32.527986,48.157289 C 32.527986,47.583190 32.385689,47.107228 32.101092,46.729403 C 31.816496,46.346670 31.421498,46.155305 30.916095,46.155305 z "
     id="path838" />
  <metadata
     id="metadata15">
    <rdf:RDF
       id="RDF16">
      <cc:Work
         rdf:about=""
         id="Work17">
        <dc:format
           id="format18">image/svg+xml</dc:format>
        <dc:type
           id="type20"
           rdf:resource="http://purl.org/dc/dcmitype/StillImage" />
      </cc:Work>
    </rdf:RDF>
  </metadata>
</svg>
