<?xml version="1.0" encoding="UTF-8" standalone="no"?>
<!DOCTYPE svg PUBLIC "-//W3C//DTD SVG 20010904//EN"
"http://www.w3.org/TR/2001/REC-SVG-20010904/DTD/svg10.dtd">
<svg
   sodipodi:docname="dvi.svg"
   height="60.0000000"
   sodipodi:version="0.32"
   width="60.0000000"
   _SVGFile__filename="scalable/mimetypes/dvi.svg"
   version="1.0"
   y="0"
   x="0"
   inkscape:version="0.39"
   id="svg1"
   sodipodi:docbase="/home/danny/work/flat/newscale/mimetypes"
   xmlns="http://www.w3.org/2000/svg"
   xmlns:cc="http://web.resource.org/cc/"
   xmlns:inkscape="http://www.inkscape.org/namespaces/inkscape"
   xmlns:sodipodi="http://sodipodi.sourceforge.net/DTD/sodipodi-0.dtd"
   xmlns:rdf="http://www.w3.org/1999/02/22-rdf-syntax-ns#"
   xmlns:dc="http://purl.org/dc/elements/1.1/"
   xmlns:xlink="http://www.w3.org/1999/xlink">
  <sodipodi:namedview
     bordercolor="#666666"
     inkscape:pageshadow="2"
     inkscape:window-y="0"
     pagecolor="#ffffff"
     inkscape:window-height="685"
     inkscape:zoom="6.9465337"
     inkscape:window-x="0"
     borderopacity="1.0"
     inkscape:cx="37.697540"
     inkscape:cy="31.806367"
     inkscape:window-width="1016"
     inkscape:pageopacity="0.0"
     id="base" />
  <defs
     id="defs3">
    <linearGradient
       id="linearGradient900">
      <stop
         style="stop-color:#000;stop-opacity:1;"
         id="stop901"
         offset="0" />
      <stop
         style="stop-color:#fff;stop-opacity:1;"
         id="stop902"
         offset="1" />
    </linearGradient>
    <linearGradient
       xlink:href="#linearGradient900"
       id="linearGradient903" />
    <linearGradient
       xlink:href="#linearGradient900"
       id="linearGradient904" />
    <linearGradient
       xlink:href="#linearGradient900"
       id="linearGradient905" />
    <linearGradient
       xlink:href="#linearGradient900"
       id="linearGradient906" />
    <linearGradient
       xlink:href="#linearGradient900"
       id="linearGradient907" />
  </defs>
  <path
     style="font-size:12.000000;fill:#b3b3b3;fill-opacity:1.0000000;fill-rule:evenodd;stroke:#333333;stroke-width:3.1250000;stroke-linecap:round;stroke-linejoin:round;stroke-opacity:1.0000000;"
     d="M 6.6785922,5.1165123 C 5.5705922,5.1165123 4.6785922,6.0085123 4.6785922,7.1165123 L 4.6785922,53.501354 C 4.6785922,54.609354 5.5705922,55.501354 6.6785922,55.501354 L 53.423324,55.501354 C 54.531324,55.501354 55.423324,54.609354 55.423324,53.501354 L 55.423324,7.1165123 C 55.423324,6.0085123 54.531324,5.1165123 53.423324,5.1165123 L 6.6785922,5.1165123 z "
     id="rect812" />
  <path
     id="path837"
     style="font-size:12.000000;font-weight:900;fill:#333333;stroke-width:1.0000000pt;font-family:VAG Rounded Black SSi;"
     d="M 44.892252,40.525114 L 44.892252,27.591165 C 44.892252,26.816222 45.132375,26.172253 45.612623,25.659260 C 46.103785,25.135353 46.731383,24.873400 47.495412,24.873400 C 48.270358,24.873400 48.897954,25.135353 49.378201,25.659260 C 49.869366,26.172253 50.114945,26.816222 50.114945,27.591165 L 50.114945,40.525114 C 50.114945,41.300057 49.869366,41.954940 49.378201,42.489764 C 48.897954,43.013670 48.270358,43.275624 47.495412,43.275624 C 46.731383,43.275624 46.103785,43.013670 45.612623,42.489764 C 45.132375,41.954940 44.892252,41.300057 44.892252,40.525114 z M 44.384717,20.141869 C 44.384717,19.290519 44.690329,18.553775 45.301553,17.931636 C 45.912778,17.309498 46.644065,16.998429 47.495412,16.998429 C 48.357676,16.998429 49.094420,17.304041 49.705644,17.915265 C 50.316869,18.526490 50.622481,19.268691 50.622481,20.141869 C 50.622481,21.047792 50.316869,21.800907 49.705644,22.401217 C 49.094420,23.001525 48.357676,23.301680 47.495412,23.301680 C 46.644065,23.301680 45.912778,22.996068 45.301553,22.384843 C 44.690329,21.773619 44.384717,21.025961 44.384717,20.141869 z M 33.120723,41.130881 L 28.863983,30.439910 C 28.329159,29.108312 28.061749,28.125989 28.061749,27.492933 C 28.061749,27.023600 28.176354,26.587011 28.405563,26.183167 C 28.645688,25.779323 28.967671,25.462796 29.371515,25.233585 C 29.775359,24.993463 30.211948,24.873400 30.681282,24.873400 C 31.270679,24.873400 31.772754,25.015291 32.187515,25.299075 C 32.602273,25.571942 32.935173,26.090392 33.186213,26.854424 L 35.969465,34.860372 L 36.034955,34.860372 L 38.818210,26.854424 C 39.091077,26.079478 39.429434,25.555571 39.833278,25.282704 C 40.237122,25.009834 40.739201,24.873400 41.339508,24.873400 C 41.721524,24.873400 42.065339,24.944347 42.370951,25.086237 C 42.687477,25.228128 42.960344,25.413681 43.189556,25.642889 C 43.418764,25.861183 43.604314,26.134051 43.746204,26.461494 C 43.888098,26.778020 43.959042,27.121834 43.959042,27.492933 C 43.959042,28.104158 43.686175,29.086484 43.140440,30.439910 L 38.883697,41.130881 C 38.337962,42.560708 37.377466,43.275624 36.002210,43.275624 C 34.648784,43.275624 33.688289,42.560708 33.120723,41.130881 z M 27.112167,19.748939 L 27.112167,40.525114 C 27.112167,41.310974 26.866588,41.965857 26.375426,42.489764 C 25.884261,43.013670 25.256666,43.275624 24.492634,43.275624 C 23.892326,43.275624 23.384790,43.111902 22.970032,42.784459 C 22.566185,42.457019 22.260573,42.064089 22.053196,41.605669 C 21.463799,42.326042 20.808916,42.839035 20.088546,43.144647 C 19.379086,43.461173 18.533196,43.619438 17.550870,43.619438 C 16.055554,43.619438 14.691214,43.199220 13.457851,42.358787 C 12.235402,41.507437 11.263990,40.350478 10.543620,38.887904 C 9.8341632,37.414416 9.4794351,35.804497 9.4794351,34.058141 C 9.4794351,32.333613 9.8341632,30.740065 10.543620,29.277491 C 11.263990,27.804003 12.240859,26.647044 13.474222,25.806611 C 14.707585,24.955261 16.066468,24.529586 17.550870,24.529586 C 18.576855,24.529586 19.411831,24.660563 20.055801,24.922516 C 20.710684,25.184469 21.316451,25.550114 21.873100,26.019445 L 21.873100,19.748939 C 21.873100,18.973993 22.118683,18.324566 22.609844,17.800660 C 23.111923,17.265839 23.739519,16.998429 24.492634,16.998429 C 25.245752,16.998429 25.867890,17.260382 26.359052,17.784289 C 26.861131,18.308195 27.112167,18.963079 27.112167,19.748939 z M 18.287614,29.604934 C 17.174314,29.604934 16.295679,30.030606 15.651710,30.881956 C 15.018654,31.733303 14.702128,32.792033 14.702128,34.058141 C 14.702128,34.865829 14.844019,35.618944 15.127803,36.317486 C 15.411584,37.005115 15.820888,37.550852 16.355709,37.954696 C 16.901447,38.358540 17.545413,38.560464 18.287614,38.560464 C 19.411831,38.560464 20.290466,38.134789 20.923521,37.283439 C 21.556574,36.421178 21.873100,35.346077 21.873100,34.058141 C 21.873100,32.781116 21.556574,31.722389 20.923521,30.881956 C 20.290466,30.030606 19.411831,29.604934 18.287614,29.604934 z " />
  <metadata
     id="metadata14">
    <rdf:RDF
       id="RDF15">
      <cc:Work
         rdf:about=""
         id="Work16">
        <dc:title
           id="title17">Part of the Flat Icon Collection (Thu Aug 26 14:40:35 2004)</dc:title>
        <dc:description
           id="description19" />
        <dc:subject
           id="subject20">
          <rdf:Bag
             id="Bag21">
            <rdf:li
               id="li22" />
          </rdf:Bag>
        </dc:subject>
        <dc:publisher
           id="publisher23">
          <cc:Agent
             rdf:about=""
             id="Agent24">
            <dc:title
               id="title25" />
          </cc:Agent>
        </dc:publisher>
        <dc:creator
           id="creator26">
          <cc:Agent
             rdf:about=""
             id="Agent27">
            <dc:title
               id="title28">Danny Allen</dc:title>
          </cc:Agent>
        </dc:creator>
        <dc:rights
           id="rights30">
          <cc:Agent
             rdf:about=""
             id="Agent31">
            <dc:title
               id="title32">Danny Allen</dc:title>
          </cc:Agent>
        </dc:rights>
        <dc:date
           id="date34" />
        <dc:format
           id="format35">image/svg+xml</dc:format>
        <dc:type
           rdf:resource="http://purl.org/dc/dcmitype/StillImage"
           id="type37" />
        <cc:license
           rdf:resource="http://creativecommons.org/licenses/LGPL/2.1/"
           id="license38">
          <dc:date
             id="date39" />
        </cc:license>
        <dc:language
           id="language40">en</dc:language>
      </cc:Work>
    </rdf:RDF>
  </metadata>
</svg>
