<?xml version="1.0" encoding="UTF-8" standalone="no"?>
<!DOCTYPE svg PUBLIC "-//W3C//DTD SVG 20010904//EN"
"http://www.w3.org/TR/2001/REC-SVG-20010904/DTD/svg10.dtd">
<svg
   sodipodi:docname="font.svg"
   height="60.0000000"
   sodipodi:version="0.32"
   width="60.0000000"
   _SVGFile__filename="scalable/mimetypes/font.svg"
   version="1.0"
   y="0"
   x="0"
   inkscape:version="0.39"
   id="svg1"
   sodipodi:docbase="/home/danny/work/flat/newscale/mimetypes"
   xmlns="http://www.w3.org/2000/svg"
   xmlns:cc="http://web.resource.org/cc/"
   xmlns:inkscape="http://www.inkscape.org/namespaces/inkscape"
   xmlns:sodipodi="http://sodipodi.sourceforge.net/DTD/sodipodi-0.dtd"
   xmlns:rdf="http://www.w3.org/1999/02/22-rdf-syntax-ns#"
   xmlns:dc="http://purl.org/dc/elements/1.1/"
   xmlns:xlink="http://www.w3.org/1999/xlink">
  <sodipodi:namedview
     bordercolor="#666666"
     inkscape:pageshadow="2"
     inkscape:window-y="0"
     pagecolor="#ffffff"
     inkscape:window-height="685"
     inkscape:zoom="6.9465337"
     inkscape:window-x="0"
     borderopacity="1.0"
     inkscape:cx="37.697540"
     inkscape:cy="31.806367"
     inkscape:window-width="1016"
     inkscape:pageopacity="0.0"
     id="base" />
  <defs
     id="defs3">
    <linearGradient
       id="linearGradient900">
      <stop
         style="stop-color:#000;stop-opacity:1;"
         id="stop901"
         offset="0" />
      <stop
         style="stop-color:#fff;stop-opacity:1;"
         id="stop902"
         offset="1" />
    </linearGradient>
    <linearGradient
       xlink:href="#linearGradient900"
       id="linearGradient903" />
    <linearGradient
       xlink:href="#linearGradient900"
       id="linearGradient904" />
    <linearGradient
       xlink:href="#linearGradient900"
       id="linearGradient905" />
    <linearGradient
       xlink:href="#linearGradient900"
       id="linearGradient906" />
    <linearGradient
       xlink:href="#linearGradient900"
       id="linearGradient907" />
  </defs>
  <path
     style="font-size:12.000000;fill:#b3b3b3;fill-opacity:1.0000000;fill-rule:evenodd;stroke:#333333;stroke-width:3.1250000;stroke-linecap:round;stroke-linejoin:round;stroke-opacity:1.0000000;"
     d="M 6.6785922,5.1165123 C 5.5705922,5.1165123 4.6785922,6.0085123 4.6785922,7.1165123 L 4.6785922,53.501354 C 4.6785922,54.609354 5.5705922,55.501354 6.6785922,55.501354 L 53.423324,55.501354 C 54.531324,55.501354 55.423324,54.609354 55.423324,53.501354 L 55.423324,7.1165123 C 55.423324,6.0085123 54.531324,5.1165123 53.423324,5.1165123 L 6.6785922,5.1165123 z "
     id="rect812" />
  <path
     id="path840"
     style="font-size:12.000000;font-weight:900;fill:#333333;stroke-width:1.0000000pt;font-family:VAG Rounded Black SSi;"
     d="M 45.738817,25.246976 L 45.738817,17.409104 L 45.290592,17.409104 C 44.652578,17.409104 44.155898,17.259695 43.800548,16.960879 C 43.437124,16.662063 43.255410,16.209800 43.255410,15.604092 C 43.255410,14.990307 43.437124,14.538044 43.800548,14.247304 C 44.155898,13.956564 44.652578,13.811194 45.290592,13.811194 L 45.738817,13.811194 L 45.738817,11.255102 C 45.738817,10.673622 45.916490,10.189055 46.271839,9.8014012 C 46.627188,9.4137476 47.091566,9.2199207 47.664969,9.2199207 C 48.246450,9.2199207 48.714865,9.4137476 49.070215,9.8014012 C 49.425564,10.189055 49.603237,10.673622 49.603237,11.255102 L 49.603237,13.811194 L 50.669285,13.811194 C 51.323452,13.811194 51.824170,13.956564 52.171444,14.247304 C 52.526793,14.538044 52.704466,14.990307 52.704466,15.604092 C 52.704466,16.209800 52.526793,16.662063 52.171444,16.960879 C 51.824170,17.259695 51.323452,17.409104 50.669285,17.409104 L 49.603237,17.409104 L 49.603237,25.246976 C 49.603237,25.820379 49.421526,26.304946 49.058101,26.700677 C 48.702752,27.088331 48.238374,27.282158 47.664969,27.282158 C 47.099642,27.282158 46.635266,27.088331 46.271839,26.700677 C 45.916490,26.304946 45.738817,25.820379 45.738817,25.246976 z M 30.947408,25.246976 L 30.947408,15.676776 C 30.947408,15.103372 31.125081,14.626881 31.480430,14.247304 C 31.843857,13.859650 32.308233,13.665823 32.873562,13.665823 C 33.341976,13.665823 33.745783,13.791003 34.084979,14.041363 C 34.432252,14.283646 34.674535,14.570349 34.811830,14.901469 C 35.441767,13.908107 36.552232,13.411426 38.143229,13.411426 C 39.055829,13.411426 39.875554,13.576986 40.602406,13.908107 C 41.337333,14.239228 41.910736,14.748023 42.322618,15.434493 C 42.742577,16.112887 42.952557,16.968955 42.952557,18.002698 L 42.952557,25.246976 C 42.952557,25.828457 42.770843,26.313024 42.407418,26.700677 C 42.043992,27.088331 41.579616,27.282158 41.014288,27.282158 C 40.448959,27.282158 39.984583,27.084293 39.621156,26.688562 C 39.257732,26.292832 39.076020,25.812303 39.076020,25.246976 L 39.076020,19.068746 C 39.076020,18.366124 38.886231,17.800795 38.506653,17.372761 C 38.135151,16.936651 37.614242,16.718596 36.943925,16.718596 C 36.281683,16.718596 35.760773,16.936651 35.381195,17.372761 C 35.001617,17.808871 34.811830,18.374200 34.811830,19.068746 L 34.811830,25.246976 C 34.811830,25.820379 34.630117,26.304946 34.266692,26.700677 C 33.911343,27.088331 33.446965,27.282158 32.873562,27.282158 C 32.308233,27.282158 31.843857,27.088331 31.480430,26.700677 C 31.125081,26.304946 30.947408,25.820379 30.947408,25.246976 z M 23.145877,13.411426 C 24.115011,13.411426 24.999348,13.593138 25.798884,13.956564 C 26.606495,14.311913 27.297003,14.812632 27.870407,15.458721 C 28.451888,16.104811 28.896073,16.851852 29.202966,17.699844 C 29.517935,18.539760 29.675420,19.460437 29.675420,20.461876 C 29.675420,21.762131 29.400831,22.957397 28.851655,24.047673 C 28.310555,25.129872 27.543325,25.981901 26.549962,26.603764 C 25.556599,27.225624 24.421905,27.536556 23.145877,27.536556 C 22.184821,27.536556 21.304523,27.358880 20.504989,27.003531 C 19.713528,26.648182 19.023021,26.143424 18.433465,25.489259 C 17.843907,24.827018 17.395682,24.067862 17.088791,23.211795 C 16.781897,22.347649 16.628452,21.431011 16.628452,20.461876 C 16.628452,19.177773 16.903039,17.994622 17.452215,16.912423 C 18.001391,15.822147 18.768623,14.966078 19.753908,14.344217 C 20.747271,13.722356 21.877928,13.411426 23.145877,13.411426 z M 23.145877,17.166820 C 22.322114,17.166820 21.671987,17.481789 21.195496,18.111726 C 20.727082,18.741663 20.492873,19.525046 20.492873,20.461876 C 20.492873,21.059509 20.597864,21.616760 20.807842,22.133632 C 21.017822,22.642428 21.320676,23.046234 21.716405,23.345050 C 22.120212,23.643866 22.596701,23.793275 23.145877,23.793275 C 23.977718,23.793275 24.627845,23.478306 25.096261,22.848368 C 25.564675,22.210356 25.798884,21.414858 25.798884,20.461876 C 25.798884,19.516970 25.564675,18.733587 25.096261,18.111726 C 24.627845,17.481789 23.977718,17.166820 23.145877,17.166820 z M 9.8808562,25.246976 L 9.8808562,17.409104 L 9.4326314,17.409104 C 8.7946177,17.409104 8.2979372,17.259695 7.9425881,16.960879 C 7.5791633,16.662063 7.3974499,16.209800 7.3974499,15.604092 C 7.3974499,14.990307 7.5791633,14.538044 7.9425881,14.247304 C 8.2979372,13.956564 8.7946177,13.811194 9.4326314,13.811194 L 9.8808562,13.811194 L 9.8808562,12.054638 C 9.8808562,11.481234 9.9777696,10.932058 10.171596,10.407110 C 10.365423,9.8821623 10.640010,9.4298998 10.995359,9.0503224 C 11.358786,8.6626688 11.782782,8.3638523 12.267349,8.1538733 C 12.751916,7.9438942 13.293014,7.8389048 13.890648,7.8389048 C 14.633651,7.8389048 15.247436,7.9721607 15.732003,8.2386727 C 16.224645,8.4971084 16.470968,8.9655232 16.470968,9.6439170 C 16.470968,10.855335 15.861221,11.461043 14.641727,11.461043 C 14.326757,11.461043 14.096588,11.549881 13.951219,11.727555 C 13.813926,11.905230 13.745277,12.236351 13.745277,12.720918 L 13.745277,13.811194 L 14.811324,13.811194 C 15.465491,13.811194 15.966210,13.956564 16.313483,14.247304 C 16.668832,14.538044 16.846506,14.990307 16.846506,15.604092 C 16.846506,16.209800 16.668832,16.662063 16.313483,16.960879 C 15.966210,17.259695 15.465491,17.409104 14.811324,17.409104 L 13.745277,17.409104 L 13.745277,25.246976 C 13.745277,25.820379 13.563566,26.304946 13.200141,26.700677 C 12.844792,27.088331 12.380414,27.282158 11.807009,27.282158 C 11.241682,27.282158 10.777306,27.088331 10.413879,26.700677 C 10.058530,26.304946 9.8808562,25.820379 9.8808562,25.246976 z " />
  <path
     id="path841"
     style="font-size:12.000000;font-weight:300;fill:#333333;stroke-width:1.0000000pt;font-family:URW Bookman L;"
     d="M 44.714551,42.490656 C 40.687935,42.926873 40.520159,42.960428 39.043733,43.329535 C 35.319114,44.269078 33.406471,45.913280 33.406471,48.161474 C 33.406471,50.577443 35.587555,52.322310 38.573962,52.322310 C 40.822155,52.322310 42.466357,51.617652 44.714551,49.738565 C 45.352098,51.550542 46.492973,52.322310 48.472726,52.322310 C 49.882041,52.322310 50.989360,51.919648 51.928904,51.013660 L 51.291357,50.141226 C 50.720919,50.644553 50.351813,50.812329 49.781376,50.812329 C 49.076718,50.812329 48.472726,50.443223 48.204285,49.872785 C 47.969399,49.403014 47.902288,48.966797 47.902288,47.523926 L 47.902288,40.410238 C 47.902288,38.396930 47.365406,37.356721 45.989646,36.584953 C 44.748106,35.880295 43.003239,35.444079 41.459703,35.444079 C 40.016832,35.444079 38.204855,35.846740 36.862650,36.417177 C 35.285559,37.121835 34.144684,38.531151 34.144684,39.705580 C 34.144684,40.510904 34.882897,41.182006 35.755331,41.182006 C 36.694874,41.182006 37.466642,40.410238 37.466642,39.470694 L 37.433087,38.531151 C 37.433087,37.558052 38.943068,36.786284 40.822155,36.786284 C 43.204570,36.786284 44.714551,37.960714 44.714551,39.806246 L 44.714551,42.490656 z M 44.714551,48.228584 C 42.835463,50.007006 41.426148,50.711664 39.748391,50.711664 C 38.137745,50.711664 36.829095,49.436569 36.829095,47.825922 C 36.829095,45.577729 39.647726,44.101303 44.714551,43.665086 L 44.714551,48.228584 z M 22.467498,29.169269 L 19.346871,29.169269 L 13.575388,43.967082 C 11.327194,49.705010 10.790312,50.476778 8.5421185,50.912994 L 8.1730120,50.980105 L 8.1730120,52.020314 L 17.165787,52.020314 L 17.165787,50.980105 C 15.957803,50.812329 15.387365,50.678109 15.018259,50.443223 C 14.514932,50.107671 14.179381,49.503679 14.179381,48.899687 C 14.179381,48.396360 14.414267,47.456816 14.816928,46.416607 L 15.890692,43.530865 L 24.547916,43.530865 L 26.225673,47.859477 C 26.427004,48.429915 26.594780,49.033907 26.594780,49.302348 C 26.594780,49.772120 26.326338,50.208337 25.890122,50.476778 C 25.588126,50.711664 25.118354,50.812329 23.943924,50.980105 L 23.943924,52.020314 L 33.372916,52.020314 L 33.372916,50.980105 C 31.191833,50.644553 30.789171,50.275447 29.581186,47.154820 L 22.467498,29.169269 z M 16.394019,42.087995 L 20.118639,32.021455 L 23.943924,42.087995 L 16.394019,42.087995 z " />
  <metadata
     id="metadata15">
    <rdf:RDF
       id="RDF16">
      <cc:Work
         rdf:about=""
         id="Work17">
        <dc:title
           id="title18">Part of the Flat Icon Collection (Thu Aug 26 14:40:35 2004)</dc:title>
        <dc:description
           id="description20" />
        <dc:subject
           id="subject21">
          <rdf:Bag
             id="Bag22">
            <rdf:li
               id="li23" />
          </rdf:Bag>
        </dc:subject>
        <dc:publisher
           id="publisher24">
          <cc:Agent
             rdf:about=""
             id="Agent25">
            <dc:title
               id="title26" />
          </cc:Agent>
        </dc:publisher>
        <dc:creator
           id="creator27">
          <cc:Agent
             rdf:about=""
             id="Agent28">
            <dc:title
               id="title29">Danny Allen</dc:title>
          </cc:Agent>
        </dc:creator>
        <dc:rights
           id="rights31">
          <cc:Agent
             rdf:about=""
             id="Agent32">
            <dc:title
               id="title33">Danny Allen</dc:title>
          </cc:Agent>
        </dc:rights>
        <dc:date
           id="date35" />
        <dc:format
           id="format36">image/svg+xml</dc:format>
        <dc:type
           rdf:resource="http://purl.org/dc/dcmitype/StillImage"
           id="type38" />
        <cc:license
           rdf:resource="http://creativecommons.org/licenses/LGPL/2.1/"
           id="license39">
          <dc:date
             id="date40" />
        </cc:license>
        <dc:language
           id="language41">en</dc:language>
      </cc:Work>
    </rdf:RDF>
  </metadata>
</svg>
