<?xml version="1.0" encoding="UTF-8" standalone="no"?>
<!DOCTYPE svg PUBLIC "-//W3C//DTD SVG 20010904//EN"
"http://www.w3.org/TR/2001/REC-SVG-20010904/DTD/svg10.dtd">
<svg
   sodipodi:docname="font_bitmap.svg"
   height="60.0000000"
   sodipodi:version="0.32"
   width="60.0000000"
   _SVGFile__filename="scalable/mimetypes/font_bitmap.svg"
   version="1.0"
   y="0"
   x="0"
   inkscape:version="0.39"
   id="svg1"
   sodipodi:docbase="/home/danny/work/flat/newscale/mimetypes"
   xmlns="http://www.w3.org/2000/svg"
   xmlns:cc="http://web.resource.org/cc/"
   xmlns:inkscape="http://www.inkscape.org/namespaces/inkscape"
   xmlns:sodipodi="http://sodipodi.sourceforge.net/DTD/sodipodi-0.dtd"
   xmlns:rdf="http://www.w3.org/1999/02/22-rdf-syntax-ns#"
   xmlns:dc="http://purl.org/dc/elements/1.1/"
   xmlns:xlink="http://www.w3.org/1999/xlink">
  <sodipodi:namedview
     bordercolor="#666666"
     inkscape:pageshadow="2"
     inkscape:window-y="0"
     pagecolor="#ffffff"
     inkscape:window-height="685"
     inkscape:zoom="6.9465337"
     inkscape:window-x="0"
     borderopacity="1.0"
     inkscape:cx="37.337080"
     inkscape:cy="28.683819"
     inkscape:window-width="1016"
     inkscape:pageopacity="0.0"
     id="base" />
  <defs
     id="defs3">
    <linearGradient
       id="linearGradient900">
      <stop
         style="stop-color:#000;stop-opacity:1;"
         id="stop901"
         offset="0" />
      <stop
         style="stop-color:#fff;stop-opacity:1;"
         id="stop902"
         offset="1" />
    </linearGradient>
    <linearGradient
       xlink:href="#linearGradient900"
       id="linearGradient903" />
    <linearGradient
       xlink:href="#linearGradient900"
       id="linearGradient904" />
    <linearGradient
       xlink:href="#linearGradient900"
       id="linearGradient905" />
    <linearGradient
       xlink:href="#linearGradient900"
       id="linearGradient906" />
    <linearGradient
       xlink:href="#linearGradient900"
       id="linearGradient907" />
  </defs>
  <path
     style="font-size:12.000000;fill:#b3b3b3;fill-opacity:1.0000000;fill-rule:evenodd;stroke:#333333;stroke-width:3.1250000;stroke-linejoin:round;stroke-opacity:1.0000000;stroke-linecap:round;"
     d="M 6.6785922,5.1165123 C 5.5705922,5.1165123 4.6785922,6.0085123 4.6785922,7.1165123 L 4.6785922,53.501354 C 4.6785922,54.609354 5.5705922,55.501354 6.6785922,55.501354 L 53.423324,55.501354 C 54.531324,55.501354 55.423324,54.609354 55.423324,53.501354 L 55.423324,7.1165123 C 55.423324,6.0085123 54.531324,5.1165123 53.423324,5.1165123 L 6.6785922,5.1165123 z "
     id="rect812" />
  <path
     id="path896"
     style="font-size:12.000000;font-weight:900;fill:#333333;stroke-width:1.0000000pt;font-family:VAG Rounded Black SSi;"
     d="M 45.738817,25.246976 L 45.738817,17.409104 L 45.290592,17.409104 C 44.652578,17.409104 44.155898,17.259695 43.800548,16.960879 C 43.437124,16.662063 43.255410,16.209800 43.255410,15.604092 C 43.255410,14.990307 43.437124,14.538044 43.800548,14.247304 C 44.155898,13.956564 44.652578,13.811194 45.290592,13.811194 L 45.738817,13.811194 L 45.738817,11.255102 C 45.738817,10.673622 45.916490,10.189055 46.271839,9.8014012 C 46.627188,9.4137476 47.091566,9.2199207 47.664969,9.2199207 C 48.246450,9.2199207 48.714865,9.4137476 49.070215,9.8014012 C 49.425564,10.189055 49.603237,10.673622 49.603237,11.255102 L 49.603237,13.811194 L 50.669285,13.811194 C 51.323452,13.811194 51.824170,13.956564 52.171444,14.247304 C 52.526793,14.538044 52.704466,14.990307 52.704466,15.604092 C 52.704466,16.209800 52.526793,16.662063 52.171444,16.960879 C 51.824170,17.259695 51.323452,17.409104 50.669285,17.409104 L 49.603237,17.409104 L 49.603237,25.246976 C 49.603237,25.820379 49.421526,26.304946 49.058101,26.700677 C 48.702752,27.088331 48.238374,27.282158 47.664969,27.282158 C 47.099642,27.282158 46.635266,27.088331 46.271839,26.700677 C 45.916490,26.304946 45.738817,25.820379 45.738817,25.246976 z M 30.947408,25.246976 L 30.947408,15.676776 C 30.947408,15.103372 31.125081,14.626881 31.480430,14.247304 C 31.843857,13.859650 32.308233,13.665823 32.873562,13.665823 C 33.341976,13.665823 33.745783,13.791003 34.084979,14.041363 C 34.432253,14.283646 34.674535,14.570349 34.811831,14.901469 C 35.441767,13.908107 36.552232,13.411426 38.143229,13.411426 C 39.055829,13.411426 39.875554,13.576986 40.602406,13.908107 C 41.337333,14.239228 41.910736,14.748023 42.322618,15.434493 C 42.742577,16.112887 42.952557,16.968955 42.952557,18.002698 L 42.952557,25.246976 C 42.952557,25.828457 42.770843,26.313024 42.407418,26.700677 C 42.043992,27.088331 41.579616,27.282158 41.014289,27.282158 C 40.448959,27.282158 39.984583,27.084293 39.621157,26.688562 C 39.257732,26.292832 39.076020,25.812303 39.076020,25.246976 L 39.076020,19.068746 C 39.076020,18.366124 38.886231,17.800795 38.506653,17.372761 C 38.135151,16.936651 37.614242,16.718596 36.943925,16.718596 C 36.281683,16.718596 35.760774,16.936651 35.381196,17.372761 C 35.001617,17.808871 34.811831,18.374200 34.811831,19.068746 L 34.811831,25.246976 C 34.811831,25.820379 34.630117,26.304946 34.266692,26.700677 C 33.911343,27.088331 33.446965,27.282158 32.873562,27.282158 C 32.308233,27.282158 31.843857,27.088331 31.480430,26.700677 C 31.125081,26.304946 30.947408,25.820379 30.947408,25.246976 z M 23.145877,13.411426 C 24.115012,13.411426 24.999348,13.593138 25.798884,13.956564 C 26.606495,14.311913 27.297003,14.812632 27.870408,15.458721 C 28.451888,16.104811 28.896073,16.851852 29.202966,17.699844 C 29.517935,18.539760 29.675420,19.460437 29.675420,20.461876 C 29.675420,21.762131 29.400831,22.957397 28.851655,24.047673 C 28.310555,25.129872 27.543325,25.981901 26.549962,26.603764 C 25.556599,27.225624 24.421905,27.536556 23.145877,27.536556 C 22.184821,27.536556 21.304523,27.358880 20.504989,27.003531 C 19.713528,26.648182 19.023021,26.143424 18.433465,25.489259 C 17.843907,24.827018 17.395682,24.067862 17.088791,23.211795 C 16.781897,22.347649 16.628452,21.431011 16.628452,20.461876 C 16.628452,19.177773 16.903039,17.994622 17.452215,16.912423 C 18.001391,15.822147 18.768623,14.966078 19.753908,14.344217 C 20.747271,13.722356 21.877928,13.411426 23.145877,13.411426 z M 23.145877,17.166820 C 22.322115,17.166820 21.671987,17.481789 21.195496,18.111726 C 20.727082,18.741663 20.492873,19.525046 20.492873,20.461876 C 20.492873,21.059509 20.597864,21.616760 20.807842,22.133632 C 21.017822,22.642428 21.320676,23.046234 21.716405,23.345050 C 22.120212,23.643866 22.596701,23.793275 23.145877,23.793275 C 23.977718,23.793275 24.627845,23.478306 25.096261,22.848368 C 25.564675,22.210356 25.798884,21.414858 25.798884,20.461876 C 25.798884,19.516970 25.564675,18.733587 25.096261,18.111726 C 24.627845,17.481789 23.977718,17.166820 23.145877,17.166820 z M 9.8808563,25.246976 L 9.8808563,17.409104 L 9.4326315,17.409104 C 8.7946177,17.409104 8.2979373,17.259695 7.9425881,16.960879 C 7.5791634,16.662063 7.3974500,16.209800 7.3974500,15.604092 C 7.3974500,14.990307 7.5791634,14.538044 7.9425881,14.247304 C 8.2979373,13.956564 8.7946177,13.811194 9.4326315,13.811194 L 9.8808563,13.811194 L 9.8808563,12.054638 C 9.8808563,11.481234 9.9777697,10.932058 10.171596,10.407110 C 10.365423,9.8821623 10.640010,9.4298998 10.995359,9.0503224 C 11.358786,8.6626688 11.782782,8.3638523 12.267349,8.1538733 C 12.751916,7.9438942 13.293014,7.8389048 13.890648,7.8389048 C 14.633651,7.8389048 15.247436,7.9721607 15.732003,8.2386727 C 16.224646,8.4971084 16.470968,8.9655232 16.470968,9.6439170 C 16.470968,10.855335 15.861221,11.461043 14.641727,11.461043 C 14.326757,11.461043 14.096588,11.549881 13.951219,11.727555 C 13.813926,11.905230 13.745277,12.236351 13.745277,12.720918 L 13.745277,13.811194 L 14.811325,13.811194 C 15.465492,13.811194 15.966210,13.956564 16.313483,14.247304 C 16.668832,14.538044 16.846506,14.990307 16.846506,15.604092 C 16.846506,16.209800 16.668832,16.662063 16.313483,16.960879 C 15.966210,17.259695 15.465492,17.409104 14.811325,17.409104 L 13.745277,17.409104 L 13.745277,25.246976 C 13.745277,25.820379 13.563566,26.304946 13.200141,26.700677 C 12.844792,27.088331 12.380414,27.282158 11.807009,27.282158 C 11.241682,27.282158 10.777306,27.088331 10.413879,26.700677 C 10.058530,26.304946 9.8808563,25.820379 9.8808563,25.246976 z " />
  <g
     id="g999"
     transform="translate(7.656308e-2,0.000000)">
    <g
       id="g1128"
       transform="matrix(0.735980,0.000000,0.000000,0.744451,36.78138,52.90003)">
      <rect
         style="fill:#333333;fill-rule:evenodd;stroke-width:1.0000000pt;"
         rx="1.0000000"
         transform="matrix(0.731338,0.000000,0.000000,0.731338,14.37500,-19.43013)"
         height="5.7582674"
         width="5.7582674"
         y="15.553371"
         x="-24.472637"
         id="rect1079"
         ry="1.0000000" />
      <rect
         style="fill:#333333;fill-rule:evenodd;stroke-width:1.0000000pt;"
         rx="0.56250000"
         transform="matrix(1.300157,0.000000,0.000000,1.300157,39.79269,-2.709277)"
         height="3.2390254"
         width="3.2390254"
         y="-4.2391086"
         x="-22.176687"
         id="rect980"
         ry="0.56250000" />
      <rect
         style="fill:#333333;fill-rule:evenodd;stroke-width:1.0000000pt;"
         rx="0.56250000"
         transform="matrix(1.300157,0.000000,0.000000,1.300157,39.13096,-2.047544)"
         height="3.2390254"
         width="3.2390254"
         y="-7.9096565"
         x="-21.667723"
         id="rect981"
         ry="0.56250000" />
      <rect
         style="fill:#333333;fill-rule:evenodd;stroke-width:1.0000000pt;"
         rx="0.56250000"
         transform="matrix(1.300157,0.000000,0.000000,1.300157,39.13096,-2.047544)"
         height="3.2390254"
         width="3.2390254"
         y="-11.071242"
         x="-21.667723"
         id="rect982"
         ry="0.56250000" />
      <rect
         style="fill:#333333;fill-rule:evenodd;stroke-width:1.0000000pt;"
         rx="0.56250000"
         transform="matrix(1.300157,0.000000,0.000000,1.300157,39.13096,-2.130261)"
         height="3.2390254"
         width="3.2390254"
         y="-14.232826"
         x="-21.667723"
         id="rect983"
         ry="0.56250000" />
      <rect
         style="fill:#333333;fill-rule:evenodd;stroke-width:1.0000000pt;"
         rx="0.56250000"
         transform="matrix(0.866020,0.000000,0.000000,0.866020,23.83008,-9.485640)"
         height="3.2390254"
         width="3.2390254"
         y="-14.846672"
         x="-17.715490"
         id="rect984"
         ry="0.56250000" />
      <rect
         style="fill:#333333;fill-rule:evenodd;stroke-width:1.0000000pt;"
         rx="0.56250000"
         transform="matrix(0.866020,0.000000,0.000000,0.866020,21.18314,-10.39552)"
         height="3.2390254"
         width="3.2390254"
         y="-14.846672"
         x="-17.715490"
         id="rect985"
         ry="0.56250000" />
      <rect
         style="fill:#333333;fill-rule:evenodd;stroke-width:1.0000000pt;"
         rx="0.37467507"
         transform="matrix(1.300157,0.000000,0.000000,1.300157,41.03344,-2.543844)"
         height="2.1574793"
         width="2.1574793"
         y="-15.928228"
         x="-29.147751"
         id="rect986"
         ry="0.37467507" />
      <rect
         style="fill:#333333;fill-rule:evenodd;stroke-width:1.0000000pt;"
         rx="0.56250000"
         transform="matrix(0.866020,0.000000,0.000000,0.866020,14.73124,8.877446)"
         height="3.2390254"
         width="3.2390254"
         y="-14.846672"
         x="-17.715490"
         id="rect987"
         ry="0.56250000" />
      <rect
         style="fill:#333333;fill-rule:evenodd;stroke-width:1.0000000pt;"
         rx="0.56250000"
         transform="matrix(0.866020,0.000000,0.000000,0.866020,13.82135,2.260118)"
         height="3.2390254"
         width="3.2390254"
         y="-14.846672"
         x="-17.715490"
         id="rect988"
         ry="0.56250000" />
      <rect
         style="fill:#333333;fill-rule:evenodd;stroke-width:1.0000000pt;"
         rx="0.37467507"
         transform="matrix(1.300157,0.000000,0.000000,1.300157,46.65817,1.426553)"
         height="2.1574793"
         width="2.1574793"
         y="-4.2538681"
         x="-26.017963"
         id="rect989"
         ry="0.37467507" />
      <rect
         style="fill:#333333;fill-rule:evenodd;stroke-width:1.0000000pt;"
         rx="0.37467507"
         transform="matrix(0.993442,0.000000,0.000000,0.993442,31.25151,-2.638742)"
         height="2.1574793"
         width="2.1574793"
         y="-0.30939898"
         x="-15.711448"
         id="rect990"
         ry="0.37467507" />
      <rect
         style="fill:#333333;fill-rule:evenodd;stroke-width:1.0000000pt;"
         rx="0.37467507"
         transform="matrix(0.993442,0.000000,0.000000,0.993442,17.76870,-2.638742)"
         height="2.1574793"
         width="2.1574793"
         y="-0.30939898"
         x="-15.711448"
         id="rect992"
         ry="0.37467507" />
      <rect
         style="fill:#333333;fill-rule:evenodd;stroke-width:1.0000000pt;"
         rx="0.37467507"
         transform="matrix(0.993442,0.000000,0.000000,0.993442,19.91933,-2.556026)"
         height="2.1574793"
         width="2.1574793"
         y="-0.30939898"
         x="-15.711448"
         id="rect993"
         ry="0.37467507" />
      <rect
         style="fill:#333333;fill-rule:evenodd;stroke-width:1.0000000pt;"
         rx="0.37467507"
         transform="matrix(0.993442,0.000000,0.000000,0.993442,16.77610,-11.40670)"
         height="2.1574793"
         width="2.1574793"
         y="-0.30939898"
         x="-15.711448"
         id="rect994"
         ry="0.37467507" />
      <rect
         style="fill:#333333;fill-rule:evenodd;stroke-width:1.0000000pt;"
         rx="0.37467507"
         transform="matrix(0.993442,0.000000,0.000000,0.993442,16.61067,-22.07714)"
         height="2.1574793"
         width="2.1574793"
         y="-0.30939898"
         x="-15.711448"
         id="rect995"
         ry="0.37467507" />
      <rect
         style="fill:#333333;fill-rule:evenodd;stroke-width:1.0000000pt;"
         rx="0.37467507"
         transform="matrix(0.993442,0.000000,0.000000,0.993442,22.06996,-3.052325)"
         height="2.1574793"
         width="2.1574793"
         y="-0.30939898"
         x="-15.711448"
         id="rect996"
         ry="0.37467507" />
      <rect
         style="fill:#333333;fill-rule:evenodd;stroke-width:1.0000000pt;"
         rx="0.37467507"
         transform="matrix(1.108461,0.000000,0.000000,1.108461,20.65111,-12.61186)"
         height="2.1574793"
         width="2.1574793"
         y="-0.30939898"
         x="-15.711448"
         id="rect997"
         ry="0.37467507" />
      <rect
         style="fill:#333333;fill-rule:evenodd;stroke-width:1.0000000pt;"
         rx="0.39677227"
         transform="matrix(1.300157,0.000000,0.000000,1.300157,37.31120,-2.543844)"
         height="2.2847209"
         width="2.2847209"
         y="-8.9617844"
         x="-22.411030"
         id="rect998"
         ry="0.39677227" />
      <rect
         style="fill:#333333;fill-rule:evenodd;stroke-width:1.0000000pt;"
         rx="0.37467507"
         transform="matrix(1.146800,0.000000,0.000000,1.146800,26.54735,-4.824642)"
         height="2.1574793"
         width="2.1574793"
         y="-0.30939898"
         x="-15.711448"
         id="rect999"
         ry="0.37467507" />
      <rect
         style="fill:#333333;fill-rule:evenodd;stroke-width:1.0000000pt;"
         rx="0.35257822"
         transform="matrix(1.300157,0.000000,0.000000,1.300157,40.95072,-2.543844)"
         height="2.0302398"
         width="2.0302398"
         y="-8.7709208"
         x="-27.207315"
         id="rect1000"
         ry="0.35257822" />
      <rect
         style="fill:#333333;fill-rule:evenodd;stroke-width:1.0000000pt;"
         rx="0.37467507"
         transform="matrix(1.798571,0.000000,0.000000,1.798571,26.19989,-19.84284)"
         height="2.1574793"
         width="2.1574793"
         y="-0.30939898"
         x="-15.711448"
         id="rect1001"
         ry="0.37467507" />
      <rect
         style="fill:#333333;fill-rule:evenodd;stroke-width:1.0000000pt;"
         rx="0.37467507"
         transform="matrix(0.725066,0.000000,0.000000,0.725066,29.18556,-2.225477)"
         height="2.1574793"
         width="2.1574793"
         y="-0.30939898"
         x="-15.711448"
         id="rect1002"
         ry="0.37467507" />
    </g>
    <g
       id="g1187"
       transform="translate(40.72421,34.01132)">
      <rect
         style="fill:#333333;fill-opacity:1.0000000;fill-rule:evenodd;stroke-width:1.0000000pt;"
         rx="0.51586622"
         transform="translate(-19.34062,-1.781373)"
         height="2.9704959"
         width="2.9704959"
         y="9.1452684"
         x="3.7316308"
         id="rect1152"
         ry="0.51586622" />
      <rect
         style="fill:#333333;fill-opacity:1.0000000;fill-rule:evenodd;stroke-width:1.0000000pt;"
         rx="0.51586622"
         transform="translate(0.636204,0.000000)"
         height="2.9704959"
         width="2.9704959"
         y="7.3638954"
         x="-19.152296"
         id="rect1153"
         ry="0.51586622" />
      <rect
         style="fill:#333333;fill-opacity:1.0000000;fill-rule:evenodd;stroke-width:1.0000000pt;"
         rx="0.51586622"
         transform="translate(1.208789,0.000000)"
         height="2.9704959"
         width="2.9704959"
         y="7.3638954"
         x="-22.695602"
         id="rect1154"
         ry="0.51586622" />
      <rect
         style="fill:#333333;fill-opacity:1.0000000;fill-rule:evenodd;stroke-width:1.0000000pt;"
         rx="0.51586622"
         transform="translate(1.844993,0.000000)"
         height="2.9704959"
         width="2.9704959"
         y="7.3638954"
         x="-26.238911"
         id="rect1155"
         ry="0.51586622" />
      <rect
         style="fill:#333333;fill-opacity:1.0000000;fill-rule:evenodd;stroke-width:1.0000000pt;"
         rx="0.51586622"
         transform="translate(13.55116,2.926542)"
         height="2.9704959"
         width="2.9704959"
         y="7.3638954"
         x="-27.937225"
         id="rect1156"
         ry="0.51586622" />
      <rect
         style="fill:#333333;fill-opacity:1.0000000;fill-rule:evenodd;stroke-width:1.0000000pt;"
         rx="0.51586622"
         transform="translate(14.50547,5.853084)"
         height="2.9704959"
         width="2.9704959"
         y="7.3638954"
         x="-27.937225"
         id="rect1157"
         ry="0.51586622" />
      <rect
         style="fill:#333333;fill-opacity:1.0000000;fill-rule:evenodd;stroke-width:1.0000000pt;"
         rx="0.51586622"
         transform="matrix(0.593068,0.000000,0.000000,0.593068,3.709514,11.77623)"
         height="2.9704959"
         width="2.9704959"
         y="7.3638954"
         x="-27.937225"
         id="rect1158"
         ry="0.51586622" />
      <rect
         style="fill:#333333;fill-opacity:1.0000000;fill-rule:evenodd;stroke-width:1.0000000pt;"
         rx="0.30594376"
         transform="translate(1.972235,0.000000)"
         height="1.7617061"
         width="1.7617061"
         y="16.143520"
         x="-16.402468"
         id="rect1159"
         ry="0.30594376" />
      <rect
         style="fill:#333333;fill-opacity:1.0000000;fill-rule:evenodd;stroke-width:1.0000000pt;"
         rx="0.30594376"
         transform="translate(-0.254482,0.000000)"
         height="1.7617061"
         width="1.7617061"
         y="16.143520"
         x="-10.886926"
         id="rect1160"
         ry="0.30594376" />
      <rect
         style="fill:#333333;fill-opacity:1.0000000;fill-rule:evenodd;stroke-width:1.0000000pt;"
         rx="0.30594376"
         transform="translate(-1.844994,0.000000)"
         height="1.7617061"
         width="1.7617061"
         y="16.143520"
         x="-7.5981007"
         id="rect1161"
         ry="0.30594376" />
      <rect
         style="fill:#333333;fill-opacity:1.0000000;fill-rule:evenodd;stroke-width:1.0000000pt;"
         rx="0.30594376"
         transform="matrix(0.638870,0.000000,0.000000,0.638870,-3.911966,6.466121)"
         height="1.7617061"
         width="1.7617061"
         y="16.143520"
         x="-5.8997874"
         id="rect1162"
         ry="0.30594376" />
      <rect
         style="fill:#333333;fill-opacity:1.0000000;fill-rule:evenodd;stroke-width:1.0000000pt;"
         rx="0.19545829"
         transform="translate(-0.699825,0.000000)"
         height="1.1255012"
         width="1.1255012"
         y="16.779732"
         x="-14.767778"
         id="rect1163"
         ry="0.19545829" />
      <rect
         style="fill:#333333;fill-opacity:1.0000000;fill-rule:evenodd;stroke-width:1.0000000pt;"
         rx="0.30594376"
         transform="translate(-2.163096,0.000000)"
         height="1.7617061"
         width="1.7617061"
         y="16.143520"
         x="-27.032389"
         id="rect1164"
         ry="0.30594376" />
      <rect
         style="fill:#333333;fill-opacity:1.0000000;fill-rule:evenodd;stroke-width:1.0000000pt;"
         rx="0.30594376"
         transform="translate(-2.163096,0.000000)"
         height="1.7617061"
         width="1.7617061"
         y="16.143520"
         x="-28.603458"
         id="rect1165"
         ry="0.30594376" />
      <rect
         style="fill:#333333;fill-opacity:1.0000000;fill-rule:evenodd;stroke-width:1.0000000pt;"
         rx="0.30594376"
         transform="translate(-2.163096,0.000000)"
         height="1.7617061"
         width="1.7617061"
         y="16.143520"
         x="-25.314636"
         id="rect1166"
         ry="0.30594376" />
      <rect
         style="fill:#333333;fill-opacity:1.0000000;fill-rule:evenodd;stroke-width:1.0000000pt;"
         rx="0.30594376"
         transform="translate(-2.163096,0.000000)"
         height="1.7617061"
         width="1.7617061"
         y="16.143520"
         x="-23.616322"
         id="rect1167"
         ry="0.30594376" />
      <rect
         style="fill:#333333;fill-opacity:1.0000000;fill-rule:evenodd;stroke-width:1.0000000pt;"
         rx="0.19545829"
         transform="translate(-2.163096,0.000000)"
         height="1.1255012"
         width="1.1255012"
         y="16.779732"
         x="-21.854391"
         id="rect1168"
         ry="0.19545829" />
      <rect
         style="fill:#333333;fill-opacity:1.0000000;fill-rule:evenodd;stroke-width:1.0000000pt;"
         rx="0.19545829"
         transform="translate(-2.163096,0.000000)"
         height="1.1255012"
         width="1.1255012"
         y="16.779732"
         x="-29.640833"
         id="rect1169"
         ry="0.19545829" />
      <rect
         style="fill:#333333;fill-opacity:1.0000000;fill-rule:evenodd;stroke-width:1.0000000pt;"
         rx="0.30594376"
         transform="translate(-3.817228,-3.689987)"
         height="1.7617061"
         width="1.7617061"
         y="16.143520"
         x="-23.616322"
         id="rect1170"
         ry="0.30594376" />
      <rect
         style="fill:#333333;fill-opacity:1.0000000;fill-rule:evenodd;stroke-width:1.0000000pt;"
         rx="0.30594376"
         transform="translate(-3.308264,-5.407740)"
         height="1.7617061"
         width="1.7617061"
         y="16.143520"
         x="-23.616322"
         id="rect1171"
         ry="0.30594376" />
      <rect
         style="fill:#333333;fill-opacity:1.0000000;fill-rule:evenodd;stroke-width:1.0000000pt;"
         rx="0.30594376"
         transform="translate(-2.926541,-7.125492)"
         height="1.7617061"
         width="1.7617061"
         y="16.143520"
         x="-23.616322"
         id="rect1172"
         ry="0.30594376" />
      <rect
         style="fill:#333333;fill-opacity:1.0000000;fill-rule:evenodd;stroke-width:1.0000000pt;"
         rx="0.30594376"
         transform="translate(-2.417577,-8.843245)"
         height="1.7617061"
         width="1.7617061"
         y="16.143520"
         x="-23.616322"
         id="rect1173"
         ry="0.30594376" />
      <rect
         style="fill:#333333;fill-opacity:1.0000000;fill-rule:evenodd;stroke-width:1.0000000pt;"
         rx="0.30594376"
         transform="translate(5.407740,1.017928)"
         height="1.7617061"
         width="1.7617061"
         y="4.6918354"
         x="-30.591612"
         id="rect1174"
         ry="0.30594376" />
      <rect
         style="fill:#333333;fill-opacity:1.0000000;fill-rule:evenodd;stroke-width:1.0000000pt;"
         rx="0.30594376"
         transform="translate(5.407740,1.017928)"
         height="1.7617061"
         width="1.7617061"
         y="2.9740822"
         x="-30.082647"
         id="rect1175"
         ry="0.30594376" />
      <rect
         style="fill:#333333;fill-opacity:1.0000000;fill-rule:evenodd;stroke-width:1.0000000pt;"
         rx="0.30594376"
         transform="translate(9.479450,1.781373)"
         height="1.7617061"
         width="1.7617061"
         y="0.49288431"
         x="-33.581776"
         id="rect1176"
         ry="0.30594376" />
      <rect
         style="fill:#333333;fill-opacity:1.0000000;fill-rule:evenodd;stroke-width:1.0000000pt;"
         rx="0.30594376"
         transform="translate(9.479450,1.781373)"
         height="1.7617061"
         width="1.7617061"
         y="-1.2248687"
         x="-33.072811"
         id="rect1177"
         ry="0.30594376" />
      <rect
         style="fill:#333333;fill-opacity:1.0000000;fill-rule:evenodd;stroke-width:1.0000000pt;"
         rx="0.30594376"
         transform="translate(-1.081548,-2.608439)"
         height="1.7617061"
         width="1.7617061"
         y="1.4471914"
         x="-21.939228"
         id="rect1178"
         ry="0.30594376" />
      <rect
         style="fill:#333333;fill-opacity:1.0000000;fill-rule:evenodd;stroke-width:1.0000000pt;"
         rx="0.30594376"
         transform="translate(-1.081548,-2.608439)"
         height="1.7617061"
         width="1.7617061"
         y="-0.27056164"
         x="-21.430264"
         id="rect1179"
         ry="0.30594376" />
      <rect
         style="fill:#333333;fill-opacity:1.0000000;fill-rule:evenodd;stroke-width:1.0000000pt;"
         rx="0.30594376"
         transform="translate(6.616529,0.699825)"
         height="1.7617061"
         width="1.7617061"
         y="-5.2965784"
         x="-28.428516"
         id="rect1180"
         ry="0.30594376" />
      <rect
         style="fill:#333333;fill-opacity:1.0000000;fill-rule:evenodd;stroke-width:1.0000000pt;"
         rx="0.30594376"
         transform="matrix(1.180565,0.000000,0.000000,1.180565,-0.507250,-4.950813)"
         height="1.7617061"
         width="1.7617061"
         y="16.143520"
         x="-23.616322"
         id="rect1182"
         ry="0.30594376" />
      <rect
         style="fill:#333333;fill-opacity:1.0000000;fill-rule:evenodd;stroke-width:1.0000000pt;"
         rx="0.51586622"
         transform="translate(-23.79405,-13.42392)"
         height="2.9704959"
         width="2.9704959"
         y="9.1452684"
         x="3.7316308"
         id="rect1183"
         ry="0.51586622" />
      <rect
         style="fill:#333333;fill-opacity:1.0000000;fill-rule:evenodd;stroke-width:1.0000000pt;"
         rx="0.51586622"
         transform="translate(-22.77612,-10.49738)"
         height="2.9704959"
         width="2.9704959"
         y="9.1452684"
         x="3.7316308"
         id="rect1184"
         ry="0.51586622" />
      <rect
         style="fill:#333333;fill-opacity:1.0000000;fill-rule:evenodd;stroke-width:1.0000000pt;"
         rx="0.51586622"
         transform="translate(-21.56733,-7.570836)"
         height="2.9704959"
         width="2.9704959"
         y="9.1452684"
         x="3.7316308"
         id="rect1185"
         ry="0.51586622" />
      <rect
         style="fill:#333333;fill-opacity:1.0000000;fill-rule:evenodd;stroke-width:1.0000000pt;"
         rx="0.51586622"
         transform="translate(-20.29492,-4.644294)"
         height="2.9704959"
         width="2.9704959"
         y="9.1452684"
         x="3.7316308"
         id="rect1186"
         ry="0.51586622" />
    </g>
  </g>
  <metadata
     id="metadata73">
    <rdf:RDF
       id="RDF74">
      <cc:Work
         rdf:about=""
         id="Work75">
        <dc:title
           id="title76">Part of the Flat Icon Collection (Thu Aug 26 14:40:35 2004)</dc:title>
        <dc:description
           id="description78" />
        <dc:subject
           id="subject79">
          <rdf:Bag
             id="Bag80">
            <rdf:li
               id="li81" />
          </rdf:Bag>
        </dc:subject>
        <dc:publisher
           id="publisher82">
          <cc:Agent
             rdf:about=""
             id="Agent83">
            <dc:title
               id="title84" />
          </cc:Agent>
        </dc:publisher>
        <dc:creator
           id="creator85">
          <cc:Agent
             rdf:about=""
             id="Agent86">
            <dc:title
               id="title87">Danny Allen</dc:title>
          </cc:Agent>
        </dc:creator>
        <dc:rights
           id="rights89">
          <cc:Agent
             rdf:about=""
             id="Agent90">
            <dc:title
               id="title91">Danny Allen</dc:title>
          </cc:Agent>
        </dc:rights>
        <dc:date
           id="date93" />
        <dc:format
           id="format94">image/svg+xml</dc:format>
        <dc:type
           rdf:resource="http://purl.org/dc/dcmitype/StillImage"
           id="type96" />
        <cc:license
           rdf:resource="http://creativecommons.org/licenses/LGPL/2.1/"
           id="license97">
          <dc:date
             id="date98" />
        </cc:license>
        <dc:language
           id="language99">en</dc:language>
      </cc:Work>
    </rdf:RDF>
  </metadata>
</svg>
