<?xml version="1.0" encoding="UTF-8" standalone="no"?>
<!DOCTYPE svg PUBLIC "-//W3C//DTD SVG 20010904//EN"
"http://www.w3.org/TR/2001/REC-SVG-20010904/DTD/svg10.dtd">
<svg
   sodipodi:docname="font_truetype.svg"
   height="60.0000000"
   sodipodi:version="0.32"
   width="60.0000000"
   _SVGFile__filename="scalable/mimetypes/font_truetype.svg"
   version="1.0"
   y="0"
   x="0"
   inkscape:version="0.39"
   id="svg1"
   sodipodi:docbase="/home/danny/work/flat/newscale/mimetypes"
   xmlns="http://www.w3.org/2000/svg"
   xmlns:cc="http://web.resource.org/cc/"
   xmlns:inkscape="http://www.inkscape.org/namespaces/inkscape"
   xmlns:sodipodi="http://sodipodi.sourceforge.net/DTD/sodipodi-0.dtd"
   xmlns:rdf="http://www.w3.org/1999/02/22-rdf-syntax-ns#"
   xmlns:dc="http://purl.org/dc/elements/1.1/"
   xmlns:xlink="http://www.w3.org/1999/xlink">
  <sodipodi:namedview
     bordercolor="#666666"
     inkscape:pageshadow="2"
     inkscape:window-y="0"
     pagecolor="#ffffff"
     inkscape:window-height="685"
     inkscape:zoom="6.9465337"
     inkscape:window-x="0"
     borderopacity="1.0"
     inkscape:cx="37.697545"
     inkscape:cy="31.806354"
     inkscape:window-width="1016"
     inkscape:pageopacity="0.0"
     id="base" />
  <defs
     id="defs3">
    <linearGradient
       id="linearGradient900">
      <stop
         style="stop-color:#000;stop-opacity:1;"
         id="stop901"
         offset="0" />
      <stop
         style="stop-color:#fff;stop-opacity:1;"
         id="stop902"
         offset="1" />
    </linearGradient>
    <linearGradient
       xlink:href="#linearGradient900"
       id="linearGradient903" />
    <linearGradient
       xlink:href="#linearGradient900"
       id="linearGradient904" />
    <linearGradient
       xlink:href="#linearGradient900"
       id="linearGradient905" />
    <linearGradient
       xlink:href="#linearGradient900"
       id="linearGradient906" />
    <linearGradient
       xlink:href="#linearGradient900"
       id="linearGradient907" />
  </defs>
  <path
     style="font-size:12.000000;fill:#b3b3b3;fill-opacity:1.0000000;fill-rule:evenodd;stroke:#333333;stroke-width:3.1250000;stroke-linecap:round;stroke-linejoin:round;stroke-opacity:1.0000000;"
     d="M 6.6785922,5.1165123 C 5.5705922,5.1165123 4.6785922,6.0085123 4.6785922,7.1165123 L 4.6785922,53.501354 C 4.6785922,54.609354 5.5705922,55.501354 6.6785922,55.501354 L 53.423324,55.501354 C 54.531324,55.501354 55.423324,54.609354 55.423324,53.501354 L 55.423324,7.1165123 C 55.423324,6.0085123 54.531324,5.1165123 53.423324,5.1165123 L 6.6785922,5.1165123 z "
     id="rect812" />
  <g
     id="g1564"
     transform="translate(0.114175,0.000000)">
    <path
       id="path844"
       style="font-size:12.000000;font-weight:900;fill:#7f7f7f;stroke:#7c7c7c;stroke-width:1.2500000;stroke-linejoin:round;stroke-opacity:1.0000000;font-family:VAG Rounded Black SSi;"
       d="M 24.491900,44.413846 L 24.491900,33.502333 L 22.456251,33.502333 C 21.872553,33.502333 21.412892,33.349113 21.077264,33.042672 C 20.741638,32.736230 20.573825,32.327641 20.573825,31.816906 C 20.573825,31.276984 20.737991,30.857451 21.066320,30.558306 C 21.394650,30.259159 21.857961,30.109587 22.456251,30.109587 L 30.161071,30.109587 C 30.773954,30.109587 31.240913,30.259159 31.561947,30.558306 C 31.882981,30.857451 32.043499,31.276984 32.043499,31.816906 C 32.043499,32.327641 31.879333,32.736230 31.551003,33.042672 C 31.222673,33.349113 30.759362,33.502333 30.161071,33.502333 L 28.125424,33.502333 L 28.125424,44.413846 C 28.125424,45.048619 27.957610,45.533819 27.621982,45.869445 C 27.293652,46.197774 26.855879,46.361940 26.308661,46.361940 C 25.776037,46.361940 25.338263,46.194127 24.995339,45.858501 C 24.659714,45.515578 24.491900,45.034027 24.491900,44.413846 z "
       sodipodi:stroke-cmyk="(0.0000000 0.0000000 0.0000000 0.51515150)" />
    <path
       id="path845"
       style="font-size:12.000000;font-weight:900;fill:#333333;fill-opacity:1.0000000;stroke:#333333;stroke-width:0.66922396;stroke-linejoin:round;font-family:VAG Rounded Black SSi;"
       transform="matrix(1.867835,0.000000,0.000000,1.867835,16.45072,23.52309)"
       d="M 8.1899219,14.099075 L 8.1899219,8.2572784 L 7.1000781,8.2572784 C 6.7875781,8.2572784 6.5414844,8.1752472 6.3617969,8.0111847 C 6.1821094,7.8471222 6.0922656,7.6283722 6.0922656,7.3549347 C 6.0922656,7.0658722 6.1801562,6.8412628 6.3559375,6.6811066 C 6.5317187,6.5209503 6.7797656,6.4408722 7.1000781,6.4408722 L 11.225078,6.4408722 C 11.553203,6.4408722 11.803203,6.5209503 11.975078,6.6811066 C 12.146953,6.8412628 12.232891,7.0658722 12.232891,7.3549347 C 12.232891,7.6283722 12.145000,7.8471222 11.969219,8.0111847 C 11.793437,8.1752472 11.545391,8.2572784 11.225078,8.2572784 L 10.135234,8.2572784 L 10.135234,14.099075 C 10.135234,14.438919 10.045391,14.698685 9.8657031,14.878372 C 9.6899219,15.054153 9.4555469,15.142044 9.1625781,15.142044 C 8.8774219,15.142044 8.6430469,15.052200 8.4594531,14.872513 C 8.2797656,14.688919 8.1899219,14.431107 8.1899219,14.099075 z "
       sodipodi:fill-cmyk="(0.0000000 0.0000000 0.0000000 0.79797977)" />
  </g>
  <path
     id="path843"
     style="font-size:12.000000;font-weight:900;fill:#333333;stroke-width:1.0000000pt;font-family:VAG Rounded Black SSi;"
     d="M 45.738817,25.246972 L 45.738817,17.409100 L 45.290592,17.409100 C 44.652578,17.409100 44.155898,17.259691 43.800548,16.960875 C 43.437124,16.662059 43.255410,16.209796 43.255410,15.604088 C 43.255410,14.990303 43.437124,14.538040 43.800548,14.247300 C 44.155898,13.956560 44.652578,13.811190 45.290592,13.811190 L 45.738817,13.811190 L 45.738817,11.255098 C 45.738817,10.673618 45.916490,10.189051 46.271839,9.8013972 C 46.627188,9.4137436 47.091566,9.2199167 47.664969,9.2199167 C 48.246450,9.2199167 48.714865,9.4137436 49.070215,9.8013972 C 49.425564,10.189051 49.603237,10.673618 49.603237,11.255098 L 49.603237,13.811190 L 50.669285,13.811190 C 51.323452,13.811190 51.824170,13.956560 52.171444,14.247300 C 52.526793,14.538040 52.704466,14.990303 52.704466,15.604088 C 52.704466,16.209796 52.526793,16.662059 52.171444,16.960875 C 51.824170,17.259691 51.323452,17.409100 50.669285,17.409100 L 49.603237,17.409100 L 49.603237,25.246972 C 49.603237,25.820375 49.421526,26.304942 49.058101,26.700673 C 48.702752,27.088327 48.238374,27.282154 47.664969,27.282154 C 47.099642,27.282154 46.635266,27.088327 46.271839,26.700673 C 45.916490,26.304942 45.738817,25.820375 45.738817,25.246972 z M 30.947408,25.246972 L 30.947408,15.676772 C 30.947408,15.103368 31.125081,14.626877 31.480430,14.247300 C 31.843857,13.859646 32.308233,13.665819 32.873562,13.665819 C 33.341976,13.665819 33.745783,13.790999 34.084979,14.041359 C 34.432253,14.283642 34.674535,14.570345 34.811831,14.901465 C 35.441767,13.908103 36.552232,13.411422 38.143229,13.411422 C 39.055829,13.411422 39.875554,13.576982 40.602406,13.908103 C 41.337333,14.239224 41.910736,14.748019 42.322618,15.434489 C 42.742577,16.112883 42.952557,16.968951 42.952557,18.002694 L 42.952557,25.246972 C 42.952557,25.828453 42.770843,26.313020 42.407418,26.700673 C 42.043992,27.088327 41.579616,27.282154 41.014289,27.282154 C 40.448959,27.282154 39.984583,27.084289 39.621157,26.688558 C 39.257732,26.292828 39.076020,25.812299 39.076020,25.246972 L 39.076020,19.068742 C 39.076020,18.366120 38.886231,17.800791 38.506653,17.372757 C 38.135151,16.936647 37.614242,16.718592 36.943925,16.718592 C 36.281683,16.718592 35.760774,16.936647 35.381196,17.372757 C 35.001617,17.808867 34.811831,18.374196 34.811831,19.068742 L 34.811831,25.246972 C 34.811831,25.820375 34.630117,26.304942 34.266692,26.700673 C 33.911343,27.088327 33.446965,27.282154 32.873562,27.282154 C 32.308233,27.282154 31.843857,27.088327 31.480430,26.700673 C 31.125081,26.304942 30.947408,25.820375 30.947408,25.246972 z M 23.145877,13.411422 C 24.115012,13.411422 24.999348,13.593134 25.798884,13.956560 C 26.606495,14.311909 27.297003,14.812628 27.870408,15.458717 C 28.451888,16.104807 28.896073,16.851848 29.202966,17.699840 C 29.517935,18.539756 29.675420,19.460433 29.675420,20.461872 C 29.675420,21.762127 29.400831,22.957393 28.851655,24.047669 C 28.310555,25.129868 27.543325,25.981897 26.549962,26.603760 C 25.556599,27.225620 24.421905,27.536552 23.145877,27.536552 C 22.184821,27.536552 21.304523,27.358876 20.504989,27.003527 C 19.713528,26.648178 19.023021,26.143420 18.433465,25.489255 C 17.843907,24.827014 17.395682,24.067858 17.088791,23.211791 C 16.781897,22.347645 16.628452,21.431007 16.628452,20.461872 C 16.628452,19.177769 16.903039,17.994618 17.452215,16.912419 C 18.001391,15.822143 18.768623,14.966074 19.753908,14.344213 C 20.747271,13.722352 21.877928,13.411422 23.145877,13.411422 z M 23.145877,17.166816 C 22.322115,17.166816 21.671987,17.481785 21.195496,18.111722 C 20.727082,18.741659 20.492873,19.525042 20.492873,20.461872 C 20.492873,21.059505 20.597864,21.616756 20.807842,22.133628 C 21.017822,22.642424 21.320676,23.046230 21.716405,23.345046 C 22.120212,23.643862 22.596701,23.793271 23.145877,23.793271 C 23.977718,23.793271 24.627845,23.478302 25.096261,22.848364 C 25.564675,22.210352 25.798884,21.414854 25.798884,20.461872 C 25.798884,19.516966 25.564675,18.733583 25.096261,18.111722 C 24.627845,17.481785 23.977718,17.166816 23.145877,17.166816 z M 9.8808565,25.246972 L 9.8808565,17.409100 L 9.4326317,17.409100 C 8.7946179,17.409100 8.2979375,17.259691 7.9425883,16.960875 C 7.5791636,16.662059 7.3974502,16.209796 7.3974502,15.604088 C 7.3974502,14.990303 7.5791636,14.538040 7.9425883,14.247300 C 8.2979375,13.956560 8.7946179,13.811190 9.4326317,13.811190 L 9.8808565,13.811190 L 9.8808565,12.054634 C 9.8808565,11.481230 9.9777699,10.932054 10.171596,10.407106 C 10.365423,9.8821583 10.640010,9.4298958 10.995359,9.0503184 C 11.358786,8.6626648 11.782782,8.3638483 12.267349,8.1538693 C 12.751916,7.9438902 13.293014,7.8389008 13.890648,7.8389008 C 14.633651,7.8389008 15.247436,7.9721567 15.732003,8.2386687 C 16.224646,8.4971044 16.470968,8.9655192 16.470968,9.6439130 C 16.470968,10.855331 15.861221,11.461039 14.641727,11.461039 C 14.326757,11.461039 14.096588,11.549877 13.951219,11.727551 C 13.813926,11.905226 13.745277,12.236347 13.745277,12.720914 L 13.745277,13.811190 L 14.811325,13.811190 C 15.465492,13.811190 15.966210,13.956560 16.313483,14.247300 C 16.668832,14.538040 16.846506,14.990303 16.846506,15.604088 C 16.846506,16.209796 16.668832,16.662059 16.313483,16.960875 C 15.966210,17.259691 15.465492,17.409100 14.811325,17.409100 L 13.745277,17.409100 L 13.745277,25.246972 C 13.745277,25.820375 13.563566,26.304942 13.200141,26.700673 C 12.844792,27.088327 12.380414,27.282154 11.807009,27.282154 C 11.241682,27.282154 10.777306,27.088327 10.413879,26.700673 C 10.058530,26.304942 9.8808565,25.820375 9.8808565,25.246972 z " />
  <metadata
     id="metadata16">
    <rdf:RDF
       id="RDF17">
      <cc:Work
         rdf:about=""
         id="Work18">
        <dc:title
           id="title19">Part of the Flat Icon Collection (Thu Aug 26 14:40:35 2004)</dc:title>
        <dc:description
           id="description21" />
        <dc:subject
           id="subject22">
          <rdf:Bag
             id="Bag23">
            <rdf:li
               id="li24" />
          </rdf:Bag>
        </dc:subject>
        <dc:publisher
           id="publisher25">
          <cc:Agent
             rdf:about=""
             id="Agent26">
            <dc:title
               id="title27" />
          </cc:Agent>
        </dc:publisher>
        <dc:creator
           id="creator28">
          <cc:Agent
             rdf:about=""
             id="Agent29">
            <dc:title
               id="title30">Danny Allen</dc:title>
          </cc:Agent>
        </dc:creator>
        <dc:rights
           id="rights32">
          <cc:Agent
             rdf:about=""
             id="Agent33">
            <dc:title
               id="title34">Danny Allen</dc:title>
          </cc:Agent>
        </dc:rights>
        <dc:date
           id="date36" />
        <dc:format
           id="format37">image/svg+xml</dc:format>
        <dc:type
           rdf:resource="http://purl.org/dc/dcmitype/StillImage"
           id="type39" />
        <cc:license
           rdf:resource="http://creativecommons.org/licenses/LGPL/2.1/"
           id="license40">
          <dc:date
             id="date41" />
        </cc:license>
        <dc:language
           id="language42">en</dc:language>
      </cc:Work>
    </rdf:RDF>
  </metadata>
</svg>
