<?xml version="1.0" encoding="UTF-8" standalone="no"?>
<!DOCTYPE svg PUBLIC "-//W3C//DTD SVG 20010904//EN"
"http://www.w3.org/TR/2001/REC-SVG-20010904/DTD/svg10.dtd">
<svg
   sodipodi:docname="gf.svg"
   height="60.0000000"
   sodipodi:version="0.32"
   width="60.0000000"
   _SVGFile__filename="scalable/mimetypes/gf.svg"
   version="1.0"
   y="0"
   x="0"
   inkscape:version="0.39"
   id="svg1"
   sodipodi:docbase="/home/danny/work/flat/newscale/mimetypes"
   xmlns="http://www.w3.org/2000/svg"
   xmlns:cc="http://web.resource.org/cc/"
   xmlns:inkscape="http://www.inkscape.org/namespaces/inkscape"
   xmlns:sodipodi="http://sodipodi.sourceforge.net/DTD/sodipodi-0.dtd"
   xmlns:rdf="http://www.w3.org/1999/02/22-rdf-syntax-ns#"
   xmlns:dc="http://purl.org/dc/elements/1.1/"
   xmlns:xlink="http://www.w3.org/1999/xlink">
  <sodipodi:namedview
     bordercolor="#666666"
     inkscape:pageshadow="2"
     inkscape:window-y="0"
     snaptoguides="true"
     pagecolor="#ffffff"
     inkscape:window-height="685"
     inkscape:zoom="6.9465337"
     inkscape:window-x="0"
     borderopacity="1.0"
     inkscape:cx="37.697540"
     inkscape:cy="31.806367"
     inkscape:window-width="1016"
     inkscape:pageopacity="0.0"
     id="base"
     showguides="true" />
  <defs
     id="defs3">
    <linearGradient
       id="linearGradient900">
      <stop
         style="stop-color:#000;stop-opacity:1;"
         id="stop901"
         offset="0" />
      <stop
         style="stop-color:#fff;stop-opacity:1;"
         id="stop902"
         offset="1" />
    </linearGradient>
    <linearGradient
       xlink:href="#linearGradient900"
       id="linearGradient903" />
    <linearGradient
       xlink:href="#linearGradient900"
       id="linearGradient904" />
    <linearGradient
       xlink:href="#linearGradient900"
       id="linearGradient905" />
    <linearGradient
       xlink:href="#linearGradient900"
       id="linearGradient906" />
    <linearGradient
       xlink:href="#linearGradient900"
       id="linearGradient907" />
  </defs>
  <path
     style="font-size:12.000000;fill:#b3b3b3;fill-opacity:1.0000000;fill-rule:evenodd;stroke:#333333;stroke-width:3.1250000;stroke-linejoin:round;stroke-opacity:1.0000000;stroke-linecap:round;"
     d="M 6.6785922,5.1165123 C 5.5705922,5.1165123 4.6785922,6.0085123 4.6785922,7.1165123 L 4.6785922,53.501354 C 4.6785922,54.609354 5.5705922,55.501354 6.6785922,55.501354 L 53.423324,55.501354 C 54.531324,55.501354 55.423324,54.609354 55.423324,53.501354 L 55.423324,7.1165123 C 55.423324,6.0085123 54.531324,5.1165123 53.423324,5.1165123 L 6.6785922,5.1165123 z "
     id="rect812" />
  <path
     id="path837"
     style="font-size:12.000000;font-weight:900;fill:#333333;stroke-width:1.0000000pt;font-family:VAG Rounded Black SSi;"
     d="M 37.340277,38.562133 L 37.340277,25.569870 L 36.597292,25.569870 C 35.539703,25.569870 34.716389,25.322206 34.127353,24.826881 C 33.524931,24.331556 33.223722,23.581874 33.223722,22.577834 C 33.223722,21.560408 33.524931,20.810726 34.127353,20.328787 C 34.716389,19.846849 35.539703,19.605881 36.597292,19.605881 L 37.340277,19.605881 L 37.340277,16.694166 C 37.340277,15.743679 37.500924,14.833351 37.822216,13.963181 C 38.143508,13.093015 38.598674,12.343333 39.187711,11.714134 C 39.790133,11.071549 40.492960,10.576224 41.296191,10.228159 C 42.099422,9.8800911 42.996364,9.7060584 43.987017,9.7060584 C 45.218638,9.7060584 46.236064,9.9269461 47.039295,10.368723 C 47.855912,10.797113 48.264219,11.573571 48.264219,12.698094 C 48.264219,14.706170 47.253490,15.710210 45.232024,15.710210 C 44.709923,15.710210 44.328389,15.857470 44.087418,16.151986 C 43.859837,16.446506 43.746046,16.995379 43.746046,17.798610 L 43.746046,19.605881 L 45.513154,19.605881 C 46.597515,19.605881 47.427522,19.846849 48.003172,20.328787 C 48.592208,20.810726 48.886725,21.560408 48.886725,22.577834 C 48.886725,23.581874 48.592208,24.331556 48.003172,24.826881 C 47.427522,25.322206 46.597515,25.569870 45.513154,25.569870 L 43.746046,25.569870 L 43.746046,38.562133 C 43.746046,39.512620 43.444833,40.315851 42.842411,40.971826 C 42.253375,41.614411 41.483613,41.935703 40.533122,41.935703 C 39.596021,41.935703 38.826256,41.614411 38.223833,40.971826 C 37.634797,40.315851 37.340277,39.512620 37.340277,38.562133 z M 32.842184,22.698318 L 32.842184,39.505927 C 32.842184,41.540779 32.540974,43.281115 31.938552,44.726931 C 31.336126,46.172746 30.499429,47.350819 29.428455,48.261147 C 28.357480,49.184862 27.119166,49.854223 25.713509,50.269223 C 24.321242,50.697613 22.815184,50.911808 21.195336,50.911808 C 19.923552,50.911808 18.537979,50.744468 17.038614,50.409790 C 15.552639,50.075111 14.274163,49.546317 13.203188,48.823407 C 12.145600,48.100501 11.616805,47.190172 11.616805,46.092422 C 11.616805,45.396288 11.897935,44.747010 12.460199,44.144588 C 13.022459,43.555552 13.631578,43.261032 14.287549,43.261032 C 14.756101,43.261032 15.438845,43.475227 16.335787,43.903617 C 17.246116,44.332007 17.995798,44.653299 18.584834,44.867494 C 19.187257,45.081689 20.017264,45.188786 21.074852,45.188786 C 22.989217,45.188786 24.354711,44.700155 25.171328,43.722891 C 26.001336,42.759014 26.416336,41.326584 26.416336,39.425606 L 26.336014,39.425606 C 25.198105,41.099003 23.256960,41.935703 20.512589,41.935703 C 18.531285,41.935703 16.837809,41.420295 15.432152,40.389483 C 14.026499,39.345281 12.968910,37.966404 12.259390,36.252844 C 11.563257,34.525895 11.215192,32.651689 11.215192,30.630227 C 11.215192,28.515050 11.650275,26.560523 12.520441,24.766639 C 13.403993,22.959368 14.602148,21.540329 16.114899,20.509516 C 17.627650,19.465314 19.294354,18.943213 21.115011,18.943213 C 22.333246,18.943213 23.370754,19.130636 24.227534,19.505477 C 25.097700,19.880318 25.900931,20.516210 26.637227,21.413148 C 26.878195,20.864275 27.253036,20.389029 27.761751,19.987415 C 28.270462,19.572412 28.892967,19.364910 29.629260,19.364910 C 30.566364,19.364910 31.336126,19.686202 31.938552,20.328787 C 32.540974,20.957986 32.842184,21.747830 32.842184,22.698318 z M 26.416336,30.630227 C 26.416336,29.063924 26.028108,27.765368 25.251653,26.734556 C 24.475195,25.690354 23.397527,25.168256 22.018646,25.168256 C 20.653155,25.168256 19.575487,25.690354 18.785643,26.734556 C 18.009184,27.778754 17.620957,29.077314 17.620957,30.630227 C 17.620957,31.674426 17.794989,32.631610 18.143058,33.501776 C 18.491123,34.358556 18.986451,35.027917 19.629036,35.509855 C 20.285007,35.991794 21.081545,36.232761 22.018646,36.232761 C 22.942365,36.232761 23.732206,35.991794 24.388180,35.509855 C 25.057538,35.027917 25.559556,34.371942 25.894238,33.541938 C 26.242303,32.698545 26.416336,31.727974 26.416336,30.630227 z " />
  <metadata
     id="metadata14">
    <rdf:RDF
       id="RDF15">
      <cc:Work
         rdf:about=""
         id="Work16">
        <dc:title
           id="title17">Part of the Flat Icon Collection (Thu Aug 26 14:40:35 2004)</dc:title>
        <dc:description
           id="description19" />
        <dc:subject
           id="subject20">
          <rdf:Bag
             id="Bag21">
            <rdf:li
               id="li22" />
          </rdf:Bag>
        </dc:subject>
        <dc:publisher
           id="publisher23">
          <cc:Agent
             rdf:about=""
             id="Agent24">
            <dc:title
               id="title25" />
          </cc:Agent>
        </dc:publisher>
        <dc:creator
           id="creator26">
          <cc:Agent
             rdf:about=""
             id="Agent27">
            <dc:title
               id="title28">Danny Allen</dc:title>
          </cc:Agent>
        </dc:creator>
        <dc:rights
           id="rights30">
          <cc:Agent
             rdf:about=""
             id="Agent31">
            <dc:title
               id="title32">Danny Allen</dc:title>
          </cc:Agent>
        </dc:rights>
        <dc:date
           id="date34" />
        <dc:format
           id="format35">image/svg+xml</dc:format>
        <dc:type
           rdf:resource="http://purl.org/dc/dcmitype/StillImage"
           id="type37" />
        <cc:license
           rdf:resource="http://creativecommons.org/licenses/LGPL/2.1/"
           id="license38">
          <dc:date
             id="date39" />
        </cc:license>
        <dc:language
           id="language40">en</dc:language>
      </cc:Work>
    </rdf:RDF>
  </metadata>
</svg>
