<?xml version="1.0" encoding="UTF-8" standalone="no"?>
<!DOCTYPE svg PUBLIC "-//W3C//DTD SVG 20010904//EN"
"http://www.w3.org/TR/2001/REC-SVG-20010904/DTD/svg10.dtd">
<svg
   sodipodi:docname="kget_list.svg"
   sodipodi:version="0.32"
   height="60.0000000"
   width="60.0000000"
   _SVGFile__filename="scalable/mimetypes/kget_list.svg"
   version="1.0"
   y="0"
   x="0"
   inkscape:version="0.39"
   id="svg1"
   sodipodi:docbase="/home/danny/work/flat/newscale/mimetypes"
   xmlns="http://www.w3.org/2000/svg"
   xmlns:cc="http://web.resource.org/cc/"
   xmlns:inkscape="http://www.inkscape.org/namespaces/inkscape"
   xmlns:sodipodi="http://sodipodi.sourceforge.net/DTD/sodipodi-0.dtd"
   xmlns:rdf="http://www.w3.org/1999/02/22-rdf-syntax-ns#"
   xmlns:dc="http://purl.org/dc/elements/1.1/"
   xmlns:xlink="http://www.w3.org/1999/xlink">
  <sodipodi:namedview
     bordercolor="#666666"
     inkscape:pageshadow="2"
     inkscape:window-y="0"
     pagecolor="#ffffff"
     inkscape:window-height="685"
     inkscape:zoom="6.9465337"
     inkscape:window-x="0"
     borderopacity="1.0"
     inkscape:cx="37.517309"
     inkscape:cy="31.806367"
     inkscape:window-width="1016"
     inkscape:pageopacity="0.0"
     id="base" />
  <defs
     id="defs3">
    <linearGradient
       id="linearGradient900">
      <stop
         style="stop-color:#000;stop-opacity:1;"
         id="stop901"
         offset="0" />
      <stop
         style="stop-color:#fff;stop-opacity:1;"
         id="stop902"
         offset="1" />
    </linearGradient>
    <linearGradient
       xlink:href="#linearGradient900"
       id="linearGradient903" />
    <linearGradient
       xlink:href="#linearGradient900"
       id="linearGradient904" />
    <linearGradient
       xlink:href="#linearGradient900"
       id="linearGradient905" />
    <linearGradient
       xlink:href="#linearGradient900"
       id="linearGradient906" />
    <linearGradient
       xlink:href="#linearGradient900"
       id="linearGradient907" />
  </defs>
  <path
     style="font-size:12.000000;fill:#b3b3b3;fill-opacity:1.0000000;fill-rule:evenodd;stroke:#333333;stroke-width:3.1250000;stroke-linecap:round;stroke-linejoin:round;stroke-opacity:1.0000000;"
     d="M 6.6785922,5.1165123 C 5.5705922,5.1165123 4.6785922,6.0085123 4.6785922,7.1165123 L 4.6785922,53.501354 C 4.6785922,54.609354 5.5705922,55.501354 6.6785922,55.501354 L 53.423324,55.501354 C 54.531324,55.501354 55.423324,54.609354 55.423324,53.501354 L 55.423324,7.1165123 C 55.423324,6.0085123 54.531324,5.1165123 53.423324,5.1165123 L 6.6785922,5.1165123 z "
     id="rect812" />
  <path
     transform="matrix(0.458581,0.000000,0.000000,0.458581,-3.039462,21.67833)"
     style="font-size:12.000000;fill:#cccccc;fill-opacity:1.0000000;fill-rule:evenodd;stroke:#4c4c4c;stroke-width:4.0886997;stroke-linecap:round;stroke-linejoin:round;stroke-opacity:1.0000000;stroke-miterlimit:4.0000000;stroke-dasharray:none;"
     d="M 48.785923,15.013535 C 47.677923,15.013535 46.785923,15.905535 46.785923,17.013535 L 46.785923,63.398376 C 46.785923,64.506376 47.677923,65.398376 48.785923,65.398376 L 95.530655,65.398376 C 96.638655,65.398376 97.530655,64.506376 97.530655,63.398376 L 97.530655,17.013535 C 97.530655,15.905535 96.638655,15.013535 95.530655,15.013535 L 48.785923,15.013535 z "
     id="rect1348" />
  <path
     style="fill:none;fill-opacity:0.75000000;fill-rule:evenodd;stroke:#4c4c4c;stroke-width:2.7257998;stroke-linecap:round;stroke-linejoin:round;stroke-opacity:1.0000000;"
     transform="matrix(0.458581,0.000000,0.000000,0.458581,-3.039462,21.67833)"
     d="M 52.544191,22.571261 L 91.052605,22.571261"
     sodipodi:stroke-cmyk="(0.0000000 0.0000000 0.0000000 0.69999999)"
     id="path842" />
  <path
     style="fill:none;fill-opacity:0.75000000;fill-rule:evenodd;stroke:#4c4c4c;stroke-width:1.2500000;stroke-linecap:round;stroke-linejoin:round;"
     d="M 20.999669,37.445392 L 38.658896,37.445392"
     sodipodi:stroke-cmyk="(0.0000000 0.0000000 0.0000000 0.69999999)"
     id="path846"
     transform="translate(5.663677e-2,0.000000)" />
  <path
     style="fill:none;fill-opacity:0.75000000;fill-rule:evenodd;stroke:#4c4c4c;stroke-width:1.2500000;stroke-linecap:round;stroke-linejoin:round;"
     d="M 20.999669,42.861703 L 38.658896,42.861703"
     sodipodi:stroke-cmyk="(0.0000000 0.0000000 0.0000000 0.69999999)"
     id="path847"
     transform="translate(5.663677e-2,0.000000)" />
  <path
     style="fill:none;fill-opacity:0.75000000;fill-rule:evenodd;stroke:#4c4c4c;stroke-width:2.7257998;stroke-linecap:round;stroke-linejoin:round;stroke-opacity:1.0000000;"
     transform="matrix(0.458581,0.000000,0.000000,0.458581,-3.039462,21.67833)"
     d="M 52.486344,58.004331 L 73.835679,58.004331"
     sodipodi:stroke-cmyk="(0.0000000 0.0000000 0.0000000 0.69999999)"
     id="path848" />
  <path
     id="path849"
     style="font-size:12.000000;font-weight:900;fill:#333333;stroke-width:1.0000000pt;font-family:VAG Rounded Black SSi;"
     d="M 45.650385,24.136346 L 45.650385,17.043704 L 45.244778,17.043704 C 44.667427,17.043704 44.217971,16.908502 43.896409,16.638097 C 43.567537,16.367692 43.403103,15.958431 43.403103,15.410313 C 43.403103,14.854888 43.567537,14.445627 43.896409,14.182530 C 44.217971,13.919434 44.667427,13.787885 45.244778,13.787885 L 45.650385,13.787885 L 45.650385,11.474829 C 45.650385,10.948636 45.811166,10.510142 46.132728,10.159347 C 46.454290,9.8085519 46.874513,9.6331543 47.393398,9.6331543 C 47.919591,9.6331543 48.343470,9.8085519 48.665032,10.159347 C 48.986594,10.510142 49.147374,10.948636 49.147374,11.474829 L 49.147374,13.787885 L 50.112061,13.787885 C 50.704028,13.787885 51.157139,13.919434 51.471394,14.182530 C 51.792956,14.445627 51.953736,14.854888 51.953736,15.410313 C 51.953736,15.958431 51.792956,16.367692 51.471394,16.638097 C 51.157139,16.908502 50.704028,17.043704 50.112061,17.043704 L 49.147374,17.043704 L 49.147374,24.136346 C 49.147374,24.655231 48.982940,25.093725 48.654068,25.451828 C 48.332506,25.802623 47.912283,25.978021 47.393398,25.978021 C 46.881823,25.978021 46.461598,25.802623 46.132728,25.451828 C 45.811166,25.093725 45.650385,24.655231 45.650385,24.136346 z M 41.890298,20.979188 L 35.565022,20.979188 C 35.565022,21.454223 35.784268,21.903679 36.222762,22.327557 C 36.661256,22.744126 37.377464,22.952411 38.371384,22.952411 C 38.882959,22.952411 39.306838,22.886637 39.643016,22.755090 C 39.979196,22.623541 40.392111,22.437181 40.881761,22.196008 C 41.378721,21.947529 41.736826,21.823290 41.956072,21.823290 C 42.365333,21.823290 42.712474,21.965801 42.997496,22.250820 C 43.282517,22.535842 43.425026,22.904908 43.425026,23.358018 C 43.425026,23.898828 43.154622,24.392134 42.613814,24.837936 C 42.080311,25.276430 41.389684,25.612608 40.541929,25.846472 C 39.694174,26.087645 38.820840,26.208230 37.921926,26.208230 C 36.993780,26.208230 36.153335,26.047448 35.400586,25.725886 C 34.655145,25.404324 34.008367,24.951214 33.460250,24.366555 C 32.919440,23.774587 32.506525,23.087614 32.221504,22.305632 C 31.936482,21.516343 31.793973,20.683205 31.793973,19.806217 C 31.793973,18.980386 31.943792,18.176480 32.243429,17.394499 C 32.543066,16.612518 32.966944,15.925544 33.515061,15.333577 C 34.063179,14.741610 34.717267,14.277537 35.477323,13.941358 C 36.237380,13.597871 37.052246,13.426128 37.921926,13.426128 C 39.040086,13.426128 40.030352,13.707495 40.892724,14.270229 C 41.755095,14.832963 42.420145,15.571095 42.887872,16.484624 C 43.362907,17.398153 43.600424,18.377457 43.600424,19.422534 C 43.600424,20.021809 43.465223,20.431071 43.194819,20.650318 C 42.924413,20.869564 42.489572,20.979188 41.890298,20.979188 z M 35.565022,18.545546 L 40.092472,18.545546 C 40.092472,18.267833 39.993811,17.960887 39.796488,17.624709 C 39.599167,17.281221 39.328761,16.996200 38.985276,16.769645 C 38.649096,16.535782 38.265414,16.418850 37.834228,16.418850 C 37.403041,16.418850 37.012051,16.535782 36.661256,16.769645 C 36.317769,17.003509 36.047365,17.288530 35.850042,17.624709 C 35.660029,17.953579 35.565022,18.260525 35.565022,18.545546 z M 30.708699,15.476088 L 30.708699,24.651575 C 30.708699,25.762427 30.544264,26.712498 30.215394,27.501787 C 29.886522,28.291077 29.429759,28.934201 28.845100,29.431161 C 28.260441,29.935429 27.584430,30.300842 26.817064,30.527396 C 26.057008,30.761259 25.234832,30.878191 24.350536,30.878191 C 23.656253,30.878191 22.899850,30.786838 22.081328,30.604133 C 21.270116,30.421427 20.572179,30.132752 19.987520,29.738106 C 19.410169,29.343462 19.121494,28.846503 19.121494,28.247226 C 19.121494,27.867198 19.274967,27.512749 19.581913,27.183879 C 19.888858,26.862317 20.221383,26.701536 20.579487,26.701536 C 20.835275,26.701536 21.207994,26.818468 21.697646,27.052332 C 22.194606,27.286195 22.603867,27.461593 22.925429,27.578525 C 23.254300,27.695456 23.707411,27.753922 24.284762,27.753922 C 25.329838,27.753922 26.075279,27.487170 26.521081,26.953669 C 26.974192,26.427476 27.200746,25.645495 27.200746,24.607727 L 27.156898,24.607727 C 26.535698,25.521255 25.476003,25.978021 23.977815,25.978021 C 22.896197,25.978021 21.971706,25.696653 21.204340,25.133919 C 20.436976,24.563876 19.859625,23.811130 19.472289,22.875676 C 19.092261,21.932912 18.902247,20.909759 18.902247,19.806217 C 18.902247,18.651515 19.139764,17.584513 19.614800,16.605210 C 20.097143,15.618598 20.751230,14.843925 21.577060,14.281191 C 22.402890,13.711149 23.312765,13.426128 24.306685,13.426128 C 24.971735,13.426128 25.538124,13.528443 26.005851,13.733074 C 26.480886,13.937704 26.919380,14.284845 27.321334,14.774497 C 27.452881,14.474859 27.657511,14.215417 27.935225,13.996170 C 28.212937,13.769615 28.552771,13.656337 28.954722,13.656337 C 29.466300,13.656337 29.886522,13.831735 30.215394,14.182530 C 30.544264,14.526017 30.708699,14.957203 30.708699,15.476088 z M 27.200746,19.806217 C 27.200746,18.951153 26.988808,18.242254 26.564931,17.679520 C 26.141053,17.109478 25.552740,16.824457 24.799991,16.824457 C 24.054552,16.824457 23.466240,17.109478 23.035053,17.679520 C 22.611175,18.249563 22.399237,18.958461 22.399237,19.806217 C 22.399237,20.376259 22.494243,20.898797 22.684258,21.373832 C 22.874271,21.841559 23.144677,22.206972 23.495473,22.470068 C 23.853576,22.733165 24.288416,22.864712 24.799991,22.864712 C 25.304261,22.864712 25.735445,22.733165 26.093550,22.470068 C 26.458961,22.206972 26.733019,21.848869 26.915726,21.395757 C 27.105740,20.935338 27.200746,20.405492 27.200746,19.806217 z M 8.1481799,24.136346 L 8.1481799,10.225121 C 8.1481799,9.6989283 8.3126151,9.2604342 8.6414856,8.9096390 C 8.9703562,8.5588437 9.3869255,8.3834461 9.8911938,8.3834461 C 10.402770,8.3834461 10.822994,8.5588437 11.151864,8.9096390 C 11.480735,9.2604342 11.645170,9.6989283 11.645170,10.225121 L 11.645170,17.745294 L 14.495381,14.873158 C 14.941184,14.427356 15.288325,14.113102 15.536805,13.930396 C 15.792593,13.747690 16.106847,13.656337 16.479567,13.656337 C 16.808438,13.656337 17.100767,13.729420 17.356555,13.875584 C 17.619652,14.021749 17.820628,14.222725 17.959485,14.478514 C 18.105649,14.734302 18.178732,14.997398 18.178732,15.267803 C 18.178732,15.574749 18.094687,15.845153 17.926598,16.079017 C 17.765816,16.305572 17.440600,16.656367 16.950948,17.131403 L 15.065424,19.016927 L 18.003334,22.787977 C 18.244506,23.072996 18.441828,23.347056 18.595301,23.610153 C 18.756082,23.873249 18.836473,24.118074 18.836473,24.344630 C 18.836473,24.753891 18.686654,25.130266 18.387016,25.473753 C 18.087379,25.809931 17.659847,25.978021 17.104421,25.978021 C 16.709776,25.978021 16.388214,25.901284 16.139734,25.747811 C 15.891254,25.587029 15.577000,25.269123 15.196972,24.794086 L 11.689019,20.146049 L 11.645170,20.146049 L 11.645170,24.136346 C 11.645170,24.655231 11.480735,25.093725 11.151864,25.451828 C 10.830302,25.802623 10.410078,25.978021 9.8911938,25.978021 C 9.3796174,25.978021 8.9593938,25.802623 8.6305234,25.451828 C 8.3089611,25.093725 8.1481799,24.655231 8.1481799,24.136346 z " />
  <metadata
     id="metadata19">
    <rdf:RDF
       id="RDF20">
      <cc:Work
         rdf:about=""
         id="Work21">
        <dc:format
           id="format22">image/svg+xml</dc:format>
        <dc:type
           id="type24"
           rdf:resource="http://purl.org/dc/dcmitype/StillImage" />
      </cc:Work>
    </rdf:RDF>
  </metadata>
</svg>
