<?xml version="1.0" encoding="UTF-8" standalone="no"?>
<!DOCTYPE svg PUBLIC "-//W3C//DTD SVG 20010904//EN"
"http://www.w3.org/TR/2001/REC-SVG-20010904/DTD/svg10.dtd">
<svg
   sodipodi:docname="koffice.svg"
   height="60.0000000"
   sodipodi:version="0.32"
   width="60.0000000"
   _SVGFile__filename="scalable/mimetypes/koffice.svg"
   version="1.0"
   y="0"
   x="0"
   inkscape:version="0.39"
   id="svg1"
   sodipodi:docbase="/home/danny/work/flat/newscale/mimetypes"
   xmlns="http://www.w3.org/2000/svg"
   xmlns:cc="http://web.resource.org/cc/"
   xmlns:inkscape="http://www.inkscape.org/namespaces/inkscape"
   xmlns:sodipodi="http://sodipodi.sourceforge.net/DTD/sodipodi-0.dtd"
   xmlns:rdf="http://www.w3.org/1999/02/22-rdf-syntax-ns#"
   xmlns:dc="http://purl.org/dc/elements/1.1/"
   xmlns:xlink="http://www.w3.org/1999/xlink">
  <sodipodi:namedview
     bordercolor="#666666"
     inkscape:pageshadow="2"
     inkscape:window-y="0"
     snaptoguides="true"
     pagecolor="#ffffff"
     inkscape:window-height="685"
     inkscape:zoom="6.9465337"
     inkscape:window-x="0"
     borderopacity="1.0"
     inkscape:cx="37.697540"
     inkscape:cy="36.490183"
     inkscape:window-width="1016"
     inkscape:pageopacity="0.0"
     id="base"
     showguides="true" />
  <defs
     id="defs3">
    <linearGradient
       id="linearGradient900">
      <stop
         style="stop-color:#000;stop-opacity:1;"
         id="stop901"
         offset="0" />
      <stop
         style="stop-color:#fff;stop-opacity:1;"
         id="stop902"
         offset="1" />
    </linearGradient>
    <linearGradient
       xlink:href="#linearGradient900"
       id="linearGradient903" />
    <linearGradient
       xlink:href="#linearGradient900"
       id="linearGradient904" />
    <linearGradient
       xlink:href="#linearGradient900"
       id="linearGradient905" />
    <linearGradient
       xlink:href="#linearGradient900"
       id="linearGradient906" />
    <linearGradient
       xlink:href="#linearGradient900"
       id="linearGradient907" />
  </defs>
  <path
     style="font-size:12.000000;fill:#b3b3b3;fill-opacity:1.0000000;fill-rule:evenodd;stroke:#333333;stroke-width:3.1250000;stroke-linecap:round;stroke-linejoin:round;stroke-opacity:1.0000000;"
     d="M 6.6785922,5.1165123 C 5.5705922,5.1165123 4.6785922,6.0085123 4.6785922,7.1165123 L 4.6785922,53.501354 C 4.6785922,54.609354 5.5705922,55.501354 6.6785922,55.501354 L 53.423324,55.501354 C 54.531324,55.501354 55.423324,54.609354 55.423324,53.501354 L 55.423324,7.1165123 C 55.423324,6.0085123 54.531324,5.1165123 53.423324,5.1165123 L 6.6785922,5.1165123 z "
     id="rect812" />
  <path
     id="path847"
     style="font-size:24.000000;fill:#333333;stroke-width:1.0000000pt;font-family:VAG Rounded Black SSi;"
     transform="matrix(0.962974,0.000000,0.000000,0.962974,31.00940,3.290571)"
     d="M -2.0575149,21.201441 L -2.0575149,7.2092533 C -2.0575149,6.6936283 -1.8895462,6.2639408 -1.5536087,5.9201908 C -1.2176712,5.5764408 -0.78407741,5.4045658 -0.25282741,5.4045658 C 0.27842259,5.4045658 0.70811009,5.5647221 1.0362351,5.8850346 C 1.3721726,6.2053471 1.5401413,6.6467533 1.5401413,7.2092533 L 1.5401413,12.435816 L 7.4463913,6.0842533 C 7.8604538,5.6311283 8.3252976,5.4045658 8.8409226,5.4045658 C 9.3174851,5.4045658 9.7315476,5.5686283 10.083110,5.8967533 C 10.442485,6.2170658 10.622173,6.6389408 10.622173,7.1623783 C 10.622173,7.4592533 10.528423,7.7522221 10.340923,8.0412846 C 10.153423,8.3225346 9.8526413,8.6701908 9.4385788,9.0842533 L 4.9034226,13.595972 L 10.446391,19.443628 C 10.766704,19.748316 11.012798,20.045191 11.184673,20.334253 C 11.364360,20.615503 11.454204,20.928003 11.454204,21.271753 C 11.454204,21.818628 11.274516,22.236597 10.915141,22.525660 C 10.555766,22.806910 10.110454,22.947535 9.5792038,22.947535 C 9.2667038,22.947535 8.9815476,22.861597 8.7237351,22.689722 C 8.4737351,22.517847 8.1534226,22.228785 7.7627976,21.822535 L 1.5401413,15.025660 L 1.5401413,21.201441 C 1.5401413,21.693628 1.3721726,22.107691 1.0362351,22.443628 C 0.70029759,22.779566 0.27061009,22.947535 -0.25282741,22.947535 C -0.77626491,22.947535 -1.2098587,22.787378 -1.5536087,22.467066 C -1.8895462,22.146753 -2.0575149,21.724878 -2.0575149,21.201441 z " />
  <path
     style="font-size:12.000000;fill:#333333;fill-rule:evenodd;stroke:none;stroke-width:0.37499878;stroke-linecap:round;stroke-linejoin:round;"
     d="M -21.627245,55.721621 L -17.042733,60.524431 L -9.6202327,55.503287 L -3.7258684,58.123046 L -1.7610867,66.727554 L 4.5698723,66.669406 L 6.3163602,57.840743 L 12.210715,55.503287 L 19.633222,60.306138 L 23.126180,55.503287 L 14.702540,47.553743 C -6.8880441,67.356641 -25.545634,36.835521 -7.0005075,24.066739 L -7.0005316,19.482227 L -9.1836083,20.573773 L -15.951206,16.271502 L -20.626145,20.110635 L -16.387821,27.341355 L -18.789221,33.235710 L -27.059468,34.609531 L -27.084989,40.876547 L -18.570901,43.059645 L -16.224079,48.790299 L -21.627245,55.721621 z "
     sodipodi:nodetypes="ccccccccccccccccccccccc"
     transform="matrix(0.484205,0.000000,0.000000,0.484205,31.00940,3.290571)"
     id="path705" />
  <path
     id="path846"
     style="font-size:12.000000;font-weight:900;fill:#333333;stroke-width:1.0000000pt;font-family:VAG Rounded Black SSi;"
     d="M 50.651369,48.068342 L 45.561907,48.068342 C 45.561907,48.450566 45.738319,48.812208 46.091141,49.153271 C 46.443963,49.488451 47.020239,49.656042 47.819970,49.656042 C 48.231596,49.656042 48.572657,49.603119 48.843155,49.497273 C 49.113651,49.391425 49.445892,49.241477 49.839877,49.047423 C 50.239742,48.847491 50.527880,48.747525 50.704292,48.747525 C 51.033593,48.747525 51.312911,48.862193 51.542244,49.091526 C 51.771579,49.320861 51.886246,49.617820 51.886246,49.982403 C 51.886246,50.417551 51.668673,50.814476 51.233525,51.173178 C 50.804258,51.526001 50.248562,51.796497 49.566439,51.984669 C 48.884316,52.178722 48.181613,52.275748 47.458327,52.275748 C 46.711520,52.275748 46.035277,52.146379 45.429600,51.887643 C 44.829801,51.628906 44.309388,51.264324 43.868360,50.793895 C 43.433213,50.317583 43.100973,49.764829 42.871638,49.135629 C 42.642303,48.500549 42.527636,47.830187 42.527636,47.124543 C 42.527636,46.460060 42.648183,45.813220 42.889279,45.184020 C 43.130374,44.554820 43.471435,44.002066 43.912463,43.525756 C 44.353491,43.049445 44.879784,42.676042 45.491343,42.405545 C 46.102901,42.129167 46.758563,41.990978 47.458327,41.990978 C 48.358024,41.990978 49.154814,42.217373 49.848697,42.670161 C 50.542582,43.122951 51.077696,43.716868 51.454040,44.451914 C 51.836263,45.186960 52.027375,45.974930 52.027375,46.815824 C 52.027375,47.298013 51.918588,47.627314 51.701014,47.803726 C 51.483441,47.980136 51.133559,48.068342 50.651369,48.068342 z M 45.561907,46.110179 L 49.204797,46.110179 C 49.204797,45.886724 49.125413,45.639749 48.966642,45.369252 C 48.807872,45.092874 48.590299,44.863540 48.313921,44.681249 C 48.043424,44.493077 47.734705,44.398991 47.387763,44.398991 C 47.040821,44.398991 46.726221,44.493077 46.443963,44.681249 C 46.167586,44.869420 45.950012,45.098755 45.791242,45.369252 C 45.638351,45.633868 45.561907,45.880844 45.561907,46.110179 z M 34.165749,47.124543 C 34.165749,46.189564 34.365680,45.328089 34.765546,44.540120 C 35.165411,43.746269 35.724047,43.122951 36.441451,42.670161 C 37.164737,42.217373 37.987989,41.990978 38.911207,41.990978 C 39.399278,41.990978 39.902051,42.049782 40.419523,42.167390 C 40.936996,42.279117 41.372143,42.473169 41.724965,42.749547 C 42.077787,43.025923 42.254199,43.399327 42.254199,43.869757 C 42.254199,44.246100 42.142472,44.560701 41.919017,44.813556 C 41.701444,45.066412 41.428006,45.192841 41.098705,45.192841 C 40.939936,45.192841 40.784106,45.166378 40.631217,45.113455 C 40.484206,45.060532 40.334258,45.004669 40.181367,44.945865 C 40.034358,44.881180 39.875588,44.828257 39.705057,44.787095 C 39.540407,44.745933 39.331654,44.725352 39.078799,44.725352 C 38.620129,44.725352 38.232025,44.834137 37.914485,45.051712 C 37.602825,45.263406 37.367610,45.551544 37.208840,45.916126 C 37.055951,46.274830 36.979505,46.677635 36.979505,47.124543 C 36.979505,47.559690 37.055951,47.965435 37.208840,48.341779 C 37.361730,48.712242 37.582244,49.006262 37.870382,49.223835 C 38.164401,49.441408 38.511342,49.550196 38.911207,49.550196 C 39.363997,49.550196 39.819725,49.464930 40.278395,49.294400 C 40.737063,49.123869 41.010501,49.038603 41.098705,49.038603 C 41.310398,49.038603 41.504452,49.100348 41.680862,49.223835 C 41.857274,49.347322 41.995463,49.509033 42.095429,49.708966 C 42.201275,49.903018 42.254199,50.102950 42.254199,50.308763 C 42.254199,50.743912 42.063086,51.111434 41.680862,51.411333 C 41.304518,51.711232 40.854670,51.928806 40.331318,52.064055 C 39.807965,52.205184 39.334594,52.275748 38.911207,52.275748 C 38.211444,52.275748 37.570482,52.146379 36.988327,51.887643 C 36.412050,51.628906 35.909278,51.261384 35.480012,50.785073 C 35.050744,50.302883 34.724383,49.750128 34.500929,49.126809 C 34.277475,48.497609 34.165749,47.830187 34.165749,47.124543 z M 30.478756,50.608663 L 30.478756,43.640423 C 30.478756,43.222917 30.608123,42.875974 30.866859,42.599596 C 31.131477,42.317339 31.469598,42.176210 31.881225,42.176210 C 32.298730,42.176210 32.636852,42.317339 32.895588,42.599596 C 33.160205,42.875974 33.292514,43.222917 33.292514,43.640423 L 33.292514,50.608663 C 33.292514,51.026169 33.160205,51.378992 32.895588,51.667129 C 32.636852,51.949387 32.298730,52.090516 31.881225,52.090516 C 31.469598,52.090516 31.131477,51.949387 30.866859,51.667129 C 30.608123,51.378992 30.478756,51.026169 30.478756,50.608663 z M 30.205318,39.627069 C 30.205318,39.168400 30.369968,38.771476 30.699269,38.436294 C 31.028570,38.101113 31.422555,37.933523 31.881225,37.933523 C 32.345773,37.933523 32.742698,38.098173 33.071999,38.427474 C 33.401300,38.756775 33.565950,39.156640 33.565950,39.627069 C 33.565950,40.115141 33.401300,40.520886 33.071999,40.844307 C 32.742698,41.167726 32.345773,41.329436 31.881225,41.329436 C 31.422555,41.329436 31.028570,41.164786 30.699269,40.835485 C 30.369968,40.506184 30.205318,40.103379 30.205318,39.627069 z M 25.239345,50.608663 L 25.239345,44.901762 L 24.912984,44.901762 C 24.448436,44.901762 24.086792,44.792976 23.828055,44.575401 C 23.563439,44.357828 23.431130,44.028527 23.431130,43.587499 C 23.431130,43.140591 23.563439,42.811290 23.828055,42.599596 C 24.086792,42.387903 24.448436,42.282057 24.912984,42.282057 L 25.239345,42.282057 L 25.239345,41.003076 C 25.239345,40.585570 25.309909,40.185705 25.451038,39.803480 C 25.592167,39.421256 25.792100,39.091955 26.050837,38.815577 C 26.315453,38.533320 26.624172,38.315746 26.976994,38.162857 C 27.329817,38.009967 27.723802,37.933523 28.158949,37.933523 C 28.699943,37.933523 29.146851,38.030549 29.499673,38.224600 C 29.858377,38.412772 30.037727,38.753835 30.037727,39.247786 C 30.037727,40.129841 29.593759,40.570869 28.705824,40.570869 C 28.476489,40.570869 28.308899,40.635553 28.203052,40.764921 C 28.103086,40.894290 28.053103,41.135384 28.053103,41.488207 L 28.053103,42.282057 L 28.829312,42.282057 C 29.305621,42.282057 29.670205,42.387903 29.923060,42.599596 C 30.181796,42.811290 30.311165,43.140591 30.311165,43.587499 C 30.311165,44.028527 30.181796,44.357828 29.923060,44.575401 C 29.670205,44.792976 29.305621,44.901762 28.829312,44.901762 L 28.053103,44.901762 L 28.053103,50.608663 C 28.053103,51.026169 27.920794,51.378992 27.656177,51.667129 C 27.397441,51.949387 27.059320,52.090516 26.641814,52.090516 C 26.230187,52.090516 25.892066,51.949387 25.627450,51.667129 C 25.368713,51.378992 25.239345,51.026169 25.239345,50.608663 z M 19.223725,50.608663 L 19.223725,44.901762 L 18.897365,44.901762 C 18.432816,44.901762 18.071172,44.792976 17.812435,44.575401 C 17.547819,44.357828 17.415512,44.028527 17.415512,43.587499 C 17.415512,43.140591 17.547819,42.811290 17.812435,42.599596 C 18.071172,42.387903 18.432816,42.282057 18.897365,42.282057 L 19.223725,42.282057 L 19.223725,41.003076 C 19.223725,40.585570 19.294289,40.185705 19.435418,39.803480 C 19.576547,39.421256 19.776480,39.091955 20.035217,38.815577 C 20.299833,38.533320 20.608552,38.315746 20.961374,38.162857 C 21.314197,38.009967 21.708182,37.933523 22.143330,37.933523 C 22.684324,37.933523 23.131232,38.030549 23.484055,38.224600 C 23.842757,38.412772 24.022107,38.753835 24.022107,39.247786 C 24.022107,40.129841 23.578141,40.570869 22.690204,40.570869 C 22.460869,40.570869 22.293279,40.635553 22.187432,40.764921 C 22.087466,40.894290 22.037483,41.135384 22.037483,41.488207 L 22.037483,42.282057 L 22.813692,42.282057 C 23.290001,42.282057 23.654585,42.387903 23.907441,42.599596 C 24.166178,42.811290 24.295545,43.140591 24.295545,43.587499 C 24.295545,44.028527 24.166178,44.357828 23.907441,44.575401 C 23.654585,44.792976 23.290001,44.901762 22.813692,44.901762 L 22.037483,44.901762 L 22.037483,50.608663 C 22.037483,51.026169 21.905174,51.378992 21.640557,51.667129 C 21.381821,51.949387 21.043700,52.090516 20.626194,52.090516 C 20.214568,52.090516 19.876446,51.949387 19.611830,51.667129 C 19.353093,51.378992 19.223725,51.026169 19.223725,50.608663 z M 12.820001,41.990978 C 13.525645,41.990978 14.169547,42.123287 14.751703,42.387903 C 15.339740,42.646639 15.842512,43.011223 16.260018,43.481653 C 16.683404,43.952083 17.006825,44.496017 17.230280,45.113455 C 17.459613,45.725014 17.574281,46.395377 17.574281,47.124543 C 17.574281,48.071282 17.374349,48.941577 16.974484,49.735428 C 16.580498,50.523397 16.021863,51.143777 15.298578,51.596565 C 14.575292,52.049353 13.749100,52.275748 12.820001,52.275748 C 12.120236,52.275748 11.479276,52.146379 10.897119,51.887643 C 10.320843,51.628906 9.8180723,51.261384 9.3888041,50.785073 C 8.9595374,50.302883 8.6331766,49.750128 8.4097232,49.126809 C 8.1862684,48.497609 8.0745409,47.830187 8.0745409,47.124543 C 8.0745409,46.189564 8.2744743,45.328089 8.6743396,44.540120 C 9.0742048,43.746269 9.6328404,43.122951 10.350245,42.670161 C 11.073531,42.217373 11.896783,41.990978 12.820001,41.990978 z M 12.820001,44.725352 C 12.220204,44.725352 11.746834,44.954685 11.399892,45.413355 C 11.058829,45.872023 10.888299,46.442420 10.888299,47.124543 C 10.888299,47.559690 10.964744,47.965435 11.117634,48.341779 C 11.270523,48.712242 11.491038,49.006262 11.779175,49.223835 C 12.073193,49.441408 12.420136,49.550196 12.820001,49.550196 C 13.425679,49.550196 13.899049,49.320861 14.240111,48.862193 C 14.581172,48.397643 14.751703,47.818426 14.751703,47.124543 C 14.751703,46.436538 14.581172,45.866143 14.240111,45.413355 C 13.899049,44.954685 13.425679,44.725352 12.820001,44.725352 z "
     transform="translate(0.000000,-0.152909)" />
  <metadata
     id="metadata16">
    <rdf:RDF
       id="RDF17">
      <cc:Work
         rdf:about=""
         id="Work18">
        <dc:title
           id="title19">Part of the Flat Icon Collection (Thu Aug 26 14:40:35 2004)</dc:title>
        <dc:description
           id="description21" />
        <dc:subject
           id="subject22">
          <rdf:Bag
             id="Bag23">
            <rdf:li
               id="li24" />
          </rdf:Bag>
        </dc:subject>
        <dc:publisher
           id="publisher25">
          <cc:Agent
             rdf:about=""
             id="Agent26">
            <dc:title
               id="title27" />
          </cc:Agent>
        </dc:publisher>
        <dc:creator
           id="creator28">
          <cc:Agent
             rdf:about=""
             id="Agent29">
            <dc:title
               id="title30">Danny Allen</dc:title>
          </cc:Agent>
        </dc:creator>
        <dc:rights
           id="rights32">
          <cc:Agent
             rdf:about=""
             id="Agent33">
            <dc:title
               id="title34">Danny Allen</dc:title>
          </cc:Agent>
        </dc:rights>
        <dc:date
           id="date36" />
        <dc:format
           id="format37">image/svg+xml</dc:format>
        <dc:type
           rdf:resource="http://purl.org/dc/dcmitype/StillImage"
           id="type39" />
        <cc:license
           rdf:resource="http://creativecommons.org/licenses/LGPL/2.1/"
           id="license40">
          <dc:date
             id="date41" />
        </cc:license>
        <dc:language
           id="language42">en</dc:language>
      </cc:Work>
    </rdf:RDF>
  </metadata>
</svg>
