<?xml version="1.0" encoding="UTF-8" standalone="no"?>
<!DOCTYPE svg PUBLIC "-//W3C//DTD SVG 20010904//EN"
"http://www.w3.org/TR/2001/REC-SVG-20010904/DTD/svg10.dtd">
<svg
   sodipodi:docname="kpresenter_kpr.svg"
   height="60.0000000"
   sodipodi:version="0.32"
   width="60.0000000"
   _SVGFile__filename="scalable/mimetypes/kpresenter_kpr.svg"
   version="1.0"
   y="0"
   x="0"
   inkscape:version="0.39"
   id="svg1"
   sodipodi:docbase="/home/danny/work/flat/newscale/mimetypes"
   xmlns="http://www.w3.org/2000/svg"
   xmlns:cc="http://web.resource.org/cc/"
   xmlns:inkscape="http://www.inkscape.org/namespaces/inkscape"
   xmlns:sodipodi="http://sodipodi.sourceforge.net/DTD/sodipodi-0.dtd"
   xmlns:rdf="http://www.w3.org/1999/02/22-rdf-syntax-ns#"
   xmlns:dc="http://purl.org/dc/elements/1.1/"
   xmlns:xlink="http://www.w3.org/1999/xlink">
  <sodipodi:namedview
     bordercolor="#666666"
     inkscape:pageshadow="2"
     inkscape:window-y="0"
     snaptoguides="true"
     pagecolor="#ffffff"
     inkscape:window-height="685"
     inkscape:zoom="9.8238822"
     inkscape:window-x="0"
     borderopacity="1.0"
     inkscape:cx="32.432645"
     inkscape:cy="29.337014"
     inkscape:window-width="1016"
     inkscape:pageopacity="0.0"
     id="base"
     showguides="true" />
  <defs
     id="defs3">
    <linearGradient
       id="linearGradient900">
      <stop
         style="stop-color:#000;stop-opacity:1;"
         id="stop901"
         offset="0" />
      <stop
         style="stop-color:#fff;stop-opacity:1;"
         id="stop902"
         offset="1" />
    </linearGradient>
    <linearGradient
       xlink:href="#linearGradient900"
       id="linearGradient903" />
    <linearGradient
       xlink:href="#linearGradient900"
       id="linearGradient904" />
    <linearGradient
       xlink:href="#linearGradient900"
       id="linearGradient905" />
    <linearGradient
       xlink:href="#linearGradient900"
       id="linearGradient906" />
    <linearGradient
       xlink:href="#linearGradient900"
       id="linearGradient907" />
  </defs>
  <path
     style="font-size:12.000000;fill:#b3b3b3;fill-opacity:1.0000000;fill-rule:evenodd;stroke:#333333;stroke-width:3.1250000;stroke-linecap:round;stroke-linejoin:round;stroke-opacity:1.0000000;"
     d="M 6.6785922,5.1165123 C 5.5705922,5.1165123 4.6785922,6.0085123 4.6785922,7.1165123 L 4.6785922,53.501354 C 4.6785922,54.609354 5.5705922,55.501354 6.6785922,55.501354 L 53.423324,55.501354 C 54.531324,55.501354 55.423324,54.609354 55.423324,53.501354 L 55.423324,7.1165123 C 55.423324,6.0085123 54.531324,5.1165123 53.423324,5.1165123 L 6.6785922,5.1165123 z "
     id="rect812" />
  <g
     id="g1574"
     transform="translate(-9.463440e-2,2.789643e-7)">
    <g
       id="g947"
       transform="translate(0.157700,0.000000)">
      <path
         style="font-size:12.000000;fill:#7f7f7f;fill-rule:evenodd;stroke:#333333;stroke-width:2.3473532;stroke-linecap:round;stroke-linejoin:round;"
         transform="matrix(0.798772,0.000000,0.000000,0.798772,17.96887,-16.43113)"
         d="M 9.9062500,49.226304 C 6.8977640,50.827594 4.9440650,53.865134 3.6562500,57.132554 L 26.437500,57.132554 C 25.255631,53.944455 23.446892,50.939029 20.687500,49.226304 C 17.585032,49.091417 13.683172,49.226304 9.9062500,49.226304 z "
         id="path692" />
      <path
         transform="matrix(0.620637,0.000000,0.000000,0.620637,17.87050,3.451635)"
         style="font-size:12.000000;fill:#cccccc;fill-opacity:1.0000000;fill-rule:evenodd;stroke:#333333;stroke-width:3.0210896;stroke-linecap:round;stroke-linejoin:round;"
         d="M 31.850417,22.301342 C 31.850417,29.105455 26.328239,34.627633 19.524126,34.627633 C 12.720013,34.627633 7.1978350,29.105455 7.1978350,22.301342 C 7.1978350,15.497229 12.720013,9.9750509 19.524126,9.9750509 C 26.328239,9.9750509 31.850417,15.497229 31.850417,22.301342 z "
         id="path716" />
    </g>
    <path
       style="font-size:12.000000;fill:#b3b3b3;fill-opacity:1.0000000;fill-rule:evenodd;stroke:#333333;stroke-width:3.3077314;stroke-linecap:round;stroke-linejoin:round;stroke-opacity:1.0000000;"
       transform="matrix(0.755805,0.000000,0.000000,0.755805,7.932011,6.849774)"
       d="M 8.4062500,34.000000 L 8.4062500,57.968750 L 50.375000,57.968750 L 50.375000,34.000000 L 8.4062500,34.000000 z "
       sodipodi:stroke-cmyk="(0 0 0 0.8)"
       id="path699"
       sodipodi:nodetypes="ccccc" />
    <path
       transform="matrix(0.484494,0.000000,0.000000,0.484494,32.64872,39.67146)"
       style="font-size:24.000000;font-weight:normal;fill:#333333;stroke-width:1.0000000pt;font-family:VAG Rounded Black SSi;"
       d="M -6.8225527,5.8193731 L -6.8225527,-8.1728144 C -6.8225538,-8.6884233 -6.6545852,-9.1181103 -6.3186464,-9.4618769 C -5.9827108,-9.8056096 -5.5491175,-9.9774845 -5.0178652,-9.9775019 C -4.4866186,-9.9774845 -4.0569315,-9.8173284 -3.7288027,-9.4970331 C -3.3928697,-9.1767040 -3.2249011,-8.7352982 -3.2248964,-8.1728144 L -3.2248964,-2.9462519 L 2.6813536,-9.2978144 C 3.0954051,-9.7509222 3.5602484,-9.9774845 4.0758848,-9.9775019 C 4.5524349,-9.9774845 4.9664970,-9.8134221 5.3180723,-9.4853144 C 5.6774337,-9.1649853 5.8571211,-8.7431107 5.8571348,-8.2196894 C 5.8571211,-7.9227990 5.7633712,-7.6298306 5.5758848,-7.3407831 C 5.3883715,-7.0595186 5.0875906,-6.7118627 4.6735411,-6.2978144 L 0.13838482,-1.7860956 L 5.6813536,4.0615606 C 6.0016522,4.3662512 6.2477457,4.6631259 6.4196348,4.9521856 C 6.5993078,5.2334378 6.6891515,5.5459375 6.6891661,5.8896856 C 6.6891515,6.4365616 6.5094642,6.8545300 6.1501036,7.1435919 C 5.7907149,7.4248419 5.3454028,7.5654667 4.8141661,7.5654669 C 4.5016537,7.5654667 4.2164977,7.4795293 3.9586973,7.3076544 C 3.7086857,7.1357797 3.3883735,6.8467175 2.9977598,6.4404669 L -3.2248964,-0.35640812 L -3.2248964,5.8193731 C -3.2249011,6.3115617 -3.3928697,6.7256238 -3.7288027,7.0615606 C -4.0647440,7.3974982 -4.4944311,7.5654667 -5.0178652,7.5654669 C -5.5413050,7.5654667 -5.9748984,7.4053107 -6.3186464,7.0849981 C -6.6545852,6.7646863 -6.8225538,6.3428117 -6.8225527,5.8193731"
       id="text702" />
    <path
       style="font-size:12.000000;fill:#333333;fill-rule:evenodd;stroke:#333333;stroke-width:3.5383141;stroke-linecap:round;stroke-linejoin:round;stroke-miterlimit:4.0000000;stroke-opacity:1.0000000;"
       d="M 37.139197,181.14740 L 52.946277,197.70716 L 78.538546,180.39460 L 98.861908,189.42735 L 105.63634,219.09510 L 127.46505,218.89461 L 133.48682,188.45399 L 153.81015,180.39460 L 179.40244,196.95450 L 191.44592,180.39460 L 162.40179,152.98512 C 87.958944,221.26415 23.628859,116.02943 87.571178,72.003552 L 87.571095,56.196470 L 80.043997,59.960043 L 56.709788,45.126111 L 40.590920,58.363176 L 55.204367,83.294200 L 46.924507,103.61753 L 18.409265,108.35437 L 18.321270,129.96261 L 47.677259,137.48978 L 55.768940,157.24868 L 37.139197,181.14740 z "
       sodipodi:nodetypes="ccccccccccccccccccccccc"
       transform="matrix(7.065512e-2,0.000000,0.000000,7.065512e-2,22.44731,32.99451)"
       id="path705"
       sodipodi:stroke-cmyk="(0.0000000 0.0000000 0.0000000 0.80000001)" />
    <path
       style="fill:none;fill-opacity:0.75000000;fill-rule:evenodd;stroke:#333333;stroke-width:1.6538657;stroke-linecap:round;stroke-linejoin:round;stroke-opacity:1.0000000;"
       d="M 18.831659,34.806294 L 6.1075651,17.247044 L 13.233058,13.684298"
       sodipodi:nodetypes="ccc"
       transform="matrix(0.755805,0.000000,0.000000,0.755805,7.354995,6.849774)"
       sodipodi:stroke-cmyk="(0 0 0 0.8)"
       id="path700" />
    <path
       sodipodi:rx="3.0537825"
       sodipodi:ry="3.0537825"
       style="font-size:12.000000;fill:#333333;fill-opacity:1.0000000;fill-rule:evenodd;stroke:#333333;stroke-width:1.6538657;stroke-linecap:round;stroke-linejoin:round;stroke-opacity:1.0000000;"
       sodipodi:type="arc"
       d="M 15.777877 13.684299 A 3.0537825 3.0537825 0 1 0 9.6703119,13.684299 A 3.0537825 3.0537825 0 1 0 15.777877 13.684299 z"
       transform="matrix(0.755805,0.000000,0.000000,0.755805,7.354995,6.849774)"
       sodipodi:cy="13.684299"
       sodipodi:cx="12.724094"
       sodipodi:stroke-cmyk="(0 0 0 0.8)"
       id="path701" />
    <path
       style="font-size:12.000000;fill:#4c4c4c;fill-opacity:1.0000000;fill-rule:evenodd;stroke:#333333;stroke-width:2.5000000;stroke-linecap:round;stroke-linejoin:round;stroke-opacity:1.0000000;"
       d="M 13.948495,28.155738 C 12.692347,28.155738 11.681080,28.891204 11.681080,29.804766 L 11.681080,31.122835 C 11.681080,32.036397 12.692347,32.771863 13.948495,32.771863 L 46.342690,32.771863 C 47.598838,32.771863 48.610105,32.036397 48.610105,31.122835 L 48.610105,29.804766 C 48.610105,28.891204 47.598838,28.155738 46.342690,28.155738 L 13.948495,28.155738 z "
       id="rect682" />
  </g>
  <metadata
     id="metadata25">
    <rdf:RDF
       id="RDF26">
      <cc:Work
         rdf:about=""
         id="Work27">
        <dc:title
           id="title28">Part of the Flat Icon Collection (Thu Aug 26 14:40:35 2004)</dc:title>
        <dc:description
           id="description30" />
        <dc:subject
           id="subject31">
          <rdf:Bag
             id="Bag32">
            <rdf:li
               id="li33" />
          </rdf:Bag>
        </dc:subject>
        <dc:publisher
           id="publisher34">
          <cc:Agent
             rdf:about=""
             id="Agent35">
            <dc:title
               id="title36" />
          </cc:Agent>
        </dc:publisher>
        <dc:creator
           id="creator37">
          <cc:Agent
             rdf:about=""
             id="Agent38">
            <dc:title
               id="title39">Danny Allen</dc:title>
          </cc:Agent>
        </dc:creator>
        <dc:rights
           id="rights41">
          <cc:Agent
             rdf:about=""
             id="Agent42">
            <dc:title
               id="title43">Danny Allen</dc:title>
          </cc:Agent>
        </dc:rights>
        <dc:date
           id="date45" />
        <dc:format
           id="format46">image/svg+xml</dc:format>
        <dc:type
           rdf:resource="http://purl.org/dc/dcmitype/StillImage"
           id="type48" />
        <cc:license
           rdf:resource="http://creativecommons.org/licenses/LGPL/2.1/"
           id="license49">
          <dc:date
             id="date50" />
        </cc:license>
        <dc:language
           id="language51">en</dc:language>
      </cc:Work>
    </rdf:RDF>
  </metadata>
</svg>
