<?xml version="1.0" encoding="UTF-8" standalone="no"?>
<!DOCTYPE svg PUBLIC "-//W3C//DTD SVG 20010904//EN"
"http://www.w3.org/TR/2001/REC-SVG-20010904/DTD/svg10.dtd">
<svg
   sodipodi:docname="man.svg"
   height="60.0000000"
   sodipodi:version="0.32"
   width="60.0000000"
   _SVGFile__filename="scalable/mimetypes/man.svg"
   version="1.0"
   y="0"
   x="0"
   inkscape:version="0.39"
   id="svg1"
   sodipodi:docbase="/home/danny/work/flat/newscale/mimetypes"
   xmlns="http://www.w3.org/2000/svg"
   xmlns:cc="http://web.resource.org/cc/"
   xmlns:inkscape="http://www.inkscape.org/namespaces/inkscape"
   xmlns:sodipodi="http://sodipodi.sourceforge.net/DTD/sodipodi-0.dtd"
   xmlns:rdf="http://www.w3.org/1999/02/22-rdf-syntax-ns#"
   xmlns:dc="http://purl.org/dc/elements/1.1/"
   xmlns:xlink="http://www.w3.org/1999/xlink">
  <sodipodi:namedview
     bordercolor="#666666"
     inkscape:pageshadow="2"
     inkscape:window-y="0"
     pagecolor="#ffffff"
     inkscape:window-height="685"
     inkscape:zoom="6.9465337"
     inkscape:window-x="0"
     borderopacity="1.0"
     inkscape:cx="37.697540"
     inkscape:cy="21.175859"
     inkscape:window-width="1016"
     inkscape:pageopacity="0.0"
     id="base" />
  <defs
     id="defs3">
    <linearGradient
       id="linearGradient900">
      <stop
         style="stop-color:#000;stop-opacity:1;"
         id="stop901"
         offset="0" />
      <stop
         style="stop-color:#fff;stop-opacity:1;"
         id="stop902"
         offset="1" />
    </linearGradient>
    <linearGradient
       xlink:href="#linearGradient900"
       id="linearGradient903" />
    <linearGradient
       xlink:href="#linearGradient900"
       id="linearGradient904" />
    <linearGradient
       xlink:href="#linearGradient900"
       id="linearGradient905" />
    <linearGradient
       xlink:href="#linearGradient900"
       id="linearGradient906" />
    <linearGradient
       xlink:href="#linearGradient900"
       id="linearGradient907" />
  </defs>
  <path
     style="font-size:12.000000;fill:#b3b3b3;fill-opacity:1.0000000;fill-rule:evenodd;stroke:#333333;stroke-width:3.1250000;stroke-opacity:1.0000000;stroke-linejoin:round;stroke-linecap:round;"
     d="M 6.6785922,5.1165123 C 5.5705922,5.1165123 4.6785922,6.0085123 4.6785922,7.1165123 L 4.6785922,53.501354 C 4.6785922,54.609354 5.5705922,55.501354 6.6785922,55.501354 L 53.423324,55.501354 C 54.531324,55.501354 55.423324,54.609354 55.423324,53.501354 L 55.423324,7.1165123 C 55.423324,6.0085123 54.531324,5.1165123 53.423324,5.1165123 L 6.6785922,5.1165123 z "
     id="rect812" />
  <path
     transform="matrix(0.725285,-0.340257,0.000000,0.801133,-28.94646,39.09752)"
     style="font-size:12.000000;fill:#b3b3b3;fill-opacity:1.0000000;fill-rule:evenodd;stroke:#4c4c4c;stroke-width:3.2843423;stroke-linecap:round;stroke-linejoin:round;stroke-opacity:1.0000000;"
     d="M 83.260885,9.0862112 C 82.021639,9.0862112 81.023979,10.083871 81.023979,11.323117 L 81.023979,47.902952 C 81.023979,49.142198 82.021639,50.139857 83.260885,50.139857 L 104.11878,50.139857 C 105.35803,50.139857 106.35569,49.142198 106.35569,47.902952 L 106.35569,11.323117 C 106.35569,10.083871 105.35803,9.0862112 104.11878,9.0862112 L 83.260885,9.0862112 z "
     id="rect602" />
  <path
     transform="matrix(-0.725285,-0.340257,0.000000,0.801133,-28.94646,39.09752)"
     style="font-size:12.000000;fill:#cccccc;fill-opacity:1.0000000;fill-rule:evenodd;stroke:#4c4c4c;stroke-width:3.2843385;stroke-linecap:round;stroke-linejoin:round;stroke-opacity:1.0000000;"
     d="M -78.930487,-59.799686 C -80.169735,-59.799686 -81.167397,-58.802025 -81.167397,-57.562777 L -81.167397,-20.982958 C -81.167397,-19.743710 -80.169735,-18.746048 -78.930487,-18.746048 L -58.072542,-18.746048 C -56.833294,-18.746048 -55.835632,-19.743710 -55.835632,-20.982958 L -55.835632,-57.562777 C -55.835632,-58.802025 -56.833294,-59.799686 -58.072542,-59.799686 L -78.930487,-59.799686 z "
     id="rect603" />
  <path
     style="font-size:12.000000;fill:#7f7f7f;fill-rule:evenodd;stroke:#333333;stroke-width:1.3991976;stroke-linecap:round;stroke-linejoin:round;stroke-dasharray:none;"
     transform="matrix(1.338928,5.491755e-2,-5.491755e-2,1.338928,-5.714906,7.925810)"
     d="M 23.957627,27.706916 C 21.622911,29.081752 20.408182,31.666648 19.564296,34.324159 L 36.578812,33.590843 C 35.591409,31.075620 34.291099,28.625812 32.038506,27.358635 C 29.712235,27.357755 26.784316,27.585088 23.957627,27.706916 z "
     id="path849" />
  <path
     transform="matrix(0.779971,-1.622585e-3,1.622585e-3,0.779971,14.39550,21.93795)"
     style="font-size:12.000000;fill:#cccccc;fill-opacity:1.0000000;fill-rule:evenodd;stroke:#333333;stroke-width:2.4039302;stroke-linecap:round;stroke-linejoin:round;"
     d="M 31.850417,22.301342 C 31.850417,29.105455 26.328239,34.627633 19.524126,34.627633 C 12.720013,34.627633 7.1978350,29.105455 7.1978350,22.301342 C 7.1978350,15.497229 12.720013,9.9750509 19.524126,9.9750509 C 26.328239,9.9750509 31.850417,15.497229 31.850417,22.301342 z "
     id="path716" />
  <metadata
     id="metadata18">
    <rdf:RDF
       id="RDF19">
      <cc:Work
         rdf:about=""
         id="Work20">
        <dc:title
           id="title21">Part of the Flat Icon Collection (Thu Aug 26 14:40:35 2004)</dc:title>
        <dc:description
           id="description23" />
        <dc:subject
           id="subject24">
          <rdf:Bag
             id="Bag25">
            <rdf:li
               id="li26" />
          </rdf:Bag>
        </dc:subject>
        <dc:publisher
           id="publisher27">
          <cc:Agent
             rdf:about=""
             id="Agent28">
            <dc:title
               id="title29" />
          </cc:Agent>
        </dc:publisher>
        <dc:creator
           id="creator30">
          <cc:Agent
             rdf:about=""
             id="Agent31">
            <dc:title
               id="title32">Danny Allen</dc:title>
          </cc:Agent>
        </dc:creator>
        <dc:rights
           id="rights34">
          <cc:Agent
             rdf:about=""
             id="Agent35">
            <dc:title
               id="title36">Danny Allen</dc:title>
          </cc:Agent>
        </dc:rights>
        <dc:date
           id="date38" />
        <dc:format
           id="format39">image/svg+xml</dc:format>
        <dc:type
           rdf:resource="http://purl.org/dc/dcmitype/StillImage"
           id="type41" />
        <cc:license
           rdf:resource="http://creativecommons.org/licenses/LGPL/2.1/"
           id="license42">
          <dc:date
             id="date43" />
        </cc:license>
        <dc:language
           id="language44">en</dc:language>
      </cc:Work>
    </rdf:RDF>
  </metadata>
</svg>
