<?xml version="1.0" encoding="UTF-8" standalone="no"?>
<!DOCTYPE svg PUBLIC "-//W3C//DTD SVG 20010904//EN"
"http://www.w3.org/TR/2001/REC-SVG-20010904/DTD/svg10.dtd">
<svg
   sodipodi:docname="message.svg"
   height="60.0000000"
   sodipodi:version="0.32"
   width="60.0000000"
   _SVGFile__filename="scalable/mimetypes/message.svg"
   version="1.0"
   y="0"
   x="0"
   inkscape:version="0.39"
   id="svg1"
   sodipodi:docbase="/home/danny/work/flat/newscale/mimetypes"
   xmlns="http://www.w3.org/2000/svg"
   xmlns:cc="http://web.resource.org/cc/"
   xmlns:inkscape="http://www.inkscape.org/namespaces/inkscape"
   xmlns:sodipodi="http://sodipodi.sourceforge.net/DTD/sodipodi-0.dtd"
   xmlns:rdf="http://www.w3.org/1999/02/22-rdf-syntax-ns#"
   xmlns:dc="http://purl.org/dc/elements/1.1/"
   xmlns:xlink="http://www.w3.org/1999/xlink">
  <sodipodi:namedview
     bordercolor="#666666"
     inkscape:pageshadow="2"
     inkscape:window-y="0"
     pagecolor="#ffffff"
     inkscape:window-height="685"
     inkscape:zoom="6.9465337"
     inkscape:window-x="0"
     borderopacity="1.0"
     inkscape:cx="37.697540"
     inkscape:cy="31.806367"
     inkscape:window-width="1016"
     inkscape:pageopacity="0.0"
     id="base" />
  <defs
     id="defs3">
    <linearGradient
       id="linearGradient900">
      <stop
         style="stop-color:#000;stop-opacity:1;"
         id="stop901"
         offset="0" />
      <stop
         style="stop-color:#fff;stop-opacity:1;"
         id="stop902"
         offset="1" />
    </linearGradient>
    <linearGradient
       xlink:href="#linearGradient900"
       id="linearGradient903" />
    <linearGradient
       xlink:href="#linearGradient900"
       id="linearGradient904" />
    <linearGradient
       xlink:href="#linearGradient900"
       id="linearGradient905" />
    <linearGradient
       xlink:href="#linearGradient900"
       id="linearGradient906" />
    <linearGradient
       xlink:href="#linearGradient900"
       id="linearGradient907" />
  </defs>
  <rect
     style="font-size:12;fill:#b3b3b3;fill-opacity:1.0000000;fill-rule:evenodd;stroke:none;stroke-width:3.125;stroke-opacity:1;stroke-dasharray:none;stroke-linejoin:round;"
     sodipodi:fill-cmyk="(0.0000000 0.0000000 0.0000000 0.30000001)"
     rx="2"
     height="50.38484192"
     width="50.74473190"
     y="5.11651238"
     x="4.67859221"
     id="rect812" />
  <path
     style="font-size:12.000000;fill:#cccccc;fill-opacity:1.0000000;fill-rule:evenodd;stroke:#333333;stroke-width:3.1250000;stroke-linecap:round;stroke-linejoin:round;"
     d="M 55.437500,17.656250 L 12.093750,6.0625000 L 4.6875000,33.656250 L 4.6875000,43.031250 L 51.218750,55.500000 L 53.437500,55.500000 C 54.545500,55.500000 55.437500,54.608000 55.437500,53.500000"
     id="path845"
     sodipodi:nodetypes="ccccccc" />
  <path
     style="font-size:12.000000;fill:none;fill-rule:evenodd;stroke:#333333;stroke-width:11.633388;stroke-linecap:round;stroke-linejoin:round;stroke-dasharray:none;stroke-opacity:1.0000000;"
     d="M 69.818994,119.59804 L 219.94020,210.01066 L 295.25601,165.95197"
     sodipodi:nodetypes="ccc"
     transform="matrix(0.203013,5.439717e-2,-5.687007e-2,0.212242,4.721959,-23.12968)"
     sodipodi:stroke-cmyk="(0.0000000 0.0000000 0.0000000 0.80000001)"
     id="path846" />
  <path
     id="path860"
     style="font-size:12.000000;font-weight:900;fill:#333333;stroke-width:1.0000000pt;font-family:VAG Rounded Black SSi;"
     transform="matrix(1.714889,0.459503,-0.459503,1.714889,0.000000,0.000000)"
     d="M 26.457558,19.653839 C 26.457558,19.466339 26.504433,19.292511 26.598183,19.132355 C 26.695839,18.968292 26.824745,18.837433 26.984901,18.739777 C 27.145058,18.642120 27.318886,18.593292 27.506386,18.593292 C 27.689980,18.593292 27.861855,18.642120 28.022011,18.739777 C 28.182167,18.837433 28.309120,18.968292 28.402870,19.132355 C 28.500526,19.292511 28.549355,19.466339 28.549355,19.653839 C 28.549355,19.845245 28.500526,20.022980 28.402870,20.187042 C 28.309120,20.347198 28.180214,20.474152 28.016151,20.567902 C 27.855995,20.661652 27.686073,20.708527 27.506386,20.708527 C 27.322792,20.708527 27.148964,20.661652 26.984901,20.567902 C 26.824745,20.474152 26.695839,20.347198 26.598183,20.187042 C 26.504433,20.022980 26.457558,19.845245 26.457558,19.653839 z M 23.123573,19.653839 C 23.123573,19.466339 23.170448,19.292511 23.264198,19.132355 C 23.361855,18.968292 23.490761,18.837433 23.650917,18.739777 C 23.811073,18.642120 23.984901,18.593292 24.172401,18.593292 C 24.355995,18.593292 24.527870,18.642120 24.688026,18.739777 C 24.848183,18.837433 24.975136,18.968292 25.068886,19.132355 C 25.166542,19.292511 25.215370,19.466339 25.215370,19.653839 C 25.215370,19.845245 25.166542,20.022980 25.068886,20.187042 C 24.975136,20.347198 24.846230,20.474152 24.682167,20.567902 C 24.522011,20.661652 24.352089,20.708527 24.172401,20.708527 C 23.988808,20.708527 23.814980,20.661652 23.650917,20.567902 C 23.490761,20.474152 23.361855,20.347198 23.264198,20.187042 C 23.170448,20.022980 23.123573,19.845245 23.123573,19.653839 z M 19.789589,19.653839 C 19.789589,19.466339 19.836464,19.292511 19.930214,19.132355 C 20.027870,18.968292 20.156776,18.837433 20.316933,18.739777 C 20.477089,18.642120 20.650917,18.593292 20.838417,18.593292 C 21.022011,18.593292 21.193886,18.642120 21.354042,18.739777 C 21.514198,18.837433 21.641151,18.968292 21.734901,19.132355 C 21.832558,19.292511 21.881386,19.466339 21.881386,19.653839 C 21.881386,19.845245 21.832558,20.022980 21.734901,20.187042 C 21.641151,20.347198 21.512245,20.474152 21.348183,20.567902 C 21.188026,20.661652 21.018105,20.708527 20.838417,20.708527 C 20.654823,20.708527 20.480995,20.661652 20.316933,20.567902 C 20.156776,20.474152 20.027870,20.347198 19.930214,20.187042 C 19.836464,20.022980 19.789589,19.845245 19.789589,19.653839 z M 16.900917,19.601105 L 16.900917,14.972198 C 16.900917,14.694855 16.986855,14.464386 17.158730,14.280792 C 17.334511,14.093292 17.559120,13.999542 17.832558,13.999542 C 18.109901,13.999542 18.334511,14.093292 18.506386,14.280792 C 18.682167,14.464386 18.770058,14.694855 18.770058,14.972198 L 18.770058,19.601105 C 18.770058,19.878448 18.682167,20.112823 18.506386,20.304230 C 18.334511,20.491730 18.109901,20.585480 17.832558,20.585480 C 17.559120,20.585480 17.334511,20.491730 17.158730,20.304230 C 16.986855,20.112823 16.900917,19.878448 16.900917,19.601105 z M 16.719276,12.306183 C 16.719276,12.001495 16.828651,11.737823 17.047401,11.515167 C 17.266151,11.292511 17.527870,11.181183 17.832558,11.181183 C 18.141151,11.181183 18.404823,11.290558 18.623573,11.509308 C 18.842323,11.728058 18.951698,11.993683 18.951698,12.306183 C 18.951698,12.630402 18.842323,12.899933 18.623573,13.114777 C 18.404823,13.329620 18.141151,13.437042 17.832558,13.437042 C 17.527870,13.437042 17.266151,13.327667 17.047401,13.108917 C 16.828651,12.890167 16.719276,12.622589 16.719276,12.306183 z M 10.262245,19.601105 L 10.262245,12.165558 C 10.262245,11.884308 10.350136,11.649933 10.525917,11.462433 C 10.701698,11.274933 10.924355,11.181183 11.193886,11.181183 C 11.467323,11.181183 11.691933,11.274933 11.867714,11.462433 C 12.043495,11.649933 12.131386,11.884308 12.131386,12.165558 L 12.131386,14.345245 L 12.154823,14.345245 C 12.385292,14.200714 12.625526,14.087433 12.875526,14.005402 C 13.125526,13.919464 13.414589,13.876495 13.742714,13.876495 C 14.184120,13.876495 14.580605,13.956573 14.932167,14.116730 C 15.287636,14.276886 15.564980,14.522980 15.764198,14.855011 C 15.967323,15.183136 16.068886,15.597198 16.068886,16.097198 L 16.068886,19.601105 C 16.068886,19.882355 15.980995,20.116730 15.805214,20.304230 C 15.629433,20.491730 15.404823,20.585480 15.131386,20.585480 C 14.857948,20.585480 14.633339,20.489777 14.457558,20.298370 C 14.281776,20.106964 14.193886,19.874542 14.193886,19.601105 L 14.193886,16.612823 C 14.193886,16.272980 14.102089,15.999542 13.918495,15.792511 C 13.738808,15.581573 13.486855,15.476105 13.162636,15.476105 C 12.842323,15.476105 12.590370,15.581573 12.406776,15.792511 C 12.223183,16.003448 12.131386,16.276886 12.131386,16.612823 L 12.131386,19.601105 C 12.131386,19.878448 12.043495,20.112823 11.867714,20.304230 C 11.695839,20.491730 11.471230,20.585480 11.193886,20.585480 C 10.920448,20.585480 10.695839,20.491730 10.520058,20.304230 C 10.348183,20.112823 10.262245,19.878448 10.262245,19.601105 z " />
  <metadata
     id="metadata17">
    <rdf:RDF
       id="RDF18">
      <cc:Work
         rdf:about=""
         id="Work19">
        <dc:title
           id="title20">Part of the Flat Icon Collection (Thu Aug 26 14:40:35 2004)</dc:title>
        <dc:description
           id="description22" />
        <dc:subject
           id="subject23">
          <rdf:Bag
             id="Bag24">
            <rdf:li
               id="li25" />
          </rdf:Bag>
        </dc:subject>
        <dc:publisher
           id="publisher26">
          <cc:Agent
             rdf:about=""
             id="Agent27">
            <dc:title
               id="title28" />
          </cc:Agent>
        </dc:publisher>
        <dc:creator
           id="creator29">
          <cc:Agent
             rdf:about=""
             id="Agent30">
            <dc:title
               id="title31">Danny Allen</dc:title>
          </cc:Agent>
        </dc:creator>
        <dc:rights
           id="rights33">
          <cc:Agent
             rdf:about=""
             id="Agent34">
            <dc:title
               id="title35">Danny Allen</dc:title>
          </cc:Agent>
        </dc:rights>
        <dc:date
           id="date37" />
        <dc:format
           id="format38">image/svg+xml</dc:format>
        <dc:type
           rdf:resource="http://purl.org/dc/dcmitype/StillImage"
           id="type40" />
        <cc:license
           rdf:resource="http://creativecommons.org/licenses/LGPL/2.1/"
           id="license41">
          <dc:date
             id="date42" />
        </cc:license>
        <dc:language
           id="language43">en</dc:language>
      </cc:Work>
    </rdf:RDF>
  </metadata>
  <path
     style="font-size:12.000000;fill:none;fill-opacity:1.0000000;fill-rule:evenodd;stroke:#333333;stroke-width:3.1250000;stroke-linecap:round;stroke-linejoin:round;stroke-opacity:1.0000000;"
     d="M 6.6785920,5.1165123 C 5.5705920,5.1165123 4.6785920,6.0085123 4.6785920,7.1165123 L 4.6785920,53.501354 C 4.6785920,54.609354 5.5705920,55.501354 6.6785920,55.501354 L 53.423324,55.501354 C 54.531324,55.501354 55.423324,54.609354 55.423324,53.501354 L 55.423324,7.1165123 C 55.423324,6.0085123 54.531324,5.1165123 53.423324,5.1165123 L 6.6785920,5.1165123 z "
     id="rect839" />
</svg>
