<?xml version="1.0" encoding="UTF-8" standalone="no"?>
<!DOCTYPE svg PUBLIC "-//W3C//DTD SVG 20010904//EN"
"http://www.w3.org/TR/2001/REC-SVG-20010904/DTD/svg10.dtd">
<svg
   sodipodi:docname="metafont.svg"
   height="60.0000000"
   sodipodi:version="0.32"
   width="60.0000000"
   _SVGFile__filename="scalable/mimetypes/metafont.svg"
   version="1.0"
   y="0"
   x="0"
   inkscape:version="0.39"
   id="svg1"
   sodipodi:docbase="/home/danny/work/flat/newscale/mimetypes"
   xmlns="http://www.w3.org/2000/svg"
   xmlns:cc="http://web.resource.org/cc/"
   xmlns:inkscape="http://www.inkscape.org/namespaces/inkscape"
   xmlns:sodipodi="http://sodipodi.sourceforge.net/DTD/sodipodi-0.dtd"
   xmlns:rdf="http://www.w3.org/1999/02/22-rdf-syntax-ns#"
   xmlns:dc="http://purl.org/dc/elements/1.1/"
   xmlns:xlink="http://www.w3.org/1999/xlink">
  <sodipodi:namedview
     bordercolor="#666666"
     inkscape:pageshadow="2"
     inkscape:window-y="0"
     pagecolor="#ffffff"
     inkscape:window-height="685"
     inkscape:zoom="6.9465337"
     inkscape:window-x="0"
     borderopacity="1.0"
     inkscape:cx="37.697540"
     inkscape:cy="31.806367"
     inkscape:window-width="1016"
     inkscape:pageopacity="0.0"
     id="base" />
  <defs
     id="defs3">
    <linearGradient
       id="linearGradient900">
      <stop
         style="stop-color:#000;stop-opacity:1;"
         id="stop901"
         offset="0" />
      <stop
         style="stop-color:#fff;stop-opacity:1;"
         id="stop902"
         offset="1" />
    </linearGradient>
    <linearGradient
       xlink:href="#linearGradient900"
       id="linearGradient903" />
    <linearGradient
       xlink:href="#linearGradient900"
       id="linearGradient904" />
    <linearGradient
       xlink:href="#linearGradient900"
       id="linearGradient905" />
    <linearGradient
       xlink:href="#linearGradient900"
       id="linearGradient906" />
    <linearGradient
       xlink:href="#linearGradient900"
       id="linearGradient907" />
  </defs>
  <path
     style="font-size:12.000000;fill:#b3b3b3;fill-opacity:1.0000000;fill-rule:evenodd;stroke:#333333;stroke-width:3.1250000;stroke-linecap:round;stroke-linejoin:round;stroke-opacity:1.0000000;"
     d="M 6.6785922,5.1165123 C 5.5705922,5.1165123 4.6785922,6.0085123 4.6785922,7.1165123 L 4.6785922,53.501354 C 4.6785922,54.609354 5.5705922,55.501354 6.6785922,55.501354 L 53.423324,55.501354 C 54.531324,55.501354 55.423324,54.609354 55.423324,53.501354 L 55.423324,7.1165123 C 55.423324,6.0085123 54.531324,5.1165123 53.423324,5.1165123 L 6.6785922,5.1165123 z "
     id="rect812" />
  <path
     id="path840"
     style="font-size:12.000000;font-weight:900;fill:#333333;stroke-width:1.0000000pt;font-family:VAG Rounded Black SSi;"
     d="M 45.738817,46.120695 L 45.738817,38.282823 L 45.290592,38.282823 C 44.652578,38.282823 44.155898,38.133414 43.800548,37.834598 C 43.437124,37.535782 43.255410,37.083519 43.255410,36.477811 C 43.255410,35.864026 43.437124,35.411763 43.800548,35.121023 C 44.155898,34.830283 44.652578,34.684913 45.290592,34.684913 L 45.738817,34.684913 L 45.738817,32.128821 C 45.738817,31.547341 45.916490,31.062774 46.271839,30.675120 C 46.627188,30.287467 47.091566,30.093640 47.664969,30.093640 C 48.246450,30.093640 48.714865,30.287467 49.070215,30.675120 C 49.425564,31.062774 49.603237,31.547341 49.603237,32.128821 L 49.603237,34.684913 L 50.669285,34.684913 C 51.323452,34.684913 51.824170,34.830283 52.171444,35.121023 C 52.526793,35.411763 52.704466,35.864026 52.704466,36.477811 C 52.704466,37.083519 52.526793,37.535782 52.171444,37.834598 C 51.824170,38.133414 51.323452,38.282823 50.669285,38.282823 L 49.603237,38.282823 L 49.603237,46.120695 C 49.603237,46.694098 49.421526,47.178665 49.058101,47.574396 C 48.702752,47.962050 48.238374,48.155877 47.664969,48.155877 C 47.099642,48.155877 46.635266,47.962050 46.271839,47.574396 C 45.916490,47.178665 45.738817,46.694098 45.738817,46.120695 z M 30.947408,46.120695 L 30.947408,36.550495 C 30.947408,35.977091 31.125081,35.500600 31.480430,35.121023 C 31.843857,34.733369 32.308233,34.539542 32.873562,34.539542 C 33.341976,34.539542 33.745783,34.664722 34.084979,34.915082 C 34.432252,35.157365 34.674535,35.444068 34.811830,35.775188 C 35.441767,34.781826 36.552232,34.285145 38.143229,34.285145 C 39.055829,34.285145 39.875554,34.450705 40.602406,34.781826 C 41.337333,35.112947 41.910736,35.621742 42.322618,36.308212 C 42.742577,36.986606 42.952557,37.842674 42.952557,38.876417 L 42.952557,46.120695 C 42.952557,46.702176 42.770843,47.186743 42.407418,47.574396 C 42.043992,47.962050 41.579616,48.155877 41.014288,48.155877 C 40.448959,48.155877 39.984583,47.958012 39.621156,47.562281 C 39.257732,47.166551 39.076020,46.686022 39.076020,46.120695 L 39.076020,39.942465 C 39.076020,39.239843 38.886231,38.674514 38.506653,38.246480 C 38.135151,37.810370 37.614242,37.592315 36.943925,37.592315 C 36.281683,37.592315 35.760773,37.810370 35.381195,38.246480 C 35.001617,38.682590 34.811830,39.247919 34.811830,39.942465 L 34.811830,46.120695 C 34.811830,46.694098 34.630117,47.178665 34.266692,47.574396 C 33.911343,47.962050 33.446965,48.155877 32.873562,48.155877 C 32.308233,48.155877 31.843857,47.962050 31.480430,47.574396 C 31.125081,47.178665 30.947408,46.694098 30.947408,46.120695 z M 23.145877,34.285145 C 24.115011,34.285145 24.999348,34.466857 25.798884,34.830283 C 26.606495,35.185632 27.297003,35.686351 27.870407,36.332440 C 28.451888,36.978530 28.896073,37.725571 29.202966,38.573563 C 29.517935,39.413479 29.675420,40.334156 29.675420,41.335595 C 29.675420,42.635850 29.400831,43.831116 28.851655,44.921392 C 28.310555,46.003591 27.543325,46.855620 26.549962,47.477483 C 25.556599,48.099343 24.421905,48.410275 23.145877,48.410275 C 22.184821,48.410275 21.304523,48.232599 20.504989,47.877250 C 19.713528,47.521901 19.023021,47.017143 18.433465,46.362978 C 17.843907,45.700737 17.395682,44.941581 17.088791,44.085514 C 16.781897,43.221368 16.628452,42.304730 16.628452,41.335595 C 16.628452,40.051492 16.903039,38.868341 17.452215,37.786142 C 18.001391,36.695866 18.768623,35.839797 19.753908,35.217936 C 20.747271,34.596075 21.877928,34.285145 23.145877,34.285145 z M 23.145877,38.040539 C 22.322114,38.040539 21.671987,38.355508 21.195496,38.985445 C 20.727082,39.615382 20.492873,40.398765 20.492873,41.335595 C 20.492873,41.933228 20.597864,42.490479 20.807842,43.007351 C 21.017822,43.516147 21.320676,43.919953 21.716405,44.218769 C 22.120212,44.517585 22.596701,44.666994 23.145877,44.666994 C 23.977718,44.666994 24.627845,44.352025 25.096261,43.722087 C 25.564675,43.084075 25.798884,42.288577 25.798884,41.335595 C 25.798884,40.390689 25.564675,39.607306 25.096261,38.985445 C 24.627845,38.355508 23.977718,38.040539 23.145877,38.040539 z M 9.8808562,46.120695 L 9.8808562,38.282823 L 9.4326314,38.282823 C 8.7946177,38.282823 8.2979372,38.133414 7.9425881,37.834598 C 7.5791633,37.535782 7.3974499,37.083519 7.3974499,36.477811 C 7.3974499,35.864026 7.5791633,35.411763 7.9425881,35.121023 C 8.2979372,34.830283 8.7946177,34.684913 9.4326314,34.684913 L 9.8808562,34.684913 L 9.8808562,32.928357 C 9.8808562,32.354953 9.9777696,31.805777 10.171596,31.280829 C 10.365423,30.755881 10.640010,30.303619 10.995359,29.924041 C 11.358786,29.536388 11.782782,29.237571 12.267349,29.027592 C 12.751916,28.817613 13.293014,28.712624 13.890648,28.712624 C 14.633651,28.712624 15.247436,28.845880 15.732003,29.112392 C 16.224645,29.370827 16.470968,29.839242 16.470968,30.517636 C 16.470968,31.729054 15.861221,32.334762 14.641727,32.334762 C 14.326757,32.334762 14.096588,32.423600 13.951219,32.601274 C 13.813926,32.778949 13.745277,33.110070 13.745277,33.594637 L 13.745277,34.684913 L 14.811324,34.684913 C 15.465491,34.684913 15.966210,34.830283 16.313483,35.121023 C 16.668832,35.411763 16.846506,35.864026 16.846506,36.477811 C 16.846506,37.083519 16.668832,37.535782 16.313483,37.834598 C 15.966210,38.133414 15.465491,38.282823 14.811324,38.282823 L 13.745277,38.282823 L 13.745277,46.120695 C 13.745277,46.694098 13.563566,47.178665 13.200141,47.574396 C 12.844792,47.962050 12.380414,48.155877 11.807009,48.155877 C 11.241682,48.155877 10.777306,47.962050 10.413879,47.574396 C 10.058530,47.178665 9.8808562,46.694098 9.8808562,46.120695 z "
     transform="translate(1.500000e-7,-0.148183)" />
  <path
     id="path841"
     style="font-size:12.000000;font-weight:900;fill:#333333;stroke-width:1.0000000pt;font-family:VAG Rounded Black SSi;"
     d="M 52.134826,17.621654 L 52.134826,25.206983 C 52.134826,25.667863 51.990801,26.051930 51.702750,26.359184 C 51.414700,26.666438 51.046635,26.820065 50.598557,26.820065 C 50.246495,26.820065 49.948843,26.724048 49.705601,26.532014 C 49.468759,26.339981 49.289528,26.109541 49.167906,25.840693 C 48.822246,26.263167 48.438179,26.564020 48.015705,26.743252 C 47.599632,26.928884 47.103545,27.021700 46.527444,27.021700 C 45.650490,27.021700 44.850350,26.775257 44.127024,26.282371 C 43.410098,25.783083 42.840398,25.104565 42.417924,24.246814 C 42.001851,23.382663 41.793815,22.438498 41.793815,21.414318 C 41.793815,20.402941 42.001851,19.468377 42.417924,18.610627 C 42.840398,17.746476 43.413299,17.067957 44.136625,16.575071 C 44.859952,16.075783 45.656891,15.826140 46.527444,15.826140 C 47.109946,15.826140 47.606033,15.915755 48.015705,16.094987 C 48.431778,16.274218 48.815845,16.578271 49.167906,17.007146 C 49.283127,16.744700 49.462358,16.517461 49.705601,16.325427 C 49.948843,16.126992 50.246495,16.027775 50.598557,16.027775 C 51.046635,16.027775 51.414700,16.181402 51.702750,16.488656 C 51.990801,16.789508 52.134826,17.167174 52.134826,17.621654 z M 46.959520,18.802661 C 46.306605,18.802661 45.791315,19.052305 45.413649,19.551592 C 45.042384,20.050879 44.856751,20.671788 44.856751,21.414318 C 44.856751,21.888001 44.939966,22.329679 45.106395,22.739350 C 45.272824,23.142621 45.512866,23.462677 45.826521,23.699518 C 46.146577,23.936360 46.524243,24.054781 46.959520,24.054781 C 47.618835,24.054781 48.134125,23.805137 48.505390,23.305850 C 48.876655,22.800161 49.062288,22.169651 49.062288,21.414318 C 49.062288,20.665387 48.876655,20.044478 48.505390,19.551592 C 48.134125,19.052305 47.618835,18.802661 46.959520,18.802661 z M 36.445678,25.206983 L 36.445678,18.994695 L 36.090416,18.994695 C 35.584728,18.994695 35.191059,18.876274 34.909409,18.639432 C 34.621359,18.402591 34.477334,18.044128 34.477334,17.564044 C 34.477334,17.077559 34.621359,16.719096 34.909409,16.488656 C 35.191059,16.258215 35.584728,16.142995 36.090416,16.142995 L 36.445678,16.142995 L 36.445678,14.117040 C 36.445678,13.656160 36.586503,13.272092 36.868152,12.964838 C 37.149802,12.657585 37.517866,12.503958 37.972346,12.503958 C 38.433226,12.503958 38.804491,12.657585 39.086141,12.964838 C 39.367790,13.272092 39.508615,13.656160 39.508615,14.117040 L 39.508615,16.142995 L 40.353563,16.142995 C 40.872054,16.142995 41.268923,16.258215 41.544171,16.488656 C 41.825821,16.719096 41.966645,17.077559 41.966645,17.564044 C 41.966645,18.044128 41.825821,18.402591 41.544171,18.639432 C 41.268923,18.876274 40.872054,18.994695 40.353563,18.994695 L 39.508615,18.994695 L 39.508615,25.206983 C 39.508615,25.661462 39.364590,26.045529 39.076539,26.359184 C 38.794890,26.666438 38.426825,26.820065 37.972346,26.820065 C 37.524267,26.820065 37.156203,26.666438 36.868152,26.359184 C 36.586503,26.045529 36.445678,25.661462 36.445678,25.206983 z M 33.152302,22.441698 L 27.612130,22.441698 C 27.612130,22.857771 27.804165,23.251440 28.188232,23.622705 C 28.572299,23.987569 29.199608,24.170001 30.070161,24.170001 C 30.518240,24.170001 30.889504,24.112391 31.183957,23.997171 C 31.478408,23.881950 31.840072,23.718722 32.268947,23.507485 C 32.704223,23.289847 33.017878,23.181028 33.209912,23.181028 C 33.568374,23.181028 33.872428,23.305850 34.122071,23.555493 C 34.371715,23.805137 34.496537,24.128394 34.496537,24.525263 C 34.496537,24.998946 34.259695,25.431022 33.786012,25.821490 C 33.318731,26.205557 32.713825,26.500009 31.971295,26.704845 C 31.228765,26.916082 30.463831,27.021700 29.676493,27.021700 C 28.863550,27.021700 28.127422,26.880876 27.468106,26.599226 C 26.815191,26.317577 26.248692,25.920708 25.768608,25.408618 C 25.294925,24.890127 24.933262,24.288422 24.683618,23.603502 C 24.433974,22.912181 24.309152,22.182453 24.309152,21.414318 C 24.309152,20.690992 24.440376,19.986868 24.702822,19.301948 C 24.965267,18.617028 25.336533,18.015323 25.816616,17.496832 C 26.296701,16.978341 26.869600,16.571870 27.535317,16.277419 C 28.201034,15.976566 28.914759,15.826140 29.676493,15.826140 C 30.655864,15.826140 31.523216,16.072583 32.278548,16.565469 C 33.033881,17.058355 33.616383,17.704869 34.026055,18.505009 C 34.442127,19.305149 34.650164,20.162899 34.650164,21.078259 C 34.650164,21.603151 34.531743,21.961614 34.294902,22.153648 C 34.058060,22.345681 33.677193,22.441698 33.152302,22.441698 z M 27.612130,20.310125 L 31.577625,20.310125 C 31.577625,20.066882 31.491211,19.798035 31.318380,19.503584 C 31.145549,19.202731 30.908708,18.953087 30.607855,18.754652 C 30.313404,18.549817 29.977346,18.447399 29.599679,18.447399 C 29.222013,18.447399 28.879553,18.549817 28.572299,18.754652 C 28.271446,18.959488 28.034605,19.209132 27.861775,19.503584 C 27.695346,19.791634 27.612130,20.060481 27.612130,20.310125 z M 7.9670902,25.206983 L 7.9670902,17.621654 C 7.9670902,17.167174 8.1079156,16.789508 8.3895650,16.488656 C 8.6776150,16.181402 9.0456789,16.027775 9.4937582,16.027775 C 9.8650224,16.027775 10.185079,16.126992 10.453926,16.325427 C 10.729174,16.517461 10.921209,16.744700 11.030027,17.007146 C 11.279671,16.623079 11.641334,16.331828 12.115017,16.133393 C 12.588700,15.928557 13.107191,15.826140 13.670489,15.826140 C 14.188980,15.826140 14.707470,15.928557 15.225962,16.133393 C 15.744453,16.331828 16.176529,16.651884 16.522188,17.093561 C 17.047081,16.696692 17.523964,16.386238 17.952839,16.162198 C 18.388115,15.938159 18.900205,15.826140 19.489108,15.826140 C 20.212434,15.826140 20.862149,15.957362 21.438249,16.219808 C 22.020752,16.482254 22.475232,16.885525 22.801689,17.429620 C 23.134548,17.967314 23.300976,18.645833 23.300976,19.465177 L 23.300976,25.206983 C 23.300976,25.661462 23.156950,26.045529 22.868900,26.359184 C 22.587251,26.666438 22.219187,26.820065 21.764707,26.820065 C 21.316629,26.820065 20.948564,26.666438 20.660514,26.359184 C 20.378864,26.045529 20.238039,25.661462 20.238039,25.206983 L 20.238039,20.310125 C 20.238039,19.785233 20.100415,19.343556 19.825167,18.985093 C 19.556321,18.626630 19.181854,18.447399 18.701770,18.447399 C 18.221687,18.447399 17.844020,18.626630 17.568772,18.985093 C 17.299926,19.343556 17.165501,19.785233 17.165501,20.310125 L 17.165501,25.206983 C 17.165501,25.661462 17.021477,26.045529 16.733427,26.359184 C 16.451777,26.666438 16.083712,26.820065 15.629232,26.820065 C 15.181154,26.820065 14.813090,26.666438 14.525039,26.359184 C 14.243389,26.045529 14.102565,25.661462 14.102565,25.206983 L 14.102565,20.310125 C 14.102565,19.785233 13.964940,19.343556 13.689693,18.985093 C 13.420845,18.626630 13.046381,18.447399 12.566296,18.447399 C 12.086212,18.447399 11.708545,18.626630 11.433298,18.985093 C 11.164450,19.343556 11.030027,19.785233 11.030027,20.310125 L 11.030027,25.206983 C 11.030027,25.661462 10.886001,26.045529 10.597951,26.359184 C 10.316302,26.666438 9.9482382,26.820065 9.4937582,26.820065 C 9.0456789,26.820065 8.6776150,26.666438 8.3895650,26.359184 C 8.1079156,26.045529 7.9670902,25.661462 7.9670902,25.206983 z "
     transform="translate(1.500000e-7,-0.148183)" />
  <metadata
     id="metadata15">
    <rdf:RDF
       id="RDF16">
      <cc:Work
         rdf:about=""
         id="Work17">
        <dc:title
           id="title18">Part of the Flat Icon Collection (Thu Aug 26 14:40:35 2004)</dc:title>
        <dc:description
           id="description20" />
        <dc:subject
           id="subject21">
          <rdf:Bag
             id="Bag22">
            <rdf:li
               id="li23" />
          </rdf:Bag>
        </dc:subject>
        <dc:publisher
           id="publisher24">
          <cc:Agent
             rdf:about=""
             id="Agent25">
            <dc:title
               id="title26" />
          </cc:Agent>
        </dc:publisher>
        <dc:creator
           id="creator27">
          <cc:Agent
             rdf:about=""
             id="Agent28">
            <dc:title
               id="title29">Danny Allen</dc:title>
          </cc:Agent>
        </dc:creator>
        <dc:rights
           id="rights31">
          <cc:Agent
             rdf:about=""
             id="Agent32">
            <dc:title
               id="title33">Danny Allen</dc:title>
          </cc:Agent>
        </dc:rights>
        <dc:date
           id="date35" />
        <dc:format
           id="format36">image/svg+xml</dc:format>
        <dc:type
           rdf:resource="http://purl.org/dc/dcmitype/StillImage"
           id="type38" />
        <cc:license
           rdf:resource="http://creativecommons.org/licenses/LGPL/2.1/"
           id="license39">
          <dc:date
             id="date40" />
        </cc:license>
        <dc:language
           id="language41">en</dc:language>
      </cc:Work>
    </rdf:RDF>
  </metadata>
</svg>
