<?xml version="1.0" encoding="UTF-8" standalone="no"?>
<!DOCTYPE svg PUBLIC "-//W3C//DTD SVG 20010904//EN"
"http://www.w3.org/TR/2001/REC-SVG-20010904/DTD/svg10.dtd">
<svg
   sodipodi:docname="moc_src.svg"
   height="60.0000000"
   sodipodi:version="0.32"
   width="60.0000000"
   _SVGFile__filename="scalable/mimetypes/moc_src.svg"
   version="1.0"
   y="0"
   x="0"
   inkscape:version="0.39"
   id="svg1"
   sodipodi:docbase="/home/danny/work/flat/newscale/mimetypes"
   xmlns="http://www.w3.org/2000/svg"
   xmlns:cc="http://web.resource.org/cc/"
   xmlns:inkscape="http://www.inkscape.org/namespaces/inkscape"
   xmlns:sodipodi="http://sodipodi.sourceforge.net/DTD/sodipodi-0.dtd"
   xmlns:rdf="http://www.w3.org/1999/02/22-rdf-syntax-ns#"
   xmlns:dc="http://purl.org/dc/elements/1.1/"
   xmlns:xlink="http://www.w3.org/1999/xlink">
  <sodipodi:namedview
     bordercolor="#666666"
     inkscape:pageshadow="2"
     inkscape:window-y="0"
     snaptoguides="true"
     pagecolor="#ffffff"
     inkscape:window-height="685"
     inkscape:zoom="4.9119411"
     inkscape:window-x="0"
     borderopacity="1.0"
     inkscape:cx="43.427718"
     inkscape:cy="21.309198"
     inkscape:window-width="1016"
     inkscape:pageopacity="0.0"
     id="base"
     showguides="true" />
  <defs
     id="defs3">
    <linearGradient
       id="linearGradient900">
      <stop
         style="stop-color:#000;stop-opacity:1;"
         id="stop901"
         offset="0" />
      <stop
         style="stop-color:#fff;stop-opacity:1;"
         id="stop902"
         offset="1" />
    </linearGradient>
    <linearGradient
       xlink:href="#linearGradient900"
       id="linearGradient903" />
    <linearGradient
       xlink:href="#linearGradient900"
       id="linearGradient904" />
    <linearGradient
       xlink:href="#linearGradient900"
       id="linearGradient905" />
    <linearGradient
       xlink:href="#linearGradient900"
       id="linearGradient906" />
    <linearGradient
       xlink:href="#linearGradient900"
       id="linearGradient907" />
  </defs>
  <path
     style="font-size:12.000000;fill:#b3b3b3;fill-opacity:1.0000000;fill-rule:evenodd;stroke:#333333;stroke-width:3.1250000;stroke-linejoin:round;stroke-opacity:1.0000000;stroke-linecap:round;"
     d="M 6.6785922,5.1165123 C 5.5705922,5.1165123 4.6785922,6.0085123 4.6785922,7.1165123 L 4.6785922,53.501354 C 4.6785922,54.609354 5.5705922,55.501354 6.6785922,55.501354 L 53.423324,55.501354 C 54.531324,55.501354 55.423324,54.609354 55.423324,53.501354 L 55.423324,7.1165123 C 55.423324,6.0085123 54.531324,5.1165123 53.423324,5.1165123 L 6.6785922,5.1165123 z "
     id="rect812" />
  <g
     id="g840"
     transform="translate(-9.177916e-2,1.226050)">
    <path
       id="path840"
       style="font-size:12.000000;font-weight:900;fill:#333333;stroke-width:1.0000000pt;font-family:VAG Rounded Black SSi;"
       transform="matrix(1.254667,0.000000,0.000000,1.254667,-2.134868,12.55798)"
       d="M 42.091963,7.0135956 L 38.711103,7.0135956 C 38.711103,7.2675018 38.828291,7.5077362 39.062666,7.7342987 C 39.297041,7.9569550 39.679853,8.0682831 40.211103,8.0682831 C 40.484541,8.0682831 40.711103,8.0331268 40.890791,7.9628143 C 41.070478,7.8925018 41.291182,7.7928925 41.552900,7.6639862 C 41.818525,7.5311737 42.009932,7.4647675 42.127119,7.4647675 C 42.345869,7.4647675 42.531416,7.5409393 42.683760,7.6932831 C 42.836103,7.8456268 42.912275,8.0428925 42.912275,8.2850800 C 42.912275,8.5741425 42.767744,8.8378143 42.478682,9.0760956 C 42.193525,9.3104706 41.824385,9.4901581 41.371260,9.6151581 C 40.918135,9.7440643 40.451338,9.8085175 39.970869,9.8085175 C 39.474775,9.8085175 39.025557,9.7225800 38.623213,9.5507050 C 38.224775,9.3788300 37.879072,9.1366425 37.586103,8.8241425 C 37.297041,8.5077362 37.076338,8.1405487 36.923994,7.7225800 C 36.771650,7.3007050 36.695478,6.8553925 36.695478,6.3866425 C 36.695478,5.9452362 36.775557,5.5155487 36.935713,5.0975800 C 37.095869,4.6796112 37.322432,4.3124237 37.615400,3.9960175 C 37.908369,3.6796112 38.257978,3.4315643 38.664228,3.2518768 C 39.070478,3.0682831 39.506025,2.9764862 39.970869,2.9764862 C 40.568525,2.9764862 41.097822,3.1268768 41.558760,3.4276581 C 42.019697,3.7284393 42.375166,4.1229706 42.625166,4.6112518 C 42.879072,5.0995331 43.006025,5.6229706 43.006025,6.1815643 C 43.006025,6.5018768 42.933760,6.7206268 42.789228,6.8378143 C 42.644697,6.9550018 42.412275,7.0135956 42.091963,7.0135956 z M 38.711103,5.7128143 L 41.131025,5.7128143 C 41.131025,5.5643768 41.078291,5.4003143 40.972822,5.2206268 C 40.867353,5.0370331 40.722822,4.8846893 40.539228,4.7635956 C 40.359541,4.6385956 40.154463,4.5760956 39.923994,4.5760956 C 39.693525,4.5760956 39.484541,4.6385956 39.297041,4.7635956 C 39.113447,4.8885956 38.968916,5.0409393 38.863447,5.2206268 C 38.761885,5.3964081 38.711103,5.5604706 38.711103,5.7128143 z M 31.140791,6.3866425 C 31.140791,5.7655487 31.273603,5.1932831 31.539228,4.6698456 C 31.804853,4.1425018 32.175947,3.7284393 32.652510,3.4276581 C 33.132978,3.1268768 33.679853,2.9764862 34.293135,2.9764862 C 34.617353,2.9764862 34.951338,3.0155487 35.295088,3.0936737 C 35.638838,3.1678925 35.927900,3.2967987 36.162275,3.4803925 C 36.396650,3.6639862 36.513838,3.9120331 36.513838,4.2245331 C 36.513838,4.4745331 36.439619,4.6835175 36.291182,4.8514862 C 36.146650,5.0194550 35.965010,5.1034393 35.746260,5.1034393 C 35.640791,5.1034393 35.537275,5.0858612 35.435713,5.0507050 C 35.338057,5.0155487 35.238447,4.9784393 35.136885,4.9393768 C 35.039228,4.8964081 34.933760,4.8612518 34.820478,4.8339081 C 34.711103,4.8065643 34.572432,4.7928925 34.404463,4.7928925 C 34.099775,4.7928925 33.841963,4.8651581 33.631025,5.0096893 C 33.423994,5.1503143 33.267744,5.3417206 33.162275,5.5839081 C 33.060713,5.8221893 33.009932,6.0897675 33.009932,6.3866425 C 33.009932,6.6757050 33.060713,6.9452362 33.162275,7.1952362 C 33.263838,7.4413300 33.410322,7.6366425 33.601728,7.7811737 C 33.797041,7.9257050 34.027510,7.9979706 34.293135,7.9979706 C 34.593916,7.9979706 34.896650,7.9413300 35.201338,7.8280487 C 35.506025,7.7147675 35.687666,7.6581268 35.746260,7.6581268 C 35.886885,7.6581268 36.015791,7.6991425 36.132978,7.7811737 C 36.250166,7.8632050 36.341963,7.9706268 36.408369,8.1034393 C 36.478682,8.2323456 36.513838,8.3651581 36.513838,8.5018768 C 36.513838,8.7909393 36.386885,9.0350800 36.132978,9.2342987 C 35.882978,9.4335175 35.584150,9.5780487 35.236494,9.6678925 C 34.888838,9.7616425 34.574385,9.8085175 34.293135,9.8085175 C 33.828291,9.8085175 33.402510,9.7225800 33.015791,9.5507050 C 32.632978,9.3788300 32.298994,9.1346893 32.013838,8.8182831 C 31.728682,8.4979706 31.511885,8.1307831 31.363447,7.7167206 C 31.215010,7.2987518 31.140791,6.8553925 31.140791,6.3866425 z M 27.168135,8.7010956 L 27.168135,4.0721893 C 27.168135,3.7948456 27.254072,3.5643768 27.425947,3.3807831 C 27.601728,3.1932831 27.826338,3.0995331 28.099775,3.0995331 C 28.326338,3.0995331 28.521650,3.1600800 28.685713,3.2811737 C 28.853682,3.3983612 28.970869,3.5370331 29.037275,3.6971893 C 29.439619,3.2167206 29.871260,2.9764862 30.332197,2.9764862 C 30.586103,2.9764862 30.808760,3.0682831 31.000166,3.2518768 C 31.195478,3.4315643 31.293135,3.6639862 31.293135,3.9491425 C 31.293135,4.2421112 31.201338,4.4550018 31.017744,4.5878143 C 30.838057,4.7206268 30.539228,4.8475800 30.121260,4.9686737 C 29.695478,5.0897675 29.408369,5.2421112 29.259932,5.4257050 C 29.111494,5.6053925 29.037275,5.9296112 29.037275,6.3983612 L 29.037275,8.7010956 C 29.037275,8.9784393 28.949385,9.2128143 28.773603,9.4042206 C 28.601728,9.5917206 28.377119,9.6854706 28.099775,9.6854706 C 27.826338,9.6854706 27.601728,9.5917206 27.425947,9.4042206 C 27.254072,9.2128143 27.168135,8.9784393 27.168135,8.7010956 z M 26.300947,4.0721893 L 26.300947,7.2889862 C 26.300947,7.8514862 26.172041,8.3202362 25.914228,8.6952362 C 25.656416,9.0702362 25.308760,9.3495331 24.871260,9.5331268 C 24.433760,9.7167206 23.941572,9.8085175 23.394697,9.8085175 C 22.847822,9.8085175 22.355635,9.7167206 21.918135,9.5331268 C 21.484541,9.3495331 21.138838,9.0702362 20.881025,8.6952362 C 20.623213,8.3202362 20.494307,7.8514862 20.494307,7.2889862 L 20.494307,4.0721893 C 20.494307,3.7948456 20.580244,3.5643768 20.752119,3.3807831 C 20.927900,3.1932831 21.152510,3.0995331 21.425947,3.0995331 C 21.703291,3.0995331 21.927900,3.1932831 22.099775,3.3807831 C 22.275557,3.5643768 22.363447,3.7948456 22.363447,4.0721893 L 22.363447,7.0253143 C 22.363447,7.3534393 22.466963,7.6092987 22.673994,7.7928925 C 22.884932,7.9764862 23.125166,8.0682831 23.394697,8.0682831 C 23.660322,8.0682831 23.898603,7.9764862 24.109541,7.7928925 C 24.320478,7.6053925 24.425947,7.3495331 24.425947,7.0253143 L 24.425947,4.0721893 C 24.425947,3.7987518 24.513838,3.5682831 24.689619,3.3807831 C 24.865400,3.1932831 25.090010,3.0995331 25.363447,3.0995331 C 25.636885,3.0995331 25.861494,3.1932831 26.037275,3.3807831 C 26.213057,3.5643768 26.300947,3.7948456 26.300947,4.0721893 z M 16.720869,2.9764862 C 17.189619,2.9764862 17.617353,3.0643768 18.004072,3.2401581 C 18.394697,3.4120331 18.728682,3.6542206 19.006025,3.9667206 C 19.287275,4.2792206 19.502119,4.6405487 19.650557,5.0507050 C 19.802900,5.4569550 19.879072,5.9022675 19.879072,6.3866425 C 19.879072,7.0155487 19.746260,7.5936737 19.480635,8.1210175 C 19.218916,8.6444550 18.847822,9.0565643 18.367353,9.3573456 C 17.886885,9.6581268 17.338057,9.8085175 16.720869,9.8085175 C 16.256025,9.8085175 15.830244,9.7225800 15.443525,9.5507050 C 15.060713,9.3788300 14.726728,9.1346893 14.441572,8.8182831 C 14.156416,8.4979706 13.939619,8.1307831 13.791182,7.7167206 C 13.642744,7.2987518 13.568525,6.8553925 13.568525,6.3866425 C 13.568525,5.7655487 13.701338,5.1932831 13.966963,4.6698456 C 14.232588,4.1425018 14.603682,3.7284393 15.080244,3.4276581 C 15.560713,3.1268768 16.107588,2.9764862 16.720869,2.9764862 z M 16.720869,4.7928925 C 16.322432,4.7928925 16.007978,4.9452362 15.777510,5.2499237 C 15.550947,5.5546112 15.437666,5.9335175 15.437666,6.3866425 C 15.437666,6.6757050 15.488447,6.9452362 15.590010,7.1952362 C 15.691572,7.4413300 15.838057,7.6366425 16.029463,7.7811737 C 16.224775,7.9257050 16.455244,7.9979706 16.720869,7.9979706 C 17.123213,7.9979706 17.437666,7.8456268 17.664228,7.5409393 C 17.890791,7.2323456 18.004072,6.8475800 18.004072,6.3866425 C 18.004072,5.9296112 17.890791,5.5507050 17.664228,5.2499237 C 17.437666,4.9452362 17.123213,4.7928925 16.720869,4.7928925 z M 8.3829784,8.5018768 C 8.3829784,8.2362518 8.4571972,8.0175018 8.6056347,7.8456268 C 8.7579784,7.6737518 8.9415722,7.5878143 9.1564159,7.5878143 C 9.2853222,7.5878143 9.4083691,7.6112518 9.5255566,7.6581268 C 9.6427441,7.7010956 9.7989941,7.7714081 9.9943066,7.8690643 C 10.193525,7.9628143 10.357588,8.0311737 10.486494,8.0741425 C 10.615400,8.1171112 10.771650,8.1385956 10.955244,8.1385956 C 11.134932,8.1385956 11.267744,8.1034393 11.353682,8.0331268 C 11.439619,7.9589081 11.482588,7.8671112 11.482588,7.7577362 C 11.482588,7.6600800 11.455244,7.5800018 11.400557,7.5175018 C 11.345869,7.4550018 11.273603,7.4042206 11.183760,7.3651581 C 11.093916,7.3221893 10.966963,7.2694550 10.802900,7.2069550 C 10.638838,7.1444550 10.381025,7.0428925 10.029463,6.9022675 C 9.6622753,6.7460175 9.3790722,6.5995331 9.1798534,6.4628143 C 8.9806347,6.3221893 8.8263378,6.1444550 8.7169628,5.9296112 C 8.6075878,5.7108612 8.5529003,5.4393768 8.5529003,5.1151581 C 8.5529003,4.7479706 8.6505566,4.4003143 8.8458691,4.0721893 C 9.0450878,3.7440643 9.3282909,3.4803925 9.6954784,3.2811737 C 10.066572,3.0780487 10.490400,2.9764862 10.966963,2.9764862 C 11.170088,2.9764862 11.396650,3.0018768 11.646650,3.0526581 C 11.896650,3.0995331 12.132978,3.1796112 12.355635,3.2928925 C 12.582197,3.4022675 12.765791,3.5428925 12.906416,3.7147675 C 13.050947,3.8866425 13.123213,4.0897675 13.123213,4.3241425 C 13.123213,4.4764862 13.088057,4.6151581 13.017744,4.7401581 C 12.951338,4.8612518 12.857588,4.9550018 12.736494,5.0214081 C 12.619307,5.0839081 12.488447,5.1151581 12.343916,5.1151581 C 12.265791,5.1151581 12.179853,5.0975800 12.086103,5.0624237 C 11.996260,5.0272675 11.867353,4.9706268 11.699385,4.8925018 C 11.535322,4.8143768 11.384932,4.7538300 11.248213,4.7108612 C 11.111494,4.6678925 10.976728,4.6464081 10.843916,4.6464081 C 10.707197,4.6464081 10.590010,4.6796112 10.492353,4.7460175 C 10.398603,4.8124237 10.351728,4.9120331 10.351728,5.0448456 C 10.351728,5.1971893 10.504072,5.3378143 10.808760,5.4667206 C 11.113447,5.5917206 11.466963,5.7362518 11.869307,5.9003143 C 12.275557,6.0643768 12.611494,6.2850800 12.877119,6.5624237 C 13.146650,6.8397675 13.281416,7.2128143 13.281416,7.6815643 C 13.281416,8.1112518 13.173994,8.4882050 12.959150,8.8124237 C 12.744307,9.1327362 12.451338,9.3788300 12.080244,9.5507050 C 11.713057,9.7225800 11.312666,9.8085175 10.879072,9.8085175 C 10.242353,9.8085175 9.6661816,9.6893768 9.1505566,9.4510956 C 8.6388378,9.2089081 8.3829784,8.8925018 8.3829784,8.5018768 z " />
    <path
       id="path839"
       style="font-size:12.000000;font-weight:900;fill:#333333;fill-opacity:1.0000000;stroke-width:1.0000000pt;font-family:VAG Rounded Black SSi;"
       transform="scale(1.655669,1.655669)"
       d="M 24.457728,20.779139 C 24.457728,20.134607 24.557338,19.534998 24.756557,18.980310 C 24.959682,18.421717 25.246791,17.943201 25.617885,17.544764 C 25.988978,17.142420 26.436244,16.831873 26.959682,16.613123 C 27.487025,16.390467 28.065150,16.279139 28.694057,16.279139 C 29.393275,16.279139 29.996791,16.388514 30.504603,16.607264 C 31.016322,16.826014 31.272182,17.171717 31.272182,17.644373 C 31.272182,17.890467 31.192103,18.109217 31.031947,18.300623 C 30.875697,18.488123 30.676478,18.581873 30.434291,18.581873 C 30.313197,18.581873 30.115932,18.531092 29.842494,18.429529 C 29.572963,18.327967 29.375697,18.257654 29.250697,18.218592 C 29.125697,18.179529 28.955775,18.159998 28.740932,18.159998 C 28.244838,18.159998 27.830775,18.281092 27.498744,18.523279 C 27.170619,18.761560 26.928432,19.081873 26.772182,19.484217 C 26.619838,19.886560 26.543666,20.318201 26.543666,20.779139 C 26.543666,21.501795 26.721400,22.109217 27.076869,22.601404 C 27.432338,23.089685 27.930385,23.333826 28.571010,23.333826 C 28.910853,23.333826 29.178432,23.308435 29.373744,23.257654 C 29.569057,23.206873 29.772182,23.138514 29.983119,23.052576 C 30.194057,22.966639 30.360072,22.923670 30.481166,22.923670 C 30.715541,22.923670 30.897182,22.978357 31.026088,23.087732 C 31.154994,23.193201 31.240932,23.316248 31.283900,23.456873 C 31.326869,23.597498 31.348353,23.724451 31.348353,23.837732 C 31.348353,24.169764 31.207728,24.445154 30.926478,24.663904 C 30.645228,24.882654 30.295619,25.040857 29.877650,25.138514 C 29.459682,25.240076 29.053432,25.290857 28.658900,25.290857 C 27.787807,25.290857 27.033900,25.091639 26.397182,24.693201 C 25.764369,24.290857 25.281947,23.747889 24.949916,23.064295 C 24.621791,22.376795 24.457728,21.615076 24.457728,20.779139 z M 19.752650,16.279139 C 20.377650,16.279139 20.949916,16.384607 21.469447,16.595545 C 21.992885,16.806482 22.436244,17.107264 22.799525,17.497889 C 23.166713,17.888514 23.449916,18.365076 23.649135,18.927576 C 23.852260,19.486170 23.953822,20.103357 23.953822,20.779139 C 23.953822,21.454920 23.852260,22.074060 23.649135,22.636560 C 23.449916,23.199060 23.166713,23.677576 22.799525,24.072107 C 22.436244,24.462732 21.992885,24.763514 21.469447,24.974451 C 20.949916,25.185389 20.377650,25.290857 19.752650,25.290857 C 19.127650,25.290857 18.555385,25.185389 18.035853,24.974451 C 17.516322,24.763514 17.071010,24.460779 16.699916,24.066248 C 16.332728,23.671717 16.049525,23.195154 15.850307,22.636560 C 15.651088,22.074060 15.551478,21.454920 15.551478,20.779139 C 15.551478,20.103357 15.651088,19.486170 15.850307,18.927576 C 16.053432,18.365076 16.338588,17.888514 16.705775,17.497889 C 17.072963,17.107264 17.516322,16.806482 18.035853,16.595545 C 18.555385,16.384607 19.127650,16.279139 19.752650,16.279139 z M 19.752650,18.089685 C 19.279994,18.089685 18.883510,18.214685 18.563197,18.464685 C 18.242885,18.714685 18.008510,19.046717 17.860072,19.460779 C 17.711635,19.870935 17.637416,20.310389 17.637416,20.779139 C 17.637416,21.251795 17.711635,21.695154 17.860072,22.109217 C 18.008510,22.523279 18.242885,22.855310 18.563197,23.105310 C 18.883510,23.355310 19.279994,23.480310 19.752650,23.480310 C 20.225307,23.480310 20.619838,23.357264 20.936244,23.111170 C 21.256557,22.861170 21.490932,22.533045 21.639369,22.126795 C 21.787807,21.716639 21.862025,21.267420 21.862025,20.779139 C 21.862025,20.294764 21.787807,19.849451 21.639369,19.443201 C 21.490932,19.036951 21.256557,18.710779 20.936244,18.464685 C 20.619838,18.214685 20.225307,18.089685 19.752650,18.089685 z M 5.3854628,22.062342 L 6.1530409,17.632654 C 6.2975721,16.808435 6.7253065,16.396326 7.4362440,16.396326 C 7.7487440,16.396326 7.9967909,16.462732 8.1803846,16.595545 C 8.3678846,16.728357 8.5241346,16.939295 8.6491346,17.228357 C 8.7780409,17.513514 8.9342909,17.945154 9.1178846,18.523279 L 10.067103,21.488123 L 10.090541,21.488123 L 11.039760,18.523279 C 11.223353,17.945154 11.377650,17.513514 11.502650,17.228357 C 11.631557,16.939295 11.787807,16.728357 11.971400,16.595545 C 12.158900,16.462732 12.406947,16.396326 12.715541,16.396326 C 13.430385,16.396326 13.860072,16.808435 14.004603,17.632654 L 14.772182,22.062342 C 14.987025,23.327967 15.094447,24.052576 15.094447,24.236170 C 15.094447,24.474451 15.010463,24.689295 14.842494,24.880701 C 14.678432,25.072107 14.457728,25.167810 14.180385,25.167810 C 13.910853,25.167810 13.697963,25.111170 13.541713,24.997889 C 13.385463,24.880701 13.274135,24.728357 13.207728,24.540857 C 13.141322,24.353357 13.090541,24.130701 13.055385,23.872889 L 12.475307,20.046717 L 12.451869,20.046717 L 11.145228,24.283045 C 11.051478,24.599451 10.922572,24.826014 10.758510,24.962732 C 10.594447,25.099451 10.367885,25.167810 10.078822,25.167810 C 9.7897596,25.167810 9.5631971,25.099451 9.3991346,24.962732 C 9.2350721,24.826014 9.1061659,24.599451 9.0124159,24.283045 L 7.6999159,20.046717 L 7.6764784,20.046717 L 7.1022596,23.872889 C 7.0671034,24.130701 7.0163221,24.353357 6.9499159,24.540857 C 6.8835096,24.728357 6.7721815,24.880701 6.6159315,24.997889 C 6.4596815,25.111170 6.2448378,25.167810 5.9714003,25.167810 C 5.6979628,25.167810 5.4772596,25.072107 5.3092909,24.880701 C 5.1452284,24.689295 5.0631971,24.474451 5.0631971,24.236170 C 5.0631971,24.005701 5.1706190,23.281092 5.3854628,22.062342 z " />
  </g>
  <metadata
     id="metadata16">
    <rdf:RDF
       id="RDF17">
      <cc:Work
         rdf:about=""
         id="Work18">
        <dc:title
           id="title19">Part of the Flat Icon Collection (Thu Aug 26 14:40:35 2004)</dc:title>
        <dc:description
           id="description21" />
        <dc:subject
           id="subject22">
          <rdf:Bag
             id="Bag23">
            <rdf:li
               id="li24" />
          </rdf:Bag>
        </dc:subject>
        <dc:publisher
           id="publisher25">
          <cc:Agent
             rdf:about=""
             id="Agent26">
            <dc:title
               id="title27" />
          </cc:Agent>
        </dc:publisher>
        <dc:creator
           id="creator28">
          <cc:Agent
             rdf:about=""
             id="Agent29">
            <dc:title
               id="title30">Danny Allen</dc:title>
          </cc:Agent>
        </dc:creator>
        <dc:rights
           id="rights32">
          <cc:Agent
             rdf:about=""
             id="Agent33">
            <dc:title
               id="title34">Danny Allen</dc:title>
          </cc:Agent>
        </dc:rights>
        <dc:date
           id="date36" />
        <dc:format
           id="format37">image/svg+xml</dc:format>
        <dc:type
           rdf:resource="http://purl.org/dc/dcmitype/StillImage"
           id="type39" />
        <cc:license
           rdf:resource="http://creativecommons.org/licenses/LGPL/2.1/"
           id="license40">
          <dc:date
             id="date41" />
        </cc:license>
        <dc:language
           id="language42">en</dc:language>
      </cc:Work>
    </rdf:RDF>
  </metadata>
</svg>
