<?xml version="1.0" encoding="UTF-8" standalone="no"?>
<!DOCTYPE svg PUBLIC "-//W3C//DTD SVG 20010904//EN"
"http://www.w3.org/TR/2001/REC-SVG-20010904/DTD/svg10.dtd">
<svg
   sodipodi:docname="money.svg"
   height="60.0000000"
   sodipodi:version="0.32"
   width="60.0000000"
   _SVGFile__filename="scalable/mimetypes/money.svg"
   version="1.0"
   y="0"
   x="0"
   inkscape:version="0.39"
   id="svg1"
   sodipodi:docbase="/home/danny/work/flat/newscale/mimetypes"
   xmlns="http://www.w3.org/2000/svg"
   xmlns:cc="http://web.resource.org/cc/"
   xmlns:inkscape="http://www.inkscape.org/namespaces/inkscape"
   xmlns:sodipodi="http://sodipodi.sourceforge.net/DTD/sodipodi-0.dtd"
   xmlns:rdf="http://www.w3.org/1999/02/22-rdf-syntax-ns#"
   xmlns:dc="http://purl.org/dc/elements/1.1/"
   xmlns:xlink="http://www.w3.org/1999/xlink">
  <sodipodi:namedview
     bordercolor="#666666"
     inkscape:pageshadow="2"
     inkscape:window-y="0"
     pagecolor="#ffffff"
     inkscape:window-height="685"
     inkscape:zoom="6.9465337"
     inkscape:window-x="0"
     borderopacity="1.0"
     inkscape:cx="37.697540"
     inkscape:cy="31.806367"
     inkscape:window-width="1016"
     inkscape:pageopacity="0.0"
     id="base" />
  <defs
     id="defs3">
    <linearGradient
       id="linearGradient900">
      <stop
         style="stop-color:#000;stop-opacity:1;"
         id="stop901"
         offset="0" />
      <stop
         style="stop-color:#fff;stop-opacity:1;"
         id="stop902"
         offset="1" />
    </linearGradient>
    <linearGradient
       xlink:href="#linearGradient900"
       id="linearGradient903" />
    <linearGradient
       xlink:href="#linearGradient900"
       id="linearGradient904" />
    <linearGradient
       xlink:href="#linearGradient900"
       id="linearGradient905" />
    <linearGradient
       xlink:href="#linearGradient900"
       id="linearGradient906" />
    <linearGradient
       xlink:href="#linearGradient900"
       id="linearGradient907" />
  </defs>
  <path
     style="font-size:12.000000;fill:#b3b3b3;fill-opacity:1.0000000;fill-rule:evenodd;stroke:#333333;stroke-width:3.1250000;stroke-opacity:1.0000000;stroke-linejoin:round;stroke-linecap:round;"
     d="M 6.6785922,5.1165123 C 5.5705922,5.1165123 4.6785922,6.0085123 4.6785922,7.1165123 L 4.6785922,53.501354 C 4.6785922,54.609354 5.5705922,55.501354 6.6785922,55.501354 L 53.423324,55.501354 C 54.531324,55.501354 55.423324,54.609354 55.423324,53.501354 L 55.423324,7.1165123 C 55.423324,6.0085123 54.531324,5.1165123 53.423324,5.1165123 L 6.6785922,5.1165123 z "
     id="rect812" />
  <path
     style="font-size:12.000000;font-weight:900;fill:#333333;stroke-width:1.0000000pt;font-family:VAG Rounded Black SSi;"
     d="M 28.699254,49.443316 L 28.699254,47.404678 C 27.251525,47.301267 25.774252,47.101837 24.267435,46.806382 C 22.760615,46.510928 21.408909,45.979109 20.212319,45.210927 C 19.030500,44.427974 18.439591,43.386495 18.439591,42.086494 C 18.439591,41.111496 18.749818,40.232518 19.370274,39.449560 C 20.005503,38.666606 20.781070,38.275131 21.696978,38.275131 C 22.095843,38.275131 22.812320,38.496720 23.846413,38.939903 C 24.880502,39.383083 25.722547,39.715471 26.372547,39.937063 C 27.037323,40.158651 27.812891,40.269447 28.699254,40.269447 L 28.699254,33.156379 C 26.808345,32.580241 25.220276,31.981946 23.935047,31.361493 C 22.649819,30.726265 21.608343,30.031945 20.810614,29.278535 C 20.012888,28.510353 19.436751,27.683080 19.082205,26.796716 C 18.742432,25.910352 18.572545,24.927968 18.572545,23.849556 C 18.572545,22.342739 18.838456,20.968876 19.370274,19.727967 C 19.902092,18.472282 20.625955,17.393873 21.541867,16.492738 C 22.472546,15.576826 23.558344,14.845578 24.799253,14.298988 C 26.040163,13.752397 27.340163,13.427395 28.699254,13.323985 L 28.699254,11.174554 C 28.699254,10.273419 29.149820,9.8228489 30.050960,9.8228489 C 30.966867,9.8228489 31.424823,10.273419 31.424823,11.174554 L 31.424823,13.323985 C 32.532779,13.353533 33.707211,13.523420 34.948121,13.833646 C 36.203802,14.129101 37.267439,14.631372 38.139031,15.340463 C 39.010619,16.049554 39.446417,16.995009 39.446417,18.176827 C 39.446417,18.752965 39.313460,19.314330 39.047552,19.860920 C 38.796417,20.392739 38.434485,20.821147 37.961758,21.146149 C 37.503802,21.471147 36.986756,21.633648 36.410618,21.633648 C 36.056073,21.633648 35.627665,21.522852 35.125394,21.301260 C 34.637891,21.079672 34.194711,20.865466 33.795846,20.658646 C 33.396981,20.437058 33.005506,20.259785 32.621413,20.126828 C 32.237324,19.979102 31.838459,19.905240 31.424823,19.905240 L 31.424823,26.397855 C 34.512323,27.239900 36.986756,28.429105 38.848122,29.965469 C 40.724256,31.501833 41.662325,33.710355 41.662325,36.591038 C 41.662325,38.304675 41.344712,39.833653 40.709484,41.177973 C 40.089031,42.507517 39.269144,43.622858 38.249823,44.523994 C 37.245277,45.410358 36.144711,46.089905 34.948121,46.562633 C 33.751527,47.035360 32.577094,47.316043 31.424823,47.404678 L 31.424823,49.443316 C 31.424823,50.344452 30.966867,50.795018 30.050960,50.795018 C 29.149820,50.795018 28.699254,50.344452 28.699254,49.443316 z M 28.699254,25.577968 L 28.699254,19.905240 C 27.960616,20.067737 27.354935,20.414896 26.882208,20.946715 C 26.424252,21.463761 26.195274,22.128533 26.195274,22.941034 C 26.195274,23.620582 26.424252,24.181944 26.882208,24.625128 C 27.354935,25.068308 27.960616,25.385920 28.699254,25.577968 z M 31.424823,33.865470 L 31.424823,40.269447 C 32.148686,40.269447 32.761757,39.951835 33.264027,39.316607 C 33.781074,38.681378 34.039595,37.957515 34.039595,37.145014 C 34.039595,36.214335 33.818004,35.505244 33.374823,35.017741 C 32.946415,34.515470 32.296415,34.131377 31.424823,33.865470 z "
     id="path828" />
  <metadata
     id="metadata14">
    <rdf:RDF
       id="RDF15">
      <cc:Work
         rdf:about=""
         id="Work16">
        <dc:title
           id="title17">Part of the Flat Icon Collection (Thu Aug 26 14:40:35 2004)</dc:title>
        <dc:description
           id="description19" />
        <dc:subject
           id="subject20">
          <rdf:Bag
             id="Bag21">
            <rdf:li
               id="li22" />
          </rdf:Bag>
        </dc:subject>
        <dc:publisher
           id="publisher23">
          <cc:Agent
             rdf:about=""
             id="Agent24">
            <dc:title
               id="title25" />
          </cc:Agent>
        </dc:publisher>
        <dc:creator
           id="creator26">
          <cc:Agent
             rdf:about=""
             id="Agent27">
            <dc:title
               id="title28">Danny Allen</dc:title>
          </cc:Agent>
        </dc:creator>
        <dc:rights
           id="rights30">
          <cc:Agent
             rdf:about=""
             id="Agent31">
            <dc:title
               id="title32">Danny Allen</dc:title>
          </cc:Agent>
        </dc:rights>
        <dc:date
           id="date34" />
        <dc:format
           id="format35">image/svg+xml</dc:format>
        <dc:type
           rdf:resource="http://purl.org/dc/dcmitype/StillImage"
           id="type37" />
        <cc:license
           rdf:resource="http://creativecommons.org/licenses/LGPL/2.1/"
           id="license38">
          <dc:date
             id="date39" />
        </cc:license>
        <dc:language
           id="language40">en</dc:language>
      </cc:Work>
    </rdf:RDF>
  </metadata>
</svg>
