<?xml version="1.0" encoding="UTF-8" standalone="no"?>
<!DOCTYPE svg PUBLIC "-//W3C//DTD SVG 20010904//EN"
"http://www.w3.org/TR/2001/REC-SVG-20010904/DTD/svg10.dtd">
<svg
   sodipodi:docname="php.svg"
   height="60.0000000"
   sodipodi:version="0.32"
   width="60.0000000"
   _SVGFile__filename="scalable/mimetypes/php.svg"
   version="1.0"
   y="0"
   x="0"
   inkscape:version="0.39"
   id="svg1"
   sodipodi:docbase="/home/danny/work/flat/newscale/mimetypes"
   xmlns="http://www.w3.org/2000/svg"
   xmlns:cc="http://web.resource.org/cc/"
   xmlns:inkscape="http://www.inkscape.org/namespaces/inkscape"
   xmlns:sodipodi="http://sodipodi.sourceforge.net/DTD/sodipodi-0.dtd"
   xmlns:rdf="http://www.w3.org/1999/02/22-rdf-syntax-ns#"
   xmlns:dc="http://purl.org/dc/elements/1.1/"
   xmlns:xlink="http://www.w3.org/1999/xlink">
  <sodipodi:namedview
     bordercolor="#666666"
     inkscape:pageshadow="2"
     inkscape:window-y="0"
     snaptoguides="true"
     pagecolor="#ffffff"
     inkscape:window-height="685"
     inkscape:zoom="6.9465337"
     inkscape:window-x="0"
     borderopacity="1.0"
     inkscape:cx="37.697540"
     inkscape:cy="36.490183"
     inkscape:window-width="1016"
     inkscape:pageopacity="0.0"
     id="base"
     showguides="true" />
  <defs
     id="defs3">
    <linearGradient
       id="linearGradient900">
      <stop
         style="stop-color:#000;stop-opacity:1;"
         id="stop901"
         offset="0" />
      <stop
         style="stop-color:#fff;stop-opacity:1;"
         id="stop902"
         offset="1" />
    </linearGradient>
    <linearGradient
       xlink:href="#linearGradient900"
       id="linearGradient903" />
    <linearGradient
       xlink:href="#linearGradient900"
       id="linearGradient904" />
    <linearGradient
       xlink:href="#linearGradient900"
       id="linearGradient905" />
    <linearGradient
       xlink:href="#linearGradient900"
       id="linearGradient906" />
    <linearGradient
       xlink:href="#linearGradient900"
       id="linearGradient907" />
  </defs>
  <path
     style="font-size:12.000000;fill:#b3b3b3;fill-opacity:1.0000000;fill-rule:evenodd;stroke:#333333;stroke-width:3.1250000;stroke-linecap:round;stroke-linejoin:round;stroke-opacity:1.0000000;"
     d="M 6.6785922,5.1165118 C 5.5705922,5.1165118 4.6785922,6.0085118 4.6785922,7.1165118 L 4.6785922,53.501354 C 4.6785922,54.609354 5.5705922,55.501354 6.6785922,55.501354 L 53.423324,55.501354 C 54.531324,55.501354 55.423324,54.609354 55.423324,53.501354 L 55.423324,7.1165118 C 55.423324,6.0085118 54.531324,5.1165118 53.423324,5.1165118 L 6.6785922,5.1165118 z "
     id="rect812" />
  <path
     style="font-size:12.000000;font-weight:900;fill:#333333;stroke-width:1.0000000pt;font-family:VAG Rounded Black SSi;"
     d="M 43.088493,25.121068 L 43.088493,29.889890 L 45.189609,29.889890 C 45.716855,29.889890 46.177211,29.779720 46.570679,29.559378 C 46.964145,29.339036 47.263181,29.047871 47.467783,28.685880 C 47.672387,28.323892 47.774688,27.934358 47.774688,27.517283 C 47.774688,26.761826 47.538607,26.175559 47.066446,25.758485 C 46.594285,25.333541 45.968674,25.121068 45.189609,25.121068 L 43.088493,25.121068 z M 39.169561,37.043125 L 39.169561,23.598350 C 39.169561,22.992411 39.362360,22.512381 39.747957,22.158260 C 40.141423,21.796270 40.601781,21.615275 41.129027,21.615275 L 45.933260,21.615275 C 46.956276,21.615275 47.920272,21.843486 48.825245,22.299908 C 49.738088,22.748461 50.466002,23.421290 51.008989,24.318394 C 51.559842,25.207632 51.835269,26.273928 51.835269,27.517283 C 51.835269,28.658337 51.610993,29.677419 51.162441,30.574523 C 50.713887,31.463758 50.056797,32.160197 49.191170,32.663835 C 48.325541,33.167473 47.282853,33.419292 46.063106,33.419292 L 43.088493,33.419292 L 43.088493,37.043125 C 43.088493,37.727756 42.907498,38.251068 42.545509,38.613059 C 42.191389,38.967179 41.719229,39.144238 41.129027,39.144238 C 40.554566,39.144238 40.082405,38.963244 39.712546,38.601254 C 39.350555,38.231394 39.169561,37.712018 39.169561,37.043125 z M 26.067102,31.920181 L 26.067102,37.043125 C 26.067102,37.727756 25.886109,38.251068 25.524118,38.613059 C 25.169998,38.967179 24.697838,39.144238 24.107636,39.144238 C 23.533175,39.144238 23.061014,38.963244 22.691154,38.601254 C 22.329166,38.231394 22.148170,37.712018 22.148170,37.043125 L 22.148170,23.574742 C 22.148170,22.897978 22.329166,22.378602 22.691154,22.016612 C 23.053145,21.654622 23.525306,21.473627 24.107636,21.473627 C 24.697838,21.473627 25.169998,21.650687 25.524118,22.004808 C 25.886109,22.358928 26.067102,22.882240 26.067102,23.574742 L 26.067102,28.272740 L 33.361985,28.272740 L 33.361985,23.574742 C 33.361985,22.897978 33.542980,22.378602 33.904969,22.016612 C 34.266960,21.654622 34.739120,21.473627 35.321451,21.473627 C 35.911652,21.473627 36.383813,21.650687 36.737933,22.004808 C 37.099923,22.358928 37.280919,22.882240 37.280919,23.574742 L 37.280919,37.043125 C 37.280919,37.727756 37.099923,38.251068 36.737933,38.613059 C 36.383813,38.967179 35.911652,39.144238 35.321451,39.144238 C 34.746989,39.144238 34.274828,38.963244 33.904969,38.601254 C 33.542980,38.231394 33.361985,37.712018 33.361985,37.043125 L 33.361985,31.920181 L 26.067102,31.920181 z M 12.185580,25.121068 L 12.185580,29.889890 L 14.286695,29.889890 C 14.813942,29.889890 15.274297,29.779720 15.667765,29.559378 C 16.061232,29.339036 16.360268,29.047871 16.564870,28.685880 C 16.769474,28.323892 16.871775,27.934358 16.871775,27.517283 C 16.871775,26.761826 16.635695,26.175559 16.163535,25.758485 C 15.691374,25.333541 15.065761,25.121068 14.286695,25.121068 L 12.185580,25.121068 z M 8.2666475,37.043125 L 8.2666475,23.598350 C 8.2666475,22.992411 8.4594462,22.512381 8.8450435,22.158260 C 9.2385118,21.796270 9.6988666,21.615275 10.226114,21.615275 L 15.030349,21.615275 C 16.053363,21.615275 17.017358,21.843486 17.922333,22.299908 C 18.835177,22.748461 19.563091,23.421290 20.106075,24.318394 C 20.656928,25.207632 20.932356,26.273928 20.932356,27.517283 C 20.932356,28.658337 20.708080,29.677419 20.259528,30.574523 C 19.810976,31.463758 19.153885,32.160197 18.288256,32.663835 C 17.422630,33.167473 16.379942,33.419292 15.160193,33.419292 L 12.185580,33.419292 L 12.185580,37.043125 C 12.185580,37.727756 12.004587,38.251068 11.642596,38.613059 C 11.288476,38.967179 10.816315,39.144238 10.226114,39.144238 C 9.6516520,39.144238 9.1794915,38.963244 8.8096317,38.601254 C 8.4476429,38.231394 8.2666475,37.712018 8.2666475,37.043125 z "
     id="path841" />
  <metadata
     id="metadata14">
    <rdf:RDF
       id="RDF15">
      <cc:Work
         rdf:about=""
         id="Work16">
        <dc:title
           id="title17">Part of the Flat Icon Collection (Thu Aug 26 14:40:35 2004)</dc:title>
        <dc:description
           id="description19" />
        <dc:subject
           id="subject20">
          <rdf:Bag
             id="Bag21">
            <rdf:li
               id="li22" />
          </rdf:Bag>
        </dc:subject>
        <dc:publisher
           id="publisher23">
          <cc:Agent
             rdf:about=""
             id="Agent24">
            <dc:title
               id="title25" />
          </cc:Agent>
        </dc:publisher>
        <dc:creator
           id="creator26">
          <cc:Agent
             rdf:about=""
             id="Agent27">
            <dc:title
               id="title28">Danny Allen</dc:title>
          </cc:Agent>
        </dc:creator>
        <dc:rights
           id="rights30">
          <cc:Agent
             rdf:about=""
             id="Agent31">
            <dc:title
               id="title32">Danny Allen</dc:title>
          </cc:Agent>
        </dc:rights>
        <dc:date
           id="date34" />
        <dc:format
           id="format35">image/svg+xml</dc:format>
        <dc:type
           rdf:resource="http://purl.org/dc/dcmitype/StillImage"
           id="type37" />
        <cc:license
           rdf:resource="http://creativecommons.org/licenses/LGPL/2.1/"
           id="license38">
          <dc:date
             id="date39" />
        </cc:license>
        <dc:language
           id="language40">en</dc:language>
      </cc:Work>
    </rdf:RDF>
  </metadata>
</svg>
