<?xml version="1.0" encoding="UTF-8" standalone="no"?>
<!DOCTYPE svg PUBLIC "-//W3C//DTD SVG 20010904//EN"
"http://www.w3.org/TR/2001/REC-SVG-20010904/DTD/svg10.dtd">
<svg
   sodipodi:docname="postscript.svg"
   height="60.0000000"
   sodipodi:version="0.32"
   width="60.0000000"
   _SVGFile__filename="scalable/mimetypes/postscript.svg"
   version="1.0"
   y="0"
   x="0"
   inkscape:version="0.39"
   id="svg1"
   sodipodi:docbase="/home/danny/work/flat/newscale/mimetypes"
   xmlns="http://www.w3.org/2000/svg"
   xmlns:cc="http://web.resource.org/cc/"
   xmlns:inkscape="http://www.inkscape.org/namespaces/inkscape"
   xmlns:sodipodi="http://sodipodi.sourceforge.net/DTD/sodipodi-0.dtd"
   xmlns:rdf="http://www.w3.org/1999/02/22-rdf-syntax-ns#"
   xmlns:dc="http://purl.org/dc/elements/1.1/"
   xmlns:xlink="http://www.w3.org/1999/xlink">
  <sodipodi:namedview
     bordercolor="#666666"
     inkscape:pageshadow="2"
     inkscape:window-y="0"
     pagecolor="#ffffff"
     inkscape:window-height="685"
     inkscape:zoom="4.9119411"
     inkscape:window-x="0"
     borderopacity="1.0"
     inkscape:cx="13.547873"
     inkscape:cy="36.143447"
     inkscape:window-width="1016"
     inkscape:pageopacity="0.0"
     id="base" />
  <defs
     id="defs3">
    <linearGradient
       id="linearGradient900">
      <stop
         style="stop-color:#000;stop-opacity:1;"
         id="stop901"
         offset="0" />
      <stop
         style="stop-color:#fff;stop-opacity:1;"
         id="stop902"
         offset="1" />
    </linearGradient>
    <linearGradient
       xlink:href="#linearGradient900"
       id="linearGradient903" />
    <linearGradient
       xlink:href="#linearGradient900"
       id="linearGradient904" />
    <linearGradient
       xlink:href="#linearGradient900"
       id="linearGradient905" />
    <linearGradient
       xlink:href="#linearGradient900"
       id="linearGradient906" />
    <linearGradient
       xlink:href="#linearGradient900"
       id="linearGradient907" />
  </defs>
  <path
     style="font-size:12.000000;fill:#b3b3b3;fill-opacity:1.0000000;fill-rule:evenodd;stroke:#333333;stroke-width:3.1250000;stroke-opacity:1.0000000;stroke-linejoin:round;stroke-linecap:round;"
     d="M 6.6785922,5.1165123 C 5.5705922,5.1165123 4.6785922,6.0085123 4.6785922,7.1165123 L 4.6785922,53.501354 C 4.6785922,54.609354 5.5705922,55.501354 6.6785922,55.501354 L 53.423324,55.501354 C 54.531324,55.501354 55.423324,54.609354 55.423324,53.501354 L 55.423324,7.1165123 C 55.423324,6.0085123 54.531324,5.1165123 53.423324,5.1165123 L 6.6785922,5.1165123 z "
     id="rect812" />
  <path
     transform="matrix(0.688214,0.000000,-0.233488,0.647397,12.59130,14.13153)"
     style="font-size:12.000000;fill:#cccccc;fill-rule:evenodd;stroke:#333333;stroke-width:2.8090158;stroke-linecap:round;stroke-linejoin:round;stroke-opacity:1.0000000;stroke-miterlimit:4.0000000;stroke-dasharray:none;"
     d="M 28.693874,7.3616300 C 27.585874,7.3616300 26.693874,8.2536300 26.693874,9.3616300 L 26.693874,28.699166 C 26.693874,29.807166 27.585874,30.699166 28.693874,30.699166 L 50.246187,30.699166 C 51.354187,30.699166 52.246187,29.807166 52.246187,28.699166 L 52.246187,9.3616300 C 52.246187,8.2536300 51.354187,7.3616300 50.246187,7.3616300 L 28.693874,7.3616300 z "
     id="rect765" />
  <path
     transform="matrix(0.688214,0.000000,0.000000,0.688214,12.59130,14.13153)"
     style="font-size:12.000000;fill:#7f7f7f;fill-opacity:1.0000000;fill-rule:evenodd;stroke:#333333;stroke-width:2.7244432;stroke-linecap:round;stroke-linejoin:round;stroke-opacity:1.0000000;"
     d="M 6.4022794,27.078951 C 5.2942794,27.078951 4.4022794,27.970951 4.4022794,29.078951 L 4.4022794,51.351048 C 4.4022794,52.459048 5.2942794,53.351048 6.4022794,53.351048 L 53.147011,53.351048 C 54.255011,53.351048 55.147011,52.459048 55.147011,51.351048 L 55.147011,29.078951 C 55.147011,27.970951 54.255011,27.078951 53.147011,27.078951 L 6.4022794,27.078951 z "
     id="rect764" />
  <path
     transform="matrix(0.688214,0.000000,0.000000,0.688214,12.59130,14.13153)"
     style="font-size:12.000000;fill:#b3b3b3;fill-opacity:1.0000000;fill-rule:evenodd;stroke:#333333;stroke-width:2.7244432;stroke-linecap:round;stroke-linejoin:round;stroke-opacity:1.0000000;"
     d="M 10.287788,44.968124 L 10.287788,53.245634 L 49.515987,53.245634 L 49.515987,44.968124 L 10.287788,44.968124 z "
     id="rect766" />
  <path
     id="path841"
     style="font-size:12.000000;font-weight:900;fill:#333333;stroke-width:1.0000000pt;font-family:VAG Rounded Black SSi;"
     transform="matrix(1.379252,0.000000,0.000000,1.379252,-8.882102,5.130761)"
     d="M 19.164349,10.169352 C 19.164349,9.8841953 19.246380,9.6400547 19.410442,9.4369297 C 19.574505,9.2298985 19.797161,9.1263828 20.078411,9.1263828 C 20.207317,9.1263828 20.412395,9.1810703 20.693645,9.2904453 C 20.974895,9.3959141 21.217083,9.4798985 21.420208,9.5423985 C 21.627239,9.6009922 21.879192,9.6302891 22.176067,9.6302891 C 22.531536,9.6302891 22.791302,9.5521641 22.955364,9.3959141 C 23.123333,9.2396641 23.207317,9.0463047 23.207317,8.8158360 C 23.207317,8.6556797 23.164349,8.5228672 23.078411,8.4173985 C 22.992474,8.3080235 22.875286,8.2162266 22.726849,8.1420078 C 22.578411,8.0638828 22.363567,7.9798985 22.082317,7.8900547 C 21.801067,7.8002110 21.560833,7.7240391 21.361614,7.6615391 C 20.955364,7.5326328 20.607708,7.3881016 20.318645,7.2279453 C 20.029583,7.0638828 19.789349,6.8295078 19.597942,6.5248203 C 19.406536,6.2162266 19.310833,5.8197422 19.310833,5.3353672 C 19.310833,4.7298985 19.449505,4.2201328 19.726849,3.8060703 C 20.008099,3.3920078 20.381145,3.0834141 20.845989,2.8802891 C 21.310833,2.6771641 21.822552,2.5756016 22.381145,2.5756016 C 23.146770,2.5756016 23.742474,2.6947422 24.168255,2.9330235 C 24.594036,3.1713047 24.806927,3.4838047 24.806927,3.8705235 C 24.806927,4.1322422 24.724895,4.3529453 24.560833,4.5326328 C 24.400677,4.7084141 24.193645,4.7963047 23.939739,4.7963047 C 23.763958,4.7963047 23.521770,4.7396641 23.213177,4.6263828 C 22.904583,4.5131016 22.595989,4.4564610 22.287395,4.4564610 C 22.021770,4.4564610 21.806927,4.5228672 21.642864,4.6556797 C 21.478802,4.7884922 21.396770,4.9584141 21.396770,5.1654453 C 21.396770,5.2865391 21.426067,5.3841953 21.484661,5.4584141 C 21.547161,5.5287266 21.656536,5.6009922 21.812786,5.6752110 C 21.972942,5.7494297 22.213177,5.8392735 22.533489,5.9447422 C 22.857708,6.0502110 23.086224,6.1263828 23.219036,6.1732578 C 23.863567,6.3841953 24.371380,6.6732578 24.742474,7.0404453 C 25.113567,7.4037266 25.299114,7.9584141 25.299114,8.7045078 C 25.299114,9.6498203 24.994427,10.366617 24.385052,10.854898 C 23.775677,11.343180 22.992474,11.587320 22.035442,11.587320 C 21.609661,11.587320 21.176067,11.534586 20.734661,11.429117 C 20.297161,11.323648 19.926067,11.161539 19.621380,10.942789 C 19.316692,10.724039 19.164349,10.466227 19.164349,10.169352 z M 14.629192,4.5033360 L 14.629192,6.8705235 L 15.672161,6.8705235 C 15.933880,6.8705235 16.162395,6.8158360 16.357708,6.7064610 C 16.553020,6.5970860 16.701458,6.4525547 16.803020,6.2728672 C 16.904583,6.0931797 16.955364,5.8998203 16.955364,5.6927891 C 16.955364,5.3177891 16.838177,5.0267735 16.603802,4.8197422 C 16.369427,4.6088047 16.058880,4.5033360 15.672161,4.5033360 L 14.629192,4.5033360 z M 12.683880,10.421305 L 12.683880,3.7474766 C 12.683880,3.4466953 12.779583,3.2084141 12.970989,3.0326328 C 13.166302,2.8529453 13.394817,2.7631016 13.656536,2.7631016 L 16.041302,2.7631016 C 16.549114,2.7631016 17.027630,2.8763828 17.476849,3.1029453 C 17.929974,3.3256016 18.291302,3.6595860 18.560833,4.1048985 C 18.834270,4.5463047 18.970989,5.0756016 18.970989,5.6927891 C 18.970989,6.2591953 18.859661,6.7650547 18.637005,7.2103672 C 18.414349,7.6517735 18.088177,7.9974766 17.658489,8.2474766 C 17.228802,8.4974766 16.711224,8.6224766 16.105755,8.6224766 L 14.629192,8.6224766 L 14.629192,10.421305 C 14.629192,10.761148 14.539349,11.020914 14.359661,11.200602 C 14.183880,11.376383 13.949505,11.464273 13.656536,11.464273 C 13.371380,11.464273 13.137005,11.374430 12.953411,11.194742 C 12.773724,11.011148 12.683880,10.753336 12.683880,10.421305 z " />
  <metadata
     id="metadata18">
    <rdf:RDF
       id="RDF19">
      <cc:Work
         rdf:about=""
         id="Work20">
        <dc:title
           id="title21">Part of the Flat Icon Collection (Thu Aug 26 14:40:35 2004)</dc:title>
        <dc:description
           id="description23" />
        <dc:subject
           id="subject24">
          <rdf:Bag
             id="Bag25">
            <rdf:li
               id="li26" />
          </rdf:Bag>
        </dc:subject>
        <dc:publisher
           id="publisher27">
          <cc:Agent
             rdf:about=""
             id="Agent28">
            <dc:title
               id="title29" />
          </cc:Agent>
        </dc:publisher>
        <dc:creator
           id="creator30">
          <cc:Agent
             rdf:about=""
             id="Agent31">
            <dc:title
               id="title32">Danny Allen</dc:title>
          </cc:Agent>
        </dc:creator>
        <dc:rights
           id="rights34">
          <cc:Agent
             rdf:about=""
             id="Agent35">
            <dc:title
               id="title36">Danny Allen</dc:title>
          </cc:Agent>
        </dc:rights>
        <dc:date
           id="date38" />
        <dc:format
           id="format39">image/svg+xml</dc:format>
        <dc:type
           rdf:resource="http://purl.org/dc/dcmitype/StillImage"
           id="type41" />
        <cc:license
           rdf:resource="http://creativecommons.org/licenses/LGPL/2.1/"
           id="license42">
          <dc:date
             id="date43" />
        </cc:license>
        <dc:language
           id="language44">en</dc:language>
      </cc:Work>
    </rdf:RDF>
  </metadata>
</svg>
