<?xml version="1.0" encoding="UTF-8" standalone="no"?>
<!DOCTYPE svg PUBLIC "-//W3C//DTD SVG 20010904//EN"
"http://www.w3.org/TR/2001/REC-SVG-20010904/DTD/svg10.dtd">
<svg
   sodipodi:docname="psd.svg"
   height="60.0000000"
   sodipodi:version="0.32"
   width="60.0000000"
   _SVGFile__filename="scalable/mimetypes/psd.svg"
   version="1.0"
   y="0"
   x="0"
   inkscape:version="0.39"
   id="svg1"
   sodipodi:docbase="/home/danny/work/flat/newscale/mimetypes"
   xmlns="http://www.w3.org/2000/svg"
   xmlns:cc="http://web.resource.org/cc/"
   xmlns:inkscape="http://www.inkscape.org/namespaces/inkscape"
   xmlns:sodipodi="http://sodipodi.sourceforge.net/DTD/sodipodi-0.dtd"
   xmlns:rdf="http://www.w3.org/1999/02/22-rdf-syntax-ns#"
   xmlns:dc="http://purl.org/dc/elements/1.1/"
   xmlns:xlink="http://www.w3.org/1999/xlink">
  <sodipodi:namedview
     bordercolor="#666666"
     inkscape:pageshadow="2"
     inkscape:window-y="0"
     snaptoguides="true"
     pagecolor="#ffffff"
     inkscape:window-height="685"
     inkscape:zoom="14.091131"
     inkscape:window-x="0"
     borderopacity="1.0"
     inkscape:cx="36.609438"
     inkscape:cy="17.580010"
     inkscape:window-width="1016"
     inkscape:pageopacity="0.0"
     id="base"
     showguides="true" />
  <defs
     id="defs3">
    <linearGradient
       id="linearGradient900">
      <stop
         style="stop-color:#000;stop-opacity:1;"
         id="stop901"
         offset="0" />
      <stop
         style="stop-color:#fff;stop-opacity:1;"
         id="stop902"
         offset="1" />
    </linearGradient>
    <linearGradient
       xlink:href="#linearGradient900"
       id="linearGradient903" />
    <linearGradient
       xlink:href="#linearGradient900"
       id="linearGradient904" />
    <linearGradient
       xlink:href="#linearGradient900"
       id="linearGradient905" />
    <linearGradient
       xlink:href="#linearGradient900"
       id="linearGradient906" />
    <linearGradient
       xlink:href="#linearGradient900"
       id="linearGradient907" />
  </defs>
  <rect
     style="font-size:12;fill:#b3b3b3;fill-opacity:1;fill-rule:evenodd;stroke:none;stroke-width:3.125;stroke-opacity:1;stroke-dasharray:none;"
     sodipodi:fill-cmyk="(0 0 0 0.298039)"
     rx="2"
     height="50.38484192"
     width="50.74473190"
     y="5.11651238"
     x="4.67859221"
     id="rect812" />
  <path
     style="font-size:12.000000;fill:none;fill-opacity:1.0000000;fill-rule:evenodd;stroke:#333333;stroke-width:3.1250000;stroke-linecap:round;stroke-linejoin:round;stroke-opacity:1.0000000;"
     d="M 6.6785922,5.1165123 C 5.5705922,5.1165123 4.6785922,6.0085123 4.6785922,7.1165123 L 4.6785922,53.501354 C 4.6785922,54.609354 5.5705922,55.501354 6.6785922,55.501354 L 53.423324,55.501354 C 54.531324,55.501354 55.423324,54.609354 55.423324,53.501354 L 55.423324,7.1165123 C 55.423324,6.0085123 54.531324,5.1165123 53.423324,5.1165123 L 6.6785922,5.1165123 z "
     id="rect835" />
  <g
     id="g857">
    <path
       sodipodi:nodetypes="ccccc"
       style="fill:#333333;fill-rule:evenodd;stroke-width:1.0000000pt;"
       d="M 17.558376,22.858710 L 17.558376,52.233884 L 52.130695,52.233884 L 52.130695,22.858710 L 17.558376,22.858710 z "
       id="path850" />
    <path
       style="fill:#b3b3b3;fill-rule:evenodd;stroke-width:1.0000000pt;stroke-linecap:round;stroke-linejoin:round;"
       d="M 17.368581,52.410709 L 30.026372,22.702321 L 40.283547,22.702321 L 52.286625,52.382657 L 42.684163,52.382657 L 35.045841,32.787378 L 30.132401,45.425199 L 35.045841,45.425199 L 37.968991,52.392642 L 17.368581,52.410709 z "
       id="path856" />
  </g>
  <path
     style="font-size:12.000000;font-weight:900;stroke-width:1.0000000pt;font-family:VAG Rounded Black SSi;fill:#333333;fill-opacity:1.0000000;"
     d="M 28.514534,11.236887 L 28.514534,17.905001 L 29.891985,17.905001 C 30.392876,17.905001 30.828547,17.824128 31.198999,17.662382 C 31.574667,17.495419 31.885114,17.260625 32.130342,16.958004 C 32.375571,16.655381 32.558188,16.297975 32.678192,15.885784 C 32.798197,15.473592 32.858200,15.006614 32.858200,14.484853 C 32.858200,13.493506 32.612972,12.705645 32.122517,12.121272 C 31.632060,11.531682 30.925073,11.236887 30.001555,11.236887 L 28.514534,11.236887 z M 25.916160,19.024180 L 25.916160,10.125535 C 25.916160,9.7237770 26.043993,9.4055030 26.299656,9.1707100 C 26.560536,8.9306990 26.865767,8.8106950 27.215348,8.8106950 L 30.322439,8.8106950 C 31.412921,8.8106950 32.359918,9.0741840 33.163431,9.6011630 C 33.972161,10.122925 34.587840,10.819477 35.010467,11.690820 C 35.433094,12.556943 35.644408,13.488289 35.644408,14.484853 C 35.644408,15.403153 35.503532,16.230146 35.221780,16.965830 C 34.945247,17.696296 34.556534,18.314584 34.055643,18.820693 C 33.554752,19.326801 32.983423,19.707688 32.341656,19.963351 C 31.699890,20.213797 31.026816,20.339020 30.322439,20.339020 L 27.215348,20.339020 C 26.865767,20.339020 26.560536,20.221623 26.299656,19.986830 C 26.043993,19.746821 25.916160,19.425936 25.916160,19.024180 z M 16.759243,18.703297 C 16.759243,18.322410 16.868812,17.996310 17.087952,17.724994 C 17.307092,17.448459 17.604496,17.310193 17.980165,17.310193 C 18.152346,17.310193 18.426272,17.383239 18.801940,17.529332 C 19.177609,17.670208 19.501100,17.782387 19.772416,17.865868 C 20.048950,17.944133 20.385486,17.983265 20.782025,17.983265 C 21.256828,17.983265 21.603800,17.878913 21.822940,17.670208 C 22.047297,17.461504 22.159476,17.203232 22.159476,16.895392 C 22.159476,16.681470 22.102083,16.504071 21.987295,16.363195 C 21.872508,16.217101 21.715979,16.094489 21.517710,15.995354 C 21.319440,15.891001 21.032470,15.778822 20.656802,15.658817 C 20.281133,15.538812 19.960251,15.437068 19.694152,15.353586 C 19.151520,15.181405 18.687152,14.988354 18.301049,14.774430 C 17.914945,14.555291 17.594062,14.242234 17.338397,13.835259 C 17.082734,13.423069 16.954903,12.893480 16.954903,12.246495 C 16.954903,11.437764 17.140129,10.756866 17.510580,10.203798 C 17.886248,9.6507310 18.384531,9.2385390 19.005426,8.9672230 C 19.626323,8.6959070 20.309831,8.5602490 21.055951,8.5602490 C 22.078604,8.5602490 22.874290,8.7193860 23.443010,9.0376600 C 24.011730,9.3559360 24.296091,9.7733450 24.296091,10.289888 C 24.296091,10.639469 24.186521,10.934264 23.967381,11.174275 C 23.753459,11.409068 23.476925,11.526465 23.137779,11.526465 C 22.902987,11.526465 22.579495,11.450809 22.167303,11.299498 C 21.755111,11.148187 21.342919,11.072532 20.930728,11.072532 C 20.575930,11.072532 20.288961,11.161231 20.069820,11.338630 C 19.850681,11.516029 19.741111,11.742995 19.741111,12.019529 C 19.741111,12.181275 19.780242,12.311715 19.858507,12.410850 C 19.941989,12.504768 20.088082,12.601293 20.296787,12.700428 C 20.510709,12.799563 20.831593,12.919567 21.259437,13.060443 C 21.692499,13.201319 21.997731,13.303063 22.175129,13.365674 C 23.036035,13.647425 23.714326,14.033529 24.210000,14.523985 C 24.705673,15.009224 24.953510,15.750125 24.953510,16.746690 C 24.953510,18.009353 24.546536,18.966786 23.732588,19.618988 C 22.918640,20.271191 21.872508,20.597291 20.594190,20.597291 C 20.025471,20.597291 19.446315,20.526854 18.856724,20.385978 C 18.272351,20.245102 17.776677,20.028571 17.369704,19.736385 C 16.962729,19.444198 16.759243,19.099836 16.759243,18.703297 z M 10.701589,11.135143 L 10.701589,14.297018 L 12.094693,14.297018 C 12.444273,14.297018 12.749504,14.223972 13.010385,14.077879 C 13.271265,13.931786 13.469535,13.738734 13.605193,13.498723 C 13.740851,13.258713 13.808680,13.000441 13.808680,12.723907 C 13.808680,12.223016 13.652152,11.834303 13.339094,11.557770 C 13.026037,11.276019 12.611237,11.135143 12.094693,11.135143 L 10.701589,11.135143 z M 8.1032155,19.039833 L 8.1032155,10.125535 C 8.1032155,9.7237770 8.2310472,9.4055030 8.4867104,9.1707100 C 8.7475912,8.9306990 9.0528218,8.8106950 9.4024022,8.8106950 L 12.587757,8.8106950 C 13.266048,8.8106950 13.905206,8.9620060 14.505232,9.2646270 C 15.110476,9.5620320 15.593105,10.008138 15.953121,10.602945 C 16.318354,11.192537 16.500970,11.899524 16.500970,12.723907 C 16.500970,13.480461 16.352268,14.156144 16.054864,14.750951 C 15.757460,15.340542 15.321789,15.802302 14.747851,16.136230 C 14.173913,16.470157 13.482579,16.637121 12.673848,16.637121 L 10.701589,16.637121 L 10.701589,19.039833 C 10.701589,19.493765 10.581584,19.840737 10.341573,20.080748 C 10.106780,20.315541 9.7937234,20.432936 9.4024022,20.432936 C 9.0215161,20.432936 8.7084591,20.312932 8.4632311,20.072921 C 8.2232207,19.827693 8.1032155,19.483330 8.1032155,19.039833 z "
     id="path860" />
  <metadata
     id="metadata18">
    <rdf:RDF
       id="RDF19">
      <cc:Work
         rdf:about=""
         id="Work20">
        <dc:title
           id="title21">Part of the Flat Icon Collection (Thu Aug 26 14:40:35 2004)</dc:title>
        <dc:description
           id="description23" />
        <dc:subject
           id="subject24">
          <rdf:Bag
             id="Bag25">
            <rdf:li
               id="li26" />
          </rdf:Bag>
        </dc:subject>
        <dc:publisher
           id="publisher27">
          <cc:Agent
             rdf:about=""
             id="Agent28">
            <dc:title
               id="title29" />
          </cc:Agent>
        </dc:publisher>
        <dc:creator
           id="creator30">
          <cc:Agent
             rdf:about=""
             id="Agent31">
            <dc:title
               id="title32">Danny Allen</dc:title>
          </cc:Agent>
        </dc:creator>
        <dc:rights
           id="rights34">
          <cc:Agent
             rdf:about=""
             id="Agent35">
            <dc:title
               id="title36">Danny Allen</dc:title>
          </cc:Agent>
        </dc:rights>
        <dc:date
           id="date38" />
        <dc:format
           id="format39">image/svg+xml</dc:format>
        <dc:type
           rdf:resource="http://purl.org/dc/dcmitype/StillImage"
           id="type41" />
        <cc:license
           rdf:resource="http://creativecommons.org/licenses/LGPL/2.1/"
           id="license42">
          <dc:date
             id="date43" />
        </cc:license>
        <dc:language
           id="language44">en</dc:language>
      </cc:Work>
    </rdf:RDF>
  </metadata>
</svg>
