<?xml version="1.0" encoding="UTF-8" standalone="no"?>
<!DOCTYPE svg PUBLIC "-//W3C//DTD SVG 20010904//EN"
"http://www.w3.org/TR/2001/REC-SVG-20010904/DTD/svg10.dtd">
<svg
   sodipodi:docname="real.svg"
   sodipodi:version="0.32"
   height="60.0000000"
   width="60.0000000"
   _SVGFile__filename="scalable/mimetypes/real.svg"
   version="1.0"
   y="0"
   x="0"
   inkscape:version="0.39"
   id="svg1"
   sodipodi:docbase="/home/danny/work/flat/newscale/mimetypes"
   xmlns="http://www.w3.org/2000/svg"
   xmlns:cc="http://web.resource.org/cc/"
   xmlns:inkscape="http://www.inkscape.org/namespaces/inkscape"
   xmlns:sodipodi="http://sodipodi.sourceforge.net/DTD/sodipodi-0.dtd"
   xmlns:rdf="http://www.w3.org/1999/02/22-rdf-syntax-ns#"
   xmlns:dc="http://purl.org/dc/elements/1.1/"
   xmlns:xlink="http://www.w3.org/1999/xlink">
  <sodipodi:namedview
     bordercolor="#666666"
     inkscape:pageshadow="2"
     inkscape:window-y="0"
     pagecolor="#ffffff"
     inkscape:window-height="685"
     inkscape:zoom="6.9465337"
     inkscape:window-x="0"
     borderopacity="1.0"
     inkscape:cx="37.697540"
     inkscape:cy="31.806367"
     inkscape:window-width="1016"
     inkscape:pageopacity="0.0"
     id="base" />
  <defs
     id="defs3">
    <linearGradient
       id="linearGradient900">
      <stop
         style="stop-color:#000;stop-opacity:1;"
         id="stop901"
         offset="0" />
      <stop
         style="stop-color:#fff;stop-opacity:1;"
         id="stop902"
         offset="1" />
    </linearGradient>
    <linearGradient
       xlink:href="#linearGradient900"
       id="linearGradient903" />
    <linearGradient
       xlink:href="#linearGradient900"
       id="linearGradient904" />
    <linearGradient
       xlink:href="#linearGradient900"
       id="linearGradient905" />
    <linearGradient
       xlink:href="#linearGradient900"
       id="linearGradient906" />
    <linearGradient
       xlink:href="#linearGradient900"
       id="linearGradient907" />
  </defs>
  <path
     style="font-size:12.000000;fill:#b3b3b3;fill-opacity:1.0000000;fill-rule:evenodd;stroke:#333333;stroke-width:3.1250000;stroke-linecap:round;stroke-linejoin:round;stroke-opacity:1.0000000;"
     d="M 6.6785922,5.1165123 C 5.5705922,5.1165123 4.6785922,6.0085123 4.6785922,7.1165123 L 4.6785922,53.501354 C 4.6785922,54.609354 5.5705922,55.501354 6.6785922,55.501354 L 53.423324,55.501354 C 54.531324,55.501354 55.423324,54.609354 55.423324,53.501354 L 55.423324,7.1165123 C 55.423324,6.0085123 54.531324,5.1165123 53.423324,5.1165123 L 6.6785922,5.1165123 z "
     id="rect812" />
  <rect
     style="font-size:12.000000;fill:#4c4c4c;fill-rule:evenodd;stroke:#333333;stroke-width:1.8750000;fill-opacity:1.0000000;"
     rx="2.1859379"
     transform="matrix(0.711270,0.000000,0.000000,0.711270,8.707415,9.028222)"
     height="55.069069"
     width="55.462418"
     sodipodi:stroke-cmyk="(0 0 0 0.8)"
     y="2.6844294"
     x="2.4264528"
     id="rect945" />
  <path
     sodipodi:nodetypes="ccccc"
     style="fill:#b3b3b3;fill-rule:evenodd;stroke:none;stroke-opacity:1;stroke-width:1pt;stroke-linejoin:miter;stroke-linecap:butt;fill-opacity:1.0000000;"
     transform="matrix(0.711270,0.000000,0.000000,0.711270,8.707415,9.028222)"
     d="M 57.582676,51.182653 L 8.4574552,51.182653 L 4.8585382,2.7772158 L 57.402730,2.7772158 L 57.582676,51.182653 z "
     id="path1022" />
  <path
     transform="matrix(0.711270,0.000000,0.000000,0.711270,8.707415,8.132292)"
     style="fill:#4c4c4c;fill-opacity:1.0000000;fill-rule:evenodd;stroke:#4c4c4c;stroke-width:1.7574198;stroke-linecap:round;stroke-linejoin:round;stroke-miterlimit:4.0000000;stroke-opacity:1.0000000;"
     d="M 34.093750,8.1562500 C 19.991385,8.1562500 8.5312499,14.975823 8.5312500,23.375000 C 8.5312502,31.551518 19.414633,38.182995 33.000000,38.531250 L 31.843750,50.468750 C 31.843750,50.468750 42.653159,41.053365 47.875000,36.156250 C 52.446688,34.402467 55.858328,31.753521 57.812500,28.687500 L 57.812500,17.843750 C 54.086155,12.191680 44.901416,8.1562502 34.093750,8.1562500 z "
     id="path1021" />
  <path
     id="path841"
     style="font-size:12.000000;font-weight:900;fill:#cccccc;stroke-width:1.0000000pt;font-family:VAG Rounded Black SSi;fill-opacity:1.0000000;"
     transform="matrix(1.360999,0.000000,-0.338912,1.360999,0.217836,2.728212)"
     d="M 35.282356,19.497847 L 35.282356,12.062300 C 35.282356,11.781050 35.370247,11.546675 35.546028,11.359175 C 35.721809,11.171675 35.944466,11.077925 36.213997,11.077925 C 36.487434,11.077925 36.712044,11.171675 36.887825,11.359175 C 37.063606,11.546675 37.151497,11.781050 37.151497,12.062300 L 37.151497,19.497847 C 37.151497,19.775190 37.063606,20.009565 36.887825,20.200972 C 36.715950,20.388472 36.491341,20.482222 36.213997,20.482222 C 35.940559,20.482222 35.715950,20.388472 35.540169,20.200972 C 35.368294,20.009565 35.282356,19.775190 35.282356,19.497847 z M 34.485481,14.868940 L 34.485481,19.497847 C 34.485481,19.779097 34.397591,20.013472 34.221809,20.200972 C 34.046028,20.388472 33.821419,20.482222 33.547981,20.482222 C 33.333138,20.482222 33.151497,20.423628 33.003059,20.306440 C 32.858528,20.189253 32.749153,20.048628 32.674934,19.884565 C 32.463997,20.142378 32.229622,20.325972 31.971809,20.435347 C 31.717903,20.548628 31.415169,20.605268 31.063606,20.605268 C 30.528450,20.605268 30.040169,20.454878 29.598763,20.154097 C 29.161263,19.849409 28.813606,19.435347 28.555794,18.911909 C 28.301888,18.384565 28.174934,17.808393 28.174934,17.183393 C 28.174934,16.566206 28.301888,15.995893 28.555794,15.472456 C 28.813606,14.945112 29.163216,14.531050 29.604622,14.230268 C 30.046028,13.925581 30.532356,13.773237 31.063606,13.773237 C 31.419075,13.773237 31.721809,13.827925 31.971809,13.937300 C 32.225716,14.046675 32.460091,14.232222 32.674934,14.493940 C 32.745247,14.333784 32.854622,14.195112 33.003059,14.077925 C 33.151497,13.956831 33.333138,13.896284 33.547981,13.896284 C 33.821419,13.896284 34.046028,13.990034 34.221809,14.177534 C 34.397591,14.361128 34.485481,14.591597 34.485481,14.868940 z M 31.327278,15.589643 C 30.928841,15.589643 30.614388,15.741987 30.383919,16.046675 C 30.157356,16.351362 30.044075,16.730268 30.044075,17.183393 C 30.044075,17.472456 30.094856,17.741987 30.196419,17.991987 C 30.297981,18.238081 30.444466,18.433393 30.635872,18.577925 C 30.831184,18.722456 31.061653,18.794722 31.327278,18.794722 C 31.729622,18.794722 32.044075,18.642378 32.270638,18.337690 C 32.497200,18.029097 32.610481,17.644331 32.610481,17.183393 C 32.610481,16.726362 32.497200,16.347456 32.270638,16.046675 C 32.044075,15.741987 31.729622,15.589643 31.327278,15.589643 z M 26.897591,17.810347 L 23.516731,17.810347 C 23.516731,18.064253 23.633919,18.304487 23.868294,18.531050 C 24.102669,18.753706 24.485481,18.865034 25.016731,18.865034 C 25.290169,18.865034 25.516731,18.829878 25.696419,18.759565 C 25.876106,18.689253 26.096809,18.589643 26.358528,18.460737 C 26.624153,18.327925 26.815559,18.261518 26.932747,18.261518 C 27.151497,18.261518 27.337044,18.337690 27.489388,18.490034 C 27.641731,18.642378 27.717903,18.839643 27.717903,19.081831 C 27.717903,19.370893 27.573372,19.634565 27.284309,19.872847 C 26.999153,20.107222 26.630013,20.286909 26.176888,20.411909 C 25.723763,20.540815 25.256966,20.605268 24.776497,20.605268 C 24.280403,20.605268 23.831184,20.519331 23.428841,20.347456 C 23.030403,20.175581 22.684700,19.933393 22.391731,19.620893 C 22.102669,19.304487 21.881966,18.937300 21.729622,18.519331 C 21.577278,18.097456 21.501106,17.652143 21.501106,17.183393 C 21.501106,16.741987 21.581184,16.312300 21.741341,15.894331 C 21.901497,15.476362 22.128059,15.109175 22.421028,14.792768 C 22.713997,14.476362 23.063606,14.228315 23.469856,14.048628 C 23.876106,13.865034 24.311653,13.773237 24.776497,13.773237 C 25.374153,13.773237 25.903450,13.923628 26.364388,14.224409 C 26.825325,14.525190 27.180794,14.919722 27.430794,15.408003 C 27.684700,15.896284 27.811653,16.419722 27.811653,16.978315 C 27.811653,17.298628 27.739388,17.517378 27.594856,17.634565 C 27.450325,17.751753 27.217903,17.810347 26.897591,17.810347 z M 23.516731,16.509565 L 25.936653,16.509565 C 25.936653,16.361128 25.883919,16.197065 25.778450,16.017378 C 25.672981,15.833784 25.528450,15.681440 25.344856,15.560347 C 25.165169,15.435347 24.960091,15.372847 24.729622,15.372847 C 24.499153,15.372847 24.290169,15.435347 24.102669,15.560347 C 23.919075,15.685347 23.774544,15.837690 23.669075,16.017378 C 23.567513,16.193159 23.516731,16.357222 23.516731,16.509565 z M 17.528450,19.497847 L 17.528450,14.868940 C 17.528450,14.591597 17.614388,14.361128 17.786263,14.177534 C 17.962044,13.990034 18.186653,13.896284 18.460091,13.896284 C 18.686653,13.896284 18.881966,13.956831 19.046028,14.077925 C 19.213997,14.195112 19.331184,14.333784 19.397591,14.493940 C 19.799934,14.013472 20.231575,13.773237 20.692513,13.773237 C 20.946419,13.773237 21.169075,13.865034 21.360481,14.048628 C 21.555794,14.228315 21.653450,14.460737 21.653450,14.745893 C 21.653450,15.038862 21.561653,15.251753 21.378059,15.384565 C 21.198372,15.517378 20.899544,15.644331 20.481575,15.765425 C 20.055794,15.886518 19.768684,16.038862 19.620247,16.222456 C 19.471809,16.402143 19.397591,16.726362 19.397591,17.195112 L 19.397591,19.497847 C 19.397591,19.775190 19.309700,20.009565 19.133919,20.200972 C 18.962044,20.388472 18.737434,20.482222 18.460091,20.482222 C 18.186653,20.482222 17.962044,20.388472 17.786263,20.200972 C 17.614388,20.009565 17.528450,19.775190 17.528450,19.497847 z " />
  <path
     transform="matrix(0.711270,0.000000,0.000000,0.711270,8.707415,9.028222)"
     style="font-size:12.000000;fill:none;fill-opacity:1.0000000;fill-rule:evenodd;stroke:#333333;stroke-width:1.7574198;stroke-linecap:round;stroke-linejoin:round;"
     d="M 4.6123908,2.6844294 C 3.4013812,2.6844294 2.4264529,3.6593577 2.4264529,4.8703673 L 2.4264529,55.567560 C 2.4264529,56.778570 3.4013812,57.753498 4.6123908,57.753498 L 55.702933,57.753498 C 56.913942,57.753498 57.888870,56.778570 57.888870,55.567560 L 57.888870,4.8703673 C 57.888870,3.6593577 56.913942,2.6844294 55.702933,2.6844294 L 4.6123908,2.6844294 z "
     id="rect1026" />
  <metadata
     id="metadata18">
    <rdf:RDF
       id="RDF19">
      <cc:Work
         rdf:about=""
         id="Work20">
        <dc:format
           id="format21">image/svg+xml</dc:format>
        <dc:type
           id="type23"
           rdf:resource="http://purl.org/dc/dcmitype/StillImage" />
      </cc:Work>
    </rdf:RDF>
  </metadata>
</svg>
