<?xml version="1.0" encoding="UTF-8" standalone="no"?>
<!DOCTYPE svg PUBLIC "-//W3C//DTD SVG 20010904//EN"
"http://www.w3.org/TR/2001/REC-SVG-20010904/DTD/svg10.dtd">
<svg
   sodipodi:docname="source.svg"
   height="60.0000000"
   sodipodi:version="0.32"
   width="60.0000000"
   _SVGFile__filename="scalable/mimetypes/source.svg"
   version="1.0"
   y="0"
   x="0"
   inkscape:version="0.39"
   id="svg1"
   sodipodi:docbase="/home/danny/work/flat/newscale/mimetypes"
   xmlns="http://www.w3.org/2000/svg"
   xmlns:cc="http://web.resource.org/cc/"
   xmlns:inkscape="http://www.inkscape.org/namespaces/inkscape"
   xmlns:sodipodi="http://sodipodi.sourceforge.net/DTD/sodipodi-0.dtd"
   xmlns:rdf="http://www.w3.org/1999/02/22-rdf-syntax-ns#"
   xmlns:dc="http://purl.org/dc/elements/1.1/"
   xmlns:xlink="http://www.w3.org/1999/xlink">
  <sodipodi:namedview
     bordercolor="#666666"
     inkscape:pageshadow="2"
     inkscape:window-y="0"
     snaptoguides="true"
     pagecolor="#ffffff"
     inkscape:window-height="685"
     inkscape:zoom="6.9465337"
     inkscape:window-x="0"
     borderopacity="1.0"
     inkscape:cx="37.697540"
     inkscape:cy="36.490183"
     inkscape:window-width="1016"
     inkscape:pageopacity="0.0"
     id="base"
     showguides="true" />
  <defs
     id="defs3">
    <linearGradient
       id="linearGradient900">
      <stop
         style="stop-color:#000;stop-opacity:1;"
         id="stop901"
         offset="0" />
      <stop
         style="stop-color:#fff;stop-opacity:1;"
         id="stop902"
         offset="1" />
    </linearGradient>
    <linearGradient
       xlink:href="#linearGradient900"
       id="linearGradient903" />
    <linearGradient
       xlink:href="#linearGradient900"
       id="linearGradient904" />
    <linearGradient
       xlink:href="#linearGradient900"
       id="linearGradient905" />
    <linearGradient
       xlink:href="#linearGradient900"
       id="linearGradient906" />
    <linearGradient
       xlink:href="#linearGradient900"
       id="linearGradient907" />
  </defs>
  <path
     style="font-size:12.000000;fill:#b3b3b3;fill-opacity:1.0000000;fill-rule:evenodd;stroke:#333333;stroke-width:3.1250000;stroke-linejoin:round;stroke-opacity:1.0000000;stroke-linecap:round;"
     d="M 6.6785922,5.1165123 C 5.5705922,5.1165123 4.6785922,6.0085123 4.6785922,7.1165123 L 4.6785922,53.501354 C 4.6785922,54.609354 5.5705922,55.501354 6.6785922,55.501354 L 53.423324,55.501354 C 54.531324,55.501354 55.423324,54.609354 55.423324,53.501354 L 55.423324,7.1165123 C 55.423324,6.0085123 54.531324,5.1165123 53.423324,5.1165123 L 6.6785922,5.1165123 z "
     id="rect812" />
  <path
     style="font-size:12.000000;font-weight:900;fill:#333333;stroke-width:1.0000000pt;font-family:VAG Rounded Black SSi;"
     d="M 50.624311,31.088198 L 46.382459,31.088198 C 46.382459,31.406767 46.529491,31.708181 46.823554,31.992441 C 47.117616,32.271801 47.597918,32.411480 48.264460,32.411480 C 48.607533,32.411480 48.891793,32.367371 49.117242,32.279152 C 49.342689,32.190934 49.619598,32.065956 49.947968,31.904222 C 50.281239,31.737586 50.521390,31.654269 50.668422,31.654269 C 50.942880,31.654269 51.175680,31.749839 51.366820,31.940980 C 51.557961,32.132121 51.653531,32.379623 51.653531,32.683489 C 51.653531,33.046165 51.472193,33.376986 51.109515,33.675949 C 50.751739,33.970012 50.288590,34.195460 49.720069,34.352294 C 49.151548,34.514028 48.565873,34.594895 47.963046,34.594895 C 47.340613,34.594895 46.776993,34.487072 46.272185,34.271426 C 45.772279,34.055781 45.338537,33.751915 44.970959,33.359832 C 44.608282,32.962848 44.331372,32.502149 44.140232,31.977738 C 43.949091,31.448426 43.853521,30.889706 43.853521,30.301581 C 43.853521,29.747763 43.953992,29.208648 44.154935,28.684237 C 44.355878,28.159826 44.640138,27.699127 45.007717,27.302143 C 45.375295,26.905159 45.813938,26.593942 46.323647,26.368495 C 46.833355,26.138145 47.379822,26.022971 47.963046,26.022971 C 48.712905,26.022971 49.376997,26.211661 49.955319,26.589041 C 50.533643,26.966421 50.979638,27.461426 51.293305,28.074058 C 51.611872,28.686688 51.771156,29.343427 51.771156,30.044276 C 51.771156,30.446163 51.680486,30.720621 51.499148,30.867652 C 51.317810,31.014684 51.026197,31.088198 50.624311,31.088198 z M 46.382459,29.456151 L 49.418655,29.456151 C 49.418655,29.269912 49.352492,29.064068 49.220163,28.838620 C 49.087835,28.608271 48.906497,28.417130 48.676147,28.265198 C 48.450700,28.108364 48.193394,28.029947 47.904233,28.029947 C 47.615072,28.029947 47.352866,28.108364 47.117616,28.265198 C 46.887267,28.422031 46.705929,28.613172 46.573600,28.838620 C 46.446172,29.059167 46.382459,29.265010 46.382459,29.456151 z M 36.884238,30.301581 C 36.884238,29.522315 37.050873,28.804313 37.384144,28.147572 C 37.717415,27.485933 38.183015,26.966421 38.780941,26.589041 C 39.383770,26.211661 40.069916,26.022971 40.839379,26.022971 C 41.246166,26.022971 41.665205,26.071981 42.096497,26.170001 C 42.527788,26.263122 42.890466,26.424856 43.184529,26.655205 C 43.478591,26.885554 43.625622,27.196771 43.625622,27.588854 C 43.625622,27.902521 43.532503,28.164726 43.346263,28.375471 C 43.164925,28.586217 42.937026,28.691589 42.662567,28.691589 C 42.530240,28.691589 42.400362,28.669534 42.272934,28.625425 C 42.150408,28.581315 42.025432,28.534755 41.898004,28.485745 C 41.775479,28.431834 41.643150,28.387725 41.501020,28.353417 C 41.363791,28.319109 41.189804,28.301955 40.979059,28.301955 C 40.596778,28.301955 40.273309,28.392625 40.008653,28.573964 C 39.748898,28.750401 39.552856,28.990552 39.420528,29.294417 C 39.293100,29.593380 39.229387,29.929102 39.229387,30.301581 C 39.229387,30.664259 39.293100,31.002430 39.420528,31.316097 C 39.547954,31.624863 39.731744,31.869915 39.971895,32.051253 C 40.216948,32.232593 40.506108,32.323261 40.839379,32.323261 C 41.216760,32.323261 41.596591,32.252197 41.978872,32.110066 C 42.361154,31.967936 42.589052,31.896871 42.662567,31.896871 C 42.839005,31.896871 43.000740,31.948331 43.147771,32.051253 C 43.294803,32.154176 43.409976,32.288955 43.493295,32.455590 C 43.581513,32.617324 43.625622,32.783960 43.625622,32.955497 C 43.625622,33.318173 43.466338,33.624489 43.147771,33.874441 C 42.834104,34.124395 42.459174,34.305733 42.022982,34.418457 C 41.586788,34.536082 41.192254,34.594895 40.839379,34.594895 C 40.256156,34.594895 39.721941,34.487072 39.236739,34.271426 C 38.756436,34.055781 38.337398,33.749465 37.979620,33.352481 C 37.621845,32.950595 37.349837,32.489897 37.163598,31.970386 C 36.977357,31.445975 36.884238,30.889706 36.884238,30.301581 z M 31.899877,33.205449 L 31.899877,27.397713 C 31.899877,27.049739 32.007700,26.760578 32.223346,26.530229 C 32.443893,26.294979 32.725702,26.177354 33.068776,26.177354 C 33.353036,26.177354 33.598089,26.253320 33.803932,26.405252 C 34.014677,26.552283 34.161709,26.726271 34.245026,26.927213 C 34.749834,26.324384 35.291399,26.022971 35.869722,26.022971 C 36.188290,26.022971 36.467649,26.138145 36.707801,26.368495 C 36.952852,26.593942 37.075378,26.885554 37.075378,27.243330 C 37.075378,27.610909 36.960204,27.878016 36.729855,28.044651 C 36.504407,28.211287 36.129477,28.370571 35.605065,28.522502 C 35.070852,28.674435 34.710626,28.865576 34.524386,29.095925 C 34.338147,29.321372 34.245026,29.728159 34.245026,30.316284 L 34.245026,33.205449 C 34.245026,33.553423 34.134752,33.847486 33.914206,34.087637 C 33.698560,34.322887 33.416750,34.440512 33.068776,34.440512 C 32.725702,34.440512 32.443893,34.322887 32.223346,34.087637 C 32.007700,33.847486 31.899877,33.553423 31.899877,33.205449 z M 30.811846,27.397713 L 30.811846,31.433722 C 30.811846,32.139472 30.650112,32.727598 30.326642,33.198098 C 30.003174,33.668598 29.566980,34.019023 29.018064,34.249372 C 28.469147,34.479720 27.851616,34.594895 27.165470,34.594895 C 26.479324,34.594895 25.861792,34.479720 25.312875,34.249372 C 24.768860,34.019023 24.335117,33.668598 24.011649,33.198098 C 23.688179,32.727598 23.526445,32.139472 23.526445,31.433722 L 23.526445,27.397713 C 23.526445,27.049739 23.634269,26.760578 23.849915,26.530229 C 24.070461,26.294979 24.352271,26.177354 24.695344,26.177354 C 25.043319,26.177354 25.325128,26.294979 25.540774,26.530229 C 25.761321,26.760578 25.871595,27.049739 25.871595,27.397713 L 25.871595,31.102902 C 25.871595,31.514589 26.001471,31.835607 26.261228,32.065956 C 26.525883,32.296306 26.827298,32.411480 27.165470,32.411480 C 27.498741,32.411480 27.797704,32.296306 28.062361,32.065956 C 28.327017,31.830706 28.459345,31.509689 28.459345,31.102902 L 28.459345,27.397713 C 28.459345,27.054641 28.569618,26.765479 28.790166,26.530229 C 29.010712,26.294979 29.292522,26.177354 29.635596,26.177354 C 29.978668,26.177354 30.260479,26.294979 30.481025,26.530229 C 30.701572,26.760578 30.811846,27.049739 30.811846,27.397713 z M 18.792038,26.022971 C 19.380163,26.022971 19.916827,26.133245 20.402031,26.353791 C 20.892135,26.569437 21.311174,26.873301 21.659148,27.265385 C 22.012023,27.657468 22.281581,28.110814 22.467820,28.625425 C 22.658961,29.135133 22.754531,29.693852 22.754531,30.301581 C 22.754531,31.090649 22.587895,31.816003 22.254624,32.477644 C 21.926255,33.134384 21.460656,33.651444 20.857827,34.028824 C 20.254999,34.406205 19.566402,34.594895 18.792038,34.594895 C 18.208814,34.594895 17.674600,34.487072 17.189397,34.271426 C 16.709094,34.055781 16.290055,33.749465 15.932279,33.352481 C 15.574504,32.950595 15.302496,32.489897 15.116255,31.970386 C 14.930016,31.445975 14.836896,30.889706 14.836896,30.301581 C 14.836896,29.522315 15.003531,28.804313 15.336802,28.147572 C 15.670073,27.485933 16.135672,26.966421 16.733600,26.589041 C 17.336428,26.211661 18.022574,26.022971 18.792038,26.022971 z M 18.792038,28.301955 C 18.292131,28.301955 17.897597,28.493096 17.608436,28.875377 C 17.324176,29.257659 17.182046,29.733060 17.182046,30.301581 C 17.182046,30.664259 17.245759,31.002430 17.373185,31.316097 C 17.500613,31.624863 17.684402,31.869915 17.924553,32.051253 C 18.169605,32.232593 18.458767,32.323261 18.792038,32.323261 C 19.296845,32.323261 19.691380,32.132121 19.975640,31.749839 C 20.259901,31.362657 20.402031,30.879905 20.402031,30.301581 C 20.402031,29.728159 20.259901,29.252758 19.975640,28.875377 C 19.691380,28.493096 19.296845,28.301955 18.792038,28.301955 z M 8.3307607,32.955497 C 8.3307607,32.622226 8.4238806,32.347767 8.6101202,32.132121 C 8.8012608,31.916475 9.0316099,31.808652 9.3011672,31.808652 C 9.4629017,31.808652 9.6172845,31.838059 9.7643158,31.896871 C 9.9113470,31.950782 10.107390,32.039001 10.352442,32.161527 C 10.602395,32.279152 10.808239,32.364920 10.969973,32.418832 C 11.131708,32.472743 11.327749,32.499699 11.558098,32.499699 C 11.783546,32.499699 11.950182,32.455590 12.058005,32.367371 C 12.165828,32.274251 12.219739,32.159077 12.219739,32.021847 C 12.219739,31.899322 12.185432,31.798850 12.116817,31.720434 C 12.048203,31.642017 11.957533,31.578303 11.844809,31.529293 C 11.732085,31.475381 11.572801,31.409217 11.366958,31.330801 C 11.161114,31.252384 10.837645,31.124956 10.396551,30.948519 C 9.9358523,30.752477 9.5805267,30.568688 9.3305735,30.397152 C 9.0806204,30.220714 8.8870291,29.997717 8.7497999,29.728159 C 8.6125707,29.453701 8.5439561,29.113079 8.5439561,28.706292 C 8.5439561,28.245593 8.6664821,27.809401 8.9115343,27.397713 C 9.1614875,26.986026 9.5168131,26.655205 9.9775112,26.405252 C 10.443111,26.150397 10.974874,26.022971 11.572801,26.022971 C 11.827656,26.022971 12.111916,26.054828 12.425583,26.118541 C 12.739250,26.177354 13.035763,26.277825 13.315122,26.419955 C 13.599383,26.557184 13.829732,26.733622 14.006170,26.949268 C 14.187508,27.164914 14.278177,27.419768 14.278177,27.713830 C 14.278177,27.904971 14.234068,28.078959 14.145849,28.235792 C 14.062531,28.387725 13.944906,28.505350 13.792974,28.588667 C 13.645942,28.667084 13.481758,28.706292 13.300420,28.706292 C 13.202399,28.706292 13.094575,28.684237 12.976950,28.640127 C 12.864226,28.596018 12.702492,28.524954 12.491747,28.426933 C 12.285903,28.328912 12.097213,28.252946 11.925677,28.199034 C 11.754140,28.145122 11.585054,28.118167 11.418419,28.118167 C 11.246882,28.118167 11.099851,28.159826 10.977325,28.243143 C 10.859700,28.326460 10.800887,28.451438 10.800887,28.618073 C 10.800887,28.809214 10.992028,28.985651 11.374309,29.147385 C 11.756591,29.304219 12.200135,29.485558 12.704942,29.691401 C 13.214651,29.897246 13.636141,30.174155 13.969412,30.522128 C 14.307584,30.870102 14.476670,31.338152 14.476670,31.926277 C 14.476670,32.465392 14.341891,32.938343 14.072334,33.345128 C 13.802776,33.747015 13.435197,34.055781 12.969599,34.271426 C 12.508900,34.487072 12.006544,34.594895 11.462528,34.594895 C 10.663658,34.594895 9.9407533,34.445414 9.2938156,34.146449 C 8.6517791,33.842585 8.3307607,33.445601 8.3307607,32.955497 z "
     id="path837" />
  <metadata
     id="metadata14">
    <rdf:RDF
       id="RDF15">
      <cc:Work
         rdf:about=""
         id="Work16">
        <dc:title
           id="title17">Part of the Flat Icon Collection (Thu Aug 26 14:40:35 2004)</dc:title>
        <dc:description
           id="description19" />
        <dc:subject
           id="subject20">
          <rdf:Bag
             id="Bag21">
            <rdf:li
               id="li22" />
          </rdf:Bag>
        </dc:subject>
        <dc:publisher
           id="publisher23">
          <cc:Agent
             rdf:about=""
             id="Agent24">
            <dc:title
               id="title25" />
          </cc:Agent>
        </dc:publisher>
        <dc:creator
           id="creator26">
          <cc:Agent
             rdf:about=""
             id="Agent27">
            <dc:title
               id="title28">Danny Allen</dc:title>
          </cc:Agent>
        </dc:creator>
        <dc:rights
           id="rights30">
          <cc:Agent
             rdf:about=""
             id="Agent31">
            <dc:title
               id="title32">Danny Allen</dc:title>
          </cc:Agent>
        </dc:rights>
        <dc:date
           id="date34" />
        <dc:format
           id="format35">image/svg+xml</dc:format>
        <dc:type
           rdf:resource="http://purl.org/dc/dcmitype/StillImage"
           id="type37" />
        <cc:license
           rdf:resource="http://creativecommons.org/licenses/LGPL/2.1/"
           id="license38">
          <dc:date
             id="date39" />
        </cc:license>
        <dc:language
           id="language40">en</dc:language>
      </cc:Work>
    </rdf:RDF>
  </metadata>
</svg>
