<?xml version="1.0" encoding="UTF-8" standalone="no"?>
<!DOCTYPE svg PUBLIC "-//W3C//DTD SVG 20010904//EN"
"http://www.w3.org/TR/2001/REC-SVG-20010904/DTD/svg10.dtd">
<svg
   sodipodi:docname="source_cpp.svg"
   height="60.0000000"
   sodipodi:version="0.32"
   width="60.0000000"
   _SVGFile__filename="scalable/mimetypes/source_cpp.svg"
   version="1.0"
   y="0"
   x="0"
   inkscape:version="0.39"
   id="svg1"
   sodipodi:docbase="/home/danny/work/flat/newscale/mimetypes"
   xmlns="http://www.w3.org/2000/svg"
   xmlns:cc="http://web.resource.org/cc/"
   xmlns:inkscape="http://www.inkscape.org/namespaces/inkscape"
   xmlns:sodipodi="http://sodipodi.sourceforge.net/DTD/sodipodi-0.dtd"
   xmlns:rdf="http://www.w3.org/1999/02/22-rdf-syntax-ns#"
   xmlns:dc="http://purl.org/dc/elements/1.1/"
   xmlns:xlink="http://www.w3.org/1999/xlink">
  <sodipodi:namedview
     bordercolor="#666666"
     inkscape:pageshadow="2"
     inkscape:window-y="0"
     snaptoguides="true"
     pagecolor="#ffffff"
     inkscape:window-height="685"
     inkscape:zoom="6.9465337"
     inkscape:window-x="0"
     borderopacity="1.0"
     inkscape:cx="37.697540"
     inkscape:cy="36.490183"
     inkscape:window-width="1016"
     inkscape:pageopacity="0.0"
     id="base"
     showguides="true" />
  <defs
     id="defs3">
    <linearGradient
       id="linearGradient900">
      <stop
         style="stop-color:#000;stop-opacity:1;"
         id="stop901"
         offset="0" />
      <stop
         style="stop-color:#fff;stop-opacity:1;"
         id="stop902"
         offset="1" />
    </linearGradient>
    <linearGradient
       xlink:href="#linearGradient900"
       id="linearGradient903" />
    <linearGradient
       xlink:href="#linearGradient900"
       id="linearGradient904" />
    <linearGradient
       xlink:href="#linearGradient900"
       id="linearGradient905" />
    <linearGradient
       xlink:href="#linearGradient900"
       id="linearGradient906" />
    <linearGradient
       xlink:href="#linearGradient900"
       id="linearGradient907" />
  </defs>
  <path
     style="font-size:12.000000;fill:#b3b3b3;fill-opacity:1.0000000;fill-rule:evenodd;stroke:#333333;stroke-width:3.1250000;stroke-opacity:1.0000000;stroke-linejoin:round;stroke-linecap:round;"
     d="M 6.6785922,5.1165123 C 5.5705922,5.1165123 4.6785922,6.0085123 4.6785922,7.1165123 L 4.6785922,53.501354 C 4.6785922,54.609354 5.5705922,55.501354 6.6785922,55.501354 L 53.423324,55.501354 C 54.531324,55.501354 55.423324,54.609354 55.423324,53.501354 L 55.423324,7.1165123 C 55.423324,6.0085123 54.531324,5.1165123 53.423324,5.1165123 L 6.6785922,5.1165123 z "
     id="rect812" />
  <g
     id="g1564"
     transform="translate(0.000000,-0.390177)">
    <path
       id="path840"
       style="font-size:12.000000;font-weight:900;fill:#333333;stroke-width:1.0000000pt;font-family:VAG Rounded Black SSi;"
       d="M 42.521833,30.522832 L 42.521833,35.516124 L 44.721847,35.516124 C 45.273911,35.516124 45.755938,35.400769 46.167924,35.170056 C 46.579913,34.939342 46.893023,34.634472 47.107258,34.255442 C 47.321491,33.876414 47.428607,33.468545 47.428607,33.031838 C 47.428607,32.240821 47.181415,31.626959 46.687030,31.190252 C 46.192644,30.745306 45.537583,30.522832 44.721847,30.522832 L 42.521833,30.522832 z M 38.418432,43.006066 L 38.418432,28.928439 C 38.418432,28.293978 38.620306,27.791352 39.024054,27.420563 C 39.436043,27.041534 39.918069,26.852020 40.470132,26.852020 L 45.500505,26.852020 C 46.571672,26.852020 47.581043,27.090973 48.528616,27.568879 C 49.484428,28.038545 50.246605,28.743044 50.815148,29.682376 C 51.391932,30.613470 51.680322,31.729958 51.680322,33.031838 C 51.680322,34.226603 51.445489,35.293652 50.975823,36.232984 C 50.506158,37.164076 49.818138,37.893296 48.911763,38.420641 C 48.005391,38.947985 46.913623,39.211658 45.636460,39.211658 L 42.521833,39.211658 L 42.521833,43.006066 C 42.521833,43.722923 42.332318,44.270868 41.953288,44.649898 C 41.582499,45.020686 41.088114,45.206080 40.470132,45.206080 C 39.868630,45.206080 39.374244,45.016567 38.986975,44.637537 C 38.607947,44.250268 38.418432,43.706445 38.418432,43.006066 z M 27.986900,30.522832 L 27.986900,35.516124 L 30.186914,35.516124 C 30.738978,35.516124 31.221005,35.400769 31.632992,35.170056 C 32.044981,34.939342 32.358090,34.634472 32.572325,34.255442 C 32.786558,33.876414 32.893674,33.468545 32.893674,33.031838 C 32.893674,32.240821 32.646482,31.626959 32.152097,31.190252 C 31.657711,30.745306 31.002650,30.522832 30.186914,30.522832 L 27.986900,30.522832 z M 23.883500,43.006066 L 23.883500,28.928439 C 23.883500,28.293978 24.085374,27.791352 24.489121,27.420563 C 24.901110,27.041534 25.383137,26.852020 25.935199,26.852020 L 30.965572,26.852020 C 32.036739,26.852020 33.046110,27.090973 33.993683,27.568879 C 34.949495,28.038545 35.711672,28.743044 36.280215,29.682376 C 36.856999,30.613470 37.145389,31.729958 37.145389,33.031838 C 37.145389,34.226603 36.910556,35.293652 36.440891,36.232984 C 35.971225,37.164076 35.283205,37.893296 34.376830,38.420641 C 33.470458,38.947985 32.378691,39.211658 31.101528,39.211658 L 27.986900,39.211658 L 27.986900,43.006066 C 27.986900,43.722923 27.797385,44.270868 27.418355,44.649898 C 27.047567,45.020686 26.553181,45.206080 25.935199,45.206080 C 25.333697,45.206080 24.839312,45.016567 24.452042,44.637537 C 24.073015,44.250268 23.883500,43.706445 23.883500,43.006066 z M 8.4215944,35.948714 C 8.4215944,34.589152 8.6317075,33.324350 9.0519356,32.154303 C 9.4804030,30.976019 10.086024,29.966648 10.868802,29.126193 C 11.651579,28.277498 12.595033,27.622437 13.699159,27.161011 C 14.811527,26.691344 16.031011,26.456511 17.357612,26.456511 C 18.832529,26.456511 20.105570,26.687225 21.176740,27.148651 C 22.256148,27.610078 22.795852,28.339296 22.795852,29.336307 C 22.795852,29.855412 22.626937,30.316839 22.289107,30.720586 C 21.959517,31.116095 21.539289,31.313849 21.028423,31.313849 C 20.772992,31.313849 20.356883,31.206733 19.780101,30.992498 C 19.211556,30.778265 18.795450,30.629949 18.531778,30.547552 C 18.268106,30.465153 17.909676,30.423955 17.456489,30.423955 C 16.410039,30.423955 15.536626,30.679388 14.836247,31.190252 C 14.144107,31.692877 13.633241,32.368538 13.303651,33.217234 C 12.982300,34.065927 12.821624,34.976421 12.821624,35.948714 C 12.821624,37.473068 13.196534,38.754351 13.946353,39.792559 C 14.696169,40.822528 15.746739,41.337514 17.098059,41.337514 C 17.814918,41.337514 18.379341,41.283955 18.791330,41.176839 C 19.203317,41.069722 19.631785,40.925527 20.076733,40.744251 C 20.521679,40.562978 20.871869,40.472340 21.127300,40.472340 C 21.621685,40.472340 22.004835,40.587696 22.276746,40.818409 C 22.548660,41.040883 22.729934,41.300435 22.820571,41.597067 C 22.911209,41.893698 22.956527,42.161490 22.956527,42.400442 C 22.956527,43.100823 22.659896,43.681725 22.066633,44.143151 C 21.473371,44.604578 20.735913,44.938288 19.854259,45.144283 C 18.972604,45.358516 18.115669,45.465632 17.283454,45.465632 C 15.445988,45.465632 13.855715,45.045406 12.512634,44.204950 C 11.177794,43.356254 10.160184,42.210929 9.4598029,40.768971 C 8.7676632,39.318774 8.4215944,37.712021 8.4215944,35.948714 z " />
    <path
       id="path841"
       style="font-size:12.000000;font-weight:900;fill:#333333;stroke-width:1.0000000pt;font-family:VAG Rounded Black SSi;"
       d="M 50.624312,20.997817 L 46.382458,20.997817 C 46.382458,21.316385 46.529490,21.617799 46.823553,21.902059 C 47.117615,22.181419 47.597917,22.321099 48.264459,22.321099 C 48.607532,22.321099 48.891792,22.276989 49.117241,22.188770 C 49.342688,22.100552 49.619598,21.975575 49.947967,21.813841 C 50.281238,21.647205 50.521390,21.563887 50.668421,21.563887 C 50.942879,21.563887 51.175679,21.659458 51.366820,21.850598 C 51.557960,22.041739 51.653530,22.289242 51.653530,22.593106 C 51.653530,22.955784 51.472192,23.286604 51.109515,23.585568 C 50.751738,23.879630 50.288590,24.105078 49.720069,24.261912 C 49.151548,24.423646 48.565874,24.504513 47.963045,24.504513 C 47.340612,24.504513 46.776993,24.396690 46.272186,24.181044 C 45.772279,23.965398 45.338536,23.661534 44.970958,23.269450 C 44.608281,22.872466 44.331373,22.411768 44.140232,21.887356 C 43.949091,21.358044 43.853520,20.799325 43.853520,20.211200 C 43.853520,19.657382 43.953993,19.118267 44.154935,18.593855 C 44.355877,18.069444 44.640139,17.608746 45.007716,17.211761 C 45.375294,16.814777 45.813937,16.503560 46.323646,16.278113 C 46.833354,16.047764 47.379821,15.932589 47.963045,15.932589 C 48.712904,15.932589 49.376996,16.121279 49.955320,16.498660 C 50.533642,16.876040 50.979637,17.371045 51.293304,17.983675 C 51.611871,18.596306 51.771155,19.253046 51.771155,19.953895 C 51.771155,20.355780 51.680487,20.630239 51.499147,20.777270 C 51.317809,20.924301 51.026197,20.997817 50.624312,20.997817 z M 46.382458,19.365770 L 49.418655,19.365770 C 49.418655,19.179530 49.352491,18.973686 49.220162,18.748238 C 49.087834,18.517889 48.906496,18.326748 48.676146,18.174816 C 48.450699,18.017983 48.193394,17.939566 47.904233,17.939566 C 47.615071,17.939566 47.352865,18.017983 47.117615,18.174816 C 46.887266,18.331650 46.705928,18.522790 46.573599,18.748238 C 46.446173,18.968785 46.382458,19.174629 46.382458,19.365770 z M 36.884238,20.211200 C 36.884238,19.431934 37.050872,18.713931 37.384143,18.057191 C 37.717414,17.395550 38.183014,16.876040 38.780942,16.498660 C 39.383769,16.121279 40.069915,15.932589 40.839380,15.932589 C 41.246165,15.932589 41.665205,15.981599 42.096497,16.079620 C 42.527789,16.172740 42.890465,16.334475 43.184528,16.564824 C 43.478590,16.795173 43.625622,17.106389 43.625622,17.498472 C 43.625622,17.812139 43.532502,18.074345 43.346263,18.285090 C 43.164924,18.495835 42.937026,18.601207 42.662568,18.601207 C 42.530239,18.601207 42.400361,18.579152 42.272935,18.535043 C 42.150409,18.490933 42.025431,18.444374 41.898005,18.395363 C 41.775478,18.341452 41.643151,18.297342 41.501019,18.263035 C 41.363790,18.228728 41.189804,18.211574 40.979059,18.211574 C 40.596777,18.211574 40.273309,18.302243 40.008652,18.483582 C 39.748897,18.660019 39.552855,18.900171 39.420527,19.204035 C 39.293100,19.502999 39.229387,19.838720 39.229387,20.211200 C 39.229387,20.573877 39.293100,20.912049 39.420527,21.225715 C 39.547955,21.534481 39.731743,21.779533 39.971894,21.960872 C 40.216947,22.142211 40.506109,22.232880 40.839380,22.232880 C 41.216760,22.232880 41.596590,22.161815 41.978872,22.019684 C 42.361153,21.877554 42.589052,21.806489 42.662568,21.806489 C 42.839005,21.806489 43.000739,21.857950 43.147770,21.960872 C 43.294802,22.063794 43.409976,22.198572 43.493294,22.365208 C 43.581513,22.526942 43.625622,22.693578 43.625622,22.865114 C 43.625622,23.227791 43.466339,23.534107 43.147770,23.784060 C 42.834103,24.034013 42.459174,24.215352 42.022981,24.328076 C 41.586788,24.445701 41.192255,24.504513 40.839380,24.504513 C 40.256155,24.504513 39.721942,24.396690 39.236738,24.181044 C 38.756435,23.965398 38.337397,23.659083 37.979621,23.262099 C 37.621845,22.860213 37.349837,22.399515 37.163597,21.880005 C 36.977358,21.355593 36.884238,20.799325 36.884238,20.211200 z M 31.899877,23.115068 L 31.899877,17.307332 C 31.899877,16.959358 32.007700,16.670196 32.223345,16.439847 C 32.443892,16.204597 32.725703,16.086972 33.068775,16.086972 C 33.353036,16.086972 33.598088,16.162938 33.803932,16.314870 C 34.014677,16.461902 34.161708,16.635889 34.245026,16.836831 C 34.749833,16.234003 35.291399,15.932589 35.869721,15.932589 C 36.188289,15.932589 36.467649,16.047764 36.707800,16.278113 C 36.952852,16.503560 37.075379,16.795173 37.075379,17.152949 C 37.075379,17.520527 36.960204,17.787634 36.729855,17.954269 C 36.504407,18.120905 36.129476,18.280189 35.605066,18.432121 C 35.070851,18.584053 34.710625,18.775194 34.524386,19.005543 C 34.338146,19.230991 34.245026,19.637777 34.245026,20.225903 L 34.245026,23.115068 C 34.245026,23.463042 34.134753,23.757104 33.914205,23.997255 C 33.698559,24.232505 33.416750,24.350130 33.068775,24.350130 C 32.725703,24.350130 32.443892,24.232505 32.223345,23.997255 C 32.007700,23.757104 31.899877,23.463042 31.899877,23.115068 z M 30.811845,17.307332 L 30.811845,21.343340 C 30.811845,22.049091 30.650111,22.637216 30.326641,23.107716 C 30.003173,23.578216 29.566981,23.928641 29.018064,24.158990 C 28.469147,24.389339 27.851615,24.504513 27.165469,24.504513 C 26.479323,24.504513 25.861792,24.389339 25.312875,24.158990 C 24.768859,23.928641 24.335117,23.578216 24.011648,23.107716 C 23.688180,22.637216 23.526445,22.049091 23.526445,21.343340 L 23.526445,17.307332 C 23.526445,16.959358 23.634268,16.670196 23.849914,16.439847 C 24.070460,16.204597 24.352271,16.086972 24.695343,16.086972 C 25.043318,16.086972 25.325127,16.204597 25.540773,16.439847 C 25.761321,16.670196 25.871594,16.959358 25.871594,17.307332 L 25.871594,21.012520 C 25.871594,21.424208 26.001472,21.745226 26.261227,21.975575 C 26.525884,22.205924 26.827297,22.321099 27.165469,22.321099 C 27.498740,22.321099 27.797703,22.205924 28.062360,21.975575 C 28.327016,21.740325 28.459344,21.419307 28.459344,21.012520 L 28.459344,17.307332 C 28.459344,16.964259 28.569618,16.675097 28.790165,16.439847 C 29.010712,16.204597 29.292522,16.086972 29.635595,16.086972 C 29.978668,16.086972 30.260478,16.204597 30.481025,16.439847 C 30.701572,16.670196 30.811845,16.959358 30.811845,17.307332 z M 18.792037,15.932589 C 19.380162,15.932589 19.916826,16.042862 20.402030,16.263409 C 20.892134,16.479055 21.311174,16.782920 21.659147,17.175003 C 22.012022,17.567087 22.281580,18.020433 22.467820,18.535043 C 22.658960,19.044751 22.754530,19.603470 22.754530,20.211200 C 22.754530,21.000267 22.587896,21.725622 22.254625,22.387263 C 21.926254,23.044002 21.460655,23.561062 20.857826,23.938443 C 20.254999,24.315823 19.566403,24.504513 18.792037,24.504513 C 18.208813,24.504513 17.674600,24.396690 17.189396,24.181044 C 16.709094,23.965398 16.290054,23.659083 15.932279,23.262099 C 15.574503,22.860213 15.302495,22.399515 15.116256,21.880005 C 14.930015,21.355593 14.836895,20.799325 14.836895,20.211200 C 14.836895,19.431934 15.003531,18.713931 15.336802,18.057191 C 15.670073,17.395550 16.135673,16.876040 16.733599,16.498660 C 17.336428,16.121279 18.022574,15.932589 18.792037,15.932589 z M 18.792037,18.211574 C 18.292132,18.211574 17.897597,18.402715 17.608436,18.784996 C 17.324175,19.167277 17.182045,19.642679 17.182045,20.211200 C 17.182045,20.573877 17.245758,20.912049 17.373186,21.225715 C 17.500612,21.534481 17.684402,21.779533 17.924553,21.960872 C 18.169605,22.142211 18.458766,22.232880 18.792037,22.232880 C 19.296845,22.232880 19.691379,22.041739 19.975639,21.659458 C 20.259900,21.272275 20.402030,20.789523 20.402030,20.211200 C 20.402030,19.637777 20.259900,19.162376 19.975639,18.784996 C 19.691379,18.402715 19.296845,18.211574 18.792037,18.211574 z M 8.3307612,22.865114 C 8.3307612,22.531843 8.4238810,22.257385 8.6101207,22.041739 C 8.8012613,21.826093 9.0316104,21.718270 9.3011677,21.718270 C 9.4629021,21.718270 9.6172850,21.747676 9.7643163,21.806489 C 9.9113476,21.860401 10.107389,21.948619 10.352441,22.071145 C 10.602394,22.188770 10.808239,22.274539 10.969973,22.328450 C 11.131707,22.382362 11.327749,22.409317 11.558098,22.409317 C 11.783547,22.409317 11.950181,22.365208 12.058005,22.276989 C 12.165827,22.183869 12.219739,22.068695 12.219739,21.931466 C 12.219739,21.808940 12.185431,21.708468 12.116817,21.630051 C 12.048202,21.551635 11.957532,21.487921 11.844809,21.438911 C 11.732085,21.384999 11.572801,21.318835 11.366957,21.240419 C 11.161114,21.162002 10.837644,21.034575 10.396551,20.858137 C 9.9358528,20.662096 9.5805272,20.478306 9.3305739,20.306770 C 9.0806208,20.130332 8.8870296,19.907335 8.7498004,19.637777 C 8.6125712,19.363319 8.5439566,19.022697 8.5439566,18.615910 C 8.5439566,18.155212 8.6664827,17.719019 8.9115348,17.307332 C 9.1614880,16.895644 9.5168136,16.564824 9.9775116,16.314870 C 10.443110,16.060016 10.974873,15.932589 11.572801,15.932589 C 11.827656,15.932589 12.111915,15.964446 12.425582,16.028159 C 12.739249,16.086972 13.035762,16.187443 13.315122,16.329574 C 13.599382,16.466803 13.829731,16.643240 14.006169,16.858886 C 14.187507,17.074532 14.278177,17.329386 14.278177,17.623449 C 14.278177,17.814590 14.234068,17.988577 14.145849,18.145410 C 14.062531,18.297342 13.944906,18.414967 13.792974,18.498285 C 13.645943,18.576702 13.481757,18.615910 13.300419,18.615910 C 13.202398,18.615910 13.094574,18.593855 12.976949,18.549746 C 12.864226,18.505637 12.702491,18.434571 12.491747,18.336551 C 12.285903,18.238530 12.097213,18.162564 11.925676,18.108652 C 11.754140,18.054741 11.585053,18.027785 11.418418,18.027785 C 11.246882,18.027785 11.099851,18.069444 10.977324,18.152762 C 10.859699,18.236079 10.800886,18.361056 10.800886,18.527691 C 10.800886,18.718832 10.992027,18.895269 11.374309,19.057004 C 11.756590,19.213837 12.200135,19.395176 12.704943,19.601020 C 13.214651,19.806863 13.636140,20.083772 13.969411,20.431746 C 14.307583,20.779721 14.476669,21.247770 14.476669,21.835895 C 14.476669,22.375010 14.341890,22.847961 14.072333,23.254747 C 13.802776,23.656633 13.435198,23.965398 12.969598,24.181044 C 12.508901,24.396690 12.006544,24.504513 11.462527,24.504513 C 10.663657,24.504513 9.9407539,24.355031 9.2938162,24.056068 C 8.6517795,23.752203 8.3307612,23.355219 8.3307612,22.865114 z " />
  </g>
  <metadata
     id="metadata15">
    <rdf:RDF
       id="RDF16">
      <cc:Work
         rdf:about=""
         id="Work17">
        <dc:title
           id="title18">Part of the Flat Icon Collection (Thu Aug 26 14:40:35 2004)</dc:title>
        <dc:description
           id="description20" />
        <dc:subject
           id="subject21">
          <rdf:Bag
             id="Bag22">
            <rdf:li
               id="li23" />
          </rdf:Bag>
        </dc:subject>
        <dc:publisher
           id="publisher24">
          <cc:Agent
             rdf:about=""
             id="Agent25">
            <dc:title
               id="title26" />
          </cc:Agent>
        </dc:publisher>
        <dc:creator
           id="creator27">
          <cc:Agent
             rdf:about=""
             id="Agent28">
            <dc:title
               id="title29">Danny Allen</dc:title>
          </cc:Agent>
        </dc:creator>
        <dc:rights
           id="rights31">
          <cc:Agent
             rdf:about=""
             id="Agent32">
            <dc:title
               id="title33">Danny Allen</dc:title>
          </cc:Agent>
        </dc:rights>
        <dc:date
           id="date35" />
        <dc:format
           id="format36">image/svg+xml</dc:format>
        <dc:type
           rdf:resource="http://purl.org/dc/dcmitype/StillImage"
           id="type38" />
        <cc:license
           rdf:resource="http://creativecommons.org/licenses/LGPL/2.1/"
           id="license39">
          <dc:date
             id="date40" />
        </cc:license>
        <dc:language
           id="language41">en</dc:language>
      </cc:Work>
    </rdf:RDF>
  </metadata>
</svg>
