<?xml version="1.0" encoding="UTF-8" standalone="no"?>
<!DOCTYPE svg PUBLIC "-//W3C//DTD SVG 20010904//EN"
"http://www.w3.org/TR/2001/REC-SVG-20010904/DTD/svg10.dtd">
<svg
   sodipodi:docname="source_mono.svg"
   height="60.0000000"
   sodipodi:version="0.32"
   width="60.0000000"
   _SVGFile__filename="scalable/mimetypes/source_mono.svg"
   version="1.0"
   y="0"
   x="0"
   inkscape:version="0.39"
   id="svg1"
   sodipodi:docbase="/home/danny/work/flat/newscale/mimetypes"
   xmlns="http://www.w3.org/2000/svg"
   xmlns:cc="http://web.resource.org/cc/"
   xmlns:inkscape="http://www.inkscape.org/namespaces/inkscape"
   xmlns:sodipodi="http://sodipodi.sourceforge.net/DTD/sodipodi-0.dtd"
   xmlns:rdf="http://www.w3.org/1999/02/22-rdf-syntax-ns#"
   xmlns:dc="http://purl.org/dc/elements/1.1/"
   xmlns:xlink="http://www.w3.org/1999/xlink">
  <sodipodi:namedview
     bordercolor="#666666"
     inkscape:pageshadow="2"
     inkscape:window-y="0"
     snaptoguides="true"
     pagecolor="#ffffff"
     inkscape:window-height="685"
     inkscape:zoom="6.9465337"
     inkscape:window-x="0"
     borderopacity="1.0"
     inkscape:cx="37.697540"
     inkscape:cy="36.490183"
     inkscape:window-width="1016"
     inkscape:pageopacity="0.0"
     id="base"
     showguides="true" />
  <defs
     id="defs3">
    <linearGradient
       id="linearGradient900">
      <stop
         style="stop-color:#000;stop-opacity:1;"
         id="stop901"
         offset="0" />
      <stop
         style="stop-color:#fff;stop-opacity:1;"
         id="stop902"
         offset="1" />
    </linearGradient>
    <linearGradient
       xlink:href="#linearGradient900"
       id="linearGradient903" />
    <linearGradient
       xlink:href="#linearGradient900"
       id="linearGradient904" />
    <linearGradient
       xlink:href="#linearGradient900"
       id="linearGradient905" />
    <linearGradient
       xlink:href="#linearGradient900"
       id="linearGradient906" />
    <linearGradient
       xlink:href="#linearGradient900"
       id="linearGradient907" />
  </defs>
  <path
     style="font-size:12.000000;fill:#b3b3b3;fill-opacity:1.0000000;fill-rule:evenodd;stroke:#333333;stroke-width:3.1250000;stroke-linecap:round;stroke-linejoin:round;stroke-opacity:1.0000000;"
     d="M 6.6785922,5.1165123 C 5.5705922,5.1165123 4.6785922,6.0085123 4.6785922,7.1165123 L 4.6785922,53.501354 C 4.6785922,54.609354 5.5705922,55.501354 6.6785922,55.501354 L 53.423324,55.501354 C 54.531324,55.501354 55.423324,54.609354 55.423324,53.501354 L 55.423324,7.1165123 C 55.423324,6.0085123 54.531324,5.1165123 53.423324,5.1165123 L 6.6785922,5.1165123 z "
     id="rect812" />
  <path
     id="path841"
     style="font-size:12.000000;font-weight:900;fill:#333333;stroke-width:1.0000000pt;font-family:VAG Rounded Black SSi;"
     d="M 34.813755,47.179494 L 35.486148,42.155211 L 34.047973,42.155211 C 33.412933,42.155211 32.945990,41.974662 32.647148,41.613562 C 32.348306,41.240008 32.198885,40.797970 32.198885,40.287449 C 32.198885,39.776928 32.348306,39.347342 32.647148,38.998692 C 32.945990,38.637592 33.412933,38.457041 34.047973,38.457041 L 35.990447,38.457041 L 36.606807,33.862344 L 35.149953,33.862344 C 34.527363,33.862344 34.066649,33.681793 33.767807,33.320693 C 33.468965,32.947142 33.319544,32.505104 33.319544,31.994580 C 33.319544,31.471607 33.468965,31.035796 33.767807,30.687147 C 34.066649,30.326046 34.527363,30.145496 35.149953,30.145496 L 37.167135,30.145496 L 37.988953,24.149976 C 38.076113,23.514937 38.275341,23.023092 38.586637,22.674443 C 38.910381,22.325794 39.420902,22.151470 40.118200,22.151470 C 40.616270,22.151470 41.027181,22.294665 41.350925,22.581055 C 41.674672,22.854994 41.836544,23.234772 41.836544,23.720391 C 41.836544,23.932071 41.786737,24.392785 41.687123,25.102535 L 40.996050,30.145496 L 44.451411,30.145496 L 45.254551,24.149976 C 45.341711,23.514937 45.540939,23.023092 45.852236,22.674443 C 46.175980,22.325794 46.686501,22.151470 47.383799,22.151470 C 47.881869,22.151470 48.292779,22.294665 48.616523,22.581055 C 48.940271,22.867445 49.102143,23.247224 49.102143,23.720391 C 49.102143,23.932071 49.052336,24.392785 48.952722,25.102535 L 48.261649,30.145496 L 49.718503,30.145496 C 50.365994,30.145496 50.832937,30.326046 51.119325,30.687147 C 51.418167,31.035796 51.567588,31.471607 51.567588,31.994580 C 51.567588,32.505104 51.418167,32.947142 51.119325,33.320693 C 50.820483,33.681793 50.353543,33.862344 49.718503,33.862344 L 47.776030,33.862344 L 47.159669,38.457041 L 48.616523,38.457041 C 49.264015,38.457041 49.730954,38.631367 50.017345,38.980016 C 50.303736,39.328665 50.446932,39.764474 50.446932,40.287449 C 50.446932,40.810421 50.297511,41.252459 49.998669,41.613562 C 49.712278,41.974662 49.251564,42.155211 48.616523,42.155211 L 46.580661,42.155211 L 45.777523,48.132053 C 45.690360,48.754642 45.491132,49.240261 45.179839,49.588910 C 44.868546,49.937559 44.358025,50.111882 43.648273,50.111882 C 43.150203,50.111882 42.733070,49.974912 42.396872,49.700975 C 42.073128,49.414584 41.911253,49.028579 41.911253,48.542963 C 41.911253,48.293928 41.967288,47.839439 42.079353,47.179494 L 42.770426,42.155211 L 39.315062,42.155211 L 38.511925,48.132053 C 38.424762,48.767093 38.219308,49.258938 37.895564,49.607587 C 37.584271,49.943785 37.073747,50.111882 36.363998,50.111882 C 35.878378,50.111882 35.467471,49.974912 35.131273,49.700975 C 34.807529,49.414584 34.645657,49.028579 34.645657,48.542963 C 34.645657,48.293928 34.701690,47.839439 34.813755,47.179494 z M 43.330754,38.457041 L 43.947115,33.862344 L 40.473078,33.862344 L 39.856714,38.457041 L 43.330754,38.457041 z M 8.5343282,36.122336 C 8.5343282,34.067798 8.8518477,32.156455 9.4868873,30.388305 C 10.134378,28.607704 11.049582,27.082364 12.232499,25.812285 C 13.415416,24.529755 14.841141,23.539840 16.509676,22.842542 C 18.190663,22.132792 20.033523,21.777917 22.038255,21.777917 C 24.267119,21.777917 26.190915,22.126566 27.809643,22.823864 C 29.440823,23.521162 30.256413,24.623143 30.256413,26.129805 C 30.256413,26.914265 30.001152,27.611564 29.490630,28.221700 C 28.992560,28.819384 28.357520,29.118226 27.585512,29.118226 C 27.199507,29.118226 26.570693,28.956353 25.699071,28.632607 C 24.839900,28.308862 24.211086,28.084730 23.812630,27.960213 C 23.414174,27.835695 22.872522,27.773437 22.187676,27.773437 C 20.606303,27.773437 19.286417,28.159441 18.228018,28.931449 C 17.182071,29.691007 16.410062,30.712050 15.911992,31.994580 C 15.426374,33.277111 15.183565,34.653031 15.183565,36.122336 C 15.183565,38.425913 15.750119,40.362158 16.883229,41.931081 C 18.016338,43.487549 19.603937,44.265785 21.646025,44.265785 C 22.729327,44.265785 23.582273,44.184848 24.204860,44.022976 C 24.827448,43.861104 25.474939,43.643196 26.147334,43.369259 C 26.819729,43.095319 27.348928,42.958352 27.734933,42.958352 C 28.482038,42.958352 29.061044,43.132675 29.471952,43.481324 C 29.882860,43.817522 30.156799,44.209753 30.293768,44.658016 C 30.430737,45.106279 30.499222,45.510961 30.499222,45.872061 C 30.499222,46.930459 30.050959,47.808309 29.154433,48.505607 C 28.257906,49.202905 27.143474,49.707201 25.811136,50.018494 C 24.478799,50.342241 23.183816,50.504113 21.926189,50.504113 C 19.149448,50.504113 16.746260,49.869073 14.716624,48.598995 C 12.699440,47.316464 11.161648,45.585669 10.103249,43.406615 C 9.0573019,41.215106 8.5343282,38.787013 8.5343282,36.122336 z " />
  <path
     id="path840"
     style="font-size:12.000000;font-weight:900;fill:#333333;stroke-width:1.0000000pt;font-family:VAG Rounded Black SSi;"
     d="M 50.624311,16.319225 L 46.382459,16.319225 C 46.382459,16.637793 46.529490,16.939206 46.823553,17.223468 C 47.117616,17.502827 47.597917,17.642506 48.264459,17.642506 C 48.607533,17.642506 48.891793,17.598397 49.117241,17.510179 C 49.342688,17.421960 49.619597,17.296984 49.947967,17.135248 C 50.281238,16.968613 50.521389,16.885296 50.668421,16.885296 C 50.942879,16.885296 51.175679,16.980866 51.366819,17.172006 C 51.557960,17.363147 51.653530,17.610650 51.653530,17.914514 C 51.653530,18.277192 51.472192,18.608013 51.109514,18.906976 C 50.751738,19.201039 50.288589,19.426486 49.720068,19.583319 C 49.151547,19.745055 48.565873,19.825922 47.963045,19.825922 C 47.340613,19.825922 46.776992,19.718098 46.272185,19.502452 C 45.772279,19.286806 45.338537,18.982942 44.970958,18.590859 C 44.608282,18.193873 44.331372,17.733176 44.140232,17.208764 C 43.949091,16.679452 43.853520,16.120733 43.853520,15.532608 C 43.853520,14.978789 43.953992,14.439675 44.154934,13.915263 C 44.355878,13.390851 44.640138,12.930154 45.007716,12.533169 C 45.375295,12.136185 45.813938,11.824969 46.323646,11.599521 C 46.833354,11.369172 47.379821,11.253997 47.963045,11.253997 C 48.712905,11.253997 49.376996,11.442687 49.955319,11.820068 C 50.533642,12.197448 50.979637,12.692454 51.293304,13.305084 C 51.611872,13.917714 51.771155,14.574454 51.771155,15.275303 C 51.771155,15.677188 51.680486,15.951647 51.499147,16.098679 C 51.317809,16.245709 51.026197,16.319225 50.624311,16.319225 z M 46.382459,14.687178 L 49.418655,14.687178 C 49.418655,14.500938 49.352491,14.295095 49.220163,14.069646 C 49.087834,13.839297 48.906496,13.648157 48.676147,13.496225 C 48.450699,13.339391 48.193393,13.260975 47.904233,13.260975 C 47.615071,13.260975 47.352866,13.339391 47.117616,13.496225 C 46.887266,13.653058 46.705928,13.844199 46.573600,14.069646 C 46.446172,14.290193 46.382459,14.496037 46.382459,14.687178 z M 36.884238,15.532608 C 36.884238,14.753342 37.050873,14.035339 37.384144,13.378600 C 37.717415,12.716958 38.183014,12.197448 38.780941,11.820068 C 39.383769,11.442687 40.069915,11.253997 40.839379,11.253997 C 41.246165,11.253997 41.665204,11.303008 42.096496,11.401028 C 42.527788,11.494148 42.890466,11.655883 43.184528,11.886232 C 43.478591,12.116581 43.625621,12.427797 43.625621,12.819880 C 43.625621,13.133547 43.532502,13.395753 43.346262,13.606497 C 43.164924,13.817242 42.937025,13.922616 42.662567,13.922616 C 42.530239,13.922616 42.400361,13.900560 42.272934,13.856451 C 42.150408,13.812342 42.025432,13.765782 41.898004,13.716771 C 41.775478,13.662859 41.643150,13.618750 41.501020,13.584443 C 41.363791,13.550136 41.189803,13.532983 40.979058,13.532983 C 40.596777,13.532983 40.273308,13.623651 40.008652,13.804991 C 39.748897,13.981428 39.552856,14.221579 39.420527,14.525443 C 39.293099,14.824408 39.229386,15.160129 39.229386,15.532608 C 39.229386,15.895285 39.293099,16.233456 39.420527,16.547123 C 39.547954,16.855889 39.731744,17.100942 39.971894,17.282280 C 40.216947,17.463618 40.506108,17.554288 40.839379,17.554288 C 41.216760,17.554288 41.596590,17.483223 41.978871,17.341093 C 42.361153,17.198963 42.589052,17.127897 42.662567,17.127897 C 42.839004,17.127897 43.000739,17.179359 43.147770,17.282280 C 43.294802,17.385202 43.409975,17.519981 43.493294,17.686617 C 43.581512,17.848351 43.625621,18.014986 43.625621,18.186522 C 43.625621,18.549200 43.466338,18.855515 43.147770,19.105468 C 42.834103,19.355422 42.459174,19.536760 42.022981,19.649484 C 41.586787,19.767109 41.192254,19.825922 40.839379,19.825922 C 40.256155,19.825922 39.721941,19.718098 39.236738,19.502452 C 38.756436,19.286806 38.337397,18.980492 37.979620,18.583507 C 37.621844,18.181622 37.349836,17.720923 37.163597,17.201413 C 36.977357,16.677001 36.884238,16.120733 36.884238,15.532608 z M 31.899876,18.436476 L 31.899876,12.628740 C 31.899876,12.280766 32.007700,11.991604 32.223346,11.761255 C 32.443892,11.526005 32.725702,11.408380 33.068775,11.408380 C 33.353035,11.408380 33.598088,11.484346 33.803931,11.636278 C 34.014676,11.783310 34.161708,11.957297 34.245026,12.158240 C 34.749833,11.555411 35.291398,11.253997 35.869722,11.253997 C 36.188289,11.253997 36.467648,11.369172 36.707800,11.599521 C 36.952852,11.824969 37.075378,12.116581 37.075378,12.474357 C 37.075378,12.841935 36.960203,13.109042 36.729855,13.275678 C 36.504406,13.442313 36.129477,13.601597 35.605065,13.753529 C 35.070851,13.905462 34.710625,14.096602 34.524385,14.326951 C 34.338146,14.552399 34.245026,14.959185 34.245026,15.547310 L 34.245026,18.436476 C 34.245026,18.784450 34.134752,19.078513 33.914205,19.318664 C 33.698559,19.553914 33.416750,19.671539 33.068775,19.671539 C 32.725702,19.671539 32.443892,19.553914 32.223346,19.318664 C 32.007700,19.078513 31.899876,18.784450 31.899876,18.436476 z M 30.811845,12.628740 L 30.811845,16.664748 C 30.811845,17.370498 30.650111,17.958623 30.326642,18.429124 C 30.003174,18.899624 29.566980,19.250048 29.018063,19.480398 C 28.469146,19.710747 27.851615,19.825922 27.165469,19.825922 C 26.479323,19.825922 25.861791,19.710747 25.312874,19.480398 C 24.768860,19.250048 24.335116,18.899624 24.011648,18.429124 C 23.688179,17.958623 23.526444,17.370498 23.526444,16.664748 L 23.526444,12.628740 C 23.526444,12.280766 23.634268,11.991604 23.849914,11.761255 C 24.070461,11.526005 24.352270,11.408380 24.695344,11.408380 C 25.043318,11.408380 25.325128,11.526005 25.540773,11.761255 C 25.761320,11.991604 25.871594,12.280766 25.871594,12.628740 L 25.871594,16.333929 C 25.871594,16.745616 26.001471,17.066634 26.261227,17.296984 C 26.525883,17.527332 26.827298,17.642506 27.165469,17.642506 C 27.498740,17.642506 27.797704,17.527332 28.062361,17.296984 C 28.327016,17.061733 28.459345,16.740714 28.459345,16.333929 L 28.459345,12.628740 C 28.459345,12.285667 28.569617,11.996505 28.790165,11.761255 C 29.010712,11.526005 29.292521,11.408380 29.635595,11.408380 C 29.978667,11.408380 30.260478,11.526005 30.481025,11.761255 C 30.701571,11.991604 30.811845,12.280766 30.811845,12.628740 z M 18.792038,11.253997 C 19.380163,11.253997 19.916826,11.364271 20.402030,11.584818 C 20.892134,11.800463 21.311173,12.104328 21.659147,12.496412 C 22.012023,12.888495 22.281580,13.341842 22.467819,13.856451 C 22.658960,14.366159 22.754531,14.924879 22.754531,15.532608 C 22.754531,16.321676 22.587895,17.047030 22.254624,17.708671 C 21.926255,18.365410 21.460655,18.882471 20.857827,19.259851 C 20.254998,19.637231 19.566402,19.825922 18.792038,19.825922 C 18.208813,19.825922 17.674600,19.718098 17.189396,19.502452 C 16.709093,19.286806 16.290055,18.980492 15.932279,18.583507 C 15.574503,18.181622 15.302495,17.720923 15.116255,17.201413 C 14.930016,16.677001 14.836896,16.120733 14.836896,15.532608 C 14.836896,14.753342 15.003530,14.035339 15.336801,13.378600 C 15.670072,12.716958 16.135672,12.197448 16.733600,11.820068 C 17.336427,11.442687 18.022573,11.253997 18.792038,11.253997 z M 18.792038,13.532983 C 18.292131,13.532983 17.897597,13.724122 17.608435,14.106404 C 17.324175,14.488685 17.182045,14.964087 17.182045,15.532608 C 17.182045,15.895285 17.245758,16.233456 17.373185,16.547123 C 17.500613,16.855889 17.684401,17.100942 17.924552,17.282280 C 18.169605,17.463618 18.458767,17.554288 18.792038,17.554288 C 19.296844,17.554288 19.691379,17.363147 19.975639,16.980866 C 20.259900,16.593684 20.402030,16.110931 20.402030,15.532608 C 20.402030,14.959185 20.259900,14.483784 19.975639,14.106404 C 19.691379,13.724122 19.296844,13.532983 18.792038,13.532983 z M 8.3307609,18.186522 C 8.3307609,17.853251 8.4238808,17.578793 8.6101204,17.363147 C 8.8012610,17.147501 9.0316101,17.039679 9.3011674,17.039679 C 9.4629019,17.039679 9.6172846,17.069085 9.7643159,17.127897 C 9.9113472,17.181809 10.107389,17.270027 10.352441,17.392554 C 10.602394,17.510179 10.808238,17.595947 10.969973,17.649859 C 11.131707,17.703769 11.327749,17.730726 11.558098,17.730726 C 11.783546,17.730726 11.950181,17.686617 12.058004,17.598397 C 12.165827,17.505277 12.219739,17.390102 12.219739,17.252873 C 12.219739,17.130347 12.185431,17.029876 12.116817,16.951460 C 12.048202,16.873043 11.957533,16.809330 11.844809,16.760319 C 11.732085,16.706408 11.572801,16.640243 11.366957,16.561826 C 11.161113,16.483410 10.837644,16.355983 10.396551,16.179546 C 9.9358525,15.983504 9.5805269,15.799714 9.3305737,15.628179 C 9.0806205,15.451741 8.8870293,15.228743 8.7498001,14.959185 C 8.6125709,14.684727 8.5439563,14.344105 8.5439563,13.937318 C 8.5439563,13.476620 8.6664823,13.040428 8.9115345,12.628740 C 9.1614877,12.217052 9.5168133,11.886232 9.9775113,11.636278 C 10.443110,11.381424 10.974874,11.253997 11.572801,11.253997 C 11.827655,11.253997 12.111916,11.285854 12.425582,11.349567 C 12.739249,11.408380 13.035762,11.508851 13.315121,11.650982 C 13.599382,11.788211 13.829732,11.964648 14.006169,12.180294 C 14.187508,12.395940 14.278176,12.650795 14.278176,12.944857 C 14.278176,13.135997 14.234067,13.309984 14.145849,13.466818 C 14.062530,13.618750 13.944905,13.736375 13.792974,13.819693 C 13.645942,13.898109 13.481757,13.937318 13.300419,13.937318 C 13.202398,13.937318 13.094575,13.915263 12.976950,13.871154 C 12.864225,13.827045 12.702491,13.755980 12.491746,13.657959 C 12.285903,13.559938 12.097212,13.483971 11.925676,13.430060 C 11.754139,13.376149 11.585053,13.349193 11.418418,13.349193 C 11.246882,13.349193 11.099850,13.390851 10.977324,13.474170 C 10.859699,13.557487 10.800887,13.682464 10.800887,13.849100 C 10.800887,14.040241 10.992027,14.216678 11.374309,14.378412 C 11.756590,14.535246 12.200134,14.716584 12.704942,14.922428 C 13.214650,15.128272 13.636140,15.405180 13.969411,15.753155 C 14.307583,16.101129 14.476669,16.569179 14.476669,17.157304 C 14.476669,17.696418 14.341891,18.169369 14.072333,18.576155 C 13.802775,18.978040 13.435197,19.286806 12.969599,19.502452 C 12.508900,19.718098 12.006543,19.825922 11.462527,19.825922 C 10.663657,19.825922 9.9407535,19.676439 9.2938158,19.377476 C 8.6517792,19.073611 8.3307609,18.676627 8.3307609,18.186522 z " />
  <metadata
     id="metadata15">
    <rdf:RDF
       id="RDF16">
      <cc:Work
         rdf:about=""
         id="Work17">
        <dc:title
           id="title18">Part of the Flat Icon Collection (Thu Aug 26 14:40:35 2004)</dc:title>
        <dc:description
           id="description20" />
        <dc:subject
           id="subject21">
          <rdf:Bag
             id="Bag22">
            <rdf:li
               id="li23" />
          </rdf:Bag>
        </dc:subject>
        <dc:publisher
           id="publisher24">
          <cc:Agent
             rdf:about=""
             id="Agent25">
            <dc:title
               id="title26" />
          </cc:Agent>
        </dc:publisher>
        <dc:creator
           id="creator27">
          <cc:Agent
             rdf:about=""
             id="Agent28">
            <dc:title
               id="title29">Danny Allen</dc:title>
          </cc:Agent>
        </dc:creator>
        <dc:rights
           id="rights31">
          <cc:Agent
             rdf:about=""
             id="Agent32">
            <dc:title
               id="title33">Danny Allen</dc:title>
          </cc:Agent>
        </dc:rights>
        <dc:date
           id="date35" />
        <dc:format
           id="format36">image/svg+xml</dc:format>
        <dc:type
           rdf:resource="http://purl.org/dc/dcmitype/StillImage"
           id="type38" />
        <cc:license
           rdf:resource="http://creativecommons.org/licenses/LGPL/2.1/"
           id="license39">
          <dc:date
             id="date40" />
        </cc:license>
        <dc:language
           id="language41">en</dc:language>
      </cc:Work>
    </rdf:RDF>
  </metadata>
</svg>
