<?xml version="1.0" encoding="UTF-8" standalone="no"?>
<!DOCTYPE svg PUBLIC "-//W3C//DTD SVG 20010904//EN"
"http://www.w3.org/TR/2001/REC-SVG-20010904/DTD/svg10.dtd">
<svg
   sodipodi:docname="source_xml.svg"
   height="60.0000000"
   sodipodi:version="0.32"
   width="60.0000000"
   _SVGFile__filename="scalable/mimetypes/source_xml.svg"
   version="1.0"
   y="0"
   x="0"
   inkscape:version="0.39"
   id="svg1"
   sodipodi:docbase="/home/danny/work/flat/newscale/mimetypes"
   xmlns="http://www.w3.org/2000/svg"
   xmlns:cc="http://web.resource.org/cc/"
   xmlns:inkscape="http://www.inkscape.org/namespaces/inkscape"
   xmlns:sodipodi="http://sodipodi.sourceforge.net/DTD/sodipodi-0.dtd"
   xmlns:rdf="http://www.w3.org/1999/02/22-rdf-syntax-ns#"
   xmlns:dc="http://purl.org/dc/elements/1.1/"
   xmlns:xlink="http://www.w3.org/1999/xlink">
  <sodipodi:namedview
     bordercolor="#666666"
     inkscape:pageshadow="2"
     inkscape:window-y="0"
     snaptoguides="true"
     pagecolor="#ffffff"
     inkscape:window-height="685"
     inkscape:zoom="6.9465337"
     inkscape:window-x="0"
     borderopacity="1.0"
     inkscape:cx="37.697540"
     inkscape:cy="36.490183"
     inkscape:window-width="1016"
     inkscape:pageopacity="0.0"
     id="base"
     showguides="true" />
  <defs
     id="defs3">
    <linearGradient
       id="linearGradient900">
      <stop
         style="stop-color:#000;stop-opacity:1;"
         id="stop901"
         offset="0" />
      <stop
         style="stop-color:#fff;stop-opacity:1;"
         id="stop902"
         offset="1" />
    </linearGradient>
    <linearGradient
       xlink:href="#linearGradient900"
       id="linearGradient903" />
    <linearGradient
       xlink:href="#linearGradient900"
       id="linearGradient904" />
    <linearGradient
       xlink:href="#linearGradient900"
       id="linearGradient905" />
    <linearGradient
       xlink:href="#linearGradient900"
       id="linearGradient906" />
    <linearGradient
       xlink:href="#linearGradient900"
       id="linearGradient907" />
  </defs>
  <path
     style="font-size:12.000000;fill:#b3b3b3;fill-opacity:1.0000000;fill-rule:evenodd;stroke:#333333;stroke-width:3.1250000;stroke-linejoin:round;stroke-opacity:1.0000000;stroke-linecap:round;"
     d="M 6.6491308,5.1165137 C 5.5411308,5.1165137 4.6491308,6.0085137 4.6491308,7.1165137 L 4.6491308,53.501356 C 4.6491308,54.609356 5.5411308,55.501356 6.6491308,55.501356 L 53.393863,55.501356 C 54.501863,55.501356 55.393863,54.609356 55.393863,53.501356 L 55.393863,7.1165137 C 55.393863,6.0085137 54.501863,5.1165137 53.393863,5.1165137 L 6.6491308,5.1165137 z "
     id="rect812" />
  <g
     id="g842"
     transform="translate(-1.362249e-6,0.729308)">
    <path
       id="path841"
       style="font-size:12.000000;font-weight:900;fill:#333333;stroke-width:1.0000000pt;font-family:VAG Rounded Black SSi;"
       transform="scale(1.883714,1.883714)"
       d="M 22.561420,21.892885 L 22.561420,15.219057 C 22.561420,14.883120 22.651264,14.625307 22.830952,14.445620 C 23.010639,14.265932 23.245014,14.176088 23.534077,14.176088 C 23.827045,14.176088 24.061420,14.263979 24.237202,14.439760 C 24.416889,14.615541 24.506733,14.875307 24.506733,15.219057 L 24.506733,21.054995 L 26.592670,21.054995 C 26.897358,21.054995 27.135639,21.135073 27.307514,21.295229 C 27.479389,21.451479 27.565327,21.674135 27.565327,21.963198 C 27.565327,22.244448 27.479389,22.467104 27.307514,22.631166 C 27.135639,22.795229 26.897358,22.877260 26.592670,22.877260 L 23.534077,22.877260 C 23.272358,22.877260 23.043842,22.789370 22.848530,22.613588 C 22.657124,22.433901 22.561420,22.193666 22.561420,21.892885 z M 12.178608,19.842104 L 12.946186,15.412416 C 13.090717,14.588198 13.518452,14.176088 14.229389,14.176088 C 14.541889,14.176088 14.789936,14.242495 14.973530,14.375307 C 15.161030,14.508120 15.317280,14.719057 15.442280,15.008120 C 15.571186,15.293276 15.727436,15.724916 15.911030,16.303041 L 16.860249,19.267885 L 16.883686,19.267885 L 17.832905,16.303041 C 18.016499,15.724916 18.170795,15.293276 18.295795,15.008120 C 18.424702,14.719057 18.580952,14.508120 18.764545,14.375307 C 18.952045,14.242495 19.200092,14.176088 19.508686,14.176088 C 20.223530,14.176088 20.653217,14.588198 20.797749,15.412416 L 21.565327,19.842104 C 21.780170,21.107729 21.887592,21.832338 21.887592,22.015932 C 21.887592,22.254213 21.803608,22.469057 21.635639,22.660463 C 21.471577,22.851870 21.250874,22.947573 20.973530,22.947573 C 20.703999,22.947573 20.491108,22.890932 20.334858,22.777651 C 20.178608,22.660463 20.067280,22.508120 20.000874,22.320620 C 19.934467,22.133120 19.883686,21.910463 19.848530,21.652651 L 19.268452,17.826479 L 19.245014,17.826479 L 17.938374,22.062807 C 17.844624,22.379213 17.715717,22.605776 17.551655,22.742495 C 17.387592,22.879213 17.161030,22.947573 16.871967,22.947573 C 16.582905,22.947573 16.356342,22.879213 16.192280,22.742495 C 16.028217,22.605776 15.899311,22.379213 15.805561,22.062807 L 14.493061,17.826479 L 14.469624,17.826479 L 13.895405,21.652651 C 13.860249,21.910463 13.809467,22.133120 13.743061,22.320620 C 13.676655,22.508120 13.565327,22.660463 13.409077,22.777651 C 13.252827,22.890932 13.037983,22.947573 12.764545,22.947573 C 12.491108,22.947573 12.270405,22.851870 12.102436,22.660463 C 11.938374,22.469057 11.856342,22.254213 11.856342,22.015932 C 11.856342,21.785463 11.963764,21.060854 12.178608,19.842104 z M 7.9832954,16.601870 L 9.0731392,15.078432 C 9.2059517,14.879213 9.3211861,14.717104 9.4188423,14.592104 C 9.5204048,14.467104 9.6356392,14.367495 9.7645454,14.293276 C 9.8973579,14.215151 10.043842,14.176088 10.203999,14.176088 C 10.524311,14.176088 10.774311,14.267885 10.953999,14.451479 C 11.133686,14.631166 11.223530,14.844057 11.223530,15.090151 C 11.223530,15.344057 11.102436,15.631166 10.860249,15.951479 L 9.1551704,18.230776 L 11.235249,21.043276 C 11.395405,21.258120 11.504780,21.424135 11.563374,21.541323 C 11.621967,21.658510 11.651264,21.806948 11.651264,21.986635 C 11.651264,22.267885 11.561420,22.498354 11.381733,22.678041 C 11.202045,22.857729 10.977436,22.947573 10.707905,22.947573 C 10.524311,22.947573 10.360249,22.906557 10.215717,22.824526 C 10.071186,22.742495 9.9188423,22.592104 9.7586861,22.373354 L 7.9832954,19.924135 L 6.2079048,22.373354 C 6.0477486,22.588198 5.8954048,22.738588 5.7508736,22.824526 C 5.6102486,22.906557 5.4461861,22.947573 5.2586861,22.947573 C 4.9891548,22.947573 4.7625923,22.857729 4.5789986,22.678041 C 4.3993111,22.494448 4.3094673,22.263979 4.3094673,21.986635 C 4.3094673,21.814760 4.3368111,21.672182 4.3914986,21.558901 C 4.4461861,21.441713 4.5594673,21.269838 4.7313423,21.043276 L 6.8055611,18.230776 L 5.1004829,15.951479 C 4.8622017,15.635073 4.7430611,15.347963 4.7430611,15.090151 C 4.7430611,14.844057 4.8329048,14.631166 5.0125923,14.451479 C 5.1922798,14.267885 5.4422798,14.176088 5.7625923,14.176088 C 6.0008736,14.176088 6.1942329,14.248354 6.3426704,14.392885 C 6.4950142,14.533510 6.6766548,14.762026 6.8875923,15.078432 L 7.9832954,16.601870 z " />
    <path
       id="path840"
       style="font-size:12.000000;font-weight:900;fill:#333333;stroke-width:1.0000000pt;font-family:VAG Rounded Black SSi;"
       transform="matrix(1.254667,0.000000,0.000000,1.254667,-2.134868,12.19809)"
       d="M 42.091963,7.0135956 L 38.711103,7.0135956 C 38.711103,7.2675018 38.828291,7.5077362 39.062666,7.7342987 C 39.297041,7.9569550 39.679853,8.0682831 40.211103,8.0682831 C 40.484541,8.0682831 40.711103,8.0331268 40.890791,7.9628143 C 41.070478,7.8925018 41.291182,7.7928925 41.552900,7.6639862 C 41.818525,7.5311737 42.009932,7.4647675 42.127119,7.4647675 C 42.345869,7.4647675 42.531416,7.5409393 42.683760,7.6932831 C 42.836103,7.8456268 42.912275,8.0428925 42.912275,8.2850800 C 42.912275,8.5741425 42.767744,8.8378143 42.478682,9.0760956 C 42.193525,9.3104706 41.824385,9.4901581 41.371260,9.6151581 C 40.918135,9.7440643 40.451338,9.8085175 39.970869,9.8085175 C 39.474775,9.8085175 39.025557,9.7225800 38.623213,9.5507050 C 38.224775,9.3788300 37.879072,9.1366425 37.586103,8.8241425 C 37.297041,8.5077362 37.076338,8.1405487 36.923994,7.7225800 C 36.771650,7.3007050 36.695478,6.8553925 36.695478,6.3866425 C 36.695478,5.9452362 36.775557,5.5155487 36.935713,5.0975800 C 37.095869,4.6796112 37.322432,4.3124237 37.615400,3.9960175 C 37.908369,3.6796112 38.257978,3.4315643 38.664228,3.2518768 C 39.070478,3.0682831 39.506025,2.9764862 39.970869,2.9764862 C 40.568525,2.9764862 41.097822,3.1268768 41.558760,3.4276581 C 42.019697,3.7284393 42.375166,4.1229706 42.625166,4.6112518 C 42.879072,5.0995331 43.006025,5.6229706 43.006025,6.1815643 C 43.006025,6.5018768 42.933760,6.7206268 42.789228,6.8378143 C 42.644697,6.9550018 42.412275,7.0135956 42.091963,7.0135956 z M 38.711103,5.7128143 L 41.131025,5.7128143 C 41.131025,5.5643768 41.078291,5.4003143 40.972822,5.2206268 C 40.867353,5.0370331 40.722822,4.8846893 40.539228,4.7635956 C 40.359541,4.6385956 40.154463,4.5760956 39.923994,4.5760956 C 39.693525,4.5760956 39.484541,4.6385956 39.297041,4.7635956 C 39.113447,4.8885956 38.968916,5.0409393 38.863447,5.2206268 C 38.761885,5.3964081 38.711103,5.5604706 38.711103,5.7128143 z M 31.140791,6.3866425 C 31.140791,5.7655487 31.273603,5.1932831 31.539228,4.6698456 C 31.804853,4.1425018 32.175947,3.7284393 32.652510,3.4276581 C 33.132978,3.1268768 33.679853,2.9764862 34.293135,2.9764862 C 34.617353,2.9764862 34.951338,3.0155487 35.295088,3.0936737 C 35.638838,3.1678925 35.927900,3.2967987 36.162275,3.4803925 C 36.396650,3.6639862 36.513838,3.9120331 36.513838,4.2245331 C 36.513838,4.4745331 36.439619,4.6835175 36.291182,4.8514862 C 36.146650,5.0194550 35.965010,5.1034393 35.746260,5.1034393 C 35.640791,5.1034393 35.537275,5.0858612 35.435713,5.0507050 C 35.338057,5.0155487 35.238447,4.9784393 35.136885,4.9393768 C 35.039228,4.8964081 34.933760,4.8612518 34.820478,4.8339081 C 34.711103,4.8065643 34.572432,4.7928925 34.404463,4.7928925 C 34.099775,4.7928925 33.841963,4.8651581 33.631025,5.0096893 C 33.423994,5.1503143 33.267744,5.3417206 33.162275,5.5839081 C 33.060713,5.8221893 33.009932,6.0897675 33.009932,6.3866425 C 33.009932,6.6757050 33.060713,6.9452362 33.162275,7.1952362 C 33.263838,7.4413300 33.410322,7.6366425 33.601728,7.7811737 C 33.797041,7.9257050 34.027510,7.9979706 34.293135,7.9979706 C 34.593916,7.9979706 34.896650,7.9413300 35.201338,7.8280487 C 35.506025,7.7147675 35.687666,7.6581268 35.746260,7.6581268 C 35.886885,7.6581268 36.015791,7.6991425 36.132978,7.7811737 C 36.250166,7.8632050 36.341963,7.9706268 36.408369,8.1034393 C 36.478682,8.2323456 36.513838,8.3651581 36.513838,8.5018768 C 36.513838,8.7909393 36.386885,9.0350800 36.132978,9.2342987 C 35.882978,9.4335175 35.584150,9.5780487 35.236494,9.6678925 C 34.888838,9.7616425 34.574385,9.8085175 34.293135,9.8085175 C 33.828291,9.8085175 33.402510,9.7225800 33.015791,9.5507050 C 32.632978,9.3788300 32.298994,9.1346893 32.013838,8.8182831 C 31.728682,8.4979706 31.511885,8.1307831 31.363447,7.7167206 C 31.215010,7.2987518 31.140791,6.8553925 31.140791,6.3866425 z M 27.168135,8.7010956 L 27.168135,4.0721893 C 27.168135,3.7948456 27.254072,3.5643768 27.425947,3.3807831 C 27.601728,3.1932831 27.826338,3.0995331 28.099775,3.0995331 C 28.326338,3.0995331 28.521650,3.1600800 28.685713,3.2811737 C 28.853682,3.3983612 28.970869,3.5370331 29.037275,3.6971893 C 29.439619,3.2167206 29.871260,2.9764862 30.332197,2.9764862 C 30.586103,2.9764862 30.808760,3.0682831 31.000166,3.2518768 C 31.195478,3.4315643 31.293135,3.6639862 31.293135,3.9491425 C 31.293135,4.2421112 31.201338,4.4550018 31.017744,4.5878143 C 30.838057,4.7206268 30.539228,4.8475800 30.121260,4.9686737 C 29.695478,5.0897675 29.408369,5.2421112 29.259932,5.4257050 C 29.111494,5.6053925 29.037275,5.9296112 29.037275,6.3983612 L 29.037275,8.7010956 C 29.037275,8.9784393 28.949385,9.2128143 28.773603,9.4042206 C 28.601728,9.5917206 28.377119,9.6854706 28.099775,9.6854706 C 27.826338,9.6854706 27.601728,9.5917206 27.425947,9.4042206 C 27.254072,9.2128143 27.168135,8.9784393 27.168135,8.7010956 z M 26.300947,4.0721893 L 26.300947,7.2889862 C 26.300947,7.8514862 26.172041,8.3202362 25.914228,8.6952362 C 25.656416,9.0702362 25.308760,9.3495331 24.871260,9.5331268 C 24.433760,9.7167206 23.941572,9.8085175 23.394697,9.8085175 C 22.847822,9.8085175 22.355635,9.7167206 21.918135,9.5331268 C 21.484541,9.3495331 21.138838,9.0702362 20.881025,8.6952362 C 20.623213,8.3202362 20.494307,7.8514862 20.494307,7.2889862 L 20.494307,4.0721893 C 20.494307,3.7948456 20.580244,3.5643768 20.752119,3.3807831 C 20.927900,3.1932831 21.152510,3.0995331 21.425947,3.0995331 C 21.703291,3.0995331 21.927900,3.1932831 22.099775,3.3807831 C 22.275557,3.5643768 22.363447,3.7948456 22.363447,4.0721893 L 22.363447,7.0253143 C 22.363447,7.3534393 22.466963,7.6092987 22.673994,7.7928925 C 22.884932,7.9764862 23.125166,8.0682831 23.394697,8.0682831 C 23.660322,8.0682831 23.898603,7.9764862 24.109541,7.7928925 C 24.320478,7.6053925 24.425947,7.3495331 24.425947,7.0253143 L 24.425947,4.0721893 C 24.425947,3.7987518 24.513838,3.5682831 24.689619,3.3807831 C 24.865400,3.1932831 25.090010,3.0995331 25.363447,3.0995331 C 25.636885,3.0995331 25.861494,3.1932831 26.037275,3.3807831 C 26.213057,3.5643768 26.300947,3.7948456 26.300947,4.0721893 z M 16.720869,2.9764862 C 17.189619,2.9764862 17.617353,3.0643768 18.004072,3.2401581 C 18.394697,3.4120331 18.728682,3.6542206 19.006025,3.9667206 C 19.287275,4.2792206 19.502119,4.6405487 19.650557,5.0507050 C 19.802900,5.4569550 19.879072,5.9022675 19.879072,6.3866425 C 19.879072,7.0155487 19.746260,7.5936737 19.480635,8.1210175 C 19.218916,8.6444550 18.847822,9.0565643 18.367353,9.3573456 C 17.886885,9.6581268 17.338057,9.8085175 16.720869,9.8085175 C 16.256025,9.8085175 15.830244,9.7225800 15.443525,9.5507050 C 15.060713,9.3788300 14.726728,9.1346893 14.441572,8.8182831 C 14.156416,8.4979706 13.939619,8.1307831 13.791182,7.7167206 C 13.642744,7.2987518 13.568525,6.8553925 13.568525,6.3866425 C 13.568525,5.7655487 13.701338,5.1932831 13.966963,4.6698456 C 14.232588,4.1425018 14.603682,3.7284393 15.080244,3.4276581 C 15.560713,3.1268768 16.107588,2.9764862 16.720869,2.9764862 z M 16.720869,4.7928925 C 16.322432,4.7928925 16.007978,4.9452362 15.777510,5.2499237 C 15.550947,5.5546112 15.437666,5.9335175 15.437666,6.3866425 C 15.437666,6.6757050 15.488447,6.9452362 15.590010,7.1952362 C 15.691572,7.4413300 15.838057,7.6366425 16.029463,7.7811737 C 16.224775,7.9257050 16.455244,7.9979706 16.720869,7.9979706 C 17.123213,7.9979706 17.437666,7.8456268 17.664228,7.5409393 C 17.890791,7.2323456 18.004072,6.8475800 18.004072,6.3866425 C 18.004072,5.9296112 17.890791,5.5507050 17.664228,5.2499237 C 17.437666,4.9452362 17.123213,4.7928925 16.720869,4.7928925 z M 8.3829784,8.5018768 C 8.3829784,8.2362518 8.4571972,8.0175018 8.6056347,7.8456268 C 8.7579784,7.6737518 8.9415722,7.5878143 9.1564159,7.5878143 C 9.2853222,7.5878143 9.4083691,7.6112518 9.5255566,7.6581268 C 9.6427441,7.7010956 9.7989941,7.7714081 9.9943066,7.8690643 C 10.193525,7.9628143 10.357588,8.0311737 10.486494,8.0741425 C 10.615400,8.1171112 10.771650,8.1385956 10.955244,8.1385956 C 11.134932,8.1385956 11.267744,8.1034393 11.353682,8.0331268 C 11.439619,7.9589081 11.482588,7.8671112 11.482588,7.7577362 C 11.482588,7.6600800 11.455244,7.5800018 11.400557,7.5175018 C 11.345869,7.4550018 11.273603,7.4042206 11.183760,7.3651581 C 11.093916,7.3221893 10.966963,7.2694550 10.802900,7.2069550 C 10.638838,7.1444550 10.381025,7.0428925 10.029463,6.9022675 C 9.6622753,6.7460175 9.3790722,6.5995331 9.1798534,6.4628143 C 8.9806347,6.3221893 8.8263378,6.1444550 8.7169628,5.9296112 C 8.6075878,5.7108612 8.5529003,5.4393768 8.5529003,5.1151581 C 8.5529003,4.7479706 8.6505566,4.4003143 8.8458691,4.0721893 C 9.0450878,3.7440643 9.3282909,3.4803925 9.6954784,3.2811737 C 10.066572,3.0780487 10.490400,2.9764862 10.966963,2.9764862 C 11.170088,2.9764862 11.396650,3.0018768 11.646650,3.0526581 C 11.896650,3.0995331 12.132978,3.1796112 12.355635,3.2928925 C 12.582197,3.4022675 12.765791,3.5428925 12.906416,3.7147675 C 13.050947,3.8866425 13.123213,4.0897675 13.123213,4.3241425 C 13.123213,4.4764862 13.088057,4.6151581 13.017744,4.7401581 C 12.951338,4.8612518 12.857588,4.9550018 12.736494,5.0214081 C 12.619307,5.0839081 12.488447,5.1151581 12.343916,5.1151581 C 12.265791,5.1151581 12.179853,5.0975800 12.086103,5.0624237 C 11.996260,5.0272675 11.867353,4.9706268 11.699385,4.8925018 C 11.535322,4.8143768 11.384932,4.7538300 11.248213,4.7108612 C 11.111494,4.6678925 10.976728,4.6464081 10.843916,4.6464081 C 10.707197,4.6464081 10.590010,4.6796112 10.492353,4.7460175 C 10.398603,4.8124237 10.351728,4.9120331 10.351728,5.0448456 C 10.351728,5.1971893 10.504072,5.3378143 10.808760,5.4667206 C 11.113447,5.5917206 11.466963,5.7362518 11.869307,5.9003143 C 12.275557,6.0643768 12.611494,6.2850800 12.877119,6.5624237 C 13.146650,6.8397675 13.281416,7.2128143 13.281416,7.6815643 C 13.281416,8.1112518 13.173994,8.4882050 12.959150,8.8124237 C 12.744307,9.1327362 12.451338,9.3788300 12.080244,9.5507050 C 11.713057,9.7225800 11.312666,9.8085175 10.879072,9.8085175 C 10.242353,9.8085175 9.6661816,9.6893768 9.1505566,9.4510956 C 8.6388378,9.2089081 8.3829784,8.8925018 8.3829784,8.5018768 z " />
  </g>
  <metadata
     id="metadata16">
    <rdf:RDF
       id="RDF17">
      <cc:Work
         rdf:about=""
         id="Work18">
        <dc:title
           id="title19">Part of the Flat Icon Collection (Thu Aug 26 14:40:35 2004)</dc:title>
        <dc:description
           id="description21" />
        <dc:subject
           id="subject22">
          <rdf:Bag
             id="Bag23">
            <rdf:li
               id="li24" />
          </rdf:Bag>
        </dc:subject>
        <dc:publisher
           id="publisher25">
          <cc:Agent
             rdf:about=""
             id="Agent26">
            <dc:title
               id="title27" />
          </cc:Agent>
        </dc:publisher>
        <dc:creator
           id="creator28">
          <cc:Agent
             rdf:about=""
             id="Agent29">
            <dc:title
               id="title30">Danny Allen</dc:title>
          </cc:Agent>
        </dc:creator>
        <dc:rights
           id="rights32">
          <cc:Agent
             rdf:about=""
             id="Agent33">
            <dc:title
               id="title34">Danny Allen</dc:title>
          </cc:Agent>
        </dc:rights>
        <dc:date
           id="date36" />
        <dc:format
           id="format37">image/svg+xml</dc:format>
        <dc:type
           rdf:resource="http://purl.org/dc/dcmitype/StillImage"
           id="type39" />
        <cc:license
           rdf:resource="http://creativecommons.org/licenses/LGPL/2.1/"
           id="license40">
          <dc:date
             id="date41" />
        </cc:license>
        <dc:language
           id="language42">en</dc:language>
      </cc:Work>
    </rdf:RDF>
  </metadata>
</svg>
