<?xml version="1.0" encoding="UTF-8" standalone="no"?>
<!DOCTYPE svg PUBLIC "-//W3C//DTD SVG 20010904//EN"
"http://www.w3.org/TR/2001/REC-SVG-20010904/DTD/svg10.dtd">
<svg
   sodipodi:docname="source_py.svg"
   height="60.0000000"
   sodipodi:version="0.32"
   width="60.0000000"
   _SVGFile__filename="scalable/mimetypes/source_py.svg"
   version="1.0"
   y="0"
   x="0"
   inkscape:version="0.39"
   id="svg1"
   sodipodi:docbase="/home/danny/work/flat/newscale/mimetypes"
   xmlns="http://www.w3.org/2000/svg"
   xmlns:cc="http://web.resource.org/cc/"
   xmlns:inkscape="http://www.inkscape.org/namespaces/inkscape"
   xmlns:sodipodi="http://sodipodi.sourceforge.net/DTD/sodipodi-0.dtd"
   xmlns:rdf="http://www.w3.org/1999/02/22-rdf-syntax-ns#"
   xmlns:dc="http://purl.org/dc/elements/1.1/"
   xmlns:xlink="http://www.w3.org/1999/xlink">
  <sodipodi:namedview
     bordercolor="#666666"
     inkscape:pageshadow="2"
     inkscape:window-y="0"
     snaptoguides="true"
     pagecolor="#ffffff"
     inkscape:window-height="685"
     inkscape:zoom="6.9465337"
     inkscape:window-x="0"
     borderopacity="1.0"
     inkscape:cx="37.697540"
     inkscape:cy="36.490183"
     inkscape:window-width="1016"
     inkscape:pageopacity="0.0"
     id="base"
     showguides="true" />
  <defs
     id="defs3">
    <linearGradient
       id="linearGradient900">
      <stop
         style="stop-color:#000;stop-opacity:1;"
         id="stop901"
         offset="0" />
      <stop
         style="stop-color:#fff;stop-opacity:1;"
         id="stop902"
         offset="1" />
    </linearGradient>
    <linearGradient
       xlink:href="#linearGradient900"
       id="linearGradient903" />
    <linearGradient
       xlink:href="#linearGradient900"
       id="linearGradient904" />
    <linearGradient
       xlink:href="#linearGradient900"
       id="linearGradient905" />
    <linearGradient
       xlink:href="#linearGradient900"
       id="linearGradient906" />
    <linearGradient
       xlink:href="#linearGradient900"
       id="linearGradient907" />
  </defs>
  <path
     style="font-size:12.000000;fill:#b3b3b3;fill-opacity:1.0000000;fill-rule:evenodd;stroke:#333333;stroke-width:3.1250000;stroke-linecap:round;stroke-linejoin:round;stroke-opacity:1.0000000;"
     d="M 6.6785922,5.1165123 C 5.5705922,5.1165123 4.6785922,6.0085123 4.6785922,7.1165123 L 4.6785922,53.501354 C 4.6785922,54.609354 5.5705922,55.501354 6.6785922,55.501354 L 53.423324,55.501354 C 54.531324,55.501354 55.423324,54.609354 55.423324,53.501354 L 55.423324,7.1165123 C 55.423324,6.0085123 54.531324,5.1165123 53.423324,5.1165123 L 6.6785922,5.1165123 z "
     id="rect812" />
  <g
     id="g941"
     transform="translate(5.658569e-8,-0.624699)">
    <path
       id="path841"
       style="font-size:12.000000;font-weight:900;fill:#333333;stroke-width:1.0000000pt;font-family:VAG Rounded Black SSi;"
       d="M 37.027407,47.007646 L 37.027407,36.923065 L 31.503985,29.436612 C 30.336431,27.768680 29.605107,26.678109 29.310011,26.164899 C 29.014914,25.651689 28.867366,25.099987 28.867366,24.509795 C 28.867366,23.662998 29.188121,22.970165 29.829636,22.431294 C 30.483979,21.892423 31.292283,21.622988 32.254553,21.622988 C 32.998709,21.622988 33.608147,21.821857 34.082865,22.219594 C 34.570413,22.617333 35.038717,23.143373 35.487777,23.797716 L 40.222140,30.610580 L 44.956506,23.797716 C 45.418395,23.117712 45.880284,22.585257 46.342173,22.200349 C 46.804062,21.815442 47.419915,21.622988 48.189730,21.622988 C 49.151996,21.622988 49.953889,21.886008 50.595403,22.412048 C 51.249743,22.938089 51.576917,23.637338 51.576917,24.509795 C 51.576917,25.099987 51.422954,25.658104 51.115028,26.184143 C 50.819931,26.710183 50.095022,27.794339 48.940298,29.436612 L 43.416875,36.923065 L 43.416875,47.007646 C 43.416875,48.123876 43.121779,48.977089 42.531585,49.567282 C 41.954225,50.144643 41.184410,50.433322 40.222140,50.433322 C 39.285532,50.433322 38.515717,50.138228 37.912694,49.548035 C 37.322504,48.945012 37.027407,48.098217 37.027407,47.007646 z M 14.914464,27.569811 L 14.914464,35.344943 L 18.340143,35.344943 C 19.199771,35.344943 19.950339,35.165321 20.591853,34.806074 C 21.233364,34.446827 21.720915,33.972108 22.054500,33.381915 C 22.388088,32.791725 22.554881,32.156625 22.554881,31.476623 C 22.554881,30.244918 22.169975,29.289063 21.400160,28.609061 C 20.630344,27.916229 19.610339,27.569811 18.340143,27.569811 L 14.914464,27.569811 z M 8.5249995,47.007646 L 8.5249995,25.087156 C 8.5249995,24.099227 8.8393403,23.316581 9.4680219,22.739220 C 10.109536,22.149028 10.860104,21.853932 11.719732,21.853932 L 19.552603,21.853932 C 21.220534,21.853932 22.792242,22.226010 24.267722,22.970165 C 25.756031,23.701489 26.942829,24.798476 27.828116,26.261123 C 28.726232,27.710944 29.175292,29.449444 29.175292,31.476623 C 29.175292,33.337009 28.809630,34.998529 28.078306,36.461176 C 27.346983,37.910994 26.275656,39.046474 24.864327,39.867610 C 23.453000,40.688747 21.752992,41.099315 19.764302,41.099315 L 14.914464,41.099315 L 14.914464,47.007646 C 14.914464,48.123876 14.619371,48.977089 14.029178,49.567282 C 13.451817,50.144643 12.682002,50.433322 11.719732,50.433322 C 10.783124,50.433322 10.013309,50.138228 9.4102862,49.548035 C 8.8200961,48.945012 8.5249995,48.098217 8.5249995,47.007646 z " />
    <path
       id="path840"
       style="font-size:12.000000;font-weight:900;fill:#333333;stroke-width:1.0000000pt;font-family:VAG Rounded Black SSi;"
       d="M 50.624312,16.499171 L 46.382458,16.499171 C 46.382458,16.817739 46.529490,17.119153 46.823553,17.403413 C 47.117615,17.682773 47.597917,17.822453 48.264459,17.822453 C 48.607532,17.822453 48.891792,17.778343 49.117241,17.690124 C 49.342688,17.601906 49.619598,17.476929 49.947967,17.315195 C 50.281238,17.148559 50.521390,17.065241 50.668421,17.065241 C 50.942879,17.065241 51.175679,17.160812 51.366820,17.351952 C 51.557960,17.543093 51.653530,17.790596 51.653530,18.094460 C 51.653530,18.457138 51.472192,18.787958 51.109515,19.086922 C 50.751738,19.380984 50.288590,19.606432 49.720069,19.763266 C 49.151548,19.925000 48.565874,20.005867 47.963045,20.005867 C 47.340612,20.005867 46.776993,19.898044 46.272186,19.682398 C 45.772279,19.466752 45.338536,19.162888 44.970958,18.770804 C 44.608281,18.373820 44.331373,17.913122 44.140232,17.388710 C 43.949091,16.859398 43.853520,16.300679 43.853520,15.712554 C 43.853520,15.158736 43.953993,14.619621 44.154935,14.095209 C 44.355877,13.570798 44.640139,13.110100 45.007716,12.713115 C 45.375294,12.316131 45.813937,12.004914 46.323646,11.779467 C 46.833354,11.549118 47.379821,11.433943 47.963045,11.433943 C 48.712904,11.433943 49.376996,11.622633 49.955320,12.000014 C 50.533642,12.377394 50.979637,12.872399 51.293304,13.485029 C 51.611871,14.097660 51.771155,14.754400 51.771155,15.455249 C 51.771155,15.857134 51.680487,16.131593 51.499147,16.278624 C 51.317809,16.425655 51.026197,16.499171 50.624312,16.499171 z M 46.382458,14.867124 L 49.418655,14.867124 C 49.418655,14.680884 49.352491,14.475040 49.220162,14.249592 C 49.087834,14.019243 48.906496,13.828102 48.676146,13.676170 C 48.450699,13.519337 48.193394,13.440920 47.904233,13.440920 C 47.615071,13.440920 47.352865,13.519337 47.117615,13.676170 C 46.887266,13.833004 46.705928,14.024144 46.573599,14.249592 C 46.446173,14.470139 46.382458,14.675983 46.382458,14.867124 z M 36.884238,15.712554 C 36.884238,14.933288 37.050872,14.215285 37.384143,13.558545 C 37.717414,12.896904 38.183014,12.377394 38.780942,12.000014 C 39.383769,11.622633 40.069915,11.433943 40.839380,11.433943 C 41.246165,11.433943 41.665205,11.482953 42.096497,11.580974 C 42.527789,11.674094 42.890465,11.835829 43.184528,12.066178 C 43.478590,12.296527 43.625622,12.607743 43.625622,12.999826 C 43.625622,13.313493 43.532502,13.575699 43.346263,13.786444 C 43.164924,13.997189 42.937026,14.102561 42.662568,14.102561 C 42.530239,14.102561 42.400361,14.080506 42.272935,14.036397 C 42.150409,13.992287 42.025431,13.945728 41.898005,13.896717 C 41.775478,13.842806 41.643151,13.798696 41.501019,13.764389 C 41.363790,13.730082 41.189804,13.712928 40.979059,13.712928 C 40.596777,13.712928 40.273309,13.803597 40.008652,13.984936 C 39.748897,14.161373 39.552855,14.401525 39.420527,14.705389 C 39.293100,15.004353 39.229387,15.340074 39.229387,15.712554 C 39.229387,16.075231 39.293100,16.413403 39.420527,16.727069 C 39.547955,17.035835 39.731743,17.280887 39.971894,17.462226 C 40.216947,17.643565 40.506109,17.734234 40.839380,17.734234 C 41.216760,17.734234 41.596590,17.663169 41.978872,17.521038 C 42.361153,17.378908 42.589052,17.307843 42.662568,17.307843 C 42.839005,17.307843 43.000739,17.359304 43.147770,17.462226 C 43.294802,17.565148 43.409976,17.699926 43.493294,17.866562 C 43.581513,18.028296 43.625622,18.194932 43.625622,18.366468 C 43.625622,18.729145 43.466339,19.035461 43.147770,19.285414 C 42.834103,19.535367 42.459174,19.716706 42.022981,19.829430 C 41.586788,19.947055 41.192255,20.005867 40.839380,20.005867 C 40.256155,20.005867 39.721942,19.898044 39.236738,19.682398 C 38.756435,19.466752 38.337397,19.160437 37.979621,18.763453 C 37.621845,18.361567 37.349837,17.900869 37.163597,17.381359 C 36.977358,16.856947 36.884238,16.300679 36.884238,15.712554 z M 31.899877,18.616422 L 31.899877,12.808686 C 31.899877,12.460712 32.007700,12.171550 32.223345,11.941201 C 32.443892,11.705951 32.725703,11.588326 33.068775,11.588326 C 33.353036,11.588326 33.598088,11.664292 33.803932,11.816224 C 34.014677,11.963256 34.161708,12.137243 34.245026,12.338185 C 34.749833,11.735357 35.291399,11.433943 35.869721,11.433943 C 36.188289,11.433943 36.467649,11.549118 36.707800,11.779467 C 36.952852,12.004914 37.075379,12.296527 37.075379,12.654303 C 37.075379,13.021881 36.960204,13.288988 36.729855,13.455623 C 36.504407,13.622259 36.129476,13.781543 35.605066,13.933475 C 35.070851,14.085407 34.710625,14.276548 34.524386,14.506897 C 34.338146,14.732345 34.245026,15.139131 34.245026,15.727257 L 34.245026,18.616422 C 34.245026,18.964396 34.134753,19.258458 33.914205,19.498609 C 33.698559,19.733859 33.416750,19.851484 33.068775,19.851484 C 32.725703,19.851484 32.443892,19.733859 32.223345,19.498609 C 32.007700,19.258458 31.899877,18.964396 31.899877,18.616422 z M 30.811845,12.808686 L 30.811845,16.844694 C 30.811845,17.550445 30.650111,18.138570 30.326641,18.609070 C 30.003173,19.079570 29.566981,19.429995 29.018064,19.660344 C 28.469147,19.890693 27.851615,20.005867 27.165469,20.005867 C 26.479323,20.005867 25.861792,19.890693 25.312875,19.660344 C 24.768859,19.429995 24.335117,19.079570 24.011648,18.609070 C 23.688180,18.138570 23.526445,17.550445 23.526445,16.844694 L 23.526445,12.808686 C 23.526445,12.460712 23.634268,12.171550 23.849914,11.941201 C 24.070460,11.705951 24.352271,11.588326 24.695343,11.588326 C 25.043318,11.588326 25.325127,11.705951 25.540773,11.941201 C 25.761321,12.171550 25.871594,12.460712 25.871594,12.808686 L 25.871594,16.513874 C 25.871594,16.925562 26.001472,17.246580 26.261227,17.476929 C 26.525884,17.707278 26.827297,17.822453 27.165469,17.822453 C 27.498740,17.822453 27.797703,17.707278 28.062360,17.476929 C 28.327016,17.241679 28.459344,16.920661 28.459344,16.513874 L 28.459344,12.808686 C 28.459344,12.465613 28.569618,12.176451 28.790165,11.941201 C 29.010712,11.705951 29.292522,11.588326 29.635595,11.588326 C 29.978668,11.588326 30.260478,11.705951 30.481025,11.941201 C 30.701572,12.171550 30.811845,12.460712 30.811845,12.808686 z M 18.792037,11.433943 C 19.380162,11.433943 19.916826,11.544216 20.402030,11.764763 C 20.892134,11.980409 21.311174,12.284274 21.659147,12.676357 C 22.012022,13.068441 22.281580,13.521787 22.467820,14.036397 C 22.658960,14.546105 22.754530,15.104824 22.754530,15.712554 C 22.754530,16.501621 22.587896,17.226976 22.254625,17.888617 C 21.926254,18.545356 21.460655,19.062416 20.857826,19.439797 C 20.254999,19.817177 19.566403,20.005867 18.792037,20.005867 C 18.208813,20.005867 17.674600,19.898044 17.189396,19.682398 C 16.709094,19.466752 16.290054,19.160437 15.932279,18.763453 C 15.574503,18.361567 15.302495,17.900869 15.116256,17.381359 C 14.930015,16.856947 14.836895,16.300679 14.836895,15.712554 C 14.836895,14.933288 15.003531,14.215285 15.336802,13.558545 C 15.670073,12.896904 16.135673,12.377394 16.733599,12.000014 C 17.336428,11.622633 18.022574,11.433943 18.792037,11.433943 z M 18.792037,13.712928 C 18.292132,13.712928 17.897597,13.904069 17.608436,14.286350 C 17.324175,14.668631 17.182045,15.144033 17.182045,15.712554 C 17.182045,16.075231 17.245758,16.413403 17.373186,16.727069 C 17.500612,17.035835 17.684402,17.280887 17.924553,17.462226 C 18.169605,17.643565 18.458766,17.734234 18.792037,17.734234 C 19.296845,17.734234 19.691379,17.543093 19.975639,17.160812 C 20.259900,16.773629 20.402030,16.290877 20.402030,15.712554 C 20.402030,15.139131 20.259900,14.663730 19.975639,14.286350 C 19.691379,13.904069 19.296845,13.712928 18.792037,13.712928 z M 8.3307612,18.366468 C 8.3307612,18.033197 8.4238810,17.758739 8.6101207,17.543093 C 8.8012613,17.327447 9.0316104,17.219624 9.3011677,17.219624 C 9.4629021,17.219624 9.6172850,17.249030 9.7643163,17.307843 C 9.9113476,17.361755 10.107389,17.449973 10.352441,17.572499 C 10.602394,17.690124 10.808239,17.775893 10.969973,17.829804 C 11.131707,17.883716 11.327749,17.910671 11.558098,17.910671 C 11.783547,17.910671 11.950181,17.866562 12.058005,17.778343 C 12.165827,17.685223 12.219739,17.570049 12.219739,17.432820 C 12.219739,17.310294 12.185431,17.209822 12.116817,17.131405 C 12.048202,17.052989 11.957532,16.989275 11.844809,16.940265 C 11.732085,16.886353 11.572801,16.820189 11.366957,16.741773 C 11.161114,16.663356 10.837644,16.535929 10.396551,16.359491 C 9.9358528,16.163450 9.5805272,15.979660 9.3305739,15.808124 C 9.0806208,15.631686 8.8870296,15.408689 8.7498004,15.139131 C 8.6125712,14.864673 8.5439566,14.524051 8.5439566,14.117264 C 8.5439566,13.656566 8.6664827,13.220373 8.9115348,12.808686 C 9.1614880,12.396998 9.5168136,12.066178 9.9775116,11.816224 C 10.443110,11.561370 10.974873,11.433943 11.572801,11.433943 C 11.827656,11.433943 12.111915,11.465800 12.425582,11.529513 C 12.739249,11.588326 13.035762,11.688797 13.315122,11.830928 C 13.599382,11.968157 13.829731,12.144594 14.006169,12.360240 C 14.187507,12.575886 14.278177,12.830740 14.278177,13.124803 C 14.278177,13.315944 14.234068,13.489931 14.145849,13.646764 C 14.062531,13.798696 13.944906,13.916321 13.792974,13.999639 C 13.645943,14.078056 13.481757,14.117264 13.300419,14.117264 C 13.202398,14.117264 13.094574,14.095209 12.976949,14.051100 C 12.864226,14.006991 12.702491,13.935925 12.491747,13.837905 C 12.285903,13.739884 12.097213,13.663918 11.925676,13.610006 C 11.754140,13.556095 11.585053,13.529139 11.418418,13.529139 C 11.246882,13.529139 11.099851,13.570798 10.977324,13.654116 C 10.859699,13.737433 10.800886,13.862410 10.800886,14.029045 C 10.800886,14.220186 10.992027,14.396623 11.374309,14.558358 C 11.756590,14.715191 12.200135,14.896530 12.704943,15.102374 C 13.214651,15.308217 13.636140,15.585126 13.969411,15.933100 C 14.307583,16.281075 14.476669,16.749124 14.476669,17.337249 C 14.476669,17.876364 14.341890,18.349315 14.072333,18.756101 C 13.802776,19.157987 13.435198,19.466752 12.969598,19.682398 C 12.508901,19.898044 12.006544,20.005867 11.462527,20.005867 C 10.663657,20.005867 9.9407539,19.856385 9.2938162,19.557422 C 8.6517795,19.253557 8.3307612,18.856573 8.3307612,18.366468 z " />
  </g>
  <metadata
     id="metadata15">
    <rdf:RDF
       id="RDF16">
      <cc:Work
         rdf:about=""
         id="Work17">
        <dc:title
           id="title18">Part of the Flat Icon Collection (Thu Aug 26 14:40:35 2004)</dc:title>
        <dc:description
           id="description20" />
        <dc:subject
           id="subject21">
          <rdf:Bag
             id="Bag22">
            <rdf:li
               id="li23" />
          </rdf:Bag>
        </dc:subject>
        <dc:publisher
           id="publisher24">
          <cc:Agent
             rdf:about=""
             id="Agent25">
            <dc:title
               id="title26" />
          </cc:Agent>
        </dc:publisher>
        <dc:creator
           id="creator27">
          <cc:Agent
             rdf:about=""
             id="Agent28">
            <dc:title
               id="title29">Danny Allen</dc:title>
          </cc:Agent>
        </dc:creator>
        <dc:rights
           id="rights31">
          <cc:Agent
             rdf:about=""
             id="Agent32">
            <dc:title
               id="title33">Danny Allen</dc:title>
          </cc:Agent>
        </dc:rights>
        <dc:date
           id="date35" />
        <dc:format
           id="format36">image/svg+xml</dc:format>
        <dc:type
           rdf:resource="http://purl.org/dc/dcmitype/StillImage"
           id="type38" />
        <cc:license
           rdf:resource="http://creativecommons.org/licenses/LGPL/2.1/"
           id="license39">
          <dc:date
             id="date40" />
        </cc:license>
        <dc:language
           id="language41">en</dc:language>
      </cc:Work>
    </rdf:RDF>
  </metadata>
</svg>
