<?xml version="1.0" encoding="UTF-8" standalone="no"?>
<!DOCTYPE svg PUBLIC "-//W3C//DTD SVG 20010904//EN"
"http://www.w3.org/TR/2001/REC-SVG-20010904/DTD/svg10.dtd">
<svg
   sodipodi:docname="source_y.svg"
   height="60.0000000"
   sodipodi:version="0.32"
   width="60.0000000"
   _SVGFile__filename="scalable/mimetypes/source_y.svg"
   version="1.0"
   y="0"
   x="0"
   inkscape:version="0.39"
   id="svg1"
   sodipodi:docbase="/home/danny/work/flat/newscale/mimetypes"
   xmlns="http://www.w3.org/2000/svg"
   xmlns:cc="http://web.resource.org/cc/"
   xmlns:inkscape="http://www.inkscape.org/namespaces/inkscape"
   xmlns:sodipodi="http://sodipodi.sourceforge.net/DTD/sodipodi-0.dtd"
   xmlns:rdf="http://www.w3.org/1999/02/22-rdf-syntax-ns#"
   xmlns:dc="http://purl.org/dc/elements/1.1/"
   xmlns:xlink="http://www.w3.org/1999/xlink">
  <sodipodi:namedview
     bordercolor="#666666"
     inkscape:pageshadow="2"
     inkscape:window-y="0"
     snaptoguides="true"
     pagecolor="#ffffff"
     inkscape:window-height="685"
     inkscape:zoom="6.9465337"
     inkscape:window-x="0"
     borderopacity="1.0"
     inkscape:cx="37.697540"
     inkscape:cy="36.490183"
     inkscape:window-width="1016"
     inkscape:pageopacity="0.0"
     id="base"
     showguides="true" />
  <defs
     id="defs3">
    <linearGradient
       id="linearGradient900">
      <stop
         style="stop-color:#000;stop-opacity:1;"
         id="stop901"
         offset="0" />
      <stop
         style="stop-color:#fff;stop-opacity:1;"
         id="stop902"
         offset="1" />
    </linearGradient>
    <linearGradient
       xlink:href="#linearGradient900"
       id="linearGradient903" />
    <linearGradient
       xlink:href="#linearGradient900"
       id="linearGradient904" />
    <linearGradient
       xlink:href="#linearGradient900"
       id="linearGradient905" />
    <linearGradient
       xlink:href="#linearGradient900"
       id="linearGradient906" />
    <linearGradient
       xlink:href="#linearGradient900"
       id="linearGradient907" />
  </defs>
  <path
     style="font-size:12.000000;fill:#b3b3b3;fill-opacity:1.0000000;fill-rule:evenodd;stroke:#333333;stroke-width:3.1250000;stroke-linecap:round;stroke-linejoin:round;stroke-opacity:1.0000000;"
     d="M 6.6785922,5.1165123 C 5.5705922,5.1165123 4.6785922,6.0085123 4.6785922,7.1165123 L 4.6785922,53.501354 C 4.6785922,54.609354 5.5705922,55.501354 6.6785922,55.501354 L 53.423324,55.501354 C 54.531324,55.501354 55.423324,54.609354 55.423324,53.501354 L 55.423324,7.1165123 C 55.423324,6.0085123 54.531324,5.1165123 53.423324,5.1165123 L 6.6785922,5.1165123 z "
     id="rect812" />
  <path
     id="path841"
     style="font-size:12.000000;font-weight:900;fill:#333333;stroke-width:1.0000000pt;font-family:VAG Rounded Black SSi;"
     d="M 26.395409,48.133027 L 26.395409,36.593824 L 20.075276,28.027508 C 18.739311,26.118990 17.902500,24.871113 17.564838,24.283877 C 17.227176,23.696640 17.058345,23.065359 17.058345,22.390037 C 17.058345,21.421096 17.425367,20.628326 18.159415,20.011728 C 18.908142,19.395129 19.833037,19.086830 20.934107,19.086830 C 21.785602,19.086830 22.482946,19.314384 23.026139,19.769492 C 23.584012,20.224601 24.119865,20.826518 24.633698,21.575245 L 30.050956,29.370812 L 35.468218,21.575245 C 35.996731,20.797157 36.525244,20.187899 37.053757,19.747471 C 37.582270,19.307044 38.286954,19.086830 39.167809,19.086830 C 40.268875,19.086830 41.186434,19.387789 41.920482,19.989706 C 42.669206,20.591624 43.043571,21.391734 43.043571,22.390037 C 43.043571,23.065359 42.867400,23.703980 42.515058,24.305897 C 42.177396,24.907813 41.347925,26.148350 40.026641,28.027508 L 33.706508,36.593824 L 33.706508,48.133027 C 33.706508,49.410264 33.368846,50.386547 32.693522,51.061871 C 32.032881,51.722511 31.152026,52.052830 30.050956,52.052830 C 28.979250,52.052830 28.098395,51.715171 27.408391,51.039847 C 26.733071,50.349843 26.395409,49.380904 26.395409,48.133027 z " />
  <path
     id="path840"
     style="font-size:12.000000;font-weight:900;fill:#333333;stroke-width:1.0000000pt;font-family:VAG Rounded Black SSi;"
     d="M 50.624312,13.620037 L 46.382458,13.620037 C 46.382458,13.938605 46.529490,14.240019 46.823553,14.524279 C 47.117615,14.803639 47.597917,14.943319 48.264459,14.943319 C 48.607532,14.943319 48.891792,14.899209 49.117241,14.810990 C 49.342688,14.722772 49.619598,14.597795 49.947967,14.436061 C 50.281238,14.269425 50.521390,14.186107 50.668421,14.186107 C 50.942879,14.186107 51.175679,14.281678 51.366820,14.472818 C 51.557960,14.663959 51.653530,14.911462 51.653530,15.215326 C 51.653530,15.578004 51.472192,15.908824 51.109515,16.207788 C 50.751738,16.501850 50.288590,16.727298 49.720069,16.884132 C 49.151548,17.045866 48.565874,17.126733 47.963045,17.126733 C 47.340612,17.126733 46.776993,17.018910 46.272186,16.803264 C 45.772279,16.587618 45.338536,16.283754 44.970958,15.891670 C 44.608281,15.494686 44.331373,15.033988 44.140232,14.509576 C 43.949091,13.980264 43.853520,13.421545 43.853520,12.833420 C 43.853520,12.279602 43.953993,11.740487 44.154935,11.216075 C 44.355877,10.691664 44.640139,10.230966 45.007716,9.8339813 C 45.375294,9.4369967 45.813937,9.1257805 46.323646,8.9003325 C 46.833354,8.6699836 47.379821,8.5548090 47.963045,8.5548090 C 48.712904,8.5548090 49.376996,8.7434991 49.955320,9.1208795 C 50.533642,9.4982598 50.979637,9.9932652 51.293304,10.605895 C 51.611871,11.218526 51.771155,11.875266 51.771155,12.576115 C 51.771155,12.978000 51.680487,13.252459 51.499147,13.399490 C 51.317809,13.546521 51.026197,13.620037 50.624312,13.620037 z M 46.382458,11.987990 L 49.418655,11.987990 C 49.418655,11.801750 49.352491,11.595906 49.220162,11.370458 C 49.087834,11.140109 48.906496,10.948968 48.676146,10.797036 C 48.450699,10.640203 48.193394,10.561786 47.904233,10.561786 C 47.615071,10.561786 47.352865,10.640203 47.117615,10.797036 C 46.887266,10.953870 46.705928,11.145010 46.573599,11.370458 C 46.446173,11.591005 46.382458,11.796849 46.382458,11.987990 z M 36.884238,12.833420 C 36.884238,12.054154 37.050872,11.336151 37.384143,10.679411 C 37.717414,10.017770 38.183014,9.4982598 38.780942,9.1208795 C 39.383769,8.7434991 40.069915,8.5548090 40.839380,8.5548090 C 41.246165,8.5548090 41.665205,8.6038194 42.096497,8.7018403 C 42.527789,8.7949602 42.890465,8.9566945 43.184528,9.1870436 C 43.478590,9.4173926 43.625622,9.7286088 43.625622,10.120692 C 43.625622,10.434359 43.532502,10.696565 43.346263,10.907310 C 43.164924,11.118055 42.937026,11.223427 42.662568,11.223427 C 42.530239,11.223427 42.400361,11.201372 42.272935,11.157263 C 42.150409,11.113153 42.025431,11.066594 41.898005,11.017583 C 41.775478,10.963672 41.643151,10.919562 41.501019,10.885255 C 41.363790,10.850948 41.189804,10.833794 40.979059,10.833794 C 40.596777,10.833794 40.273309,10.924463 40.008652,11.105802 C 39.748897,11.282239 39.552855,11.522391 39.420527,11.826255 C 39.293100,12.125219 39.229387,12.460940 39.229387,12.833420 C 39.229387,13.196097 39.293100,13.534269 39.420527,13.847935 C 39.547955,14.156701 39.731743,14.401753 39.971894,14.583092 C 40.216947,14.764431 40.506109,14.855100 40.839380,14.855100 C 41.216760,14.855100 41.596590,14.784035 41.978872,14.641904 C 42.361153,14.499774 42.589052,14.428709 42.662568,14.428709 C 42.839005,14.428709 43.000739,14.480170 43.147770,14.583092 C 43.294802,14.686014 43.409976,14.820792 43.493294,14.987428 C 43.581513,15.149162 43.625622,15.315798 43.625622,15.487334 C 43.625622,15.850011 43.466339,16.156327 43.147770,16.406280 C 42.834103,16.656233 42.459174,16.837572 42.022981,16.950296 C 41.586788,17.067921 41.192255,17.126733 40.839380,17.126733 C 40.256155,17.126733 39.721942,17.018910 39.236738,16.803264 C 38.756435,16.587618 38.337397,16.281303 37.979621,15.884319 C 37.621845,15.482433 37.349837,15.021735 37.163597,14.502225 C 36.977358,13.977813 36.884238,13.421545 36.884238,12.833420 z M 31.899877,15.737288 L 31.899877,9.9295515 C 31.899877,9.5815775 32.007700,9.2924159 32.223345,9.0620670 C 32.443892,8.8268169 32.725703,8.7091919 33.068775,8.7091919 C 33.353036,8.7091919 33.598088,8.7851581 33.803932,8.9370904 C 34.014677,9.0841217 34.161708,9.2581087 34.245026,9.4590514 C 34.749833,8.8562232 35.291399,8.5548090 35.869721,8.5548090 C 36.188289,8.5548090 36.467649,8.6699836 36.707800,8.9003325 C 36.952852,9.1257805 37.075379,9.4173926 37.075379,9.7751688 C 37.075379,10.142747 36.960204,10.409854 36.729855,10.576489 C 36.504407,10.743125 36.129476,10.902409 35.605066,11.054341 C 35.070851,11.206273 34.710625,11.397414 34.524386,11.627763 C 34.338146,11.853211 34.245026,12.259997 34.245026,12.848123 L 34.245026,15.737288 C 34.245026,16.085262 34.134753,16.379324 33.914205,16.619475 C 33.698559,16.854725 33.416750,16.972350 33.068775,16.972350 C 32.725703,16.972350 32.443892,16.854725 32.223345,16.619475 C 32.007700,16.379324 31.899877,16.085262 31.899877,15.737288 z M 30.811845,9.9295515 L 30.811845,13.965560 C 30.811845,14.671311 30.650111,15.259436 30.326641,15.729936 C 30.003173,16.200436 29.566981,16.550861 29.018064,16.781210 C 28.469147,17.011559 27.851615,17.126733 27.165469,17.126733 C 26.479323,17.126733 25.861792,17.011559 25.312875,16.781210 C 24.768859,16.550861 24.335117,16.200436 24.011648,15.729936 C 23.688180,15.259436 23.526445,14.671311 23.526445,13.965560 L 23.526445,9.9295515 C 23.526445,9.5815775 23.634268,9.2924159 23.849914,9.0620670 C 24.070460,8.8268169 24.352271,8.7091919 24.695343,8.7091919 C 25.043318,8.7091919 25.325127,8.8268169 25.540773,9.0620670 C 25.761321,9.2924159 25.871594,9.5815775 25.871594,9.9295515 L 25.871594,13.634740 C 25.871594,14.046428 26.001472,14.367446 26.261227,14.597795 C 26.525884,14.828144 26.827297,14.943319 27.165469,14.943319 C 27.498740,14.943319 27.797703,14.828144 28.062360,14.597795 C 28.327016,14.362545 28.459344,14.041527 28.459344,13.634740 L 28.459344,9.9295515 C 28.459344,9.5864785 28.569618,9.2973171 28.790165,9.0620670 C 29.010712,8.8268169 29.292522,8.7091919 29.635595,8.7091919 C 29.978668,8.7091919 30.260478,8.8268169 30.481025,9.0620670 C 30.701572,9.2924159 30.811845,9.5815775 30.811845,9.9295515 z M 18.792037,8.5548090 C 19.380162,8.5548090 19.916826,8.6650824 20.402030,8.8856294 C 20.892134,9.1012753 21.311174,9.4051400 21.659147,9.7972234 C 22.012022,10.189307 22.281580,10.642653 22.467820,11.157263 C 22.658960,11.666971 22.754530,12.225690 22.754530,12.833420 C 22.754530,13.622487 22.587896,14.347842 22.254625,15.009483 C 21.926254,15.666222 21.460655,16.183282 20.857826,16.560663 C 20.254999,16.938043 19.566403,17.126733 18.792037,17.126733 C 18.208813,17.126733 17.674600,17.018910 17.189396,16.803264 C 16.709094,16.587618 16.290054,16.281303 15.932279,15.884319 C 15.574503,15.482433 15.302495,15.021735 15.116256,14.502225 C 14.930015,13.977813 14.836895,13.421545 14.836895,12.833420 C 14.836895,12.054154 15.003531,11.336151 15.336802,10.679411 C 15.670073,10.017770 16.135673,9.4982598 16.733599,9.1208795 C 17.336428,8.7434991 18.022574,8.5548090 18.792037,8.5548090 z M 18.792037,10.833794 C 18.292132,10.833794 17.897597,11.024935 17.608436,11.407216 C 17.324175,11.789497 17.182045,12.264899 17.182045,12.833420 C 17.182045,13.196097 17.245758,13.534269 17.373186,13.847935 C 17.500612,14.156701 17.684402,14.401753 17.924553,14.583092 C 18.169605,14.764431 18.458766,14.855100 18.792037,14.855100 C 19.296845,14.855100 19.691379,14.663959 19.975639,14.281678 C 20.259900,13.894495 20.402030,13.411743 20.402030,12.833420 C 20.402030,12.259997 20.259900,11.784596 19.975639,11.407216 C 19.691379,11.024935 19.296845,10.833794 18.792037,10.833794 z M 8.3307612,15.487334 C 8.3307612,15.154063 8.4238810,14.879605 8.6101207,14.663959 C 8.8012613,14.448313 9.0316104,14.340490 9.3011677,14.340490 C 9.4629021,14.340490 9.6172850,14.369896 9.7643163,14.428709 C 9.9113476,14.482621 10.107389,14.570839 10.352441,14.693365 C 10.602394,14.810990 10.808239,14.896759 10.969973,14.950670 C 11.131707,15.004582 11.327749,15.031537 11.558098,15.031537 C 11.783547,15.031537 11.950181,14.987428 12.058005,14.899209 C 12.165827,14.806089 12.219739,14.690915 12.219739,14.553686 C 12.219739,14.431160 12.185431,14.330688 12.116817,14.252271 C 12.048202,14.173855 11.957532,14.110141 11.844809,14.061131 C 11.732085,14.007219 11.572801,13.941055 11.366957,13.862639 C 11.161114,13.784222 10.837644,13.656795 10.396551,13.480357 C 9.9358528,13.284316 9.5805272,13.100526 9.3305739,12.928990 C 9.0806208,12.752552 8.8870296,12.529555 8.7498004,12.259997 C 8.6125712,11.985539 8.5439566,11.644917 8.5439566,11.238130 C 8.5439566,10.777432 8.6664827,10.341239 8.9115348,9.9295515 C 9.1614880,9.5178639 9.5168136,9.1870436 9.9775116,8.9370904 C 10.443110,8.6822361 10.974873,8.5548090 11.572801,8.5548090 C 11.827656,8.5548090 12.111915,8.5866658 12.425582,8.6503794 C 12.739249,8.7091919 13.035762,8.8096632 13.315122,8.9517936 C 13.599382,9.0890228 13.829731,9.2654603 14.006169,9.4811062 C 14.187507,9.6967521 14.278177,9.9516063 14.278177,10.245669 C 14.278177,10.436810 14.234068,10.610797 14.145849,10.767630 C 14.062531,10.919562 13.944906,11.037187 13.792974,11.120505 C 13.645943,11.198922 13.481757,11.238130 13.300419,11.238130 C 13.202398,11.238130 13.094574,11.216075 12.976949,11.171966 C 12.864226,11.127857 12.702491,11.056791 12.491747,10.958771 C 12.285903,10.860750 12.097213,10.784784 11.925676,10.730872 C 11.754140,10.676961 11.585053,10.650005 11.418418,10.650005 C 11.246882,10.650005 11.099851,10.691664 10.977324,10.774982 C 10.859699,10.858299 10.800886,10.983276 10.800886,11.149911 C 10.800886,11.341052 10.992027,11.517489 11.374309,11.679224 C 11.756590,11.836057 12.200135,12.017396 12.704943,12.223240 C 13.214651,12.429083 13.636140,12.705992 13.969411,13.053966 C 14.307583,13.401941 14.476669,13.869990 14.476669,14.458115 C 14.476669,14.997230 14.341890,15.470181 14.072333,15.876967 C 13.802776,16.278853 13.435198,16.587618 12.969598,16.803264 C 12.508901,17.018910 12.006544,17.126733 11.462527,17.126733 C 10.663657,17.126733 9.9407539,16.977251 9.2938162,16.678288 C 8.6517795,16.374423 8.3307612,15.977439 8.3307612,15.487334 z " />
  <metadata
     id="metadata15">
    <rdf:RDF
       id="RDF16">
      <cc:Work
         rdf:about=""
         id="Work17">
        <dc:title
           id="title18">Part of the Flat Icon Collection (Thu Aug 26 14:40:35 2004)</dc:title>
        <dc:description
           id="description20" />
        <dc:subject
           id="subject21">
          <rdf:Bag
             id="Bag22">
            <rdf:li
               id="li23" />
          </rdf:Bag>
        </dc:subject>
        <dc:publisher
           id="publisher24">
          <cc:Agent
             rdf:about=""
             id="Agent25">
            <dc:title
               id="title26" />
          </cc:Agent>
        </dc:publisher>
        <dc:creator
           id="creator27">
          <cc:Agent
             rdf:about=""
             id="Agent28">
            <dc:title
               id="title29">Danny Allen</dc:title>
          </cc:Agent>
        </dc:creator>
        <dc:rights
           id="rights31">
          <cc:Agent
             rdf:about=""
             id="Agent32">
            <dc:title
               id="title33">Danny Allen</dc:title>
          </cc:Agent>
        </dc:rights>
        <dc:date
           id="date35" />
        <dc:format
           id="format36">image/svg+xml</dc:format>
        <dc:type
           rdf:resource="http://purl.org/dc/dcmitype/StillImage"
           id="type38" />
        <cc:license
           rdf:resource="http://creativecommons.org/licenses/LGPL/2.1/"
           id="license39">
          <dc:date
             id="date40" />
        </cc:license>
        <dc:language
           id="language41">en</dc:language>
      </cc:Work>
    </rdf:RDF>
  </metadata>
</svg>
