<?xml version="1.0" encoding="UTF-8" standalone="no"?>
<!DOCTYPE svg PUBLIC "-//W3C//DTD SVG 20010904//EN"
"http://www.w3.org/TR/2001/REC-SVG-20010904/DTD/svg10.dtd">
<svg
   sodipodi:docname="sql.svg"
   height="60.0000000"
   sodipodi:version="0.32"
   width="60.0000000"
   _SVGFile__filename="scalable/mimetypes/sql.svg"
   version="1.0"
   y="0"
   x="0"
   inkscape:version="0.39"
   id="svg1"
   sodipodi:docbase="/home/danny/work/flat/newscale/mimetypes"
   xmlns="http://www.w3.org/2000/svg"
   xmlns:cc="http://web.resource.org/cc/"
   xmlns:inkscape="http://www.inkscape.org/namespaces/inkscape"
   xmlns:sodipodi="http://sodipodi.sourceforge.net/DTD/sodipodi-0.dtd"
   xmlns:rdf="http://www.w3.org/1999/02/22-rdf-syntax-ns#"
   xmlns:dc="http://purl.org/dc/elements/1.1/"
   xmlns:xlink="http://www.w3.org/1999/xlink">
  <sodipodi:namedview
     bordercolor="#666666"
     inkscape:pageshadow="2"
     inkscape:window-y="0"
     pagecolor="#ffffff"
     inkscape:window-height="685"
     inkscape:zoom="6.9465337"
     inkscape:window-x="0"
     borderopacity="1.0"
     inkscape:cx="37.697540"
     inkscape:cy="31.806367"
     inkscape:window-width="1016"
     inkscape:pageopacity="0.0"
     id="base" />
  <defs
     id="defs3">
    <linearGradient
       id="linearGradient900">
      <stop
         style="stop-color:#000;stop-opacity:1;"
         id="stop901"
         offset="0" />
      <stop
         style="stop-color:#fff;stop-opacity:1;"
         id="stop902"
         offset="1" />
    </linearGradient>
    <linearGradient
       xlink:href="#linearGradient900"
       id="linearGradient903" />
    <linearGradient
       xlink:href="#linearGradient900"
       id="linearGradient904" />
    <linearGradient
       xlink:href="#linearGradient900"
       id="linearGradient905" />
    <linearGradient
       xlink:href="#linearGradient900"
       id="linearGradient906" />
    <linearGradient
       xlink:href="#linearGradient900"
       id="linearGradient907" />
  </defs>
  <path
     style="font-size:12.000000;fill:#b3b3b3;fill-opacity:1.0000000;fill-rule:evenodd;stroke:#333333;stroke-width:3.1250000;stroke-linecap:round;stroke-linejoin:round;stroke-opacity:1.0000000;"
     d="M 6.6785936,5.1165118 C 5.5705936,5.1165118 4.6785936,6.0085118 4.6785936,7.1165118 L 4.6785936,53.501354 C 4.6785936,54.609354 5.5705936,55.501354 6.6785936,55.501354 L 53.423326,55.501354 C 54.531326,55.501354 55.423326,54.609354 55.423326,53.501354 L 55.423326,7.1165118 C 55.423326,6.0085118 54.531326,5.1165118 53.423326,5.1165118 L 6.6785936,5.1165118 z "
     id="rect812" />
  <path
     id="path839"
     style="font-size:12.000000;font-weight:900;fill:#333333;fill-opacity:1.0000000;stroke-width:1.0000000pt;font-family:VAG Rounded Black SSi;"
     d="M 40.876572,36.511844 L 40.876572,23.080064 C 40.876572,22.403956 41.057393,21.885080 41.419034,21.523441 C 41.780673,21.161800 42.252377,20.980981 42.834147,20.980981 C 43.423775,20.980981 43.895480,21.157869 44.249259,21.511647 C 44.610898,21.865427 44.791719,22.388231 44.791719,23.080064 L 44.791719,34.825502 L 48.989886,34.825502 C 49.603103,34.825502 50.082668,34.986667 50.428585,35.308998 C 50.774501,35.623468 50.947460,36.071586 50.947460,36.653356 C 50.947460,37.219401 50.774501,37.667520 50.428585,37.997714 C 50.082668,38.327906 49.603103,38.493002 48.989886,38.493002 L 42.834147,38.493002 C 42.307410,38.493002 41.847497,38.316114 41.454411,37.962336 C 41.069185,37.600695 40.876572,37.117199 40.876572,36.511844 z M 36.324627,38.728855 L 35.286878,37.820824 C 34.060447,38.528381 32.621748,38.882159 30.970782,38.882159 C 29.712904,38.882159 28.561160,38.669892 27.515548,38.245359 C 26.469937,37.820824 25.573700,37.211540 24.826834,36.417503 C 24.087830,35.623468 23.517854,34.664337 23.116907,33.540108 C 22.715958,32.408017 22.515482,31.161931 22.515482,29.801851 C 22.515482,28.441771 22.715958,27.199615 23.116907,26.075388 C 23.525717,24.943298 24.099624,23.984164 24.838626,23.197991 C 25.577631,22.411817 26.469937,21.806463 27.515548,21.381929 C 28.561160,20.957396 29.712904,20.745128 30.970782,20.745128 C 32.228660,20.745128 33.380405,20.957396 34.426016,21.381929 C 35.479490,21.806463 36.371797,22.411817 37.102938,23.197991 C 37.841942,23.984164 38.411918,24.943298 38.812867,26.075388 C 39.221678,27.199615 39.426082,28.441771 39.426082,29.801851 C 39.426082,32.034584 38.911139,33.909610 37.881250,35.426925 L 38.812867,36.252407 C 39.308155,36.661217 39.642280,37.007134 39.815239,37.290156 C 39.988196,37.565318 40.074676,37.860132 40.074676,38.174602 C 40.074676,38.654169 39.917441,39.055116 39.602972,39.377449 C 39.288502,39.707641 38.907208,39.872737 38.459087,39.872737 C 38.231098,39.872737 38.018830,39.841290 37.822287,39.778396 C 37.633605,39.715502 37.429201,39.605439 37.209073,39.448204 C 36.988944,39.290969 36.694127,39.051186 36.324627,38.728855 z M 30.970782,24.389044 C 30.019512,24.389044 29.221546,24.640620 28.576883,25.143771 C 27.932221,25.646922 27.460517,26.315170 27.161770,27.148515 C 26.863025,27.973997 26.713651,28.858442 26.713651,29.801851 C 26.713651,30.753121 26.863025,31.645429 27.161770,32.478772 C 27.460517,33.312118 27.932221,33.980365 28.576883,34.483516 C 29.221546,34.986667 30.019512,35.238243 30.970782,35.238243 C 31.411039,35.238243 31.804127,35.179280 32.150044,35.061353 L 32.102872,35.037769 C 31.599721,34.589649 31.265598,34.231941 31.100500,33.964640 C 30.935404,33.697342 30.852857,33.410389 30.852857,33.103781 C 30.852857,32.616354 31.006160,32.215405 31.312768,31.900935 C 31.627237,31.578605 32.012462,31.417437 32.468444,31.417437 C 32.806499,31.417437 33.117038,31.492125 33.400061,31.641499 C 33.690944,31.790870 34.087961,32.093548 34.591112,32.549528 L 34.709039,32.643868 C 35.047094,31.794801 35.216121,30.847461 35.216121,29.801851 C 35.216121,28.826995 35.066749,27.930758 34.768002,27.113137 C 34.469257,26.295517 33.997553,25.639061 33.352889,25.143771 C 32.716089,24.640620 31.922054,24.389044 30.970782,24.389044 z M 9.1544587,36.028348 C 9.1544587,35.454441 9.3195553,34.963082 9.6497483,34.554271 C 9.9799414,34.137600 10.428060,33.929263 10.994105,33.929263 C 11.253543,33.929263 11.666284,34.039328 12.232329,34.259457 C 12.798374,34.471724 13.285802,34.640751 13.694613,34.766539 C 14.111285,34.884465 14.618367,34.943429 15.215859,34.943429 C 15.931277,34.943429 16.454083,34.786194 16.784276,34.471724 C 17.122331,34.157255 17.291358,33.768098 17.291358,33.304254 C 17.291358,32.981924 17.204879,32.714626 17.031920,32.502358 C 16.858962,32.282229 16.623110,32.097478 16.324364,31.948105 C 16.025618,31.790870 15.593222,31.621843 15.027177,31.441023 C 14.461132,31.260202 13.977635,31.106900 13.576687,30.981113 C 12.759066,30.721674 12.059371,30.430790 11.477602,30.108459 C 10.895834,29.778265 10.412337,29.306561 10.027112,28.693346 C 9.6418865,28.072268 9.4492740,27.274303 9.4492740,26.299447 C 9.4492740,25.080877 9.7283657,24.054920 10.286549,23.221576 C 10.852594,22.388231 11.603390,21.767155 12.538937,21.358345 C 13.474484,20.949534 14.504372,20.745128 15.628600,20.745128 C 17.169501,20.745128 18.368416,20.984912 19.225346,21.464478 C 20.082275,21.944043 20.510740,22.572982 20.510740,23.351295 C 20.510740,23.878032 20.345642,24.322220 20.015450,24.683859 C 19.693119,25.037638 19.276447,25.214526 18.765434,25.214526 C 18.411656,25.214526 17.924228,25.100532 17.303151,24.872540 C 16.682073,24.644550 16.060996,24.530555 15.439919,24.530555 C 14.905320,24.530555 14.472925,24.664206 14.142732,24.931504 C 13.812539,25.198804 13.647442,25.540790 13.647442,25.957461 C 13.647442,26.201176 13.706405,26.397719 13.824331,26.547092 C 13.950119,26.688602 14.170248,26.834045 14.484717,26.983417 C 14.807049,27.132790 15.290546,27.313611 15.935208,27.525878 C 16.587732,27.738144 17.047644,27.891448 17.314943,27.985789 C 18.612130,28.410324 19.634156,28.992091 20.381022,29.731096 C 21.127886,30.462237 21.501318,31.578605 21.501318,33.080195 C 21.501318,34.982737 20.888104,36.425366 19.661672,37.408083 C 18.435241,38.390800 16.858962,38.882159 14.932836,38.882159 C 14.075907,38.882159 13.203254,38.776024 12.314878,38.563759 C 11.434363,38.351491 10.687498,38.025230 10.074282,37.584973 C 9.4610666,37.144715 9.1544587,36.625840 9.1544587,36.028348 z " />
  <metadata
     id="metadata14">
    <rdf:RDF
       id="RDF15">
      <cc:Work
         rdf:about=""
         id="Work16">
        <dc:title
           id="title17">Part of the Flat Icon Collection (Thu Aug 26 14:40:35 2004)</dc:title>
        <dc:description
           id="description19" />
        <dc:subject
           id="subject20">
          <rdf:Bag
             id="Bag21">
            <rdf:li
               id="li22" />
          </rdf:Bag>
        </dc:subject>
        <dc:publisher
           id="publisher23">
          <cc:Agent
             rdf:about=""
             id="Agent24">
            <dc:title
               id="title25" />
          </cc:Agent>
        </dc:publisher>
        <dc:creator
           id="creator26">
          <cc:Agent
             rdf:about=""
             id="Agent27">
            <dc:title
               id="title28">Danny Allen</dc:title>
          </cc:Agent>
        </dc:creator>
        <dc:rights
           id="rights30">
          <cc:Agent
             rdf:about=""
             id="Agent31">
            <dc:title
               id="title32">Danny Allen</dc:title>
          </cc:Agent>
        </dc:rights>
        <dc:date
           id="date34" />
        <dc:format
           id="format35">image/svg+xml</dc:format>
        <dc:type
           rdf:resource="http://purl.org/dc/dcmitype/StillImage"
           id="type37" />
        <cc:license
           rdf:resource="http://creativecommons.org/licenses/LGPL/2.1/"
           id="license38">
          <dc:date
             id="date39" />
        </cc:license>
        <dc:language
           id="language40">en</dc:language>
      </cc:Work>
    </rdf:RDF>
  </metadata>
</svg>
