<?xml version="1.0" encoding="UTF-8" standalone="no"?>
<!DOCTYPE svg PUBLIC "-//W3C//DTD SVG 20010904//EN"
"http://www.w3.org/TR/2001/REC-SVG-20010904/DTD/svg10.dtd">
<svg
   sodipodi:docname="vcard.svg"
   sodipodi:version="0.32"
   height="60.0000000"
   width="60.0000000"
   _SVGFile__filename="scalable/mimetypes/vcard.svg"
   version="1.0"
   y="0"
   x="0"
   inkscape:version="0.39"
   id="svg1"
   sodipodi:docbase="/home/danny/work/flat/newscale/mimetypes"
   xmlns="http://www.w3.org/2000/svg"
   xmlns:cc="http://web.resource.org/cc/"
   xmlns:inkscape="http://www.inkscape.org/namespaces/inkscape"
   xmlns:sodipodi="http://sodipodi.sourceforge.net/DTD/sodipodi-0.dtd"
   xmlns:rdf="http://www.w3.org/1999/02/22-rdf-syntax-ns#"
   xmlns:dc="http://purl.org/dc/elements/1.1/"
   xmlns:xlink="http://www.w3.org/1999/xlink">
  <sodipodi:namedview
     bordercolor="#666666"
     inkscape:pageshadow="2"
     inkscape:window-y="0"
     pagecolor="#ffffff"
     inkscape:window-height="685"
     inkscape:zoom="6.9465337"
     inkscape:window-x="0"
     borderopacity="1.0"
     inkscape:cx="37.697540"
     inkscape:cy="31.806367"
     inkscape:window-width="1016"
     inkscape:pageopacity="0.0"
     id="base" />
  <defs
     id="defs3">
    <linearGradient
       id="linearGradient900">
      <stop
         style="stop-color:#000;stop-opacity:1;"
         id="stop901"
         offset="0" />
      <stop
         style="stop-color:#fff;stop-opacity:1;"
         id="stop902"
         offset="1" />
    </linearGradient>
    <linearGradient
       xlink:href="#linearGradient900"
       id="linearGradient903" />
    <linearGradient
       xlink:href="#linearGradient900"
       id="linearGradient904" />
    <linearGradient
       xlink:href="#linearGradient900"
       id="linearGradient905" />
    <linearGradient
       xlink:href="#linearGradient900"
       id="linearGradient906" />
    <linearGradient
       xlink:href="#linearGradient900"
       id="linearGradient907" />
  </defs>
  <rect
     style="font-size:12;fill:#b3b3b3;fill-opacity:1;fill-rule:evenodd;stroke:none;stroke-width:3.125;stroke-opacity:1;stroke-dasharray:none;"
     sodipodi:fill-cmyk="(0 0 0 0.298039)"
     rx="2"
     height="50.38484192"
     width="50.74473190"
     y="5.11651238"
     x="4.67859221"
     id="rect812" />
  <path
     style="fill:#cccccc;fill-opacity:1.0000000;fill-rule:evenodd;stroke:none;stroke-width:1.8749989;stroke-dasharray:none;stroke-opacity:1.0000000;"
     d="M 15.781250 20.875000 C 14.637237 20.716169 13.596330 21.512237 13.437500 22.656250 L 10.500000 43.812500 C 10.341170 44.956511 11.137237 45.997420 12.281250 46.156250 L 53.656250 51.906250 C 54.383741 52.007253 54.991370 51.639342 55.437500 51.125000 L 55.437500 26.375000 L 15.781250 20.875000 z "
     id="path944" />
  <path
     style="fill:#4c4c4c;fill-opacity:1.0000000;fill-rule:evenodd;stroke:none;stroke-width:1.0000000pt;"
     d="M 13.906250,34.500000 C 12.759342,34.347513 11.743732,34.971881 11.625000,35.875000 L 11.031250,40.406250 C 10.912517,41.309368 11.728092,42.160014 12.875000,42.312500 L 54.375000,47.843750 C 54.772398,47.896585 55.102959,47.766081 55.437500,47.656250 L 55.437500,40.031250 C 55.427089,40.029743 55.416714,40.032641 55.406250,40.031250 L 13.906250,34.500000 z "
     id="path940" />
  <path
     style="fill:none;fill-opacity:1.0000000;fill-rule:evenodd;stroke:#4c4c4c;stroke-width:1.8749989;stroke-linecap:round;stroke-linejoin:round;stroke-opacity:1.0000000;"
     d="M 15.781250,20.875000 C 14.637236,20.716170 13.596330,21.512236 13.437500,22.656250 L 10.500000,43.812500 C 10.341170,44.956514 11.137236,45.997420 12.281250,46.156250 L 53.656250,51.906250 C 54.383742,52.007252 54.991370,51.639343 55.437500,51.125000 L 55.437500,26.375000 L 15.781250,20.875000 z "
     id="path942" />
  <path
     transform="matrix(1.164392,-0.205328,0.205328,1.164392,33.05738,-6.268548)"
     style="fill:#7f7f7f;fill-opacity:1.0000000;fill-rule:evenodd;stroke:#333333;stroke-width:2.1144204;stroke-linecap:round;stroke-linejoin:round;stroke-miterlimit:4.0000000;stroke-opacity:1.0000000;"
     d="M -25.228613,13.573968 C -26.205462,13.573968 -26.991879,14.360384 -26.991879,15.337233 L -26.991879,33.404207 C -26.991879,34.381056 -26.205462,35.167472 -25.228613,35.167472 L 10.113161,35.167472 C 11.090010,35.167472 11.876427,34.381056 11.876427,33.404207 L 11.876427,15.337233 C 11.876427,14.360384 11.090010,13.573968 10.113161,13.573968 L -25.228613,13.573968 z "
     id="rect1177" />
  <path
     id="path854"
     style="font-size:12.000000;font-weight:900;fill:#cccccc;stroke:#333333;stroke-width:0.87928576;font-family:VAG Rounded Black SSi;stroke-linejoin:round;stroke-linecap:round;stroke-miterlimit:4.0000000;stroke-dasharray:none;"
     transform="matrix(2.106222,-0.333185,0.333185,2.106222,73.61544,20.06289)"
     d="M -26.425701,-0.45299435 L -24.773357,-4.8533850 C -24.648357,-5.1580725 -24.519451,-5.3826818 -24.386639,-5.5272131 C -24.249920,-5.6717443 -24.017498,-5.7440100 -23.689373,-5.7440100 C -23.513592,-5.7440100 -23.353436,-5.6990881 -23.208904,-5.6092443 C -23.060467,-5.5233068 -22.945232,-5.4061193 -22.863201,-5.2576818 C -22.781170,-5.1131506 -22.740154,-4.9549475 -22.740154,-4.7830725 C -22.740154,-4.6541662 -22.808514,-4.4178381 -22.945232,-4.0740881 L -25.371014,1.9845057 C -25.503826,2.3282557 -25.638592,2.5880213 -25.775311,2.7638025 C -25.912029,2.9395838 -26.136639,3.0274744 -26.449139,3.0274744 C -26.671795,3.0274744 -26.849529,2.9805994 -26.982342,2.8868494 C -27.115154,2.7891932 -27.214764,2.6798182 -27.281170,2.5587244 C -27.347576,2.4376307 -27.431561,2.2462244 -27.533123,1.9845057 L -29.906170,-4.0740881 C -30.042889,-4.4139318 -30.111248,-4.6502600 -30.111248,-4.7830725 C -30.111248,-4.9549475 -30.070232,-5.1131506 -29.988201,-5.2576818 C -29.906170,-5.4061193 -29.792889,-5.5233068 -29.648357,-5.6092443 C -29.499920,-5.6990881 -29.337811,-5.7440100 -29.162029,-5.7440100 C -28.829998,-5.7440100 -28.595623,-5.6697912 -28.458904,-5.5213537 C -28.322186,-5.3729162 -28.197186,-5.1502600 -28.083904,-4.8533850 L -26.425701,-0.45299435 z " />
  <path
     id="path853"
     style="font-size:12.000000;font-weight:900;fill:#b3b3b3;stroke:#333333;stroke-width:0.56928480;font-family:VAG Rounded Black SSi;stroke-miterlimit:4.0000000;stroke-dasharray:none;stroke-linejoin:round;stroke-linecap:round;"
     transform="matrix(1.083323,-0.178121,0.178121,1.083323,70.17995,15.43509)"
     d="M -19.665005,1.6254416 L -19.665005,9.0609884 C -19.665005,9.3422384 -19.752895,9.5766134 -19.928677,9.7641134 C -20.104458,9.9516134 -20.329067,10.045363 -20.602505,10.045363 C -20.817348,10.045363 -20.998989,9.9867697 -21.147427,9.8695822 C -21.291958,9.7523947 -21.401333,9.6117697 -21.475552,9.4477072 C -21.686489,9.7055197 -21.920864,9.8891134 -22.178677,9.9984884 C -22.432583,10.111770 -22.735317,10.168410 -23.086880,10.168410 C -23.622036,10.168410 -24.110317,10.018020 -24.551723,9.7172384 C -24.989223,9.4125509 -25.336880,8.9984884 -25.594692,8.4750509 C -25.848598,7.9477072 -25.975552,7.3715353 -25.975552,6.7465353 C -25.975552,6.1293478 -25.848598,5.5590353 -25.594692,5.0355978 C -25.336880,4.5082541 -24.987270,4.0941916 -24.545864,3.7934103 C -24.104458,3.4887228 -23.618130,3.3363791 -23.086880,3.3363791 C -22.719692,3.3363791 -22.420864,3.3832541 -22.190395,3.4770041 C -21.956020,3.5707541 -21.739223,3.7016134 -21.540005,3.8695822 L -21.540005,1.6254416 C -21.540005,1.3480978 -21.452114,1.1156759 -21.276333,0.92817593 C -21.096645,0.73676968 -20.872036,0.64106655 -20.602505,0.64106655 C -20.332973,0.64106655 -20.110317,0.73481655 -19.934536,0.92231655 C -19.754848,1.1098166 -19.665005,1.3441916 -19.665005,1.6254416 z M -22.823208,5.1527853 C -23.221645,5.1527853 -23.536098,5.3051291 -23.766567,5.6098166 C -23.993130,5.9145041 -24.106411,6.2934103 -24.106411,6.7465353 C -24.106411,7.0355978 -24.055630,7.3051291 -23.954067,7.5551291 C -23.852505,7.8012228 -23.706020,7.9965353 -23.514614,8.1410666 C -23.319302,8.2855978 -23.088833,8.3578634 -22.823208,8.3578634 C -22.420864,8.3578634 -22.106411,8.2055197 -21.879848,7.9008322 C -21.653286,7.5922384 -21.540005,7.2074728 -21.540005,6.7465353 C -21.540005,6.2895041 -21.653286,5.9105978 -21.879848,5.6098166 C -22.106411,5.3051291 -22.420864,5.1527853 -22.823208,5.1527853 z M -29.948208,9.0609884 L -29.948208,4.4320822 C -29.948208,4.1547384 -29.862270,3.9242697 -29.690395,3.7406759 C -29.514614,3.5531759 -29.290005,3.4594259 -29.016567,3.4594259 C -28.790005,3.4594259 -28.594692,3.5199728 -28.430630,3.6410666 C -28.262661,3.7582541 -28.145473,3.8969259 -28.079067,4.0570822 C -27.676723,3.5766134 -27.245083,3.3363791 -26.784145,3.3363791 C -26.530239,3.3363791 -26.307583,3.4281759 -26.116177,3.6117697 C -25.920864,3.7914572 -25.823208,4.0238791 -25.823208,4.3090353 C -25.823208,4.6020041 -25.915005,4.8148947 -26.098598,4.9477072 C -26.278286,5.0805197 -26.577114,5.2074728 -26.995083,5.3285666 C -27.420864,5.4496603 -27.707973,5.6020041 -27.856411,5.7855978 C -28.004848,5.9652853 -28.079067,6.2895041 -28.079067,6.7582541 L -28.079067,9.0609884 C -28.079067,9.3383322 -28.166958,9.5727072 -28.342739,9.7641134 C -28.514614,9.9516134 -28.739223,10.045363 -29.016567,10.045363 C -29.290005,10.045363 -29.514614,9.9516134 -29.690395,9.7641134 C -29.862270,9.5727072 -29.948208,9.3383322 -29.948208,9.0609884 z M -30.780239,4.4320822 L -30.780239,9.0609884 C -30.780239,9.3422384 -30.868130,9.5766134 -31.043911,9.7641134 C -31.219692,9.9516134 -31.444302,10.045363 -31.717739,10.045363 C -31.932583,10.045363 -32.114223,9.9867697 -32.262661,9.8695822 C -32.407192,9.7523947 -32.516567,9.6117697 -32.590786,9.4477072 C -32.801723,9.7055197 -33.036098,9.8891134 -33.293911,9.9984884 C -33.547817,10.111770 -33.850552,10.168410 -34.202114,10.168410 C -34.737270,10.168410 -35.225552,10.018020 -35.666958,9.7172384 C -36.104458,9.4125509 -36.452114,8.9984884 -36.709927,8.4750509 C -36.963833,7.9477072 -37.090786,7.3715353 -37.090786,6.7465353 C -37.090786,6.1293478 -36.963833,5.5590353 -36.709927,5.0355978 C -36.452114,4.5082541 -36.102505,4.0941916 -35.661098,3.7934103 C -35.219692,3.4887228 -34.733364,3.3363791 -34.202114,3.3363791 C -33.846645,3.3363791 -33.543911,3.3910666 -33.293911,3.5004416 C -33.040005,3.6098166 -32.805630,3.7953634 -32.590786,4.0570822 C -32.520473,3.8969259 -32.411098,3.7582541 -32.262661,3.6410666 C -32.114223,3.5199728 -31.932583,3.4594259 -31.717739,3.4594259 C -31.444302,3.4594259 -31.219692,3.5531759 -31.043911,3.7406759 C -30.868130,3.9242697 -30.780239,4.1547384 -30.780239,4.4320822 z M -33.938442,5.1527853 C -34.336880,5.1527853 -34.651333,5.3051291 -34.881802,5.6098166 C -35.108364,5.9145041 -35.221645,6.2934103 -35.221645,6.7465353 C -35.221645,7.0355978 -35.170864,7.3051291 -35.069302,7.5551291 C -34.967739,7.8012228 -34.821255,7.9965353 -34.629848,8.1410666 C -34.434536,8.2855978 -34.204067,8.3578634 -33.938442,8.3578634 C -33.536098,8.3578634 -33.221645,8.2055197 -32.995083,7.9008322 C -32.768520,7.5922384 -32.655239,7.2074728 -32.655239,6.7465353 C -32.655239,6.2895041 -32.768520,5.9105978 -32.995083,5.6098166 C -33.221645,5.3051291 -33.536098,5.1527853 -33.938442,5.1527853 z M -42.645473,6.7465353 C -42.645473,6.1254416 -42.512661,5.5531759 -42.247036,5.0297384 C -41.981411,4.5023947 -41.610317,4.0883322 -41.133755,3.7875509 C -40.653286,3.4867697 -40.106411,3.3363791 -39.493130,3.3363791 C -39.168911,3.3363791 -38.834927,3.3754416 -38.491177,3.4535666 C -38.147427,3.5277853 -37.858364,3.6566916 -37.623989,3.8402853 C -37.389614,4.0238791 -37.272427,4.2719259 -37.272427,4.5844259 C -37.272427,4.8344259 -37.346645,5.0434103 -37.495083,5.2113791 C -37.639614,5.3793478 -37.821255,5.4633322 -38.040005,5.4633322 C -38.145473,5.4633322 -38.248989,5.4457541 -38.350552,5.4105978 C -38.448208,5.3754416 -38.547817,5.3383322 -38.649380,5.2992697 C -38.747036,5.2563009 -38.852505,5.2211447 -38.965786,5.1938009 C -39.075161,5.1664572 -39.213833,5.1527853 -39.381802,5.1527853 C -39.686489,5.1527853 -39.944302,5.2250509 -40.155239,5.3695822 C -40.362270,5.5102072 -40.518520,5.7016134 -40.623989,5.9438009 C -40.725552,6.1820822 -40.776333,6.4496603 -40.776333,6.7465353 C -40.776333,7.0355978 -40.725552,7.3051291 -40.623989,7.5551291 C -40.522427,7.8012228 -40.375942,7.9965353 -40.184536,8.1410666 C -39.989223,8.2855978 -39.758755,8.3578634 -39.493130,8.3578634 C -39.192348,8.3578634 -38.889614,8.3012228 -38.584927,8.1879416 C -38.280239,8.0746603 -38.098598,8.0180197 -38.040005,8.0180197 C -37.899380,8.0180197 -37.770473,8.0590353 -37.653286,8.1410666 C -37.536098,8.2230978 -37.444302,8.3305197 -37.377895,8.4633322 C -37.307583,8.5922384 -37.272427,8.7250509 -37.272427,8.8617697 C -37.272427,9.1508322 -37.399380,9.3949728 -37.653286,9.5941916 C -37.903286,9.7934103 -38.202114,9.9379416 -38.549770,10.027785 C -38.897427,10.121535 -39.211880,10.168410 -39.493130,10.168410 C -39.957973,10.168410 -40.383755,10.082473 -40.770473,9.9105978 C -41.153286,9.7387228 -41.487270,9.4945822 -41.772427,9.1781759 C -42.057583,8.8578634 -42.274380,8.4906759 -42.422817,8.0766134 C -42.571255,7.6586447 -42.645473,7.2152853 -42.645473,6.7465353 z " />
  <path
     style="font-size:12.000000;fill:none;fill-opacity:1.0000000;fill-rule:evenodd;stroke:#333333;stroke-width:3.1250000;stroke-linecap:round;stroke-linejoin:round;stroke-opacity:1.0000000;"
     d="M 6.6785922,5.1165123 C 5.5705922,5.1165123 4.6785922,6.0085123 4.6785922,7.1165123 L 4.6785922,53.501354 C 4.6785922,54.609354 5.5705922,55.501354 6.6785922,55.501354 L 53.423324,55.501354 C 54.531324,55.501354 55.423324,54.609354 55.423324,53.501354 L 55.423324,7.1165123 C 55.423324,6.0085123 54.531324,5.1165123 53.423324,5.1165123 L 6.6785922,5.1165123 z "
     id="rect935" />
  <metadata
     id="metadata20">
    <rdf:RDF
       id="RDF21">
      <cc:Work
         rdf:about=""
         id="Work22">
        <dc:format
           id="format23">image/svg+xml</dc:format>
        <dc:type
           id="type25"
           rdf:resource="http://purl.org/dc/dcmitype/StillImage" />
      </cc:Work>
    </rdf:RDF>
  </metadata>
</svg>
